<svg xmlns="http://www.w3.org/2000/svg" xmlns:xlink="http://www.w3.org/1999/xlink" width="157.2" height="157.58" viewBox="73.256 168.618 157.2 157.582">
  <defs>
    <path id="a" d="M73.26 168.62h157.2v157.2H73.26v-157.2Z"/>
    <path id="b" d="M230.46 168.62v4.8l-10.65 33.56-9.33 7.46-14.55-.74v14.74l9.14 7.27L224.1 240v7.22l-9.52 14.43v6.9l-8.21 5.22-14.18 23.67-.56 14.02-6.34 6.16-7.46-1.5-5.41 9.7H95.55l-8.77-5.59 4.48-20.15 1.87-2.64 45.33-13.62 5.41.93 18.66-21.45v-6.53l-31.34-7.28-19.59-23.69-5.6-22.76 7.84-20.9 20.15-13.52h96.47Z"/>
    <path id="c" d="m81.24 308.71 4.49 16.3 2.84-10.5 8.64-6.13-6.12-8.32-9.85 8.65Z"/>
    <path id="d" d="m114.83 326.2 6.45-8.08 5.91-3.29-1.53-10.28-5.8-3.17-6.34 5.03-.55 19.41 1.86.38Z"/>
    <path id="e" d="m159.89 306.46-.54 8.32-4.49 3.17-3.94 7.87h-1.97l-3.83-14 9.09-9.19 5.68 3.83Z"/>
  </defs>
  <use xlink:href="#a" fill="#7e7e7e"/>
  <use xlink:href="#b" fill="#795548"/>
  <use xlink:href="#c" fill="#000000"/>
  <use xlink:href="#d" fill="#000000"/>
  <use xlink:href="#e" fill="#000000"/>
</svg>
