<svg xmlns="http://www.w3.org/2000/svg" xmlns:xlink="http://www.w3.org/1999/xlink" width="209.6" height="209.6" viewBox="433.705 170.589 209.6 209.6">
  <defs>
    <path id="a" d="M433.71 170.59h209.6v209.6h-209.6v-209.6Z"/>
    <path id="b" d="m626.56 170.59-3.73 19.71-46.01 26.86-36.97-14.62-10.1-31.95h96.81Z"/>
    <path id="c" d="m560.67 258.44-17.16 33.57-19.8 27.87-48.54 37.22-18.43-12.4-5.11-19.9 6.94-14.61 7.3-.71 5.65 7.11 2.38 16.61 6.56-15.51v-7.5l-8.21-12.21-13.68-3.1-12.41 5.11-12.45 17.7.77 21.71 16.6 40.79h76.36l17.88-18.07 27.74-14.78 24.27-.73v13.87l-19.53 19.71h50l-6.2-14.24V345.7l8.94-15.81 2.55-19.7-4.38-23.91-17.05-31.88 11.71-64.63-39.1 16.22h-26.06l-18.36-4.25 20.82 56.7Z"/>
  </defs>
  <use xlink:href="#a" fill="#7e7e7e"/>
  <use xlink:href="#b" fill="#795548"/>
  <use xlink:href="#c" fill="#000000"/>
</svg>
