<svg xmlns="http://www.w3.org/2000/svg" xmlns:xlink="http://www.w3.org/1999/xlink" width="196.5" height="157.2" viewBox="122.893 223.995 196.5 157.2">
  <defs>
    <path id="a" d="M122.89 223.99h196.5v157.2h-196.5v-157.2Z"/>
    <path id="b" d="m123.61 263.4 5-10.24 8.69-7.48 13.95-21.69 168.14.6-.45 37.6-7.46 8.43-14.65 6.73-20.2 1.05-25.83-6.91-16 4.3-5.04 11.07 1.72 9.93h-16.51l-13.73 5.8-7.94 9.62.7 23.9 7.24 19.98 19.9 16.96-6.68 7.8h-90.85v-15.4l6.88-15.59 1.16-20.61-8.04-28.66V263.4Z"/>
    <path id="c" d="M319.39 232.52v13.12H137.24l8.29-13.12h173.86Z"/>
  </defs>
  <use xlink:href="#a" fill="#7e7e7e"/>
  <use xlink:href="#b" fill="#795548"/>
  <use xlink:href="#c" fill="#452f27"/>
</svg>
