<svg xmlns="http://www.w3.org/2000/svg" xmlns:xlink="http://www.w3.org/1999/xlink" width="104.8" height="157.2" viewBox="226.465 317.8 104.8 157.2">
  <defs>
    <path id="a" d="M226.46 317.8h104.8V475h-104.8V317.8Z"/>
    <path id="b" d="m230.3 355.07 6.16-12.62v-5.33l-4.31-2.65.25-12.64 4.26-4.03h85.91l4.79 4.67-.6 12-4.62 2.65-.34 5.82 5.9 10.06-5.9 53.56-15.53 31.41-.21 5.97 8.85 11.42v10.42l-8.1 8.87-55.8-.35-7.58-8.52.44-10.68 8.81-10.6v-5.84l-15.48-32.1-6.9-51.49Z"/>
    <path id="c" d="m322.08 337.23-.22 5.67-85.37-.29v-5.52l85.59.14Z"/>
    <path id="d" d="M306.2 438.13v5.88l-53.53.51v-5.63l53.53-.76Z"/>
  </defs>
  <use xlink:href="#a" fill="#7e7e7e"/>
  <use xlink:href="#b" fill="#795548"/>
  <use xlink:href="#c" fill="#452f27"/>
  <use xlink:href="#d" fill="#452f27"/>
</svg>
