<svg xmlns="http://www.w3.org/2000/svg" xmlns:xlink="http://www.w3.org/1999/xlink" width="183.4" height="222.7" viewBox="206.643 171.513 183.4 222.7">
  <defs>
    <path id="a" d="M206.64 171.51h183.4v222.7h-183.4v-222.7Z"/>
    <path id="b" d="m280.54 257.61 1.97 12.7 5.92 7.64 25.03-6.9 19.85-14.43 16.77-24.68-19.58 4.19 5.3-11.84-19.48 7.65 2.22-11.35-2.22-20.1-6.29-23.92-17.26 19.11-6.66 19.86-15.91-17.88-17.88-12.7 4.62 19.85 16.01 31.62 7.59 21.18Z"/>
    <path id="c" d="m269.59 229.79-2.22 8.83 4.06 1.03 9.86-18.51 42.62-25.43L277.23 262l12.53 15.18 34.15 19.98-13.44 5.67-12.94 21.54h3.67l12.23 10.64 4.44.49 3.33 3.58-1.2 5.3-5.33 5.55-3.58 11.59-3.45 1.36-2.59-2.35 7.03-21.45-13.32-5.06-4.81 26.02 2.1 4.81-.74 4.56-5.92 5.18.37 5.06-2.96 3.7-4.69.61 7.28-18.62v-35.8l-7.28-6.28.5-3.7 13.44-22.82-4.32-.98-7.77-11.1h-3.57L268.6 320.3l.99 8.01-5.08 3.45-6.81-3.82-.25-3.57 5.18-4.07 1.88-8.27-6.81 7.16-2.47 5.18-6.66-1.11-2.71-5.68 3.45-4.07 4.81.37 14.48-15.79.99-25.4 2.68-3.37-6.78-1.11-8.38-2.96-5.67-10.23 1.85-11.22-3.7-3.21-11.84 1.48-.99-3.45 7.52-1.48-6.53-2.47 2.96-4.68 15.41 6.78 8.39-17.26 5.08 10.28Z"/>
    <path id="d" d="m278.09 206.27 6.23-13.84-9.86 10.21 3.63 3.63Z"/>
  </defs>
  <use xlink:href="#a" fill="#9b7647"/>
  <use xlink:href="#b" fill="#aeaeae"/>
  <use xlink:href="#c" fill="#6babad"/>
  <use xlink:href="#d" fill="#6babad"/>
</svg>
