<?xml version="1.0" encoding="iso-8859-1"?>
<!-- Generator: Adobe Illustrator 19.0.0, SVG Export Plug-In . SVG Version: 6.00 Build 0)  -->
<svg version="1.1" id="Capa_1" xmlns="http://www.w3.org/2000/svg" xmlns:xlink="http://www.w3.org/1999/xlink" x="0px" y="0px"
	 viewBox="0 0 512 512" style="enable-background:new 0 0 512 512;" xml:space="preserve">
<path style="fill:#EDEBEC;" d="M169.423,480.029c7.745-85.151,59.982-150,116.673-144.844c44.606,4.057,78.674,50.25,87.402,111.236
	c13.355-9.851,26.245-20.889,38.479-33.123c106.807-106.807,123.565-263.217,37.431-349.351S206.862-5.429,100.055,101.378
	s-123.564,263.216-37.43,349.351c28.884,28.884,65.675,46.179,105.843,52.408C168.403,495.563,168.711,487.847,169.423,480.029z"/>
<path style="fill:#DCD7D8;" d="M93.818,444.491C7.683,358.356,24.441,201.947,131.248,95.14
	c42.426-42.426,92.681-70.628,143.248-83.832c-60.745,8.429-123.282,38.912-174.44,90.07
	C-6.75,208.185-23.509,364.594,62.626,450.729c28.884,28.884,65.675,46.179,105.843,52.408c-0.038-4.441,0.068-8.934,0.293-13.464
	C140.695,480.765,115.107,465.78,93.818,444.491z"/>
<circle style="fill:#F861AE;" cx="349.591" cy="113.859" r="52.934"/>
<circle style="fill:#F2387F;" cx="349.591" cy="113.859" r="35.285"/>
<circle style="fill:#855FB8;" cx="399.496" cy="276.055" r="52.934"/>
<circle style="fill:#7B49AD;" cx="399.496" cy="276.055" r="35.285"/>
<circle style="fill:#FF9D4A;" cx="174.916" cy="151.286" r="52.934"/>
<circle style="fill:#F48A16;" cx="174.916" cy="151.286" r="35.285"/>
<circle style="fill:#55D3FA;" cx="100.052" cy="313.482" r="52.934"/>
<circle style="fill:#56C4F0;" cx="100.052" cy="313.482" r="35.285"/>
<path d="M168.468,510.678c-0.384,0-0.77-0.029-1.155-0.089c-42.966-6.661-81.01-25.517-110.021-54.527
	C13.989,412.758-5.828,351.299,1.489,283.003c7.252-67.69,40.364-134.087,93.234-186.958c52.87-52.87,119.266-85.981,186.957-93.234
	c68.3-7.317,129.757,12.501,173.06,55.803c20.089,20.09,35.2,44.178,44.914,71.595c1.392,3.926-0.664,8.236-4.589,9.627
	c-3.926,1.396-8.237-0.664-9.627-4.589c-8.957-25.285-22.874-47.479-41.363-65.967c-40.013-40.015-97.114-58.295-160.786-51.472
	c-64.276,6.888-127.455,38.46-177.899,88.903S23.373,220.332,16.486,284.609C9.664,348.28,27.944,405.383,67.958,445.396
	c24.787,24.788,56.818,41.542,93.064,48.765c0.146-4.94,0.442-9.897,0.89-14.816c3.879-42.648,18.66-81.832,41.62-110.335
	c23.671-29.386,53.242-44.069,83.249-41.334c23.753,2.16,45.345,15.015,62.442,37.173c14.064,18.227,24.18,41.544,29.576,68.002
	c9.713-7.746,19.045-16.084,27.845-24.884c65.358-65.357,98.48-151.65,88.601-230.832c-0.516-4.133,2.416-7.902,6.55-8.417
	c4.141-0.513,7.902,2.417,8.417,6.55c5.023,40.259-0.589,83.664-16.23,125.521c-16.067,43.001-42.58,83.75-76.673,117.844
	c-12.25,12.249-25.484,23.641-39.335,33.859c-2.136,1.574-4.944,1.913-7.39,0.888c-2.449-1.026-4.177-3.261-4.553-5.888
	c-8.452-59.063-40.85-101.177-80.618-104.795c-24.822-2.243-49.733,10.448-70.135,35.777
	c-21.115,26.212-34.732,62.521-38.345,102.24c-0.676,7.434-0.986,14.957-0.923,22.359c0.019,2.213-0.935,4.324-2.61,5.77
	C172.021,510.035,170.266,510.678,168.468,510.678z"/>
<path d="M349.593,174.302c-15.487,0-30.974-5.895-42.763-17.684c-11.422-11.423-17.713-26.61-17.713-42.763
	c0-16.154,6.291-31.341,17.714-42.763c11.421-11.422,26.608-17.713,42.762-17.713c16.153,0,31.34,6.291,42.763,17.713
	c23.578,23.579,23.578,61.946,0,85.526C380.566,168.408,365.078,174.302,349.593,174.302z M349.593,68.463
	c-12.126,0-23.525,4.721-32.097,13.295c0,0.001,0,0.001-0.001,0.001c-8.573,8.572-13.295,19.971-13.295,32.097
	c0,12.125,4.721,23.524,13.296,32.097c8.848,8.849,20.474,13.272,32.097,13.274c11.625,0.001,23.247-4.423,32.098-13.274
	c17.698-17.699,17.698-46.497-0.001-64.195C373.116,73.184,361.717,68.463,349.593,68.463z"/>
<path d="M399.499,336.501c-15.486,0-30.973-5.894-42.762-17.684c-23.579-23.58-23.579-61.947-0.001-85.527
	c11.423-11.422,26.61-17.713,42.763-17.713c16.154,0,31.341,6.291,42.763,17.714c11.422,11.421,17.713,26.608,17.713,42.762
	c0,16.153-6.291,31.34-17.713,42.763C430.472,330.607,414.986,336.501,399.499,336.501z M399.499,230.661
	c-12.125,0-23.524,4.721-32.097,13.296c-17.699,17.698-17.699,46.496,0,64.196c17.698,17.698,46.497,17.699,64.195-0.001
	c8.574-8.573,13.296-19.972,13.296-32.097c0-12.126-4.721-23.525-13.295-32.097C423.023,235.383,411.624,230.661,399.499,230.661z"
	/>
<path d="M174.917,211.733c-15.487,0-30.973-5.895-42.763-17.684c-11.422-11.423-17.713-26.61-17.713-42.763
	s6.291-31.341,17.713-42.763l0,0l0,0c11.422-11.422,26.609-17.713,42.763-17.713s31.34,6.291,42.763,17.713
	s17.713,26.61,17.713,42.763s-6.291,31.34-17.713,42.763C205.89,205.838,190.403,211.733,174.917,211.733z M174.917,105.892
	c-12.125,0-23.524,4.721-32.097,13.296l0,0c-8.573,8.572-13.295,19.971-13.295,32.097c0,12.125,4.721,23.524,13.295,32.097
	c17.699,17.7,46.497,17.7,64.196,0c8.573-8.573,13.295-19.972,13.295-32.097c0-12.126-4.721-23.525-13.295-32.097
	C198.441,110.614,187.042,105.892,174.917,105.892z"/>
<path d="M100.055,373.932c-15.487,0-30.973-5.894-42.763-17.684c-11.422-11.423-17.713-26.61-17.713-42.763
	c0-16.153,6.291-31.341,17.713-42.763l0,0l0,0c11.422-11.422,26.609-17.713,42.763-17.713c16.153,0,31.34,6.291,42.763,17.713
	c11.423,11.422,17.713,26.61,17.713,42.763c0,16.153-6.291,31.34-17.713,42.763C131.03,368.037,115.543,373.932,100.055,373.932z
	 M100.056,268.091c-12.125,0-23.525,4.721-32.098,13.296l0,0c-8.573,8.572-13.295,19.971-13.295,32.097
	c0,12.125,4.721,23.524,13.295,32.097c17.699,17.7,46.497,17.7,64.196,0c8.573-8.573,13.295-19.972,13.295-32.097
	c0-12.126-4.721-23.525-13.295-32.097C123.58,272.812,112.18,268.091,100.056,268.091z"/>
<g>
</g>
<g>
</g>
<g>
</g>
<g>
</g>
<g>
</g>
<g>
</g>
<g>
</g>
<g>
</g>
<g>
</g>
<g>
</g>
<g>
</g>
<g>
</g>
<g>
</g>
<g>
</g>
<g>
</g>
</svg>
