<?xml version="1.0" encoding="iso-8859-1"?>
<!-- Generator: Adobe Illustrator 19.0.0, SVG Export Plug-In . SVG Version: 6.00 Build 0)  -->
<svg version="1.1" id="Capa_1" xmlns="http://www.w3.org/2000/svg" xmlns:xlink="http://www.w3.org/1999/xlink" x="0px" y="0px"
	 viewBox="0 0 512.001 512.001" style="enable-background:new 0 0 512.001 512.001;" xml:space="preserve">
<g>
	<path style="fill:#B9AEB1;" d="M254.158,88.318c-7.021,0-10.621-8.765-5.676-13.707C287.248,35.861,329.643,0,376.963,0
		c18.909,0,33.507,5.777,43.389,17.172c16.652,19.199,12.9,47.02,12.733,48.195c-0.627,4.39-4.699,7.442-9.084,6.813
		c-4.39-0.627-7.44-4.694-6.813-9.084c0.026-0.194,2.833-21.879-9.026-35.471c-6.698-7.675-17.195-11.567-31.2-11.567
		c-41.586,0-82.545,35.339-117.128,69.91C258.267,87.535,256.213,88.318,254.158,88.318z"/>
	<path style="fill:#B9AEB1;" d="M48.174,240.868c-24.838,0-36.717-13.329-42.307-24.51C0.066,204.76,0,193.181,0,192.694
		c0-4.434,3.595-8.029,8.029-8.029c4.424,0,8.011,3.577,8.029,7.996c0.002,0.183,0.151,8.761,4.388,16.942
		c5.299,10.233,14.369,15.207,27.728,15.207c17.222,0,34.707-4.936,53.453-15.089c3.899-2.112,8.771-0.663,10.884,3.237
		c2.112,3.899,0.662,8.772-3.237,10.884C88.12,235.299,68.134,240.868,48.174,240.868z M16.058,192.694h0.01H16.058z"/>
</g>
<path id="SVGCleanerId_0" style="fill:#EDEBEC;" d="M509.648,362.039L310.943,163.334c-25.043-25.044-65.793-25.045-90.836,0
	l-56.773,56.773c-25.044,25.043-25.044,65.793,0,90.836l198.706,198.706c3.091,3.092,8.264,3.092,11.354,0l136.255-136.256
	C512.785,370.258,512.785,365.175,509.648,362.039z"/>
<g>
	<path id="SVGCleanerId_0_1_" style="fill:#EDEBEC;" d="M509.648,362.039L310.943,163.334c-25.043-25.044-65.793-25.045-90.836,0
		l-56.773,56.773c-25.044,25.043-25.044,65.793,0,90.836l198.706,198.706c3.091,3.092,8.264,3.092,11.354,0l136.255-136.256
		C512.785,370.258,512.785,365.175,509.648,362.039z"/>
</g>
<path style="fill:#F74FA4;" d="M367.716,512c2.054,0,4.11-0.784,5.677-2.351l136.255-136.255c3.136-3.135,3.136-8.219,0-11.354
	L350.684,203.075l-147.61,147.61l158.964,158.965C363.607,511.217,365.662,512,367.716,512z"/>
<path style="fill:#DCD7D8;" d="M179.375,294.902c-25.044-25.044-25.044-65.793,0-90.836l-16.042,16.042
	c-25.044,25.043-25.044,65.793,0,90.836l39.741,39.741l16.042-16.042L179.375,294.902z"/>
<path style="fill:#EDEBEC;" d="M512,367.717c0-2.054-0.784-4.11-2.351-5.677L350.684,203.075l158.965,158.965
	C511.216,363.607,512,365.662,512,367.717z"/>
<g>
	<polygon style="fill:#F74FA4;" points="509.648,373.394 509.653,373.389 389.435,493.607 	"/>
	<path style="fill:#F74FA4;" d="M203.074,350.684l158.964,158.965L203.074,350.684z"/>
	<polygon style="fill:#F74FA4;" points="373.394,509.649 389.435,493.607 389.435,493.608 	"/>
	<path style="fill:#F74FA4;" d="M362.039,509.649c1.568,1.568,3.622,2.351,5.677,2.351s4.11-0.784,5.677-2.351
		C370.303,512.741,365.13,512.741,362.039,509.649z"/>
</g>
<path style="fill:#F2387F;" d="M378.081,493.607L219.116,334.644l-16.042,16.042L362.039,509.65c3.091,3.092,8.264,3.092,11.354,0
	l16.041-16.041C386.343,496.699,381.171,496.699,378.081,493.607z"/>
<path style="fill:#F74FA4;" d="M512,367.717c0,2.054-0.784,4.109-2.351,5.676L389.435,493.608c0,0,0,0,0.001-0.001l120.218-120.218
	C511.217,371.823,512,369.769,512,367.717z"/>
<path style="fill:#FF9D4A;" d="M184.665,72.261c-41.915,0-48.173-40.243-48.173-64.231c0-4.434-3.595-8.029-8.029-8.029
	c-4.434,0-8.029,3.595-8.029,8.029c0,23.988-6.259,64.231-48.174,64.231c-4.434,0-8.029,3.595-8.029,8.029
	c0,4.434,3.595,8.029,8.029,8.029c41.915,0,48.174,40.243,48.174,64.231c0,4.434,3.595,8.029,8.029,8.029
	c4.434,0,8.029-3.595,8.029-8.029c0-23.988,6.259-64.231,48.173-64.231c4.434,0,8.029-3.595,8.029-8.029
	C192.694,75.856,189.099,72.261,184.665,72.261z"/>
<g>
	<path style="fill:#FFB577;" d="M120.434,369.331c-13.787,0-32.116-4.994-32.116-48.173c0-4.434-3.595-8.029-8.029-8.029
		s-8.029,3.595-8.029,8.029c0,43.18-18.329,48.173-32.116,48.173c-4.434,0-8.029,3.595-8.029,8.029c0,4.434,3.595,8.029,8.029,8.029
		c13.787,0,32.116,4.994,32.116,48.173c0,4.434,3.595,8.029,8.029,8.029s8.029-3.595,8.029-8.029
		c0-43.18,18.329-48.173,32.116-48.173c4.434,0,8.029-3.595,8.029-8.029C128.463,372.925,124.868,369.331,120.434,369.331z"/>
	<path style="fill:#FFB577;" d="M401.446,112.405c-14.458,0-24.087-6.827-24.087-40.145c0-4.434-3.595-8.029-8.029-8.029
		c-4.434,0-8.029,3.595-8.029,8.029c0,33.318-9.629,40.145-24.087,40.145c-4.434,0-8.029,3.595-8.029,8.029s3.595,8.029,8.029,8.029
		c14.458,0,24.087,6.827,24.087,40.145c0,4.434,3.595,8.029,8.029,8.029c4.434,0,8.029-3.595,8.029-8.029
		c0-33.318,9.629-40.145,24.087-40.145c4.434,0,8.029-3.595,8.029-8.029S405.88,112.405,401.446,112.405z"/>
</g>
<g>
</g>
<g>
</g>
<g>
</g>
<g>
</g>
<g>
</g>
<g>
</g>
<g>
</g>
<g>
</g>
<g>
</g>
<g>
</g>
<g>
</g>
<g>
</g>
<g>
</g>
<g>
</g>
<g>
</g>
</svg>
