<svg id="Capa_1" enable-background="new 0 0 512 512" height="512" viewBox="0 0 512 512" width="512" xmlns="http://www.w3.org/2000/svg"><g><path d="m437.961 364.187-127.119-91.809c-11.166-8.064-11.166-24.692 0-32.757l127.119-91.809c13.361-9.65 32.032-.103 32.032 16.378v183.617c0 16.483-18.671 26.029-32.032 16.38z" fill="#ffe177"/><path d="m74.039 364.187 127.119-91.809c11.166-8.064 11.166-24.692 0-32.757l-127.119-91.808c-13.361-9.65-32.032-.103-32.032 16.378v183.617c0 16.482 18.671 26.028 32.032 16.379z" fill="#ffe177"/><path d="m437.961 147.813-22.808 16.473c4.355 13.347 6.72 27.593 6.72 42.394 0 43.821-20.645 82.815-52.736 107.801l68.824 49.706c13.361 9.65 32.032.103 32.032-16.378v-183.618c0-16.481-18.671-26.027-32.032-16.378z" fill="#ffd15b"/><path d="m201.158 239.622-57.38-41.441c.173 2.812.271 5.644.271 8.499 0 63.493-43.336 116.86-102.043 132.148v8.981c0 16.481 18.671 26.028 32.032 16.378l127.12-91.809c11.166-8.064 11.166-24.692 0-32.756z" fill="#ffd15b"/><g><path d="m239.837 362.067h32.325v30.305h-32.325z" fill="#9facba"/><path d="m239.837 240.848h32.325v30.305h-32.325z" fill="#9facba"/><g fill="#b6c4cf"><path d="m239.837 7.5h32.325v81.823h-32.325z"/><path d="m239.837 301.457h32.325v30.305h-32.325z"/><path d="m239.837 422.677h32.325v81.823h-32.325z"/><path d="m239.837 180.238h32.325v30.305h-32.325z"/></g><path d="m239.837 119.628h32.325v30.305h-32.325z" fill="#9facba"/></g><g><path d="m462.397 139.522c-9.307-4.758-20.354-3.913-28.829 2.208l-37.55 27.12c-3.357 2.425-4.113 7.113-1.688 10.471 2.426 3.358 7.113 4.114 10.472 1.689l37.55-27.12c3.943-2.849 8.883-3.227 13.218-1.012 4.333 2.216 6.921 6.445 6.921 11.312v183.62c0 4.867-2.588 9.096-6.921 11.312-4.335 2.214-9.274 1.836-13.218-1.012l-127.117-91.808c-3.346-2.419-5.265-6.174-5.265-10.302s1.919-7.883 5.262-10.3l61.2-44.2c3.357-2.425 4.113-7.113 1.688-10.471s-7.112-4.114-10.472-1.689l-61.203 44.203c-7.293 5.273-11.476 13.459-11.476 22.458s4.183 17.184 11.479 22.46l127.12 91.81c4.831 3.489 10.496 5.264 16.2 5.264 4.303 0 8.627-1.01 12.629-3.056 9.31-4.76 15.093-14.212 15.093-24.667v-183.622c0-10.456-5.783-19.908-15.093-24.668z"/><path d="m205.552 233.54-127.12-91.81c-8.475-6.121-19.522-6.966-28.829-2.208-9.31 4.76-15.093 14.212-15.093 24.667v67.57c0 4.142 3.357 7.5 7.5 7.5s7.5-3.358 7.5-7.5v-67.57c0-4.867 2.588-9.096 6.921-11.312 4.334-2.214 9.274-1.836 13.218 1.012l127.117 91.808c3.346 2.419 5.265 6.174 5.265 10.302s-1.919 7.883-5.262 10.3l-127.12 91.81c-3.943 2.849-8.884 3.227-13.218 1.012-4.333-2.216-6.921-6.445-6.921-11.312v-81.05c0-4.142-3.357-7.5-7.5-7.5s-7.5 3.358-7.5 7.5v81.05c0 10.456 5.783 19.908 15.093 24.667 4.002 2.046 8.326 3.057 12.629 3.056 5.703 0 11.369-1.775 16.2-5.264l127.123-91.812c7.293-5.273 11.476-13.459 11.476-22.458s-4.183-17.182-11.479-22.458z"/><path d="m272.163 354.567h-32.326c-4.143 0-7.5 3.358-7.5 7.5v30.305c0 4.142 3.357 7.5 7.5 7.5h32.326c4.143 0 7.5-3.358 7.5-7.5v-30.305c0-4.142-3.357-7.5-7.5-7.5zm-7.5 30.305h-17.326v-15.305h17.326z"/><path d="m272.163 233.348h-32.326c-4.143 0-7.5 3.358-7.5 7.5v30.305c0 4.142 3.357 7.5 7.5 7.5h32.326c4.143 0 7.5-3.358 7.5-7.5v-30.305c0-4.142-3.357-7.5-7.5-7.5zm-7.5 30.304h-17.326v-15.305h17.326z"/><path d="m239.84 96.82h32.32c4.143 0 7.5-3.358 7.5-7.5v-81.82c0-4.142-3.357-7.5-7.5-7.5h-32.32c-4.143 0-7.5 3.358-7.5 7.5v23.41c0 4.142 3.357 7.5 7.5 7.5s7.5-3.358 7.5-7.5v-15.91h17.32v66.82h-17.32v-15.91c0-4.142-3.357-7.5-7.5-7.5s-7.5 3.358-7.5 7.5v23.41c0 4.142 3.357 7.5 7.5 7.5z"/><path d="m272.163 293.958h-32.326c-4.143 0-7.5 3.358-7.5 7.5v30.305c0 4.142 3.357 7.5 7.5 7.5h32.326c4.143 0 7.5-3.358 7.5-7.5v-30.305c0-4.143-3.357-7.5-7.5-7.5zm-7.5 30.304h-17.326v-15.305h17.326z"/><path d="m272.163 415.177h-32.326c-4.143 0-7.5 3.358-7.5 7.5v81.823c0 4.142 3.357 7.5 7.5 7.5h32.326c4.143 0 7.5-3.358 7.5-7.5v-81.823c0-4.142-3.357-7.5-7.5-7.5zm-7.5 81.823h-17.326v-66.823h17.326z"/><path d="m272.163 172.738h-32.326c-4.143 0-7.5 3.358-7.5 7.5v30.305c0 4.142 3.357 7.5 7.5 7.5h32.326c4.143 0 7.5-3.358 7.5-7.5v-30.305c0-4.142-3.357-7.5-7.5-7.5zm-7.5 30.304h-17.326v-15.305h17.326z"/><path d="m272.163 112.128h-32.326c-4.143 0-7.5 3.358-7.5 7.5v30.305c0 4.142 3.357 7.5 7.5 7.5h32.326c4.143 0 7.5-3.358 7.5-7.5v-30.305c0-4.142-3.357-7.5-7.5-7.5zm-7.5 30.305h-17.326v-15.305h17.326z"/></g></g></svg>