<svg id="Layer_1" enable-background="new 0 0 512 512" height="512" viewBox="0 0 512 512" width="512" xmlns="http://www.w3.org/2000/svg"><g><g><path d="m468.439 289.92c-14.88 8.48-36.29 19.66-58.58 27.89 0 0 14.4 3.64 36.81 6.56-18.83 25.76-41.34 48.1-66.13 66.84-17.2 1.08-43.43 1.82-69.04-.99 0 0 12.62 10.87 33.4 24.6-52.01 30.03-110.28 45.93-164.35 46.24-15.41-7.45-36.62-18.68-55.93-32.28 0 0 4.33 11.66 12.97 29.05-32.4-5.25-61.97-16.94-86.03-35.46-4.36-3.35-8.53-6.92-12.51-10.72 0-95.91 53.01-147.38 122.26-182.92-.26 8.55-.81 17.42-1.77 26.21 0 0 12.72-14.78 28-38.65 37.61-16.58 78.35-29.83 117.12-43.69.7 18.06.7 40.98-1.77 63.47 0 0 29.5-34.24 54.47-83.77 53.8-22.98 97.79-51.53 114.72-99 4.86-13.61 7.49-28.77 7.49-45.8 40.08 113.86 28.52 209.09-11.13 282.42z" fill="#ffe07d"/><path d="m468.439 289.92c-14.88 8.48-36.29 19.66-58.58 27.89 0 0 14.4 3.64 36.81 6.56-18.83 25.76-41.34 48.1-66.13 66.84-17.2 1.08-43.43 1.82-69.04-.99 0 0 12.62 10.87 33.4 24.6-52.01 30.03-110.28 45.93-164.35 46.24-15.41-7.45-36.62-18.68-55.93-32.28 0 0 4.33 11.66 12.97 29.05-32.4-5.25-61.97-16.94-86.03-35.46 40.18 12.24 57.38 10 57.38 10-5.88-15.93 4.62-20.79 4.62-20.79 124.33 35.25 177.52 0 177.52 0-12.49-13.22-13.22-28.88-13.22-28.88 88.87-10.06 125.78-51.17 125.78-51.17-18.17.73-25.5-17.34-25.5-17.34 108.31-37.02 104.8-181.37 93.94-260.89 4.86-13.61 7.49-28.77 7.49-45.8 40.08 113.86 28.52 209.09-11.13 282.42z" fill="#ffd064"/></g><g><path d="m72.909 299.044c1.382 1.103 3.032 1.637 4.672 1.637 2.204 0 4.387-.967 5.868-2.823 16.761-21.016 39.645-39.499 69.722-56.272-.29 4.322-.657 8.511-1.099 12.532-.359 3.267 1.45 6.387 4.464 7.697 3.014 1.311 6.528.507 8.673-1.983.52-.603 12.574-14.666 27.407-37.584 28.207-12.305 58.508-22.906 87.832-33.167 5.595-1.957 11.313-3.958 17.007-5.968.377 18.906-.305 36.403-2.034 52.138-.359 3.267 1.45 6.386 4.464 7.697 3.01 1.31 6.527.508 8.673-1.983 1.209-1.403 29.432-34.398 54.238-82.843 17.24-7.466 31.878-14.844 44.679-22.516 3.553-2.13 4.707-6.736 2.578-10.289-2.131-3.554-6.737-4.704-10.289-2.578-12.827 7.688-27.67 15.104-45.373 22.669-1.626.694-2.954 1.941-3.75 3.52-13.225 26.231-27.854 48.235-38.46 62.864.51-12.439.497-25.641-.04-39.481-.093-2.386-1.315-4.586-3.295-5.923-1.976-1.337-4.473-1.651-6.723-.849-8.788 3.142-17.858 6.315-26.629 9.384-30.313 10.605-61.658 21.573-90.987 34.501-1.351.596-2.495 1.577-3.291 2.82-4.462 6.97-8.713 13.164-12.479 18.42.02-.566.038-1.133.056-1.701.079-2.653-1.248-5.15-3.491-6.567-2.245-1.418-5.07-1.542-7.429-.332-37.774 19.386-65.955 41.119-86.151 66.441-2.582 3.237-2.051 7.956 1.187 10.539z"/><path d="m486.621 5.011c-1.213-3.447-4.733-5.519-8.337-4.902-3.602.615-6.237 3.738-6.237 7.393 0 37.812-13.761 68.38-42.07 93.45-3.1 2.747-3.389 7.486-.643 10.588 2.745 3.101 7.484 3.388 10.587.643 22.232-19.69 36.454-42.405 42.97-68.823 16.509 60.729 18.543 118.343 6.008 171.675-.948 4.032 1.553 8.069 5.585 9.017.577.136 1.154.201 1.723.201 3.401 0 6.482-2.331 7.294-5.786 15.476-65.849 9.798-137.665-16.88-213.456z"/><path d="m487.958 245.641c-3.88-1.449-8.201.525-9.647 4.407-4.379 11.744-9.582 23.312-15.476 34.416-13.989 7.886-34.425 18.49-55.592 26.309-3.083 1.139-5.065 4.151-4.89 7.433.174 3.282 2.464 6.067 5.65 6.874.482.121 9.767 2.45 24.938 4.881-15.828 19.856-34.33 37.942-55.148 53.896-17.076.997-41.599 1.534-65.495-1.093-3.264-.362-6.386 1.451-7.697 4.464-1.31 3.014-.507 6.529 1.983 8.674.438.378 9.178 7.872 24.006 18.263-11.89 6.322-24.197 11.978-36.718 16.867-3.858 1.507-5.764 5.856-4.258 9.715 1.157 2.962 3.989 4.773 6.988 4.773.907 0 1.83-.166 2.726-.516 16.964-6.626 33.552-14.598 49.303-23.693 2.25-1.3 3.668-3.672 3.746-6.271.077-2.598-1.195-5.051-3.364-6.483-4.898-3.234-9.343-6.315-13.265-9.126 17.194.591 33.251.014 45.244-.74 1.468-.093 2.876-.615 4.05-1.502 26.191-19.793 48.953-42.803 67.654-68.392 1.564-2.14 1.883-4.945.839-7.381s-3.296-4.14-5.924-4.482c-4.296-.56-8.296-1.148-11.953-1.732 14.188-6.489 26.97-13.353 36.473-18.765 1.219-.694 2.219-1.717 2.886-2.951 6.641-12.286 12.478-25.138 17.347-38.197 1.448-3.881-.524-8.2-4.406-9.648z"/><path d="m257.725 442.883c-25.424 6.781-50.812 10.367-75.492 10.664-14.373-7.015-34.779-17.854-53.295-30.898-2.688-1.893-6.292-1.816-8.896.19-2.602 2.005-3.597 5.472-2.454 8.552.13.351 2.395 6.415 6.84 16.225-28.993-6.711-54.349-19.009-74.313-36.073 4.225-3.891 8.846-7.531 13.871-10.938 25.518-17.297 59.411-27.404 96.176-36.623 9.625 9.236 40.344 36.164 84.424 50.144.754.239 1.518.353 2.268.353 3.181 0 6.134-2.041 7.147-5.235 1.252-3.948-.934-8.164-4.883-9.416-32.879-10.426-58.197-29.051-71.301-40.182 1.838-.445 3.681-.891 5.528-1.338 39.64-9.586 81.91-19.808 120.988-38.13 8.293 2.996 32.127 11.037 56.365 13.901.299.035.596.053.89.053 3.748 0 6.988-2.807 7.438-6.621.486-4.113-2.455-7.842-6.568-8.328-14.294-1.689-28.737-5.417-39.339-8.618 32.125-17.938 61.275-42.574 83.899-78.458 2.209-3.504 1.159-8.135-2.345-10.345-3.503-2.206-8.133-1.159-10.344 2.345-22.453 35.614-53.898 62.571-96.129 82.411-18.809 8.836-38.461 15.734-58.366 21.622 9.937-17.073 23.271-45.748 27.274-81.724.458-4.116-2.508-7.825-6.625-8.283-4.1-.455-7.825 2.508-8.283 6.625-5.224 46.955-28.217 81.245-34.179 89.455-12.77 3.366-25.555 6.458-38.204 9.517-21.683 5.244-43.085 10.419-63.144 16.782 7.56-13.137 16.406-31.42 19.103-48.776.636-4.094-2.166-7.927-6.258-8.563-4.1-.632-7.927 2.166-8.563 6.26-3.767 24.24-22.297 52.202-27.123 59.159-17.317 6.875-33.152 15.167-46.682 25.849 1.777-24.742 7.504-46.722 17.363-66.789 1.826-3.718.294-8.213-3.424-10.039-3.72-1.825-8.212-.294-10.039 3.424-12.606 25.658-19.158 55.251-19.489 87.999-19.661 21.983-31.561 52.173-31.561 95.464 0 4.143 3.357 7.5 7.5 7.5s7.5-3.357 7.5-7.5c0-34.56 7.993-61.306 24.82-82.026 25.362 21.876 58.563 36.607 96.563 42.763 2.776.455 5.567-.689 7.236-2.953 1.668-2.262 1.931-5.268.681-7.785-1.024-2.064-1.987-4.047-2.889-5.938 13.293 7.941 26.092 14.528 35.864 19.253 1.018.492 2.134.748 3.264.748h.043c26.501-.153 53.756-3.917 81.008-11.186 4.002-1.067 6.382-5.178 5.314-9.18-1.069-4.003-5.179-6.378-9.179-5.313z"/></g></g></svg>