<?xml version="1.0" encoding="iso-8859-1"?>
<!-- Generator: Adobe Illustrator 19.0.0, SVG Export Plug-In . SVG Version: 6.00 Build 0)  -->
<svg version="1.1" id="Capa_1" xmlns="http://www.w3.org/2000/svg" xmlns:xlink="http://www.w3.org/1999/xlink" x="0px" y="0px"
	 viewBox="0 0 512 512" style="enable-background:new 0 0 512 512;" xml:space="preserve">
<path style="fill:#EDEBEC;" d="M510.511,231.934c7.322-68.341-12.527-129.861-55.888-173.223
	C411.26,15.347,349.74-4.501,281.399,2.822c-67.638,7.247-133.971,40.321-186.78,93.13S8.736,215.094,1.489,282.731
	c-7.322,68.341,12.526,129.861,55.889,173.223c29.057,29.057,67.153,47.941,110.171,54.612c5.266,0.815,10.169-3.416,10.122-8.75
	c-0.063-7.32,0.245-14.761,0.915-22.121l-0.001-0.001c3.573-39.27,17.023-75.154,37.874-101.04
	c20.025-24.859,44.413-37.334,68.674-35.127c38.966,3.544,70.742,45.007,79.066,103.177c0.925,6.463,8.661,9.687,13.9,5.821
	c13.829-10.2,27.045-21.576,39.282-33.813C470.19,365.904,503.263,299.571,510.511,231.934z"/>
<path style="fill:#DCD7D8;" d="M177.72,495.358c-37.013-8.367-69.805-26.107-95.515-51.816
	c-43.362-43.363-63.21-104.882-55.888-173.223c7.247-67.638,40.321-133.971,93.13-186.78c22.875-22.875,48.291-42.04,75.248-57.014
	c-36.2,16.136-70.289,39.641-100.077,69.428C41.81,148.761,8.736,215.094,1.489,282.731
	c-7.322,68.341,12.526,129.861,55.889,173.223c29.057,29.057,67.153,47.941,110.171,54.612c5.266,0.815,10.169-3.416,10.122-8.75
	C177.652,499.672,177.676,497.518,177.72,495.358z"/>
<path style="fill:#F74FA4;" d="M389.14,74.537c-22.075-22.075-57.995-22.076-80.072,0c-22.076,22.076-22.075,57.996,0,80.072
	s57.995,22.076,80.072,0S411.216,96.612,389.14,74.537z"/>
<path style="fill:#855FB8;" d="M438.796,235.918c-22.076-22.076-57.995-22.076-80.072,0c-22.076,22.076-22.076,57.995,0,80.072
	c22.076,22.076,57.995,22.076,80.072,0C460.872,293.913,460.872,257.993,438.796,235.918z"/>
<path style="fill:#FF9D4A;" d="M215.346,111.778c-22.075-22.075-57.995-22.076-80.072,0s-22.075,57.996,0,80.072
	s57.995,22.076,80.072,0S237.421,133.854,215.346,111.778z"/>
<path style="fill:#55D3FA;" d="M140.862,273.159c-22.075-22.075-57.995-22.076-80.072,0c-22.076,22.076-22.075,57.996,0,80.072
	c22.075,22.075,57.995,22.076,80.072,0S162.938,295.235,140.862,273.159z"/>
<g>
</g>
<g>
</g>
<g>
</g>
<g>
</g>
<g>
</g>
<g>
</g>
<g>
</g>
<g>
</g>
<g>
</g>
<g>
</g>
<g>
</g>
<g>
</g>
<g>
</g>
<g>
</g>
<g>
</g>
</svg>
