<?xml version="1.0" encoding="iso-8859-1"?>
<!-- Generator: Adobe Illustrator 19.0.0, SVG Export Plug-In . SVG Version: 6.00 Build 0)  -->
<svg version="1.1" id="Capa_1" xmlns="http://www.w3.org/2000/svg" xmlns:xlink="http://www.w3.org/1999/xlink" x="0px" y="0px"
	 viewBox="0 0 511.999 511.999" style="enable-background:new 0 0 511.999 511.999;" xml:space="preserve">
<path style="fill:#C2AFDB;" d="M510.27,79.014c-0.6-2.047-6.281-20.532-20.834-38.889C468.627,13.875,440.175,0,407.156,0
	C336.51,0,285.185,65.684,235.55,129.204c-42.571,54.481-86.59,110.816-132.024,110.816c-12.892,0-22.776-4.721-31.107-14.857
	c-7.189-8.749-10.201-18.19-10.212-18.221c-1.264-4.214-5.688-6.618-9.92-5.376c-0.554,0.163-1.077,0.38-1.564,0.646l-44.48,12.707
	c-4.246,1.213-6.708,5.64-5.495,9.888c0.585,2.049,6.132,20.559,20.609,38.985c20.681,26.321,49.094,40.233,82.169,40.233
	c76.646,0,130.438-68.839,182.458-135.412c40.186-51.428,81.74-104.608,121.172-104.608c12.951,0,22.924,4.755,31.384,14.967
	c7.287,8.794,10.378,18.278,10.393,18.323c1.301,4.205,5.753,6.573,9.966,5.293c0.544-0.165,1.059-0.383,1.538-0.646l44.405-13.001
	c2.036-0.596,3.753-1.977,4.771-3.839C510.631,83.24,510.867,81.05,510.27,79.014z"/>
<path style="fill:#FF9D4A;" d="M511.526,424.1c-0.221-2.37-1.484-4.519-3.448-5.862l-107.489-73.545
	c-3.178-2.174-7.451-1.777-10.176,0.946l-45.259,45.258c-2.722,2.722-3.119,6.998-0.945,10.175l73.545,107.489
	c2.783,4.068,8.771,4.628,12.261,1.139l79.203-79.203C510.9,428.814,511.746,426.47,511.526,424.1z"/>
<path style="fill:#F48A16;" d="M345.154,390.896c-2.722,2.722-3.119,6.998-0.945,10.175l73.545,107.489
	c2.783,4.068,8.771,4.628,12.261,1.139l11.989-11.989L352.84,383.209L345.154,390.896z"/>
<path style="fill:#EDEBEC;" d="M390.414,255.12c-15.422-15.421-49.726-28.115-101.958-37.729
	c-38.094-7.011-72.436-9.82-72.778-9.847c-2.34-0.19-4.64,0.659-6.3,2.317c-1.658,1.658-2.505,3.96-2.317,6.299
	c0.028,0.342,2.836,34.685,9.848,72.778c9.613,52.232,22.308,86.535,37.729,101.958c18.718,18.717,43.303,28.075,67.889,28.075
	s49.171-9.358,67.889-28.075C427.846,353.463,427.846,292.554,390.414,255.12z"/>
<path style="fill:#DCD7D8;" d="M339.026,408.034c-24.586,0-49.171-9.358-67.889-28.075c-15.421-15.421-28.115-49.725-37.729-101.958
	c-5.801-31.518-8.722-60.446-9.575-69.696c-5.083-0.511-8.058-0.755-8.158-0.762c-2.34-0.19-4.64,0.659-6.3,2.317
	c-1.658,1.658-2.505,3.96-2.317,6.299c0.028,0.342,2.836,34.685,9.848,72.778c9.613,52.232,22.308,86.535,37.729,101.958
	c18.718,18.717,43.303,28.075,67.889,28.075c21.662,0,43.318-7.275,60.966-21.804C369.61,404.409,354.32,408.034,339.026,408.034z"
	/>
<path style="fill:#A487C9;" d="M416.27,302.243c-3.938-17.85-12.879-34.146-25.856-47.123
	c-15.422-15.421-49.726-28.115-101.958-37.729c-38.094-7.011-72.436-9.82-72.778-9.847c-2.34-0.19-4.641,0.659-6.3,2.317
	c-1.658,1.658-2.505,3.961-2.317,6.3c0.342,4.245,8.66,104.549,33.842,154.642c1.795,3.57,5.946,5.269,9.732,3.978
	c3.782-1.291,6.032-5.174,5.27-9.098c-1.019-5.241,0.622-10.621,4.391-14.389c3.021-3.022,7.04-4.686,11.314-4.686
	c4.273,0,8.292,1.664,11.314,4.687l16.972,16.972c6.239,6.239,14.434,9.358,22.629,9.358c8.195,0,16.39-3.119,22.629-9.358
	c6.046-6.045,9.374-14.081,9.374-22.629c0-8.549-3.328-16.584-9.373-22.629l-5.657-5.657c-6.239-6.239-6.239-16.39-0.001-22.629
	c3.022-3.022,7.042-4.687,11.315-4.687c4.274,0,8.293,1.664,11.314,4.686l11.314,11.314c10.432,10.432,26.531,12.397,39.15,4.78
	C415.529,309.043,417.01,305.594,416.27,302.243z"/>
<g>
	<path style="fill:#855FB8;" d="M223.835,208.307c-5.083-0.511-8.058-0.755-8.158-0.762c-2.34-0.19-4.641,0.659-6.3,2.317
		c-1.658,1.658-2.505,3.961-2.317,6.3c0.342,4.245,8.66,104.549,33.842,154.642c1.795,3.57,5.946,5.269,9.732,3.978
		c3.782-1.291,6.032-5.174,5.27-9.098c-0.524-2.696-0.339-5.426,0.471-7.957c-8.93-18.581-16.619-45.243-22.966-79.724
		C227.608,246.485,224.687,217.556,223.835,208.307z"/>
	<path style="fill:#855FB8;" d="M205.676,93.383c-5.811-5.643-13.521-8.696-21.571-8.567c-16.72,0.246-30.123,14.047-29.878,30.767
		c0.205,13.983,18.941,38.459,24.678,45.628c3.211,4.012,9.544,3.921,12.637-0.186c5.524-7.334,23.534-32.349,23.329-46.332
		C214.753,106.595,211.488,99.026,205.676,93.383z"/>
	<path style="fill:#855FB8;" d="M113.211,155.812c-8.284-0.584-16.302,2.084-22.577,7.526c-6.274,5.441-10.054,13.001-10.642,21.285
		c-1.216,17.102,11.708,32.004,28.81,33.22c0.413,0.029,0.837,0.043,1.27,0.043c14.602,0,40.114-16.28,47.765-21.396
		c4.27-2.854,4.722-9.174,0.896-12.606C151.681,177.557,127.554,156.831,113.211,155.812z"/>
	<path style="fill:#855FB8;" d="M98.048,143.768c9.843,7.613,36.642,8.245,45.172,8.245c0.111,0,0.22,0,0.325,0
		c2.471-0.005,4.801-1.151,6.314-3.105c1.512-1.954,2.035-4.498,1.419-6.892c-2.034-7.895-9.445-34.252-19.416-41.964l0,0
		c-12.052-9.322-29.442-7.102-38.765,4.951c-7.126,9.212-7.665,22.313-1.268,32.059C93.51,139.624,95.625,141.894,98.048,143.768z"
		/>
</g>
<g>
</g>
<g>
</g>
<g>
</g>
<g>
</g>
<g>
</g>
<g>
</g>
<g>
</g>
<g>
</g>
<g>
</g>
<g>
</g>
<g>
</g>
<g>
</g>
<g>
</g>
<g>
</g>
<g>
</g>
</svg>
