<?xml version="1.0" encoding="iso-8859-1"?>
<!-- Generator: Adobe Illustrator 19.0.0, SVG Export Plug-In . SVG Version: 6.00 Build 0)  -->
<svg version="1.1" id="Capa_1" xmlns="http://www.w3.org/2000/svg" xmlns:xlink="http://www.w3.org/1999/xlink" x="0px" y="0px"
	 viewBox="0 0 512 512" style="enable-background:new 0 0 512 512;" xml:space="preserve">
<path style="fill:#EDEBEC;" d="M461.657,275.515L235.382,49.241c-3.08-3.081-8.234-3.081-11.313,0L37.393,235.917
	c-13.599,13.599-21.088,31.68-21.088,50.912s7.489,37.313,21.088,50.912l135.764,135.764c13.599,13.599,31.68,21.088,50.912,21.088
	s37.313-7.489,50.912-21.088l186.676-186.676C464.737,283.748,464.737,278.594,461.657,275.515z"/>
<path style="fill:#DCD7D8;" d="M447.78,261.638L250.844,458.574c-13.599,13.599-31.68,21.088-50.912,21.088
	c-8.663,0-17.086-1.533-24.977-4.446c13.376,12.504,30.712,19.376,49.113,19.376c19.232,0,37.313-7.489,50.912-21.088
	l186.676-186.676c3.081-3.08,3.081-8.234,0-11.313L447.78,261.638z"/>
<path style="fill:#855FB8;" d="M286.294,100.153l-45.255,45.255c-15.596,15.596-15.596,40.972,0,56.568
	c15.575,15.574,40.901,15.596,56.502,0.066c9.295-9.253,24.706-9.367,34.007-0.066c9.357,9.357,9.357,24.583,0,33.941
	l-73.033,73.033c-15.648,15.648-16.078,41.681-0.34,57.239c11.741,11.607,29.969,14.768,44.95,7.839
	c4.252-1.967,8.14-4.691,11.453-8.003L433.373,247.23L286.294,100.153z"/>
<path style="fill:#847277;" d="M256.431,228.813l-208-205.353c-4.716-4.656-12.313-4.608-16.97,0.109
	c-4.656,4.716-4.607,12.314,0.109,16.97l208,205.353c4.654,4.595,12.376,4.544,16.97-0.109
	C261.196,241.067,261.147,233.469,256.431,228.813z"/>
<path style="fill:#855FB8;" d="M462.243,386.997c-3.153-3.933-9.333-3.933-12.485,0C445.483,392.33,408,439.797,408,464
	c0,26.467,21.533,48,48,48s48-21.533,48-48C504,439.797,466.517,392.33,462.243,386.997z"/>
<path style="fill:#7B49AD;" d="M472,504c-26.467,0-48-21.533-48-48c0-19.874,25.27-55.429,36.678-70.467
	c-3.337-2.375-8.229-1.894-10.92,1.464C445.483,392.33,408,439.797,408,464c0,26.467,21.533,48,48,48
	c10.907,0,20.971-3.663,29.04-9.815C480.891,503.358,476.52,504,472,504z"/>
<path style="fill:#B9AEB1;" d="M48,0C25.944,0,8,17.944,8,40s17.944,40,40,40s40-17.944,40-40S70.056,0,48,0z"/>
<path style="fill:#95868A;" d="M48,16c-13.234,0-24,10.766-24,24s10.766,24,24,24s24-10.766,24-24S61.234,16,48,16z"/>
<g>
</g>
<g>
</g>
<g>
</g>
<g>
</g>
<g>
</g>
<g>
</g>
<g>
</g>
<g>
</g>
<g>
</g>
<g>
</g>
<g>
</g>
<g>
</g>
<g>
</g>
<g>
</g>
<g>
</g>
</svg>
