<?xml version="1.0" encoding="iso-8859-1"?>
<!-- Generator: Adobe Illustrator 19.0.0, SVG Export Plug-In . SVG Version: 6.00 Build 0)  -->
<svg version="1.1" id="Capa_1" xmlns="http://www.w3.org/2000/svg" xmlns:xlink="http://www.w3.org/1999/xlink" x="0px" y="0px"
	 viewBox="0 0 512 512" style="enable-background:new 0 0 512 512;" xml:space="preserve">
<path style="fill:#CAC3C5;" d="M502.643,446.083L253.733,197.174c-12.476-12.476-32.778-12.477-45.255,0l-11.314,11.314
	c-12.477,12.477-12.477,32.779,0,45.255l248.908,248.909c9.408,9.408,24.112,12.026,36.179,6.381
	c3.369-1.576,6.448-3.751,9.078-6.381l11.313-11.314C515.119,478.862,515.119,458.56,502.643,446.083z"/>
<path style="fill:#B9AEB1;" d="M492.716,496.026c-8.548,0-16.584-3.329-22.629-9.373L221.179,237.744
	c-12.477-12.477-12.477-32.779,0-45.255l4.142-4.142c-6.174,1.126-12.08,4.064-16.844,8.828l-11.314,11.314
	c-12.477,12.477-12.477,32.779,0,45.255l248.908,248.909c9.408,9.408,24.112,12.026,36.179,6.381
	c3.369-1.576,6.448-3.751,9.078-6.381l7.15-7.151C496.597,495.844,494.671,496.026,492.716,496.026z"/>
<path style="fill:#7FDEFB;" d="M502.643,446.083L337.294,280.735l-56.57,56.57l165.348,165.348
	c9.408,9.408,24.112,12.026,36.179,6.381c3.369-1.576,6.448-3.751,9.078-6.381l11.313-11.314
	C515.119,478.862,515.119,458.56,502.643,446.083z"/>
<path style="fill:#55D3FA;" d="M470.088,486.653L300.732,317.297l-20.009,20.009l165.348,165.348
	c9.408,9.408,24.112,12.026,36.179,6.381c3.369-1.576,6.448-3.751,9.078-6.381l7.15-7.151c-1.883,0.341-3.809,0.523-5.763,0.523
	C484.168,496.026,476.132,492.698,470.088,486.653z"/>
<path style="fill:#F2387F;" d="M128.004,96.014c0-4.418-3.582-8-8-8c-41.765,0-48.001-40.099-48.001-64.002c0-4.418-3.582-8-8-8
	s-8,3.582-8,8c0,23.903-6.236,64.002-48.001,64.002c-4.418,0-8,3.582-8,8s3.582,8,8,8c41.765,0,48.001,40.099,48.001,64.002
	c0,4.418,3.582,8,8,8s8-3.582,8-8c0-23.903,6.236-64.002,48.001-64.002C124.422,104.014,128.004,100.433,128.004,96.014z"/>
<g>
	<path style="fill:#F74FA4;" d="M192.006,328.021c-13.737,0-32.001-4.976-32.001-48.001c0-4.418-3.582-8-8-8c-4.418,0-8,3.582-8,8
		c0,43.025-18.264,48.001-32.001,48.001c-4.418,0-8,3.582-8,8c0,4.418,3.582,8,8,8c13.737,0,32.001,4.976,32.001,48.001
		c0,4.418,3.582,8,8,8c4.418,0,8-3.582,8-8c0-43.025,18.264-48.001,32.001-48.001c4.418,0,8-3.582,8-8
		C200.006,331.603,196.424,328.021,192.006,328.021z"/>
	<path style="fill:#F74FA4;" d="M312.009,48.012c-14.405,0-24.001-6.802-24.001-40.001c0-4.418-3.582-8-8-8s-8,3.582-8,8
		c0,33.199-9.595,40.001-24.001,40.001c-4.418,0-8,3.582-8,8s3.582,8,8,8c14.405,0,24.001,6.802,24.001,40.001c0,4.418,3.582,8,8,8
		s8-3.582,8-8c0-33.199,9.595-40.001,24.001-40.001c4.418,0,8-3.582,8-8S316.427,48.012,312.009,48.012z"/>
</g>
<g>
</g>
<g>
</g>
<g>
</g>
<g>
</g>
<g>
</g>
<g>
</g>
<g>
</g>
<g>
</g>
<g>
</g>
<g>
</g>
<g>
</g>
<g>
</g>
<g>
</g>
<g>
</g>
<g>
</g>
</svg>
