<?xml version="1.0" encoding="iso-8859-1"?>
<!-- Generator: Adobe Illustrator 19.0.0, SVG Export Plug-In . SVG Version: 6.00 Build 0)  -->
<svg version="1.1" id="Capa_1" xmlns="http://www.w3.org/2000/svg" xmlns:xlink="http://www.w3.org/1999/xlink" x="0px" y="0px"
	 viewBox="0 0 512 512" style="enable-background:new 0 0 512 512;" xml:space="preserve">
<path style="fill:#FF9D4A;" d="M509.657,273.872L238.128,2.343c-3.124-3.124-8.189-3.124-11.313,0l-181.02,181.02
	c-3.125,3.124-3.125,8.189,0,11.313l271.529,271.529c3.082,3.082,8.231,3.082,11.313,0l181.02-181.02
	C512.781,282.061,512.781,276.996,509.657,273.872z"/>
<path style="fill:#F48A16;" d="M45.795,183.363c-3.125,3.124-3.125,8.189,0,11.313l271.529,271.529
	c3.082,3.082,8.231,3.082,11.313,0l16.451-16.451L62.246,166.912L45.795,183.363z"/>
<g>
	<path style="fill:#847277;" d="M192.873,228.618c-3.123-3.124-8.188-3.124-11.313,0l-50.912,50.911l11.313,11.313l50.912-50.911
		C195.998,236.807,195.998,231.742,192.873,228.618z"/>
	<path style="fill:#847277;" d="M283.382,319.127c-3.124-3.124-8.189-3.124-11.313,0l-50.911,50.912l11.313,11.313l50.911-50.912
		C286.507,327.316,286.507,322.251,283.382,319.127z"/>
	<path style="fill:#847277;" d="M124.991,205.99c-3.124-3.124-8.189-3.124-11.313,0l-28.284,28.284l11.313,11.313l28.284-28.284
		C128.115,214.18,128.115,209.114,124.991,205.99z"/>
	<path style="fill:#847277;" d="M102.363,183.363c-3.124-3.124-8.189-3.124-11.313,0l-28.284,28.284l11.313,11.313l28.284-28.284
		C105.488,191.552,105.488,186.487,102.363,183.363z"/>
	<path style="fill:#847277;" d="M147.618,228.618c-3.123-3.124-8.188-3.124-11.313,0l-28.284,28.284l11.313,11.313l28.284-28.284
		C150.743,236.807,150.743,231.742,147.618,228.618z"/>
	<path style="fill:#847277;" d="M192.873,273.872c-3.124-3.124-8.189-3.124-11.313,0l-28.284,28.284l11.313,11.313l28.284-28.284
		C195.998,282.061,195.998,276.996,192.873,273.872z"/>
	<path style="fill:#847277;" d="M215.5,296.499c-3.124-3.124-8.189-3.124-11.313,0l-28.284,28.284l11.313,11.313l28.284-28.284
		C218.625,304.689,218.625,299.623,215.5,296.499z"/>
	<path style="fill:#847277;" d="M238.128,319.127c-3.124-3.124-8.189-3.124-11.313,0l-28.284,28.284l11.313,11.313l28.284-28.284
		C241.252,327.316,241.252,322.251,238.128,319.127z"/>
	<path style="fill:#847277;" d="M283.382,364.382c-3.124-3.124-8.189-3.124-11.313,0l-28.284,28.284l11.313,11.313l28.284-28.284
		C286.507,372.571,286.507,367.506,283.382,364.382z"/>
	<path style="fill:#847277;" d="M306.01,387.009c-3.124-3.124-8.189-3.124-11.313,0l-28.284,28.284l11.313,11.313l28.284-28.284
		C309.134,395.199,309.134,390.133,306.01,387.009z"/>
	<path style="fill:#847277;" d="M328.637,409.637c-3.124-3.124-8.189-3.124-11.313,0l-28.284,28.284l11.313,11.313l28.284-28.284
		C331.762,417.826,331.762,412.761,328.637,409.637z"/>
</g>
<g>
	<path style="fill:#725E63;" d="M226.814,104.166c1.562,1.562,3.609,2.343,5.657,2.343s4.095-0.781,5.657-2.343l50.912-50.912
		l-11.313-11.313l-50.912,50.912C223.69,95.977,223.69,101.042,226.814,104.166z"/>
	<path style="fill:#725E63;" d="M272.069,149.421c1.562,1.562,3.609,2.343,5.657,2.343s4.095-0.781,5.657-2.343l50.912-50.912
		l-11.313-11.313l-50.912,50.912C268.944,141.232,268.944,146.297,272.069,149.421z"/>
	<path style="fill:#725E63;" d="M317.324,194.676c1.562,1.562,3.609,2.343,5.657,2.343s4.095-0.781,5.657-2.343l50.912-50.912
		l-11.313-11.313l-50.912,50.912C314.199,186.487,314.199,191.552,317.324,194.676z"/>
	<path style="fill:#725E63;" d="M362.579,239.931c1.562,1.562,3.609,2.343,5.657,2.343s4.095-0.781,5.657-2.343l50.912-50.912
		l-11.313-11.313l-50.912,50.912C359.454,231.742,359.454,236.807,362.579,239.931z"/>
	<path style="fill:#725E63;" d="M407.833,285.185c1.562,1.562,3.609,2.343,5.657,2.343s4.095-0.781,5.657-2.343l50.912-50.912
		l-11.313-11.313l-50.912,50.912C404.709,276.996,404.709,282.061,407.833,285.185z"/>
</g>
<path style="fill:#95868A;" d="M281.563,511.845c3.689-0.73,6.438-4.089,6.437-7.848V472c0-4.418-3.582-8-8-8s-8,3.582-8,8v12.687
	L27.313,240H40c4.418,0,8-3.582,8-8s-3.582-8-8-8H8c-4.35,0-8.001,3.652-8,8.003V264c0,4.418,3.582,8,8,8s8-3.582,8-8v-12.687
	L260.687,496H248c-4.418,0-8,3.582-8,8s3.582,8,8,8h32C280.521,512,281.051,511.947,281.563,511.845z"/>
<g>
</g>
<g>
</g>
<g>
</g>
<g>
</g>
<g>
</g>
<g>
</g>
<g>
</g>
<g>
</g>
<g>
</g>
<g>
</g>
<g>
</g>
<g>
</g>
<g>
</g>
<g>
</g>
<g>
</g>
</svg>
