<svg id="Layer_1" enable-background="new 0 0 464.074 464.074" height="512" viewBox="0 0 464.074 464.074" width="512" xmlns="http://www.w3.org/2000/svg"><path d="m464.074 300.037v32c0 17.673-14.327 32-32 32h-244c-4.418 0-8 3.582-8 8v53.48c0 21.46-26.02 32.13-41.09 16.85l-131.63-133.48c-14.95-15.17-4.21-40.85 17.09-40.85h407.63c17.673 0 32 14.327 32 32z" fill="#80aaff"/><path d="m456.794 155.187c14.95 15.17 4.21 40.85-17.09 40.85h-407.63c-17.673 0-32-14.327-32-32v-32c0-17.673 14.327-32 32-32h244c4.418 0 8-3.582 8-8v-53.48c0-21.46 26.02-32.13 41.09-16.85z" fill="#99d856"/><path d="m444.884 143.107c-319.664-15.511-414.631-31.418-443.5 30.02-1.853-6.279-1.31-8.701-1.31-41.09 0-17.67 14.33-32 32-32h244c4.42 0 8-3.58 8-8v-53.48c0-21.46 26.02-32.13 41.09-16.85z" fill="#aaeb6b"/><path d="m464.074 311.417v20.62c0 17.67-14.33 32-32 32h-244c-4.42 0-8 3.58-8 8v53.48c0 21.46-26.02 32.13-41.09 16.85-120.632-122.322-103.051-104.491-112.67-114.26 149.641-52.406 215.093 4.545 437.76-16.69z" fill="#6994ff"/></svg>