<svg id="Capa_1" enable-background="new 0 0 511.999 511.999" height="512" viewBox="0 0 511.999 511.999" width="512" xmlns="http://www.w3.org/2000/svg"><g><path d="m256 418.237c-50.813 0-102.342-2.846-153.157-8.458-11.179-102.041-11.179-205.519 0-307.559 50.815-5.612 102.344-8.457 153.157-8.457s102.342 2.845 153.157 8.458v.001c11.179 102.04 11.179 205.518 0 307.558h-.001c-50.814 5.611-102.344 8.457-153.156 8.457z" fill="#f1f1f4"/><path d="m379.517 290.629c-11.58 31.84-85.927 75.58-123.517 75.58-37.65 0-113.907-84.888-123.677-141.228.094-4.351-2.314-8.003-2.179-12.352.815-26.188 2.38-52.342 4.696-78.43 40.35-3.61 80.99-5.44 121.16-5.44s80.81 1.83 121.16 5.44c4.397 49.567 6.101 99.415 5.104 149.19-.049 2.414-2.686 4.827-2.747 7.24z" fill="#90d8f9"/><path d="m382.26 283.389c-.05 2.41-.1 4.83-.16 7.24-.57 23.04-1.72 46.05-3.46 69.02-40.9 2.77-81.97 4.16-122.64 4.16s-81.74-1.39-122.65-4.16c-3.35-44.55-4.54-89.29-3.55-133.97.09-4.35.21-8.7.35-13.05 33.52-11.93 69.63-14.18 103.79-3.06 17.96 5.85 35.39 15.39 51.62 29.18 31.02 26.36 61.17 46.48 96.7 44.64z" fill="#93d3a2"/><path d="m142.331 354.329c-.85-11.82-10.901-23.66-11.441-35.5-1.41-31.02-1.78-62.1-1.09-93.15.09-4.35.21-8.7.35-13.05 33.52-11.93 69.63-14.18 103.79-3.06-39.69-9.3-78.46 63.54-35.22 87.05 45.61 24.79 96.6-2.05 115.13 33.6 10.44 20.06-81.199 24.27-171.519 24.11z" fill="#6ec17d"/><path d="m380.84 324.419c-.58 11.75-1.31 23.5-2.2 35.23-.45 6.05-.95 12.1-1.48 18.15-40.35 3.61-80.99 5.44-121.16 5.44s-80.81-1.83-121.16-5.44c-.54-6.05-1.03-12.1-1.49-18.15-1.02-13.59-1.84-27.2-2.46-40.82 73.86 39.68 148.92-35.43 249.95 5.59z" fill="#5ea570"/><circle cx="313.426" cy="182.342" fill="#f9ef63" r="29.507"/><path d="m321.973 210.58c-2.707.826-5.578 1.263-8.552 1.263-16.295 0-29.501-13.206-29.501-29.501 0-16.301 13.206-29.507 29.501-29.507 2.975 0 5.846.437 8.552 1.263-12.123 3.658-20.954 14.917-20.954 28.244-.001 13.321 8.831 24.58 20.954 28.238z" fill="#f1d333"/><g fill="#698ed5"><path d="m423.557 28.976h-45.141v-11.233c0-13.638-14.764-22.162-26.575-15.342l-62.355 36.005c-11.81 6.819-11.81 23.865-.001 30.684l62.355 36.009c11.811 6.82 26.576-1.703 26.576-15.342v-11.239h45.141c9.826 0 17.82 7.994 17.82 17.821v67.506c0 13.681 11.091 24.771 24.771 24.771s24.771-11.09 24.771-24.771v-67.506c0-37.144-30.219-67.363-67.362-67.363z"/><path d="m88.443 483.023h45.141v11.233c0 13.638 14.765 22.162 26.575 15.342l62.355-36.005c11.81-6.819 11.81-23.865.001-30.684l-62.355-36.009c-11.811-6.82-26.576 1.703-26.576 15.342v11.239h-45.141c-9.826 0-17.82-7.994-17.82-17.821v-67.506c0-13.681-11.091-24.771-24.771-24.771s-24.771 11.09-24.771 24.771v67.506c0 37.144 30.218 67.363 67.362 67.363z"/></g></g></svg>