<svg id="Capa_1" enable-background="new 0 0 512 512" height="512" viewBox="0 0 512 512" width="512" xmlns="http://www.w3.org/2000/svg"><g><g><path d="m348.323 396.336h-22.917v-112.048-38.897c0-19.723-15.989-35.712-35.712-35.712h-126.017c-20.603 0-37.304 16.702-37.304 37.304 0 20.603 16.702 37.304 37.304 37.304h32.279v112.048h-32.279c-20.603 0-37.304 16.702-37.304 37.304 0 20.603 16.702 37.304 37.304 37.304h184.646c20.603 0 37.304-16.702 37.304-37.304 0-20.602-16.702-37.303-37.304-37.303z" fill="#9dc6fb"/><path d="m238.454 284.283v112.031h-32.288c-20.606 0-37.302 16.721-37.302 37.327 0 10.278 4.187 19.604 10.93 26.372 6.743 6.743 16.069 10.93 26.372 10.93h-42.491c-10.303 0-19.628-4.187-26.372-10.93-6.769-6.768-10.93-16.094-10.93-26.372 0-20.606 16.696-37.327 37.302-37.327h32.288v-112.031h-32.288c-10.303 0-19.628-4.161-26.372-10.93-6.769-6.743-10.93-16.069-10.93-26.372 0-20.606 16.696-37.302 37.302-37.302h42.491c-20.606 0-37.302 16.696-37.302 37.302 0 10.303 4.187 19.629 10.93 26.372 6.743 6.769 16.069 10.93 26.372 10.93z" fill="#80b4fb"/><circle cx="260.681" cy="105.782" fill="#9dc6fb" r="64.725"/><path d="m282.869 166.598c-6.919 2.532-14.389 3.911-22.186 3.911-35.748 0-64.727-28.979-64.727-64.727 0-35.747 28.979-64.727 64.727-64.727 7.796 0 15.267 1.379 22.186 3.911-24.818 9.05-42.541 32.865-42.541 60.816-.001 27.951 17.723 51.766 42.541 60.816z" fill="#80b4fb"/></g><g fill="#ffe07d"><g><path d="m434.455 175.974 1.198 2.36c4.225 8.322 14.173 11.951 22.765 8.305l26.427-11.215c9.466-4.017 13.55-15.211 8.894-24.38l-2.977-5.863c-4.655-9.169-16.103-12.477-24.931-7.205l-24.649 14.718c-8.012 4.785-10.952 14.958-6.727 23.28z"/><path d="m447.813 241.706-.142 2.643c-.502 9.32 6.299 17.437 15.562 18.575l28.494 3.501c10.206 1.254 19.34-6.398 19.893-16.666l.353-6.566c.553-10.268-7.707-18.857-17.989-18.706l-28.706.422c-9.331.137-16.963 7.477-17.465 16.797z"/><path d="m428.896 306.095-1.444 2.217c-5.094 7.82-3.263 18.25 4.19 23.867l22.926 17.279c8.212 6.189 19.948 4.129 25.561-4.487l3.589-5.51c5.613-8.616 2.754-20.184-6.226-25.194l-25.071-13.987c-8.151-4.546-18.431-2.005-23.525 5.815z"/></g><g><path d="m77.545 175.974-1.198 2.36c-4.225 8.322-14.173 11.951-22.765 8.305l-26.427-11.215c-9.466-4.017-13.55-15.211-8.894-24.38l2.977-5.863c4.655-9.169 16.103-12.477 24.931-7.205l24.649 14.718c8.012 4.785 10.952 14.958 6.727 23.28z"/><path d="m64.187 241.706.142 2.643c.502 9.32-6.299 17.437-15.562 18.575l-28.494 3.501c-10.206 1.254-19.34-6.398-19.893-16.666l-.353-6.566c-.553-10.268 7.707-18.857 17.989-18.706l28.706.422c9.331.137 16.963 7.477 17.465 16.797z"/><path d="m83.104 306.095 1.444 2.217c5.094 7.82 3.263 18.25-4.19 23.867l-22.926 17.279c-8.212 6.189-19.948 4.129-25.561-4.487l-3.589-5.51c-5.613-8.616-2.754-20.184 6.226-25.194l25.071-13.987c8.151-4.546 18.431-2.005 23.525 5.815z"/></g></g></g></svg>