<svg height="512" viewBox="0 0 58 60" width="512" xmlns="http://www.w3.org/2000/svg"><g id="Page-1" fill="none" fill-rule="evenodd"><g id="007---Sweeping" fill-rule="nonzero"><path id="Shape" d="m28.64 31 5.41-27.98c.1224892-.92039111.7449832-1.69708108 1.6166127-2.01705836.8716294-.31997728 1.8487961-.13052661 2.5376948.49200205s.9760356 1.57557567.7456925 2.47505631l-5.45 28.17z" fill="#a56a43"/><path id="Shape" d="m31.97 55.47c-3.04 2.57-7.15 3.56-11.39 3.6-1.3571567.0100686-2.7134813-.0701082-4.06-.24-1.5226239-.1813252-3.0322898-.4585426-4.52-.83-.72-.18-1.39-.38-2.03-.59h-.01c-1.03196478-.3291929-2.04086335-.726739-3.02-1.19-1.45492446-.6820736-2.79708097-1.5824651-3.98-2.67-.5805269-.5455766-1.10022686-1.152452-1.55-1.81-.56072404-.8138307-.97995442-1.7165284-1.24-2.67-.06331799-.2733318-.00817262-.5606929.15182755-.7911693s.40995169-.3826002.68817245-.4188307c17.22-2.61 22.32-10.21 23.61-12.9l11.75 2.02c.3292992 1.8961588.5065301 3.8156026.53 5.74z" fill="#f3d55b"/><path id="Shape" d="m36.37 36.98c-1.6307955.6992359-3.3856332 1.0631266-5.16 1.07-1.6381721.0861244-3.263696-.3289772-4.66-1.19-.779317-.4784936-1.4393572-1.1282742-1.93-1.9.06-.13.11-.25.16-.36.5152394-1.3754237 1.5094469-2.5187622 2.8-3.22.3372476-.1677059.6930152-.2952452 1.06-.38 1.1186707-.2295629 2.2801438-.1252389 3.34.3.5442223.2058865 1.0561009.4887667 1.52.84 1.5246098 1.1412209 2.5464389 2.8299279 2.85 4.71.01.04.01.09.02.13z" fill="#bdc3c7"/><path id="Shape" d="m24.62 34.96c-.0055228 0-.01-.0044772-.01-.01" fill="#a56a43"/><path id="Shape" d="m15.88 48.52c-.267905-.4825156-.8735205-.6606378-1.36-.4-3.97 2.17-9.65 3.18-13.11 3.62.44977314.657548.9694731 1.2644234 1.55 1.81 3.63-.54 8.75-1.62 12.52-3.67.2338677-.1268369.4075519-.3416385.4826217-.596876.0750699-.2552375.0453363-.5298679-.0826217-.763124z" fill="#e4c05c"/><path id="Shape" d="m26.83 46.56c-4.06 5.98-11.37 9.2-16.86 10.85 0 0 0 .01-.01 0-1.03196478-.3291929-2.04086335-.726739-3.02-1.19 5.12-1.25 13.8-4.25 18.23-10.78.3092795-.4583963.9316037-.5792794 1.39-.27.4583963.3092795.5792794.9316037.27 1.39z" fill="#e4c05c"/><path id="Shape" d="m26.85 53.98c-1.7637212 2.0631793-3.8883717 3.7879754-6.27 5.09-1.3571567.0100686-2.7134813-.0701082-4.06-.24 3.3775405-1.3173276 6.3937182-3.4183696 8.8-6.13.1674549-.2043444.4097748-.3331106.6728358-.3575377.263061-.024427.5249471.05752.7271642.2275377.2045071.1695482.3331478.4135008.3575369.6780285s-.057478.5278889-.2275369.7319715z" fill="#e4c05c"/><path id="Shape" d="m58 51.83c.0026483 2.0099542-1.0927033 3.8608597-2.855879 4.8258129-1.7631757.9649531-3.9125956.8898505-5.604121-.1958129-1.4801231 1.7492363-3.682285 2.72086-5.9720917 2.6349678-2.2898067-.0858921-4.4129901-1.2197623-5.7579083-3.0749678-.7686958.4769978-1.6553343.7298283-2.56.73-2.6905968-.0109598-4.8690402-2.1894032-4.88-4.88.000034-2.1570563 1.4142768-4.0589691 3.48-4.68.0241934-1.9681062 1.2262362-3.7297885 3.05-4.47 1.5971795-.6512404 3.4198206-.4077142 4.79.64 1.6460819-1.9554631 4.2699006-2.7901304 6.7432298-2.1450998s4.3553366 2.6547924 4.8367702 5.1650998c2.7111341.3903004 4.7251765 2.71092 4.73 5.45z" fill="#95a5a5"/><path id="Shape" d="m49.345 48.135c-.4794177.000011-.8913901-.3402228-.982-.811-.1188168-.6178569-.5822244-1.1123864-1.1910662-1.2710569-.6088417-.1586704-1.2546715.0467804-1.6599338.5280569-.3562237.4224978-.9875022.4762236-1.41.12-.4224978-.3562237-.4762236-.9875022-.12-1.41.902743-1.0702005 2.3400097-1.5266065 3.6947936-1.1732868 1.3547839.3533198 2.3860974 1.4535172 2.6512064 2.8282868.0501321.2604433-.0052529.5301343-.1539702.7497409-.1487174.2196066-.3785843.3711387-.6390298.4212591-.0626438.0118389-.1262475.0178645-.19.018z" fill="#ecf0f1"/><circle id="Oval" cx="54.5" cy="34.5" fill="#7f8c8d" r="2.5"/><circle id="Oval" cx="48" cy="28" fill="#7f8c8d" r="2"/><g fill="#ff5364"><path id="Shape" d="m6 23c-.55228475 0-1-.4477153-1-1v-2c0-.5522847.44771525-1 1-1s1 .4477153 1 1v2c0 .5522847-.44771525 1-1 1z"/><path id="Shape" d="m6 29c-.55228475 0-1-.4477153-1-1v-2c0-.5522847.44771525-1 1-1s1 .4477153 1 1v2c0 .5522847-.44771525 1-1 1z"/><path id="Shape" d="m4 25h-2c-.55228475 0-1-.4477153-1-1s.44771525-1 1-1h2c.55228475 0 1 .4477153 1 1s-.44771525 1-1 1z"/><path id="Shape" d="m10 25h-2c-.55228475 0-1-.4477153-1-1s.44771525-1 1-1h2c.5522847 0 1 .4477153 1 1s-.4477153 1-1 1z"/></g><path id="Shape" d="m9 39c-.4043959-.0000863-.76893405-.2437275-.92367798-.6173454-.15474393-.373618-.06922994-.8036603.21667798-1.0896546l1.5-1.5c.3923789-.3789722 1.0160848-.3735524 1.4018186.0121814s.3911536 1.0094397.0121814 1.4018186l-1.5 1.5c-.18749273.1875494-.44180519.2929434-.707.293z" fill="#955ba5"/><path id="Shape" d="m13.5 34.5c-.4043959-.0000863-.7689341-.2437275-.923678-.6173454-.1547439-.373618-.0692299-.8036603.216678-1.0896546l1.5-1.5c.3923789-.3789722 1.0160848-.3735524 1.4018186.0121814s.3911536 1.0094397.0121814 1.4018186l-1.5 1.5c-.1874927.1875494-.4418052.2929434-.707.293z" fill="#955ba5"/><path id="Shape" d="m15 39c-.2651948-.0000566-.5195073-.1054506-.707-.293l-1.5-1.5c-.3789722-.3923789-.3735524-1.0160848.0121814-1.4018186s1.0094397-.3911536 1.4018186-.0121814l1.5 1.5c.2859079.2859943.3714219.7160366.216678 1.0896546-.1547439.3736179-.5192821.6172591-.923678.6173454z" fill="#955ba5"/><path id="Shape" d="m10.5 34.5c-.2651948-.0000566-.51950727-.1054506-.707-.293l-1.5-1.5c-.37897221-.3923789-.37355237-1.0160848.01218142-1.4018186.3857338-.3857338 1.00943969-.3911536 1.40181858-.0121814l1.5 1.5c.2859079.2859943.3714219.7160366.216678 1.0896546-.1547439.3736179-.5192821.6172591-.923678.6173454z" fill="#955ba5"/><path id="Shape" d="m28 13.087c-.0586718.0004263-.1172565-.0045952-.175-.015l-17-3c-.5445528-.09637369-.90787369-.61594724-.8115-1.1605.0963737-.54455276.6159472-.90787369 1.1605-.8115l17 3c.5170457.0838759.8817538.5525237.8360595 1.0743316s-.4863051.9199345-1.0100595.9126684z" fill="#84b5cb"/><path id="Shape" d="m27 18.087c-.0586718.0004263-.1172565-.0045952-.175-.015l-10.838-1.913c-.3519066-.0621642-.6439175-.3073463-.766035-.6431884-.1221175-.3358422-.0557891-.7113221.174-.985.2297891-.273678.5881284-.4039758.940035-.3418116l10.839 1.911c.5170457.0838759.8817538.5525237.8360595 1.0743316s-.4863051.9199345-1.0100595.9126684z" fill="#84b5cb"/><path id="Shape" d="m26 23c-.0586513-.0000707-.1171922-.0050885-.175-.015l-13.1-2.313c-.5440005-.0958214-.9073214-.6144995-.8115-1.1585s.6144995-.9073214 1.1585-.8115l13.106 2.313c.5120082.0896478.8699618.5566097.8235366 1.0743295-.0464253.5177198-.4817474.9135466-1.0015366.9106705z" fill="#84b5cb"/></g></g></svg>