<svg id="Capa_1" enable-background="new 0 0 512 512" viewBox="0 0 512 512" xmlns="http://www.w3.org/2000/svg"><g><path d="m257.217 443.287c-44.896 0-88.271-16.258-122.134-45.78-40.796-35.564-64.194-87.049-64.194-141.251 0-103.129 83.586-187.031 186.328-187.031s186.328 83.902 186.328 187.031-83.586 187.031-186.328 187.031z" fill="#deecf1"/><path d="m232.047 133.702c-3.434-29.214 2.449-53.359 19.668-76.792 9.003-12.592 15.954-21.919 17.937-36.545.674-4.714.825-9.715.615-14.803-.204-5.086 6.657-7.01 9.106-2.572 9.036 15.632 12.694 33.259 10.583 51.387-1.199 14.244-5.862 28.577-2.245 41.918 1.872 6.613 5.285 12.026 9.318 17.715 11.516 16.05 7.889 38.431-8.1 49.991-21.754 16.061-53.545 1.8-56.305-24.988-.001.001-.577-5.311-.577-5.311z" fill="#ffd15b"/><path d="m153.086 187.462c-23.008-18.22-35.858-39.469-40.188-68.26-2.505-15.294-4.16-26.823-13.061-38.572-2.845-3.812-6.26-7.455-9.993-10.904-3.727-3.451-.231-9.682 4.627-8.282 17.401 4.64 32.405 14.508 43.682 28.824 9.187 10.923 15.986 24.367 27.942 31.234 5.982 3.348 12.209 4.752 19.068 5.913 19.449 3.175 32.652 21.576 29.488 41.098-4.068 26.797-36.594 39.278-57.416 22.294 0 .002-4.149-3.345-4.149-3.345z" fill="#ffd15b"/><path d="m135.124 281.52c-29.104 3.447-53.159-2.458-76.503-19.742-12.545-9.037-21.837-16.015-36.407-18.004-4.697-.676-9.678-.828-14.748-.617-5.066.204-6.984-6.682-2.563-9.141 15.573-9.07 33.134-12.741 51.193-10.623 14.191 1.203 28.469 5.884 41.76 2.253 6.588-1.879 11.981-5.305 17.649-9.353 15.99-11.559 38.287-7.919 49.803 8.131 16 21.836 1.793 53.747-24.894 56.517.001.001-5.29.579-5.29.579z" fill="#ffd15b"/><g fill="#ffc344"><path d="m188.682 360.779c-18.152 23.095-39.32 35.993-68.003 40.34-15.237 2.514-26.723 4.175-38.427 13.11-3.797 2.855-7.427 6.284-10.863 10.031-3.438 3.741-9.645.232-8.251-4.645 4.623-17.467 14.454-32.528 28.716-43.847 10.882-9.222 24.276-16.046 31.117-28.047 3.335-6.005 4.734-12.255 5.891-19.14 3.163-19.523 21.494-32.775 40.944-29.599 26.696 4.084 39.13 36.733 22.211 57.633-.001-.001-3.335 4.164-3.335 4.164z"/><path d="m282.387 378.809c3.434 29.214-2.449 53.359-19.668 76.792-9.003 12.592-15.954 21.919-17.937 36.545-.674 4.714-.825 9.715-.615 14.803.204 5.086-6.657 7.01-9.106 2.572-9.036-15.632-12.694-33.259-10.583-51.387 1.199-14.244 5.862-28.577 2.245-41.918-1.872-6.613-5.285-12.026-9.318-17.715-11.516-16.05-7.889-38.431 8.1-49.991 21.754-16.061 53.545-1.8 56.305 24.988 0 0 .577 5.311.577 5.311z"/><path d="m361.347 325.049c23.008 18.22 35.858 39.469 40.188 68.26 2.505 15.294 4.16 26.823 13.061 38.572 2.845 3.812 6.26 7.455 9.993 10.904 3.727 3.451.231 9.682-4.627 8.282-17.401-4.64-32.405-14.508-43.682-28.824-9.187-10.923-15.986-24.367-27.942-31.234-5.982-3.348-12.209-4.752-19.068-5.913-19.449-3.175-32.652-21.576-29.488-41.098 4.068-26.797 36.594-39.278 57.416-22.294 0-.002 4.149 3.345 4.149 3.345z"/><path d="m379.31 230.991c29.104-3.447 53.159 2.458 76.503 19.742 12.545 9.037 21.837 16.015 36.407 18.004 4.697.676 9.678.828 14.748.617 5.066-.204 6.984 6.682 2.563 9.141-15.573 9.07-33.134 12.741-51.193 10.623-14.191-1.203-28.469-5.884-41.76-2.253-6.588 1.879-11.981 5.305-17.649 9.353-15.99 11.559-38.287 7.919-49.803-8.131-16-21.836-1.793-53.747 24.894-56.517-.002-.001 5.29-.579 5.29-.579z"/><path d="m325.752 151.732c18.152-23.095 39.32-35.993 68.003-40.34 15.237-2.514 26.723-4.175 38.427-13.11 3.797-2.855 7.427-6.284 10.863-10.031 3.438-3.741 9.645-.232 8.251 4.645-4.623 17.467-14.454 32.528-28.716 43.847-10.882 9.222-24.276 16.046-31.117 28.047-3.335 6.005-4.734 12.255-5.891 19.14-3.163 19.523-21.494 32.775-40.944 29.599-26.696-4.084-39.13-36.733-22.211-57.633.001.001 3.335-4.164 3.335-4.164z"/></g><path d="m383.096 256.256c0 79.931-46.248 126.354-125.879 126.354-36.15 0-63.743-5.541-89.049-27.603-13.321-11.613-29.948-15.076-38.307-30.837-10.741-20.253-16.828-43.37-16.828-67.915 0-79.931 64.554-144.729 144.185-144.729 30.415 0 58.631 9.453 81.89 25.592 37.635 26.116 43.988 69.736 43.988 119.138z" fill="#ffe177"/><path d="m339.106 137.119c2.808 11.879 4.466 24.394 4.466 37.135 0 88.204-71.234 159.707-159.107 159.707-19.153 0-37.598-3.564-54.605-9.791 8.349 15.695 19.581 29.825 32.857 41.398 25.307 22.062 58.35 35.416 94.5 35.416 79.631 0 144.185-64.797 144.185-144.729-.001-49.327-24.754-93.008-62.296-119.136z" fill="#ffd15b"/><path d="m257.217 358.682c-24.588 0-48.334-8.897-66.865-25.052-22.355-19.488-35.176-47.69-35.176-77.375 0-56.478 45.776-102.426 102.041-102.426s102.041 45.948 102.041 102.426-45.776 102.427-102.041 102.427z" fill="#ffd15b"/><path d="m341.695 198.862c-11.486 74.545-74.327 132.063-151.097 134.983 18.496 16.024 42.136 24.837 66.619 24.837 56.266 0 102.041-45.948 102.041-102.426 0-21.252-6.48-41.011-17.563-57.394z" fill="#ffc344"/><g><path d="m504.741 385.012c-18.775 8.511-21.184 12.937-29.663 31.782-.928 2.063-3.859 2.063-4.787 0-5.074-11.278-10.022-14.996-17.201-20.985-4.818-4.019-10.64-7.38-18.179-10.797-2.055-.931-2.055-3.874 0-4.805 18.775-8.511 26.902-16.669 35.381-35.514.928-2.063 3.859-2.063 4.787 0 3.405 7.568 6.753 13.412 10.757 18.248 5.966 7.206 7.671 12.173 18.907 17.266 2.053.932 2.053 3.874-.002 4.805z" fill="#ffe177"/><path d="m510.459 380.207c-11.235-5.093-18.656-10.062-24.622-17.268-1.547 17.437-15.377 31.32-32.749 32.872 7.179 5.989 12.129 13.438 17.203 24.715.928 2.063 3.859 2.063 4.787 0 8.479-18.846 16.606-27.004 35.381-35.514 2.055-.931 2.055-3.873 0-4.805z" fill="#ffd15b"/></g><g><path d="m63.277 132.032c-16.645 7.545-18.782 11.469-26.299 28.177-.823 1.829-3.421 1.829-4.244 0-4.498-9.999-8.885-13.295-15.25-18.605-4.271-3.563-9.433-6.543-16.118-9.573-1.822-.826-1.822-3.434 0-4.26 16.645-7.545 23.851-14.778 31.368-31.486.823-1.829 3.421-1.829 4.244 0 3.019 6.709 5.987 11.891 9.537 16.178 5.29 6.389 6.801 10.793 16.762 15.308 1.822.826 1.822 3.435 0 4.261z" fill="#ffe177"/><path d="m68.346 127.772c-9.961-4.515-16.54-8.921-21.829-15.309-1.371 15.46-13.633 27.767-29.034 29.144 6.365 5.31 10.754 11.913 15.252 21.912.823 1.829 3.421 1.829 4.244 0 7.517-16.708 14.723-23.941 31.368-31.486 1.821-.827 1.821-3.436-.001-4.261z" fill="#ffd15b"/></g><g><path d="m174.389 29.632c-13.288 6.024-14.994 9.156-20.995 22.495-.657 1.46-2.731 1.46-3.388 0-3.591-7.982-7.093-10.614-12.175-14.853-3.41-2.844-7.531-5.223-12.867-7.642-1.454-.659-1.454-2.742 0-3.401 13.288-6.024 19.041-11.798 25.042-25.136.657-1.46 2.731-1.46 3.388 0 2.41 5.356 4.78 9.493 7.613 12.916 4.223 5.101 5.43 8.616 13.382 12.221 1.455.658 1.455 2.741 0 3.4z" fill="#ffe177"/><path d="m178.436 26.231c-7.952-3.605-13.204-7.122-17.427-12.222-1.095 12.342-10.884 22.168-23.179 23.266 5.081 4.239 8.585 9.511 12.176 17.493.657 1.46 2.731 1.46 3.388 0 6.001-13.339 11.753-19.113 25.042-25.136 1.455-.659 1.455-2.742 0-3.401z" fill="#ffd15b"/></g></g><g/><g/><g/><g/><g/><g/><g/><g/><g/><g/><g/><g/><g/><g/><g/></svg>