<svg id="Layer_1" enable-background="new 0 0 511.999 511.999" height="512" viewBox="0 0 511.999 511.999" width="512" xmlns="http://www.w3.org/2000/svg"><g><path d="m475.094 293.489c-.67 1.23-1.67 2.25-2.89 2.95-9.5 5.41-22.28 12.27-36.47 18.76 3.65.59 7.65 1.18 11.95 1.74 2.63.34 4.88 2.04 5.92 4.48 1.05 2.43.73 5.24-.83 7.38-18.71 25.59-41.47 48.6-67.66 68.39-1.18.89-2.58 1.41-4.05 1.5-11.99.76-28.05 1.33-45.25.74 3.93 2.81 8.37 5.89 13.27 9.13 2.17 1.43 3.44 3.88 3.36 6.48s-1.49 4.97-3.74 6.27c-52.2 30.15-111.89 46.93-168.06 47.25h-.05c-1.13 0-2.24-.25-3.26-.75-9.77-4.72-22.57-11.31-35.87-19.25.9 1.89 1.87 3.87 2.89 5.94 1.25 2.52.99 5.52-.68 7.78-1.67 2.27-4.46 3.41-7.23 2.96-41.06-6.65-76.51-23.31-102.52-48.17-1.48-1.41-2.32-3.37-2.32-5.42 0-46.81 11.99-85.6 36.65-118.59 20.4-27.27 49.73-50.5 89.68-71 2.36-1.21 5.18-1.08 7.43.33 2.24 1.42 3.57 3.92 3.49 6.57-.02.57-.04 1.14-.06 1.7 3.77-5.25 8.02-11.45 12.48-18.42.8-1.24 1.94-2.22 3.29-2.82 29.33-12.92 60.68-23.89 90.99-34.5 8.77-3.07 17.84-6.24 26.63-9.38 2.26-.8 4.75-.49 6.73.85 1.98 1.33 3.2 3.53 3.29 5.92.54 13.84.55 27.04.04 39.48 10.61-14.63 25.24-36.63 38.47-62.86.79-1.58 2.12-2.83 3.75-3.52 39.05-16.69 65.93-33.57 84.58-53.11 22.26-23.32 33.08-51.06 33.08-84.8 0-3.65 2.63-6.78 6.23-7.39 3.61-.62 7.13 1.45 8.34 4.9 37.24 105.79 33.231 205.55-11.6 288.48z" fill="#ffe07d"/><path d="m475.094 293.489c-.67 1.23-1.67 2.25-2.89 2.95-9.5 5.41-22.28 12.27-36.47 18.76 3.65.59 7.65 1.18 11.95 1.74 2.63.34 4.88 2.04 5.92 4.48 1.05 2.43.73 5.24-.83 7.38-18.71 25.59-41.47 48.6-67.66 68.39-1.18.89-2.58 1.41-4.05 1.5-11.99.76-28.05 1.33-45.25.74 3.93 2.81 8.37 5.89 13.27 9.13 2.17 1.43 3.44 3.88 3.36 6.48s-1.49 4.97-3.74 6.27c-52.2 30.15-111.89 46.93-168.06 47.25h-.05c-1.13 0-2.24-.25-3.26-.75-9.77-4.72-22.57-11.31-35.87-19.25.9 1.89 1.87 3.87 2.89 5.94 1.25 2.52.99 5.52-.68 7.78-1.67 2.27-4.46 3.41-7.23 2.96-41.06-6.65-76.51-23.31-102.52-48.17 54.09 25.29 95.7 31.07 95.7 31.07-1.88-9.39 5.44-25.76 5.44-25.76 79.63 25.76 178.65-14.07 178.65-14.07-5.64-11.65-21.27-24.04-21.27-24.04 73.685 7.616 132.1-55.52 132.1-55.52-16.3-8.211-17.52-20.13-17.52-20.13 97.68-52.41 79.67-303.61 79.67-303.61 37.24 105.79 33.231 205.55-11.6 288.48z" fill="#ffd064"/><path d="m404.744 221.758c-3.503-2.206-8.134-1.158-10.345 2.345-22.454 35.614-53.9 62.571-96.134 82.411-18.81 8.836-38.462 15.734-58.368 21.622 9.937-17.073 23.272-45.748 27.276-81.723.458-4.116-2.508-7.825-6.625-8.283-4.124-.467-7.825 2.509-8.283 6.625-5.225 46.953-28.217 81.243-34.18 89.455-12.771 3.366-25.557 6.458-38.206 9.517-21.684 5.244-43.087 10.419-63.147 16.782 7.56-13.137 16.406-31.419 19.104-48.775.636-4.094-2.166-7.927-6.259-8.563-4.097-.638-7.928 2.167-8.563 6.259-3.767 24.239-22.298 52.202-27.124 59.159-54.173 21.504-93.84 56.872-93.84 135.91 0 4.143 3.357 7.5 7.5 7.5s7.5-3.357 7.5-7.5c0-48.229 15.566-81.243 48.987-103.896 25.519-17.297 59.413-27.403 96.181-36.622 9.626 9.236 40.347 36.165 84.429 50.143.754.239 1.518.353 2.269.353 3.182 0 6.135-2.041 7.147-5.235 1.252-3.948-.934-8.164-4.883-9.416-32.88-10.426-58.199-29.05-71.304-40.181 1.838-.446 3.681-.891 5.528-1.338 39.641-9.586 81.913-19.808 120.993-38.131 8.292 2.995 32.128 11.037 56.369 13.901.299.035.596.053.89.053 3.748 0 6.987-2.807 7.438-6.621.486-4.113-2.455-7.842-6.568-8.328-14.296-1.689-28.74-5.417-39.342-8.618 32.128-17.938 61.279-42.574 83.904-78.459 2.209-3.505 1.16-8.136-2.344-10.346z" fill="#e9b585"/></g></svg>