<?xml version="1.0" encoding="iso-8859-1"?>
<!-- Generator: Adobe Illustrator 19.0.0, SVG Export Plug-In . SVG Version: 6.00 Build 0)  -->
<svg version="1.1" id="Capa_1" xmlns="http://www.w3.org/2000/svg" xmlns:xlink="http://www.w3.org/1999/xlink" x="0px" y="0px"
	 viewBox="0 0 512 512" style="enable-background:new 0 0 512 512;" xml:space="preserve">
<path style="fill:#95868A;" d="M506.511,247.596c4.194-1.39,6.468-5.916,5.079-10.11c-1.389-4.193-5.916-6.468-10.109-5.079
	c-29.781,9.864-60.022,17.901-90.603,24.095c-13.237-31.88-25.331-63.458-26.358-122.921c41.288-6.749,82.045-16.754,121.991-29.983
	c4.194-1.39,6.468-5.916,5.079-10.11c-1.389-4.193-5.916-6.468-10.109-5.079c-38.313,12.689-77.388,22.348-116.966,28.953
	c0.862-50.645,9.899-81.134,19.633-106.49c1.583-4.125-0.477-8.752-4.602-10.336c-4.125-1.584-8.751,0.475-10.335,4.6
	c-10.445,27.207-20.134,59.954-20.739,114.73c-37.152,5.406-74.712,8.136-112.474,8.136c-5.926,0-11.847-0.075-17.762-0.208
	c-0.004-0.825-0.016-1.631-0.016-2.466c0-55.477,9.471-87.796,19.707-114.457c1.583-4.125-0.477-8.752-4.602-10.336
	c-4.123-1.584-8.752,0.477-10.336,4.602c-10.787,28.1-20.769,62.107-20.769,120.191c0,0.657,0.01,1.289,0.013,1.94
	c-43.801-1.888-87.245-7.444-130-16.623c1.511-46.667,10.176-75.556,19.472-99.774c1.583-4.125-0.477-8.752-4.602-10.336
	c-4.123-1.584-8.752,0.477-10.336,4.602c-9.602,25.015-18.56,54.728-20.412,101.923c-22.16-5.244-44.123-11.459-65.839-18.652
	c-4.195-1.39-8.721,0.886-10.109,5.079c-1.389,4.194,0.885,8.721,5.079,10.11c23.251,7.701,46.779,14.305,70.524,19.816
	c-0.002,0.641-0.01,1.268-0.01,1.914c0,63.805,12.137,99.341,25.133,131.177c-30.586-6.193-60.831-14.232-90.617-24.098
	c-4.195-1.39-8.721,0.886-10.109,5.079c-1.389,4.194,0.885,8.721,5.079,10.11c33.806,11.196,68.194,20.079,102.993,26.638
	c13.383,32.417,25.299,65.338,25.299,128.428c0,1.256-0.017,2.48-0.027,3.719c-41.722-6.613-82.901-16.616-123.235-29.976
	c-4.195-1.39-8.721,0.886-10.109,5.079c-1.389,4.194,0.885,8.721,5.079,10.11c41.838,13.857,84.568,24.174,127.865,30.917
	c-1.302,29.535-5.668,54.504-13.698,78.995c-1.377,4.198,0.911,8.718,5.109,10.094c0.828,0.271,1.668,0.4,2.494,0.4
	c3.364,0,6.495-2.139,7.6-5.51c8.357-25.485,12.962-51.335,14.412-81.665c35.287,4.767,70.92,7.173,106.731,7.173
	c7.695,0,15.382-0.115,23.059-0.336c-1.748,25.616-5.996,47.924-13.183,69.842c-1.377,4.199,0.911,8.718,5.109,10.095
	c0.828,0.271,1.668,0.4,2.494,0.4c3.364,0,6.495-2.139,7.6-5.509c7.78-23.727,12.307-47.771,14.066-75.453
	c44.122-2.162,87.877-7.983,130.94-17.4c-0.772,33.478-5.167,60.966-13.988,87.867c-1.377,4.199,0.911,8.718,5.109,10.095
	c0.828,0.271,1.667,0.4,2.494,0.4c3.364,0,6.495-2.139,7.6-5.509c9.69-29.551,14.338-59.591,14.869-96.545
	c21.649-5.207,43.113-11.32,64.345-18.353c4.194-1.39,6.468-5.916,5.079-10.11c-1.389-4.193-5.916-6.467-10.109-5.079
	c-19.598,6.491-39.397,12.188-59.358,17.093c-1.106-58.054-12.661-91.692-25.011-121.95
	C447.276,265.317,477.114,257.333,506.511,247.596z M255.998,144.003c37.787,0,75.377-2.675,112.571-7.98
	c1.322,59.112,13.553,92.724,26.265,123.551c-40.806,7.376-82.173,11.486-123.818,12.282c-1.501-3.683-3.014-7.318-4.522-10.938
	c-13.152-31.564-25.641-61.548-27.907-117.11C244.386,143.934,250.189,144.003,255.998,144.003z M92.011,126.953
	c42.955,9.04,86.58,14.507,130.556,16.346c2.303,59.292,15.933,92.032,29.159,123.773c0.684,1.643,1.366,3.281,2.045,4.918
	c-45.028-0.127-89.764-4.125-133.855-11.931C105.628,225.761,92.229,193.026,92.011,126.953z M255.998,416
	c-35.659,0-71.139-2.434-106.265-7.257c0.024-2.011,0.044-4.028,0.044-6.081c0-59.811-10.664-94.783-22.704-125.15
	c42.514,6.971,85.59,10.489,128.925,10.489c1.404,0,2.808-0.014,4.212-0.021c10.977,28.496,19.788,60.435,19.788,114.682
	c0,4.432-0.065,8.746-0.181,12.975C271.888,415.877,263.947,416,255.998,416z M426.185,397.24
	c-42.852,9.578-86.414,15.509-130.35,17.745c0.101-4.03,0.163-8.122,0.163-12.323c0-53.241-8.45-86.801-18.799-114.951
	c41.679-1.104,83.072-5.46,123.907-13.026C414.024,306.013,425.523,337.952,426.185,397.24z"/>
<g>
	<path style="fill:#855FB8;" d="M231.999,104.003c-17.645,0-32,14.355-32,32s14.355,32,32,32s32-14.355,32-32
		S249.643,104.003,231.999,104.003z"/>
	<path style="fill:#855FB8;" d="M407.997,232.002c-17.645,0-32,14.355-32,32c0,17.645,14.355,32,32,32c17.645,0,32-14.355,32-32
		C439.996,246.357,425.642,232.002,407.997,232.002z"/>
	<path style="fill:#855FB8;" d="M112,232.002c-17.645,0-32,14.355-32,32c0,17.645,14.355,32,32,32s32-14.355,32-32
		C143.999,246.357,129.645,232.002,112,232.002z"/>
	<path style="fill:#855FB8;" d="M287.998,392c-17.645,0-32,14.355-32,32c0,17.645,14.355,32,32,32s32-14.355,32-32
		C319.998,406.355,305.643,392,287.998,392z"/>
</g>
<g>
	<path style="fill:#7B49AD;" d="M112,248.002c-8.823,0-16,7.178-16,16c0,8.822,7.177,16,16,16s16-7.178,16-16
		C128,255.179,120.823,248.002,112,248.002z"/>
	<path style="fill:#7B49AD;" d="M407.997,248.002c-8.823,0-16,7.178-16,16c0,8.822,7.177,16,16,16c8.823,0,16-7.178,16-16
		C423.997,255.179,416.82,248.002,407.997,248.002z"/>
	<path style="fill:#7B49AD;" d="M287.998,408c-8.823,0-16,7.178-16,16s7.177,16,16,16s16-7.178,16-16S296.821,408,287.998,408z"/>
	<path style="fill:#7B49AD;" d="M231.999,120.003c-8.823,0-16,7.178-16,16s7.177,16,16,16s16-7.178,16-16
		S240.821,120.003,231.999,120.003z"/>
</g>
<g>
	<path style="fill:#F97BBB;" d="M88,88.003c-17.645,0-32,14.355-32,32s14.355,32,32,32s32-14.355,32-32S105.645,88.003,88,88.003z"
		/>
	<path style="fill:#F97BBB;" d="M375.997,96.003c-17.645,0-32,14.355-32,32s14.355,32,32,32s32-14.355,32-32
		S393.642,96.003,375.997,96.003z"/>
	<path style="fill:#F97BBB;" d="M263.998,248.002c-17.645,0-32,14.355-32,32c0,17.645,14.355,32,32,32s32-14.355,32-32
		C295.998,262.357,281.643,248.002,263.998,248.002z"/>
	<path style="fill:#F97BBB;" d="M143.999,384c-17.645,0-32,14.355-32,32c0,17.645,14.355,32,32,32s32-14.355,32-32
		C175.999,398.355,161.644,384,143.999,384z"/>
	<path style="fill:#F97BBB;" d="M431.997,368.001c-17.645,0-32,14.355-32,32s14.355,32,32,32s32-14.355,32-32
		S449.641,368.001,431.997,368.001z"/>
</g>
<g>
	<path style="fill:#F74FA4;" d="M88,104.003c-8.823,0-16,7.178-16,16s7.177,16,16,16s16-7.178,16-16S96.823,104.003,88,104.003z"/>
	<path style="fill:#F74FA4;" d="M375.997,112.003c-8.823,0-16,7.178-16,16s7.177,16,16,16s16-7.178,16-16
		S384.82,112.003,375.997,112.003z"/>
	<path style="fill:#F74FA4;" d="M263.998,264.002c-8.823,0-16,7.178-16,16s7.177,16,16,16c8.823,0,16-7.178,16-16
		S272.821,264.002,263.998,264.002z"/>
	<path style="fill:#F74FA4;" d="M143.999,400c-8.823,0-16,7.178-16,16s7.177,16,16,16c8.823,0,16-7.178,16-16
		S152.822,400,143.999,400z"/>
	<path style="fill:#F74FA4;" d="M431.997,384c-8.823,0-16,7.178-16,16s7.177,16,16,16s16-7.178,16-16S440.819,384,431.997,384z"/>
</g>
<g>
</g>
<g>
</g>
<g>
</g>
<g>
</g>
<g>
</g>
<g>
</g>
<g>
</g>
<g>
</g>
<g>
</g>
<g>
</g>
<g>
</g>
<g>
</g>
<g>
</g>
<g>
</g>
<g>
</g>
</svg>
