<svg id="Capa_1" enable-background="new 0 0 512 512" height="512" viewBox="0 0 512 512" width="512" xmlns="http://www.w3.org/2000/svg"><g id="Flat_1_"><path d="m508.162 57.168c-2.382-1.452-5.35-1.557-7.831-.277l-496 256c-2.66 1.373 3.669 4.116 3.669 7.109v128c0 2.791-6.545 5.38-4.162 6.832 1.275.777 2.717 1.168 4.162 1.168 1.256 0 2.515-.296 3.668-.891l496-256c2.66-1.373 4.331-4.116 4.331-7.109v-128c.001-2.791-1.454-5.38-3.837-6.832z" fill="#ff9c62"/><g><path d="m504 56h-416c-4.418 0-48 3.582-48 8v128c0 4.418 43.582 8 48 8h416c4.418 0 8-3.582 8-8v-128c0-4.418-3.582-8-8-8z" fill="#ffed77"/><path d="m504 168h-496c-4.418 0 8-3.582 8-8v32c0 4.418 67.582 8 72 8h416c4.418 0 8-3.582 8-8v-32c0 4.418-3.582 8-8 8z" fill="#ffe11c"/><path d="m79.97 104c4.415-.005 8.03-3.585 8.03-8v-40h-80c-4.418 0-8 3.582-8 8v128c0 4.418 3.582 8 8 8h80v-40c0-4.415-3.614-7.995-8.03-8-13.22-.016-23.97-10.776-23.97-24s10.75-23.984 23.97-24z" fill="#bfabb8"/><g><path d="m0 160v32c0 4.418 3.582 8 8 8h80v-32h-80c-4.418 0-8-3.582-8-8z" fill="#9f8194"/></g><g fill="#5f5fc0"><path d="m152 96c0 4.418 3.582 8 8 8s8-3.582 8-8v-40h-16z"/><path d="m248 128c0 4.418 3.582 8 8 8s8-3.582 8-8v-72h-16z"/><path d="m344 96c0 4.418 3.582 8 8 8s8-3.582 8-8v-40h-16z"/><path d="m440 56v72c0 4.418 3.582 8 8 8s8-3.582 8-8v-72z"/></g></g><g><path d="m504 312h-496c-4.418 0-8 3.582-8 8v128c0 4.418 3.582 8 8 8h496c4.418 0 8-3.582 8-8v-128c0-4.418-3.582-8-8-8z" fill="#ffed77"/><path d="m504 424h-496c-4.418 0-8-3.582-8-8v32c0 4.418 3.582 8 8 8h496c4.418 0 8-3.582 8-8v-32c0 4.418-3.582 8-8 8z" fill="#ffe11c"/><g fill="#5f5fc0"><path d="m56 352c0 4.418 3.582 8 8 8s8-3.582 8-8v-40h-16z"/><path d="m152 384c0 4.418 3.582 8 8 8s8-3.582 8-8v-72h-16z"/><path d="m248 352c0 4.418 3.582 8 8 8s8-3.582 8-8v-40h-16z"/><path d="m440 312v40c0 4.418 3.582 8 8 8s8-3.582 8-8v-40z"/><path d="m344 384c0 4.418 3.582 8 8 8s8-3.582 8-8v-72h-16z"/></g></g></g></svg>