<svg id="Capa_1" enable-background="new 0 0 512 512" viewBox="0 0 512 512" xmlns="http://www.w3.org/2000/svg"><g><g><g><path d="m499.695 0h-51.154l-7.613 7.323-7.613-7.323h-22.509l-7.613 7.323-7.614-7.323h-22.509l-7.613 7.323-7.613-7.323h-22.509l-7.613 7.323-7.613-7.323h-22.509l-7.613 7.323-7.613-7.323h-22.509l-7.613 7.323-7.614-7.323h-22.509l-7.613 7.323-7.613-7.323h-22.509l-7.613 7.323-7.613-7.323h-22.509l-7.613 7.323-7.614-7.323h-22.509l-7.613 7.323-7.613-7.323h-22.509l-7.613 7.323-7.613-7.323h-39.556c-9.061 0-16.406 7.345-16.406 16.406v39.555l8.174 7.613-8.174 7.614v22.508l8.174 7.613-8.174 7.614v22.508l8.174 7.613-8.174 7.614v22.509l8.174 7.613-8.174 7.613v22.508l8.174 7.613-8.174 7.613v22.508l8.174 7.613-8.174 7.614v22.508l8.174 7.613-8.174 7.614v22.509l8.174 7.613-8.174 7.613v22.508l8.174 7.613-8.174 7.614v22.508l8.174 7.613-8.174 7.613v22.508l8.174 7.613-8.174 7.614v51.159c0 6.796 5.509 12.305 12.305 12.305h38.965c6.796 0 12.305-5.509 12.305-12.305v-436.12h436.12c6.796 0 12.305-5.509 12.305-12.305v-38.965c0-6.796-5.509-12.305-12.305-12.305z" fill="#ffe177"/><path d="m499.695 0h-28.711c6.796 0 12.305 5.509 12.305 12.305v38.965c0 6.796-5.509 12.305-12.305 12.305h28.711c6.796 0 12.305-5.509 12.305-12.305v-38.965c0-6.796-5.509-12.305-12.305-12.305z" fill="#ffd15b"/></g><g fill="#ffc344"><path d="m176.78 38.375c4.205 0 7.613-3.408 7.613-7.613v-30.762h-15.226v30.762c0 4.205 3.408 7.613 7.613 7.613z"/><path d="m252.25 38.375c4.205 0 7.613-3.408 7.613-7.613v-30.762h-15.226v30.762c0 4.205 3.408 7.613 7.613 7.613z"/><path d="m214.515 28.121c4.205 0 7.613-3.408 7.613-7.613v-20.508h-15.226v20.508c0 4.205 3.409 7.613 7.613 7.613z"/><path d="m139.045 28.121c4.205 0 7.613-3.408 7.613-7.613v-20.508h-15.226v20.508c0 4.205 3.408 7.613 7.613 7.613z"/><path d="m101.31 38.375c4.205 0 7.613-3.408 7.613-7.613v-30.762h-15.226v30.762c0 4.205 3.409 7.613 7.613 7.613z"/><path d="m63.575 28.121c4.205 0 7.613-3.408 7.613-7.613v-20.508h-15.226v20.508c0 4.205 3.408 7.613 7.613 7.613z"/><path d="m403.19 38.375c4.205 0 7.613-3.408 7.613-7.613v-30.762h-15.226v30.762c0 4.205 3.408 7.613 7.613 7.613z"/><path d="m440.925 28.121c4.205 0 7.613-3.408 7.613-7.613v-20.508h-15.226v20.508c0 4.205 3.408 7.613 7.613 7.613z"/><path d="m365.455 28.121c4.205 0 7.613-3.409 7.613-7.613v-20.508h-15.226l.001 20.508c-.001 4.205 3.408 7.613 7.612 7.613z"/><path d="m289.985 28.121c4.205 0 7.613-3.408 7.613-7.613v-20.508h-15.226v20.508c0 4.205 3.408 7.613 7.613 7.613z"/><path d="m327.72 38.375c4.205 0 7.613-3.408 7.613-7.613v-30.762h-15.226v30.762c-.001 4.205 3.407 7.613 7.613 7.613z"/><path d="m28.122 440.925c0-4.205-3.409-7.613-7.613-7.613h-20.509v15.226h20.508c4.205 0 7.614-3.408 7.614-7.613z"/><path d="m20.508 282.372h-20.508v15.226h20.508c4.205 0 7.613-3.408 7.613-7.613s-3.408-7.613-7.613-7.613z"/><path d="m20.508 71.188c4.205 0 7.613-3.408 7.613-7.613s-3.409-7.613-7.613-7.613h-20.508v15.226z"/><path d="m30.762 320.106h-30.762v15.226h30.762c4.205 0 7.613-3.408 7.613-7.613.001-4.205-3.408-7.613-7.613-7.613z"/><path d="m30.762 244.637h-30.762v15.226h30.762c4.205 0 7.613-3.408 7.613-7.613.001-4.205-3.408-7.613-7.613-7.613z"/><path d="m28.121 214.515c0-4.205-3.409-7.613-7.613-7.613h-20.508v15.226h20.508c4.205 0 7.613-3.408 7.613-7.613z"/><path d="m20.508 146.658c4.205 0 7.613-3.409 7.613-7.613 0-4.205-3.409-7.613-7.614-7.613h-20.507v15.226z"/><path d="m38.375 176.78c0-4.205-3.409-7.613-7.613-7.613h-30.762v15.226h30.762c4.205.001 7.613-3.408 7.613-7.613z"/><path d="m38.376 403.19c0-4.205-3.409-7.613-7.613-7.613h-30.763v15.226h30.762c4.205 0 7.614-3.408 7.614-7.613z"/><path d="m30.762 93.697h-30.762v15.226h30.762c4.205 0 7.613-3.408 7.613-7.613s-3.408-7.613-7.613-7.613z"/><path d="m28.121 365.454c0-4.205-3.409-7.613-7.613-7.613h-20.508v15.226h20.508c4.205.001 7.613-3.408 7.613-7.613z"/></g></g><path d="m504.5 94.955h-402.045c-4.142 0-7.5 3.357-7.5 7.5v402.045c0 4.143 3.358 7.5 7.5 7.5h402.045c4.143 0 7.5-3.357 7.5-7.5v-402.045c0-4.143-3.357-7.5-7.5-7.5zm-233.727 241.227v-65.408h65.408v65.408zm65.409 15v65.409h-65.408v-65.409zm-145.818-80.409h65.409v65.408h-65.409zm-15 65.409h-65.409v-65.408h65.409zm95.409-80.409v-65.409h65.408v65.409zm80.409 15h65.409v65.408h-65.409zm80.409 0h65.409v65.408h-65.409zm0-15v-65.409h65.409v65.409zm-15 0h-65.409v-65.409h65.409zm-65.409-80.409v-65.409h65.409v65.409zm-15 0h-65.408v-65.409h65.408zm-80.409 0h-65.409v-65.409h65.409zm0 15v65.409h-65.409v-65.409zm-80.409 65.409h-65.409v-65.409h65.409zm-65.409 95.409h65.409v65.409h-65.409zm80.409 0h65.409v65.409h-65.409zm65.409 80.409v65.409h-65.409v-65.409zm15 0h65.408v65.409h-65.408zm80.409 0h65.409v65.409h-65.409zm0-15v-65.409h65.409v65.409zm80.409-65.409h65.409v65.409h-65.409zm65.409-175.818h-65.409v-65.409h65.409zm-321.636-65.409v65.409h-65.409v-65.409zm-65.409 321.636h65.409v65.409h-65.409zm321.636 65.409v-65.409h65.409v65.409z" fill="#8ac9fe"/></g><g/><g/><g/><g/><g/><g/><g/><g/><g/><g/><g/><g/><g/><g/><g/></svg>