<svg id="Capa_1" enable-background="new 0 0 512 512" height="512" viewBox="0 0 512 512" width="512" xmlns="http://www.w3.org/2000/svg"><g><g><g><path d="m72.962 68.911h366.076v366.076h-366.076z" fill="#99e6fc"/></g><g><path d="m409.038 68.911v278.685c0 31.696-25.695 57.391-57.391 57.391h-278.685v30h366.076v-366.076z" fill="#62dbfb"/></g></g><g><path d="m493.479 512h-23.058c-4.143 0-7.5-3.358-7.5-7.5s3.357-7.5 7.5-7.5h23.012c4.143 0 7.523 3.358 7.523 7.5s-3.335 7.5-7.477 7.5zm-82.087 0h-23.012c-4.143 0-7.5-3.358-7.5-7.5s3.357-7.5 7.5-7.5h23.012c4.143 0 7.5 3.358 7.5 7.5s-3.358 7.5-7.5 7.5zm-82.041 0h-23.011c-4.143 0-7.5-3.358-7.5-7.5s3.357-7.5 7.5-7.5h23.011c4.143 0 7.5 3.358 7.5 7.5s-3.358 7.5-7.5 7.5zm-82.041 0h-23.011c-4.143 0-7.5-3.358-7.5-7.5s3.357-7.5 7.5-7.5h23.011c4.143 0 7.5 3.358 7.5 7.5s-3.358 7.5-7.5 7.5zm-82.04 0h-23.012c-4.143 0-7.5-3.358-7.5-7.5s3.357-7.5 7.5-7.5h23.012c4.143 0 7.5 3.358 7.5 7.5s-3.358 7.5-7.5 7.5zm-82.041 0h-23.012c-4.143 0-7.5-3.358-7.5-7.5s3.357-7.5 7.5-7.5h23.012c4.143 0 7.5 3.358 7.5 7.5s-3.358 7.5-7.5 7.5zm-75.729-11.062c-4.143 0-7.5-3.352-7.5-7.494v-23.012c0-4.142 3.357-7.5 7.5-7.5s7.5 3.358 7.5 7.5v23c0 4.143-3.357 7.506-7.5 7.506zm497-41.689c-4.143 0-7.5-3.358-7.5-7.5v-23.012c0-4.142 3.357-7.5 7.5-7.5s7.5 3.358 7.5 7.5v23.012c0 4.142-3.357 7.5-7.5 7.5zm-497-40.346c-4.143 0-7.5-3.358-7.5-7.5v-23.012c0-4.142 3.357-7.5 7.5-7.5s7.5 3.358 7.5 7.5v23.012c0 4.142-3.357 7.5-7.5 7.5zm497-41.695c-4.143 0-7.5-3.358-7.5-7.5v-23.012c0-4.142 3.357-7.5 7.5-7.5s7.5 3.358 7.5 7.5v23.012c0 4.142-3.357 7.5-7.5 7.5zm-497-40.346c-4.143 0-7.5-3.358-7.5-7.5v-23.011c0-4.142 3.357-7.5 7.5-7.5s7.5 3.358 7.5 7.5v23.011c0 4.142-3.357 7.5-7.5 7.5zm497-41.695c-4.143 0-7.5-3.358-7.5-7.5v-23.011c0-4.142 3.357-7.5 7.5-7.5s7.5 3.358 7.5 7.5v23.011c0 4.142-3.357 7.5-7.5 7.5zm-497-40.346c-4.143 0-7.5-3.358-7.5-7.5v-23.011c0-4.142 3.357-7.5 7.5-7.5s7.5 3.358 7.5 7.5v23.011c0 4.142-3.357 7.5-7.5 7.5zm497-41.695c-4.143 0-7.5-3.358-7.5-7.5v-23.011c0-4.142 3.357-7.5 7.5-7.5s7.5 3.358 7.5 7.5v23.011c0 4.142-3.357 7.5-7.5 7.5zm-497-40.345c-4.143 0-7.5-3.358-7.5-7.5v-23.012c0-4.142 3.357-7.5 7.5-7.5s7.5 3.358 7.5 7.5v23.012c0 4.142-3.357 7.5-7.5 7.5zm497-41.696c-4.143 0-7.5-3.358-7.5-7.5v-23.012c0-4.142 3.357-7.5 7.5-7.5s7.5 3.358 7.5 7.5v23.012c0 4.143-3.357 7.5-7.5 7.5zm-497-40.345c-4.143 0-7.5-3.358-7.5-7.5v-23.011c0-4.142 3.357-7.5 7.5-7.5s7.5 3.358 7.5 7.5v23.011c0 4.142-3.357 7.5-7.5 7.5zm497-41.696c-4.143 0-7.5-3.358-7.5-7.5v-22.977c0-4.142 3.357-7.517 7.5-7.517s7.5 3.34 7.5 7.482v23.012c0 4.143-3.357 7.5-7.5 7.5zm-52.74-34.044h-23.011c-4.143 0-7.5-3.358-7.5-7.5s3.357-7.5 7.5-7.5h23.011c4.143 0 7.5 3.358 7.5 7.5s-3.358 7.5-7.5 7.5zm-82.04 0h-23.012c-4.143 0-7.5-3.358-7.5-7.5s3.357-7.5 7.5-7.5h23.012c4.143 0 7.5 3.358 7.5 7.5s-3.358 7.5-7.5 7.5zm-82.041 0h-23.012c-4.143 0-7.5-3.358-7.5-7.5s3.357-7.5 7.5-7.5h23.012c4.143 0 7.5 3.358 7.5 7.5s-3.358 7.5-7.5 7.5zm-82.041 0h-23.012c-4.143 0-7.5-3.358-7.5-7.5s3.357-7.5 7.5-7.5h23.012c4.143 0 7.5 3.358 7.5 7.5s-3.358 7.5-7.5 7.5zm-82.041 0h-23.012c-4.143 0-7.5-3.358-7.5-7.5s3.357-7.5 7.5-7.5h23.012c4.143 0 7.5 3.358 7.5 7.5s-3.358 7.5-7.5 7.5zm-82.041 0h-22.99c-4.143 0-7.512-3.358-7.512-7.5s3.347-7.5 7.49-7.5h23.012c4.143 0 7.5 3.358 7.5 7.5s-3.358 7.5-7.5 7.5z" fill="#deecf1"/></g><path d="m454.942 149.665c4.143 0 7.5-3.358 7.5-7.5s-3.357-7.5-7.5-7.5h-8.404v-58.215h8.404c4.143 0 7.5-3.358 7.5-7.5s-3.357-7.5-7.5-7.5h-8.404v-8.404c0-4.142-3.357-7.5-7.5-7.5s-7.5 3.358-7.5 7.5v8.404h-58.216v-8.404c0-4.142-3.357-7.5-7.5-7.5s-7.5 3.358-7.5 7.5v8.404h-58.215v-8.404c0-4.142-3.357-7.5-7.5-7.5s-7.5 3.358-7.5 7.5v8.404h-58.215v-8.404c0-4.142-3.357-7.5-7.5-7.5s-7.5 3.358-7.5 7.5v8.404h-58.216v-8.404c0-4.142-3.357-7.5-7.5-7.5s-7.5 3.358-7.5 7.5v8.404h-58.214v-8.404c0-4.142-3.357-7.5-7.5-7.5s-7.5 3.358-7.5 7.5v8.404h-8.404c-4.143 0-7.5 3.358-7.5 7.5s3.357 7.5 7.5 7.5h8.404v58.215h-8.404c-4.143 0-7.5 3.358-7.5 7.5s3.357 7.5 7.5 7.5h8.404v58.215h-8.404c-4.143 0-7.5 3.358-7.5 7.5s3.357 7.5 7.5 7.5h8.404v58.215h-8.404c-4.143 0-7.5 3.358-7.5 7.5s3.357 7.5 7.5 7.5h8.404v58.215h-8.404c-4.143 0-7.5 3.358-7.5 7.5s3.357 7.5 7.5 7.5h8.404v58.215h-8.404c-4.143 0-7.5 3.358-7.5 7.5s3.357 7.5 7.5 7.5h8.404v8.404c0 4.142 3.357 7.5 7.5 7.5s7.5-3.358 7.5-7.5v-8.404h58.215v8.404c0 4.142 3.357 7.5 7.5 7.5s7.5-3.358 7.5-7.5v-8.404h58.216v8.404c0 4.142 3.357 7.5 7.5 7.5s7.5-3.358 7.5-7.5v-8.404h58.215v8.404c0 4.142 3.357 7.5 7.5 7.5s7.5-3.358 7.5-7.5v-8.404h58.215v8.404c0 4.142 3.357 7.5 7.5 7.5s7.5-3.358 7.5-7.5v-8.404h58.216v8.404c0 4.142 3.357 7.5 7.5 7.5s7.5-3.358 7.5-7.5v-8.404h8.404c4.143 0 7.5-3.358 7.5-7.5s-3.357-7.5-7.5-7.5h-8.404v-58.215h8.404c4.143 0 7.5-3.358 7.5-7.5s-3.357-7.5-7.5-7.5h-8.404v-58.215h8.404c4.143 0 7.5-3.358 7.5-7.5s-3.357-7.5-7.5-7.5h-8.404v-58.215h8.404c4.143 0 7.5-3.358 7.5-7.5s-3.357-7.5-7.5-7.5h-8.404v-58.215zm-23.404-73.215v58.215h-58.216v-58.215zm-73.216 0v58.215h-58.215v-58.215zm-58.215 277.861v-58.215h58.215v58.215zm-73.214-146.431v-58.215h58.215v58.215zm58.214 15v58.215h-58.215v-58.215zm-73.214-15h-58.216v-58.215h58.216zm0 15v58.215h-58.216v-58.215zm0 73.216v58.215h-58.216v-58.215zm15 0h58.215v58.215h-58.215zm73.214-15v-58.216h58.215v58.215h-58.215zm0-73.216v-58.215h58.215v58.215zm-15-131.43v58.215h-58.215v-58.215zm-73.214 0v58.215h-58.216v-58.215zm-131.431 0h58.215v58.215h-58.215zm0 73.215h58.215v58.215h-58.215zm0 73.215h58.215v58.215h-58.215zm0 73.216h58.215v58.215h-58.215zm0 131.43v-58.215h58.215v58.215zm73.215 0v-58.215h58.216v58.215zm73.216 0v-58.215h58.215v58.215zm73.214 0v-58.215h58.215v58.215zm131.431 0h-58.216v-58.215h58.216zm0-73.215h-58.216v-58.215h58.216zm0-73.215h-58.216v-58.216h58.216zm0-73.216h-58.216v-58.215h58.216z" fill="#01c0fa"/></g></svg>