<svg id="Capa_1" enable-background="new 0 0 512 512" height="512" viewBox="0 0 512 512" width="512" xmlns="http://www.w3.org/2000/svg"><g><g><path d="m443.453 367.452-130.956-94.579c-11.503-8.308-11.503-25.438 0-33.745l130.956-94.579c13.764-9.941 32.999-.106 32.999 16.873v189.159c0 16.977-19.235 26.812-32.999 16.871z" fill="#ffe177"/></g><g><path d="m68.547 367.452 130.956-94.579c11.503-8.308 11.503-25.438 0-33.745l-130.956-94.58c-13.764-9.941-32.999-.106-32.999 16.873v189.159c0 16.978 19.235 26.813 32.999 16.872z" fill="#ffe177"/></g><g><path d="m443.453 144.548-23.497 16.97c4.487 13.749 6.922 28.426 6.922 43.673 0 45.143-21.268 85.315-54.327 111.054l70.901 51.207c13.764 9.941 32.999.106 32.999-16.873v-189.158c.001-16.979-19.234-26.814-32.998-16.873z" fill="#ffd15b"/></g><g><path d="m199.503 239.127-59.111-42.692c.178 2.897.279 5.814.279 8.755 0 65.409-44.644 120.387-105.123 136.136v9.253c0 16.979 19.235 26.814 32.999 16.873l130.956-94.579c11.503-8.308 11.503-25.438 0-33.746z" fill="#ffd15b"/></g><g><g><path d="m272.65 388.488v-15.22c0-4.418-3.582-8-8-8h-17.3c-4.418 0-8 3.582-8 8v15.22c0 4.418 3.582 8 8 8h17.301c4.418 0 7.999-3.582 7.999-8z" fill="#9facba"/></g><g><path d="m239.35 248.39v15.219c0 4.418 3.582 8 8 8h17.301c4.418 0 8-3.582 8-8v-15.219c0-4.418-3.582-8-8-8h-17.301c-4.419 0-8 3.582-8 8z" fill="#9facba"/></g><g><path d="m272.65 76.293v-68.293c0-4.418-3.582-8-8-8h-17.3c-4.418 0-8 3.582-8 8v68.293c0 4.418 3.582 8 8 8h17.301c4.418 0 7.999-3.582 7.999-8z" fill="#b6c4cf"/></g><g><path d="m239.35 310.829v15.22c0 4.418 3.582 8 8 8h17.301c4.418 0 8-3.582 8-8v-15.22c0-4.418-3.582-8-8-8h-17.301c-4.419 0-8 3.582-8 8z" fill="#b6c4cf"/></g><g><path d="m239.35 435.707v68.293c0 4.418 3.582 8 8 8h17.301c4.418 0 8-3.582 8-8v-68.293c0-4.418-3.582-8-8-8h-17.301c-4.419 0-8 3.582-8 8z" fill="#b6c4cf"/></g><g><path d="m239.35 185.951v15.22c0 4.418 3.582 8 8 8h17.301c4.418 0 8-3.582 8-8v-15.22c0-4.418-3.582-8-8-8h-17.301c-4.419 0-8 3.582-8 8z" fill="#b6c4cf"/></g><g><path d="m239.35 123.512v15.22c0 4.418 3.582 8 8 8h17.301c4.418 0 8-3.582 8-8v-15.22c0-4.418-3.582-8-8-8h-17.301c-4.419 0-8 3.582-8 8z" fill="#9facba"/></g></g></g></svg>