<svg id="Capa_1" enable-background="new 0 0 512 512" height="512" viewBox="0 0 512 512" width="512" xmlns="http://www.w3.org/2000/svg"><g><g><path d="m488.28 235.082v-182.944h-15v83.972h-97.39v-97.39h83.972v-15h-182.944v15h83.973v97.39h-97.391v-104.89h-15v104.89h-97.391v-97.39h83.973v-15h-182.944v15h83.972v97.39h-97.39v-83.972h-15v182.944h15v-83.973h97.39v97.391h-83.67v15h83.67v97.391h-97.39v-83.973h-15v182.944h15v-83.972h97.39v97.39h-83.972v15h182.944v-15h-83.973v-97.39h97.391v106.271h15v-106.27h97.391v97.39h-83.973v15h182.944v-15h-83.972v-97.39h97.39v83.972h15v-182.945h-15v83.973h-97.39v-97.391h83.67v-15h-83.67v-97.391h97.39v83.973zm-239.78 125.809h-97.391v-97.391h97.391zm0-112.391h-97.391v-97.391h97.391zm112.391 112.391h-97.391v-97.391h97.391zm0-112.391h-97.391v-97.391h97.391z" fill="#b6c4cf"/></g><g><g><circle cx="31.22" cy="31.22" fill="#fe93d3" r="31.22"/></g><g><path d="m44.051 2.761c1.768 3.916 2.761 8.256 2.761 12.832 0 17.242-13.977 31.22-31.22 31.22-4.575 0-8.916-.992-12.832-2.761 4.896 10.84 15.792 18.388 28.459 18.388 17.242 0 31.22-13.977 31.22-31.22 0-12.667-7.548-23.564-18.388-28.459z" fill="#fe73c5"/></g></g><g><g><circle cx="256" cy="31.22" fill="#fe93d3" r="31.22"/></g><g><path d="m268.832 2.761c1.768 3.916 2.761 8.256 2.761 12.832 0 17.242-13.977 31.22-31.219 31.22-4.575 0-8.916-.992-12.832-2.761 4.896 10.84 15.792 18.388 28.459 18.388 17.242 0 31.22-13.977 31.22-31.22-.001-12.667-7.549-23.564-18.389-28.459z" fill="#fe73c5"/></g></g><g><g><circle cx="480.78" cy="31.22" fill="#fe93d3" r="31.22"/></g><g><path d="m493.612 2.761c1.768 3.916 2.761 8.256 2.761 12.832 0 17.242-13.977 31.22-31.22 31.22-4.575 0-8.916-.992-12.832-2.761 4.896 10.84 15.792 18.388 28.459 18.388 17.242 0 31.22-13.977 31.22-31.22 0-12.667-7.548-23.564-18.388-28.459z" fill="#fe73c5"/></g></g><g><g><circle cx="31.22" cy="256" fill="#fe93d3" r="31.22"/></g><g><path d="m44.051 227.541c1.768 3.916 2.761 8.256 2.761 12.832 0 17.242-13.977 31.219-31.22 31.219-4.575 0-8.916-.992-12.832-2.761 4.896 10.84 15.792 18.388 28.459 18.388 17.242 0 31.22-13.977 31.22-31.22 0-12.666-7.548-23.562-18.388-28.458z" fill="#fe73c5"/></g></g><g><g><circle cx="480.78" cy="256" fill="#fe93d3" r="31.22"/></g><g><path d="m493.612 227.541c1.768 3.916 2.761 8.256 2.761 12.832 0 17.242-13.977 31.219-31.22 31.219-4.575 0-8.916-.992-12.832-2.761 4.896 10.84 15.792 18.388 28.459 18.388 17.242 0 31.22-13.977 31.22-31.22 0-12.666-7.548-23.562-18.388-28.458z" fill="#fe73c5"/></g></g><g><g><circle cx="31.22" cy="480.78" fill="#fe93d3" r="31.22"/></g><g><path d="m44.051 452.322c1.768 3.916 2.761 8.256 2.761 12.832 0 17.242-13.977 31.22-31.22 31.22-4.575 0-8.916-.992-12.832-2.761 4.896 10.839 15.793 18.387 28.46 18.387 17.242 0 31.22-13.977 31.22-31.22-.001-12.666-7.549-23.563-18.389-28.458z" fill="#fe73c5"/></g></g><g><g><circle cx="256" cy="480.78" fill="#fe93d3" r="31.22"/></g><g><path d="m268.832 452.322c1.768 3.916 2.761 8.256 2.761 12.832 0 17.242-13.977 31.22-31.219 31.22-4.575 0-8.916-.992-12.832-2.761 4.895 10.839 15.791 18.387 28.458 18.387 17.242 0 31.22-13.977 31.22-31.22 0-12.666-7.548-23.563-18.388-28.458z" fill="#fe73c5"/></g></g><g><g><circle cx="480.78" cy="480.78" fill="#fe93d3" r="31.22"/></g><g><path d="m493.612 452.322c1.768 3.916 2.761 8.256 2.761 12.832 0 17.242-13.977 31.22-31.22 31.22-4.575 0-8.916-.992-12.832-2.761 4.896 10.839 15.793 18.387 28.459 18.387 17.242 0 31.22-13.977 31.22-31.22 0-12.666-7.548-23.563-18.388-28.458z" fill="#fe73c5"/></g></g></g></svg>