<svg id="Capa_1" enable-background="new 0 0 512 512" height="512" viewBox="0 0 512 512" width="512" xmlns="http://www.w3.org/2000/svg"><g><path d="m490.881 468.406v-379.295l-19.928-37.101-40.543-40.544c-7.342-7.342-17.299-11.466-27.681-11.466h-16.546l-126.009 27.555-134.357-27.555h-83.586c-21.62 0-39.147 17.527-39.147 39.147v433.706c0 21.62 17.527 39.147 39.147 39.147h398.583l16.614-3.461c16.599-3.458 33.453-18.284 33.453-40.133z" fill="#407093"/><path d="m411.142 456.334h-310.284c-11.948 0-21.634-9.686-21.634-21.634v-164.604c0-11.948 9.686-21.634 21.634-21.634h310.284c11.948 0 21.634 9.686 21.634 21.634v164.604c0 11.948-9.686 21.634-21.634 21.634z" fill="#d8e2f1"/><circle cx="256" cy="352.398" fill="#b3e59f" r="73.146"/><g><path d="m230.96 379.983-13.935-28.161c-1.893-3.824-.327-8.459 3.498-10.352 3.824-1.892 8.459-.326 10.351 3.499l9.256 18.704 42.563-40.96c3.073-2.957 7.966-2.865 10.925.21s2.865 7.966-.21 10.925l-50.166 48.276c-3.765 3.625-9.97 2.536-12.282-2.141z" fill="#78c2a4"/></g><path d="m144.361 186.654h223.279c10.241 0 18.543-8.302 18.543-18.543v-168.111h-260.366v168.111c0 10.241 8.302 18.543 18.544 18.543z" fill="#bed8fb"/><path d="m497.45 78.506-26.497-26.497v54.178 89.771 276.895c0 21.62-17.527 39.147-39.147 39.147h37.963c21.62 0 39.147-17.527 39.147-39.147v-366.666c0-10.382-4.125-20.34-11.466-27.681z" fill="#365e7d"/><g><path d="m256 433.27c-44.594 0-80.872-36.279-80.872-80.872 0-44.594 36.279-80.873 80.872-80.873s80.872 36.279 80.872 80.873c0 44.593-36.278 80.872-80.872 80.872zm0-146.292c-36.072 0-65.42 29.347-65.42 65.42 0 36.072 29.347 65.42 65.42 65.42s65.42-29.347 65.42-65.42-29.348-65.42-65.42-65.42z" fill="#78c2a4"/></g><path d="m296.864 143.24v-98.513c0-2.845 2.306-5.151 5.151-5.151h45.327c2.845 0 5.151 2.306 5.151 5.151v98.512c0 2.845-2.306 5.151-5.151 5.151h-45.327c-2.845.001-5.151-2.305-5.151-5.15z" fill="#80b4fb"/></g></svg>