<?xml version="1.0" encoding="UTF-8" standalone="no"?>
<!DOCTYPE svg PUBLIC "-//W3C//DTD SVG 1.1//EN" "http://www.w3.org/Graphics/SVG/1.1/DTD/svg11.dtd">
<svg version="1.1" xmlns="http://www.w3.org/2000/svg" xmlns:xlink="http://www.w3.org/1999/xlink" preserveAspectRatio="xMidYMid meet" viewBox="142.11085097258956 155.48387096774195 261.9999999999999 262" width="262" height="262"><defs><path d="M142.11 155.48L404.11 155.48L404.11 417.48L142.11 417.48L142.11 155.48Z" id="aPtJGWTt6"></path><path d="M374.31 417.48L374.31 414.13L142.11 414.13L142.11 417.48L374.31 417.48Z" id="d3JJoyBiMe"></path><path d="M374.31 381.02L374.31 377.35L142.11 376.85L142.11 381.02L374.31 381.02Z" id="d3ctmEjERM"></path><path d="M374.31 414.13L374.31 381.02L142.11 381.02L142.11 414.13L374.31 414.13Z" id="aD6zI81hb"></path><path d="M293.98 368.55L342.84 351.88L367.02 367.24L342.02 365.93L327.48 375.41L299.38 417.42L291.19 417.48L293.98 368.55Z" id="a1RTWqaqa2"></path><path d="M353.3 337.8L371.27 332.57L389.57 307.08L386.96 283.06L380.26 283.06L381.56 296.46L375.68 311.16L359.5 324.89L328.62 325.71L313.26 331.26L353.3 337.8Z" id="d29ze06Hd"></path><path d="M198.76 313.88L207.87 244.23L254.83 230.82L269.37 239.82L240.62 240.78L223.04 260.26L221.45 284.87L223.36 297L270.33 377.42L240.04 377.06L198.76 313.88Z" id="b4yZDmHC6I"></path><path d="M277.48 351.16L298.63 336.07L312.04 331.36L365.39 330.93L373.67 324.23L385.93 307.39L384.79 287.71L363.97 262.74L339.29 267.02L323.74 286.48L324.31 298.55L339.29 304.26L351.98 298.55L340.14 308.11L324.31 305.83L317.03 296.55L318.6 283.14L330.59 258.61L360.54 251.33L373.67 256.04L390.9 273.91L394.04 286.48L394.04 305.15L388.79 319.55L379.87 332.97L358.9 341.25L382.44 354.08L393.14 378.05L394.71 400.73L387.72 416.14L384.15 388.04L377.3 377.34L367.08 367.22L337.83 358.24L327.13 362.66L291.33 417.48L229.43 417.48L277.48 351.16Z" id="bwRk5wMP1"></path><path d="M240.98 377.06L207.55 302.97L208.51 270.15L224.48 243.48L252.91 234.74L269.3 239.66L290.04 260.88L292.06 290.93L279.93 302.97L262.26 307.34L255.75 300.55L261.38 282.58L251.67 294.53L252.35 306.86L262.55 313.94L280.6 313.46L299.83 301.42L306.41 292.12L306.41 257.56L299.42 239.66L278.02 220.93L260.74 214.55L230.28 217.84L208.06 231.42L195.1 247.68L186.25 286.48L205.81 377.06L240.98 377.06Z" id="a4xeujxm6G"></path></defs><g><g><g><use xlink:href="#aPtJGWTt6" opacity="1" fill="#9b7647" fill-opacity="1"></use></g><g><use xlink:href="#d3JJoyBiMe" opacity="1" fill="#2e6f2e" fill-opacity="1"></use></g><g><use xlink:href="#d3ctmEjERM" opacity="1" fill="#2e6f2e" fill-opacity="1"></use></g><g><use xlink:href="#aD6zI81hb" opacity="1" fill="#eadfa7" fill-opacity="1"></use></g><g><use xlink:href="#a1RTWqaqa2" opacity="1" fill="#a000a0" fill-opacity="1"></use></g><g><use xlink:href="#d29ze06Hd" opacity="1" fill="#a000a0" fill-opacity="1"></use></g><g><use xlink:href="#b4yZDmHC6I" opacity="1" fill="#a000a0" fill-opacity="1"></use></g><g><use xlink:href="#bwRk5wMP1" opacity="1" fill="#000000" fill-opacity="1"></use></g><g><use xlink:href="#a4xeujxm6G" opacity="1" fill="#000000" fill-opacity="1"></use></g></g></g></svg>