<?xml version="1.0" encoding="UTF-8" standalone="no"?>
<!DOCTYPE svg PUBLIC "-//W3C//DTD SVG 1.1//EN" "http://www.w3.org/Graphics/SVG/1.1/DTD/svg11.dtd">
<svg version="1.1" xmlns="http://www.w3.org/2000/svg" xmlns:xlink="http://www.w3.org/1999/xlink" preserveAspectRatio="xMidYMid meet" viewBox="33.41691761868715 56.21182905825549 262.32765199325445 262.1544903538317" width="262.33" height="262.15"><defs><path d="M33.57 56.28L295.57 56.28L295.57 318.28L33.57 318.28L33.57 56.28Z" id="a2qyCMgHsd"></path><path d="M33.55 73.8L99.72 74.56L99.46 318.37L33.42 318.37L33.55 73.8Z" id="b3b7qx4RFn"></path><path d="M211 56.21L295.74 56.21L295.54 304.22L209.96 304.43L211 56.21Z" id="a88WXgRAa"></path><path d="M209.75 304.4L295.52 304.19L295.59 318.35L209.54 318.13L209.75 304.4Z" id="h17UNKBGCY"></path><path d="M210.94 88.35L295.44 88.45L295.72 108.31L210.94 108.73L210.94 88.35Z" id="b2wzT5KeEM"></path><path d="M114.77 262.2L118.73 250.11L126.02 252.61L199.35 84.28L204.77 82.4L211.02 84.7L210.6 99.7L143.94 259.35L150.39 262.06L143.73 274.76L136.23 271.22L114.56 317.26L102.48 312.68L120.39 265.39L114.77 262.2Z" id="a1FhxwgTD2"></path></defs><g><g><g><use xlink:href="#a2qyCMgHsd" opacity="1" fill="#9b7647" fill-opacity="1"></use></g><g><use xlink:href="#b3b7qx4RFn" opacity="1" fill="#eca16c" fill-opacity="1"></use></g><g><use xlink:href="#a88WXgRAa" opacity="1" fill="#99cccb" fill-opacity="1"></use></g><g><use xlink:href="#h17UNKBGCY" opacity="1" fill="#1de1de" fill-opacity="1"></use></g><g><use xlink:href="#b2wzT5KeEM" opacity="1" fill="#1de1de" fill-opacity="1"></use></g><g><use xlink:href="#a1FhxwgTD2" opacity="1" fill="#d2bc9c" fill-opacity="1"></use></g></g></g></svg>