<svg xmlns="http://www.w3.org/2000/svg" xmlns:xlink="http://www.w3.org/1999/xlink" width="262" height="262" viewBox="22.08 167.264 262 262">
  <defs>
    <path id="a" d="M22.08 167.26h262v262h-262v-262Z"/>
    <path id="b" d="m77.66 317.9 16.08-42.52 36.97-26.99 34.75-3.14 59.02 13.44 14.23-9.24-.55 19.04 15.16 45.95 1.11 14.05-2.78 33.45-2.4-11.46-15.16 31.06 1.48-13.35-15.34 20.52 2.4-8.28-33.64 16.26 8.13-11.27-24.82 7.35 3.14-4.06-18.3 4.06-57.03-16.97-5.44-7.61-24.22-4.62-9.06-7.76-13.3-.93-11.65 5.55-.92 13.31-13.44-14.79v-14.23l17.32-11.46 23.66-1.67 9.2 5.57 5.4-19.26Z"/>
    <path id="c" d="m159.32 298.26-11.37 7.04-6.53-.57-5.26-6.1V287.4l6.25-5.39h11.93l5.97 4.54-.99 11.71Z"/>
    <path id="d" d="m203.51 328.09 4.83-6.68-13.5.57 8.67 6.11Z"/>
    <path id="e" d="m221.26 284.62 8.1 8.1.85 9.09-5.97 6.25-10.22-6.25-.57-11.37 7.81-5.82Z"/>
    <path id="f" d="m72.21 336.68 4.18-25.85-6.59 7.95 9.66-27.55-9.66 6.5 21.36-30.37-14.77 4.12 22.85-22.75-9.8.85 27.28-11.37-17.48-2.69 33.81-2.99-11.22-7.53 44.91 4.59-7.77-12.36 31.68 25 6.53-19.31 2.14 20.73 12.35-9.8-5.54 8.38 17.9 2.13-13.64 5.22 38.64 26.18 12.43 32.3-5.26-5 7.53 24.43-49.1-63-19.79 12.36-38.32-27.27-25.15 6.39-17.75 12.36-25.43 29.4-7.24 32.25 1.56 15.19-3.41 1.85-6.89-10.34Z"/>
  </defs>
  <use xlink:href="#a" fill="#9b7647"/>
  <use xlink:href="#b" fill="#eba4a4"/>
  <use xlink:href="#c" fill="#743157"/>
  <use xlink:href="#d" fill="#000000"/>
  <use xlink:href="#e" fill="#743157"/>
  <use xlink:href="#f" fill="#cb8a92"/>
</svg>
