<?xml version="1.0" encoding="UTF-8" standalone="no"?>
<!DOCTYPE svg PUBLIC "-//W3C//DTD SVG 1.1//EN" "http://www.w3.org/Graphics/SVG/1.1/DTD/svg11.dtd">
<svg version="1.1" xmlns="http://www.w3.org/2000/svg" xmlns:xlink="http://www.w3.org/1999/xlink" preserveAspectRatio="xMidYMid meet" viewBox="620.938883939203 101.02501238941886 262.1436800250525 262" width="262.14" height="262"><defs><path d="M621.08 101.03L883.08 101.03L883.08 363.03L621.08 363.03L621.08 101.03Z" id="b1fCb8jMfo"></path><path d="M867.2 300.99L882.37 320.72L882.34 341.47L862.89 362.89L620.94 362.89L621.39 357.22L861.53 355.86L879.22 327.75L863.12 306.88L620.94 306.88L620.94 301.44L867.2 300.99Z" id="aAQTw7EwO"></path><path d="M861.76 355.86L879.44 327.97L863.06 306.66L861.76 355.86Z" id="dWS7gu2S5"></path><path d="M636.36 332.51L623.21 357.22L861.76 356.09L862.96 306.88L623.63 306.85L636.36 332.51Z" id="a164wBb3"></path><path d="M847.62 294.75L856.09 274.68L845.43 254.5L639.53 256.54L638.85 245.43L847.24 246.79L860.17 259.72L859.49 288.52L851.32 300.76L639.31 301.44L639.57 296.34L847.62 294.75Z" id="cd14o6yfP"></path><path d="M840.33 294.96L847.47 294.77L856.17 274.9L845.45 254.52L839.95 254.62L840.33 294.96Z" id="b1r7aPgYUc"></path><path d="M839.96 254.52L840.54 294.88L639.95 296.3L648.48 277.92L639.77 260.87L639.58 256.52L839.96 254.52Z" id="c1syprTKKG"></path><path d="M817.61 240.8L818.36 226.02L814.2 214.66L643.55 214.47L643.55 206.71L818.93 206.52L827.27 227.35L823.67 246.48L643.55 245.34L643.74 241.74L817.61 240.8Z" id="eqgzGga47"></path><path d="M814.12 214.65L818.36 225.46L817.54 240.79L802.83 240.8L802.93 214.64L814.12 214.65Z" id="g2fRlMrSbv"></path><path d="M802.93 214.65L802.84 240.9L643.83 241.67L651.7 228.68L643.55 214.46L802.93 214.65Z" id="c8m0nfzsN"></path><path d="M653.93 179.79L813.31 179.56L813.07 205.96L653.7 206.42L653.93 179.79Z" id="b1xHvM9pT1"></path><path d="M653.61 143.96L805.47 143.96L805.47 179.77L653.61 179.77L653.61 143.96Z" id="c1L5rmRN1j"></path><path d="M787.79 143.96L797.1 143.96L797.1 179.77L787.79 179.77L787.79 143.96Z" id="aqf4tyvSP"></path><path d="M653.61 113.73L805.47 113.73L805.47 143.96L653.61 143.96L653.61 113.73Z" id="b1XWcExtFE"></path><path d="M673.37 113.84L752.21 113.84L752.21 169.19L712.44 205.94L673.37 169.19L673.37 113.84Z" id="a1GdQnmquf"></path><path d="M673.44 146.63L710.22 113.81L697.56 113.88L673.41 135.7L673.44 146.63Z" id="a8uyM1HDo7"></path><path d="M745.63 113.71L752.08 113.84L680.78 176.34L678.05 173.58L745.63 113.71Z" id="aZNDQfnOL"></path><path d="M752.28 128L752.28 131.45L690.68 185.47L687.92 182.88L752.28 128Z" id="bWSCwDSl5"></path><path d="M752.24 155.47L752.35 169.1L712.61 206.07L705.96 200.03L752.24 155.47Z" id="b7Y9IKmaLC"></path></defs><g><g><g><use xlink:href="#b1fCb8jMfo" opacity="1" fill="#9b7647" fill-opacity="1"></use></g><g><use xlink:href="#aAQTw7EwO" opacity="1" fill="#332e8f" fill-opacity="1"></use></g><g><use xlink:href="#dWS7gu2S5" opacity="1" fill="#3363ff" fill-opacity="1"></use></g><g><use xlink:href="#a164wBb3" opacity="1" fill="#e0d6a1" fill-opacity="1"></use></g><g><use xlink:href="#cd14o6yfP" opacity="1" fill="#ff33d4" fill-opacity="1"></use></g><g><use xlink:href="#b1r7aPgYUc" opacity="1" fill="#ec98f2" fill-opacity="1"></use></g><g><use xlink:href="#c1syprTKKG" opacity="1" fill="#eae8ba" fill-opacity="1"></use></g><g><use xlink:href="#eqgzGga47" opacity="1" fill="#ff8615" fill-opacity="1"></use></g><g><use xlink:href="#g2fRlMrSbv" opacity="1" fill="#ffe700" fill-opacity="1"></use></g><g><use xlink:href="#c8m0nfzsN" opacity="1" fill="#ece8c5" fill-opacity="1"></use></g><g><use xlink:href="#b1xHvM9pT1" opacity="1" fill="#a5c07d" fill-opacity="1"></use></g><g><use xlink:href="#c1L5rmRN1j" opacity="1" fill="#90acd7" fill-opacity="1"></use></g><g><use xlink:href="#aqf4tyvSP" opacity="1" fill="#929292" fill-opacity="1"></use></g><g><use xlink:href="#b1XWcExtFE" opacity="1" fill="#cf9acf" fill-opacity="1"></use></g><g><use xlink:href="#a1GdQnmquf" opacity="1" fill="#003bc2" fill-opacity="1"></use></g><g><use xlink:href="#a8uyM1HDo7" opacity="1" fill="#d49c1d" fill-opacity="1"></use></g><g><use xlink:href="#aZNDQfnOL" opacity="1" fill="#d49c1d" fill-opacity="1"></use></g><g><use xlink:href="#bWSCwDSl5" opacity="1" fill="#d49c1d" fill-opacity="1"></use></g><g><use xlink:href="#b7Y9IKmaLC" opacity="1" fill="#d49c1d" fill-opacity="1"></use></g></g></g></svg>