<?xml version="1.0" encoding="UTF-8" standalone="no"?>
<!DOCTYPE svg PUBLIC "-//W3C//DTD SVG 1.1//EN" "http://www.w3.org/Graphics/SVG/1.1/DTD/svg11.dtd">
<svg version="1.1" xmlns="http://www.w3.org/2000/svg" xmlns:xlink="http://www.w3.org/1999/xlink" preserveAspectRatio="xMidYMid meet" viewBox="309.70045279939586 102.2077857393358 262.1436800250524 262" width="262.14" height="262"><defs><path d="M309.84 102.21L571.84 102.21L571.84 364.21L309.84 364.21L309.84 102.21Z" id="c5GefSo4yP"></path><path d="M555.96 302.17L571.13 321.9L571.1 342.66L551.65 364.08L309.7 364.08L310.15 358.41L550.29 357.05L567.98 328.93L551.88 308.07L309.7 308.07L309.7 302.62L555.96 302.17Z" id="eaV8djMUd"></path><path d="M550.52 357.05L568.2 329.15L551.82 307.84L550.52 357.05Z" id="a1aUYlopwc"></path><path d="M325.12 333.69L311.97 358.41L550.52 357.27L551.72 308.07L312.39 308.03L325.12 333.69Z" id="a3dVtsLUdn"></path><path d="M536.38 295.93L544.85 275.87L534.19 255.69L328.29 257.73L327.61 246.62L536 247.98L548.93 260.9L548.25 289.7L540.09 301.94L328.07 302.62L328.33 297.52L536.38 295.93Z" id="bhiK5qckO"></path><path d="M529.1 296.15L536.23 295.96L544.93 276.08L534.21 255.7L528.72 255.81L529.1 296.15Z" id="b3J5qiNzCH"></path><path d="M528.72 255.7L529.3 296.06L328.72 297.48L337.24 279.1L328.53 262.06L328.34 257.7L528.72 255.7Z" id="a1kXJgjHlK"></path><path d="M506.37 241.98L507.13 227.21L502.96 215.84L332.31 215.65L332.31 207.89L507.69 207.7L516.03 228.53L512.43 247.66L332.31 246.53L332.5 242.93L506.37 241.98Z" id="eQ0TJq17x"></path><path d="M502.88 215.84L507.13 226.64L506.3 241.97L491.59 241.99L491.69 215.82L502.88 215.84Z" id="b202OoDpxB"></path><path d="M491.69 215.83L491.6 242.08L332.6 242.85L340.46 229.86L332.31 215.65L491.69 215.83Z" id="iTeWeWYZ6"></path><path d="M342.69 180.98L502.07 180.74L501.84 207.14L342.46 207.6L342.69 180.98Z" id="a6jVo8Z6w"></path><path d="M342.37 145.14L494.23 145.14L494.23 180.96L342.37 180.96L342.37 145.14Z" id="aNNpn4Dzy"></path><path d="M476.55 145.14L485.86 145.14L485.86 180.96L476.55 180.96L476.55 145.14Z" id="jjp4YxrJA"></path><path d="M342.37 114.91L494.23 114.91L494.23 145.14L342.37 145.14L342.37 114.91Z" id="b11kBPbltC"></path><path d="M362.14 115.03L440.97 115.03L440.97 170.38L401.21 207.12L362.14 170.38L362.14 115.03Z" id="brgnpqKZN"></path><path d="M362.2 147.82L398.98 114.99L386.32 115.06L362.17 136.89L362.2 147.82Z" id="aQSUhHNSR"></path><path d="M434.4 114.89L440.84 115.02L369.54 177.52L366.82 174.76L434.4 114.89Z" id="b1DYfPRMnS"></path><path d="M441.04 129.18L441.04 132.64L379.44 186.66L376.68 184.07L441.04 129.18Z" id="b1FgvetETn"></path><path d="M441.01 156.65L441.11 170.28L401.37 207.25L394.72 201.21L441.01 156.65Z" id="b1fFPW36jK"></path></defs><g><g><g><use xlink:href="#c5GefSo4yP" opacity="1" fill="#9b7647" fill-opacity="1"></use></g><g><use xlink:href="#eaV8djMUd" opacity="1" fill="#332e8f" fill-opacity="1"></use></g><g><use xlink:href="#a1aUYlopwc" opacity="1" fill="#3363ff" fill-opacity="1"></use></g><g><use xlink:href="#a3dVtsLUdn" opacity="1" fill="#e0d6a1" fill-opacity="1"></use></g><g><use xlink:href="#bhiK5qckO" opacity="1" fill="#ff33d4" fill-opacity="1"></use></g><g><use xlink:href="#b3J5qiNzCH" opacity="1" fill="#ec98f2" fill-opacity="1"></use></g><g><use xlink:href="#a1kXJgjHlK" opacity="1" fill="#eae8ba" fill-opacity="1"></use></g><g><use xlink:href="#eQ0TJq17x" opacity="1" fill="#ff8615" fill-opacity="1"></use></g><g><use xlink:href="#b202OoDpxB" opacity="1" fill="#ffe700" fill-opacity="1"></use></g><g><use xlink:href="#iTeWeWYZ6" opacity="1" fill="#ece8c5" fill-opacity="1"></use></g><g><use xlink:href="#a6jVo8Z6w" opacity="1" fill="#a5c07d" fill-opacity="1"></use></g><g><use xlink:href="#aNNpn4Dzy" opacity="1" fill="#90acd7" fill-opacity="1"></use></g><g><use xlink:href="#jjp4YxrJA" opacity="1" fill="#929292" fill-opacity="1"></use></g><g><use xlink:href="#b11kBPbltC" opacity="1" fill="#cf9acf" fill-opacity="1"></use></g><g><use xlink:href="#brgnpqKZN" opacity="1" fill="#e7d414" fill-opacity="1"></use></g><g><use xlink:href="#aQSUhHNSR" opacity="1" fill="#000000" fill-opacity="1"></use></g><g><use xlink:href="#b1DYfPRMnS" opacity="1" fill="#000000" fill-opacity="1"></use></g><g><use xlink:href="#b1FgvetETn" opacity="1" fill="#000000" fill-opacity="1"></use></g><g><use xlink:href="#b1fFPW36jK" opacity="1" fill="#000000" fill-opacity="1"></use></g></g></g></svg>