<?xml version="1.0" encoding="UTF-8" standalone="no"?>
<!DOCTYPE svg PUBLIC "-//W3C//DTD SVG 1.1//EN" "http://www.w3.org/Graphics/SVG/1.1/DTD/svg11.dtd">
<svg version="1.1" xmlns="http://www.w3.org/2000/svg" xmlns:xlink="http://www.w3.org/1999/xlink" preserveAspectRatio="xMidYMid meet" viewBox="323.1575311414679 397.1989832593333 262.14368002505245 262" width="262.14" height="262"><defs><path d="M323.3 397.2L585.3 397.2L585.3 659.2L323.3 659.2L323.3 397.2Z" id="e1DpuWvZVV"></path><path d="M569.42 597.16L584.59 616.89L584.56 637.65L565.11 659.07L323.16 659.07L323.61 653.4L563.75 652.04L581.43 623.92L565.33 603.06L323.16 603.06L323.16 597.62L569.42 597.16Z" id="c2cVFEg9jk"></path><path d="M563.97 652.04L581.66 624.15L565.27 602.83L563.97 652.04Z" id="fHtZlEhZ"></path><path d="M338.58 628.68L325.43 653.4L563.97 652.26L565.18 603.06L325.85 603.02L338.58 628.68Z" id="b4sGWTAUiE"></path><path d="M549.84 590.92L558.3 570.86L547.65 550.68L341.75 552.72L341.07 541.61L549.46 542.97L562.39 555.89L561.71 584.69L553.54 596.94L341.52 597.62L341.79 592.51L549.84 590.92Z" id="c5dkvGht5"></path><path d="M542.55 591.14L549.69 590.95L558.39 571.07L547.67 550.69L542.17 550.8L542.55 591.14Z" id="f21h9cKCwu"></path><path d="M542.18 550.69L542.76 591.05L342.17 592.47L350.7 574.09L341.98 557.05L341.79 552.69L542.18 550.69Z" id="axOqXTV"></path><path d="M519.82 536.97L520.58 522.2L516.42 510.83L345.77 510.65L345.77 502.88L521.15 502.69L529.48 523.52L525.89 542.65L345.77 541.52L345.96 537.92L519.82 536.97Z" id="b3l4ooyNWP"></path><path d="M516.34 510.83L520.58 521.63L519.76 536.96L505.04 536.98L505.15 510.81L516.34 510.83Z" id="b12T7lAV9c"></path><path d="M505.15 510.82L505.06 537.07L346.05 537.84L353.92 524.85L345.77 510.64L505.15 510.82Z" id="cauprI57Q"></path><path d="M356.15 475.97L515.53 475.73L515.29 502.13L355.91 502.6L356.15 475.97Z" id="a1tJJRJRMU"></path><path d="M355.83 440.13L507.69 440.13L507.69 475.95L355.83 475.95L355.83 440.13Z" id="alXOmJXSS"></path><path d="M490.01 440.13L499.31 440.13L499.31 475.95L490.01 475.95L490.01 440.13Z" id="biOaLkEpp"></path><path d="M355.83 409.9L507.69 409.9L507.69 440.13L355.83 440.13L355.83 409.9Z" id="e9QL91ecS"></path><path d="M375.59 410.02L454.43 410.02L454.43 465.37L414.66 502.11L375.59 465.37L375.59 410.02Z" id="a21ELxte5X"></path><path d="M375.66 442.81L412.44 409.98L399.78 410.05L375.63 431.88L375.66 442.81Z" id="c1aEuCALj2"></path><path d="M447.85 409.88L454.3 410.01L383 472.51L380.27 469.76L447.85 409.88Z" id="aIg3raiU6"></path><path d="M454.49 424.17L454.49 427.63L392.9 481.65L390.14 479.06L454.49 424.17Z" id="b2uE4xgtJp"></path><path d="M454.46 451.65L454.57 465.28L414.83 502.24L408.18 496.2L454.46 451.65Z" id="a4kcha7iML"></path></defs><g><g><g><use xlink:href="#e1DpuWvZVV" opacity="1" fill="#9b7647" fill-opacity="1"></use></g><g><use xlink:href="#c2cVFEg9jk" opacity="1" fill="#332e8f" fill-opacity="1"></use></g><g><use xlink:href="#fHtZlEhZ" opacity="1" fill="#3363ff" fill-opacity="1"></use></g><g><use xlink:href="#b4sGWTAUiE" opacity="1" fill="#e0d6a1" fill-opacity="1"></use></g><g><use xlink:href="#c5dkvGht5" opacity="1" fill="#ff33d4" fill-opacity="1"></use></g><g><use xlink:href="#f21h9cKCwu" opacity="1" fill="#ec98f2" fill-opacity="1"></use></g><g><use xlink:href="#axOqXTV" opacity="1" fill="#eae8ba" fill-opacity="1"></use></g><g><use xlink:href="#b3l4ooyNWP" opacity="1" fill="#ff8615" fill-opacity="1"></use></g><g><use xlink:href="#b12T7lAV9c" opacity="1" fill="#ffe700" fill-opacity="1"></use></g><g><use xlink:href="#cauprI57Q" opacity="1" fill="#ece8c5" fill-opacity="1"></use></g><g><use xlink:href="#a1tJJRJRMU" opacity="1" fill="#a5c07d" fill-opacity="1"></use></g><g><use xlink:href="#alXOmJXSS" opacity="1" fill="#90acd7" fill-opacity="1"></use></g><g><use xlink:href="#biOaLkEpp" opacity="1" fill="#929292" fill-opacity="1"></use></g><g><use xlink:href="#e9QL91ecS" opacity="1" fill="#cf9acf" fill-opacity="1"></use></g><g><use xlink:href="#a21ELxte5X" opacity="1" fill="#307e1b" fill-opacity="1"></use></g><g><use xlink:href="#c1aEuCALj2" opacity="1" fill="#e0e0e0" fill-opacity="1"></use></g><g><use xlink:href="#aIg3raiU6" opacity="1" fill="#e0e0e0" fill-opacity="1"></use></g><g><use xlink:href="#b2uE4xgtJp" opacity="1" fill="#e0e0e0" fill-opacity="1"></use></g><g><use xlink:href="#a4kcha7iML" opacity="1" fill="#e0e0e0" fill-opacity="1"></use></g></g></g></svg>