<?xml version="1.0" encoding="UTF-8" standalone="no"?>
<!DOCTYPE svg PUBLIC "-//W3C//DTD SVG 1.1//EN" "http://www.w3.org/Graphics/SVG/1.1/DTD/svg11.dtd">
<svg version="1.1" xmlns="http://www.w3.org/2000/svg" xmlns:xlink="http://www.w3.org/1999/xlink" preserveAspectRatio="xMidYMid meet" viewBox="48.35700246825733 328.25750141617937 262.5706668193363 262.2694178280915" width="262.57" height="262.27"><defs><path d="M48.81 328.26L310.81 328.26L310.81 590.26L48.81 590.26L48.81 328.26Z" id="d3jIdCrg0w"></path><path d="M48.67 460.14L276.03 459.91L273.16 533.41L48.67 533.98L48.67 460.14Z" id="c9Ti334Eb"></path><path d="M48.36 533.89L310.7 533.52L310.93 590.27L48.6 590.53L48.36 533.89Z" id="b2DDRDSESv"></path><path d="M276.04 459.74L294.33 459.85L294.45 533.54L273.11 533.43L276.04 459.74Z" id="d1BRiOzBRT"></path><path d="M83.28 533.9L96.9 534.01L102.77 590.17L88.92 590.17L83.28 533.9Z" id="b64FI2gGh9"></path><path d="" id="bscy78RmX"></path><path d="M270.51 328.74L270.93 459.89L141.58 459.91L139.66 328.74L270.51 328.74Z" id="g34fp0FGeJ"></path><path d="M197.21 401.84L180.25 384.88L187.32 378.29L206.47 394.77L224.52 378.29L231.43 385.35L214.95 401.84L270.82 450.73L271 459.94L257.22 459.89L205.53 410.32L153.75 460.19L141.63 460.08L141.24 451.12L197.21 401.84Z" id="c5SfGAG7Wc"></path><path d="M141.4 379.28L150.35 375.35L153.8 365.78L156.63 374.88L166.83 379.59L158.04 382.26L153.8 392.15L150.35 382.11L141.4 379.28Z" id="akwFCQ0rq"></path><path d="M141.4 341.45L150.66 338.31L153.64 329.83L156.94 337.84L166.2 341.45L155.84 345.21L153.8 355.57L149.4 344.9L141.4 341.45Z" id="b3S4oOznOh"></path><path d="M168.87 358.87L177.98 356.2L180.8 346.78L184.41 356.83L193.67 359.66L185.04 363.27L181.59 373L177.66 362.01L168.87 358.87Z" id="c64WwaKOMb"></path><path d="M217.69 359.5L227.9 356.52L230.57 345.84L234.8 356.36L242.18 359.5L233.86 362.64L230.41 373.47L226.64 362.95L217.69 359.5Z" id="i1lpPuVzNi"></path><path d="M245.64 341.45L255.06 337.99L258.35 329.36L260.86 337.52L269.97 341.92L261.65 344.43L258.35 356.52L255.84 345.06L245.64 341.45Z" id="d3JXBrN1R"></path><path d="M269.81 379.28L261.33 375.51L257.88 366.25L254.74 375.2L244.85 379.75L254.11 383.05L258.2 392.31L261.33 382.58L269.81 379.28Z" id="j1If0AfiGo"></path></defs><g><g><g><use xlink:href="#d3jIdCrg0w" opacity="1" fill="#9b7647" fill-opacity="1"></use></g><g><use xlink:href="#c9Ti334Eb" opacity="1" fill="#ffcb68" fill-opacity="1"></use></g><g><use xlink:href="#b2DDRDSESv" opacity="1" fill="#ffff9b" fill-opacity="1"></use></g><g><use xlink:href="#d1BRiOzBRT" opacity="1" fill="#fc9bf8" fill-opacity="1"></use></g><g><use xlink:href="#b64FI2gGh9" opacity="1" fill="#95d268" fill-opacity="1"></use></g><g><g><use xlink:href="#bscy78RmX" opacity="1" fill-opacity="0" stroke="#000000" stroke-width="1" stroke-opacity="1"></use></g></g><g><use xlink:href="#g34fp0FGeJ" opacity="1" fill="#9764c8" fill-opacity="1"></use></g><g><use xlink:href="#c5SfGAG7Wc" opacity="1" fill="#fdfe59" fill-opacity="1"></use></g><g><use xlink:href="#akwFCQ0rq" opacity="1" fill="#fdfe59" fill-opacity="1"></use></g><g><use xlink:href="#b3S4oOznOh" opacity="1" fill="#fdfe59" fill-opacity="1"></use></g><g><use xlink:href="#c64WwaKOMb" opacity="1" fill="#fdfe59" fill-opacity="1"></use></g><g><use xlink:href="#i1lpPuVzNi" opacity="1" fill="#fdfe59" fill-opacity="1"></use></g><g><use xlink:href="#d3JXBrN1R" opacity="1" fill="#fdfe59" fill-opacity="1"></use></g><g><use xlink:href="#j1If0AfiGo" opacity="1" fill="#fdfe59" fill-opacity="1"></use></g></g></g></svg>