<?xml version="1.0" encoding="UTF-8" standalone="no"?>
<!DOCTYPE svg PUBLIC "-//W3C//DTD SVG 1.1//EN" "http://www.w3.org/Graphics/SVG/1.1/DTD/svg11.dtd">
<svg version="1.1" xmlns="http://www.w3.org/2000/svg" xmlns:xlink="http://www.w3.org/1999/xlink" preserveAspectRatio="xMidYMid meet" viewBox="26.759652449854734 26.019739178416557 262.5706668193363 262.26941782809155" width="262.57" height="262.27"><defs><path d="M27.22 26.02L289.22 26.02L289.22 288.02L27.22 288.02L27.22 26.02Z" id="c1eJwQadGd"></path><path d="M27.07 157.91L254.43 157.67L251.57 231.17L27.07 231.75L27.07 157.91Z" id="b1ULGRhUEW"></path><path d="M26.76 231.66L289.1 231.28L289.33 288.03L27 288.29L26.76 231.66Z" id="e22LXnyS6o"></path><path d="M254.45 157.5L272.74 157.62L272.85 231.3L251.51 231.19L254.45 157.5Z" id="cujVDUZ6k"></path><path d="M61.68 231.66L75.3 231.77L81.17 287.93L67.32 287.93L61.68 231.66Z" id="a3SYsyyfxg"></path><path d="" id="gHLD5pXuM"></path><path d="M249.02 26.44L249.5 113.16L184.08 157.52L118.17 113.66L118.17 26.44L249.02 26.44Z" id="hgitZghn3"></path><path d="M150.45 104.49L154.49 108.44L151.83 100.64L150.45 104.49Z" id="b3DquRza5"></path><path d="M158.44 123.74L158.84 129.27L162.89 125.02L174.63 130.45L175.13 126.8L172.95 122.56L158.44 123.74Z" id="fsqziRAxv"></path><path d="M158.76 96.54L168.73 96.92L156.29 67.17L177.71 29.85L175.84 50.58L188.97 32.41L183.83 59.86L202.98 48.41L183.24 68.57L211.97 61.46L182.45 77.33L203.48 76.25L190.35 80.3L190.45 81.58L208.71 82.37L190.55 86.02L190.64 87.8L205.06 92.54L199.13 96.19L205.25 97.37L194.49 109.61L239.11 115.73L209.48 133.32L187.37 116.14L180.65 123.44L176.9 117.32L175.22 126.9L172.76 122.56L169.01 110.12L161.7 103.9L153.51 105.68L151.83 100.25L158.76 96.54Z" id="a1QfQA4r2"></path></defs><g><g><g><use xlink:href="#c1eJwQadGd" opacity="1" fill="#9b7647" fill-opacity="1"></use></g><g><use xlink:href="#b1ULGRhUEW" opacity="1" fill="#ffcb68" fill-opacity="1"></use></g><g><use xlink:href="#e22LXnyS6o" opacity="1" fill="#ffff9b" fill-opacity="1"></use></g><g><use xlink:href="#cujVDUZ6k" opacity="1" fill="#fc9bf8" fill-opacity="1"></use></g><g><use xlink:href="#a3SYsyyfxg" opacity="1" fill="#95d268" fill-opacity="1"></use></g><g><g><use xlink:href="#gHLD5pXuM" opacity="1" fill-opacity="0" stroke="#000000" stroke-width="1" stroke-opacity="1"></use></g></g><g><use xlink:href="#hgitZghn3" opacity="1" fill="#6c67cb" fill-opacity="1"></use></g><g><use xlink:href="#b3DquRza5" opacity="1" fill="#ffb82d" fill-opacity="1"></use></g><g><use xlink:href="#fsqziRAxv" opacity="1" fill="#ffb82d" fill-opacity="1"></use></g><g><use xlink:href="#a1QfQA4r2" opacity="1" fill="#ae7c45" fill-opacity="1"></use></g></g></g></svg>