<?xml version="1.0" encoding="UTF-8" standalone="no"?>
<!DOCTYPE svg PUBLIC "-//W3C//DTD SVG 1.1//EN" "http://www.w3.org/Graphics/SVG/1.1/DTD/svg11.dtd">
<svg version="1.1" xmlns="http://www.w3.org/2000/svg" xmlns:xlink="http://www.w3.org/1999/xlink" preserveAspectRatio="xMidYMid meet" viewBox="48.54653256432959 327.7019821690708 262.5706668193363 262.2694178280915" width="262.57" height="262.27"><defs><path d="M49 327.7L311 327.7L311 589.7L49 589.7L49 327.7Z" id="d5hUrYj3V"></path><path d="M48.86 459.59L276.22 459.35L273.35 532.85L48.86 533.43L48.86 459.59Z" id="b2j7T3wo9t"></path><path d="M48.55 533.34L310.89 532.96L311.12 589.72L48.79 589.97L48.55 533.34Z" id="bf1bq69YN"></path><path d="M276.23 459.19L294.52 459.3L294.64 532.99L273.3 532.87L276.23 459.19Z" id="a1BMQhR5nf"></path><path d="M83.47 533.34L97.09 533.45L102.96 589.61L89.11 589.61L83.47 533.34Z" id="a338XV6ZaY"></path><path d="" id="c33U1xQ5w"></path><path d="M270.11 328.19L272.85 459.56L139.56 459.58L139.98 328.19L270.11 328.19Z" id="dGwn8or32"></path><path d="M178.93 413.03L173.95 416.54L168.84 413.81L165.38 415.81L161.54 413.81L159.54 415.27L155.7 412.35L162.09 407.24L145.67 398.48L141.11 382.24L145.85 384.97L140.92 368.92L144.94 372.2L142.38 358.15L147.49 362.16L146.95 345.92L151.51 350.49L151.14 336.98L178.88 376.95L178.93 413.03Z" id="i987rsLZZ"></path><path d="M210.27 336.07L232.53 350.67L232.53 411.07L210.63 425.3L179.06 424.94L178.88 336.25L210.27 336.07Z" id="fCCtVVFaN"></path><path d="M219.21 358.7L219.57 405.78L192.02 412.53L192.02 349.21L219.21 358.7Z" id="b5ULlCbRqq"></path><path d="M165.36 415.86L178.99 407.89L178.99 402.26L161.54 413.74L165.36 415.86Z" id="a43OIOiNHt"></path><path d="M151.52 350.37L178.81 386.66L178.99 376.95L151.1 337.03L151.52 350.37Z" id="aAbPef9Kp"></path><path d="M145.59 398.44L161.73 407.11L172.44 398.06L141.25 382.49L145.59 398.44Z" id="a1Z1JTIxF3"></path><path d="M144.95 372.05L177.02 395.04L179 393.42L179.1 388.11L142.52 358.28L144.95 372.05Z" id="aED700RbF"></path><path d="M232.62 412.9L237.6 416.41L242.71 413.67L246.18 415.68L250.01 413.67L252.02 415.13L255.85 412.21L249.46 407.1L265.89 398.34L270.45 382.1L265.71 384.84L270.63 368.78L266.62 372.06L269.17 358.01L264.06 362.03L264.61 345.78L260.05 350.35L260.41 336.84L232.68 376.81L232.62 412.9Z" id="j3nYHu8umQ"></path><path d="M246.2 415.72L232.56 407.75L232.56 402.12L250.02 413.6L246.2 415.72Z" id="i1YhcmJpI"></path><path d="M260.03 350.23L232.74 386.53L232.57 376.81L260.46 336.89L260.03 350.23Z" id="d22TgHPWxV"></path><path d="M265.97 398.3L249.82 406.97L239.11 397.92L270.31 382.35L265.97 398.3Z" id="a1eWaTibM9"></path><path d="M266.61 371.92L234.54 394.91L232.55 393.29L232.45 387.97L269.04 358.14L266.61 371.92Z" id="eksAe96gZ"></path></defs><g><g><g><use xlink:href="#d5hUrYj3V" opacity="1" fill="#9b7647" fill-opacity="1"></use></g><g><use xlink:href="#b2j7T3wo9t" opacity="1" fill="#ffcb68" fill-opacity="1"></use></g><g><use xlink:href="#bf1bq69YN" opacity="1" fill="#ffff9b" fill-opacity="1"></use></g><g><use xlink:href="#a1BMQhR5nf" opacity="1" fill="#fc9bf8" fill-opacity="1"></use></g><g><use xlink:href="#a338XV6ZaY" opacity="1" fill="#95d268" fill-opacity="1"></use></g><g><g><use xlink:href="#c33U1xQ5w" opacity="1" fill-opacity="0" stroke="#000000" stroke-width="1" stroke-opacity="1"></use></g></g><g><use xlink:href="#dGwn8or32" opacity="1" fill="#7f0200" fill-opacity="1"></use></g><g><use xlink:href="#i987rsLZZ" opacity="1" fill="#f7c702" fill-opacity="1"></use></g><g><use xlink:href="#fCCtVVFaN" opacity="1" fill="#454545" fill-opacity="1"></use></g><g><use xlink:href="#b5ULlCbRqq" opacity="1" fill="#7f0200" fill-opacity="1"></use></g><g><use xlink:href="#a43OIOiNHt" opacity="1" fill="#c9a719" fill-opacity="1"></use></g><g><use xlink:href="#aAbPef9Kp" opacity="1" fill="#c9a719" fill-opacity="1"></use></g><g><use xlink:href="#a1Z1JTIxF3" opacity="1" fill="#c9a719" fill-opacity="1"></use></g><g><use xlink:href="#aED700RbF" opacity="1" fill="#c9a719" fill-opacity="1"></use></g><g><use xlink:href="#j3nYHu8umQ" opacity="1" fill="#f7c702" fill-opacity="1"></use></g><g><use xlink:href="#i1YhcmJpI" opacity="1" fill="#c9a719" fill-opacity="1"></use></g><g><use xlink:href="#d22TgHPWxV" opacity="1" fill="#c9a719" fill-opacity="1"></use></g><g><use xlink:href="#a1eWaTibM9" opacity="1" fill="#c9a719" fill-opacity="1"></use></g><g><use xlink:href="#eksAe96gZ" opacity="1" fill="#c9a719" fill-opacity="1"></use></g></g></g></svg>