<?xml version="1.0" encoding="UTF-8" standalone="no"?>
<!DOCTYPE svg PUBLIC "-//W3C//DTD SVG 1.1//EN" "http://www.w3.org/Graphics/SVG/1.1/DTD/svg11.dtd">
<svg version="1.1" xmlns="http://www.w3.org/2000/svg" xmlns:xlink="http://www.w3.org/1999/xlink" preserveAspectRatio="xMidYMid meet" viewBox="37.23812134937628 36.01973917841656 262.5706668193363 262.26941782809155" width="262.57" height="262.27"><defs><path d="M37.69 36.02L299.69 36.02L299.69 298.02L37.69 298.02L37.69 36.02Z" id="ck4zfR2Zs"></path><path d="M37.55 167.91L264.91 167.67L262.05 241.17L37.55 241.75L37.55 167.91Z" id="aPMFcJvcj"></path><path d="M37.24 241.66L299.58 241.28L299.81 298.03L37.48 298.29L37.24 241.66Z" id="b7jw1KeQW"></path><path d="M264.93 167.5L283.22 167.62L283.33 241.3L261.99 241.19L264.93 167.5Z" id="ivXHjjzVS"></path><path d="M72.16 241.66L85.78 241.77L91.65 297.93L77.8 297.93L72.16 241.66Z" id="d5qdA83ynY"></path><path d="" id="b2kdkD1YD"></path><path d="M258.8 36.5L259.52 123.98L193.86 167.58L127.94 123.72L127.94 36.5L258.8 36.5Z" id="l11muvhAig"></path><path d="M159.21 51.27L184.85 42.91L203.88 51.14L222.42 54.86L220.45 58.21L212.77 59.39L220.25 62.15L201.94 64.31L192.89 68.64L213.87 80.59L239.54 103.29L237.57 124.94L245.65 122.97L244.07 129.67L240.72 130.65L230.88 126.91L220.06 138.53L196.63 145.81L200.57 134.98L206.87 133.6L210.41 126.52L207.06 122.19L173.2 132.42L168.48 124.94L183.83 116.28L189.94 105.65L173.99 99.94L142.3 116.08L136.2 107.03L165.33 89.9L135.21 47.19L138.95 45.61L165.13 69.63L159.21 51.27Z" id="g51Jmnvqmm"></path><path d="M223.05 54.65L220.62 58.16L218.12 54.35L223.05 54.65Z" id="bXPWOQzY"></path><path d="M181.62 47.9L171.9 56.54L203.21 51.68L181.62 47.9Z" id="a1H1V702d2"></path></defs><g><g><g><use xlink:href="#ck4zfR2Zs" opacity="1" fill="#9b7647" fill-opacity="1"></use></g><g><use xlink:href="#aPMFcJvcj" opacity="1" fill="#ffcb68" fill-opacity="1"></use></g><g><use xlink:href="#b7jw1KeQW" opacity="1" fill="#ffff9b" fill-opacity="1"></use></g><g><use xlink:href="#ivXHjjzVS" opacity="1" fill="#fc9bf8" fill-opacity="1"></use></g><g><use xlink:href="#d5qdA83ynY" opacity="1" fill="#95d268" fill-opacity="1"></use></g><g><g><use xlink:href="#b2kdkD1YD" opacity="1" fill-opacity="0" stroke="#000000" stroke-width="1" stroke-opacity="1"></use></g></g><g><use xlink:href="#l11muvhAig" opacity="1" fill="#f8cf11" fill-opacity="1"></use></g><g><use xlink:href="#g51Jmnvqmm" opacity="1" fill="#95978a" fill-opacity="1"></use></g><g><use xlink:href="#bXPWOQzY" opacity="1" fill="#090909" fill-opacity="1"></use></g><g><use xlink:href="#a1H1V702d2" opacity="1" fill="#242424" fill-opacity="1"></use></g></g></g></svg>