<?xml version="1.0" encoding="UTF-8" standalone="no"?>
<!DOCTYPE svg PUBLIC "-//W3C//DTD SVG 1.1//EN" "http://www.w3.org/Graphics/SVG/1.1/DTD/svg11.dtd">
<svg version="1.1" xmlns="http://www.w3.org/2000/svg" xmlns:xlink="http://www.w3.org/1999/xlink" preserveAspectRatio="xMidYMid meet" viewBox="16.759652449854734 16.019739178416557 262.5706668193363 262.26941782809155" width="262.57" height="262.27"><defs><path d="M17.22 16.02L279.22 16.02L279.22 278.02L17.22 278.02L17.22 16.02Z" id="aWJRU2AEA"></path><path d="M17.07 147.91L244.43 147.67L241.57 221.17L17.07 221.75L17.07 147.91Z" id="bKIkyY1V"></path><path d="M16.76 221.66L279.1 221.28L279.33 278.03L17 278.29L16.76 221.66Z" id="b2S2DjVHbn"></path><path d="M244.45 147.5L262.74 147.62L262.85 221.3L241.51 221.19L244.45 147.5Z" id="aKv2yLD1M"></path><path d="M51.68 221.66L65.3 221.77L71.17 277.93L57.32 277.93L51.68 221.66Z" id="a4Qcl51hd2"></path><path d="" id="c1zqKagS50"></path><path d="M239.02 16.44L239.5 103.16L174.08 147.52L108.17 103.66L108.17 16.44L239.02 16.44Z" id="b3bX3I5MTg"></path><path d="M212.79 54.48L214.04 47.46L210.3 47.77L212.79 54.48Z" id="eozxeVkHh"></path><path d="M221.22 56.35L221.22 46.68L217.79 46.99L221.22 56.35Z" id="aIqHgSUUx"></path><path d="M195.1 55.27L193.9 48.93L204.07 48.45L212.2 58.26L195.1 55.27Z" id="b4YUbaOInO"></path><path d="M180.98 34.76L170.58 30.69L149.64 32.72L135.05 43.13L134.21 54.97L140.31 64.66L186.49 82.6L199.4 96.96L191.15 110.35L168.3 114.9L138.52 106.29L127.87 87.99L126.8 104.02L135.89 114.18L168.66 124.35L195.22 115.86L211.37 92.77L193.9 73.87L147.61 54.49L148.09 45.16L166.15 39.54L184.57 46.72L187.08 55.69L211.13 62.03L211.6 58.08L195.1 55.09L194.14 48.99L225.48 46.12L180.98 34.76Z" id="b2ufJSKXQq"></path><path d="M196.92 42.69L203.36 46.99L208.16 44.43L196.92 42.69Z" id="e1XDC9lW5y"></path></defs><g><g><g><use xlink:href="#aWJRU2AEA" opacity="1" fill="#9b7647" fill-opacity="1"></use></g><g><use xlink:href="#bKIkyY1V" opacity="1" fill="#ffcb68" fill-opacity="1"></use></g><g><use xlink:href="#b2S2DjVHbn" opacity="1" fill="#ffff9b" fill-opacity="1"></use></g><g><use xlink:href="#aKv2yLD1M" opacity="1" fill="#fc9bf8" fill-opacity="1"></use></g><g><use xlink:href="#a4Qcl51hd2" opacity="1" fill="#95d268" fill-opacity="1"></use></g><g><g><use xlink:href="#c1zqKagS50" opacity="1" fill-opacity="0" stroke="#000000" stroke-width="1" stroke-opacity="1"></use></g></g><g><use xlink:href="#b3bX3I5MTg" opacity="1" fill="#469f35" fill-opacity="1"></use></g><g><use xlink:href="#eozxeVkHh" opacity="1" fill="#ffffff" fill-opacity="1"></use></g><g><use xlink:href="#aIqHgSUUx" opacity="1" fill="#ffffff" fill-opacity="1"></use></g><g><use xlink:href="#b4YUbaOInO" opacity="1" fill="#e72651" fill-opacity="1"></use></g><g><use xlink:href="#b2ufJSKXQq" opacity="1" fill="#d7d7d7" fill-opacity="1"></use></g><g><use xlink:href="#e1XDC9lW5y" opacity="1" fill="#000000" fill-opacity="1"></use></g></g></g></svg>