<?xml version="1.0" encoding="UTF-8" standalone="no"?>
<!DOCTYPE svg PUBLIC "-//W3C//DTD SVG 1.1//EN" "http://www.w3.org/Graphics/SVG/1.1/DTD/svg11.dtd">
<svg version="1.1" xmlns="http://www.w3.org/2000/svg" xmlns:xlink="http://www.w3.org/1999/xlink" preserveAspectRatio="xMidYMid meet" viewBox="47.238121349376264 46.01973917841656 262.5706668193363 262.26941782809155" width="262.57" height="262.27"><defs><path d="M47.69 46.02L309.69 46.02L309.69 308.02L47.69 308.02L47.69 46.02Z" id="c5xULuJmE"></path><path d="M47.55 177.91L274.91 177.67L272.05 251.17L47.55 251.75L47.55 177.91Z" id="g3fDfxpmW8"></path><path d="M47.24 251.66L309.58 251.28L309.81 308.03L47.48 308.29L47.24 251.66Z" id="d4GT45KV1X"></path><path d="M274.93 177.5L293.22 177.62L293.33 251.3L271.99 251.19L274.93 177.5Z" id="aopMKzgw"></path><path d="M82.16 251.66L95.78 251.77L101.65 307.93L87.8 307.93L82.16 251.66Z" id="c2Zv6v9zWw"></path><path d="" id="c2zhjgrFE"></path><path d="M269.4 46.5L269.88 144.21L204.45 177.58L139.73 143.51L138.54 46.5L269.4 46.5Z" id="l9tDsGvsIl"></path><path d="M196.09 119.6L179.13 102.65L186.2 96.05L205.35 112.54L223.4 96.05L230.31 103.12L213.83 119.6L252.13 153.35L238 160.73L204.41 128.08L171.6 160.42L157.63 152.88L196.09 119.6Z" id="b131hIGwVu"></path><path d="M140.28 97.04L149.23 93.12L152.68 83.54L155.51 92.65L165.71 97.36L156.92 100.02L152.68 109.91L149.23 99.87L140.28 97.04Z" id="acDnt4t5z"></path><path d="M140.28 59.21L149.54 56.07L152.52 47.59L155.82 55.6L165.08 59.21L154.72 62.98L152.68 73.34L148.29 62.66L140.28 59.21Z" id="c13BglxWpY"></path><path d="M167.75 76.63L176.86 73.96L179.68 64.55L183.29 74.59L192.56 77.42L183.92 81.03L180.47 90.76L176.54 79.77L167.75 76.63Z" id="nloN9zBaF"></path><path d="M216.57 77.26L226.78 74.28L229.45 63.6L233.69 74.12L241.06 77.26L232.74 80.4L229.29 91.23L225.52 80.71L216.57 77.26Z" id="e2ERtgxmjK"></path><path d="M244.52 59.21L253.94 55.75L257.23 47.12L259.75 55.28L268.85 59.68L260.53 62.19L257.23 74.28L254.72 62.82L244.52 59.21Z" id="aJ69f5tdX"></path><path d="M268.69 97.04L260.22 93.27L256.76 84.01L253.62 92.96L243.73 97.51L252.99 100.81L257.08 110.07L260.22 100.34L268.69 97.04Z" id="bGLiHiv0l"></path></defs><g><g><g><use xlink:href="#c5xULuJmE" opacity="1" fill="#9b7647" fill-opacity="1"></use></g><g><use xlink:href="#g3fDfxpmW8" opacity="1" fill="#ffcb68" fill-opacity="1"></use></g><g><use xlink:href="#d4GT45KV1X" opacity="1" fill="#ffff9b" fill-opacity="1"></use></g><g><use xlink:href="#aopMKzgw" opacity="1" fill="#fc9bf8" fill-opacity="1"></use></g><g><use xlink:href="#c2Zv6v9zWw" opacity="1" fill="#95d268" fill-opacity="1"></use></g><g><g><use xlink:href="#c2zhjgrFE" opacity="1" fill-opacity="0" stroke="#000000" stroke-width="1" stroke-opacity="1"></use></g></g><g><use xlink:href="#l9tDsGvsIl" opacity="1" fill="#9764c8" fill-opacity="1"></use></g><g><use xlink:href="#b131hIGwVu" opacity="1" fill="#fdfe59" fill-opacity="1"></use></g><g><use xlink:href="#acDnt4t5z" opacity="1" fill="#fdfe59" fill-opacity="1"></use></g><g><use xlink:href="#c13BglxWpY" opacity="1" fill="#fdfe59" fill-opacity="1"></use></g><g><use xlink:href="#nloN9zBaF" opacity="1" fill="#fdfe59" fill-opacity="1"></use></g><g><use xlink:href="#e2ERtgxmjK" opacity="1" fill="#fdfe59" fill-opacity="1"></use></g><g><use xlink:href="#aJ69f5tdX" opacity="1" fill="#fdfe59" fill-opacity="1"></use></g><g><use xlink:href="#bGLiHiv0l" opacity="1" fill="#fdfe59" fill-opacity="1"></use></g></g></g></svg>