<?xml version="1.0" encoding="UTF-8" standalone="no"?>
<!DOCTYPE svg PUBLIC "-//W3C//DTD SVG 1.1//EN" "http://www.w3.org/Graphics/SVG/1.1/DTD/svg11.dtd">
<svg version="1.1" xmlns="http://www.w3.org/2000/svg" xmlns:xlink="http://www.w3.org/1999/xlink" preserveAspectRatio="xMidYMid meet" viewBox="37.23812134937628 36.01973917841656 262.5706668193363 262.26941782809155" width="262.57" height="262.27"><defs><path d="M37.69 36.02L299.69 36.02L299.69 298.02L37.69 298.02L37.69 36.02Z" id="ajOG6RFt7"></path><path d="M37.55 167.91L264.91 167.67L262.05 241.17L37.55 241.75L37.55 167.91Z" id="c186ka3ntv"></path><path d="M37.24 241.66L299.58 241.28L299.81 298.03L37.48 298.29L37.24 241.66Z" id="b1khJNHxjz"></path><path d="M264.93 167.5L283.22 167.62L283.33 241.3L261.99 241.19L264.93 167.5Z" id="akTzsYR04"></path><path d="M72.16 241.66L85.78 241.77L91.65 297.93L77.8 297.93L72.16 241.66Z" id="jwp5vJ7UF"></path><path d="" id="bLSutOKJP"></path><path d="M258.8 36.5L259.29 123.98L193.86 167.58L127.94 123.72L127.94 36.5L258.8 36.5Z" id="a1emVGC5u2"></path><path d="M222.03 82.96L215.8 89.19L216.78 98.04L223.18 100.34L236.13 99.84L234.16 111.98L218.63 114.23L204.82 106.4L204.65 108.04L234.49 127.39L234.32 133.94L213.83 123.94L210.23 136.89L203.18 125.75L194 137.06L180.39 126.73L161.87 136.4L156.46 119.68L150.06 125.25L153.5 99.84L143.67 103.29L150.88 82.8L145.64 82.8L155.8 70.99L149.9 71.32L161.87 57.71L152.69 58.7L177.11 43.45L187.93 46.4L185.31 39.84L206.62 45.25L222.52 59.35L244.32 72.8L244 78.2L237.6 87.39L222.03 82.96Z" id="a5nFpUXZKg"></path><path d="M237.97 69.09L244.24 77.99L244.37 72.72L237.97 69.09Z" id="a5yk9R8fR"></path><path d="M206.02 62.7L205.64 68.96L217.8 70.72L218.68 68.34L206.02 62.7Z" id="eGFuOtOwE"></path><path d="M232.96 93.15L237.72 87.26L233.46 86.26L232.96 93.15Z" id="k27s86rJw"></path><path d="M233.21 95.53L236.22 99.54L232.46 99.67L233.21 95.53Z" id="a9AJeClDa"></path></defs><g><g><g><use xlink:href="#ajOG6RFt7" opacity="1" fill="#9b7647" fill-opacity="1"></use></g><g><use xlink:href="#c186ka3ntv" opacity="1" fill="#ffcb68" fill-opacity="1"></use></g><g><use xlink:href="#b1khJNHxjz" opacity="1" fill="#ffff9b" fill-opacity="1"></use></g><g><use xlink:href="#akTzsYR04" opacity="1" fill="#fc9bf8" fill-opacity="1"></use></g><g><use xlink:href="#jwp5vJ7UF" opacity="1" fill="#95d268" fill-opacity="1"></use></g><g><g><use xlink:href="#bLSutOKJP" opacity="1" fill-opacity="0" stroke="#000000" stroke-width="1" stroke-opacity="1"></use></g></g><g><use xlink:href="#a1emVGC5u2" opacity="1" fill="#bc1031" fill-opacity="1"></use></g><g><use xlink:href="#a5nFpUXZKg" opacity="1" fill="#da9d0f" fill-opacity="1"></use></g><g><use xlink:href="#a5yk9R8fR" opacity="1" fill="#000000" fill-opacity="1"></use></g><g><use xlink:href="#eGFuOtOwE" opacity="1" fill="#000000" fill-opacity="1"></use></g><g><use xlink:href="#k27s86rJw" opacity="1" fill="#ffffff" fill-opacity="1"></use></g><g><use xlink:href="#a9AJeClDa" opacity="1" fill="#ffffff" fill-opacity="1"></use></g></g></g></svg>