<?xml version="1.0" encoding="UTF-8" standalone="no"?>
<!DOCTYPE svg PUBLIC "-//W3C//DTD SVG 1.1//EN" "http://www.w3.org/Graphics/SVG/1.1/DTD/svg11.dtd">
<svg version="1.1" xmlns="http://www.w3.org/2000/svg" xmlns:xlink="http://www.w3.org/1999/xlink" preserveAspectRatio="xMidYMid meet" viewBox="39.591062525846816 319.99032741371093 262.5706668193363 262.2694178280915" width="262.57" height="262.27"><defs><path d="M40.05 319.99L302.05 319.99L302.05 581.99L40.05 581.99L40.05 319.99Z" id="a5QRV3Uxy0"></path><path d="M39.9 451.88L267.26 451.64L264.4 525.14L39.9 525.72L39.9 451.88Z" id="c1Ue3BTyFl"></path><path d="M39.59 525.63L301.94 525.25L302.16 582L39.83 582.26L39.59 525.63Z" id="a3qe0YC5Ll"></path><path d="M267.28 451.47L285.57 451.59L285.68 525.27L264.34 525.16L267.28 451.47Z" id="d7MzJobPJ"></path><path d="M74.51 525.63L88.14 525.74L94 581.9L80.15 581.9L74.51 525.63Z" id="a7aQ3G8GnT"></path><path d="" id="cADcP1kFL"></path><path d="M261.15 320.47L262.85 451.89L130.61 452.37L130.3 320.47L261.15 320.47Z" id="a2HswbgK5"></path><path d="M161.57 335.24L187.21 326.88L206.24 335.11L224.77 338.83L222.8 342.18L215.12 343.36L222.6 346.12L204.3 348.28L195.24 352.61L216.22 364.56L241.9 387.26L239.93 408.91L248 406.94L246.42 413.64L243.08 414.62L233.23 410.88L222.41 422.5L198.98 429.78L202.92 418.95L209.22 417.57L212.76 410.49L209.42 406.16L175.56 416.39L170.83 408.91L186.19 400.25L192.29 389.62L176.35 383.91L144.65 400.05L138.55 391L167.68 373.87L137.57 331.16L141.31 329.58L167.49 353.6L161.57 335.24Z" id="aKFrlI5ho"></path><path d="M225.4 338.62L222.97 342.13L220.47 338.32L225.4 338.62Z" id="a15C4QoAoZ"></path><path d="M183.97 331.87L174.25 340.51L205.56 335.65L183.97 331.87Z" id="i3uvQmvpT0"></path></defs><g><g><g><use xlink:href="#a5QRV3Uxy0" opacity="1" fill="#9b7647" fill-opacity="1"></use></g><g><use xlink:href="#c1Ue3BTyFl" opacity="1" fill="#ffcb68" fill-opacity="1"></use></g><g><use xlink:href="#a3qe0YC5Ll" opacity="1" fill="#ffff9b" fill-opacity="1"></use></g><g><use xlink:href="#d7MzJobPJ" opacity="1" fill="#fc9bf8" fill-opacity="1"></use></g><g><use xlink:href="#a7aQ3G8GnT" opacity="1" fill="#95d268" fill-opacity="1"></use></g><g><g><use xlink:href="#cADcP1kFL" opacity="1" fill-opacity="0" stroke="#000000" stroke-width="1" stroke-opacity="1"></use></g></g><g><use xlink:href="#a2HswbgK5" opacity="1" fill="#f8cf11" fill-opacity="1"></use></g><g><use xlink:href="#aKFrlI5ho" opacity="1" fill="#95978a" fill-opacity="1"></use></g><g><use xlink:href="#a15C4QoAoZ" opacity="1" fill="#090909" fill-opacity="1"></use></g><g><use xlink:href="#i3uvQmvpT0" opacity="1" fill="#242424" fill-opacity="1"></use></g></g></g></svg>