<?xml version="1.0" encoding="UTF-8" standalone="no"?>
<!DOCTYPE svg PUBLIC "-//W3C//DTD SVG 1.1//EN" "http://www.w3.org/Graphics/SVG/1.1/DTD/svg11.dtd">
<svg version="1.1" xmlns="http://www.w3.org/2000/svg" xmlns:xlink="http://www.w3.org/1999/xlink" preserveAspectRatio="xMidYMid meet" viewBox="31.19844249992999 311.32812984731004 262.57066681933634 262.2694178280915" width="262.57" height="262.27"><defs><path d="M31.65 311.33L293.65 311.33L293.65 573.33L31.65 573.33L31.65 311.33Z" id="cb2DYkmpx"></path><path d="M31.51 443.21L258.87 442.98L256.01 516.48L31.51 517.05L31.51 443.21Z" id="c1sOAqocTb"></path><path d="M31.2 516.97L293.54 516.59L293.77 573.34L31.44 573.6L31.2 516.97Z" id="a3o35jLbwW"></path><path d="M258.89 442.81L277.18 442.92L277.29 516.61L255.95 516.5L258.89 442.81Z" id="an53enH6a"></path><path d="M66.12 516.97L79.74 517.08L85.61 573.24L71.76 573.24L66.12 516.97Z" id="iUeqebdGx"></path><path d="" id="aOGYk1Tap"></path><path d="M253.46 311.75L253.97 442.96L122.85 443.27L122.61 311.75L253.46 311.75Z" id="c8or99DKSf"></path><path d="M154.89 389.8L158.93 393.75L156.27 385.95L154.89 389.8Z" id="d36IVIVdxb"></path><path d="M162.88 409.05L163.28 414.58L167.32 410.33L179.07 415.76L179.56 412.11L177.39 407.86L162.88 409.05Z" id="a2SRSdzN76"></path><path d="M163.2 381.85L173.17 382.23L160.73 352.48L182.15 315.16L180.28 335.89L193.4 317.72L188.27 345.16L207.42 333.71L187.68 353.88L216.41 346.77L186.89 362.64L207.92 361.56L194.79 365.6L194.89 366.89L213.15 367.68L194.98 371.33L195.08 373.11L209.5 377.84L203.57 381.5L209.69 382.68L198.93 394.92L243.55 401.04L213.92 418.62L191.81 401.45L185.09 408.75L181.34 402.63L179.66 412.21L177.2 407.86L173.44 395.43L166.14 389.21L157.95 390.98L156.27 385.55L163.2 381.85Z" id="bvZrXxcs"></path></defs><g><g><g><use xlink:href="#cb2DYkmpx" opacity="1" fill="#9b7647" fill-opacity="1"></use></g><g><use xlink:href="#c1sOAqocTb" opacity="1" fill="#ffcb68" fill-opacity="1"></use></g><g><use xlink:href="#a3o35jLbwW" opacity="1" fill="#ffff9b" fill-opacity="1"></use></g><g><use xlink:href="#an53enH6a" opacity="1" fill="#fc9bf8" fill-opacity="1"></use></g><g><use xlink:href="#iUeqebdGx" opacity="1" fill="#95d268" fill-opacity="1"></use></g><g><g><use xlink:href="#aOGYk1Tap" opacity="1" fill-opacity="0" stroke="#000000" stroke-width="1" stroke-opacity="1"></use></g></g><g><use xlink:href="#c8or99DKSf" opacity="1" fill="#6c67cb" fill-opacity="1"></use></g><g><use xlink:href="#d36IVIVdxb" opacity="1" fill="#ffb82d" fill-opacity="1"></use></g><g><use xlink:href="#a2SRSdzN76" opacity="1" fill="#ffb82d" fill-opacity="1"></use></g><g><use xlink:href="#bvZrXxcs" opacity="1" fill="#ae7c45" fill-opacity="1"></use></g></g></g></svg>