<?xml version="1.0" encoding="UTF-8" standalone="no"?>
<!DOCTYPE svg PUBLIC "-//W3C//DTD SVG 1.1//EN" "http://www.w3.org/Graphics/SVG/1.1/DTD/svg11.dtd">
<svg version="1.1" xmlns="http://www.w3.org/2000/svg" xmlns:xlink="http://www.w3.org/1999/xlink" preserveAspectRatio="xMidYMid meet" viewBox="47.23812134937628 46.01973917841656 262.5706668193363 262.26941782809155" width="262.57" height="262.27"><defs><path d="M47.69 46.02L309.69 46.02L309.69 308.02L47.69 308.02L47.69 46.02Z" id="h1OxOGRQTM"></path><path d="M47.55 177.91L274.91 177.67L272.05 251.17L47.55 251.75L47.55 177.91Z" id="e7xu77mo"></path><path d="M47.24 251.66L309.58 251.28L309.81 308.03L47.48 308.29L47.24 251.66Z" id="a2MqvZzYXY"></path><path d="M274.93 177.5L293.22 177.62L293.33 251.3L271.99 251.19L274.93 177.5Z" id="bgB6o1K9A"></path><path d="M82.16 251.66L95.78 251.77L101.65 307.93L87.8 307.93L82.16 251.66Z" id="a2x0iPGen2"></path><path d="" id="guIPyeE"></path><path d="M268.8 46.5L269.81 127.64L261.69 143.08L203.86 177.58L147.68 143.93L138.89 127.15L138.67 46.5L268.8 46.5Z" id="bkhCQElWg"></path><path d="M177.63 131.35L172.64 134.86L167.53 132.12L164.07 134.13L160.24 132.12L158.23 133.58L154.4 130.66L160.78 125.56L144.36 116.8L139.8 100.56L144.54 103.29L139.62 87.23L143.63 90.52L141.08 76.47L146.18 80.48L145.64 64.24L150.2 68.8L149.83 55.3L177.57 95.26L177.63 131.35Z" id="b3vWQYXz8m"></path><path d="M208.96 54.39L231.22 68.99L231.22 129.39L209.32 143.62L177.75 143.26L177.57 54.57L208.96 54.39Z" id="amQyNfHf9"></path><path d="M217.9 77.02L218.26 124.1L190.71 130.85L190.71 67.53L217.9 77.02Z" id="cHoHdkUbl"></path><path d="M164.05 134.17L177.69 126.21L177.69 120.58L160.23 132.06L164.05 134.17Z" id="b4EPisOr57"></path><path d="M150.22 68.69L177.5 104.98L177.68 95.27L149.79 55.35L150.22 68.69Z" id="cvbxTZbu"></path><path d="M144.28 116.75L160.42 125.43L171.13 116.37L139.94 100.81L144.28 116.75Z" id="a5MGABkCJd"></path><path d="M143.64 90.37L175.71 113.36L177.7 111.74L177.8 106.43L141.21 76.6L143.64 90.37Z" id="a56T4XjGUx"></path><path d="M231.31 131.21L236.3 134.72L241.4 131.99L244.87 133.99L248.7 131.99L250.71 133.45L254.54 130.53L248.16 125.42L264.58 116.66L269.14 100.42L264.4 103.15L269.32 87.1L265.31 90.38L267.86 76.33L262.75 80.34L263.3 64.1L258.74 68.66L259.11 55.16L231.37 95.12L231.31 131.21Z" id="b1pptPzLUC"></path><path d="M244.89 134.04L231.25 126.07L231.25 120.44L248.71 131.92L244.89 134.04Z" id="b2JEZH7MnI"></path><path d="M258.72 68.55L231.44 104.84L231.26 95.13L259.15 55.21L258.72 68.55Z" id="cGIZNEfmB"></path><path d="M264.66 116.61L248.52 125.29L237.81 116.24L269 100.67L264.66 116.61Z" id="d4neCvkhm4"></path><path d="M265.3 90.23L233.23 113.22L231.24 111.6L231.14 106.29L267.73 76.46L265.3 90.23Z" id="a5AMJKSleK"></path></defs><g><g><g><use xlink:href="#h1OxOGRQTM" opacity="1" fill="#9b7647" fill-opacity="1"></use></g><g><use xlink:href="#e7xu77mo" opacity="1" fill="#ffcb68" fill-opacity="1"></use></g><g><use xlink:href="#a2MqvZzYXY" opacity="1" fill="#ffff9b" fill-opacity="1"></use></g><g><use xlink:href="#bgB6o1K9A" opacity="1" fill="#fc9bf8" fill-opacity="1"></use></g><g><use xlink:href="#a2x0iPGen2" opacity="1" fill="#95d268" fill-opacity="1"></use></g><g><g><use xlink:href="#guIPyeE" opacity="1" fill-opacity="0" stroke="#000000" stroke-width="1" stroke-opacity="1"></use></g></g><g><use xlink:href="#bkhCQElWg" opacity="1" fill="#7f0200" fill-opacity="1"></use></g><g><use xlink:href="#b3vWQYXz8m" opacity="1" fill="#f7c702" fill-opacity="1"></use></g><g><use xlink:href="#amQyNfHf9" opacity="1" fill="#454545" fill-opacity="1"></use></g><g><use xlink:href="#cHoHdkUbl" opacity="1" fill="#7f0200" fill-opacity="1"></use></g><g><use xlink:href="#b4EPisOr57" opacity="1" fill="#c9a719" fill-opacity="1"></use></g><g><use xlink:href="#cvbxTZbu" opacity="1" fill="#c9a719" fill-opacity="1"></use></g><g><use xlink:href="#a5MGABkCJd" opacity="1" fill="#c9a719" fill-opacity="1"></use></g><g><use xlink:href="#a56T4XjGUx" opacity="1" fill="#c9a719" fill-opacity="1"></use></g><g><use xlink:href="#b1pptPzLUC" opacity="1" fill="#f7c702" fill-opacity="1"></use></g><g><use xlink:href="#b2JEZH7MnI" opacity="1" fill="#c9a719" fill-opacity="1"></use></g><g><use xlink:href="#cGIZNEfmB" opacity="1" fill="#c9a719" fill-opacity="1"></use></g><g><use xlink:href="#d4neCvkhm4" opacity="1" fill="#c9a719" fill-opacity="1"></use></g><g><use xlink:href="#a5AMJKSleK" opacity="1" fill="#c9a719" fill-opacity="1"></use></g></g></g></svg>