<?xml version="1.0" encoding="UTF-8" standalone="no"?>
<!DOCTYPE svg PUBLIC "-//W3C//DTD SVG 1.1//EN" "http://www.w3.org/Graphics/SVG/1.1/DTD/svg11.dtd">
<svg version="1.1" xmlns="http://www.w3.org/2000/svg" xmlns:xlink="http://www.w3.org/1999/xlink" preserveAspectRatio="xMidYMid meet" viewBox="18.9252575453961 288.8859812166331 262.5706668193363 262.2694178280916" width="262.57" height="262.27"><defs><path d="M19.38 288.89L281.38 288.89L281.38 550.89L19.38 550.89L19.38 288.89Z" id="ar6keyDWe"></path><path d="M19.23 420.77L246.6 420.53L243.73 494.04L19.23 494.61L19.23 420.77Z" id="e4vWMkjYyz"></path><path d="M18.93 494.52L281.27 494.14L281.5 550.9L19.16 551.16L18.93 494.52Z" id="d1GJUiyETb"></path><path d="M246.61 420.37L264.9 420.48L265.02 494.17L243.68 494.06L246.61 420.37Z" id="afwP5uLtZ"></path><path d="M53.84 494.52L67.47 494.64L73.34 550.8L59.49 550.8L53.84 494.52Z" id="io5FHuNC5"></path><path d="" id="c58Y4saKeW"></path><path d="M241.19 289.31L243.06 420.11L110.72 420.82L110.33 289.31L241.19 289.31Z" id="g1FqUqKDAG"></path><path d="M214.96 327.34L216.21 320.32L212.46 320.63L214.96 327.34Z" id="bc1AAEh18"></path><path d="M223.38 329.21L223.38 319.54L219.95 319.85L223.38 329.21Z" id="a30Fmiuy4z"></path><path d="M197.26 328.14L196.07 321.8L206.23 321.32L214.37 331.13L197.26 328.14Z" id="c381B9oLoU"></path><path d="M183.15 307.62L172.74 303.56L151.81 305.59L137.22 316L136.38 327.84L142.48 337.53L188.65 355.47L201.57 369.82L193.32 383.22L170.47 387.77L140.68 379.15L130.04 360.85L128.96 376.88L138.05 387.05L170.83 397.22L197.38 388.72L213.53 365.64L196.07 346.74L149.78 327.36L150.25 318.03L168.32 312.41L186.74 319.58L189.25 328.56L213.29 334.9L213.77 330.95L197.26 327.96L196.31 321.86L227.65 318.99L183.15 307.62Z" id="a3FEuss4l7"></path><path d="M199.08 315.56L205.52 319.85L210.33 317.3L199.08 315.56Z" id="b1O5qSA6fV"></path></defs><g><g><g><use xlink:href="#ar6keyDWe" opacity="1" fill="#9b7647" fill-opacity="1"></use></g><g><use xlink:href="#e4vWMkjYyz" opacity="1" fill="#ffcb68" fill-opacity="1"></use></g><g><use xlink:href="#d1GJUiyETb" opacity="1" fill="#ffff9b" fill-opacity="1"></use></g><g><use xlink:href="#afwP5uLtZ" opacity="1" fill="#fc9bf8" fill-opacity="1"></use></g><g><use xlink:href="#io5FHuNC5" opacity="1" fill="#95d268" fill-opacity="1"></use></g><g><g><use xlink:href="#c58Y4saKeW" opacity="1" fill-opacity="0" stroke="#000000" stroke-width="1" stroke-opacity="1"></use></g></g><g><use xlink:href="#g1FqUqKDAG" opacity="1" fill="#469f35" fill-opacity="1"></use></g><g><use xlink:href="#bc1AAEh18" opacity="1" fill="#ffffff" fill-opacity="1"></use></g><g><use xlink:href="#a30Fmiuy4z" opacity="1" fill="#ffffff" fill-opacity="1"></use></g><g><use xlink:href="#c381B9oLoU" opacity="1" fill="#e72651" fill-opacity="1"></use></g><g><use xlink:href="#a3FEuss4l7" opacity="1" fill="#d7d7d7" fill-opacity="1"></use></g><g><use xlink:href="#b1O5qSA6fV" opacity="1" fill="#000000" fill-opacity="1"></use></g></g></g></svg>