<?xml version="1.0" encoding="UTF-8" standalone="no"?>
<!DOCTYPE svg PUBLIC "-//W3C//DTD SVG 1.1//EN" "http://www.w3.org/Graphics/SVG/1.1/DTD/svg11.dtd">
<svg version="1.1" xmlns="http://www.w3.org/2000/svg" xmlns:xlink="http://www.w3.org/1999/xlink" preserveAspectRatio="xMidYMid meet" viewBox="37.23812134937625 314.20155736023514 262.57066681933634 262.2694178280916" width="262.57" height="262.27"><defs><path d="M37.69 314.2L299.69 314.2L299.69 576.2L37.69 576.2L37.69 314.2Z" id="b1U59TC81P"></path><path d="M37.55 446.09L264.91 445.85L262.05 519.35L37.55 519.93L37.55 446.09Z" id="b1apwDGcAw"></path><path d="M37.24 519.84L299.58 519.46L299.81 576.22L37.48 576.47L37.24 519.84Z" id="ahr4y2KFv"></path><path d="M264.93 445.68L283.22 445.8L283.33 519.49L261.99 519.37L264.93 445.68Z" id="a1u4ilZF4y"></path><path d="M72.16 519.84L85.78 519.95L91.65 576.11L77.8 576.11L72.16 519.84Z" id="coHqQ8S99"></path><path d="" id="a37RxKkfwq"></path><path d="M258.8 314.69L259.24 445.9L128.04 446.12L127.94 314.69L258.8 314.69Z" id="bLIa7oL0I"></path><path d="M222.03 361.14L215.8 367.37L216.78 376.22L223.18 378.52L236.13 378.03L234.16 390.16L218.63 392.41L204.82 384.58L204.65 386.22L234.49 405.57L234.32 412.12L213.83 402.12L210.23 415.08L203.18 403.93L194 415.24L180.39 404.91L161.87 414.58L156.46 397.86L150.06 403.44L153.5 378.03L143.67 381.47L150.88 360.98L145.64 360.98L155.8 349.17L149.9 349.5L161.87 335.89L152.69 336.88L177.11 321.63L187.93 324.58L185.31 318.03L206.62 323.44L222.52 337.53L244.32 350.98L244 356.39L237.6 365.57L222.03 361.14Z" id="a2hMHXsyfI"></path><path d="M237.97 347.27L244.24 356.17L244.37 350.9L237.97 347.27Z" id="c6nrCRAGf"></path><path d="M206.02 340.88L205.64 347.15L217.8 348.9L218.68 346.52L206.02 340.88Z" id="aKHcGWyf3"></path><path d="M232.96 371.33L237.72 365.44L233.46 364.44L232.96 371.33Z" id="jyNJEVTi"></path><path d="M233.21 373.71L236.22 377.72L232.46 377.85L233.21 373.71Z" id="b2wkT53XwP"></path></defs><g><g><g><use xlink:href="#b1U59TC81P" opacity="1" fill="#9b7647" fill-opacity="1"></use></g><g><use xlink:href="#b1apwDGcAw" opacity="1" fill="#ffcb68" fill-opacity="1"></use></g><g><use xlink:href="#ahr4y2KFv" opacity="1" fill="#ffff9b" fill-opacity="1"></use></g><g><use xlink:href="#a1u4ilZF4y" opacity="1" fill="#fc9bf8" fill-opacity="1"></use></g><g><use xlink:href="#coHqQ8S99" opacity="1" fill="#95d268" fill-opacity="1"></use></g><g><g><use xlink:href="#a37RxKkfwq" opacity="1" fill-opacity="0" stroke="#000000" stroke-width="1" stroke-opacity="1"></use></g></g><g><use xlink:href="#bLIa7oL0I" opacity="1" fill="#bc1031" fill-opacity="1"></use></g><g><use xlink:href="#a2hMHXsyfI" opacity="1" fill="#da9d0f" fill-opacity="1"></use></g><g><use xlink:href="#c6nrCRAGf" opacity="1" fill="#000000" fill-opacity="1"></use></g><g><use xlink:href="#aKHcGWyf3" opacity="1" fill="#000000" fill-opacity="1"></use></g><g><use xlink:href="#jyNJEVTi" opacity="1" fill="#ffffff" fill-opacity="1"></use></g><g><use xlink:href="#b2wkT53XwP" opacity="1" fill="#ffffff" fill-opacity="1"></use></g></g></g></svg>