<svg xmlns="http://www.w3.org/2000/svg" xmlns:xlink="http://www.w3.org/1999/xlink" width="262" height="262" viewBox="173.79 172.4 262 262">
  <defs>
    <path id="a" d="M435.79 172.4h-262v262h262v-262Z"/>
    <path id="b" d="M435.79 434.4h-262v-45.46h262v45.46Z"/>
    <path id="c" d="m187.91 388.94.72-49.11h119.76v49.11H187.91Z"/>
    <path id="d" d="m274.04 380.76 2.67-16.91-7.29-13.34-14.42-4.8-14.76 5.51-6.77 14.24 3.03 15.3 10.68 8.18h15.65l11.21-8.18Z"/>
    <path id="e" d="m195.4 350.87-1.78 4.27 8.72 11.56 4.62-.53v-6.23l-11.56-9.07Z"/>
    <path id="f" d="M308.39 339.83v-13.06l-43.74-1.16-.66-9.37h-12.68l-1 9.37h-61.74v14.45l119.82-.23Z"/>
    <path id="g" d="m227.25 325.95-6.59-3.73-10.85-.54-6.76 4.27-1.07 10.86 7.3 8.36 11.38.54 8.19-10.15-1.6-9.61Z"/>
    <path id="h" d="m211.84 328.59-2.43 2.76.55 3.97 2.32 2.64h6.39l2.32-3.09v-3.74l-3.2-2.54h-5.95Z"/>
    <path id="i" d="m267.62 330.68.66 5.74h11.36l-.44-5.96-11.58.22Z"/>
    <path id="j" d="M248.66 329.69v6.73h12.24v-5.96l-12.24-.77Z"/>
    <path id="k" d="M270.92 298h-25.8l-.55 18.24h26.13l.22-18.24Z"/>
    <path id="l" d="M308.39 351.49h18.27v-18.05l11.69 2.72 22.38 1.44-.33 51.34h-33.29l-.45-11.1h-18.27v-26.35Z"/>
    <path id="m" d="m326.52 333.44-16.81-7.04-17.58-15.68-12.01-31.32 4.66-42.01 26.02-29.22 29.22-11.58 31.09 3.2 32.07 22.06 15.58 31.97v27.06l-15.92 35.36-42.11 21.36-22.38-1.18-11.83-2.98Z"/>
    <path id="n" d="m363.13 277.76-11.69 8.27-18.19-4.63-1.99-19.18 11.91-10.26 17.56 5.51 2.4 20.29Z"/>
  </defs>
  <use xlink:href="#a" fill="#9b7647"/>
  <use xlink:href="#b" fill="#fb92fb"/>
  <use xlink:href="#c" fill="#a9a18e"/>
  <use xlink:href="#d" fill="#202020"/>
  <use xlink:href="#e" fill="#b2b3ae"/>
  <use xlink:href="#f" fill="#6c6c6c"/>
  <use xlink:href="#g" fill="#b2b3ae"/>
  <use xlink:href="#h" fill="#202020"/>
  <use xlink:href="#i" fill="#202020"/>
  <use xlink:href="#j" fill="#202020"/>
  <use xlink:href="#k" fill="#202020"/>
  <use xlink:href="#l" fill="#202020"/>
  <use xlink:href="#m" fill="#6c6c6c"/>
  <use xlink:href="#n" fill="#a4a4a4"/>
</svg>
