<svg xmlns="http://www.w3.org/2000/svg" xmlns:xlink="http://www.w3.org/1999/xlink" width="262" height="262" viewBox="175.731 160.17 262 262">
  <defs>
    <path id="a" d="M175.73 160.17h262v262h-262v-262Z"/>
    <path id="b" d="m260.07 242.51 7.81-15.84 23.45-24.3 32.38 28.15 11.89 81.64-15.45 9.66-45.11 1.34-15.11-10 .14-70.65Z"/>
    <path id="c" d="m274.26 249.28-7.17 1.65-6.31 5.14v-3.27l5.87-6.04 7.76-2.06 7.93 2.06-4.31 4.83-3.77-2.31Z"/>
    <path id="d" d="m306.15 240.37 10.6 1.72 8.57 6.73.8 3.98-10.96-7.16-7.05-.55-3.3 4.1-4.41-3.55 5.75-5.27Z"/>
    <path id="e" d="m285.64 255.25 2.08 2.15.49 4.96-5.26.24-3.19-4.1 2.76-3.43 3.12.18Z"/>
    <path id="f" d="m303.09 255.07 2.51 2.88-1.71 4.04h-4.84l-1.65-3.15 2.14-4.32 3.55.55Z"/>
    <path id="g" d="m260.56 288.43 7.41-9 11.79-3.25 37.75 1.96 7.9 12.62-4.35 8.14-10.6-9.06-30.06-1.71-15.5 6.3-4.34-6Z"/>
    <path id="h" d="m268.95 299.52 16.78 4.22 35.02-5.08-10.41-8.82-29.94-1.78-15.5 6.25 4.05 5.21Z"/>
    <path id="i" d="M258.97 421.27h20.56l-4.52-98.11-15.31-10.21-.73 108.32Z"/>
    <path id="j" d="m259.93 312.95.63-132.19-20.1 16.41 3.65 171.9 8.05 52.2h6.81l.96-108.32Z"/>
    <path id="k" d="m221.7 221.91 2.93-13.92 15.83-10.73 3.67 171.62-22.43-146.97Z"/>
    <path id="l" d="m233.93 301.25-1.13-7.86 9.57-.27.3 9.48-8.74-1.35Z"/>
    <path id="m" d="M252.22 421.27h-29.46l-5.19-179.21 4.13-20.22 30.52 199.43Z"/>
    <path id="n" d="M222.76 421.27h-12.78l1.97-150.89 5.62-28.22 5.19 179.11Z"/>
    <path id="o" d="m260.44 180.9 23.55-12.18h12.31l-36.37 74.18.51-62Z"/>
    <path id="p" d="m315.59 177.56-1.5-9.82-17.79.98-28.5 58.06 47.79-49.22Z"/>
    <path id="q" d="m315.59 177.56 8.23 53.12-32.49-28.2 24.26-24.92Z"/>
    <path id="r" d="m323.67 230.48 27.86 190.79h6.93l-17.11-208.63-6.14-27.66-21.12-17.14 9.58 62.64Z"/>
    <path id="s" d="M340.94 349.22h11.57l-.93-10.37-11.98 1.82 1.34 8.55Z"/>
    <path id="t" d="M351.58 421.27h-35.29l3.88-99.5 15.43-9.69 15.98 109.19Z"/>
    <path id="u" d="m341.34 212.74 22.9 91.53 2.88 117h-8.78l-17-208.53Z"/>
    <path id="v" d="m364.24 304.27 28.43 117h-25.55l-2.88-117Z"/>
    <path id="w" d="m341.34 213.02-6.13-28.04 30.41 24.84 7.15 16.72 24.27 194.73h-4.37l-51.33-208.25Z"/>
    <path id="x" d="m388.32 263.2-15.58-36.51 24.3 194.58-8.72-158.07Z"/>
    <path id="y" d="m325.94 246.36 18.09.23-1.24-14.62-18.75 1.48 1.9 12.91Z"/>
  </defs>
  <use xlink:href="#a" fill="#9b7647"/>
  <use xlink:href="#b" fill="#c39c83"/>
  <use xlink:href="#c" fill="#000000"/>
  <use xlink:href="#d" fill="#000000"/>
  <use xlink:href="#e" fill="#582f1d"/>
  <use xlink:href="#f" fill="#582f1d"/>
  <use xlink:href="#g" fill="#000000"/>
  <use xlink:href="#h" fill="#ff99cb"/>
  <use xlink:href="#i" fill="#211612"/>
  <use xlink:href="#j" fill="#271915"/>
  <use xlink:href="#k" fill="#000000"/>
  <use xlink:href="#l" fill="#ffd500"/>
  <use xlink:href="#m" fill="#41302a"/>
  <use xlink:href="#n" fill="#000000"/>
  <use xlink:href="#o" fill="#17100b"/>
  <use xlink:href="#p" fill="#1e1711"/>
  <use xlink:href="#q" fill="#271915"/>
  <use xlink:href="#r" fill="#211815"/>
  <use xlink:href="#s" fill="#1311cf"/>
  <use xlink:href="#t" fill="#211612"/>
  <use xlink:href="#u" fill="#281e1c"/>
  <use xlink:href="#v" fill="#000000"/>
  <use xlink:href="#w" fill="#291a16"/>
  <use xlink:href="#x" fill="#582f1d"/>
  <use xlink:href="#y" fill="#c50000"/>
</svg>
