<svg xmlns="http://www.w3.org/2000/svg" xmlns:xlink="http://www.w3.org/1999/xlink" width="262" height="262" viewBox="152.061 155.521 262 262">
  <defs>
    <path id="a" d="M152.06 155.52h262v262h-262v-262Z"/>
    <path id="b" d="m338.89 203.97-7.76-10.1-13.86-7.06-24.45-5.4-16.22 2.35-25.62 8.69-16.89 15.75-14.14 25.86-1.17 26.09 14.34 33.62 14.1 14.8 8.23 3.53 83.44-108.13Z"/>
    <path id="c" d="m278.83 346.89 18.93 12.46L320 368.4h22.42l26.09-9.05 16.92-10.58 14.81-20.92 11.05-24.92-2.12-37.14-5.64-19.04-9.4-13.87-18.33-16.45-16.22-7.99-21.39-5.41-35.5 5.41-20.45 8.93-15.28 18.1-10.34 18.1-4.93 17.39-.71 25.16 10.34 34.55 17.51 16.22Z"/>
    <path id="d" d="m228.88 284.29-41.23 21.91-17.81 21.1.82 15.07 15.34 3.29h42.2l79.17-34.25 2.47 20.55-64.66 29.86-43.29 6.58-33.97-10.96-9.59-16.72.82-25.75 19.46-24.38 44.65-18.91 5.62 12.61Z"/>
  </defs>
  <use xlink:href="#a" fill="#9b7647"/>
  <use xlink:href="#b" fill="#c64b87"/>
  <use xlink:href="#c" fill="#d78da7"/>
  <use xlink:href="#d" fill="#41281c"/>
</svg>
