<svg xmlns="http://www.w3.org/2000/svg" xmlns:xlink="http://www.w3.org/1999/xlink" width="262" height="262" viewBox="174.038 170.967 262 262">
  <defs>
    <path id="a" d="M174.04 170.97h262v262h-262v-262Z"/>
    <path id="b" d="m365.13 363.62 63.64-.57 7.27 69.92h-68.63l-2.28-69.35Z"/>
    <path id="c" d="m365.13 363.05-6.67 63.35h8.95l-2.28-63.35Z"/>
    <path id="d" d="m400.08 385.78 22.87 20.31 3.26 6.53v7.82L419.4 422l-18.81-6.11-17.98 6.11-5.69-1.56-1.27-7.82 3.12-6.53 21.31-20.31Z"/>
    <path id="e" d="m382.75 380.1-3.41-3.13-2.56 1.56-1.85 5.4.72 10.23 4.26 3.12 4.26-7.1-1.42-10.08Z"/>
    <path id="f" d="m388.15 375.69.85-5.11 2.84-2.98 3.83 2.41 1.42 9.52-3.12 7.6-4.97-3.77-.85-7.67"/>
    <path id="g" d="m406.04 387.91 4.69-.78 2.13-5.04-.43-9.52-2.84-4.12-3.55 1.28-1.99 7.24 1.99 10.94Z"/>
    <path id="h" d="m416.84 391.6 1.99-9.09 3.83-1.42 2.42 3.41.71 7.81-1.28 5.4-4.26 2.98-3.41-9.09Z"/>
    <path id="i" d="m199.21 432.97.45-251.08h153.16v251.08H199.21Z"/>
    <path id="j" d="M199.95 181.89h-10.46v251.08h9.72l.74-251.08Z"/>
    <path id="k" d="m217.04 337.93 2.84 13.92 8.42 14.86 7.39 32.1-5.12 3.84-1.27 4.97 4.54 1.84-.71 4.27 8.81 2.41 5.11-4.4 11.36-43.04 12.08-.86v6.68l8.1 10.65 9.94 8.1v4.74l-2.13 4.64-4.41 1.84-1.56 3.98 14.21 2.41 1.56-22.58-7.67-7.53.71-13.64 16.76 20 6.02 3.3v13.07l-6.02 4.12v3.26h16.34l-4.07-26.7-5.88-5.54-.37-26.08 6.25-.71 15.06-10.23 3.12-12.07-2.69-10.94-7.96 14.63-11.08 8.38-10.79-.57-10.09-7.81-32.53-6.96-5.82-5.25-4.4-.57-1-6.39 9.09 1.13 5.83-1.84.71-2.99-2.7.71-7.53-2.41 11.5-1.85 3.98-3.41-.25-6.53-10.69-5.4-4.97-7.1 2.56-3.69v-2.7l-12.22 4.12v-10.52h-2.98l-10.08 22.45-12.79 20.34-2.51 23.55Z"/>
    <path id="l" d="m243.88 379.26-1.27 10.37-1.71-5.68.71-14.77 2.27 10.08Z"/>
    <path id="m" d="m250.76 291.28 2.91.68.81-1.62-2.84-1.02-.88 1.96Z"/>
    <path id="n" d="M262.11 311.13v-3.17l-1.69 2.36 1.69.81Z"/>
    <path id="o" d="m265.75 310.46-1.01-3.24-1.48 3.91 2.49-.67Z"/>
  </defs>
  <use xlink:href="#a" fill="#9b7647"/>
  <use xlink:href="#b" fill="#ffe0b0"/>
  <use xlink:href="#c" fill="#e0c49c"/>
  <use xlink:href="#d" fill="#b9b9b9"/>
  <use xlink:href="#e" fill="#b9b9b9"/>
  <use xlink:href="#f" fill="#b9b9b9"/>
  <use xlink:href="#g" fill="#b9b9b9"/>
  <use xlink:href="#h" fill="#b9b9b9"/>
  <use xlink:href="#i" fill="#a3e8ff"/>
  <use xlink:href="#j" fill="#b3b3b3"/>
  <use xlink:href="#k" fill="#b9b9b9"/>
  <use xlink:href="#l" fill="#a3e8ff"/>
  <use xlink:href="#m" fill="#f7ffa3"/>
  <use xlink:href="#n" fill="#dbdbdb"/>
  <use xlink:href="#o" fill="#dbdbdb"/>
</svg>
