<svg xmlns="http://www.w3.org/2000/svg" xmlns:xlink="http://www.w3.org/1999/xlink" width="262.3" height="262" viewBox="187.094 168.113 262.303 262">
  <defs>
    <path id="a" d="M187.4 168.11h262v262h-262v-262Z"/>
    <path id="b" d="M187.4 168.11h34.69l-.93 174.53-33.76.4V168.11Z"/>
    <path id="c" d="M222.09 178.86h28.29l.47 163.76h-29.71l.95-163.76Z"/>
    <path id="d" d="m187.09 343.04 150.21-1.17v25.07H187.4l-.31-23.9Z"/>
    <path id="e" d="M193.3 366.94h135.39v24.95H192.83l.47-24.95Z"/>
    <path id="f" d="m187.4 391.64 243.84-.47v38.94H187.4v-38.47Z"/>
    <path id="g" d="m187.68 208.6 34.41 8.84V205.3l-34.41-9.67v12.97Z"/>
    <path id="h" d="M221.48 290.34h29.12v-9.79h-29.12v9.79Z"/>
    <path id="i" d="M214.26 366.94h11.44l-11.8-24.32h-11.43l11.79 24.32Z"/>
    <path id="j" d="M295.01 366.94h10.26L316 341.87h-11.44l-9.55 25.07Z"/>
    <path id="k" d="M243.95 366.94h12.86v24.95h-13.45l.59-24.95Z"/>
    <path id="l" d="m277.45 391.89-27.37 37.92-29.11-38.21 56.48.29Z"/>
    <path id="m" d="m410.12 379.82-2.6 11.68-30.07-6.96v-7.78l1.07-4.84 31.6 7.9Z"/>
    <path id="n" d="m416.95 179.19 30.89 7.67-37.72 192.96-31.13-7.54 37.96-193.09Z"/>
    <path id="o" d="m448.98 175.43-1.14 11.46-31.12-7.7 2.42-11.08 29.84 7.32Z"/>
    <path id="p" d="m276.5 248.12-1.44-17.02 9.28-12.92 8.96-4.64 8.28-.34 11.98 7.11 7.25 15.32-10.5 27.63-10.94 10.61-3.42 2.98-5.09-.77-1.32-1.22-11.6-23.09-1.44-3.65Z"/>
    <path id="q" d="m276.28 247.79-1.22-16.91 3.76-4.97 8.29.89 1.65 5.63-2.32 3.98-3.86-1.77-2.54 3.65 1.98 6.07-4.19 7.3-1.55-3.87Z"/>
    <path id="r" d="m307.44 252.32-.77 2.54-3.87-3.87 1.99-1.65 2.65 2.98Z"/>
    <path id="s" d="m299.68 273.71-.27-4.29 3.39 1.12-3.12 3.17Z"/>
    <path id="t" d="m342.1 246.2 8.2-1.82 2.4-4.89-1.83-5.93 6.44-5.35 2.79 3.7-4.21 13.38 8.54-12.92-6.84-8.6-14.18 2.9-6.72 13.33 5.41 6.2Z"/>
    <path id="u" d="m336.64 240.05 21.09-16.28-12.55 15.54-12.7 14.87v-6.67l4.16-7.46Z"/>
    <path id="v" d="m327.78 262.25 4.72-14.65.16 6.34 12.35-14.45-11.28 24.25v2.28l-8.53 17.05-21.92 13.56 24.5-34.38Z"/>
    <path id="w" d="m340.7 290.34 12.8-1.46 9.71 66.3-5.65-.77-15.63-54.46-10.7 10.21-17.83-2.59 27.3-17.23Z"/>
    <path id="x" d="m276.37 248.11 13.27 26.94 1.25 1.02-4 21.26 6.63 5.37 41.3-25.85 6.13-.55 3.76 6.01 5.88 66.21 6.76 5.89 24.41 2.24-4.31 20.65v-6.63l-14.09.75-13.77 12.64-7.01-.87-7.26-93.76-23.4 17.95-30.01-4.68-15.3-7.39-.5-38.29 4.26-11.14-2.51-6.13h8.15l.36 8.36Z"/>
    <path id="y" d="m270.47 245.63-4.12 11.26.27 38.39 15.29 7.41 47.16 7.11 8.6 6.43v2.17l-3.07.89 3.46 2.37v3.46l-7.71-2.27 7.96 5.43.44 7.41-7.01 2.47-8.8.99-.29-3.66 4.84.2-28.66-17.78-41.5-11.52-3.06-23.2.34-28.04 4.51-15.4 8.64-.26 2.71 6.14Z"/>
    <path id="z" d="m251.7 263.99 2.57 18.47.4-26.97-2.97 8.5Z"/>
    <path id="A" d="m265.24 326.77 11.16 13.53 11.07.2 11.56-22.53-38.27-10.57 4.48 19.37Z"/>
  </defs>
  <use xlink:href="#a" fill="#9b7647"/>
  <use xlink:href="#b" fill="#0002fc"/>
  <use xlink:href="#c" fill="#ffcc01"/>
  <use xlink:href="#d" fill="#00cd00"/>
  <use xlink:href="#e" fill="#000000"/>
  <use xlink:href="#f" fill="#993300"/>
  <use xlink:href="#g" fill="#000080"/>
  <use xlink:href="#h" fill="#ff9901"/>
  <use xlink:href="#i" fill="#339965"/>
  <use xlink:href="#j" fill="#339965"/>
  <use xlink:href="#k" fill="#808080"/>
  <use xlink:href="#l" fill="#ffcc01"/>
  <use xlink:href="#m" fill="#c95efc"/>
  <use xlink:href="#n" fill="#670398"/>
  <use xlink:href="#o" fill="#c95efc"/>
  <use xlink:href="#p" fill="#d7b899"/>
  <use xlink:href="#q" fill="#c8a68c"/>
  <use xlink:href="#r" fill="#202020"/>
  <use xlink:href="#s" fill="#c8a68c"/>
  <use xlink:href="#t" fill="#ae947b"/>
  <use xlink:href="#u" fill="#d7b899"/>
  <use xlink:href="#v" fill="#c8a68c"/>
  <use xlink:href="#w" fill="#c8a68c"/>
  <use xlink:href="#x" fill="#b4997f"/>
  <use xlink:href="#y" fill="#d7b899"/>
  <use xlink:href="#z" fill="#b4997f"/>
  <use xlink:href="#A" fill="#b4997f"/>
</svg>
