<svg xmlns="http://www.w3.org/2000/svg" xmlns:xlink="http://www.w3.org/1999/xlink" width="262" height="262" viewBox="336.755 27.292 262 262">
  <defs>
    <path id="a" d="M336.75 27.29h262v262h-262v-262Z"/>
    <path id="b" d="m344.83 275.32 5.91 8.1 13.35 5.87h88.4l14.44-5.65 5.8-7.99.44-21.66-129-2.96.66 24.29Z"/>
    <path id="c" d="m344 158.7 5.14-13.78 10.51-6.75h98.36l10.06 6.75 5.47 14.11.44 32.28-130.2-.33.22-32.28Z"/>
    <path id="d" d="m364.54 124.8 4.7-8.43h78.88l4.82 7.22v14.58h-88.4V124.8Z"/>
    <path id="e" d="m473.98 190.98-.81 63.29-129-3.24-.39-60.05h130.2Z"/>
    <path id="f" d="m473.75 223.09-65.43 28.88-64.15-29.34 64.5-31.32 65.08 31.78Z"/>
    <path id="g" d="m408.67 248.91 58.73-25.6-58.44-28.12-58.63 27.87 58.34 25.85Z"/>
    <path id="h" d="m408.67 245.52 53.26-21.77-53.26-24.51-52.97 24.51 52.97 21.77Z"/>
    <path id="i" d="m408.88 242.24 44.19-18.71-44.37-20.02-44.47 20.02 44.65 18.71Z"/>
    <path id="j" d="M402.74 206.13v14.22H415v-14.22l6.45 3.28v27.41l-7.11 3.01v-12.91h-11.6v12.91l-6.89-3.01v-27.95l6.89-2.74Z"/>
    <path id="k" d="M481.33 161.24h117.42v128.05H481.33V161.24Z"/>
    <path id="l" d="m481.33 225.27 65.18-2.64 6.61-61.39h5.91l-5.91 60.81 45.63-2.47v6.61l-46.57 2.12-5.67 60.98h-7.08l6.37-60.98-64.47 2.6v-5.64Z"/>
    <path id="m" d="m598.75 121.14-42.38-72.66-65.55 37.97 43.2 74.79h5.33l59.4-35.72v-4.38Z"/>
    <path id="n" d="m564.15 80.39-12.78 24.35 1.74 1.84 34.1-5.27-1.21-1.97-31.93 4.87L571.5 75.3l-7.35 5.09Z"/>
    <path id="o" d="m554.02 104.21 31.99-4.88-1.72-2.92-27.13 5.19 16.11-24.17-1.53-2.55-17.72 29.33Z"/>
    <path id="p" d="m521.72 68.45 19.97 24.23 28.83-19.89 1.36 2.27-28.13 20.27 34.86 42.35-3.58 2.29-34.66-42-30.21 21.88-1.96-3.12 30.41-21.4-20.27-24.97 3.38-1.91Z"/>
    <path id="q" d="m557 101.79 27.28-5.31-1.41-2.6-21.43 5.2 13.27-19.16-1.47-2.49L557 101.79Z"/>
    <path id="r" d="m582.93 93.97-21.69 5.11 13.48-19.16 8.21 14.05Z"/>
  </defs>
  <use xlink:href="#a" fill="#9b7647"/>
  <use xlink:href="#b" fill="#d0b89a"/>
  <use xlink:href="#c" fill="#d0b89a"/>
  <use xlink:href="#d" fill="#b6b6b6"/>
  <use xlink:href="#e" fill="#d2b4be"/>
  <use xlink:href="#f" fill="#f904fc"/>
  <use xlink:href="#g" fill="#02fd02"/>
  <use xlink:href="#h" fill="#f904fc"/>
  <use xlink:href="#i" fill="#fc98ca"/>
  <use xlink:href="#j" fill="#02fd02"/>
  <use xlink:href="#k" fill="#eec472"/>
  <use xlink:href="#l" fill="#c08211"/>
  <use xlink:href="#m" fill="#eec472"/>
  <use xlink:href="#n" fill="#ec06ea"/>
  <use xlink:href="#o" fill="#09f60d"/>
  <use xlink:href="#p" fill="#ca921c"/>
  <use xlink:href="#q" fill="#ec06ea"/>
  <use xlink:href="#r" fill="#fd98ca"/>
</svg>
