<svg xmlns="http://www.w3.org/2000/svg" xmlns:xlink="http://www.w3.org/1999/xlink" width="262" height="262.44" viewBox="194.936 108.954 262 262.439">
  <defs>
    <path id="a" d="M194.94 108.95h262v262h-262v-262Z"/>
    <path id="b" d="m431.65 370.95 9.61-13.37V188.67l-5.77-21.15-14.1-7.37-191.35-1.93-13.14 9.3-5.13 21.15-1.92 166.67 10.26 15.61h211.54Z"/>
    <path id="c" d="M407.37 160.67v-28.66l-12.97-12.88H258.57l-13.14 12.88v27.08l161.94 1.58Z"/>
    <path id="d" d="m234.54 352.5 43.49-11.23-25.49-19.79-42.07 17.65-.62 16.22 10.43 15.6h24.77l-10.51-18.45Z"/>
    <path id="e" d="m288.9 371.39 25.89-20.85 12.44 6.82.71 13.59-39.04.44Z"/>
    <path id="f" d="m289.44 371.39 25.75-20.32-25.75-13.01 14.26-3.57-20.86-25.84-10.69 5.17-4.86 19.25 10.74 8.2-43.85 11.01 10.7 18.67 44.56.44Z"/>
    <path id="g" d="M354.31 341.78h5.18l14.01-26.68-46.65 13.06 1.09 43.23 36.5-.44-10.13-29.17Z"/>
    <path id="h" d="m326.66 328.16-37.76 9.71 38.69 19.95-.93-29.66Z"/>
    <path id="i" d="m350.33 322.18-47.21 12.37-15.28-19.45 62.49 7.08Z"/>
    <path id="j" d="m374.52 315.1-24.19 7.09-62.49-7.09-4.85-5.99 34.48-14.26 57.05 20.25Z"/>
    <path id="k" d="M374.52 315.1c20.39-5.56 33.13-9.03 38.23-10.42a1.93 1.93 0 0 1 1.6.27c3.59 2.44 12.56 8.56 26.91 18.34v34.53l-9.31 13.13H395.1l-20.58-55.85Z"/>
    <path id="l" d="m441.26 339.19-39.77.83-6.24 30.93h-30.61l-10.55-29.24h5.5l14.27-26.61 67.4 24.09Z"/>
    <path id="m" d="m441.26 244.02-114.88 47.64-114.91-47.64 114.47-45.63 115.32 45.63Z"/>
    <path id="n" d="m427.83 245.02-101.47 41.55-101.62-42 100.82-40.36 102.27 40.81Z"/>
    <path id="o" d="m421.47 245.02-95.11 38.1-95.26-37.73 95.26-37 95.11 36.63Z"/>
    <path id="p" d="m325.94 279.3 88.62-34.28-88.62-33.9-87.56 33.9 87.56 34.28Z"/>
    <path id="q" d="M254.13 238.85v2.87h4.49v-4.83l4.03-1.27-.35 18.76-3.68-1.38v-7.79l-4.49.54-.34 4.95-3.23-1.27v-9.48l3.57-1.1Z"/>
    <path id="r" d="m275.19 230.91-.5 27.84-9.63-3.45v-20.6l10.13-3.79Z"/>
    <path id="s" d="M272.31 239.19v12.55h-3.68v-12.55h3.68Z"/>
    <path id="t" d="M281.06 261.75v-12.09l3.45 13.35 4.14 1.58-.46-38.98-3.68 1.38v12.2l-4.49-10.24-2.64 1.04-.58 29.8 4.26 1.96Z"/>
    <path id="u" d="m313.74 216.41 3.8 8.51 3.22-11.5 5.53-2.3 17.37 6.78.46 54.43-18.18 6.56.35-57.19-5.53 12.2v43.5l-7.02-2.99.81-40.51-5.64-11.51-.69 7.02-10.36 2.19v6.56l9.21 6.33-8.4 5.63v8.29l9.09 2.07-.69 10.93-15.19-5.64v-41.54l21.86-7.82Z"/>
    <path id="v" d="m338.48 226.76-.34 35.33-5.64 3.11v-41.31l5.98 2.87Z"/>
    <path id="w" d="m352.46 221.32.46 37.17 4.95-1.84v-33.14l3.8 1.26.34 40.43-14.5 5.83-.8-52.13 5.75 2.42Z"/>
    <path id="x" d="m367.88 227.19.81 11.74 8.17-8.02v6.87l-5.76 5.64 5.76 5.52v10.59l-7.48-8.86v11.5l-4.03 1.61-.34-37.51 2.87.92Z"/>
    <path id="y" d="M388.88 235.2v3.57h-5.63l-.35 4.14 5.98 1.38-5.98 3.34v4.72l5.98-2.19v4.83l-9.2 3.34-.46-26.7 9.66 3.57Z"/>
    <path id="z" d="m395.67 240.84 8.29 6.33v1.49l-11.74 5.07v-5.07l6.33-.69-6.33-6.44V239l2.42-1.5 9.32 3.34v2.3l-8.29-2.3Z"/>
  </defs>
  <use xlink:href="#a" fill="#9b7647"/>
  <use xlink:href="#b" fill="#ebe1d5"/>
  <use xlink:href="#c" fill="#b6b6b6"/>
  <use xlink:href="#d" fill="#f9f965"/>
  <use xlink:href="#e" fill="#fdfdb5"/>
  <use xlink:href="#f" fill="#eced30"/>
  <use xlink:href="#g" fill="#f6f52b"/>
  <use xlink:href="#h" fill="#f7f516"/>
  <use xlink:href="#i" fill="#f8f876"/>
  <use xlink:href="#j" fill="#f8f955"/>
  <use xlink:href="#k" fill="#f8f873"/>
  <use xlink:href="#l" fill="#f5f349"/>
  <use xlink:href="#m" fill="#c64469"/>
  <use xlink:href="#n" fill="#4da05a"/>
  <use xlink:href="#o" fill="#c64469"/>
  <use xlink:href="#p" fill="#f699c9"/>
  <use xlink:href="#q" fill="#4da05a"/>
  <use xlink:href="#r" fill="#4da05a"/>
  <use xlink:href="#s" fill="#f699c9"/>
  <use xlink:href="#t" fill="#4da05a"/>
  <use xlink:href="#u" fill="#4da05a"/>
  <use xlink:href="#v" fill="#f699c9"/>
  <use xlink:href="#w" fill="#4da05a"/>
  <use xlink:href="#x" fill="#4da05a"/>
  <use xlink:href="#y" fill="#4da05a"/>
  <use xlink:href="#z" fill="#4da05a"/>
</svg>
