<svg xmlns="http://www.w3.org/2000/svg" xmlns:xlink="http://www.w3.org/1999/xlink" width="262.35" height="262" viewBox="178.436 141.514 262.354 262">
  <defs>
    <path id="a" d="M178.44 141.51h262v262h-262v-262Z"/>
    <path id="b" d="m197.71 365.08 242.73.54v37.89H197.3l.41-38.43Z"/>
    <path id="c" d="m198.85 313.19 241.59-.41v53.01l-242.53-.4.94-52.2Z"/>
    <path id="d" d="m217.52 269.56 222.92-.81.35 44.03-223.81.59.54-43.81Z"/>
    <path id="e" d="m178.44 241.71 216.61 1.21.54 25.83-217.15 2.05v-29.09Z"/>
    <path id="f" d="m331.78 243.77 66.47 87.73-41.08 19.2 3.8 15.09-121.65 13.7-7.37-143.52 86.92-33.71 64.92 40.89-52.01.62Z"/>
    <path id="g" d="m239.09 379.49-2-36.83 15.17-2.9-.67 38.62-12.5 1.11Z"/>
    <path id="h" d="m284.18 333.29-5.13 41.52-4.91.67-7.59-38.62 17.63-3.57Z"/>
    <path id="i" d="m335.3 323.47 14.95 43.52-23.66 2.91-2.67-44.65 11.38-1.78Z"/>
    <path id="j" d="m374.14 342.89-22.55-32.82-4.91 1.12 10.27 39.51 17.19-7.81Z"/>
    <path id="k" d="m398.25 331.5-24.11-31.25-8.26 3.8 15.85 35.24 16.52-7.79Z"/>
    <path id="l" d="m308.5 328.58 11.2 41.83-21.51 2.5-3.83-41.53 14.14-2.8Z"/>
    <path id="m" d="m234.19 277.92 97.94-21.67-5.9-26.34-94.28 11.34v-5.16l86.77-33.83 7.51 26.91 10.46-15.61 26.81 16.35-8.59 14.03h-22.34l18.99 25.92-13.88 5.3 2.5 10.02-104.86 21.94-1.13-29.2Z"/>
  </defs>
  <use xlink:href="#a" fill="#9b7647"/>
  <use xlink:href="#b" fill="#d9c5ac"/>
  <use xlink:href="#c" fill="#9e92d0"/>
  <use xlink:href="#d" fill="#34f2e5"/>
  <use xlink:href="#e" fill="#20fa17"/>
  <use xlink:href="#f" fill="#882c1d"/>
  <use xlink:href="#g" fill="#e5c04d"/>
  <use xlink:href="#h" fill="#e5c04d"/>
  <use xlink:href="#i" fill="#e5c04d"/>
  <use xlink:href="#j" fill="#e5c04d"/>
  <use xlink:href="#k" fill="#e5c04d"/>
  <use xlink:href="#l" fill="#e5c04d"/>
  <use xlink:href="#m" fill="#e5c04d"/>
</svg>
