<svg xmlns="http://www.w3.org/2000/svg" xmlns:xlink="http://www.w3.org/1999/xlink" width="262" height="262" viewBox="167.569 139.097 262 262">
  <defs>
    <path id="a" d="M167.57 139.1h262v262h-262v-262Z"/>
    <path id="b" d="m167.57 154.69 33.49-.35-.39 246.76h-33.1V154.69Z"/>
    <path id="c" d="m201.06 172.4 29.8-.35.47 229.05h-30.66l.39-228.7Z"/>
    <path id="d" d="m384.42 180.35 45.15.59V401.1h-45.15V180.35Z"/>
    <path id="e" d="m235.85 349.08 8.15-122.3 10.69-6.33h88.4l10.15 6.33 8.51 122.3-11.28 5.25-103.61.66-11.01-5.91Z"/>
    <path id="f" d="m396.65 234.2-11.92 45.09 25.35-35.86 19.14 13.31-9.44-27.33 9.11-11.57-12.03 2.57L407 194.6l-7.78 28.5-14.49 2.34 11.92 8.76Z"/>
    <path id="g" d="m353.06 226.37 1.26-6.37-.36-32.76-5.07-14.13-13.77-15.22-19.2-8.88-22.28-1.81-17.94 3.26-16.48 10.15-9.42 11.95-7.25 19.32v28.57l1.09 5.92h109.42Z"/>
    <path id="h" d="m342.73 220.45 5.25-10.93v-19.56l-6.88-17.91-15.22-13.25-20.11-6.53h-14.85l-20.65 6.53-15.4 15.03-6.16 15.58.72 20.11 5.44 10.93h87.86Z"/>
    <path id="i" d="m253.94 236.16 4.82-4.55h80.61l4.55 4.55 6.55 108.16H246.86l7.08-108.16Z"/>
    <path id="j" d="M201.06 190.42v18.7l-33.24 12.15v-19.05l33.24-11.8Z"/>
    <path id="k" d="M201.06 220.45v17.99l-33.24 15.3v-21.38l33.24-11.91Z"/>
    <path id="l" d="m201.06 229.89 29.94-9.93v-11.1l-29.94-8.65v29.68Z"/>
    <path id="m" d="m256.71 383.59 20.8 5.63 42.49-.31 20.25-6.03 6.39-7.69 9.41 6.78v6.61l-8.06 5.48-25.16 6.29h-49.84l-23.55-6.29-7.9-5.48v-6.61l8.38-6.78 6.79 8.4Z"/>
    <path id="n" d="m256.7 383.74 20.48 5.48h42.42l20.32-5.96 6.94-8.07-.81-19.35-18.71 7.42h-56.77l-18.87-8.07-1.94 20 6.94 8.55Z"/>
    <path id="o" d="M270.67 363.3h56.66l18.69-7.28v-3.68l-11.33-8.02h-13.22v5.94l-8.78 4.63-29.18-.66-7.36-3.68v-6.23h-13.51l-10.86 7.64v3.52l18.89 7.82Z"/>
    <path id="p" d="m276.15 350.64 7.08 3.87 29.37.48 8.97-4.63v-6.04l-45.61.18.19 6.14Z"/>
    <path id="q" d="m316.64 253.81 18.99 33.97-.67 29.4-15.91 27.14h-40.37l-16.45-27.14.4-31.55 18.32-31.82h35.69Z"/>
    <path id="r" d="M306.35 344.32V300.2h-14.84v44.12h14.84Z"/>
    <path id="s" d="m301 300.2 4.15-8.16-6.58-20.99-6.26 20.19 4.15 8.96H301Z"/>
    <path id="t" d="m276.4 344.32-15.9-26.07v-33.29l19.25-31.15h2.14l-18.59 33.35v30.49l15.91 26.67h-2.81Z"/>
    <path id="u" d="M334.29 287.5v29.54l-15.77 27.28h2.67l15.37-26.07.54-31.67-18.18-32.77h-3.48l18.85 33.69Z"/>
    <path id="v" d="m253.41 247.31 7.62-9.76h76.07l7.75 12.7-12.43 3.56-67.38-.48-11.63-3.08v-2.94Z"/>
    <path id="w" d="m337.1 237.55-5.48-5.89.4-11.66-66.31.4v11.26l-4.81 5.89h76.2Z"/>
    <path id="x" d="M331.48 220 320 208.19l-1.08-5.88 4.01-.41 4.28-3.34-10.43-6.68h-35.43l-11.5 6.68 4.95 3.34h3.07v6.29l-12.29 12.56 65.9-.75Z"/>
  </defs>
  <use xlink:href="#a" fill="#9b7647"/>
  <use xlink:href="#b" fill="#99cdff"/>
  <use xlink:href="#c" fill="#feff01"/>
  <use xlink:href="#d" fill="#0001fe"/>
  <use xlink:href="#e" fill="#c9a851"/>
  <use xlink:href="#f" fill="#ffde00"/>
  <use xlink:href="#g" fill="#000000"/>
  <use xlink:href="#h" fill="#9b7647"/>
  <use xlink:href="#i" fill="#9b7647"/>
  <use xlink:href="#j" fill="#993365"/>
  <use xlink:href="#k" fill="#993365"/>
  <use xlink:href="#l" fill="#ffcb9a"/>
  <use xlink:href="#m" fill="#784a00"/>
  <use xlink:href="#n" fill="#bf7f02"/>
  <use xlink:href="#o" fill="#784a00"/>
  <use xlink:href="#p" fill="#000000"/>
  <use xlink:href="#q" fill="#feff99"/>
  <use xlink:href="#r" fill="#bdb497"/>
  <use xlink:href="#s" fill="#fd9800"/>
  <use xlink:href="#t" fill="#bfbfbf"/>
  <use xlink:href="#u" fill="#bfbfbf"/>
  <use xlink:href="#v" fill="#784a00"/>
  <use xlink:href="#w" fill="#bf7f02"/>
  <use xlink:href="#x" fill="#784a00"/>
  <use xlink:href="#y" fill-opacity="0" stroke="#000000"/>
</svg>
