<svg xmlns="http://www.w3.org/2000/svg" xmlns:xlink="http://www.w3.org/1999/xlink" width="262" height="262" viewBox="158.652 148.819 262 262">
  <defs>
    <path id="a" d="M158.65 148.82h262v262h-262v-262Z"/>
    <path id="b" d="m184.22 283.85 4.67 16.41 12.1 12.32.64 6.22-3.61 4.18-11.89 7.86-9.34 14.22-6.16 24.42-11.46 14.86v4.46l1.27 1.48 17.41-12.52-1.06 9.13-6.16 16.13 4.25 4.46 2.97-1.49 12.53-24.62 2.97 1.06-5.73 26.32 2.76 1.07 3.61-2.34 10.4-23.78 4.67 1.7-4.67 25.42h6.37l7.64-25.42h4.04l-4.04 22.08 2.98 2.34 3.82-4.89 5.73-24.63-.64-2.54 5.74-11.26 1.69-17.83-3.61-10.33-20.59-16.78v-2.76l7.01-4.88 17.19-7.22 6.59-9.98 2.54-17.83-2.54-11.04 2.54-3.61v-24.63l-3.11-5.46-2.83 1.64-1.7 22.08-5.1-1.06v-23.99l-3.18-3.4h-2.34l-2.97 25.48-5.09-1.06-2.98-24.42-2.54-2.33-4.25-1.28v27.18h-4.46l-4.67-25.9-3.18-2.98-4.46 3.61 1.48 15.08-1.48 11.04-13.17-17.2-2.12.64-.85 5.52 6.8 16.98-.43 24.07Z"/>
    <path id="c" d="m204.18 302.11 9.13 3.82 9.98-1.28 10.19-4.88 5.09-8.7.85-8.28-4.46-11.26-8.49-6.37-14.65-1.69-8.81 4.45-5.63 7.43-1.27 9.13 1.27 9.56 6.8 8.07Z"/>
    <path id="d" d="m191.65 339.15-3.61 9.55-1.48 8.28 3.18 8.71 7.64 7.43 14.23 1.7 10.83-3.4 7-9.77 1.7-8.49-2.76-9.55-7.64-7.65-10.62-3.82-10.61 1.28-7.86 5.73Z"/>
    <path id="e" d="M246.4 148.82h174.25v262H246.4v-262Z"/>
    <path id="f" d="M246.85 387.66h173.8v17.79H246.4l.45-17.79Z"/>
    <path id="g" d="M265.16 333.89h145.8v45.6l-145.8-.38v-45.22Z"/>
    <path id="h" d="M265.52 302.19h81.41v28.2h-81.77l.36-28.2Z"/>
    <path id="i" d="M352.27 215.69h58.85v114.7h-59.49l.64-114.7Z"/>
    <path id="j" d="m269.4 236.63 8.97-11.03 11.28-6.92 8.98-2.69h14.87l12.95 5.25 10 7.7 6.54 9.48 3.94 10.77v13.46l-2.4 9.62-7.05 11.15-11.67 10.26-14.61 3.97-11.42.52-10.89-3.47-10.52-6.79-7.43-8.59-5.39-13.85v-18.33l3.85-10.51Z"/>
    <path id="k" d="m255.55 153.29 11.29.26 7.05 9.87v23.71l-3.34 5.13-3.71 2.57 13.59 9.61h6.41l3.71-3.07 2.18 3.07-9.74 6.41h-3.59l-15.51-13.46h-6.93l-5.38-5.13-2.82-6.41-.39-24.87 7.18-7.69Z"/>
    <path id="l" d="M263.12 162.52v21.41l-1.67 1.54h-2.31l-1.53-2.69.38-17.06 1.79-4.1 3.34.9Z"/>
    <path id="m" d="m283.25 159.44 1.02 25.52 2.05.89 2.05-2.43.9-23.98 6.54.26v29.1l-5.38 3.59h-10l-3.72-3.59v-29.1l6.54-.26Z"/>
    <path id="n" d="M307.09 159.44v32.95h-8.2v-32.95h8.2Z"/>
    <path id="o" d="m325.3 159.83 4.36 5.13v6.92l-3.21 4.04 3.21 3.91v8.33l-3.21 4.23-16.28-.26v-32.69l15.13.39Z"/>
    <path id="p" d="m320.81 166.24 1.41 2.18-1.02 3.84-4.11.39v-6.41h3.72Z"/>
    <path id="q" d="m320.81 179.19 1.8 2.05-.77 4.87h-4.36l-.39-6.92h3.72Z"/>
    <path id="r" d="m347.48 159.44 4.74 5.13v7.44l-3.2 3.33 3.2 4.36v8.59l-3.59 4.1h-15.9v-32.95h14.75Z"/>
    <path id="s" d="m343.5 166.24 1.67 2.18-1.15 3.84-4.62.39v-6.41h4.1Z"/>
    <path id="t" d="m343.63 179.7 1.15 1.28-.38 4.87h-4.1l-.52-6.66 3.85.51Z"/>
    <path id="u" d="m362.32 159.44.39 25.95h10.64v7h-18.08v-32.95h7.05Z"/>
    <path id="v" d="M392.71 159.44v6.34h-8.85l-.64 5.77h4.23l.64 5.76-4.87.39-.77 6.92h10.26v7.77H376.3l-1.03-32.95h17.44Z"/>
    <path id="w" d="m404.25 192.39-.39-13.92 4.1.72v13.2h7.57v-11.74l-3.21-5.13 3.72-3.33.39-7.44-4.11-5.31h-16.28v32.95h8.21Z"/>
    <path id="x" d="M407.71 166.8v4.1l-4.23 1.75v-5.46l2.05-1.67 2.18 1.28Z"/>
  </defs>
  <use xlink:href="#a" fill="#9b7647"/>
  <use xlink:href="#b" fill="#fcc4ff"/>
  <use xlink:href="#c" fill="#b9efe6"/>
  <use xlink:href="#d" fill="#b9efe6"/>
  <use xlink:href="#e" fill="#c4d6ff"/>
  <use xlink:href="#f" fill="#f7ffc4"/>
  <use xlink:href="#g" fill="#c5ffe7"/>
  <use xlink:href="#h" fill="#d9c9ff"/>
  <use xlink:href="#i" fill="#ffe3c6"/>
  <use xlink:href="#j" fill="#ffc5fb"/>
  <use xlink:href="#k" fill="#c4fffc"/>
  <use xlink:href="#l" fill="#c4d7fe"/>
  <use xlink:href="#m" fill="#c4fffc"/>
  <use xlink:href="#n" fill="#c4fffc"/>
  <use xlink:href="#o" fill="#c4fffc"/>
  <use xlink:href="#p" fill="#c4d7fe"/>
  <use xlink:href="#q" fill="#c4d7fe"/>
  <use xlink:href="#r" fill="#c4fffc"/>
  <use xlink:href="#s" fill="#c4d7fe"/>
  <use xlink:href="#t" fill="#c4d7fe"/>
  <use xlink:href="#u" fill="#c4fffc"/>
  <use xlink:href="#v" fill="#c4fffc"/>
  <use xlink:href="#w" fill="#c4fffc"/>
  <use xlink:href="#x" fill="#c4d7fe"/>
</svg>
