<svg xmlns="http://www.w3.org/2000/svg" xmlns:xlink="http://www.w3.org/1999/xlink" width="262" height="262" viewBox="20.37 108.077 262 262">
  <defs>
    <path id="a" d="M20.37 108.08h262v262h-262v-262Z"/>
    <path id="b" d="m61.12 221.84 9.43-16.17-5.93 1.35 8.09-11.32-11.59 4.04 13.48-16.71 1.08-7.28-25.88 7.28 15.9-12.4-5.66-3.23h-7.01l11.59-7.01-9.43-11.86 18.33 10.51 15.13-16.17h3.2l11.05-13.21-2.43-7.01 11.59-7.28 16.45 19.41 6.73-2.96 4.59-14.29 7.01 17.25 19.4-20.48 13.21 28.57h14.02l14.82 11.32 27.22 14.28h-11.86l13.21 10.79 10.24 29.38-6.73-2.97 4.85 23.99-15.37-11.05v4.85l12.4 18.06-12.4-4.58 1.35 15.9 19.14 35.85-6.47-2.15 12.67 19.67-6.2 9.71 9.9 26.53-19.87-7.94 16.17 34.51L225 348.53l-1.35 19.41-20.75-26.15-9.43 27.23-17.79-31-16.18 31-14.82-32.89-15.1 29.11-13.74-27.22-23.18 31-8.36-11.32-2.69 11.32H71.9v-20.49l-9.97 19.41-3.77-26.15 9.97-16.98v-84.37l-7.01-18.6Z"/>
    <path id="c" d="m116.49 143.11 8.11 18.75-6.25 7.94-9.97-2.71-6.08-10.98 10.48-13h3.71Z"/>
    <path id="d" d="m170.21 157.63 10.64 8.62 10.47-10.81-3.54-12.33h-8.79l-8.78 14.52Z"/>
    <path id="e" d="m184.15 219.43 15.54-11.55-1.09-25.82-28.39-24.58-46.02 4.38-23.11 32.67 4.78 16.93L123.19 227l2.19-5.98 58.77-1.59Z"/>
    <path id="f" d="m113.45 183.95 6.36-10.42 8.81-.75 6.66 8.91-2.47 5.05-9.88 1.72-9.48-4.51Z"/>
    <path id="g" d="m130.23 187.49 2.9-4.4-4.19-5.69h-4.83l-3.65 5.69 2.9 5.37 6.87-.97Z"/>
    <path id="h" d="m126.26 179.76 3.33 3.55-3.87 3.22-2.47-3.6 3.01-3.17Z"/>
    <path id="i" d="m186.29 176.9-11.71-12.24h-6.34l-4.51 5.58v7.16l2.26 4.55 8.05 2.9 12.25-7.95Z"/>
    <path id="j" d="m170.21 183.46 5.55-2.04 1.29-6.02-2.58-3.22-5.04-.65-4.3 4.51 2.15 6.45 2.93.97Z"/>
    <path id="k" d="m171.09 180.34 3.49-3.76-2.9-2.15-3.33 2.47 2.74 3.44Z"/>
    <path id="l" d="m167.81 195.92 9.56 8.96 7.2 15.2-4.3 6.34-50.68 4.94-4.63-10.09 5.05-15.9 8.48-9.99 29.32.54Z"/>
    <path id="m" d="m151.37 204.51.65 15.25-5.26 9.67 17.4-1.4-7.62-6.87V202.9l3.65-5.7 7.73-1.18 4.63-.96-4.63-9.03-6.55-5.69-19.55 1.08-6.23 4.61-2.46 8.27 11.59 2.26 6.65 7.95Z"/>
    <path id="n" d="m180.15 226.33 10.2 7.14 3.88 6.63-1.23 22.45-11.02 25.41-14.38 12.96h-20.51l-18.98-14.59L115.35 255l3.37-12.04 10.71-11.6 50.72-5.03Z"/>
    <path id="o" d="M102.13 192.84c5.77-3.19 15.34-2.01 28.7 3.53"/>
    <path id="p" d="M101.11 202.87c8.5-5.4 17.69-4.98 27.56 1.25"/>
    <path id="q" d="M99.63 212.2c9.64-7.36 18.98-6.72 28.02 1.94"/>
    <path id="r" d="M202.13 183.39c-9.26-.46-18.64 2.47-28.13 8.77"/>
    <path id="s" d="M202.13 191.1c-8.35-1.55-17.35 1.24-26.99 8.35"/>
    <path id="t" d="M207.49 196.94c-10.25-1.14-19.4 2.17-27.45 9.91"/>
    <path id="u" d="M122.06 164.19c-11.54-7.44-12.52-6.11-2.96 3.99"/>
    <path id="v" d="M178.67 162.6c10.59-15.83-2.7-9.14-4.67-3.53"/>
    <path id="w" d="m139.32 117-14.77 47.59-8.64-21.55"/>
    <path id="x" d="m127.94 154.86 38.4-41.58 13.46 29.76"/>
    <path id="y" d="m130.24 152.34 43.31 1.31-26.68-18.92"/>
    <path id="z" d="m106.39 140.31-6.76-17.95 28.64 12.37"/>
    <path id="A" d="m128.27 150.7-16.08-18.49-7.44 16.08-20.24 3.39 17.06-21.88"/>
    <path id="B" d="m94.79 151.25-10.94 14.11 18.71-9.19"/>
    <path id="C" d="M69.25 166.93 55.14 149.1l33.92 20.57"/>
    <path id="D" d="m63.35 161.02-11.27 7.44 29.65-2.51"/>
    <path id="E" d="m71.33 175.03-10.83-6.57"/>
    <path id="F" d="m105.8 164.59-55.69 17.88 14.55-10.73"/>
    <path id="G" d="m71.33 197.67-12.03 3.29 22.87-28.01"/>
    <path id="H" d="m100.11 167.92-15.1 36.2-2.19-31.17"/>
    <path id="I" d="m76.26 226.67 5.91-25.05-20.03 6.34 20.68-21.66"/>
    <path id="J" d="m70.35 206.85-3.45 33.23 33.21-45.3-1.31-20.68"/>
    <path id="K" d="m79.98 251.13-10.94 28.43-.43-39.43-7.78-17.56 8.21-15.48"/>
    <path id="L" d="m110.83 220.06-4.7 17.5-11.6-33.81"/>
    <path id="M" d="m102.41 230.89-24.73 7 17.4-30.8"/>
    <path id="N" d="m98.47 254.41 7.98 19.26 11.71-29.33 11.27-12.58-4.7-8.64-15.98 33.37-20.24-20.68 2.63 23.3-23.42-17.61"/>
    <path id="O" d="m100.76 263.38-16.63 26.91-6.89-30.41"/>
    <path id="P" d="M87.31 296.75 66.9 310.86l13.08-34.57"/>
    <path id="Q" d="m101.09 285.7-9.08 22.76-6.12-18.71"/>
    <path id="R" d="m118.27 268.19-7.44 22.1-14.77-16.84"/>
    <path id="S" d="m108.53 305.39-7.77-24.83"/>
    <path id="T" d="m136.54 295.19-30.3 14.23 18.59-26.59"/>
    <path id="U" d="m104.38 295.74-5.8 28.12-21.99-18.47"/>
    <path id="V" d="m78.99 334.91-17.1 32.92-3.16-25.73 17.86-34.65"/>
    <path id="W" d="m88.62 318.39 5.36 32.94-20.68-25.06"/>
    <path id="X" d="M72.81 368.01v-16.85"/>
    <path id="Y" d="m81.01 368.48 3.06-9.19"/>
    <path id="Z" d="m114.6 337.2-21.78 30.97-18.49-21.56"/>
    <path id="aa" d="m143.26 338.22-13.67 26.47-27.25-53.61"/>
    <path id="ab" d="m109.74 330.78-16.25 2.3 9.9-15.1"/>
    <path id="ac" d="m127.85 300.71 4.71 39.94-18.12-34.14"/>
    <path id="ad" d="m150.94 312.95-1.75 23.65-18.6-21.55"/>
    <path id="ae" d="M160 367.92 137.13 320"/>
    <path id="af" d="m172.38 317.12-10.61 24.4-14.88-39.38"/>
    <path id="ag" d="m193.06 311.11-17.39 29.21-4.16-41.03"/>
    <path id="ah" d="m201.03 344.37-8 23.14-15.18-27.89"/>
    <path id="ai" d="m192.55 338.45-6.68 10.5-3.58-17.39"/>
    <path id="aj" d="m217.17 320.68-18.49 23.46-13.79-15.98"/>
    <path id="ak" d="m227.78 318.86-4.16 47.41-19.95-24.63"/>
    <path id="al" d="m227.34 349.83 29.43 19.7L223.84 310"/>
    <path id="am" d="m228.11 330.79-8.43 22.54-9.52-22.87"/>
    <path id="an" d="m213.23 312.95-13.02 23.09-8.32-42.01"/>
    <path id="ao" d="m245.82 305.96 13.54 35.52-19.04-8.76"/>
    <path id="ap" d="m222.08 255.64 34.46 50.98-25.16-2.62"/>
    <path id="aq" d="m224.92 300.17-5.03 25.38-13.02-26.92"/>
    <path id="ar" d="m201.03 285.07-21.29 19.25 14.22-41.24"/>
    <path id="as" d="m216.39 264.5-12.26 41.46-6.12-35.33"/>
    <path id="at" d="m235.86 276.64-6.56 31.73-16.3-28.81"/>
    <path id="au" d="m204.9 250.47-11.6 25.38 1.64-37.75"/>
    <path id="av" d="m212.56 202.45 10.83 69.79-31.07-37.53"/>
    <path id="aw" d="m221.42 236.41 27.6 50.57"/>
    <path id="ax" d="m215.08 204.03 27.46 38.29-20.37-11.13"/>
    <path id="ay" d="m211.79 200.75-.54 42.45-17.18-29.98"/>
    <path id="az" d="m231.27 185.72 5.25 29.32-26.04-14.88"/>
    <path id="aA" d="m234.22 182.55 10.83 45.73-22.32-14.66"/>
    <path id="aB" d="m235.92 179.59-17.89 18.6 6.24-28.66 13.45 10.06 9.74 29.11"/>
    <path id="aC" d="m199.1 206.62 20.9-13.57-18.71-7.77"/>
    <path id="aD" d="m192.65 168.43 8.64 17.73 13.79-15.32"/>
    <path id="aE" d="m188.07 144.19 47.47 24.02-52.82.22"/>
  </defs>
  <use xlink:href="#a" fill="#9b7647"/>
  <use xlink:href="#b" fill="#9e5b2b"/>
  <use xlink:href="#c" fill="#7d3317"/>
  <use xlink:href="#d" fill="#7d3317"/>
  <use xlink:href="#e" fill="#e8b45e"/>
  <use xlink:href="#f" fill="#4f1507"/>
  <use xlink:href="#g" fill="#c88d59"/>
  <use xlink:href="#h" fill="#370c10"/>
  <use xlink:href="#i" fill="#4f1507"/>
  <use xlink:href="#j" fill="#c88d59"/>
  <use xlink:href="#k" fill="#370c10"/>
  <use xlink:href="#l" fill="#80341b"/>
  <use xlink:href="#m" fill="#390d0b"/>
  <use xlink:href="#n" fill="#c79b82"/>
  <g fill-opacity="0" stroke="#633604">
    <use xlink:href="#o"/>
    <use xlink:href="#p"/>
    <use xlink:href="#q"/>
    <use xlink:href="#r"/>
    <use xlink:href="#s"/>
    <use xlink:href="#t"/>
    <use xlink:href="#u"/>
    <use xlink:href="#v"/>
    <use xlink:href="#w"/>
    <use xlink:href="#x"/>
    <use xlink:href="#y"/>
    <use xlink:href="#z"/>
    <use xlink:href="#A"/>
    <use xlink:href="#B"/>
    <use xlink:href="#C"/>
    <use xlink:href="#D"/>
    <use xlink:href="#E"/>
    <use xlink:href="#F"/>
    <use xlink:href="#G"/>
    <use xlink:href="#H"/>
    <use xlink:href="#I"/>
    <use xlink:href="#J"/>
    <use xlink:href="#K"/>
    <use xlink:href="#L"/>
    <use xlink:href="#M"/>
    <use xlink:href="#N"/>
    <use xlink:href="#O"/>
    <use xlink:href="#P"/>
    <use xlink:href="#Q"/>
    <use xlink:href="#R"/>
    <use xlink:href="#S"/>
    <use xlink:href="#T"/>
    <use xlink:href="#U"/>
    <use xlink:href="#V"/>
    <use xlink:href="#W"/>
    <use xlink:href="#X"/>
    <use xlink:href="#Y"/>
    <use xlink:href="#Z"/>
    <use xlink:href="#aa"/>
    <use xlink:href="#ab"/>
    <use xlink:href="#ac"/>
    <use xlink:href="#ad"/>
    <use xlink:href="#ae"/>
    <use xlink:href="#af"/>
    <use xlink:href="#ag"/>
    <use xlink:href="#ah"/>
    <use xlink:href="#ai"/>
    <use xlink:href="#aj"/>
    <use xlink:href="#ak"/>
    <use xlink:href="#al"/>
    <use xlink:href="#am"/>
    <use xlink:href="#an"/>
    <use xlink:href="#ao"/>
    <use xlink:href="#ap"/>
    <use xlink:href="#aq"/>
    <use xlink:href="#ar"/>
    <use xlink:href="#as"/>
    <use xlink:href="#at"/>
    <use xlink:href="#au"/>
    <use xlink:href="#av"/>
    <use xlink:href="#aw"/>
    <use xlink:href="#ax"/>
    <use xlink:href="#ay"/>
    <use xlink:href="#az"/>
    <use xlink:href="#aA"/>
    <use xlink:href="#aB"/>
    <use xlink:href="#aC"/>
    <use xlink:href="#aD"/>
    <use xlink:href="#aE"/>
  </g>
</svg>
