<svg xmlns="http://www.w3.org/2000/svg" xmlns:xlink="http://www.w3.org/1999/xlink" width="262" height="262" viewBox="200.878 182.819 262 262">
  <defs>
    <path id="a" d="M200.88 182.82h262v262h-262v-262Z"/>
    <path id="b" d="m407.7 220.23 36.17 1.86-14.63 88.83 11.7 92.82-35.1-10.11-135.64-2.66-48.41 10.38 3.46-67.29 6.38-26.6-17.28-80.05 56.38-3.99 55.32 7.71 81.65-10.9Z"/>
    <path id="c" d="m289.08 279.8 15.69 21.55-21.81-4.79-18.61-14.63-3.73-15.96 28.46 13.83Z"/>
    <path id="d" d="m367.27 274.75 31.12-13.3-11.44 20.22-18.08 14.09-21.01 2.93 19.41-23.94Z"/>
    <path id="e" d="m320 336.98 7.11 2.93 7.72-2.93 28.45 8.25-10.64 8.78-25.53 7.18-15.16-.8-25.53-17.02 33.58-6.39Z"/>
    <path id="f" d="M444.32 222.69c-7.26 8.74-11.57 15.18-12.93 19.32-4.78-.75-21.53 9.69-33 19.44-12.22 5.12-21.38 8.43-31.92 13.48-5.5 6.36-10.89 15.35-22.69 27.9-1.56.54-7.26 3.68-17.09 9.42-1.67.97-3.73.99-5.41.04-5.46-3.08-9.91-5.45-13.33-7.12-1.83-3.49-15.77-21.31-19.31-25.86-4.79-2.98-29.59-13.76-37.23-17.86-2.03-4.4-15.46-20.05-35.05-25.91 1.38-2.03.86-4.73-1.56-8.1"/>
    <path id="g" d="M404.43 316.45c9.89-4.88 17.94-6.96 24.14-6.23"/>
    <path id="h" d="M283.64 344.02c14.87-12.34 25.78-23.76 32.71-34.27"/>
    <path id="i" d="M366.97 342.93c-9.79-5.74-21.49-17.22-35.09-34.43"/>
    <path id="j" d="M247.28 309.33c-5.02 1.2-10.24.4-15.66-2.41"/>
    <path id="k" d="M276.8 349.99c7.53 21.69-3.97 31.6-14.88 42.21-11.1 2.66-24.31 5.56-39.64 8.69"/>
    <path id="l" d="M324.85 390.95c-.7-5.82-.25-14.35 1.35-25.6"/>
    <path id="m" d="M368.67 362.94c12.05 13.25 24.5 23.5 37.35 30.72l34.94 10.08"/>
    <path id="n" d="M320 337.87c-1.04-9.16-.42-17.45 1.87-24.88"/>
    <path id="o" d="M334.37 337.4c1.65-4.75-5.98-22.66-4.81-26.61"/>
  </defs>
  <use xlink:href="#a" fill="#9b7647"/>
  <use xlink:href="#b" fill="#c1a660"/>
  <use xlink:href="#c" fill="#202020"/>
  <use xlink:href="#d" fill="#202020"/>
  <use xlink:href="#e" fill="#5c266b"/>
  <use xlink:href="#f" fill-opacity="0" stroke="#876635"/>
  <use xlink:href="#g" fill-opacity="0" stroke="#876635"/>
  <use xlink:href="#h" fill-opacity="0" stroke="#876635"/>
  <use xlink:href="#i" fill-opacity="0" stroke="#876635"/>
  <use xlink:href="#j" fill-opacity="0" stroke="#876635"/>
  <use xlink:href="#k" fill-opacity="0" stroke="#876635"/>
  <use xlink:href="#l" fill-opacity="0" stroke="#876635"/>
  <use xlink:href="#m" fill-opacity="0" stroke="#876635"/>
  <use xlink:href="#n" fill-opacity="0" stroke="#876635"/>
  <use xlink:href="#o" fill-opacity="0" stroke="#876635"/>
</svg>
