<svg xmlns="http://www.w3.org/2000/svg" xmlns:xlink="http://www.w3.org/1999/xlink" width="262" height="262" viewBox="181.003 175.179 262 262">
  <defs>
    <path id="a" d="M181 175.18h262v262H181v-262Z"/>
    <path id="b" d="M250.62 363.27v-7.18l12.58 5.64 76.68-49.24 82.21-13.91.34 16.87h11.13v-40.16h3.71l3.04-3.71v-10.91l-3.04-4.73h-9.67l-5.17 5.63v4.95l-5.18-3.72 5.18-4.27.33-5.17-4.5-3.72-6.75 8.22-2.47-1.92 7.09-8.43-5.4-5.01-4.84-.56-.9 10.4-6.07-1.35v-3.82l5.42-10.97-7.81-6.84-5.69 11.68-2.25-2.03H369.8l.34 4.95 8.66-.45v3.38l-20.02-4.39-6.19 5.57-3.03-1.18 3.03-2.93v-2.02l-1.8-1.44-2.58.9-3.38 4.59-2.25-.79 4.39-8.55-1.69-1.8-2.02.34-4.95 8.77-4.5-1.46 6.07-11.92-1-1.67-4.05.45-4.95 12.04-5.73-1.91-13.73 1.01-12.15-12.94-15.74 1.02-12.94 10.91-2.13 22.08-4.83 6.18-.68 4.62.68 3.93-15.52-9.78-6.08.56-3.04-11.14-11.02-7.87h-13.61l-13.5 7.09-10.57 17.21-.57 19.46 11.59 13.61h11.02l8.33 7.54-2.59 3.83 4.39 3.49 2.59-3.49 2.58 2.25-2.58 3.49 5.17 3.6 2.47-3.27 3.83 4.39 3.94 14.96-6.98.79-1.8-3.15h-3.71l-2.02 3.49-.9 5.06 2.92 2.7h3.71l2.36-3.49 9.34-.67 1.8 2.58h-6.19l-5.51 5.06v8.67h3.04v33.85h13.38l-1.79-33.85h3.51Z"/>
    <path id="c" d="m385.01 248.07 5.89.75-.18-4.58h-5.99l.28 3.83Z"/>
    <path id="d" d="M436.37 262.01v7.77l-3.46 1.87-5.52-4.03.28-5.05 4.3-4.11 4.4 3.55Z"/>
    <path id="e" d="m391.27 262.17-14.97 11.97-9.65 19.02-.96 23.93 8.01 15.06 22.49-2.32-8.88 7.24-16.02.49-6.47-4.15-9.07-19.02v-23.45l19.69-27.8 11.58-8.21 19.98-.29 4.54 3.82-12.55.82 2.7 3.28-10.42-.39Z"/>
    <path id="f" d="m373.7 332.15 22.49-2.12 14.38-10.81 11.58-20.76v-32.14l-10.42-7.86-12.93.91 9.26 9.27 3.48 11.29-6.47 25.58-18.63 19.5-15.54 1.83 2.8 5.31Z"/>
    <path id="g" d="m391.65 262.27 10.23.29 6.37 6.17 3.58 11.2-6.66 25.77-18.63 19.41-15.64 1.83-5.21-9.94 1.06-23.75 9.46-19.11 15.44-11.87Z"/>
    <path id="h" d="m306.11 294.6 18.82-1.01 9.61 16.47 1.16 10.45-9.03 29.8-22.72 16.41-9.61 2.6-15.93-11.39-3.57-29.53 6.46-15.74 24.81-18.06Z"/>
    <path id="i" d="m284.51 324.72 13.51.96 9.85 8.88h-16.02l-8.98 8.5v15.83l3.76 5.5-22.29-.58-1.55-2.03-.19-36.58 7.33-17.28 28.48-21.91 18.53-1.54 15.45 6.66 2.8 4.17-29.16.8-23.93 17.42-6.57 15.25 8.98-4.05Z"/>
    <path id="j" d="m291.73 313.72 14.67-.48 10.43 12.26-1.36 17.47-16.58 21.91 5.1.29 21.23-16.21 9.56-28.96-.87-10.14-10.42-14.56h11.48l9.85 23.92-1.45 18.34-14.96 24.91-20.75 14.58h-29.15l-13.88-13.24 21.91.58-1.93-2.8 10.03-.29 10.43-14.09-2.22-12.74h5.21l3.19 2.8.75-10.33-7.22-7.72-14.67 2.41-14.09 7.05 15.71-14.96Z"/>
    <path id="k" d="M256.11 290.28c0 4.47-3.88 8.09-8.68 8.09-4.79 0-8.68-3.62-8.68-8.09s3.89-8.09 8.68-8.09c4.8 0 8.68 3.62 8.68 8.09Z"/>
    <path id="l" d="M244.23 309.16c0 3.07-2.78 5.57-6.21 5.57-3.42 0-6.2-2.5-6.2-5.57 0-3.08 2.78-5.58 6.2-5.58 3.43 0 6.21 2.5 6.21 5.58Z"/>
    <path id="m" d="M276.55 270.91c0 4.46-3.25 7.78-7.26 7.78s-7.27-3.32-7.27-7.78c0-4.47 3.26-7.62 7.27-7.62s7.26 3.15 7.26 7.62Z"/>
    <path id="n" d="M235.45 314.73c-.73 1-.81 4.72-.23 11.17"/>
    <path id="o" d="M244.23 310.48c2.97 1.06 10.16 3.78 11.88 4.25.47 1.81.01 2.12-.83 3.54-2.29-.74-6.59-2.34-12.9-4.8"/>
    <path id="p" d="M249.34 312.05c.34-2.69 11.84-4.72 8.93 5.27-2.92 9.99-13.01.45-10.84-1.18"/>
    <path id="q" d="M255.52 292.95c1.64 1.46 7.19 3.99 8.17 4.69-.11 1.83-.47 2-1.31 3.26-1.28-1.04-4.05-2.65-8.31-4.81"/>
    <path id="r" d="M258.34 294.3c3.07-5.93 16.93.62 10.68 8.38-6.24 7.75-13.4-.88-11.63-4.58"/>
    <path id="s" d="M275.81 274.24c1.51 1.8 6 5.86 6.93 6.77-.4 1.8-1.85 2.39-2.95 3.46-1.2-1.31-3.37-3.67-6.51-7.08"/>
    <path id="t" d="M279.14 277.09c1.38-2.34 12.52.06 5.92 8.11-6.59 8.06-11.9-3.73-9.27-4.38"/>
    <path id="u" d="M241.42 296.36c-1.68 1.28-2.64 3.57-2.87 6.88"/>
    <path id="v" d="M252.74 283.9c3.14-3.6 7.03-6.06 11.68-7.4"/>
    <path id="w" d="M240.81 266.88c-30.05 10.98-20.01 25.56-20.64 45.46"/>
    <path id="x" d="M239.33 261.92c-22.4 5.83-31.78 20.29-28.14 43.38"/>
    <path id="y" d="M225.92 266.88c-5.19-9.58-16.86-3.18-20.74 2.44-3.87 5.62-7.21 17.38 5.25 20.04"/>
    <path id="z" d="M232.39 263.61c-6.33-11.9-18.86-13.23-30.73 0-11.87 13.23-9.06 29.53 8.68 33.32"/>
    <path id="A" d="M310.08 348.75c.99-7.15-1.28-11.79-6.8-13.94"/>
    <path id="B" d="M325.16 290.98c9.85 14.33 14.58 23.81 14.19 28.44-4.59 18.89-5.92 41.42-32.56 47.1-1.63 1.06-14.76.43-16.48 0-1.73-.44-2.7-1.5-4.71-3.49-2-1.98-11.24-17-1.48-25.95 9.76-8.96 15.14-5.56 20.3-6.02"/>
    <path id="C" d="M267.06 340.81c-.8-17.11 1.89-27.3 8.04-30.57 8.28-6.31 13.15-13.54 24.36-17.29 11.21-3.74 29.81-3.24 35.45 1.95"/>
    <path id="D" d="M289.62 376.42c-8.74-5.69-15.62-12.08-20.65-19.17-6.07-14.75-.87-25.55 15.6-32.4"/>
    <path id="E" d="M246.02 356.57c0 1.94-2.29 4.05-4.26 4.05-1.97 0-4.26-2.11-4.26-4.05 0-1.95 2.29-4.05 4.26-4.05 1.97 0 4.26 2.1 4.26 4.05Z"/>
    <path id="F" d="m233.39 346.94 21.17-3.31.26-2.82-22.65 2.12"/>
    <path id="G" d="m250.46 355.83 7.93-8.11-4.18-4.18-9.24 5.84"/>
    <path id="H" d="M333.39 293.23c-25.15-13.32-44.1-20.38-56.84-21.17"/>
    <path id="I" d="M309.93 240.78c-21.95 2.68-29.08 13.7-21.4 33.06"/>
    <path id="J" d="M325.16 240.23c-18.84 6.77-24.74 20.31-17.7 40.61"/>
    <path id="K" d="M359.59 242.98c-16.28 9.23-24.88 25.99-25.79 50.25"/>
    <path id="L" d="M366.17 244.24c-19.48 10.62-29.22 29.73-29.22 57.31"/>
    <path id="M" d="M370.7 257.31c0 3.11-2.18 5.63-4.53 5.63s-4.53-2.52-4.53-5.63c0-3.1 2.18-5.62 4.53-5.62s4.53 2.52 4.53 5.62Z"/>
    <path id="N" d="M381.6 336.77c-44.96-14.7-20.01-85.54 29.94-78.69"/>
    <path id="O" d="M397.27 258.46c43.15 19.07.62 74.62-24.49 73.99"/>
  </defs>
  <use xlink:href="#a" fill="#9b7647"/>
  <use xlink:href="#b" fill="#dead77"/>
  <use xlink:href="#c" fill="#9b7647"/>
  <use xlink:href="#d" fill="#9b7647"/>
  <use xlink:href="#e" fill="#bd9252"/>
  <use xlink:href="#f" fill="#e08936"/>
  <use xlink:href="#g" fill="#151515"/>
  <use xlink:href="#h" fill="#151515"/>
  <use xlink:href="#i" fill="#bd9252"/>
  <use xlink:href="#j" fill="#e08936"/>
  <use xlink:href="#k" fill-opacity="0" stroke="#a06a2d"/>
  <use xlink:href="#l" fill-opacity="0" stroke="#a06a2d"/>
  <use xlink:href="#m" fill-opacity="0" stroke="#a06a2d"/>
  <use xlink:href="#n" fill-opacity="0" stroke="#a06a2d"/>
  <use xlink:href="#o" fill-opacity="0" stroke="#a06a2d"/>
  <use xlink:href="#p" fill-opacity="0" stroke="#a06a2d"/>
  <use xlink:href="#q" fill-opacity="0" stroke="#a06a2d"/>
  <use xlink:href="#r" fill-opacity="0" stroke="#a06a2d"/>
  <use xlink:href="#s" fill-opacity="0" stroke="#a06a2d"/>
  <use xlink:href="#t" fill-opacity="0" stroke="#a06a2d"/>
  <use xlink:href="#u" fill-opacity="0" stroke="#a06a2d"/>
  <use xlink:href="#v" fill-opacity="0" stroke="#a06a2d"/>
  <use xlink:href="#w" fill-opacity="0" stroke="#a06a2d"/>
  <use xlink:href="#x" fill-opacity="0" stroke="#a06a2d"/>
  <use xlink:href="#y" fill-opacity="0" stroke="#a06a2d"/>
  <use xlink:href="#z" fill-opacity="0" stroke="#a06a2d"/>
  <use xlink:href="#A" fill-opacity="0" stroke="#a06a2d"/>
  <use xlink:href="#B" fill-opacity="0" stroke="#a06a2d"/>
  <use xlink:href="#C" fill-opacity="0" stroke="#a06a2d"/>
  <use xlink:href="#D" fill-opacity="0" stroke="#a06a2d"/>
  <use xlink:href="#E" fill-opacity="0" stroke="#a06a2d"/>
  <use xlink:href="#F" fill-opacity="0" stroke="#a06a2d"/>
  <use xlink:href="#G" fill-opacity="0" stroke="#a06a2d"/>
  <use xlink:href="#H" fill-opacity="0" stroke="#a06a2d"/>
  <use xlink:href="#I" fill-opacity="0" stroke="#a06a2d"/>
  <use xlink:href="#J" fill-opacity="0" stroke="#a06a2d"/>
  <use xlink:href="#K" fill-opacity="0" stroke="#a06a2d"/>
  <use xlink:href="#L" fill-opacity="0" stroke="#a06a2d"/>
  <use xlink:href="#M" fill-opacity="0" stroke="#a06a2d"/>
  <use xlink:href="#N" fill-opacity="0" stroke="#a06a2d"/>
  <use xlink:href="#O" fill-opacity="0" stroke="#a06a2d"/>
</svg>
