<svg xmlns="http://www.w3.org/2000/svg" xmlns:xlink="http://www.w3.org/1999/xlink" width="262" height="262" viewBox="189 174.514 262 262">
  <defs>
    <path id="a" d="M189 174.51h262v262H189v-262Z"/>
    <path id="b" d="m447.33 256.59-16.83-41.92-60.4-32.01h-19.14l-42.57 13.86-41.59 60.07-4.62 36.47 28.39 124.09 36.96 10.23 71.29-.99 42.24-15.84 6.27-153.96Z"/>
    <path id="c" d="m298.82 260.22-24.1-4.29L314 199.82l16.17-5.61-31.35 66.01Z"/>
    <path id="d" d="m347 190.25-12.54 75.25-29.04-3.96 30.69-68.98 10.89-2.31Z"/>
    <path id="e" d="m364.16 187.28 13.86 74.59-37.62 2.31 11.88-74.92 11.88-1.98Z"/>
    <path id="f" d="m380 192.23 27.73 66.67-24.09 1.32-12.88-72.94 9.24 4.95Z"/>
    <path id="g" d="m422.25 216.32 16.17 40.6-20.13 1.65-26.4-60.07 30.36 17.82Z"/>
    <path id="h" d="m266.47 297.51 24.1 40.92 5.61-70.95-23.77-3.3-5.94 33.33Z"/>
    <path id="i" d="m333.47 272.43-5.28 128.38-32.01-9.9 6.27-122.44 31.02 3.96Z"/>
    <path id="j" d="m378.02 269.46-6.27 130.03-36.96 1.32 5.61-128.38 37.62-2.97Z"/>
    <path id="k" d="m409.38 266.49-4.62 131.35-25.42.99 5.95-130.36 24.09-1.98Z"/>
    <path id="l" d="m438.42 264.18-3.63 121.45-23.43 9.24 6.27-129.37 20.79-1.32Z"/>
    <path id="m" d="M189 328.2v38.29l11.14 43.89 23.1 25.64h46.53l29.71-16.4 17.82-51.48.99-12.87.99-23.77-51.16-39.27-40.66.4L189 328.2Z"/>
    <path id="n" d="m262.84 347.51 14.07 22.12-5.09 25.06-20.38 6.44-35.92-4.16-5.1-23.19 12.74-30.83 39.68 4.56Z"/>
    <path id="o" d="m246.48 392.01-5.36-10.45-8.18 9.25 13.54 1.2Z"/>
    <path id="p" d="m210.42 373.78 3.49 15.55 19.03 1.48 7.78-8.45 5.36 9.52 15.68 1.61 12.07-8.45 3.08-15.41-6.84-10.73-22.38-1.61-5.77 7.78-4.55-7.78-19.71-1.2-7.24 17.69Z"/>
    <path id="q" d="m247.82 382.76 15.82 1.08 8.98-8.58-9.38-8.98h-13l-8.85 8.11-8.45-9.19-13.94-.67-7.24 6.7 5.63 9.52 16.76.67 7.24-6.99 6.43 8.33Z"/>
  </defs>
  <use xlink:href="#a" fill="#9b7647"/>
  <use xlink:href="#b" fill="#7199bc"/>
  <use xlink:href="#c" fill="#9b7647"/>
  <use xlink:href="#d" fill="#9b7647"/>
  <use xlink:href="#e" fill="#9b7647"/>
  <use xlink:href="#f" fill="#9b7647"/>
  <use xlink:href="#g" fill="#9b7647"/>
  <use xlink:href="#h" fill="#9b7647"/>
  <use xlink:href="#i" fill="#9b7647"/>
  <use xlink:href="#j" fill="#9b7647"/>
  <use xlink:href="#k" fill="#9b7647"/>
  <use xlink:href="#l" fill="#9b7647"/>
  <use xlink:href="#m" fill="#cc99fe"/>
  <use xlink:href="#n" fill="#dbcca8"/>
  <use xlink:href="#o" fill="#aeaeae"/>
  <use xlink:href="#p" fill="#9a8776"/>
  <use xlink:href="#q" fill="#000000"/>
</svg>
