<svg xmlns="http://www.w3.org/2000/svg" xmlns:xlink="http://www.w3.org/1999/xlink" width="262" height="262" viewBox="201.243 155.764 262.354 262">
  <defs>
    <path id="a" d="M201.6 155.76h262v262h-262v-262Z"/>
    <path id="b" d="M201.24 357.33h262v60.43h-262v-60.43Z"/>
    <path id="c" d="M236.12 357.33h7.96v60.43h-7.96v-60.43Z"/>
    <path id="d" d="M400 357.33h8.52l.49 60.43h-8.72l-.29-60.43Z"/>
    <path id="e" d="m358.05 226.6.38 9.5-13.96-1.13v-9.88l13.58 1.51Z"/>
    <path id="f" d="m216.14 315.66 225.22.39.39 41.28H216.14v-41.67Z"/>
    <path id="g" d="m216.43 277.51 224.34.78.59 37.78-225.22-.41.29-38.15Z"/>
    <path id="h" d="m424.38 265.62 26.42 2.66 2.3-2.15-3.72-8.14-34.45-21.68-54.26-3.02-15.42-2.83-4.43 1.42-17.56-7.41-35.1 7.8-3.2 7.97-37.41 1.95-15.25 7.45-20.21 15.6 32.8.89 89.37-5.67 34.46 5.16h55.66Z"/>
    <path id="i" d="m348.03 228.14 7.63 1.25 13.29 36.7 23.59 12.05h18.43l19.86-18.26.89-14.72-4.79-20.57-7.44-14.54-13.09-11.79-15.7-11.78-106.11-3.11-25.18 9.75-14 13.3-9.29 16.06v8.33l8.4 35.28 18.44 11.42H308l15.42-4.85 15.07-11.53 2.66-9.4 6.88-23.59Z"/>
    <path id="j" d="m257.78 212.89 61.87-17.91 36.18 5.85 21.1-7.26 20.9 3.37-16.63 5.59 41.3 50.96-12.94 13.48-25.36-5.5-23.57-18.5-9.41-25.82-10.64 36.34-31.2 11.35h-38.65l-22.52-18.79v-25l9.57-8.16Z"/>
    <path id="k" d="m243.76 223.09.53 23.58-7.09 9.75-25.11 8.51-1.84-31.56 12.59-8.69 12.59-2.13 8.33.54Z"/>
    <path id="l" d="m436.61 226.21 19.33 12.59v25.53l-2.84 1.95-15.78-7.27-6.03-6.03.43-24.29 4.89-2.48Z"/>
    <path id="m" d="m257.59 213.39-2.31 15.07 4.79 10.28 22.87 10.64h39.54l19.51-13.65 3.9-14.01-6.03-11.7-20.21-14.72-17.2-3.37-32.63 9.4-12.23 12.06Z"/>
    <path id="n" d="m301.56 203.46 21.1 1.42 15.42 15.78-2.3 10.46-9.4-1.73-33.69 8.47-4.25 7.62-20.39-7.62-2.66-15.96 13.12-12.06 23.05-6.38Z"/>
    <path id="o" d="m379.89 199.82-9.93 9.4-1.24 11.44 5.14 16.04 25.36 16.32 23.28.53 8.98-7.89.24-17.05-10.51-18.32-16.32-13.13-8.86-.53-16.14 3.19Z"/>
    <path id="p" d="m409.15 228.55-14.36-16.85-14.54-3.01-6.39 7.09 2.31 10.99 6.56 7.63 26.42 1.59v-7.44Z"/>
    <path id="q" d="m384.26 237.14 22.15 12.24h3.57l-.83-13.39-26.68-1.76 1.79 2.91Z"/>
    <path id="r" d="m290.07 246.37 27.3-2.07 16.55-8.31 1.43-5.23-8.59-1.45-34.67 8.28-4.7 7.89 2.68.89Z"/>
    <path id="s" d="m405.29 203.13 13.04 7.9 9.43 24.27-5.96 12.35-11.82 1.39-1.5-20.88-14.42-16.57-14.57-2.9 2.5-2.37 23.3-3.19Z"/>
    <path id="t" d="m224.92 245.81-11.48-4.24 18.05-7.09 1.67-1.61 2.96.23 2.2 2.28-.32 2.75-2.59 3.44-3.23-.26-.69-2.07-6.57 6.57Z"/>
    <path id="u" d="m442.93 248 9.94-1.27-11.51-8.64-2.34-1.99-2.97.23-2.19 2.28.31 2.75 1.31 2.73h4.19l1.01-1.62 2.25 5.53Z"/>
    <path id="v" d="M441.53 240.21c0 2.27-1.78 4.11-3.97 4.11-2.19 0-3.97-1.84-3.97-4.11 0-2.27 1.78-4.11 3.97-4.11 2.19 0 3.97 1.84 3.97 4.11Z"/>
    <path id="w" d="M443.36 249.04c-.74-2.28-1.83-4.08-3.28-5.43"/>
    <path id="x" d="M447.37 248.28c-1.4-3.58-3.39-5.96-5.98-7.15"/>
    <path id="y" d="M452.65 246.69c-5.95-5.95-10.67-9.51-14.16-10.7"/>
    <path id="z" d="M238.69 237.09c0 2.68-1.73 4.62-3.86 4.62s-3.57-2.31-3.57-5c0-2.68 1.44-4.44 3.57-4.44s3.86 2.14 3.86 4.82Z"/>
    <path id="A" d="M212.7 242.27c6.05-4.01 12.54-6.85 19.49-8.5"/>
    <path id="B" d="M218.27 244.19c3.55-3.92 7.88-6.32 12.99-7.2"/>
    <path id="C" d="M224.76 245.55c3.55-5.08 5.72-7.48 6.5-7.2"/>
    <path id="D" d="M342.94 244.32c-7.08 9.23-15.77 16.55-26.06 21.96-23.94 9.77-45.75 7.11-60.07-1.35-3.98-2.55-12.36-10.07-12.94-16.93-.59-6.86-.55-22.3.98-26.04 1.52-3.74 16.04-33.83 61.31-33.27 45.27.55 38.48-1.06 60.81 0 14.89.71 24.64 3.35 29.26 7.94"/>
    <path id="E" d="M431.72 247.37c2.42 7.73 11.84 11.41 21.38 14.09.12-5.08 2.49-12.28.47-20.33-3.13-1.76-13.43-11.27-18.89-10.37-3.06.52-2.51 5.03-2.96 13.95-8.77 13.91-13.23 31.35-40.21 24.7-35.86-24.58-32.21-31.56-39.97-53.42"/>
    <path id="F" d="M265.39 221.35c10.31-17.51 31.49-26.62 56.76-19.04 12 3.61 16.37 11.6 19.26 18.35.2 8.09-4.47 16.82-7.49 20.68"/>
    <path id="G" d="M346.73 232.87c-24.58 26.05-37.25 27.55-59.34 22.86-22.09-4.69-29.52-9.84-28.27-31.26.83-14.28 13.95-22.56 39.37-24.85"/>
    <path id="H" d="M421.96 247.23c-11.46 12.58-26.8 12.58-46.02 0-14.98-9.64-14.61-34.32-13.87-38.54 2.84-8.85 13.93-12.87 33.28-12.06"/>
    <path id="I" d="M411.8 249.04c7.91-7.02 9.58-16.48 4.99-28.38-4.59-11.9-16.67-15.89-36.23-11.97"/>
  </defs>
  <use xlink:href="#a" fill="#9b7647"/>
  <use xlink:href="#b" fill="#302c31"/>
  <use xlink:href="#c" fill="#835541"/>
  <use xlink:href="#d" fill="#835541"/>
  <use xlink:href="#e" fill="#9b7647"/>
  <use xlink:href="#f" fill="#8a54a9"/>
  <use xlink:href="#g" fill="#43714c"/>
  <use xlink:href="#h" fill="#211f24"/>
  <use xlink:href="#i" fill="#23262d"/>
  <use xlink:href="#j" fill="#63636f"/>
  <use xlink:href="#k" fill="#63636f"/>
  <use xlink:href="#l" fill="#63636f"/>
  <use xlink:href="#m" fill="#97949f"/>
  <use xlink:href="#n" fill="#d1f2ad"/>
  <use xlink:href="#o" fill="#97949f"/>
  <use xlink:href="#p" fill="#d1f2ad"/>
  <use xlink:href="#q" fill="#211f24"/>
  <use xlink:href="#r" fill="#211f24"/>
  <use xlink:href="#s" fill="#63636f"/>
  <use xlink:href="#t" fill="#c49e45"/>
  <use xlink:href="#u" fill="#c49e45"/>
  <use xlink:href="#v" fill-opacity="0" stroke="#7f652d"/>
  <use xlink:href="#w" fill-opacity="0" stroke="#7f652d"/>
  <use xlink:href="#x" fill-opacity="0" stroke="#7f652d"/>
  <use xlink:href="#y" fill-opacity="0" stroke="#7f652d"/>
  <use xlink:href="#z" fill-opacity="0" stroke="#7f652d"/>
  <use xlink:href="#A" fill-opacity="0" stroke="#7f652d"/>
  <use xlink:href="#B" fill-opacity="0" stroke="#7f652d"/>
  <use xlink:href="#C" fill-opacity="0" stroke="#7f652d"/>
  <use xlink:href="#D" fill-opacity="0" stroke="#ffffff"/>
  <use xlink:href="#E" fill-opacity="0" stroke="#ffffff"/>
  <use xlink:href="#F" fill-opacity="0" stroke="#000000"/>
  <use xlink:href="#G" fill-opacity="0" stroke="#000000"/>
  <use xlink:href="#H" fill-opacity="0" stroke="#000000"/>
  <use xlink:href="#I" fill-opacity="0" stroke="#000000"/>
</svg>
