<svg xmlns="http://www.w3.org/2000/svg" xmlns:xlink="http://www.w3.org/1999/xlink" width="262" height="262" viewBox="189 136.319 262 262">
  <defs>
    <path id="a" d="M189 136.32h262v262H189v-262Z"/>
    <path id="b" d="M189 136.32h36.7v262H189v-262Z"/>
    <path id="c" d="M225.7 136.32h32.99v262H225.7v-262Z"/>
    <path id="d" d="m258.69 169.78 32.66-7.37 39.43 225.22-35.11 8.86-36.98-226.71Z"/>
    <path id="e" d="m395.49 304.43 17.37 9.22 12.77 15.61 3.72 8.33.54 20.92-9.05 17.02-19.86 15.43-12.05 4.61-18.26-2.48-18.09-15.96-8.69-18.09.53-20.03 6.21-14.36 9.4-11 11.34-7.27 9.58-1.95h14.54Z"/>
    <path id="f" d="m425.85 350.92 1.02 6-5.85 12.76-7.63 7.81-5.14-1.78-22.16 7.27-7.62-3.72 2.66-4.79-8.51 2.66-7.45-5.85-4.79 2.13-4.43-4.97-1.6-11.52 4.26-3.55-4.79-5.5.53-7.62 4.26-1.95.71-10.29 8.86-7.09 10.82 2.84.89-6.56 1.77-.53 3.9 4.25 4.96-4.25 6.56 4.96h7.63l4.25-2.83 7.1 6.73 9.79 25.39Z"/>
    <path id="g" d="M395.67 304.43h8.86l15.07 10.64 6.56 14.72v22.87l-12.59 24.65-13.6 11.79-16.72 5.4-12.23-1.59-5.85-6.37 12.65 3.58 5.64-1.28 12.21-3.91 8.33-7.62 11.52-19.86 3.37-20.22-3.37-17.23-8.73-8.98-10.57-1.42-4.42-3.15 3.87-2.02Z"/>
    <path id="h" d="m404.35 309.04-11.12-3.33-12.46 5.28-9.32 10.78 3.65 1.03 19.68-11.27 12.06-.54-2.49-1.95Z"/>
    <path id="i" d="m360.53 373.2-4.4-4.94 1.06 6.92 7.98 11.35 6.56 2.3 6.03 1.95 5.85-1.95-11.88-3.01-5.67-7.1-2.13-6.73-3.4 1.21Z"/>
  </defs>
  <use xlink:href="#a" fill="#9b7647"/>
  <use xlink:href="#b" fill="#65a177"/>
  <use xlink:href="#c" fill="#37343d"/>
  <use xlink:href="#d" fill="#424765"/>
  <use xlink:href="#e" fill="#d4d4d4"/>
  <use xlink:href="#f" fill="#bc0d34"/>
  <use xlink:href="#g" fill="#c07535"/>
  <use xlink:href="#h" fill="#cfa784"/>
  <use xlink:href="#i" fill="#cfa784"/>
</svg>
