<svg xmlns="http://www.w3.org/2000/svg" xmlns:xlink="http://www.w3.org/1999/xlink" width="262" height="262" viewBox="189 150.473 262 262">
  <defs>
    <path id="a" d="M189 150.47h262v262H189v-262Z"/>
    <path id="b" d="M189 194.19h22.14l.98 195.85H189V194.19Z"/>
    <path id="c" d="m212.12 390.04-.46 22.43H189v-22.43h23.12Z"/>
    <path id="d" d="m211.55 172.46-.58 21.73H189v-22.1l22.55.37Z"/>
    <path id="e" d="m254.57 398.9 18.01-4.84-1.16 4.39 23.47 2.33 2.51-4.12-5.38-13.53-7.88-4.3-8.06 2.42-8.52-9.05-26.7-5.75-14.43 3.42-14.31 15.41v4.76l42.45 8.86Z"/>
    <path id="f" d="M213.09 404.27c.58 1.51 1.06 2.16 1.43 1.97.56-.29 6.39-2.96 6.9-4.21.35-.84.77-3.97 1.26-9.41"/>
    <path id="g" d="M236.57 408.12c1.73-.53 2.81-.85 3.24-.99.53-.16.9-.63.94-1.18.07-1.26.26-4.42.57-9.48"/>
    <path id="h" d="M268.29 405.7c-4.84 4.6-7.68 1.88-8.51-8.15"/>
    <path id="i" d="M277.43 367.44c.6 3.29-9.01 4.48-8.34-1.52.23-2.33 6.3-8.58 12.46-2.42 5.06 6.19 4.82 13.3-.72 21.32"/>
    <path id="j" d="M290.69 366.27c1.01 6.23 6.74 2.94 6.9-1.97.16-3.11-6.23-7.84-9.5-2.24-2.18 3.74-3.14 10.76-2.87 21.06"/>
    <path id="k" d="M289.35 380.88c2.8-.9 5.07 3.49 4.83 4.84-.35 2.06-2.77 3.92-6.27 3.4.27 2.18-3.07 5.52-5.2 5.29-2.12-.22-4.45-4.64-3.31-6.18 1.14-1.55 6.12.85 7.88 0 1.68-1.93 1.33-6.81 2.07-7.35Z"/>
    <path id="l" d="m402.86 306.52 28.37 7.02-10.74 35.25-7.17 40.97-26.79-22.78-.86-14.33 3.15-15.47 14.04-30.66Z"/>
    <path id="m" d="m436.67 309.39-3.86 6.73-31.09-7.74 2.72-5.73 28.37 5.73 3.86 1.01Z"/>
    <path id="n" d="m412.18 351.94 1.14 37.82 9.89-3.58 1.14-29.8 17.48-42.12-5.16-5.59-3.43-.43-21.06 43.7Z"/>
    <path id="o" d="m343.69 337.75 36.54 2.3 21.49-7.74-40.21-1.29-17.82 6.73Z"/>
    <path id="p" d="m258.87 315.29-25.59-25.52-4.98-16.37-1.77-24.56 13.81-33.07 30.5-33.38-30.98 20.7-22.96 38.42-4.33 27.59 17.5 44.94 28.8 30.5h71.2l32.95-13.52-57.31-1.66-46.84-14.07Z"/>
    <path id="q" d="m338.77 250.8 12.52 6.74 11.07-7.55 19.26 8.19-18.6 14.29-18.8.48-19.9-9.95 14.45-12.2Z"/>
    <path id="r" d="m293.66 217.73 13.81 14.61 26.16-3.53 4.17-2.89 1.45-5.3 15.25-.48 1.28 6.58 3.21 2.09 31.3 4.33 13.96-13 9.31-20.39-33.06 2.89-33.71 12.04-5.94-3.37-24.4-9.95-33.7-5.3 10.91 21.67Z"/>
    <path id="s" d="m303.77 222.71 12.36 4.49 14.61-.48 4.49-5.46.32-6.66-10.91-6.66-28.09-4.17-3.53 2.72 10.75 16.22Z"/>
    <path id="t" d="m367.82 210.19 34.83-3.54.96 2.57-9.31 14.45-12.68 4.98-18.6-1.45-5.64-6.42.49-5.3 9.95-5.29Z"/>
  </defs>
  <use xlink:href="#a" fill="#9b7647"/>
  <use xlink:href="#b" fill="#3a7097"/>
  <use xlink:href="#c" fill="#d88baf"/>
  <use xlink:href="#d" fill="#d88baf"/>
  <use xlink:href="#e" fill="#487d81"/>
  <use xlink:href="#f" fill-opacity="0" stroke="#1b1b19"/>
  <use xlink:href="#g" fill-opacity="0" stroke="#1b1b19"/>
  <use xlink:href="#h" fill-opacity="0" stroke="#1b1b19"/>
  <use xlink:href="#i" fill-opacity="0" stroke="#1b1b19"/>
  <use xlink:href="#j" fill-opacity="0" stroke="#1b1b19"/>
  <use xlink:href="#k" fill-opacity="0" stroke="#a42329"/>
  <use xlink:href="#l" fill="#fde792"/>
  <use xlink:href="#m" fill="#565d65"/>
  <use xlink:href="#n" fill="#aca172"/>
  <use xlink:href="#o" fill="#efb36d"/>
  <use xlink:href="#p" fill="#a1ec31"/>
  <use xlink:href="#q" fill="#c75566"/>
  <use xlink:href="#r" fill="#cc596c"/>
  <use xlink:href="#s" fill="#a7c5e9"/>
  <use xlink:href="#t" fill="#a7c5e9"/>
</svg>
