<svg xmlns="http://www.w3.org/2000/svg" xmlns:xlink="http://www.w3.org/1999/xlink" width="262" height="262" viewBox="191.875 178.681 262 262">
  <defs>
    <path id="a" d="M191.88 178.68h262v262h-262v-262Z"/>
    <path id="b" d="M220.21 390.45h233.67v50.23H220.21v-50.23Z"/>
    <path id="c" d="m275.04 440.68-4.83-50.23h-27.06l-5.79 50.23h37.68Z"/>
    <path id="d" d="m330.59 238.5 46.86-24.16 23.68-1.93 32.6 17.63-38.4-1.45-17.88 8.22-5.55 21.01 59.18 132.63-40.82 19.33-73.19 3.38-40.58-23.43 54.1-151.23Z"/>
    <path id="e" d="m311.24 381.21 4.21 3.6 6.26-4.35 5.16 5.37-4.28 4.01 5.85 10.06-13.26 7.01-10.54-12.04 4.42-5.03-2.99-3.53 5.17-5.1Z"/>
    <path id="f" d="M314.23 389.64v6.46h3.4l-.41-6.26 3.33.28.88 10.94-3.6 1.77-.2-4.42h-3.95l-.2 3.13-2.85-3.13.74-8.57 2.86-.2Z"/>
  </defs>
  <use xlink:href="#a" fill="#9b7647"/>
  <use xlink:href="#b" fill="#bfaa8f"/>
  <use xlink:href="#c" fill="#339967"/>
  <use xlink:href="#d" fill="#000000"/>
  <use xlink:href="#e" fill="#d8c01b"/>
  <use xlink:href="#f" fill="#000000"/>
</svg>
