<svg xmlns="http://www.w3.org/2000/svg" xmlns:xlink="http://www.w3.org/1999/xlink" width="262" height="262.17" viewBox="183.131 175.84 262 262.167">
  <defs>
    <path id="a" d="M183.13 175.84h262v262h-262v-262Z"/>
    <path id="b" d="M368.33 185.5h76.8v252.34h-76.8V185.5Z"/>
    <path id="c" d="M338 197.5h30.33v240.34H338V197.5Z"/>
    <path id="d" d="m309.06 250.9 28.94 5.09-23.33 182.02-30.11-.17 24.5-186.94Z"/>
    <path id="e" d="m196.05 368.94.81-11.28-2.67-11.77-2.52.22 6.57-54.23 6.63.37v-6.65l11.2-5.21 37.89.24 8.93 6.74.65 7.22 4.79.73 10.01 53.05-4.79-.73-3.97 12.41.84 11.36-12.31 10.78-1.53 44.67-9.24 10.63h-38.09l-7.61-8.72 1.01-52.29-6.6-7.54Z"/>
    <path id="f" d="M258.23 303.57h3.98l-3.45 42.98 5.77.73v12.26l-7.15-.65.85-55.32Z"/>
    <path id="g" d="M204.61 303.8h4.71l-1.04 54.88-4.55-.32.41-13.23h3.49l-3.02-41.33Z"/>
    <path id="h" d="m251.23 280.64-.22-24.99-35.73.83.64 23.91 35.31.25Z"/>
    <path id="i" d="m248.1 255.72-.08-5.78-30.74.97v5.61l30.82-.8Z"/>
    <path id="j" d="M245.45 250.06v-2.12l-26.88.8.07 2.16 26.81-.84Z"/>
    <path id="k" d="m244.01 247.94 4.33-4.73 5.25-23.49-7.09-15.33-6.51-3.77-15.16.64-5.78 3.76-6.9 12.35.88 23.93 7.22 7.41 23.76-.77Z"/>
    <path id="l" d="m242.99 231.27-.78 6.07-20.53-1.21-.83-5.39 22.14.53Z"/>
    <path id="m" d="m242.21 237.34.15 2.28-20.49-.53-.19-2.96 20.53 1.21Z"/>
    <path id="n" d="m242.36 239.62-.34 3.69h-19.76l-.39-4.27 20.49.58Z"/>
    <path id="o" d="m223.97 213.53-2.17 3.14.18 3.67h3.94v-4.78l-1.95-2.03Z"/>
    <path id="p" d="m241.74 213.31 1.68 2.61-.22 3.8h-4.29l-.13-4.07 2.96-2.34Z"/>
    <path id="q" d="M216.24 219.96c3.59 1.17 6.37 1.68 8.33 1.52 2.54-.73 2.5-.44 3.45-2.48.46-2.46.51-3.61.34-5.69-6.44-4.7-13.1-3.36-13.98 2.59"/>
    <path id="r" d="M251.3 219.2c-2.05 4.39-11.54 2.45-15.64-.89.04-2.11-.94-2.75 2-4.78 2.94-2.03 6.72-8.3 9.78-3.35"/>
    <path id="s" d="m237.52 213.53-9.23-.22"/>
    <path id="t" d="m232.87 201.78-.58 11.64"/>
    <path id="u" d="M230.78 223.52c.29.01.53-.23.51-.52-.06-1.05-.22-3.75-.29-4.83 0-.1-.14-.12-.18-.03-.42 1.06-1.39 3.47-1.78 4.44-.16.41.13.86.57.88.34.02.76.04 1.17.06Z"/>
    <path id="v" d="M236.44 224.3c-.96.08-1.9-.36-2.45-1.16-.24-.35-.08-.12-.33-.48-.57-.83-.84-1.85-.76-2.86.03-.41.05-.66.1-1.22.02-.29.38-.4.57-.17.91 1.15 3.23 4.05 4.16 5.23.18.21.04.54-.24.56-.52.05-.71.07-1.05.1Z"/>
    <path id="w" d="M242.36 230.74c-.58-2.89-2.09-5.21-4.55-6.98"/>
    <path id="x" d="M250.21 224c-1.72 3.36-4.53 4.76-8.43 4.22"/>
    <path id="y" d="M221.25 230.24c-1.02-3.17 3.45-4.3 7.75-7.52"/>
    <path id="z" d="M213.63 221.75c3.04 3.16 5.72 5.06 8.05 5.71"/>
    <path id="A" d="M223.44 236.56c.07-3.55-.87-5.49-2.82-5.82"/>
    <path id="B" d="M227.84 236.85c.42-3.79-.44-5.71-2.57-5.75-1.59-.06-2.45.4-2.58 1.37"/>
    <path id="C" d="M232.25 237.14c.81-3.87 0-5.93-2.42-6.16-.62.01-1.12.14-1.49.37-.38.24-.62.58-.75 1.04"/>
    <path id="D" d="M236.24 237.34c-.26-1.47 1.28-5.6.19-6.01-1.09-.42-3.48-.66-4.18 1.47"/>
    <path id="E" d="M241.39 237.87c.25-1.71.2-3.19-.14-4.44-.35-1.24-.98-1.91-1.91-2-1.25.08-1.95.58-2.12 1.5-.16.92.32 2.46 1.46 4.61"/>
    <path id="F" d="m242.36 231.43-1.12 2.12"/>
    <path id="G" d="m226.93 243.98.12-4.82"/>
    <path id="H" d="M223.81 243.8v-5.03"/>
    <path id="I" d="M229.71 243.98v-4.82"/>
    <path id="J" d="M232.69 243.98v-4.82"/>
    <path id="K" d="M235.98 243.98v-4.82"/>
    <path id="L" d="M238.84 243.98v-5.03"/>
    <path id="M" d="m240.79 243.76.21-4.81"/>
    <path id="N" d="M248.47 242.02c-3.49 2.6-20.37 1.7-33.58 1.29"/>
    <path id="O" d="M250.47 280.09c-6.51 6.29-32.77 3.78-34.32 0"/>
    <path id="P" d="M211.43 289.15c-2.69-3.2 1.07-5.26 6.72-4.51 7.33.74 9.17 5.95 8.92 8.92-5.56-1.63-13.41-2.18-15.64-4.41Z"/>
    <path id="Q" d="M223.28 286.45c.58.03 1.28-.96 2.1-2.99"/>
    <path id="R" d="M242.99 286.6c3.71-2.22 7.97-2.71 10.92-1.53 7.13 3.64 4.02 5.9 0 6.79-4.88 1.15-11.9 1.59-14.85 2.09.88-2.41.22-5.13 3.93-7.35Z"/>
    <path id="S" d="M243.09 286.45c-.61-.11-.85-1.2-.71-3.26"/>
    <path id="T" d="M238.79 293.8c-.02 1.23.16.56-.15 3.67-2.41-1.77-6.19-1.9-11.33-.41l-.22-3.5c5.23-.46 9.13-.38 11.7.24Z"/>
    <path id="U" d="M204.35 288.64c1.88-.41 4.33-.19 7.35.66"/>
    <path id="V" d="M226.93 300.01c1.13-.56.15-1.82.16-2.54-2.95-1.13-11.16-4.68-22.74-5.13-7.94-.92-7.89 2.9.16 11.46 11.17-2.05 18.64-3.31 22.42-3.79Z"/>
    <path id="W" d="M262.17 291.82c-1.05-1.19-3.66-1.26-7.8-.2"/>
    <path id="X" d="M238.55 300.85c-.84-2.53-.15-1.63.27-3.62 6.04-.76 11.31-.71 22.84-2.7 9.59-1.33 5.27 4.44.72 8.57-7.52.51-17.94-.78-23.83-2.25Z"/>
    <path id="Y" d="M240.61 306.52c-1.91.14-13.38.59-15.04 0-1.26-7.9 4.68-6.69 6.2-6.82 3.76 0 10.26-.27 8.84 6.82Z"/>
    <path id="Z" d="M238.82 306.84c-.87.42-.8 1.25.22 2.47-9.52.68-13.76.73-12.71.17 1.04-.57 1.13-1.51.25-2.83 9.04-.3 13.12-.23 12.24.19Z"/>
    <path id="aa" d="M225.4 306.46c-7.68 1.06-13.15.1-16.4-2.89"/>
    <path id="ab" d="M240.31 306.46c11.19 1.22 17.22 1.07 18.1-.45"/>
    <path id="ac" d="M225.25 313.98c-7.44-.61-9.91.96-13.15.36-3.25-.59-3.28-1.56.18-2.74 3.45-1.17 9.13-.12 13.63-1.96-.21 1.55.12 1.62-.66 4.34Z"/>
    <path id="ad" d="M239.94 314.48c3.94.1 11.38.43 15.23-.63 3.86-1.07 3.89-3.12.42-3.28-4.12.26-11.8-.93-15.95-.93 1.68 2.55.52 2.89.3 4.84Z"/>
    <path id="ae" d="M240.31 319.28c-3.79-.35-12.17-.65-14.91-.6-.03-.44.91-2.48 2.98-3.23 3.6-1.31 9.24-1.01 11.66-.97.23 1.13-3.32 2.88.27 4.8Z"/>
    <path id="af" d="m227.09 316.24-2.23-2.5"/>
    <path id="ag" d="M211.78 318.44c-2.47.65-2.5 3.59-.49 4.2 2.01.62 10.44 1.46 13.97.5-.62-1.52-.88-2.78.14-4.33-3.37 0-11.14-1.02-13.62-.37Z"/>
    <path id="ah" d="M255.17 318.69c4.23.38 2.07 3.66.99 4.01-4.05.92-11.41 2.31-15.45 1.36.09-.69 1.08-3.04-.74-5.13 3.61-1.34 9.23-.32 15.2-.24Z"/>
    <path id="ai" d="M240.58 323.88c.02.7.1 1.81.25 3.34l-15.43-1.3c-.35-.9-.35-1.87 0-2.91 3.79-.51 11.32-.18 15.18.87Z"/>
    <path id="aj" d="M240.83 326.97c4.03 2.07.57 4.59-.31 4.82-5.14-2.98-15.13-1.64-15.82-.93-.94-1.45-1.92-3.78.7-4.88 5.39.45 12.27 1.21 15.43.99Z"/>
    <path id="ak" d="M224.27 330.37c-6.7.64-11.11.64-13.23 0-3.18-.96-1.78-3.6.49-3.59 1.52.01 5.7.16 12.55.44"/>
    <path id="al" d="M241.26 331.55c7.11 1.19 10.97.24 14.28-1.06 3.31-1.3 2.24-3.8-1.05-3.71-2.19-.22-6.23.15-12.11 1.12"/>
    <path id="am" d="M240.58 331.79c-.06.29.24.81-.27 1.17-.5.37-14.79.04-15.61 0-.54-.02-.54-.72 0-2.11"/>
    <path id="an" d="M225.91 336.16c-3.17.82-11.06 1.13-14.3.26-3.24-.86-2.59-4.61 1.34-3.99 2.56 1 6.36 2.66 11.32.71.58.97.59 2.2 1.64 3.02Z"/>
    <path id="ao" d="M255.2 333.14c1.66-1.54 4.37 2.97.72 4.06-3.65 1.08-7.84 2.78-15.31.27 0-1.01 1.26-1.7-1.07-4.33 5.03 2.45 13.67 2.36 15.66 0Z"/>
    <path id="ap" d="M273.41 347c3.32-4.5-2.78-7.71-5.09-7.81-2.31-.09-11.14 2.24-4.15 7.42"/>
    <path id="aq" d="M204.54 344.28c3.04-6.03-2.74-5.25-5.37-4.92-2.63.33-9.24 3.64-5.16 6.25"/>
    <path id="ar" d="M239.75 339.62c.11-1.09.72-.99.86-2.54-4.52-1.44-9.4-1.87-14.64-1.28l.5 2.77c6.94-.63 11.37-.28 13.28 1.05Z"/>
    <path id="as" d="M214.58 343.44c-3.17 1.69-5.03 3.74.6 3.66 2.39-.32 6.88-2.38 13.45-6.2l-2.32-2.49c-5.71 2.23-9.62 3.91-11.73 5.03Z"/>
    <path id="at" d="M254.74 343.24c5.75.71 1.7 4.11-.39 4.49-2.09.37-3.81-.47-5.53-.34-4.57.06-8.04-1.93-10.41-5.97.75-.27 1.27-.95 1.56-2.05 4.63 3.78 9.01 3.17 14.77 3.87Z"/>
    <path id="au" d="M238.41 341.49c-.19.51-1.41 1.72-2.13 2.11-1.92-1.44-3.76-1.57-5.53-.39-.91-1.08-1.54-1.86-1.89-2.33 4.69-1.31 7.7-.07 9.55.61Z"/>
    <path id="av" d="M230.54 343.07c-2.66 2.28-4.72 5.49-6.86 7.14-6.68 6.73-9.26 5.37-12.34 5.86-3.09.5-1.41-3.87 0-3.87 3.4-.44 5.78-1.81 7.19-2.77.73-.55 3.3-2.97 7.73-7.26"/>
    <path id="aw" d="M236.3 343.48c-1.41 3.25-2.41 4.6-3.01 4.04-.6-.55-1.52-1.99-2.75-4.31"/>
    <path id="ax" d="M241.08 344.48c.88 4.09.88 4.29 3.82 7.03 2.93 2.74 6.11 2.73 7.91 3.93 2.35 1.41 2.13 2.34-1.11 2.95-1.68.44-4.3-.14-5.64-1.18-3.88-3.35-7.06-7.93-9.52-13.73"/>
    <path id="ay" d="M202.6 376.26c1.97 1.19 3.34 1.9 4.11 2.11 1.16.31 1.3.17.5-.86-.79-1.03-2.96-2.18-3.67-3.26-.7-1.08-.76-1.18.85-1.05 1.62.12 4.24 1.48 5.61 1.55 1.37.08 1.25-.25.12-1.35-1.12-1.11-3.79-1.66-5.01-2.66-1.22-1-2.03-.9-.11-1.24 1.91-.34 5.67.46 7.37.12 1.71-.35 1.37-.51-.55-1.51-1.92-1-5.57-1.44-7.28-2.21-1.7-.76-1.99-.6 0-1 2-.4 6.19.79 7.83.15 1.64-.64 1.88-1.18.35-2.11-1.53-.93-5.08-.27-6.62-.9s-1.68-2.07-.7-2.06c.98.01 2.43.43 3.71.45 1.28.03 2.95-.92.21-1.75-1.84-.55-3.76-.6-5.78-.14"/>
    <path id="az" d="M260.71 380.1c-1.05.64-1.17.36-.35-.86.82-1.21 2.84-3.6 6.07-7.17-3.2 3.07-5.31 4.91-6.32 5.52-1.52.91-1.47.44-.75-1.11.47-1.02 2.2-3.4 5.17-7.12-3.62 3.42-5.93 5.31-6.93 5.67-1.5.54-1.39.85-.22-1.21.79-1.37 2.43-3.71 4.94-7.02-2.81 3.28-4.75 5.29-5.82 6.02-1.62 1.11-1.77 1.13-.66-1.6.75-1.83 2.45-4.94 5.12-9.34-.93.6-2.05.36-3.36-.7-1.97-1.59-.84-1.98 1.5-1.86 1.57.09 3.32.27 5.27.56"/>
    <path id="aA" d="M256.88 360.27c-1.55 2.02-42.22.86-46.17-.97"/>
    <path id="aB" d="M257.97 363.47c-4.33 2.3-42.71 1.37-44.95-.32"/>
    <path id="aC" d="M203.32 393.17c3.09 3.18 2.64-1.85 2.85-3.97.2-2.11-2.29-.72-2.23-4.88.21-2.54 1.09-2.91 2.66-1.11"/>
    <path id="aD" d="M208.17 395.48c-.66-2.19-.75-6.79-.26-13.81"/>
    <path id="aE" d="m208 388.04 1.65.1c.7-2.2 1.55-4.36 2.56-6.47"/>
    <path id="aF" d="M212.21 394.9c-1.68-2.28-2.61-4.54-2.81-6.76"/>
    <path id="aG" d="M217.18 396.84h-3.57v-14.06l4.83-.29"/>
    <path id="aH" d="m216.89 389.2-3.28.15"/>
    <path id="aI" d="M224.09 398h-4.35v-14.01"/>
    <path id="aJ" d="m232.06 399.25-5.41.15-.19-13.87 6.42.58"/>
    <path id="aK" d="M231.05 392.34h-4.59"/>
    <path id="aL" d="m234.38 390.99-1.69-.21"/>
    <path id="aM" d="M238.63 390.78c2.61-.05 1.84 2.41 1.84 3.48 0 1.06.4 2.78-.72 3.24-1.12.46-2.02 1.67-3.63 0-.34-7.68-.63-12.9 2.12-13.29 1.84-.26 2.58.85 2.23 3.33"/>
    <path id="aN" d="M243.17 390.99c.07-.66.86-.77 2.37-.36 3.09-5.7 2.24-7.91-2.56-6.64l-.63 15.19"/>
    <path id="aO" d="M248.05 398c1.21-7.76-1.11-6.53-2.51-7.22"/>
    <path id="aP" d="M251.09 395.95c.23 2.58 4.42 1.52 4.93-1.31.51-2.82.38-4.08.2-8.06-.19-3.99-3.56-4.84-4.26-1.05-.7 3.79-1.1 7.83-.87 10.42Z"/>
  </defs>
  <use xlink:href="#a" fill="#9b7647"/>
  <use xlink:href="#b" fill="#c89162"/>
  <use xlink:href="#c" fill="#ccc4ac"/>
  <use xlink:href="#d" fill="#c2a172"/>
  <use xlink:href="#e" fill="#f9f5ed"/>
  <use xlink:href="#f" fill="#9b7647"/>
  <use xlink:href="#g" fill="#9b7647"/>
  <use xlink:href="#h" fill="#5d3a19"/>
  <use xlink:href="#i" fill="#f9f5ed"/>
  <use xlink:href="#j" fill="#262626"/>
  <use xlink:href="#k" fill="#f9f5ed"/>
  <use xlink:href="#l" fill="#959595"/>
  <use xlink:href="#m" fill="#262626"/>
  <use xlink:href="#n" fill="#959595"/>
  <use xlink:href="#o" fill="#905544"/>
  <use xlink:href="#p" fill="#905544"/>
  <use xlink:href="#q" fill-opacity="0" stroke="#9e927c"/>
  <use xlink:href="#r" fill-opacity="0" stroke="#9e927c"/>
  <use xlink:href="#s" fill-opacity="0" stroke="#9e927c"/>
  <use xlink:href="#t" fill-opacity="0" stroke="#9e927c"/>
  <use xlink:href="#u" fill-opacity="0" stroke="#9e927c"/>
  <use xlink:href="#v" fill-opacity="0" stroke="#9e927c"/>
  <use xlink:href="#w" fill-opacity="0" stroke="#9e927c"/>
  <use xlink:href="#x" fill-opacity="0" stroke="#9e927c"/>
  <use xlink:href="#y" fill-opacity="0" stroke="#9e927c"/>
  <use xlink:href="#z" fill-opacity="0" stroke="#9e927c"/>
  <use xlink:href="#A" fill-opacity="0" stroke="#262626"/>
  <use xlink:href="#B" fill-opacity="0" stroke="#262626"/>
  <use xlink:href="#C" fill-opacity="0" stroke="#262626"/>
  <use xlink:href="#D" fill-opacity="0" stroke="#262626"/>
  <use xlink:href="#E" fill-opacity="0" stroke="#262626"/>
  <use xlink:href="#F" fill-opacity="0" stroke="#262626"/>
  <use xlink:href="#G" fill-opacity="0" stroke="#262626"/>
  <use xlink:href="#H" fill-opacity="0" stroke="#262626"/>
  <use xlink:href="#I" fill-opacity="0" stroke="#262626"/>
  <use xlink:href="#J" fill-opacity="0" stroke="#262626"/>
  <use xlink:href="#K" fill-opacity="0" stroke="#262626"/>
  <use xlink:href="#L" fill-opacity="0" stroke="#262626"/>
  <use xlink:href="#M" fill-opacity="0" stroke="#262626"/>
  <use xlink:href="#N" fill-opacity="0" stroke="#6b6b6b"/>
  <use xlink:href="#O" fill-opacity="0" stroke="#c5b9a4"/>
  <use xlink:href="#P" fill-opacity="0" stroke="#c5b9a4"/>
  <use xlink:href="#Q" fill-opacity="0" stroke="#c5b9a4"/>
  <use xlink:href="#R" fill-opacity="0" stroke="#c5b9a4"/>
  <use xlink:href="#S" fill-opacity="0" stroke="#c5b9a4"/>
  <use xlink:href="#T" fill-opacity="0" stroke="#c5b9a4"/>
  <use xlink:href="#U" fill-opacity="0" stroke="#c5b9a4"/>
  <use xlink:href="#V" fill-opacity="0" stroke="#c5b9a4"/>
  <use xlink:href="#W" fill-opacity="0" stroke="#c5b9a4"/>
  <use xlink:href="#X" fill-opacity="0" stroke="#c5b9a4"/>
  <use xlink:href="#Y" fill-opacity="0" stroke="#c5b9a4"/>
  <use xlink:href="#Z" fill-opacity="0" stroke="#c5b9a4"/>
  <use xlink:href="#aa" fill-opacity="0" stroke="#c5b9a4"/>
  <use xlink:href="#ab" fill-opacity="0" stroke="#c5b9a4"/>
  <use xlink:href="#ac" fill-opacity="0" stroke="#c5b9a4"/>
  <use xlink:href="#ad" fill-opacity="0" stroke="#c5b9a4"/>
  <use xlink:href="#ae" fill-opacity="0" stroke="#c5b9a4"/>
  <use xlink:href="#af" fill-opacity="0" stroke="#c5b9a4"/>
  <use xlink:href="#ag" fill-opacity="0" stroke="#c5b9a4"/>
  <use xlink:href="#ah" fill-opacity="0" stroke="#c5b9a4"/>
  <use xlink:href="#ai" fill-opacity="0" stroke="#c5b9a4"/>
  <use xlink:href="#aj" fill-opacity="0" stroke="#c5b9a4"/>
  <use xlink:href="#ak" fill-opacity="0" stroke="#c5b9a4"/>
  <use xlink:href="#al" fill-opacity="0" stroke="#c5b9a4"/>
  <use xlink:href="#am" fill-opacity="0" stroke="#c5b9a4"/>
  <use xlink:href="#an" fill-opacity="0" stroke="#c5b9a4"/>
  <use xlink:href="#ao" fill-opacity="0" stroke="#c5b9a4"/>
  <use xlink:href="#ap" fill-opacity="0" stroke="#c5b9a4"/>
  <use xlink:href="#aq" fill-opacity="0" stroke="#c5b9a4"/>
  <use xlink:href="#ar" fill-opacity="0" stroke="#c5b9a4"/>
  <use xlink:href="#as" fill-opacity="0" stroke="#c5b9a4"/>
  <use xlink:href="#at" fill-opacity="0" stroke="#c5b9a4"/>
  <use xlink:href="#au" fill-opacity="0" stroke="#c5b9a4"/>
  <use xlink:href="#av" fill-opacity="0" stroke="#c5b9a4"/>
  <use xlink:href="#aw" fill-opacity="0" stroke="#c5b9a4"/>
  <use xlink:href="#ax" fill-opacity="0" stroke="#c5b9a4"/>
  <use xlink:href="#ay" fill-opacity="0" stroke="#c5b9a4"/>
  <use xlink:href="#az" fill-opacity="0" stroke="#c5b9a4"/>
  <use xlink:href="#aA" fill-opacity="0" stroke="#c5b9a4"/>
  <use xlink:href="#aB" fill-opacity="0" stroke="#c5b9a4"/>
  <use xlink:href="#aC" fill-opacity="0" stroke="#1e1a0e"/>
  <use xlink:href="#aD" fill-opacity="0" stroke="#1e1a0e"/>
  <use xlink:href="#aE" fill-opacity="0" stroke="#1e1a0e"/>
  <use xlink:href="#aF" fill-opacity="0" stroke="#1e1a0e"/>
  <use xlink:href="#aG" fill-opacity="0" stroke="#1e1a0e"/>
  <use xlink:href="#aH" fill-opacity="0" stroke="#1e1a0e"/>
  <use xlink:href="#aI" fill-opacity="0" stroke="#1e1a0e"/>
  <use xlink:href="#aJ" fill-opacity="0" stroke="#1e1a0e"/>
  <use xlink:href="#aK" fill-opacity="0" stroke="#1e1a0e"/>
  <use xlink:href="#aL" fill-opacity="0" stroke="#1e1a0e"/>
  <use xlink:href="#aM" fill-opacity="0" stroke="#1e1a0e"/>
  <use xlink:href="#aN" fill-opacity="0" stroke="#1e1a0e"/>
  <use xlink:href="#aO" fill-opacity="0" stroke="#1e1a0e"/>
  <use xlink:href="#aP" fill-opacity="0" stroke="#1e1a0e"/>
</svg>
