<svg xmlns="http://www.w3.org/2000/svg" xmlns:xlink="http://www.w3.org/1999/xlink" width="262" height="262" viewBox="22.078 142.859 262 262">
  <defs>
    <path id="a" d="M22.08 142.86h262v262h-262v-262Z"/>
    <path id="b" d="m185.07 404.53-.68-15.66-3.49-2.23v-3.76h-2.66v-3.44l-1.9-.23v-7.71h2.24v-2.16h2.32v-8.3l1.83-3.44-3.76-13.19 1.56-45.22 19.31-77.24v-10.31l-2.63-11.55-6.3-3.85v-28.5l-1.35-8.24-5.95-11.11-3.08-2.31-8.95-.4-3.35 2.15-3.16 4.32v7.03l5.28 5.52 13.26 3.04-.48 46.24-3.67-3.75-2.64 2.63-6.47-3.35-1.05-5.2-7.35.24.24-13.11 1.76-1.52 1.12-12.22-10.15-14.78-4.39-2.31-5.83 2.95-6.39 16.83 3.59 11.66-.82 12.5-6.31.96-.72 4.31-6.79 3.04-2.23-1.84-4.64 4.87-.24 2-3.59-4.39 3.03-2.16-.87-8.55-3.12-.31-1.36-11.43-4.84.72-.27 9.43-3.83 3.11.42 6.54 3.68 3.76-1.92 9.98 5.94 19.16 4.47 2.63 2.96-1.04 3.78 93.61-3.52 12.06.56 12.22-2.39-.24v6.15h3.75l-.24 10.3h-4.07v5.91l-3.6 3.91v15.6l69.95-.33Z"/>
    <path id="c" d="m173.85 149.5-3.62 3.08-1.15 4.44 1.92 3.78 5.21 1.48 4.17-2.13v-6.26l-3.29-3.84-3.24-.55Z"/>
    <path id="d" d="M180.8 386.25c-11.87 2.29-32.59 2.02-62.14-.8"/>
    <path id="e" d="M176.09 379.06c-15.12 2.07-32.8 2.15-53.04.24"/>
    <path id="f" d="M176.33 371.71c-21.97 1.92-38.36 2-52.96-.96"/>
    <path id="g" d="M136.35 363.85c-1.64.07-6.46-.14-14.46-.64"/>
    <path id="h" d="M147.17 363.21c6.5-.29 17.71.43 33.63 2.14"/>
    <path id="i" d="M118.16 202.8c-1.06-.45-2.07-.49-3.04-.13-1.45.54-2.67.84-2.77 2.29-.1 1.46 1.5 2.52 2.57 2.91.71.26 1.27-.19 1.69-1.35l1.55 1.55"/>
    <path id="j" d="M108.43 202.06c1.76 3.11 2.64 5.27 2.64 6.48 0 1.83-1.35 1.91-2.1 1.09-.5-.56-1.72-2.36-3.67-5.41"/>
    <path id="k" d="M113.57 207.13c.27 2.34-.66 2.65-2.77.94"/>
    <path id="l" d="M112.2 204.29v-12.77"/>
    <path id="m" d="M147.1 162.96c2.53 14.61.42 22.22-6.35 22.83"/>
    <path id="n" d="M163.99 185.79c-6.76-2.75-10.66-10.83-11.7-24.22"/>
    <path id="o" d="M162.15 191.13c-2.72-3.39-9.42-3.25-20.1.41"/>
    <path id="p" d="M160.38 192.17h-14.7"/>
    <path id="q" d="M153.44 208.42v-16.25"/>
    <path id="r" d="M190.32 176.84c-.94 1.27-3.21 1.21-6.81-.18"/>
    <path id="s" d="M190.95 180.06c-1.78.79-4.13.79-7.03 0"/>
    <path id="t" d="M190.41 190.45c-1.61.91-3.9.83-6.9-.23"/>
    <path id="u" d="M179.25 301.73c7.62-31.66 13.71-55.07 18.25-70.24 2.22-16.65 2.26-26.93.12-30.85l-.59-.46-.59-.59-.5-.41-.5-.4-.68-.55-.63-.41-.59-.36-.68-.36-.73-.41-.72-.32-.59-.23-.64-.18-.63-.13-.78-.09-.63-.05-.64-.09h-.72l-.64.18-.59.27-.59.27-.45.46-.23.59v.63l.46.5.77.18.72.05h.64l.68.05h.73l.68.04.77.09"/>
    <path id="v" d="m184.28 198.09-.18.64-.04.68.18.68.31.64.46.45 1 .14.81.09.73.04.63.05.64.04.73.05.68.04.63.05.64.09"/>
    <path id="w" d="m184.65 201-.5.86-.14.68.23.68.41.5.59.41.59.23.72.13.82.14.63.09h.64l.68.09h.68l.77.09.77.09"/>
    <path id="x" d="m184.51 204.08-.18.64-.05.63.14.68.41.5.54.32.59.23.64.18.68.14.63.13.64.14.72.09.77.23.69.13.63.09"/>
    <path id="y" d="M175.96 360.81c3.08.12 4.26-1.22 3.54-4.03l-5.19-12.92c10.74-88.54 15.71-133.1 14.91-133.7-.79-.6-1.26-1.32-1.4-2.16"/>
    <path id="z" d="m169.23 315.17-3.47 28.95c3.68 5.84 6.28 9.62 7.8 11.34 1.52 1.72 2.2 4.89 2.04 9.49"/>
    <path id="A" d="M163.02 359.86c3.68-3.64 7.1-4.6 10.26-2.88l1.03-13.6"/>
    <path id="B" d="M163.8 363.4c3.92-4.2 7.68-5.46 11.28-3.78"/>
    <path id="C" d="M163.02 355.6c2.72-2.16 5.46-3.16 8.22-3"/>
    <path id="D" d="M163.32 348.4c2.4-.52 4.18-.32 5.34.6"/>
    <path id="E" d="M163.02 345.94c1.24-.32 2.61-.16 4.11.48"/>
    <path id="F" d="m184.06 205.51-.7 9.12-14.7 133.93"/>
    <path id="G" d="M199.2 209.29c-1.73 1.2-5.06 1.5-9.98.9"/>
    <path id="H" d="M199.2 211.81c-2.41.84-5.74 1.2-9.98 1.08"/>
    <path id="I" d="M199.2 214.33c-3.69 1.04-7.02 1.18-9.98.42"/>
    <path id="J" d="M198.79 219.8c-5.48-.24-8.78-1-9.9-2.29"/>
    <path id="K" d="M198.79 221c-3.96 1.16-7.36.76-10.2-1.2"/>
    <path id="L" d="M198.79 223.88c-4.96.6-8.48.2-10.56-1.2"/>
    <path id="M" d="M197.71 230.96c-4.92-.52-8.22-2.2-9.89-5.04"/>
    <path id="N" d="M195.55 238.47c-2.08 3.12-5.2 4.58-9.37 4.38"/>
    <path id="O" d="M186.84 239.07c10.93-1.92 5.21-7.88.94-9.55"/>
    <path id="P" d="M150.18 212.92c8.11-.82 10.49-.72 16.69-.56 4.13.12 6.83.52 8.1 1.23v5.94c0 .78-.67 1.39-1.44 1.32-5.05-.4-10.72-.53-16.99-.37-6.46.16-13.56.63-21.28 1.4a.962.962 0 0 1-1.06-1c.05-1.05.12-2.49.16-3.38a2.46 2.46 0 0 1 1.91-2.29c4.5-1.05 9.14-1.81 13.91-2.29Z"/>
    <path id="Q" d="M140.93 213.83c-1.56-1.17-2.12-4.31-1.68-9.43-2.01.52-3.49 1.79-4.44 3.81-.31 2.14-.41 5-.3 8.56"/>
    <path id="R" d="M163.56 212.36c2.2-.84 2.76-3.5 1.68-7.96 1.52-.39 2.74-.2 3.66.59.96 1.31 1.66 3.73 2.1 7.26"/>
    <path id="S" d="m165.42 204.4-3.66.59c-6.32 4.43-12.64 4.31-18.97-.35-.72-.33-1.84-.33-3.36 0"/>
    <path id="T" d="M159.28 363.21V220.72"/>
    <path id="U" d="M162.5 363.54V220.72"/>
    <path id="V" d="m148.86 363.21-.47-142.49"/>
    <path id="W" d="M136.35 363.87c4.57 2.4 8.06 2.29 10.48-.33l-.63-142.82"/>
    <path id="X" d="m133.3 358.52-7.98 4.88"/>
    <path id="Y" d="m136.35 363.87 5.24-4.14 4.67 2.86"/>
    <path id="Z" d="m132.99 363.4 7.98-7.26 5.66 2.76"/>
    <path id="aa" d="M135.12 313.84c2.64 22.03 2.64 35.36 0 39.99-2.63 4.63-3.24 7.67-1.82 9.13"/>
    <path id="ab" d="M134.83 354.74c4.59-2.88 8.52-3.1 11.8-.65"/>
    <path id="ac" d="M136.35 351.27c1.88-2.43 5.3-3.48 10.28-3.15"/>
    <path id="ad" d="M136.16 350.36c1.74-3.81 5.3-5.46 10.67-4.93"/>
    <path id="ae" d="m172.02 315.47-5.17-12.18 3.84-8.82 3.46 2.13-4.14 6.69 2.92 8.4-.91 3.78Z"/>
    <path id="af" d="m162.5 315.17 3.07 2.79 5.84-5.05"/>
    <path id="ag" d="m162.77 311.94 2.68 2.37 4.2-4.5"/>
    <path id="ah" d="m163.02 308.89 2.49 2.01 3.15-2.86"/>
    <path id="ai" d="m133.19 295.99-2.25 1.16 5.23 10.1-5.23 6.09 2.43 2.13 6.27-9.07-6.45-10.41Z"/>
    <path id="aj" d="M132.85 358.15c-5.47-2.88-5.43-8.14.14-15.77l-.44-27.75"/>
    <path id="ak" d="m146.63 317.96-4.14 2.54-6.57-8.77"/>
    <path id="al" d="m146.27 313.5-3.96 2.31-5.21-5.6"/>
    <path id="am" d="m146.27 310.51-2.8 1.89-4.87-4.36"/>
    <path id="an" d="m139.15 305.4 3.89-3.67 3.59 2.09"/>
    <path id="ao" d="m146.27 300.41-4.99-1.58-3.29 4.02"/>
    <path id="ap" d="m146.27 296.88-4.99-3.47-5.36 6.39"/>
    <path id="aq" d="m162.77 303.56 2.06-1.44 1.77 1.82"/>
    <path id="ar" d="m162.77 300.35 2.67-1.34 2.19 2.25"/>
    <path id="as" d="m162.77 298.4 2.67-2.19 2.92 3.11"/>
    <path id="at" d="M132.88 285.42v10.57"/>
    <path id="au" d="m170.37 285.06-.24 10.59"/>
    <path id="av" d="m143.04 253.9-.67 4.01-1.28 5.85-1.03 5.41-.67 3.9-.24 5.96.24 6.03h-5.23l.54-9.79.92-7.07 2.61-8.76 1.59-5.73-2.86-1.88-4.93 14.54v4.2l-.55 5.97-.18 6.08-.36 2.62 15.33.18"/>
    <path id="aw" d="M145.96 254.02h-2.92l-3.14-.31"/>
    <path id="ax" d="m131.54 282.56 14.91.25v-3.9l-14.91.25.18-4.26 7.43 1.27 7.12-.24.18-3.17h-7.06l-7.36-1.58v-4.2l8.21 2.56 6.39.36-.36-3.46-5.6-.67-7.79-2.32 1.15-2.98 7.06 3.35 5.36-.37v-2.61l-4.62.18-6.7-3.05.97-2.73 6.03 2.73 4.14-.66"/>
    <path id="ay" d="m172.56 285.06.37-3.22v-12.42l-1.17-4.24-4.46-13.51-4.8 2.56v1.68h3.71l1.9-.67 1.02 2.27-1.83.88-4.8.51v2.78l5.61-.37 2.02-1.39.9 2.78-2.19 2.12-6.34.36v3.29l6.92-.58 2.49-1.83.65 2.96-2.7 2.37-7.36.22v3.21h7.63l2.8-1.82v4.03l-2.8 1.89h-7.63v2.92h10.43l-.37 3.22-10.06-.15"/>
    <path id="az" d="m165.57 252.76 2.39 8.77 1.97 9.79.32 13.74h-3.65v-13.74l-3.09-17.3"/>
    <path id="aA" d="m146.27 250.84-5.85-.22-4.31-2.19.95 3.4"/>
    <path id="aB" d="m131.95 230.1.29-1.83 5.46-.51 8.26-4.16v2.32l-8.09 3.89-5.63.29.22.86 3.51.89 3.72-.58 6.27-3.29"/>
    <path id="aC" d="m167.28 251.36-1.29-2.05-3.49 2.05"/>
    <path id="aD" d="M172.64 220.97c1.07 4.43-1.1 13.88-6.51 28.34"/>
    <path id="aE" d="M166.88 230.96c.1 7.54-1.02 14.09-3.37 19.67"/>
    <path id="aF" d="M132.17 230.96c1.36 8.03 2.68 13.93 3.94 17.7"/>
    <path id="aG" d="M136.11 231.85c.59 5.46 1.58 11.42 2.98 17.9"/>
    <path id="aH" d="M140.2 231.19c.2 6.58 1.11 13.06 2.73 19.44"/>
    <path id="aI" d="M162.82 228.44c4.89 3.58 7.95 4.08 9.19 1.51"/>
    <path id="aJ" d="M162.65 226.23c3.95 3.53 7.27 3.92 9.98 1.18"/>
    <path id="aK" d="M162.5 224.31c4.97 3.72 8.44 3.72 10.4 0"/>
    <path id="aL" d="m172.01 230.62 8.68 6.94"/>
    <path id="aM" d="M174.97 220.72c4.93 1 7.86-4.39 8.48-5.91-1.73-.26-3.13-1.78-4.2-4.56-3.02 2.96-4.45 6.46-4.28 10.47Z"/>
    <path id="aN" d="m182.44 223.21-2.15-3.55"/>
    <path id="aO" d="M180.29 220.05c-2.25 4.29-4.71 6.99-7.39 8.12"/>
    <path id="aP" d="M182.16 225.58c-1.73 3.46-4.29 5.88-7.67 7.27"/>
    <path id="aQ" d="M116.86 214.24c-2.09 1.06-4.67 1.31-7.75.74"/>
    <path id="aR" d="M117.18 216.09c-1.84 1.7-4.73 2.03-8.65.98"/>
    <path id="aS" d="M118.93 218.22c-1.95 1.66-5.41 2.31-10.4 1.96"/>
    <path id="aT" d="M131.67 225.7c-6.11.16-8.28-2.23-11.09-3.5-3.44 1.94-7.72 2.86-12.85 2.76"/>
    <path id="aU" d="M120.79 225.71c-2.8 1.56-6.88 2.44-12.26 2.64"/>
    <path id="aV" d="M122.22 230.64c-2.76 2.19-6.65 3.62-11.68 4.3"/>
    <path id="aW" d="M116.38 235.79c-.52 3.52-.95 9.31 1.65 10.13 2.12-.55 8.54-4.35 8.76-6.84.14-1.67-1.38-4.37-4.57-8.12-2.13 1.4-4.08 3-5.84 4.83Z"/>
    <path id="aX" d="M115.99 236.85c-.87.28-2.51.48-4.92.58"/>
    <path id="aY" d="M115.99 239.61c-1.61.74-3.02.99-4.23.74"/>
    <path id="aZ" d="M115.99 242.1c.02.82-.98 1.21-3 1.17"/>
    <path id="ba" d="M122.22 230.96c-1.73-8.32-2.12-13.05-1.17-14.19 1.88-1 3.29-2.85 4.25-5.56"/>
    <path id="bb" d="M121.21 217.07c5.92 6.76 9.38 6.39 12.42 4.54-1.26-1.05-4.04-4.47-8.33-10.24"/>
    <path id="bc" d="M132.17 230.27c-2.5.35-6.03-.57-10.59-2.76"/>
    <path id="bd" d="M126.88 238.44c4.09-1.69 5.69-6.92 4.79-15.67"/>
  </defs>
  <use xlink:href="#a" fill="#9b7647"/>
  <use xlink:href="#b" fill="#545454"/>
  <use xlink:href="#c" fill="#9b7647"/>
  <use xlink:href="#d" fill-opacity="0" stroke="#2d2d2d"/>
  <use xlink:href="#e" fill-opacity="0" stroke="#2d2d2d"/>
  <use xlink:href="#f" fill-opacity="0" stroke="#2d2d2d"/>
  <use xlink:href="#g" fill-opacity="0" stroke="#2d2d2d"/>
  <use xlink:href="#h" fill-opacity="0" stroke="#2d2d2d"/>
  <use xlink:href="#i" fill-opacity="0" stroke="#2d2d2d"/>
  <use xlink:href="#j" fill-opacity="0" stroke="#2d2d2d"/>
  <use xlink:href="#k" fill-opacity="0" stroke="#2d2d2d"/>
  <use xlink:href="#l" fill-opacity="0" stroke="#2d2d2d"/>
  <use xlink:href="#m" fill-opacity="0" stroke="#2d2d2d"/>
  <use xlink:href="#n" fill-opacity="0" stroke="#2d2d2d"/>
  <use xlink:href="#o" fill-opacity="0" stroke="#2d2d2d"/>
  <use xlink:href="#p" fill-opacity="0" stroke="#2d2d2d"/>
  <use xlink:href="#q" fill-opacity="0" stroke="#2d2d2d"/>
  <use xlink:href="#r" fill-opacity="0" stroke="#2d2d2d"/>
  <use xlink:href="#s" fill-opacity="0" stroke="#2d2d2d"/>
  <use xlink:href="#t" fill-opacity="0" stroke="#2d2d2d"/>
  <use xlink:href="#u" fill-opacity="0" stroke="#2d2d2d"/>
  <use xlink:href="#v" fill-opacity="0" stroke="#2d2d2d"/>
  <use xlink:href="#w" fill-opacity="0" stroke="#2d2d2d"/>
  <use xlink:href="#x" fill-opacity="0" stroke="#2d2d2d"/>
  <use xlink:href="#y" fill-opacity="0" stroke="#2d2d2d"/>
  <use xlink:href="#z" fill-opacity="0" stroke="#2d2d2d"/>
  <use xlink:href="#A" fill-opacity="0" stroke="#2d2d2d"/>
  <use xlink:href="#B" fill-opacity="0" stroke="#2d2d2d"/>
  <use xlink:href="#C" fill-opacity="0" stroke="#2d2d2d"/>
  <use xlink:href="#D" fill-opacity="0" stroke="#2d2d2d"/>
  <use xlink:href="#E" fill-opacity="0" stroke="#2d2d2d"/>
  <use xlink:href="#F" fill-opacity="0" stroke="#2d2d2d"/>
  <use xlink:href="#G" fill-opacity="0" stroke="#2d2d2d"/>
  <use xlink:href="#H" fill-opacity="0" stroke="#2d2d2d"/>
  <use xlink:href="#I" fill-opacity="0" stroke="#2d2d2d"/>
  <use xlink:href="#J" fill-opacity="0" stroke="#2d2d2d"/>
  <use xlink:href="#K" fill-opacity="0" stroke="#2d2d2d"/>
  <use xlink:href="#L" fill-opacity="0" stroke="#2d2d2d"/>
  <use xlink:href="#M" fill-opacity="0" stroke="#2d2d2d"/>
  <use xlink:href="#N" fill-opacity="0" stroke="#2d2d2d"/>
  <use xlink:href="#O" fill-opacity="0" stroke="#2d2d2d"/>
  <use xlink:href="#P" fill-opacity="0" stroke="#2d2d2d"/>
  <use xlink:href="#Q" fill-opacity="0" stroke="#2d2d2d"/>
  <use xlink:href="#R" fill-opacity="0" stroke="#2d2d2d"/>
  <use xlink:href="#S" fill-opacity="0" stroke="#2d2d2d"/>
  <use xlink:href="#T" fill-opacity="0" stroke="#2d2d2d"/>
  <use xlink:href="#U" fill-opacity="0" stroke="#2d2d2d"/>
  <use xlink:href="#V" fill-opacity="0" stroke="#2d2d2d"/>
  <use xlink:href="#W" fill-opacity="0" stroke="#2d2d2d"/>
  <use xlink:href="#X" fill-opacity="0" stroke="#2d2d2d"/>
  <use xlink:href="#Y" fill-opacity="0" stroke="#2d2d2d"/>
  <use xlink:href="#Z" fill-opacity="0" stroke="#2d2d2d"/>
  <use xlink:href="#aa" fill-opacity="0" stroke="#2d2d2d"/>
  <use xlink:href="#ab" fill-opacity="0" stroke="#2d2d2d"/>
  <use xlink:href="#ac" fill-opacity="0" stroke="#2d2d2d"/>
  <use xlink:href="#ad" fill-opacity="0" stroke="#2d2d2d"/>
  <use xlink:href="#ae" fill-opacity="0" stroke="#2d2d2d"/>
  <use xlink:href="#af" fill-opacity="0" stroke="#2d2d2d"/>
  <use xlink:href="#ag" fill-opacity="0" stroke="#2d2d2d"/>
  <use xlink:href="#ah" fill-opacity="0" stroke="#2d2d2d"/>
  <use xlink:href="#ai" fill-opacity="0" stroke="#2d2d2d"/>
  <use xlink:href="#aj" fill-opacity="0" stroke="#2d2d2d"/>
  <use xlink:href="#ak" fill-opacity="0" stroke="#2d2d2d"/>
  <use xlink:href="#al" fill-opacity="0" stroke="#2d2d2d"/>
  <use xlink:href="#am" fill-opacity="0" stroke="#2d2d2d"/>
  <use xlink:href="#an" fill-opacity="0" stroke="#2d2d2d"/>
  <use xlink:href="#ao" fill-opacity="0" stroke="#2d2d2d"/>
  <use xlink:href="#ap" fill-opacity="0" stroke="#2d2d2d"/>
  <use xlink:href="#aq" fill-opacity="0" stroke="#2d2d2d"/>
  <use xlink:href="#ar" fill-opacity="0" stroke="#2d2d2d"/>
  <use xlink:href="#as" fill-opacity="0" stroke="#2d2d2d"/>
  <use xlink:href="#at" fill-opacity="0" stroke="#2d2d2d"/>
  <use xlink:href="#au" fill-opacity="0" stroke="#2d2d2d"/>
  <use xlink:href="#av" fill-opacity="0" stroke="#2d2d2d"/>
  <use xlink:href="#aw" fill-opacity="0" stroke="#2d2d2d"/>
  <use xlink:href="#ax" fill-opacity="0" stroke="#2d2d2d"/>
  <use xlink:href="#ay" fill-opacity="0" stroke="#2d2d2d"/>
  <use xlink:href="#az" fill-opacity="0" stroke="#2d2d2d"/>
  <use xlink:href="#aA" fill-opacity="0" stroke="#2d2d2d"/>
  <use xlink:href="#aB" fill-opacity="0" stroke="#2d2d2d"/>
  <use xlink:href="#aC" fill-opacity="0" stroke="#2d2d2d"/>
  <use xlink:href="#aD" fill-opacity="0" stroke="#2d2d2d"/>
  <use xlink:href="#aE" fill-opacity="0" stroke="#2d2d2d"/>
  <use xlink:href="#aF" fill-opacity="0" stroke="#2d2d2d"/>
  <use xlink:href="#aG" fill-opacity="0" stroke="#2d2d2d"/>
  <use xlink:href="#aH" fill-opacity="0" stroke="#2d2d2d"/>
  <use xlink:href="#aI" fill-opacity="0" stroke="#2d2d2d"/>
  <use xlink:href="#aJ" fill-opacity="0" stroke="#2d2d2d"/>
  <use xlink:href="#aK" fill-opacity="0" stroke="#2d2d2d"/>
  <use xlink:href="#aL" fill-opacity="0" stroke="#2d2d2d"/>
  <use xlink:href="#aM" fill-opacity="0" stroke="#2d2d2d"/>
  <use xlink:href="#aN" fill-opacity="0" stroke="#2d2d2d"/>
  <use xlink:href="#aO" fill-opacity="0" stroke="#2d2d2d"/>
  <use xlink:href="#aP" fill-opacity="0" stroke="#2d2d2d"/>
  <use xlink:href="#aQ" fill-opacity="0" stroke="#2d2d2d"/>
  <use xlink:href="#aR" fill-opacity="0" stroke="#2d2d2d"/>
  <use xlink:href="#aS" fill-opacity="0" stroke="#2d2d2d"/>
  <use xlink:href="#aT" fill-opacity="0" stroke="#2d2d2d"/>
  <use xlink:href="#aU" fill-opacity="0" stroke="#2d2d2d"/>
  <use xlink:href="#aV" fill-opacity="0" stroke="#2d2d2d"/>
  <use xlink:href="#aW" fill-opacity="0" stroke="#2d2d2d"/>
  <use xlink:href="#aX" fill-opacity="0" stroke="#2d2d2d"/>
  <use xlink:href="#aY" fill-opacity="0" stroke="#2d2d2d"/>
  <use xlink:href="#aZ" fill-opacity="0" stroke="#2d2d2d"/>
  <use xlink:href="#ba" fill-opacity="0" stroke="#2d2d2d"/>
  <use xlink:href="#bb" fill-opacity="0" stroke="#2d2d2d"/>
  <use xlink:href="#bc" fill-opacity="0" stroke="#2d2d2d"/>
  <use xlink:href="#bd" fill-opacity="0" stroke="#2d2d2d"/>
</svg>
