<svg xmlns="http://www.w3.org/2000/svg" xmlns:xlink="http://www.w3.org/1999/xlink" width="262" height="262" viewBox="32.7 107.804 262 262">
  <defs>
    <path id="a" d="M32.7 107.8h262v262h-262v-262Z"/>
    <path id="b" d="M106.23 124.62h25.22l-.35 245.18h-23.01l-1.86-245.18Z"/>
    <path id="c" d="M131.45 131.4h20.98l-.33 238.4h-21.04l.39-238.4Z"/>
    <path id="d" d="m152.43 137.91 19.43.51-.32 231.38h-19.49l.38-231.89Z"/>
    <path id="e" d="M171.86 145.05h19.51l1.71 224.75h-21.6l.38-224.75Z"/>
    <path id="f" d="m198.38 346.85 1.71-.26v-2.89h1.36l.34-9.89h-3.41l.35-5.97h11.59l11.73-20.6-11.94-41.64 2.52-74.63-9.21 7.58-11.82-2.72v-12.02l8.18-17.47-3.58-4.35 9.55-8.84 8.59-.36.51-9.89 4.18 6.06 1.88-5.46-.68-18.42 2.3.26.34-3.34 3.92-.77v-2.97l3.07-.76v-9.38h3.84v10.14l3.92.77.18 2.2 3.33.77v2.81l3.41 1.45-2.86 17.45 2.48 4.61 1.88-3.24 2.81 7.41 7.39.66 4.94 4.43 4.01 1.28-2.88 4.01.75 5.88 22.08 3.15-9.01 58.86-11.97 27.51.42 8.27-7.3 16.98-8.61 8.23-2.9 17.64 8.44 12.63-1.96 6.99h6.48v6.22l-2.73 2.13v5.88h1.02v4.27h1.71l.34 7.41h3.58l-.34 10.92-20.63 3.75-32.06-.26-16.54-4.35v-12.1l4.61-2.3.69-3.73Z"/>
    <path id="g" d="M259.08 354.86c-5.45-3.8-25.8-5.42-61.04-4.86"/>
    <path id="h" d="M256.58 343.41c-10.92-1.93-29.41-1.73-55.5.6"/>
    <path id="i" d="M256.32 337.02c-5.57-3.86-23.9-4.97-54.99-3.32"/>
    <path id="j" d="M217.5 327.67c-1.86-4.51-4.17-4.51-6.93 0"/>
    <path id="k" d="M221.73 327.67c-.05-3.89-2.51-6.32-7.36-7.28"/>
    <path id="l" d="M228.56 328.35c-2.78-7.34-7.11-10.86-13-10.58"/>
    <path id="m" d="M227.66 325.98c.39-7.95-2.99-11.73-10.16-11.34"/>
    <path id="n" d="M228.32 314.61c-1.93-3.32-5.02-4.02-9.29-2.08"/>
    <path id="o" d="M253.88 321.24c-2.7.23-4.99 2.59-6.85 7.11"/>
    <path id="p" d="M251.68 318.36c-4.34.29-7.61 3.5-9.81 9.65"/>
    <path id="q" d="M249.91 316.76c-6.21.17-10.92 3.92-14.13 11.25"/>
    <path id="r" d="M249.32 314.61c-2.94-2.38-7.22-1.44-12.86 2.82"/>
    <path id="s" d="M246.18 310.41c-2.65-1.18-5.89-.73-9.72 1.35"/>
    <path id="t" d="M228.43 210.42h8.03v113.87l-3.56 4.73-4.82-5.5.35-113.1Z"/>
    <path id="u" d="m232.27 210.42.44 118.6"/>
    <path id="v" d="M250.85 234.67c-.53 6.5-1.12 12.26-1.77 17.27.97 3.28 6.75 5.33.24 12.09-.12 6.66-.42 15.94-.92 27.84"/>
    <path id="w" d="M214.64 279.17c-.59-5.13-.93-10.18-1.01-15.14-5.71-9.22-.38-11.21.51-14.64.08-5.05.08-10.26 0-15.65"/>
    <path id="x" d="M228.08 210.42c-11.33-1.19-15.72.82-16.57 22.64 3.05 1.06 8.57 1.29 16.57.68"/>
    <path id="y" d="M236.73 210.42c14.8.33 15.38 14.27 14.89 23.65-2.42.73-7.47.62-15.16-.33"/>
    <path id="z" d="M245.86 213.58c2.82-2.99 4.33-4.9 4.53-5.75-6.98-6.09-38.82-5.08-38.54 0 .31.62 1.58 2.54 3.81 5.75"/>
    <path id="A" d="M248.91 210.42c-12.8-4.53-24.83-4.72-36.07-.56"/>
    <path id="B" d="M235.8 177.48c0 1.95-1.89 3.62-4.07 3.56-2.17-.07-4.31-1.61-4.31-3.56 0-1.94 2.14-3.95 4.31-3.89 2.18.06 4.07 1.95 4.07 3.89Z"/>
    <path id="C" d="M228.08 203.63v-2.37h6.7v-3.47h-6.7v-3.81h6.7v-4.06h-6.7v-3.05h6.7v-3.8h-6.7v-3.13"/>
    <path id="D" d="M228.08 203.88V179"/>
    <path id="E" d="M234.78 203.63v-23.95"/>
    <path id="F" d="M215.08 205.38c.37-4.35-.51-9.26-2.65-14.73"/>
    <path id="G" d="M247.94 206.42c-.38-4.79.63-8.91 3.02-12.37"/>
    <path id="H" d="M230.56 163.83c7.8-.95 10.53 3 12.94 7.08.99 2.2.34 6.04-3.68 6.7-7.71-8.01-10.56-3.05-12.4-4.02-4.39-4.18-.88-9.09 3.14-9.76Z"/>
    <path id="I" d="M243.91 173.94c6.69 2.27 12.44 4.72 17.26 7.37 7.21 3.96 6.89 9.16 6.7 11.14-5.1 9.63-12.91 9.19-14.26 6.99-.9-1.47-5.49-8.74-13.78-21.83"/>
    <path id="J" d="M260.41 181.31c-.88 3.27-4.22 7.52-10.02 12.74"/>
    <path id="K" d="M256.73 179.23c-1.14 3.46-4.09 7.11-8.87 10.95"/>
    <path id="L" d="M268.15 191.44c1.33-2.87-.31-8.71-4.91-17.5l-11.52 1.42-.47-3.12 11.52-.47-.38-4.34-11.14 2.07"/>
    <path id="M" d="m251.72 176.77-1.04-9.72"/>
    <path id="N" d="m263.34 174.32-.76-2.64"/>
    <path id="O" d="m241.24 167.05 6.99-14.54"/>
    <path id="P" d="m243.13 170.26 19.45-7.84"/>
    <path id="Q" d="m243.13 163.68 19.83-7.49"/>
    <path id="R" d="M228.08 173.94c-11.03 11.69-18.67 19.36-22.92 23.01-9.67 4.52-16.31-3.07-10.48-10.58 4.52-4.19 14.9-10.39 31.16-18.6"/>
    <path id="S" d="M209.32 193.17c-3.91-1.45-7.46-4.83-10.67-10.13"/>
    <path id="T" d="M212.43 190.18c-5.22-3.31-8.43-6.53-9.63-9.66"/>
    <path id="U" d="M209.98 176.23c-.51-2.58.45-5.64 2.86-9.18"/>
    <path id="V" d="m207.62 177.31-12.66-.54"/>
    <path id="W" d="M209.85 173.21c-2.29-.88-6.5-1.48-12.62-1.8"/>
    <path id="X" d="M211.02 169.81c-2.52-2.14-6.3-3.06-11.34-2.76"/>
    <path id="Y" d="m221.5 170.26-25.5-8.48"/>
    <path id="Z" d="M224.52 168.4 214.13 153"/>
    <path id="aa" d="m221.5 164.43-19.08-8.24"/>
    <path id="ab" d="m227.73 165.28-13.03-22.19"/>
    <path id="ac" d="m236.04 164.05 10.2-18.32"/>
    <path id="ad" d="m241.89 143.37-9.82 14.54-10.86-14.54"/>
    <path id="ae" d="m242.37 137.49-10.76 10.01-10.96-9.44"/>
    <path id="af" d="m243.91 130.79-12.3 7.46-10.59-5.67"/>
    <path id="ag" d="m244.25 126.63-12.64 7.28-11.25-8.69"/>
    <path id="ah" d="m233.3 117.57-3.59-.28"/>
    <path id="ai" d="M231.61 133.91v-16.62"/>
    <path id="aj" d="M231.61 147.22v-8.97"/>
    <path id="ak" d="m93.89 226.91 1.05 78.94 7.49 11.46-2.93 7.1 2.7 2.64-3.08 5.33v5.14l-3.92 4.63-.26 3.28 3.85 2.95-.45 4.69 4.5 2.45.2 13.81-64.75.14-.16-15.04 2.34-.51.13-8.68 2.64-1.15-.52-7.2-2.83-1.8 1.03-4.63-4.3-3.79 7.01-10.17-5.5-134.82 5.72-11.5 9.31-3.9-1.79-11.57h5.46l-2.83-7.9 3.21-7.97 9.77-7.26 10.29 7.66 1.41 6.89-2.86 7.89 7.43-.34-1.83 11.55 12.47 2.06 3.89 9.73 8.45.91-12.34 48.98Z"/>
    <path id="am" d="m78.08 145.6-21.9.37"/>
    <path id="al" d="M77.86 145.44c-7.38 2.77-14.47 2.95-21.25.53"/>
    <path id="an" d="M78.24 145.44c-17.16 9.43-12.8 3.6-22.54.53"/>
    <path id="ao" d="M77.7 145.6c-12.04 12.89-14.15 8.34-22 .75"/>
    <path id="ap" d="M60.07 167.98c3.49 1.24 7.89 1.19 13.21-.16-1.2-5.44.53-12.9 5.17-22.38-10.4 13.53-12.24 14.51-23.76 1.49 4.19 5.74 5.42 16.57 5.38 21.05Z"/>
    <path id="aq" d="M57.41 145.97v-6.98"/>
    <path id="ar" d="M60.44 145.6v-9.54"/>
    <path id="as" d="m63 145.6-.16-10.44"/>
    <path id="at" d="m65.02 145.6-.1-13.34"/>
    <path id="au" d="m68.54 145.6.32-12.12"/>
    <path id="av" d="m71.58 145.6-.38-10.57"/>
    <path id="aw" d="m74.51 145.6-.16-8.44"/>
    <path id="ax" d="M76.69 145.6v-5.83"/>
    <path id="ay" d="M66.7 171.68c-7.91-3.15-12.59-11.11-12.38-16.73"/>
    <path id="az" d="M68.86 172.74c7.07-2.34 11.06-8.5 11.99-18.48"/>
    <path id="aA" d="M63.8 175.57c-7.42-5.08-11.44-12.03-12.04-20.83"/>
    <path id="aB" d="M82.66 154.26c-.21 10.4-4.44 17.51-12.68 21.31"/>
    <path id="aC" d="M69.64 183.3c-4.15-6.31-5.43-5.34-5.84-8.03-.41-2.69 2.03-4.26 4.21-2.73 2.17 1.53 1.44 2.96 4.47 8.85 4.29 5.34 6.11 8.05 12.67 12.51-2.71 3.9-5.24 7.12-9.55 8.35-.33-6.2-3.01-12.2-5.96-18.95Z"/>
    <path id="aD" d="M48.62 197.58c5.86-2.84 11.28-9.43 16.27-19.77"/>
    <path id="aE" d="M68.72 182.03c-3.78 13.24-7.37 22.91-10.76 29-5.1 9.14-13.89 6.01-14.59 1.42-.69-4.59-.07-22.16 0-29.18 5.32-1.4 7.76-1.26 10.94 0-.94 1.97-1 5.24-.18 9.83"/>
    <path id="aF" d="M55.72 167.98c-7.32 1.46-11.42 6.54-12.29 15.24"/>
    <path id="aG" d="M75.58 201.98c1.01 7.03 1.72 10.98 2.13 11.85.61 1.31 5.45 7.02 10.16.6s5.94-29.55 5.84-32.4c-1.35-1.05-7.63-2.16-10.81-.59.46 2.36.04 5.53-1.26 9.51"/>
    <path id="aH" d="M93.72 182.03c1.64-8.87-2.9-14.14-13.61-15.8"/>
    <path id="aI" d="m66.59 207.56.44-20.15"/>
    <path id="aJ" d="m73.85 207.95-.21-14.75"/>
    <path id="aK" d="M69.81 224.36c3.62.06 7.05-4.53 7.05-9.01 0-4.48-2.94-8.79-7.05-8.9-4.11-.11-7.42 4.21-7.42 8.68 0 4.48 3.8 9.18 7.42 9.23Z"/>
    <path id="aL" d="M94.62 226.07c1.81-18.09 5.82-48.55-1.57-58.62"/>
    <path id="aM" d="M83.81 217.42c3.11 7.83 4.54 15.82 4.27 23.98-2.73-2.43-4.36-5.23-9.88-5.75.55-4.7.78-11.45.69-20.24"/>
    <path id="aN" d="M62.97 218.86c-1.42 7.74-1.99 13.86-1.71 18.35-2.56.72-7.05 1.73-11.86 7.5-1.25-3.57.2-13.22 4.37-28.93"/>
    <path id="aO" d="m74.29 222.26-3.2 111.6h-6.52l1.7-110.9"/>
    <path id="aP" d="M51.58 331.76c-4.21-4.13-4.93-10.57-5.4-12.64-.48-2.06 3.34-16.45 3.81-19.47.48-3.02-2.72-19.68-3.19-23.34-.32-2.44 1.4-13.81 5.17-34.12"/>
    <path id="aQ" d="M87.27 240.29c4.46 38.67 6.5 62.94 6.13 72.79 4.29 7.1 3.52 13.62-2.31 19.56"/>
    <path id="aR" d="M99.28 332.12c-7.95.64-56.8 6.44-62.16-6.04"/>
    <path id="aS" d="M95.62 342.96c-12.08-.55-43.76 7.3-52.94-5.96"/>
    <path id="aT" d="M40.77 346.22c9.81 5.88 27.74 5.73 53.82-.47"/>
    <path id="aU" d="M40.77 353.14c6.79 5.72 25.78 5.48 57-.72"/>
  </defs>
  <use xlink:href="#a" fill="#9b7647"/>
  <use xlink:href="#b" fill="#04798d"/>
  <use xlink:href="#c" fill="#d2a464"/>
  <use xlink:href="#d" fill="#175e6f"/>
  <use xlink:href="#e" fill="#2e8086"/>
  <use xlink:href="#f" fill="#545454"/>
  <use xlink:href="#g" fill-opacity="0" stroke="#2d2d2d"/>
  <use xlink:href="#h" fill-opacity="0" stroke="#2d2d2d"/>
  <use xlink:href="#i" fill-opacity="0" stroke="#2d2d2d"/>
  <use xlink:href="#j" fill-opacity="0" stroke="#2d2d2d"/>
  <use xlink:href="#k" fill-opacity="0" stroke="#2d2d2d"/>
  <use xlink:href="#l" fill-opacity="0" stroke="#2d2d2d"/>
  <use xlink:href="#m" fill-opacity="0" stroke="#2d2d2d"/>
  <use xlink:href="#n" fill-opacity="0" stroke="#2d2d2d"/>
  <use xlink:href="#o" fill-opacity="0" stroke="#2d2d2d"/>
  <use xlink:href="#p" fill-opacity="0" stroke="#2d2d2d"/>
  <use xlink:href="#q" fill-opacity="0" stroke="#2d2d2d"/>
  <use xlink:href="#r" fill-opacity="0" stroke="#2d2d2d"/>
  <use xlink:href="#s" fill-opacity="0" stroke="#2d2d2d"/>
  <use xlink:href="#t" fill-opacity="0" stroke="#2d2d2d"/>
  <use xlink:href="#u" fill-opacity="0" stroke="#2d2d2d"/>
  <use xlink:href="#v" fill-opacity="0" stroke="#2d2d2d"/>
  <use xlink:href="#w" fill-opacity="0" stroke="#2d2d2d"/>
  <use xlink:href="#x" fill-opacity="0" stroke="#2d2d2d"/>
  <use xlink:href="#y" fill-opacity="0" stroke="#2d2d2d"/>
  <use xlink:href="#z" fill-opacity="0" stroke="#2d2d2d"/>
  <use xlink:href="#A" fill-opacity="0" stroke="#2d2d2d"/>
  <use xlink:href="#B" fill-opacity="0" stroke="#2d2d2d"/>
  <use xlink:href="#C" fill-opacity="0" stroke="#2d2d2d"/>
  <use xlink:href="#D" fill-opacity="0" stroke="#2d2d2d"/>
  <use xlink:href="#E" fill-opacity="0" stroke="#2d2d2d"/>
  <use xlink:href="#F" fill-opacity="0" stroke="#2d2d2d"/>
  <use xlink:href="#G" fill-opacity="0" stroke="#2d2d2d"/>
  <use xlink:href="#H" fill-opacity="0" stroke="#2d2d2d"/>
  <use xlink:href="#I" fill-opacity="0" stroke="#2d2d2d"/>
  <use xlink:href="#J" fill-opacity="0" stroke="#2d2d2d"/>
  <use xlink:href="#K" fill-opacity="0" stroke="#2d2d2d"/>
  <use xlink:href="#L" fill-opacity="0" stroke="#2d2d2d"/>
  <use xlink:href="#L" fill-opacity="0" stroke="#2d2d2d"/>
  <use xlink:href="#M" fill-opacity="0" stroke="#2d2d2d"/>
  <use xlink:href="#N" fill-opacity="0" stroke="#2d2d2d"/>
  <use xlink:href="#O" fill-opacity="0" stroke="#2d2d2d"/>
  <use xlink:href="#P" fill-opacity="0" stroke="#2d2d2d"/>
  <use xlink:href="#Q" fill-opacity="0" stroke="#2d2d2d"/>
  <use xlink:href="#R" fill-opacity="0" stroke="#2d2d2d"/>
  <use xlink:href="#S" fill-opacity="0" stroke="#2d2d2d"/>
  <use xlink:href="#T" fill-opacity="0" stroke="#2d2d2d"/>
  <use xlink:href="#U" fill-opacity="0" stroke="#2d2d2d"/>
  <use xlink:href="#V" fill-opacity="0" stroke="#2d2d2d"/>
  <use xlink:href="#W" fill-opacity="0" stroke="#2d2d2d"/>
  <use xlink:href="#X" fill-opacity="0" stroke="#2d2d2d"/>
  <use xlink:href="#Y" fill-opacity="0" stroke="#2d2d2d"/>
  <use xlink:href="#Z" fill-opacity="0" stroke="#2d2d2d"/>
  <use xlink:href="#aa" fill-opacity="0" stroke="#2d2d2d"/>
  <use xlink:href="#ab" fill-opacity="0" stroke="#2d2d2d"/>
  <use xlink:href="#ac" fill-opacity="0" stroke="#2d2d2d"/>
  <use xlink:href="#ad" fill-opacity="0" stroke="#2d2d2d"/>
  <use xlink:href="#ae" fill-opacity="0" stroke="#2d2d2d"/>
  <use xlink:href="#af" fill-opacity="0" stroke="#2d2d2d"/>
  <use xlink:href="#ag" fill-opacity="0" stroke="#2d2d2d"/>
  <use xlink:href="#ah" fill-opacity="0" stroke="#2d2d2d"/>
  <use xlink:href="#ai" fill-opacity="0" stroke="#2d2d2d"/>
  <use xlink:href="#aj" fill-opacity="0" stroke="#2d2d2d"/>
  <use xlink:href="#ak" fill="#545454"/>
  <g fill-opacity="0" stroke="#2d2d2d">
    <use xlink:href="#al"/>
    <use xlink:href="#am"/>
    <use xlink:href="#al"/>
    <use xlink:href="#an"/>
    <use xlink:href="#ao"/>
    <use xlink:href="#ap"/>
    <use xlink:href="#aq"/>
    <use xlink:href="#ar"/>
    <use xlink:href="#as"/>
    <use xlink:href="#at"/>
    <use xlink:href="#au"/>
    <use xlink:href="#av"/>
    <use xlink:href="#aw"/>
    <use xlink:href="#ax"/>
    <use xlink:href="#ay"/>
    <use xlink:href="#az"/>
    <use xlink:href="#aA"/>
    <use xlink:href="#aB"/>
    <use xlink:href="#aC"/>
    <use xlink:href="#aD"/>
    <use xlink:href="#aE"/>
    <use xlink:href="#aF"/>
    <use xlink:href="#aG"/>
    <use xlink:href="#aH"/>
    <use xlink:href="#aI"/>
    <use xlink:href="#aJ"/>
    <use xlink:href="#aK"/>
    <use xlink:href="#aL"/>
    <use xlink:href="#aM"/>
    <use xlink:href="#aN"/>
    <use xlink:href="#aO"/>
    <use xlink:href="#aP"/>
    <use xlink:href="#aQ"/>
    <use xlink:href="#aR"/>
    <use xlink:href="#aS"/>
    <use xlink:href="#aT"/>
    <use xlink:href="#aU"/>
  </g>
</svg>
