<svg xmlns="http://www.w3.org/2000/svg" xmlns:xlink="http://www.w3.org/1999/xlink" width="262" height="262" viewBox="40.242 51.502 262 262">
  <defs>
    <path id="a" d="M40.24 51.5h262v262h-262v-262Z"/>
    <path id="b" d="M102.61 285.59v-15.25L57.4 241.45l6.83-12.65-23.43-21.7-.56-20.61 7.11-13.99 8.84-6.82 38.38-21.15 18.29-1.75 20.8 4.05 3.05-25.75-7.14 2.44 1.12-33.87 3.66-9.87 12.29-11.53-15.34-13.24.61-2.87 16.2 13.3.79-6.62 7.84-5.4 9.41 2.96 3.05 8.19.26 11.06 6.99 6.09-2.87 3.45 5.75 5.17-.96 5.49-7.13-6.18-4.89 7.23.43 40.85 12.2 14.11.78-4.53 4.88-3.57-3.22-2.52 5.22-5.06-2.52-4.7 3.92-2.79-2.53-3.48 4.62-2.35-2.53-5.49 5.05-1.22-1.91-6.01 2.79-1.13v-4.53l3.65-1.22-.52-4.1 5.12-1.18-1.01-5.05 5.5 3.15-2.92-12.35 6.4 5.16 9.2.56v-9.65l6.06 5.39 1.81 5.99 5.73 3.48 3.54-1.46 2.74 2.25v5.61l7.07 8.19 7.48 3.37 3.07 7.07-4.15 7.52h-8.53v1.79l3.93 5.17h-3.37l-1.01 11-6.96-3.48-5.5 5.16.63 23.43 10.14 26.56 15.82-1.8 5.27 4.6-1.44 9.32 11.44 10.55.68 5.5-6.51 15.6-9.7 8.62-3.81-3.59 1.57-5.61-18.86 10.66h-13.91l9.31-18.18 6.96-.34 3.81 3.59 4.05-1.91 2.02-19.53-25.45 14.5-3.48.39-10.21-7.9-10.33 7.9H154.4l-13.25-9.09-15.04 9.09-22.33 20.58 44.33 41.07 6.6 22.17H76.93v-28.02l25.68.6Z"/>
    <path id="c" d="m69.81 182.17-5.75 3.65 4.27 8.89 13.15 6.88-6.36 11.24-11.76-4.01-5.4-13.41 3.66-16.64 19.34-16.47-11.15 19.87Z"/>
    <path id="d" d="m110.82 131.23 2.01-7.22 3.94-2.91 7.82 1.35 3.72 8.26-4.31 6.48-7.9-.3-5.28-5.66Z"/>
    <path id="e" d="m257.95 229.01 5.22.18-.38-6.1-3.77-1.95-1.07 7.87Z"/>
    <path id="f" d="m225.13 122.07-.37 7.17 10.81 2.51-10.44-9.68Z"/>
    <path id="g" d="M254.49 122.24c-3.28-3.24-3.28-5.23 0-5.95"/>
    <path id="h" d="M244.64 120.67c1.28 1.2.94 4.15-.39 5.41-1.33 1.27-3.84 1.01-4.92-.34-1.08-1.36-1.48-2.62-.2-4.48 1.28-1.86 4.24-1.8 5.51-.59Z"/>
    <path id="i" d="M251.58 127.12c-1.51-3.09-3.6-4.11-6.3-3.06"/>
    <path id="j" d="M237.31 100.65c0 .95-.95 1.75-1.92 1.87-.97.12-1.82-.68-1.82-1.63 0-.94.85-2.04 1.82-2.16.97-.12 1.92.97 1.92 1.92Z"/>
    <path id="k" d="M238.64 99.02c-1.77-4.39-4.54-4.61-8.32-.64"/>
    <path id="l" d="m238.64 101.47-1.88 2.63c-.53.73-1.6.81-2.23.16-.6-.62-2.1-2.17-4.5-4.66"/>
    <path id="m" d="M240.76 119.93c-13.29-5.01-18.06-7.87-19.69-15.9-.92-4.57 1.11-7.57 6.11-9 .96-.28 1.54-1.26 1.32-2.23-.02-.09-.07-.29-.14-.63"/>
    <path id="n" d="M221.02 100.84c4.14 2.19 7.18 1.64 9.14-1.68"/>
    <path id="o" d="M221.52 105.17c6.06-.2 9.61-1.28 10.62-3.25"/>
    <path id="p" d="M252.72 113.24c-3.94 2.16-9.19-.92-15.75-9.26"/>
    <path id="q" d="M228.31 114.47c.92-2.73 3.42-5.98 7.53-9.77"/>
    <path id="r" d="M232.69 116.58c.06-3.34 2.15-6.67 6.25-9.99"/>
    <path id="s" d="M240.27 119.54c.03-3.06 1.5-5.58 4.42-7.58"/>
    <path id="t" d="M244.3 120.22c.2-3.34 1.82-5.49 4.87-6.44"/>
    <path id="u" d="M238.33 122.53c-1.34 2.53-4.07 3.74-8.17 3.64"/>
    <path id="v" d="M239.25 125.29c-1.68 2.23-3.53 3.54-5.56 3.94"/>
    <path id="w" d="M222.78 93.66c-2.81-2.68-3.81-6.91-3-12.7 1.7.96 5.42 3.05 6.64 12.2"/>
    <path id="x" d="M220.32 90.06c-3.81.86-7.04.48-9.7-1.13"/>
    <path id="y" d="M236.66 132.09c-4.23-5.02-8.24-8.61-12.01-10.78-5.66-3.26-10.54-10.64-9.45-15.85 1.1-5.2 2.25-4.61 2.22-10.87"/>
    <path id="z" d="M206.64 96.75c-1.42-6.64-2.33-10.75-2.7-12.35 6.38 6.8 10.79 9.88 13.23 9.26"/>
    <path id="A" d="m215.97 102.42-15.11-8.91"/>
    <path id="B" d="m214.84 108.27-17.77-8.95"/>
    <path id="C" d="m191.51 110.11 23.43 9.43-1.38-6.78 2.26-1.47"/>
    <path id="D" d="m194.41 104.45 19.2 8.27"/>
    <path id="E" d="m188.47 118.06 24.56 8.66v-7.92"/>
    <path id="F" d="M224.95 129.47v-7.88"/>
    <path id="G" d="M169.1 133.76c27.4-12.48 55.23-4.88 74.53.47-.12 3.32-1 6.51-.98 10-15.82-6.26-36.86-20.23-75.56-8.01"/>
    <path id="H" d="M234.46 177.81c-1.21-5.58-1.73-6.02-.84-9.03-13.07-2.71-27.53-7.34-43.39-13.91a4.382 4.382 0 0 0-5.14 1.39c-.83 1.09-1.64 1.98-2.44 2.65 17.03 7.75 32.32 14.48 51.81 18.9Z"/>
    <path id="I" d="m230.85 167.92-1.04-29.29"/>
    <path id="J" d="m230.33 146.23 5.71-5"/>
    <path id="K" d="m213.03 160.65.93-27.15"/>
    <path id="L" d="M213.96 137.34c3.91 4.18 3.75 7.8-.46 10.84 3.61 6.21 2.81 11.02-2.39 14.42"/>
    <path id="M" d="M214.55 163.5c3.94-4.09 4.48-8.96 1.62-14.61 3.64-3.22 3.57-8.24-.19-15.06"/>
    <path id="N" d="m213.5 143.24-28.82-10.9"/>
    <path id="O" d="m213.03 150.32-30.62-10.13"/>
    <path id="P" d="m212.67 158.11-31.76-11.03"/>
    <path id="Q" d="M169.45 91.79c.5-2.8 2.65-5.97 6.44-9.51.13-.12.34-.04.36.13.16 1.61-.15 3.15-.92 4.64"/>
    <path id="R" d="M170.38 84.03c2.33-1.53 3.8-2.49 4.38-2.87a.649.649 0 0 1 1.01.54v.73"/>
    <path id="S" d="M169.58 82.32c2.05-1.59 3.34-2.58 3.86-2.98.27-.21.66-.04.69.3.03.22.09.79.18 1.7"/>
    <path id="T" d="M167.5 81.05c2.23-1.59 3.62-2.59 4.17-2.98.41-.3.98-.03 1.02.47.01.16.04.57.09 1.23"/>
    <path id="U" d="M167.03 92.88c-1.23-2.32-3.32-3.59-6.27-3.82.31-2.1-.94-4.48.95-7.47 2.45-.05 3.57-.64 3.35-1.78 2.36-1.87 3.84-3.04 4.43-3.51.5-.4 1.24-.07 1.29.57.02.24.07.84.14 1.81"/>
    <path id="V" d="M170.38 88.44c-2.65-3.28-5.25-4.97-7.8-5.06"/>
    <path id="W" d="M160.76 86.47c2.36-.68 5.25.83 8.69 4.52"/>
    <path id="X" d="M165.67 79.08c-7.86-6.64-13.6-11.28-17.23-13.95 1.67-3.01 1.71-8.36 8.09-11.25 7.84 1.25 10.08 3.04 11.47 7.68.93 3.1 1.41 7.95 1.45 14.57l-3.78 2.95Z"/>
    <path id="Y" d="M160.53 66.82c2.92 0 5.83 1.92 8.74 5.75"/>
    <path id="Z" d="M156.2 71.55c1.75-4.05 1.6-6.67-.47-7.86-.05-1.17-.07-1.91-.06-2.22.04-.88.53-1.69 1.3-2.12.27-.16.32-.18.71-.4.39-.22.87-.22 1.27 0 1.28.72 4.48 2.53 9.59 5.43"/>
    <path id="aa" d="M169.7 91.34c-12 17.8-18.5 25.97-39.68 31.74-.4-6.34-1.04-17.56.51-28.59 1.03-7.35 2.92-12.53 5.68-15.54 5.39-5.61 8.77-9.12 10.12-10.52.08-.09.22-.1.31-.02 2.05 1.72 7.18 6.02 15.39 12.9"/>
    <path id="ab" d="M138.38 110.02c3.47-4.61 10.93-11.69 22.38-21.24"/>
    <path id="ac" d="M156.24 108.56c-5.9-1.62-7.19-5.04-7.36-9.29"/>
    <path id="ad" d="M133.89 116.43c-.91-.28-2.31-.84-4.18-1.67l-.17-5.09c1.96-3.18 3.59-5.23 4.91-6.16 1.97-1.39 9.47-.96 10.85-1.01 3.59 10.55-9.02 11.72-11.41 13.93Z"/>
    <path id="ae" d="m144.54 102.48 7.26-17.39"/>
    <path id="af" d="M158.39 90.45c-2.68-14.68-5.31-18.27-17.41-16.55"/>
    <path id="ag" d="M148.88 88.44c-2.88-3.97-7.9-5.93-15.06-5.9"/>
    <path id="ah" d="M147.54 91.79c-2.29-4.25-7.23-6.45-14.83-6.59"/>
    <path id="ai" d="M147.09 95.28c-4.41-4.51-9.64-6.26-15.69-5.25"/>
    <path id="aj" d="M143.96 208.93c4.48-9.32 9.03-15.01 13.64-17.07 16.03-7.54 20.48-11.96 25.28-16.93 4.79-4.97 2.02-8.49.48-13.37-1.96-6.32-8.85-15-17.34-23.98 1.64-4.89 1.56-18.5-.24-40.83"/>
    <path id="ak" d="m134.88 150.32 1.85-29.22"/>
    <path id="al" d="M136.73 193c1.06-5.65 3.14-12.64 6.24-20.97 8.82-19.62-2.68-34.7-6.04-50.93"/>
    <path id="am" d="M180.72 155.71c-3.96-2.65-7.2-3.13-9.74-1.44-7.23-7.47-25.77-19.14-32.07-26.25"/>
    <path id="an" d="M146.93 135.28c6.58-1.14 13-.5 19.26 1.91"/>
    <path id="ao" d="M138.09 125.76c16.45-.21 21.88 3.1 27.34 11.17"/>
    <path id="ap" d="M175.33 148.44c-3.64-2.84-8.03-3.38-13.18-1.65"/>
    <path id="aq" d="M174.62 182.16c.45-6.53-3.34-7.57-5.34-8.02-2.01-.45-4.73 4.52-6.51.48-.64-1.44.08-3.58 1.06-5.72.98-2.14-3.59-4.23.24-8.19 3.83-3.97 4.64-2.8 7.95-.55 3.31 2.24 5.95 5.57 11.31 1.85"/>
    <path id="ar" d="M146.45 203.89c-7.92-1.29-10.99-4.53-15.42-7.89 8.11-3.42 23.95-22.94 31.96-24.94"/>
    <path id="as" d="M136.31 213.51c-3.28-2.66-6.07-5.01-8.36-7.06-2.3-2.04-.81-5.24 4.45-9.59"/>
    <path id="at" d="M174.77 182.5c-12.54 15.62-20.56 25.14-24.06 28.58-3.49 3.44-5.12 7.41-4.87 11.92-5.99-4.15-10.04-7.06-12.13-8.7 9.88-3.61 19.71-12.04 29.47-25.29"/>
    <path id="au" d="M150.33 211.87c4.4 7.95 7.12 12.84 8.16 14.66 1.56 2.75-1.53 3.38-4.11 1.85-1.73-1.01-4.63-3.11-8.71-6.3"/>
    <path id="av" d="M185.39 199.2c-5.9 5.07-16.41 7.84-31.53 8.29"/>
    <path id="aw" d="M208.35 220.53c-8.77 13.31-30.17 8.13-47.91 8"/>
    <path id="ax" d="M251.4 211.58c-10.43 6.46-18.38 11.28-23.86 14.46-8.2 4.76-11.36.29-13.36-1.3-2.01-1.6-15.27-12.08-18.44-16.38"/>
    <path id="ay" d="M223.02 249.75c3.79-1.59 6.74-7.35 8.84-17.27"/>
    <path id="az" d="M235.78 249.95c3.88-3.33 4.91-9.27 3.08-17.82"/>
    <path id="aA" d="M240.98 241.39c4.39-.46 7.18-3.02 8.37-7.68"/>
    <path id="aB" d="M255.53 240.39c1.6 1.19 2.22 3.93 1.85 8.23"/>
    <path id="aC" d="M261.9 229.91c3.75 4.02 5.14 7.67 4.18 10.96"/>
    <path id="aD" d="M264.85 233.26c3.24-2.42 3.66-6 1.23-10.76"/>
    <path id="aE" d="m259.92 220.47 1.43-11.31"/>
    <path id="aF" d="M231.86 213.49c11.26-14.05 18.22-10.82 23.83-11.24"/>
    <path id="aG" d="M239.22 185.76c.54 1.24-.12 2.38-1.99 3.43l-2.19-5.76c2.23.32 3.63 1.1 4.18 2.33Z"/>
    <path id="aH" d="M209.18 191.47c2.33-.07 4.67-3.16 4.59-5.9-.09-2.74-2.61-5.14-4.94-5.07-2.33.07-4.47 2.6-4.38 5.35.08 2.74 2.39 5.68 4.73 5.62Z"/>
    <path id="aI" d="M181.05 176.8c6 8.26 8.61 15.73 7.84 22.41 16.39-.39 21.79 4.23 26.45 6.44 6.54-6.66 14.9-10.7 25.09-12.13"/>
    <path id="aJ" d="M241.02 197.29c-11.05 1.7-19.02 6.43-23.92 14.19-4.88-1.8-16.95-11.33-30.98-8.5.15-11.18-2.3-19.29-7.34-24.33"/>
    <path id="aK" d="m188.86 194.07 17-25.22"/>
    <path id="aL" d="m210.74 170.84-16.05 28.65"/>
    <path id="aM" d="m216.7 172.62-4.19 31.66"/>
    <path id="aN" d="m219.5 201.82 2.12-27.56"/>
    <path id="aO" d="M120.3 120.65c4.43-13.09 5.55-23.15 3.35-30.2-2.21-7.05.26-19.61 7.39-37.7"/>
    <path id="aP" d="m120.3 130.21-.73-5.95"/>
    <path id="aQ" d="m116.59 125.75-2.01-6.96"/>
    <path id="aR" d="m114.02 126.43-2.73-2.73"/>
    <path id="aS" d="m114.99 129.73-6.11-2.01"/>
    <path id="aT" d="m117.48 133.02-5.87 3.91"/>
    <path id="aU" d="m123.43 125.75 3.21-6.31"/>
    <path id="aV" d="m132.51 133.02-6.84-3.7"/>
    <path id="aW" d="m127.45 136.16-2.42-3.14"/>
    <path id="aX" d="m122.94 140.58-1.76-6.35"/>
    <path id="aY" d="M127.89 129.73c-.21 4.42-3.88 7.67-7.96 8.06-4.07.39-8.54-4.05-8.32-8.47.22-4.41 3.56-8.44 7.63-8.83 4.07-.39 8.87 4.82 8.65 9.24Z"/>
    <path id="aZ" d="M103.06 174.94c2.51 0 4.95-2.51 4.95-5.23 0-2.71-2.44-5.43-4.95-5.43-2.51 0-5.08 2.72-5.08 5.43 0 2.72 2.57 5.23 5.08 5.23Z"/>
    <path id="ba" d="M40.47 187.02c1.96-10.58 15.02-21.62 29.25-28.7 8.89-4.42 17.79-13.1 33.02-15.16 9.13-1.23 24.77 2.23 32.14 4.61"/>
    <path id="bb" d="M65 207.75c-1.38-1.81-3.37-5.78-5.95-11.91-3.19-22.86 9.21-19.8 27.2-38.54s38.98-6.48 55.96-7.18c1.16 8.19-1.52 22.87-8.06 44.05"/>
    <path id="bc" d="M101.91 147.78c-.95-.74-.78-2.27.52-4.61"/>
    <path id="bd" d="M95.56 150.05c-1.78-1-2.32-2.6-1.63-4.8"/>
    <path id="be" d="M89.59 154.07c-3.5-.35-4.69-2.14-3.57-5.39"/>
    <path id="bf" d="M83.62 159.71c-3.89 0-5.81-2.05-5.77-6.16"/>
    <path id="bg" d="M77.51 165.21c-3.46-1.26-5.64-3.74-6.55-7.46"/>
    <path id="bh" d="M57.4 168.77c6.19-4.79 10.64-6.87 13.36-6.22"/>
    <path id="bi" d="M49.18 178.26c-2.25 1.42-4.5 6.03-6.74 13.81"/>
    <path id="bj" d="M54.89 208.02c-3.29-4.02-2.83-12.75 1.36-26.2"/>
    <path id="bk" d="M70.96 166.45c-20.15 5.01-21.02 19.83-24.31 35.35"/>
    <path id="bl" d="M40.74 206.71c15.37 16.23 21.35 27.04 40.46 22.11-1.96-15.11-6.4-18.53-19.78-21.85"/>
    <path id="bm" d="M59.22 210.66c3.2-1.81 6.33-.15 9.4 5"/>
    <path id="bn" d="M63.05 223.11c1.03 1.82 3.5 2.79 7.39 2.92"/>
    <path id="bo" d="M74.26 220.32c-14.26 1.56-24.36-8.69-33.52-21.01"/>
    <path id="bp" d="M127.09 203.1c-10.52-3.06-19.7-1.69-24.71-.32-10.13-2.92-26.86-7.62-35.02-18.36-1.86.62-2.17.7-3.3 1.88 4.24 15.65 29.61 16.42 39.49 24.38 6.72-4.85 16.35-4.98 28.9-.39"/>
    <path id="bq" d="M67.27 184.42c1.81-.3 6.46-7.73 13.93-22.29"/>
    <path id="br" d="M109.48 146.95c-19.13 5.38-24.51 25.07-35.79 43.72"/>
    <path id="bs" d="M114.19 146.76c-18.62 5.91-23.47 22.78-33.45 48.11"/>
    <path id="bt" d="m119.3 147.39-15.57 55.12"/>
    <path id="bu" d="m123.51 148.04-10.18 53.17"/>
    <path id="bv" d="m74.96 212.83 6.74-11.62"/>
    <path id="bw" d="M72.39 251.02c-14.11-6.52-15.53-12.27-8.02-22.56"/>
    <path id="bx" d="M140.6 219.49c-16.6 9.53-29.04 19.55-37.33 30.05 18.91 16.93 47.57 38.48 48.77 53.48-5.43.66-15.09 1-24.7-1.18 1.49-3.39 1.48-8.13-.04-14.22a10.01 10.01 0 0 0-4.56-6.17c-9.98-6.02-37.25-22.46-47.45-28.62a2.83 2.83 0 0 1-.94-3.93c12.05-19.27 21.24-32.39 27.56-39.37"/>
    <path id="by" d="M144.34 287.72c-3.99 2.57-9.52 3.5-16.58 2.78"/>
    <path id="bz" d="M127.34 286.55c-9.11 1.74-17.42 2.24-24.92 1.49 2.47-7.87 2.47-13.86 0-17.96"/>
    <path id="bA" d="M111.19 274.35c-1.14.79-3.39 1.18-6.74 1.18"/>
  </defs>
  <use xlink:href="#a" fill="#9b7647"/>
  <use xlink:href="#b" fill="#545454"/>
  <use xlink:href="#c" fill="#9b7647"/>
  <use xlink:href="#d" fill="#545454"/>
  <use xlink:href="#e" fill="#9b7647"/>
  <use xlink:href="#f" fill="#9b7647"/>
  <use xlink:href="#g" fill-opacity="0" stroke="#2d2d2d"/>
  <use xlink:href="#h" fill-opacity="0" stroke="#2d2d2d"/>
  <use xlink:href="#i" fill-opacity="0" stroke="#2d2d2d"/>
  <use xlink:href="#j" fill-opacity="0" stroke="#2d2d2d"/>
  <use xlink:href="#k" fill-opacity="0" stroke="#2d2d2d"/>
  <use xlink:href="#l" fill-opacity="0" stroke="#2d2d2d"/>
  <use xlink:href="#m" fill-opacity="0" stroke="#2d2d2d"/>
  <use xlink:href="#n" fill-opacity="0" stroke="#2d2d2d"/>
  <use xlink:href="#o" fill-opacity="0" stroke="#2d2d2d"/>
  <use xlink:href="#p" fill-opacity="0" stroke="#2d2d2d"/>
  <use xlink:href="#q" fill-opacity="0" stroke="#2d2d2d"/>
  <use xlink:href="#r" fill-opacity="0" stroke="#2d2d2d"/>
  <use xlink:href="#s" fill-opacity="0" stroke="#2d2d2d"/>
  <use xlink:href="#t" fill-opacity="0" stroke="#2d2d2d"/>
  <use xlink:href="#u" fill-opacity="0" stroke="#2d2d2d"/>
  <use xlink:href="#v" fill-opacity="0" stroke="#2d2d2d"/>
  <use xlink:href="#w" fill-opacity="0" stroke="#2d2d2d"/>
  <use xlink:href="#x" fill-opacity="0" stroke="#2d2d2d"/>
  <use xlink:href="#y" fill-opacity="0" stroke="#2d2d2d"/>
  <use xlink:href="#z" fill-opacity="0" stroke="#2d2d2d"/>
  <use xlink:href="#A" fill-opacity="0" stroke="#2d2d2d"/>
  <use xlink:href="#B" fill-opacity="0" stroke="#2d2d2d"/>
  <use xlink:href="#C" fill-opacity="0" stroke="#2d2d2d"/>
  <use xlink:href="#D" fill-opacity="0" stroke="#2d2d2d"/>
  <use xlink:href="#E" fill-opacity="0" stroke="#2d2d2d"/>
  <use xlink:href="#F" fill-opacity="0" stroke="#2d2d2d"/>
  <use xlink:href="#G" fill-opacity="0" stroke="#2d2d2d"/>
  <use xlink:href="#H" fill-opacity="0" stroke="#2d2d2d"/>
  <use xlink:href="#I" fill-opacity="0" stroke="#2d2d2d"/>
  <use xlink:href="#J" fill-opacity="0" stroke="#2d2d2d"/>
  <use xlink:href="#K" fill-opacity="0" stroke="#2d2d2d"/>
  <use xlink:href="#L" fill-opacity="0" stroke="#2d2d2d"/>
  <use xlink:href="#M" fill-opacity="0" stroke="#2d2d2d"/>
  <use xlink:href="#N" fill-opacity="0" stroke="#2d2d2d"/>
  <use xlink:href="#O" fill-opacity="0" stroke="#2d2d2d"/>
  <use xlink:href="#P" fill-opacity="0" stroke="#2d2d2d"/>
  <use xlink:href="#Q" fill-opacity="0" stroke="#2d2d2d"/>
  <use xlink:href="#R" fill-opacity="0" stroke="#2d2d2d"/>
  <use xlink:href="#S" fill-opacity="0" stroke="#2d2d2d"/>
  <use xlink:href="#T" fill-opacity="0" stroke="#2d2d2d"/>
  <use xlink:href="#U" fill-opacity="0" stroke="#2d2d2d"/>
  <use xlink:href="#V" fill-opacity="0" stroke="#2d2d2d"/>
  <use xlink:href="#W" fill-opacity="0" stroke="#2d2d2d"/>
  <use xlink:href="#X" fill-opacity="0" stroke="#2d2d2d"/>
  <use xlink:href="#Y" fill-opacity="0" stroke="#2d2d2d"/>
  <use xlink:href="#Z" fill-opacity="0" stroke="#2d2d2d"/>
  <use xlink:href="#aa" fill-opacity="0" stroke="#2d2d2d"/>
  <use xlink:href="#ab" fill-opacity="0" stroke="#2d2d2d"/>
  <use xlink:href="#ac" fill-opacity="0" stroke="#2d2d2d"/>
  <use xlink:href="#ad" fill-opacity="0" stroke="#2d2d2d"/>
  <use xlink:href="#ae" fill-opacity="0" stroke="#2d2d2d"/>
  <use xlink:href="#af" fill-opacity="0" stroke="#2d2d2d"/>
  <use xlink:href="#ag" fill-opacity="0" stroke="#2d2d2d"/>
  <use xlink:href="#ah" fill-opacity="0" stroke="#2d2d2d"/>
  <use xlink:href="#ai" fill-opacity="0" stroke="#2d2d2d"/>
  <use xlink:href="#aj" fill-opacity="0" stroke="#2d2d2d"/>
  <use xlink:href="#ak" fill-opacity="0" stroke="#2d2d2d"/>
  <use xlink:href="#al" fill-opacity="0" stroke="#2d2d2d"/>
  <use xlink:href="#am" fill-opacity="0" stroke="#2d2d2d"/>
  <use xlink:href="#an" fill-opacity="0" stroke="#2d2d2d"/>
  <use xlink:href="#ao" fill-opacity="0" stroke="#2d2d2d"/>
  <use xlink:href="#ap" fill-opacity="0" stroke="#2d2d2d"/>
  <use xlink:href="#aq" fill-opacity="0" stroke="#2d2d2d"/>
  <use xlink:href="#ar" fill-opacity="0" stroke="#2d2d2d"/>
  <use xlink:href="#as" fill-opacity="0" stroke="#2d2d2d"/>
  <use xlink:href="#at" fill-opacity="0" stroke="#2d2d2d"/>
  <use xlink:href="#au" fill-opacity="0" stroke="#2d2d2d"/>
  <use xlink:href="#av" fill-opacity="0" stroke="#2d2d2d"/>
  <use xlink:href="#aw" fill-opacity="0" stroke="#2d2d2d"/>
  <use xlink:href="#ax" fill-opacity="0" stroke="#2d2d2d"/>
  <use xlink:href="#ay" fill-opacity="0" stroke="#2d2d2d"/>
  <use xlink:href="#az" fill-opacity="0" stroke="#2d2d2d"/>
  <use xlink:href="#aA" fill-opacity="0" stroke="#2d2d2d"/>
  <use xlink:href="#aB" fill-opacity="0" stroke="#2d2d2d"/>
  <use xlink:href="#aC" fill-opacity="0" stroke="#2d2d2d"/>
  <use xlink:href="#aD" fill-opacity="0" stroke="#2d2d2d"/>
  <use xlink:href="#aE" fill-opacity="0" stroke="#2d2d2d"/>
  <use xlink:href="#aF" fill-opacity="0" stroke="#2d2d2d"/>
  <use xlink:href="#aG" fill-opacity="0" stroke="#2d2d2d"/>
  <use xlink:href="#aH" fill-opacity="0" stroke="#2d2d2d"/>
  <use xlink:href="#aI" fill-opacity="0" stroke="#2d2d2d"/>
  <use xlink:href="#aJ" fill-opacity="0" stroke="#2d2d2d"/>
  <use xlink:href="#aK" fill-opacity="0" stroke="#2d2d2d"/>
  <use xlink:href="#aL" fill-opacity="0" stroke="#2d2d2d"/>
  <use xlink:href="#aM" fill-opacity="0" stroke="#2d2d2d"/>
  <use xlink:href="#aN" fill-opacity="0" stroke="#2d2d2d"/>
  <use xlink:href="#aO" fill-opacity="0" stroke="#2d2d2d"/>
  <use xlink:href="#aP" fill-opacity="0" stroke="#2d2d2d"/>
  <use xlink:href="#aQ" fill-opacity="0" stroke="#2d2d2d"/>
  <use xlink:href="#aR" fill-opacity="0" stroke="#2d2d2d"/>
  <use xlink:href="#aS" fill-opacity="0" stroke="#2d2d2d"/>
  <use xlink:href="#aT" fill-opacity="0" stroke="#2d2d2d"/>
  <use xlink:href="#aU" fill-opacity="0" stroke="#2d2d2d"/>
  <use xlink:href="#aV" fill-opacity="0" stroke="#2d2d2d"/>
  <use xlink:href="#aW" fill-opacity="0" stroke="#2d2d2d"/>
  <use xlink:href="#aX" fill-opacity="0" stroke="#2d2d2d"/>
  <use xlink:href="#aY" fill-opacity="0" stroke="#2d2d2d"/>
  <use xlink:href="#aZ" fill-opacity="0" stroke="#2d2d2d"/>
  <use xlink:href="#ba" fill-opacity="0" stroke="#2d2d2d"/>
  <use xlink:href="#bb" fill-opacity="0" stroke="#2d2d2d"/>
  <use xlink:href="#bc" fill-opacity="0" stroke="#2d2d2d"/>
  <use xlink:href="#bd" fill-opacity="0" stroke="#2d2d2d"/>
  <use xlink:href="#be" fill-opacity="0" stroke="#2d2d2d"/>
  <use xlink:href="#bf" fill-opacity="0" stroke="#2d2d2d"/>
  <use xlink:href="#bg" fill-opacity="0" stroke="#2d2d2d"/>
  <use xlink:href="#bh" fill-opacity="0" stroke="#2d2d2d"/>
  <use xlink:href="#bi" fill-opacity="0" stroke="#2d2d2d"/>
  <use xlink:href="#bj" fill-opacity="0" stroke="#2d2d2d"/>
  <use xlink:href="#bk" fill-opacity="0" stroke="#2d2d2d"/>
  <use xlink:href="#bl" fill-opacity="0" stroke="#2d2d2d"/>
  <use xlink:href="#bm" fill-opacity="0" stroke="#2d2d2d"/>
  <use xlink:href="#bn" fill-opacity="0" stroke="#2d2d2d"/>
  <use xlink:href="#bo" fill-opacity="0" stroke="#2d2d2d"/>
  <use xlink:href="#bp" fill-opacity="0" stroke="#2d2d2d"/>
  <use xlink:href="#bq" fill-opacity="0" stroke="#2d2d2d"/>
  <use xlink:href="#br" fill-opacity="0" stroke="#2d2d2d"/>
  <use xlink:href="#bs" fill-opacity="0" stroke="#2d2d2d"/>
  <use xlink:href="#bt" fill-opacity="0" stroke="#2d2d2d"/>
  <use xlink:href="#bu" fill-opacity="0" stroke="#2d2d2d"/>
  <use xlink:href="#bv" fill-opacity="0" stroke="#2d2d2d"/>
  <use xlink:href="#bw" fill-opacity="0" stroke="#2d2d2d"/>
  <use xlink:href="#bx" fill-opacity="0" stroke="#2d2d2d"/>
  <use xlink:href="#by" fill-opacity="0" stroke="#2d2d2d"/>
  <use xlink:href="#bz" fill-opacity="0" stroke="#2d2d2d"/>
  <use xlink:href="#bA" fill-opacity="0" stroke="#2d2d2d"/>
</svg>
