<svg xmlns="http://www.w3.org/2000/svg" xmlns:xlink="http://www.w3.org/1999/xlink" width="262" height="262" viewBox="165.662 128.991 262 262">
  <defs>
    <path id="a" d="M165.66 128.99h262v262h-262v-262Z"/>
    <path id="b" d="M165.66 357.01h262v33.98h-262v-33.98Z"/>
    <path id="c" d="M165.66 330.62h262v26.39h-262v-26.39Z"/>
    <path id="d" d="M421.99 330.62V154.63H173.53v175.99h248.46Z"/>
    <path id="e" d="M407.67 138.83H187.44l-13.91 15.8h248.46l-14.32-15.8Z"/>
    <path id="f" d="M173.53 179.31v-5.11h248.46v5.53l-248.46-.42Z"/>
    <path id="g" d="m303.31 317.08-.96 11.91-4.59 9.28-6.36-13.33 1.43-9.29 4.93-9.16 5.55 10.59Z"/>
    <path id="h" d="m289.14 300.65-.36-7.14 3.22-7.26 5.76-2.14 6.5 4.04 1.67 5.36-1.08 8.22-7.09 2.61-8.62-3.69Z"/>
    <path id="i" d="m194.89 323.87-2.43-.31-.73-3.21-4.18-12.14-2.04-39.59 2.04-6.43 10.46-14.58 45.48-13.02 8.08 19.71 22.39-.67 9.32-9.38-11.85-7.02v10.38l-5.86 2.8-4.6-9.4 19.49-7.76 14.56.37h20.04l19.82 7.39-4.92 9.4-5.94-2.8-.67-11.08-10.28 8.59 8.4 8.51 16.03.67 24.5-21.05 38.75 21.62 9.21 13.75-2.63 33.57-1.26 10.36-3.22 10.67-2.53 2.65-9.37-20.56h-4.76l9.4 23.09 6.43-1.48 7.94-15.6 3.73-33.21-2.38-19.53-9.05-23.15-14.53-17.62-16.78-8.61-17.98-4.07H337.5l-26.43 8.36-6.19-4.29 5.59-.26-8.21-7.95 5.95.83-7.74-8.57 4.41-2.74h-5.48l3.33-3.81-15.95.95-15.35 8.69h10.95l4.88 5.48-.48 6.19-7 4.26-23.33-7.62-15.83.48-17.27 3.81-16.9 9.64-13.32 16.01-9.05 25.4-2.38 19.25 3.81 30.71 5.47 13.81 7.74 4.64 10.36-23.09-4.76.36-9.43 18.2Z"/>
    <path id="j" d="m265.12 285.65-57.75 12.34-12.03 12.02-2.38 12.02 6.31 6.79-3.57 1.55-5.83-1.91-4.77-16.81 5.31-15.67 26.67-15.75 28.81-2.15-1.55-8.93-5-5.71-5 15.04-3.81-18.49 10.72-18.66-6.31 2.98-10.72 13.81-6.31 21.07-3.45-15.48 3.45-19.64-8.69 10.71-4.76 27.39-4.17-26.31-2.85 2.62-3.93 22.73-5.72-18.93 5.72-21.66 18.09-15.35 34.94-9.33 17.74 10.76-9.76 21.38 10.6 21.07 31.54-19 33.61 18.58 10.36-21.08-9.41-20.95 17.91-10.47 33.83 9.04 19.19 16.06 5.24 20.72-5.83 19.76-3.93-23.69-2.74-2.74-4.64 26.43-4.53-26.43-9.4-11.31 4.52 21.91-3.14 13.21-7.69-22.86-8.81-11.55-6.91-2.85 10.43 18.41-3.93 17.74-5-14.64-5.35 6.19-1.31 8.1 28.57 2.5 28.21 16.9 4.05 14.52-5.12 16.19-5.83 2.27-3.1-1.91 6.79-6.43-3.69-12.97-12.5-11.31-55.92-11.84-15.95-10.95-7.62-8.33-9.26 17.74-9.55-17.74-23.09 19.28Z"/>
    <path id="k" d="m298.09 218.18 9.41 3.6 7.51 11.81v20.32L307 266.43l-10.01 4.2-9.01-4.71-7.41-11.11v-21.52l7.81-12.01 9.71-3.1Z"/>
  </defs>
  <use xlink:href="#a" fill="#9b7647"/>
  <use xlink:href="#b" fill="#01583b"/>
  <use xlink:href="#c" fill="#c82f16"/>
  <use xlink:href="#d" fill="#dda665"/>
  <use xlink:href="#e" fill="#56321e"/>
  <use xlink:href="#f" fill="#495db2"/>
  <use xlink:href="#g" fill="#6ec5ec"/>
  <use xlink:href="#h" fill="#6ec5ec"/>
  <use xlink:href="#i" fill="#7a6866"/>
  <use xlink:href="#j" fill="#d5d5d5"/>
  <use xlink:href="#k" fill="#6ec5ec"/>
</svg>
