<svg xmlns="http://www.w3.org/2000/svg" xmlns:xlink="http://www.w3.org/1999/xlink" width="262" height="262" viewBox="147.006 143.679 262 262">
  <defs>
    <path id="a" d="M147.01 143.68h262v262h-262v-262Z"/>
    <path id="b" d="M409.01 405.68v-65.09l-256.25-1.18-5.75 30.23v36.04h262Z"/>
    <path id="c" d="m294.3 369.7 19.1 35.98h-9.82l-20.89-35.98h11.61Z"/>
    <path id="d" d="M341.44 405.68h15l-20.89-36.52-13.93.54 19.82 35.98Z"/>
    <path id="e" d="m152.15 340.61 6.25-21.75 250.61 21.75v27.5l-257.75 2.93.89-30.43Z"/>
    <path id="f" d="M174.3 371.04h10.89l.54-29.86H174.3v29.86Z"/>
    <path id="g" d="m404.05 341.18.53-25.16-12.14-78.93-196.91-17.32h-18.29l-19.19 99.09.71 22.32h245.29Z"/>
    <path id="h" d="m158.05 318.86 246.53-2.88v3.4l-246.53 2.3v-2.82Z"/>
    <path id="i" d="m180.74 236.98 60.09 101.04 150.36-101.96-1.96 18.03-12.5-3.89-.54 11.57-11.25-3.75.89 11.43-17.85-1.79-.9 14.65-1.78.71-11.25-6.43-1.25 15-16.86-2.28 3.57 11.78-15.36-3.75 2.68 10.72-14.82-3.22-1.43 12.32h-15.89l-9.82 5.36-2.68 19.46-12.14-7.85-3.04 7.85h-17.5l3.22-11.07-10.9.72 4.47-9.95-2.15-3.45h-9.64l5.18-8.39-1.25-1.25-8.21 1.25 3.21-10.53-.71-1.97-9.29 1.43 3.39-12.5h-9.82l3.57-10.71-9.82-1.25 2.5-11.97h-9.28l1.75-13.93-8.72 1.79 1.61-12.86 2.12-.36Z"/>
    <path id="j" d="m183.9 215.62-3.47 20.44 59.46 101.91 155.65-104.45-.49-26.76-152.26 93.12-57.62-83.15-1.27-1.11Z"/>
    <path id="k" d="m184.83 216.69-3.1 18.44 58.26 100.53 155.06-103.34 1.01 2.81-156.92 106.05-32.5-54.2-28.04-50.17 3.57-22.86 2.66 2.74Z"/>
    <path id="l" d="m382.54 205.36 12.69 1.08.31 11.74-13.41-3.64 2.45 10.51-9.85-5.28-2.03 13.51-11.2-6.07-3.24 15.52-63.6 41.59-11.88-8.5-.4 16.19-10.8-7.69-.94 15.25-11.34-9.31-3.24 18.89-13.36-9.58-7.69 5.81 1.35-15.12-16.2-1.62 1.76-18.49H209.1l.94-16.73-13.36-2.03.68-16.87-9.72 2.3-2.83-19.97 197.73-11.49Z"/>
    <path id="m" d="m345.94 236.76 12.1 6.25-2.5 15.75-50.2 33.7-10.7-8.2 3.8-18.7 47.5-28.8Z"/>
    <path id="n" d="m346.74 239.56 8.8 5.3-2 12.9-46.4 30.9-9.9-6.1 3-15.3 46.5-27.7Z"/>
    <path id="o" d="m337.14 245.16 16.3 12.6-40.8 27.3 1-19-6.9-1.45.7 10.85-7.11-8.31 36.81-21.99Z"/>
    <path id="p" d="m313.34 271.86 9.3 6.5 22.4-14.9.4-11.8-7.9-6.2-.6 11.5-10.2-5.3-1.1 12.2-11.7-4-.3 6-.3 6Z"/>
    <path id="q" d="m346.64 239.36 2.8 9.1-8.2-5.5 5.4-3.6Z"/>
    <path id="r" d="M302.22 143.68h6.63l88.45 61.68-154.66 94.62-59.85-86.03 119.43-70.27Z"/>
    <path id="s" d="m324.38 227.43-27.61 18.03-3.73-31.51 31.34 13.48Z"/>
    <path id="t" d="m323.88 227.55 21.56 9.21-22.55-2.99-13.68 3.48-10.82 27.86-1.62-19.65 27.11-17.91Z"/>
    <path id="u" d="m250.25 238.39 16.79-7.59 6.47 8.56-1.49 10.35-15.67 9.32-7.96-1.12-7.22-9.82 9.08-9.7Z"/>
    <path id="v" d="m250.25 238.51 12.19-4.48 6.84 5.33-1.49 8.23-12.07 7.09-6.59-2.36-3.98-6.86 5.1-6.95Z"/>
    <path id="w" d="m250.25 238.51 8.58-2.12 7.09 3.17-.74 5.36-7.96 5.41-5.35-1.37-2.74-5.6 1.12-4.85Z"/>
    <path id="x" d="m256.6 228.44 10.57 2.36-26 17.29.5-10.33 14.93-9.32Z"/>
    <path id="y" d="m246.02 209.53 18.54-6.96 5.59 6.96-1.86 7.96-15.55 9.58-8.83-.62-4.85-7.96 6.96-8.96Z"/>
    <path id="z" d="m246.02 209.6 16.55-5.73 4.6 5.35-.5 6.35-13.56 8.45-7.09-1.12-3.85-5.97 3.85-7.33Z"/>
    <path id="A" d="m246.4 209.41 12.81-3.49 4.47 3.49-.62 4.85-9.45 6.09-5.72-.58-3.23-4.64 1.74-5.72Z"/>
    <path id="B" d="m254.05 201.07 11 1.5-26.49 15.79 1.37-8.7 14.12-8.59Z"/>
    <path id="C" d="m291 182.35 18.53-5.59 4.11 5.59.62 6.97-19.62 12.21-6.17-.87-4.97-7.34 7.5-10.97Z"/>
    <path id="D" d="m291.5 182.35 13.93-2.61 4.6 3.86v5.55l-15.39 9.25-4.6-1.12-3.64-5.47 5.1-9.46Z"/>
    <path id="E" d="m293.04 184.97 7.5-2.12 6.88 1.25-.63 4.1-10.57 6.59-3.73-1.49-1.86-4.15 2.41-4.18Z"/>
    <path id="F" d="m299.33 175.02 10.7 1.74-26.53 16.66 1.03-9.82 14.8-8.58Z"/>
    <path id="G" d="m317.99 196.66 16.17-7.51 7.96 8.13-.5 8.33-12.23 8.15-9.91.19-7.96-6.72 6.47-10.57Z"/>
    <path id="H" d="m318.29 196.43 12.06-4.1 8.21 4.48-.87 6.34-10.77 7.59-7-1-4.5-5.72 2.87-7.59Z"/>
    <path id="I" d="m318.36 196.53 8.63-2.11 7.42 3.11v4l-7.59 5.7-4.73-1.37-2.73-4.79-1-4.54Z"/>
    <path id="J" d="m323.09 187.33 11.32 1.49-22.89 18.66-.62-12.69 12.19-7.46Z"/>
  </defs>
  <use xlink:href="#a" fill="#9b7647"/>
  <use xlink:href="#b" fill="#e75ac5"/>
  <use xlink:href="#c" fill="#ffe148"/>
  <use xlink:href="#d" fill="#ffe148"/>
  <use xlink:href="#e" fill="#20caff"/>
  <use xlink:href="#f" fill="#eccd2f"/>
  <use xlink:href="#g" fill="#f59063"/>
  <use xlink:href="#h" fill="#4540a5"/>
  <use xlink:href="#i" fill="#b1bd54"/>
  <use xlink:href="#j" fill="#dad5c0"/>
  <use xlink:href="#k" fill="#867f64"/>
  <use xlink:href="#l" fill="#b1bd54"/>
  <use xlink:href="#m" fill="#ab6960"/>
  <use xlink:href="#n" fill="#0c0c0c"/>
  <use xlink:href="#o" fill="#ffec36"/>
  <use xlink:href="#p" fill="#ef5e6f"/>
  <use xlink:href="#q" fill="#ffec36"/>
  <use xlink:href="#r" fill="#baa25d"/>
  <use xlink:href="#s" fill="#6e8b6f"/>
  <use xlink:href="#t" fill="#c37f60"/>
  <use xlink:href="#u" fill="#ffffff"/>
  <use xlink:href="#v" fill="#52becf"/>
  <use xlink:href="#w" fill="#1b1b1b"/>
  <use xlink:href="#x" fill="#c48260"/>
  <use xlink:href="#y" fill="#ffffff"/>
  <use xlink:href="#z" fill="#52becf"/>
  <use xlink:href="#A" fill="#1b1b1b"/>
  <use xlink:href="#B" fill="#c48260"/>
  <use xlink:href="#C" fill="#ffffff"/>
  <use xlink:href="#D" fill="#52becf"/>
  <use xlink:href="#E" fill="#1b1b1b"/>
  <use xlink:href="#F" fill="#c48260"/>
  <use xlink:href="#G" fill="#ffffff"/>
  <use xlink:href="#H" fill="#52becf"/>
  <use xlink:href="#I" fill="#1b1b1b"/>
  <use xlink:href="#J" fill="#c48260"/>
</svg>
