<svg xmlns="http://www.w3.org/2000/svg" xmlns:xlink="http://www.w3.org/1999/xlink" width="262" height="262" viewBox="165.455 144.848 262 262">
  <defs>
    <path id="a" d="M165.45 144.85h262v262h-262v-262Z"/>
    <path id="b" d="M165.45 144.85h53.68l-.27 24.89h-53.41v-24.89Z"/>
    <path id="c" d="M165.45 379.83h55.88v27.02h-55.88v-27.02Z"/>
    <path id="d" d="M165.45 169.74h53.68l2.2 210.09h-55.88V169.74Z"/>
    <path id="e" d="M218.86 153.7h23.63v253.15h-21.16l-2.47-253.15Z"/>
    <path id="f" d="m249.93 328.9 177.52 25.94V167.77H249.12l.81 161.13Z"/>
    <path id="g" d="M250.67 406.85h176.78v-57.58l-177.52-28.58.74 86.16Z"/>
    <path id="h" d="m337.87 313.68 24.12-.7 25.88-8.1 10.74-9.33v-10.21L388.4 275.3l-25-10.74-42.61-1.57-28.52-17.27 7.05-19.19 80.98-26.58 27.11-16.9-13.9 4.22-32.93 17.26-55.45 8.27-12.86 3.35-29.93 19.36 1.24 25.71 18.83 20.24 83.46 3 10.21 6.86-7.4 9.86-31.51 9.51.7 2.99Z"/>
    <path id="i" d="m373.49 377.11-7.99 6.75v12.81h-4.82l-.41-12.81-6.75-6.75h-8.4v9.92h-12.54l8.4-4.13v-6.34h-3.16l-20.67-11.85-5.37-12.12-1.37-16.8 2.2-5.79 21.49-12.39v-1.66h-14.47l2.35-4.54h80.3l.82 3.44-9.77 1.65v1.52l21.35 19.15-3.59 17.9-9.91 11.71-15.15 10.33-2.21 7.44 5.92 3.44h-9.78l-.68-11.43-5.79.55Z"/>
  </defs>
  <use xlink:href="#a" fill="#9b7647"/>
  <use xlink:href="#b" fill="#f9d34e"/>
  <use xlink:href="#c" fill="#f9d34e"/>
  <use xlink:href="#d" fill="#1e4a2f"/>
  <use xlink:href="#e" fill="#652630"/>
  <use xlink:href="#f" fill="#5c808e"/>
  <use xlink:href="#g" fill="#a28f80"/>
  <use xlink:href="#h" fill="#9f9f9f"/>
  <use xlink:href="#i" fill="#151515"/>
</svg>
