<svg xmlns="http://www.w3.org/2000/svg" xmlns:xlink="http://www.w3.org/1999/xlink" width="262" height="262" viewBox="187.39 160.137 262 262">
  <defs>
    <path id="a" d="M187.39 160.14h262v262h-262v-262Z"/>
    <path id="b" d="m301.56 175.49 58.79 8.29 35.43 23.87 27.89 38.44 8.54 56.03-11.31 47.74-32.66 38.19-65.58 26.63-67.58-21.86-33.67-29.39-19.85-46.49 1-49.75 18.09-42.71 34.43-34.67 46.48-14.32Z"/>
    <path id="c" d="m358.09 209.66 39.2 38.94 10.05 49.75-13.82 44.22-35.43 35.18-37.19 12.06-38.94-8.04-39.2-31.16-17.33-37.94 4.02-49.24 30.15-46.49 44.47-20.85 54.02 13.57Z"/>
    <path id="d" d="m298.35 385.39-8.27-31.76-5.46 28.66 13.73 3.1Z"/>
    <path id="e" d="m281.54 301.98 22.24 8.22 6.24 77.26-11.67-2.07-15.66-59.38-3.39-26.58 2.24 2.55Z"/>
    <path id="f" d="m331.44 290.11-.33 50.81 1.95 45.06-11.96 3.83-11.08-2.35-6.35-76.96 27.77-20.39Z"/>
    <path id="g" d="m336.46 286.27 17.26 29.72-7.51 8.69-3.25 57.9-9.9 3.38-2.03-45.18.41-50.67 5.02-3.84Z"/>
    <path id="h" d="m367.63 339.3 1.92 26.89-11.23 11.96-15.36 4.58 2.95-57.9 7.69-9.01 14.03 23.48Z"/>
    <path id="i" d="m302.64 301.98 36.48-25.59 1.63-9.11v-10.49l-13.89 2.22-.52-20.09-24.44-5.17-24.67 6.09-15.66 22.56 6.8 17.73 8.42 15.95 25.85 5.9Z"/>
    <path id="j" d="m285.35 269.33 4.73 8.71-16.1-1.52 11.37-7.19Z"/>
    <path id="k" d="m320.8 250.72 14.33 20.09-23.93 4.58 9.6-24.67Z"/>
    <path id="l" d="m300.2 301.47.69-2.53-3.86-6.51-.9 8.13 4.07.91Z"/>
    <path id="m" d="m302.52 301.98-1.64-3.13-.68 2.58 2.32.55Z"/>
    <path id="n" d="m302.52 301.95 4.71-3.25-2.55-7.94-3.83 8.09 1.67 3.1Z"/>
    <path id="o" d="m300.88 298.94 3.84-8.22-7.71 1.67 3.87 6.55Z"/>
    <path id="p" d="m289.82 277.78 3.52 7.03-9.71-.76-4.33-7.02 10.52.75Z"/>
    <path id="q" d="m286.06 277.53.75 6.94-3.01-7.2 2.26.26Z"/>
    <path id="r" d="m321.37 273.51-2.59 7.49-11.05 3.22 3.47-8.83 10.17-1.88Z"/>
    <path id="s" d="m316.1 274.26-1.09 8.04-2.26-7.45 3.35-.59Z"/>
    <path id="t" d="m340.45 230.97-.25-2.26-22.93 16.82 2.43 2.93 20.75-17.49Z"/>
    <path id="u" d="m302.49 301.93 36.63-25.41-1.82 9.3-33.48 24.68-22.75-8.57-4.35-5.78 25.77 5.78Z"/>
    <path id="v" d="m306.31 253.31 6.78-5.19-56.57-12.8 21.25 13.89-3.43 10.96 31.97-6.86Z"/>
    <path id="w" d="m319.77 248.46 7.11 10.69 13.87-2.17-.3-25.94-20.68 17.42Z"/>
    <path id="x" d="m277.95 248.92-21.43-13.6 4.77 27.11 12.89-2.26 3.77-11.25Z"/>
  </defs>
  <use xlink:href="#a" fill="#9b7647"/>
  <use xlink:href="#b" fill="#dbdbdb"/>
  <use xlink:href="#c" fill="#db1ac0"/>
  <use xlink:href="#d" fill="#321b17"/>
  <use xlink:href="#e" fill="#a48680"/>
  <use xlink:href="#f" fill="#6b4740"/>
  <use xlink:href="#g" fill="#a48680"/>
  <use xlink:href="#h" fill="#321b17"/>
  <use xlink:href="#i" fill="#a48680"/>
  <use xlink:href="#j" fill="#321b17"/>
  <use xlink:href="#k" fill="#321b17"/>
  <use xlink:href="#l" fill="#844764"/>
  <use xlink:href="#m" fill="#f80076"/>
  <use xlink:href="#n" fill="#844764"/>
  <use xlink:href="#o" fill="#de6da2"/>
  <use xlink:href="#p" fill="#358aa8"/>
  <use xlink:href="#q" fill="#000000"/>
  <use xlink:href="#r" fill="#358aa8"/>
  <use xlink:href="#s" fill="#000000"/>
  <use xlink:href="#t" fill="#321b17"/>
  <use xlink:href="#u" fill="#321b17"/>
  <use xlink:href="#v" fill="#321b17"/>
  <use xlink:href="#w" fill="#d59dd3"/>
  <use xlink:href="#x" fill="#d59dd3"/>
</svg>
