<svg xmlns="http://www.w3.org/2000/svg" xmlns:xlink="http://www.w3.org/1999/xlink" width="524" height="262" viewBox="68.419 168.541 524 262">
  <defs>
    <path id="a" d="M68.42 168.54h524v262h-524v-262Z"/>
    <path id="b" d="m386.18 396.08.87-21.87 6.98-17.1 21.2-17.01 33.05.48 16.81 12.44 13.58 19.74v20.58l-6.02 16.91-25.75 19.63h-30.13L394.03 412l-7.85-15.92Z"/>
    <path id="c" d="M449.94 286.28v17.59l-4.08 7.68 7.97 4.76 3.1 8.17-1.84 6.9-11.95-12.54h-21.71l.1 1.06-10.76 12.06-3.11-6.02 2.63-8.67 7.58-4.65-2.14-5.15-.97-17.69 8.65-10.3h16.23l10.3 6.8Z"/>
    <path id="d" d="m435.07 323.12 9.13-7.29 1.66-14.65-1.66-10.81-5.92-2.04-11.57-.98-7.38 5.83-1.46 7.39 5.44 19.92 11.76 2.63Z"/>
    <path id="e" d="M450.33 340.4v-9.23h-3.21L444.11 320l-.88-.98v-1.75l-8.74 3.5-14.58-2.72.87 1.65-1.65 1.07-2.43 11.37h-2.23l.29 7.96 35.57.3Z"/>
    <path id="f" d="m294.72 418.27-33.81 6.91-1.19-8.75 10.21-2.54.56-4.19-4.49-2.94-2.8 8.89-26.37 6.11-5.33-1.54v-4.57l12.62-3.7 1.68-5.19-14.01-9.69-11.36-23.29-10.1-3.19-14.3 6-26.37 1.43-.56 21.46-5.47 22.28-14.3 7.72-7.3.43-4.08-7.39 9.54-4.77 2.24-10.99-12.62-37.11-12.2 52.59-22.02.7-1.41-4.06 4.07-3.23h7.86l-3.29-51.61-20.37-42.6-.85-50.49 1.45-35.37-17.39-34.5-1.26-18.94 9.25-5.33 29.17 11.79 17.26 14.58 10.94 33.8 6.52 46.09 8.55 8.55 33.78 2.28 14.02-8 32.69-10.81 14.59.84 15.29 4.49 23.56 19.12 18.65 37.88 24.45 35.26 35.16 20.05 11.78 14.03.98 15-24.82 7.72-10.1-2.25 22.86-18.37-45.58-19.9-19.45-18.37-6.53 47.68Z"/>
    <path id="g" d="m115.24 205.05 5.62.19 2.13 3.16-.71 6.98-9.04-8.33 2-2Z"/>
    <path id="h" d="m120.67 205.3 2.32 2.97-.58 7.62 2.32 1.55 1.17-10.2-2-2.19-2.97-4.33-3.04.65-3.03 3.68 5.81.25Z"/>
    <path id="i" d="m91.36 182.58 3.16 1.61-.39 3.3-5.68-.33-.84-2.19 3.75-2.39Z"/>
    <path id="j" d="m75.61 175.35 5.23 1.46-1.36 3.83-4.07 2.97-3.87-1.29-.19-3.36 4.26-3.61Z"/>
    <path id="k" d="m560.35 385.02.92 8.88 11.05.88 10.62 9.15 2.36 14.01-7.97 8.7-5.9.59-8.55-3.24-27.11-37.61-184.26-205.05 1.47-6.19h5.46l201.91 209.88Z"/>
    <path id="l" d="m561.86 402.57 4.13 2.07 3.54-3.4v-4.42l-8.26-.59.59 6.34Z"/>
    <path id="m" d="m518.94 367.62 2.29 2.55 12.54-12.79-3.77-3.86-11.06 14.1Z"/>
    <path id="n" d="m482.12 326.68 3.54 3.9L496.82 319l-4.51-4.71-10.19 12.39Z"/>
  </defs>
  <use xlink:href="#a" fill="#9b7647"/>
  <use xlink:href="#b" fill="#daa700"/>
  <use xlink:href="#c" fill="#dfb128"/>
  <use xlink:href="#d" fill="#ddc68e"/>
  <use xlink:href="#e" fill="#574c51"/>
  <use xlink:href="#f" fill="#ffffff"/>
  <use xlink:href="#g" fill="#fdc0b1"/>
  <use xlink:href="#h" fill="#726759"/>
  <use xlink:href="#i" fill="#726759"/>
  <use xlink:href="#j" fill="#fdc0b1"/>
  <use xlink:href="#k" fill="#624939"/>
  <use xlink:href="#l" fill="#241912"/>
  <use xlink:href="#m" fill="#7e7880"/>
  <use xlink:href="#n" fill="#7e7880"/>
</svg>
