<svg xmlns="http://www.w3.org/2000/svg" xmlns:xlink="http://www.w3.org/1999/xlink" width="262" height="262" viewBox="171.046 158.863 262 262">
  <defs>
    <path id="a" d="M171.05 158.86h262v262h-262v-262Z"/>
    <path id="b" d="M171.05 203.5h51.49v217.36h-51.49V203.5Z"/>
    <path id="c" d="M222.54 218.31h39.91v202.55h-39.91V218.31Z"/>
    <path id="d" d="M262.45 230.61h51.99v190.25h-51.99V230.61Z"/>
    <path id="e" d="M314.44 224h39.91v196.86h-39.91V224Z"/>
    <path id="f" d="M354.35 201.73h78.7v219.13h-78.7V201.73Z"/>
    <path id="g" d="m271.65 169.68 1.36-1.27 15.02-4.74 13.48.36 3.62 1.45 36.95.84 54.31 10.03 25.52 10.76-.27 9.33-6.83 5.29h-6.88l-14.84-13.11-20.73-8.69-13.74-2.14-40.54-3.37-7.88.54-11.85 3.17-8.38-.34-7.88-.99-102.89 26.7h-7.33l99.78-33.82Z"/>
  </defs>
  <use xlink:href="#a" fill="#9b7647"/>
  <use xlink:href="#b" fill="#894e3c"/>
  <use xlink:href="#c" fill="#1a1a1a"/>
  <use xlink:href="#d" fill="#948797"/>
  <use xlink:href="#e" fill="#695537"/>
  <use xlink:href="#f" fill="#65613c"/>
  <use xlink:href="#g" fill="#312d32"/>
</svg>
