<svg xmlns="http://www.w3.org/2000/svg" xmlns:xlink="http://www.w3.org/1999/xlink" width="262" height="262" viewBox="200.714 151.278 262 262">
  <defs>
    <path id="a" d="M200.71 151.28h262v262h-262v-262Z"/>
    <path id="b" d="M275.04 372.16v34.57h-57.02l.65-35.56 56.37.99Z"/>
    <path id="c" d="m283.47 365.84 1.56 47.44H211.2v-8.19h61.99v-30.7l-60.75-2.01v-6.54h71.03Z"/>
    <path id="d" d="M462.71 364.95v48.33h-178.2l-.74-47.44 178.94-.89Z"/>
    <path id="e" d="m438.88 364.95 2.08 48.33h-23.79l1.05-48.33h20.66Z"/>
    <path id="f" d="m340.14 326 5.04 29.16 12.32 7.82 17.54-7.82-13.54-22.22 11.74 4.51 6.66 15.8 21.35 11.7-80.03.89 20.66-12.59-11.11-30.55 9.37 3.3Z"/>
    <path id="g" d="m334.5 304.18-9.72 3.28-6.08.36-6.25-5.55-42.19 3.3-28.47 9.2-18.57.87-11.12-3.3L271.86 278l59.47-46.47 41.35-29.71 11.63-18.86 17.88-16.2h13.78l9.52 7.07 9.53 11.22-11.42 19.12.81 28.56-4.47 5.86-7.05 20.26-20.66 23.22-14.76 26.61-5.21 25.34.98 3.65-11.57-4.34 1.22-15.11-16.5-10.76-5.03 18.75-10.42-3.12 3.56-18.91Z"/>
    <path id="h" d="m336.86 279.56 7.64 1.39 68.39-21.53 6.61-9.03v-11.97l-18.25-14.24-83.14 8.51-31.3 11.3-15.97 17.36 8.5 1.56-57.63 14.06-14.07 8.51v2.78l11.11.52 48.89-10.71h4.17l65.05 1.49Z"/>
    <path id="i" d="m416.03 176.56-.74 6.51-1.89 1.36-5.24-3.04 1.25-6.3 6.62 1.47Z"/>
    <path id="j" d="m436.17 174.36 15.95 7.24 5.77 6.19-1.47 1.89-33.36 1.68-7.03-8.19 9.75-9.65 10.39.84Z"/>
  </defs>
  <use xlink:href="#a" fill="#9b7647"/>
  <use xlink:href="#b" fill="#c6c6c6"/>
  <use xlink:href="#c" fill="#53877f"/>
  <use xlink:href="#d" fill="#0eb291"/>
  <use xlink:href="#e" fill="#9b9b9b"/>
  <use xlink:href="#f" fill="#d8d8d8"/>
  <use xlink:href="#g" fill="#545454"/>
  <use xlink:href="#h" fill="#2e2e2e"/>
  <use xlink:href="#i" fill="#000000"/>
  <use xlink:href="#j" fill="#000000"/>
</svg>
