<svg xmlns="http://www.w3.org/2000/svg" xmlns:xlink="http://www.w3.org/1999/xlink" width="262" height="262" viewBox="176 145.333 262 262">
  <defs>
    <path id="a" d="M176 145.33h262v262H176v-262Z"/>
    <path id="b" d="M176 189.29h53.34l-1.3 218.04H176V189.29Z"/>
    <path id="c" d="m256.21 218.89 26.12-41.91 31.39-19.3 27.91-11.7 28.03 11.7 44.99 27.76 17.04 60.72v52.51l-23.59 65.5-38.01 34.31-28.46 7.21-29.24-7.21-37.81-33.92-25.83-74.16v-26.28l7.46-45.23Z"/>
    <path id="d" d="m332.46 397.58 3.92-12.51-1.83-16.1-6.56-5.03-4.85 1.79.96 4.95 5.13.38-1.71 4.63h-5.04l-5.13-5.28 1.33-11.23 17.7-4.1-2.64-5.54 3.04-5.16 5.28-1.98 4.89 2.38 2.12 4.76-2.12 5.02 17.7 5.28 1.72 10.57-5.81 5.28-5.02-.53-1.72-4.75h5.81v-4.1l-4.49-2.37-6.07 4.75-2.51 16.38 3.69 12.02 6.08 4.63-14.66 3.69-15.46-3.69 6.25-4.14Z"/>
    <path id="e" d="m321.65 331.44 1.71 14.92-14.26 7.7-3.42-15.3 15.97-7.32Z"/>
    <path id="f" d="m319.28 335.53 1.42 9.22-10.83 5.13-1.15-9.41 10.56-4.94Z"/>
    <path id="g" d="m355.97 324.69-1.71 14.83-26.14-.29-.67-14.54h28.52Z"/>
    <path id="h" d="M352.64 326.97v8.56l-21.77-.48.48-8.08h21.29Z"/>
    <path id="i" d="m377.7 338.69-3.04 15.37-15.12-7.57 2.28-15.05 15.88 7.25Z"/>
    <path id="j" d="m374.28 340.5-.95 9.38-10.94-5.2 1.24-8.56 10.65 4.38Z"/>
    <path id="k" d="m330.52 288.93 4.75 8.08-2.56 7.32-6.18 1.14-6.18-3.14-2.09-3.9 3.8-7.98 8.46-1.52Z"/>
    <path id="l" d="m361.13 290.92 3.14 7.32-1.88 4.38-6.87 3.13-5.32-1.61-2-7.61 4.44-7.6 8.49 1.99Z"/>
    <path id="m" d="m310.31 263.09-18.53-1.42-12.74-6.09 6.65-7.32 12.74-3.04 11.5 2.28 8.33 11.6-7.95 3.99Z"/>
    <path id="n" d="m384.66 245.48 13.02 2.94 6.84 7.23-13.02 6.08-18.63 1.43-7.61-3.9 7.89-12.07 11.51-1.71Z"/>
    <path id="o" d="m307.91 309.52 2.94 5.86-2.37 5.82-9.83 1.52-7.66-5.15-1.52-12.45 4.62-12.06-13.18.67-12.83-7.34-4.96-16.44 1.8-23.27 5.52-9.61 15.11-9.19h21.2l11.51 10.89-16.25-6.18-17.79 2.18-11.5 7.81-3.71 34.03 5.51 7.98 11.71 3.21 15.78-2.74 15.76-10.76 10.56-22.24 1.16-13.29-5.51-10.89-25.33-17.46h-8.52l-5.23 3.23 7.32-8.51 7.42-1.05-8.37-6.83-5.04-8.27.48-6.57 5.51-7.41 10.33-2.38 4.69 2.38.44 7.12-4.72 5.52-.95-9.99-4.37-.37-4.18 3.14-1.62 8.17 18.54 16.07 5.51 2.95-4.66-9.04.95-6.55 6.75 6.94 7.61 1.14-8.02-26.96 1.14-4.99 5.7-5.66 16.25-9.03 16.64 9.03 5.71 5.66.53 5.51-7.89 26.05 7.36-1.14 7.45-6.75v7.41l-4.36 7.99 6.37-3.14 18.38-15.78-1.84-7.51-5.07-3.14h-4.21l-.32 10.27-5.32-5.51.85-7.99 5.18-1.8 9.91 1.8 5.16 7.7.74 6.86-5.08 7.8-8.14 6.88 7.32 1.24 7.58 8.74-6.25-3.23h-7.8l-25.87 17.46-4.94 10.89 1.17 12.64 10.8 22.62 15.4 11.03 15.5 2.47 12.07-2.47 4.94-8.18-2.66-34.5-12.36-7.61-17.49-2.18-17.11 6.18 12.26-10.89h21.58l15.12 9.56 4.63 9.24 2.47 22.71-5.14 17.21-12.52 7.13-13.6-.67 5.14 12.41-2.1 12.5-7.5 4.75-9.51-1.52-3.38-6.55 3.95-5.43h3.33l-3.33 4.38 2.95 4.94 5.13.86 5.32-4.75-1.33-11.99-6.75-9.6-9.27-4.63-16.54-24.24-3.14-6.55-5.7-21.39 4.08-8.37h-18.63l4.94 8.94-6.31 23.74-18.53 27.66-9.03 4.47-7.7 10.17-.76 11.79 5.32 4.75 5.51-1.14 2.76-5.42-2.47-3.32h2.7Z"/>
    <path id="p" d="m178.73 407.33 64.96-168.13 13.4 6.02-72.94 162.11h-5.42Z"/>
    <path id="q" d="m248.37 227.58 13.31 8.14-4.59 9.5-13.4-5.95 4.68-11.69Z"/>
    <path id="r" d="m263.12 188.9-37.2.52-.6-2.08 23.43-2.52 3.94-9.23-25.33-18.35 5.88 14.99-7.32-4.2-6.87-22.7h28.21l35.05 23.03 1.08 18.7-21.71 48.68-13.3-8.16 14.74-38.68Z"/>
    <path id="s" d="m245.23 149.57 5.51 2.76 1.95 4.19-5.42 2.28-7.49-5.19 5.45-4.04Z"/>
  </defs>
  <use xlink:href="#a" fill="#9b7647"/>
  <use xlink:href="#b" fill="#363636"/>
  <use xlink:href="#c" fill="#3f3f3f"/>
  <use xlink:href="#d" fill="#dbdbdb"/>
  <use xlink:href="#e" fill="#dbdbdb"/>
  <use xlink:href="#f" fill="#000000"/>
  <use xlink:href="#g" fill="#dbdbdb"/>
  <use xlink:href="#h" fill="#000000"/>
  <use xlink:href="#i" fill="#dbdbdb"/>
  <use xlink:href="#j" fill="#000000"/>
  <use xlink:href="#k" fill="#000000"/>
  <use xlink:href="#l" fill="#000000"/>
  <use xlink:href="#m" fill="#000000"/>
  <use xlink:href="#n" fill="#000000"/>
  <use xlink:href="#o" fill="#dbdbdb"/>
  <use xlink:href="#p" fill="#786958"/>
  <use xlink:href="#q" fill="#000000"/>
  <use xlink:href="#r" fill="#cac3b0"/>
  <use xlink:href="#s" fill="#2b9b64"/>
</svg>
