<svg xmlns="http://www.w3.org/2000/svg" width="262" height="262" viewBox="182.31 166.784 262 262">
  <path fill="#9b7647" d="M182.31 166.78h262v262h-262z"/>
  <path fill="#9b8d7b" d="m314.69 428.78 31.13-28.76 6.22-21.28v-6.23l-55.82-49.45 13.65-30.32.81-19.88 10.04-14.51-1.21-15.27-6.63 5.23v-5.83l3.82-24.5-9.04-24.1-21.08-19.07-21.09-2.41-19.47 8.63-18.08 26.31-3.21 14.86 4.22 26.11-6.23-5.83-1 15.87 9.24 15.26 1.2 23.09 13.05 26.94-56.62 46.18 8.23 32.13 24.9 26.83z"/>
  <path fill="#c6b79c" d="M260.07 301.63h25.1l7.63 6.43 3.62 21.68-1.21 23.09-12.65 75.95h-18.07l-17.27-71.93v-34.14l3.41-13.45z"/>
  <g fill="#212121">
    <path d="m253.04 249.46 9.44 3.22-.8 2.61-5.42 3.01h-16.07l-5.22-5.62 5.22-3.22z"/>
    <path d="M291.2 248.86h8.23l7.43 3.41-5.82 7.23h-14.06l-6.83-4.01v-2.61z"/>
    <path d="M257.06 293.64h8.03l-7.03-4.42z"/>
    <path d="m285.17 293.64-1.2-4.42-7.23 3.82z"/>
    <path d="m259.67 311.91 12.85-3.21 11.25 4.02 3.01 4.82-15.86 5.62-15.06-6.43z"/>
  </g>
  <path fill="#736544" d="m352.04 209.94 45.36-.6.4 219.44h-45.76z"/>
  <path fill="#2c271a" d="M352.04 229.68h45.43v13.25h-45.43z"/>
  <path fill="#2c271a" d="M352.04 249.46h45.47l.04 6.52h-45.51z"/>
  <path fill="#2c271a" d="M352.04 381h45.76v7.23h-45.76z"/>
  <path fill="#2c271a" d="M352.04 400.88h45.76v13.46h-45.76z"/>
  <path fill="#080704" d="M397.47 166.78 421 304.53l-.19 25.15 4.22 7.61-.37 21.19 4.48 7.3-.34 20.1 3.38 6.76 8.95 27.2-6.17 8.94-1.18-8.94-9.71-7.18-5.74 10.89 2.19 5.23-10.3-8.52 7.25-28.07-4.08-12.66 1.5-20.17-5.36-6.44 1.5-47.27-11.16-24.46v-15.88l3.43-8.59-9.87-89.94z"/>
</svg>
