<svg xmlns="http://www.w3.org/2000/svg" xmlns:xlink="http://www.w3.org/1999/xlink" width="262" height="262" viewBox="228.465 174.287 262 262">
  <defs>
    <path id="a" d="M228.46 174.29h262v262h-262v-262Z"/>
    <path id="b" d="M228.46 436.29h177.16v-13.51H228.46v13.51Z"/>
    <path id="c" d="m398.14 383.9.65 38.88H228.46v-39.53l169.68.65Z"/>
    <path id="d" d="M392.38 363.6v20.3l-163.92-.65V363.6h163.92Z"/>
    <path id="e" d="M301.22 436.29h-46.71v-65.83h60.04l-13.33 65.83Z"/>
    <path id="f" d="m254.51 393.1 21.63.37.37 16.83h-22v3.84h22v22.15h4.83l-.37-22.15h27.1l-1.11-43.68H303v18.68h-22.78l-.49-18.68h-3.59v18.68h-21.63v3.96Z"/>
    <path id="g" d="m280.84 410.43 22.65.49-.62-17.57h-22.52l.49 17.08Z"/>
    <path id="h" d="m308.94 410.28 12.35 26.01h64.6l-.37-65.83h-65.1l-11.48 39.82Z"/>
    <path id="i" d="m320.45 370.46-6.93 42.44 9.4 23.39h-27.97l16.59-65.83h8.91Z"/>
    <path id="j" d="M379.13 363.6v-44.66l-3.21-7.91-141.24.43v52.14h144.45Z"/>
    <path id="k" d="M247.5 311.46h7.01v52.14h-7.01v-52.14Z"/>
    <path id="l" d="M359.46 311.03h7.01v52.57h-7.01v-52.57Z"/>
    <path id="m" d="m465.11 419.96-1.54 9.58 7.5 3.67 10.82-1.55 4.63-5.74-1.54-11.47-3.09-3.32-7.95 1.99-114.48-122.96-3.84 3.31 109.49 126.49Z"/>
    <path id="n" d="M382.64 203.62h5.05l-.93-13.08 26.54-7.11h19.81l22.43 5.99 1.87 13.64 12.52 3.93 1.13 11.21-10.47 41.12-39.52 25.8-39.55-27.11-8.97-34.58v-15.7l10.09-4.11Z"/>
    <path id="o" d="M412.07 189.35h18.28l18.81 5.05v9.35l14.2 7.64-6.13 42.26-36.16 24.08-34.16-22.79-6.03-43.55 13.66-7.64v-9.89l17.53-4.51Z"/>
    <path id="p" d="m444.43 196.01.86 7.53 12.58 8.92-5.37 38.28-31.43 23.44-31.26-22.15-4.52-37.09 14.2-11.4v-8.5l44.94.97Z"/>
    <path id="q" d="M441.64 198.49v5.05l13.33 10.54-5.59 36.45-27.8 20.97-27.15-18.39-6.02-36.02 14.09-13.23v-4.62l39.14-.75Z"/>
    <path id="r" d="m401.74 212.57 36.56-.86 2.69 3.55-.21 14.41-4.2 7.85h-13.55v16.23h5.38l-1.07 1.94H402.6v-1.94h3.66l.22-38.49-4.74.32v-3.01Z"/>
    <path id="s" d="m417.87 253.75 2.91-.32v-38.71h-2.58l-.33 39.03Z"/>
    <path id="t" d="M423.14 234.99h6.56l-.21-19.73-5.7-.54-.65 20.27Z"/>
    <path id="u" d="m265.6 266.55-8.61-22.58-2.63-22.33-.37-12.51 4.36-8.16-3.99-9.88 3.99-1.09 6.34 4.53-1.09-12.14 3.9-3.9 4.17.54 4.72 10.97 5.44.27 8.76 12.81 9.07 6.98-2.72 4.08-3.54.55 7.8 8.43 22.95 4.14 8.92 4.45 12.56 20.88 2.91 17.86 9.7 13.97-.73 7.7-1.63 1-10.88-2.81-4.16-5.6-.73 11.69-6.59 6.24-5.66-.57-.36-3.51 6.51-3.1-.94-12.65-6.6-6.06.67 21.81-3.5 1.48h-7.67l.41-4.58 4.44-.67-1.62-12.39-16.15-13.72-8.75-.95-2.55 31.77-11.71 1.34-.41-3.5 4.45-2.96.67-27.05-9.42-.4-.68 31.22-12.78.94.4-5.78 5.52-2.7v-23.28l-2.19-.78Z"/>
  </defs>
  <use xlink:href="#a" fill="#9b7647"/>
  <use xlink:href="#b" fill="#3b6225"/>
  <use xlink:href="#c" fill="#c3ad55"/>
  <use xlink:href="#d" fill="#304c98"/>
  <use xlink:href="#e" fill="#a16046"/>
  <use xlink:href="#f" fill="#714030"/>
  <use xlink:href="#g" fill="#a16046"/>
  <use xlink:href="#h" fill="#8a0e2f"/>
  <use xlink:href="#i" fill="#d2a644"/>
  <use xlink:href="#j" fill="#b57be6"/>
  <use xlink:href="#k" fill="#0e8a35"/>
  <use xlink:href="#l" fill="#0e8a35"/>
  <use xlink:href="#m" fill="#cf5922"/>
  <use xlink:href="#n" fill="#7e7d78"/>
  <use xlink:href="#o" fill="#6d313e"/>
  <use xlink:href="#p" fill="#7e7d78"/>
  <use xlink:href="#q" fill="#6d313e"/>
  <use xlink:href="#r" fill="#7e7d78"/>
  <use xlink:href="#s" fill="#6d313e"/>
  <use xlink:href="#t" fill="#6d313e"/>
  <use xlink:href="#u" fill="#d5d5d5"/>
</svg>
