<svg xmlns="http://www.w3.org/2000/svg" xmlns:xlink="http://www.w3.org/1999/xlink" width="262" height="262" viewBox="184.997 172.001 262 262">
  <defs>
    <path id="a" d="M185 172h262v262H185V172Z"/>
    <path id="b" d="m185 425.04 32.44-114.67-4.19-.92-3.68-7.16-.61-7.87 3.78-20.55-11.96-1.74-1.84 20.74-3.38 6.74-5.21 5.12-3.66-.98L185 425.04Z"/>
    <path id="c" d="M220.87 394.76H447V211.15l-226.13-.42v184.03Z"/>
    <path id="d" d="M233.83 223.87h198.51v157.09H233.83V223.87Z"/>
    <path id="e" d="m211.62 273.62 9.1-42.34 3.17-4.49 3.88-.92 8.8 5.01-1.95-6.86-10.73-12.47-11.35-3.58-9.1 1.13-12.89 10.94-.71 2.76 9.1-1.43 3.88 5.42-.81 45.34 9.61 1.49Z"/>
    <path id="f" d="M418.59 236.93v131.26l-171.19.67V236.93h171.19Z"/>
    <path id="g" d="M412.34 242.99v118.88H253.37V242.99h158.97Z"/>
    <path id="h" d="M260.36 355.11h144.52l.86-104.43H260.36v104.43Z"/>
    <path id="i" d="M207.65 434H447v-39.24H207.65V434Z"/>
    <path id="j" d="M266.84 394.76V434h-38.93l-.7-39.24h39.63Z"/>
    <path id="k" d="m359.59 394.76-.47 39.24h-65.27v-39.24h65.74Z"/>
    <path id="l" d="m424.86 394.76.46 39.24h-39.16v-39.24h38.7Z"/>
  </defs>
  <use xlink:href="#a" fill="#9b7647"/>
  <use xlink:href="#b" fill="#d7d7d4"/>
  <use xlink:href="#c" fill="#b8976a"/>
  <use xlink:href="#d" fill="#4b322b"/>
  <use xlink:href="#e" fill="#272727"/>
  <use xlink:href="#f" fill="#b8976a"/>
  <use xlink:href="#g" fill="#000000"/>
  <use xlink:href="#h" fill="#cfb096"/>
  <use xlink:href="#i" fill="#505050"/>
  <use xlink:href="#j" fill="#ebdeb8"/>
  <use xlink:href="#k" fill="#ebdeb8"/>
  <use xlink:href="#l" fill="#ebdeb8"/>
</svg>
