<svg xmlns="http://www.w3.org/2000/svg" xmlns:xlink="http://www.w3.org/1999/xlink" width="262" height="262" viewBox="194.997 182.001 262 262">
  <defs>
    <path id="a" d="M195 182h262v262H195V182Z"/>
    <path id="b" d="m274.84 369.73 42.25-9.4 19.27-21.63 4.61-25.78-6.02-35.21-17.03-16.67-26.59-11.52h-35.82l-26.08 11.52-16.65 15.61-6.91 30.67 4.96 31.38 17.02 19.33 46.99 11.7Z"/>
    <path id="c" d="m256.02 444 12.38-7.28 4.4-4.88 3.26 2.6 22.8 9.56h18.08l15.13-6.63 9.46-8.63.98-13.35-12.87-12.22-34.69-23.73 1.94-9.62 27.2 17.26 1.14-1.34-5.23-7.81 7.67 1.17v4.04l7-5.7-2.6-7.62-13.85-12.25h-30.45l-13.52 9.64-15.41-9.64h-30.29l-14.14 13.19-1.17 6.68 7.33 5.7v-3.7l6.68-1.51-5.05 7.81 1.55.53 26.95-16.89 1.44 10.06-33.42 22.64-14.37 13.66 1.44 14.01 8.62 6.47L231.3 444h24.72Z"/>
    <path id="d" d="m241.53 425.81 5.21 3.58v-5.05l-5.21 1.47Z"/>
    <path id="e" d="m235.5 366.69-3.25 4.88-1.96-1.3 1.3-2.77 3.91-.81Z"/>
    <path id="f" d="m315.98 367.5 1.11 2.84-1.87 1.2-3.31-4.37 4.07.33Z"/>
    <path id="g" d="m305.79 425.93-5.61 3.98v-4.57l5.61.59Z"/>
    <path id="h" d="m229.43 416.03 40.03-27.47 5.02-9.75 4.13 9.75 40.03 27.91-2.95.89-16.1-8.72-18.32 3.84-7.84 11.86-7.67-11.86-18.61-3.84-15.8 9.31-1.92-1.92Z"/>
    <path id="i" d="m356.33 218.28 27.08 219.37-25.56 6.35-26.47-222.07 24.95-3.65Z"/>
    <path id="j" d="M457 189.68V444h-73.59V190.9l73.59-1.22Z"/>
  </defs>
  <use xlink:href="#a" fill="#9b7647"/>
  <use xlink:href="#b" fill="#d5ffee"/>
  <use xlink:href="#c" fill="#2f713d"/>
  <use xlink:href="#d" fill="#000000"/>
  <use xlink:href="#e" fill="#000000"/>
  <use xlink:href="#f" fill="#000000"/>
  <use xlink:href="#g" fill="#000000"/>
  <use xlink:href="#h" fill="#9b7647"/>
  <use xlink:href="#i" fill="#7435d2"/>
  <use xlink:href="#j" fill="#6e1313"/>
</svg>
