<svg xmlns="http://www.w3.org/2000/svg" xmlns:xlink="http://www.w3.org/1999/xlink" width="262" height="262" viewBox="186.22 189 262 262">
  <defs>
    <path id="a" d="M186.22 189h262v262h-262V189Z"/>
    <path id="b" d="M448.22 451v-57H214.33v57h233.89Z"/>
    <path id="c" d="m424.63 394-.79 57h-19.91l-1.96-57h22.66Z"/>
    <path id="d" d="M232.94 394v-42.18h215.28V394H232.94Z"/>
    <path id="e" d="m307.4 322.15-21.77 29.67h-4.84l11.61-35.72-.97-14.51 15.97 20.56Z"/>
    <path id="f" d="m270.91 252.51-4.1-14.42 4.57-3.63 11.14 4.34v11.13l-11.61 2.58Z"/>
    <path id="g" d="M367.87 345.85h-16.45l-22.25-7.98-8.47-6.05-7.5 20h-7.98l2.66-12.98-16.45-36.77-17.65-16.21H267l-24.19-13.06-.41-9.07-.31-6.65 16.2-6.78h23.95l19.59 11.13 32.62 8.13 56.16.82 25.15 6.29 7.02 7.26-54.91 61.92Z"/>
    <path id="h" d="m400.28 349.24 44.03-21.05v-13.54l-8.47-18.87-13.06-11.85-33.62-6.05-21.77 12.82-7.99 26.37 8.71 28.78 32.17 3.39Z"/>
    <path id="i" d="m245.99 261.48-3.17 11.26-5.63-10.55.82-3.99 4.08-.94 3.9 4.22Z"/>
    <path id="j" d="M448.22 306.18v27.33l-18.67 18.31h-99.41l20.56-5.73 52-.96 31.21-13.07 7.98-14.27-5.57-21.53 11.9 9.92Z"/>
    <path id="k" d="m272.36 253.98 3.29 3.75-3.64 5.04-8.32-1.87-.7-5.63 9.37-1.29Z"/>
    <path id="l" d="m291.31 264.35 12.19-8.44 2.93-7.62-11.13-8.79-12.78 3.28-.24 15.24 9.03 6.33Z"/>
  </defs>
  <use xlink:href="#a" fill="#9b7647"/>
  <use xlink:href="#b" fill="#d8cfe7"/>
  <use xlink:href="#c" fill="#f3e782"/>
  <use xlink:href="#d" fill="#d8edf5"/>
  <use xlink:href="#e" fill="#949494"/>
  <use xlink:href="#f" fill="#949494"/>
  <use xlink:href="#g" fill="#b9b9b9"/>
  <use xlink:href="#h" fill="#949494"/>
  <use xlink:href="#i" fill="#f4c9d9"/>
  <use xlink:href="#j" fill="#f4c9d9"/>
  <use xlink:href="#k" fill="#565656"/>
  <use xlink:href="#l" fill="#f4c9d9"/>
</svg>
