<svg xmlns="http://www.w3.org/2000/svg" xmlns:xlink="http://www.w3.org/1999/xlink" width="262" height="262" viewBox="20.618 285.122 262 262">
  <defs>
    <path id="a" d="M20.62 285.12h262v262h-262v-262Z"/>
    <path id="b" d="M43.17 328.75h32.67v218.37H43.17V328.75Z"/>
    <path id="c" d="M43.17 317.52h32.67v11.23H43.17v-11.23Z"/>
    <path id="d" d="M75.84 306.85h22.33v240.27H75.84V306.85Z"/>
    <path id="e" d="M98.17 469.97v11.2l-22.33 22.27v-11.62l22.33-21.85Z"/>
    <path id="f" d="M98.17 503.44v10.22l-22.33 22.27v-11.34l22.33-21.15Z"/>
    <path id="g" d="M142.11 496.93h63.18l24.94 50.19H116.66l25.45-50.19Z"/>
    <path id="h" d="m127.22 481.39-8.62-27.12 4.24-26.22 17.49-19.79 20.56-9.39h28.41l18.51 9.39 17.86 18.89 3.6 30.85-9.64 24.04-14.27 14.89h-62.85l-15.29-15.54Z"/>
    <path id="i" d="M248.86 372.35h33.76v174.77h-33.76V372.35Z"/>
  </defs>
  <use xlink:href="#a" fill="#9b7647"/>
  <use xlink:href="#b" fill="#7547a8"/>
  <use xlink:href="#c" fill="#512780"/>
  <use xlink:href="#d" fill="#bf1313"/>
  <use xlink:href="#e" fill="#e6e11f"/>
  <use xlink:href="#f" fill="#e6e11f"/>
  <use xlink:href="#g" fill="#d8b00b"/>
  <use xlink:href="#h" fill="#dddddd"/>
  <use xlink:href="#i" fill="#ad1e89"/>
</svg>
