<svg xmlns="http://www.w3.org/2000/svg" xmlns:xlink="http://www.w3.org/1999/xlink" width="262" height="262" viewBox="19.424 17.126 262 262">
  <defs>
    <path id="a" d="M19.42 17.13h262v262h-262v-262Z"/>
    <path id="b" d="M19.42 17.13h21.8v262h-21.8v-262Z"/>
    <path id="c" d="M41.22 60.75h32.66v218.38H41.22V60.75Z"/>
    <path id="d" d="M41.22 49.52h32.66v11.23H41.22V49.52Z"/>
    <path id="e" d="M73.88 38.85h22.34v240.28H73.88V38.85Z"/>
    <path id="f" d="M96.22 201.97v11.21l-22.34 22.26v-11.62l22.34-21.85Z"/>
    <path id="g" d="M96.22 235.44v10.23l-22.34 22.27v-11.35l22.34-21.15Z"/>
    <path id="h" d="M248.17 104.25h32.66v174.1h-32.66v-174.1Z"/>
    <path id="i" d="M140.59 228.16h63.17l24.94 50.19H115.14l25.45-50.19Z"/>
    <path id="j" d="m125.69 212.62-8.61-27.12 4.24-26.22 17.48-19.79 20.56-9.39h28.41l18.51 9.39 17.87 18.89 3.6 30.85-9.64 24.04-14.27 14.89h-62.86l-15.29-15.54Z"/>
  </defs>
  <use xlink:href="#a" fill="#9b7647"/>
  <use xlink:href="#b" fill="#3e8a21"/>
  <use xlink:href="#c" fill="#7547a8"/>
  <use xlink:href="#d" fill="#512780"/>
  <use xlink:href="#e" fill="#bf1313"/>
  <use xlink:href="#f" fill="#e6e11f"/>
  <use xlink:href="#g" fill="#e6e11f"/>
  <use xlink:href="#h" fill="#9b69d2"/>
  <use xlink:href="#i" fill="#d8b00b"/>
  <use xlink:href="#j" fill="#dddddd"/>
</svg>
