<svg xmlns="http://www.w3.org/2000/svg" xmlns:xlink="http://www.w3.org/1999/xlink" width="262" height="262" viewBox="73.377 319.328 262 262">
  <defs>
    <path id="a" d="M73.38 319.33h262v262h-262v-262Z"/>
    <path id="b" d="m133.56 471.72 56.87 109.01H75.1l58.46-109.01Z"/>
    <path id="c" d="m104.01 538.05.16 16.11 6.32 12.8 15.17 9.16-41.39-.16 19.74-37.91Z"/>
    <path id="d" d="m113.65 520.2 8.37-6.01 9.96-2.21-.48-26.22-17.85 34.44Z"/>
    <path id="e" d="m135.77 511.51 9 2.53 9.8 7.42-18.96-36.49.16 26.54Z"/>
    <path id="f" d="m162.47 537.42.15 17.06-6.79 12.79-13.74 8.38h41.55l-21.17-38.23Z"/>
    <path id="g" d="m131.66 571.86-6.63-.64-8.22-4.74-5.84-7.58-3.48-14.38 2.69-11.05 11.37-14.7 10.43-1.73-.32 54.82Z"/>
    <path id="h" d="m146.04 519.41 10.9 13.27 2.68 13.42-3 12.33-7.42 9-6.32 3-8.06.32.63-53.4 10.59 2.06Z"/>
    <path id="i" d="m293.79 350.19 41.18-.33v230.96h-33.84l-7.34-230.63Z"/>
    <path id="j" d="m299.65 534.18 35.31-4.16v19.62l-35.09 1.54-.22-17Z"/>
    <path id="k" d="m236.37 319.64 56.64.08 8.12 261.15-53.95-.06-10.81-261.17Z"/>
    <path id="l" d="m237.28 343.77 56.51-.83.53 19.06-56.21-.9-.83-17.33Z"/>
    <path id="m" d="m73.91 388.85 30.13-26.73 141.92 188.45.23 6.05-29.33 23.83-142.95-191.6Z"/>
    <path id="n" d="M104.04 362.21 184 319.58l54.8 58.43 7.18 172.79-141.94-188.59Z"/>
  </defs>
  <use xlink:href="#a" fill="#9b7647"/>
  <use xlink:href="#b" fill="#f7ca37"/>
  <use xlink:href="#c" fill="#9b7647"/>
  <use xlink:href="#d" fill="#9b7647"/>
  <use xlink:href="#e" fill="#9b7647"/>
  <use xlink:href="#f" fill="#9b7647"/>
  <use xlink:href="#g" fill="#9b7647"/>
  <use xlink:href="#h" fill="#9b7647"/>
  <use xlink:href="#i" fill="#9dc089"/>
  <use xlink:href="#j" fill="#f2cdb2"/>
  <use xlink:href="#k" fill="#2d8a55"/>
  <use xlink:href="#l" fill="#ccd9bb"/>
  <use xlink:href="#m" fill="#66669a"/>
  <use xlink:href="#n" fill="#5481fa"/>
</svg>
