<svg xmlns="http://www.w3.org/2000/svg" xmlns:xlink="http://www.w3.org/1999/xlink" width="262.9" height="262.03" viewBox="338.119 315.684 262.904 262.026">
  <defs>
    <path id="a" d="M339.02 315.71h262v262h-262v-262Z"/>
    <path id="b" d="m381.89 453.85-7.57 40.1 21.25 30.7.47 30.45-10.44 21.83-26.99.13-11.81-24.83-.28-26.51 16.32-32.15-13.81-39.23 32.86-.49Z"/>
    <path id="c" d="m559.3 346.67 41.19-.33v230.95h-33.84l-7.35-230.62Z"/>
    <path id="d" d="m565.17 530.66 35.31-4.17v19.63l-35.09 1.53-.22-16.99Z"/>
    <path id="e" d="m501.88 315.68 56.64.08 8.11 261.03-53.93.06-10.82-261.17Z"/>
    <path id="f" d="m502.79 340.25 56.51-.83.53 19.06-56.2-.91-.84-17.32Z"/>
    <path id="g" d="m338.12 386.14 31.43-27.55 141.92 188.45.24 6.05-29.33 24.59-144.26-191.54Z"/>
    <path id="h" d="m369.55 358.69 79.97-42.64 54.79 58.44 7.18 172.79-141.94-188.59Z"/>
  </defs>
  <use xlink:href="#a" fill="#9b7647"/>
  <use xlink:href="#b" fill="#8dbb8d"/>
  <use xlink:href="#c" fill="#f39f27"/>
  <use xlink:href="#d" fill="#f2cdb2"/>
  <use xlink:href="#e" fill="#2d778a"/>
  <use xlink:href="#f" fill="#8ac5d4"/>
  <use xlink:href="#g" fill="#c89919"/>
  <use xlink:href="#h" fill="#efc961"/>
</svg>
