<svg xmlns="http://www.w3.org/2000/svg" xmlns:xlink="http://www.w3.org/1999/xlink" width="262" height="262" viewBox="363.181 101.498 262 262">
  <defs>
    <path id="a" d="M363.18 101.5h262v262h-262v-262Z"/>
    <path id="b" d="m584.06 132.15 40.62-.45.17 231.31h-33.38l-7.41-230.86Z"/>
    <path id="c" d="m589.93 316.14 34.88-3.99-.06 19.51-34.6 1.47-.22-16.99Z"/>
    <path id="d" d="m526.65 101.6 56.63.07 8.3 261.39-54.06-.11-10.87-261.35Z"/>
    <path id="e" d="m527.56 125.73 56.5-.84.53 19.07-56.2-.91-.83-17.32Z"/>
    <path id="f" d="m364.19 170.8 30.13-26.73 141.92 188.45.23 6.05-29.33 23.83-142.95-191.6Z"/>
    <path id="g" d="m394.32 144.16 79.96-42.63 54.8 58.43 7.18 172.8-141.94-188.6Z"/>
    <path id="h" d="m482.97 167.11 11.65-.3 5.83 9.2v3.37l-2.76 1.84 5.98 21.47-5.82-3.06-11.66 7.67 4.6 4.75 5.89-3.16 10.67 4.39-16.71 8.74-18.56-22.24-8.74-2.3-3.99-10.28 9.05-7.66 7.51-1.08 7.06-11.35Z"/>
    <path id="i" d="m471.77 192.42-4.45-4.76 12.8 1.1-8.35 3.66Z"/>
    <path id="j" d="m491.56 172.02 2.91 5.37-7.51 7.51 4.6-12.88Z"/>
    <path id="k" d="m482.44 197.57 2.85-2.01-2.43-4.33-.42 6.34Z"/>
    <path id="l" d="m489.94 192.92-2.64 1.69-2.32-4.54 4.96 2.85Z"/>
    <path id="m" d="m497.77 199.54 6.7 3.53 3.31-1.91-1.05-6.34-6.1-2.95-2.99-10.74 2.76-1.72 14.35 10.34 3.07 11.3-10.56 12.23-18.45-7.68 8.96-6.06Z"/>
    <path id="n" d="m451.09 171.78 9.37 2.7 21.69-9.54-20.93-14.77 30.88 6.59.34-3.97-9.11-7.68-27.17-2.95-4.81 3.88-2.54 5.06 13.08 11.82-19.74-.93-.51 4.89-3.46 4.12 6.75 12.15 14.26 4.22 8.86-7.51-16.96-8.08Z"/>
    <path id="o" d="m492.19 156.17 2.36.67 7.09 3.38-2.95-5.83-6.42-.92-.08 2.7Z"/>
    <path id="p" d="m407.23 239.56-7.99 40.49 16.38 18.08v49.94l-12.45 14.67-18.22-.13-13.1-14.64-.66-47.05 15.6-20.44-9.7-40.5 30.14-.42Z"/>
  </defs>
  <use xlink:href="#a" fill="#9b7647"/>
  <use xlink:href="#b" fill="#9dc089"/>
  <use xlink:href="#c" fill="#f2cdb2"/>
  <use xlink:href="#d" fill="#2d8a55"/>
  <use xlink:href="#e" fill="#ccd9bb"/>
  <use xlink:href="#f" fill="#455845"/>
  <use xlink:href="#g" fill="#7b886e"/>
  <use xlink:href="#h" fill="#38c863"/>
  <use xlink:href="#i" fill="#7b886e"/>
  <use xlink:href="#j" fill="#7b886e"/>
  <use xlink:href="#k" fill="#7b886e"/>
  <use xlink:href="#l" fill="#7b886e"/>
  <use xlink:href="#m" fill="#60fe67"/>
  <use xlink:href="#n" fill="#52fe5d"/>
  <use xlink:href="#o" fill="#fe5252"/>
  <use xlink:href="#p" fill="#646564"/>
</svg>
