<svg xmlns="http://www.w3.org/2000/svg" xmlns:xlink="http://www.w3.org/1999/xlink" width="262" height="262" viewBox="40.982 314.997 262 262">
  <defs>
    <path id="a" d="M40.98 315h262v262h-262V315Z"/>
    <path id="b" d="m42.25 351.04 67.25-1.35v110.35L41.43 489.7l.82-138.66Z"/>
    <path id="c" d="m41.4 489.68 67.98-29.6.2 116.54-68.18-.21v-86.73Z"/>
    <path id="d" d="m109.41 335.29 62.65-.11.51 241.38h-63.04l-.12-241.27Z"/>
    <path id="e" d="m251.14 574.82 6.52 1.88 10.29-8.41 7.68-15.65-.14-15.94 4.05-3.19 5.8 16.23 5.51 1.74 5.8-3.48 5.94-17.53.14-20.29-7.39-10.15-6.67-.29-5.65 6.96.15 1.3-43.19.29-16.38 12.18-7.1 14.06 4.06 2.46 5.65-12.61 15.36-10.72 40.44 1.01-1.02 11.16-3.77-2.32-4.2 4.93-5.65-6.67-4.93-.29-4.64-.87-10.14 7.54-6.81 18.26.29 5.07-68.41-8.69v3.18l2.76.58-3.19 8.85 3.48 1.15 3.91-8.84 61.3 13.63v3.19l10.15 10.29Z"/>
    <path id="f" d="m268.24 529.74 3.04 18.26-5.36 14.64-8.55 7.97-3.77-.14-6.52-9.28.14-16.08 4.64-13.19 7.83-6.81 5.22.29 3.33 4.34Z"/>
    <path id="g" d="m286.21 536.84 3.77 8.12 2.32.58 6.08-10 1.16-20.29-13.18-.43-.15 22.02Z"/>
    <path id="h" d="M292.15 504.96h3.19l1.31 3.33-6.38-.29 1.88-3.04Z"/>
  </defs>
  <use xlink:href="#a" fill="#9b7647"/>
  <use xlink:href="#b" fill="#99679a"/>
  <use xlink:href="#c" fill="#cb99cc"/>
  <use xlink:href="#d" fill="#efcd22"/>
  <use xlink:href="#e" fill="#2d2d2d"/>
  <use xlink:href="#f" fill="#eaeaea"/>
  <use xlink:href="#g" fill="#eaeaea"/>
  <use xlink:href="#h" fill="#eaeaea"/>
</svg>
