<svg xmlns="http://www.w3.org/2000/svg" xmlns:xlink="http://www.w3.org/1999/xlink" width="262" height="262" viewBox="339.947 140.859 262 262">
  <defs>
    <path id="a" d="M339.95 140.86h262v262h-262v-262Z"/>
    <path id="b" d="m341.22 176.9 67.25-1.35V285.9l-68.07 29.67.82-138.67Z"/>
    <path id="c" d="m340.36 315.55 67.98-29.61.21 116.54-68.19-.21v-86.72Z"/>
    <path id="d" d="m408.38 161.15 62.65-.11.51 241.38H408.5l-.12-241.27Z"/>
    <path id="e" d="m495.92 320.93-9.14 35.69 9.48-4.14 14.14 1.21 17.07 12.41.17 8.79 9.49-3.96 8.44 4.14v-9.14l17.59-12.42 14.48-.86 8.28 4.14-8.97-35.86-12.41 11.38-1.72-2.93 18.1-18.63 17.76 72.59-12.59 19.14-27.41-.17-13.11-15v-5.18l-9.48-3.79-8.45 3.97-.17 5.34-12.41 14.48H487.3l-12.24-19.48 17.41-71.72 17.93 18.1-1.72 3.28-12.76-11.38Z"/>
    <path id="f" d="m522.71 386.41-12.83 11.37-20.63-.53-6.88-10.71 3.84-23.54 18.91-6.35 16.93 11.5.66 18.26Z"/>
    <path id="g" d="m550.49 386.14 13.23 11.78 19.84-.4 6.62-11.24-3.58-23.15-19.04-6.35-16.8 11.24-.27 18.12Z"/>
  </defs>
  <use xlink:href="#a" fill="#9b7647"/>
  <use xlink:href="#b" fill="#99679a"/>
  <use xlink:href="#c" fill="#cb99cc"/>
  <use xlink:href="#d" fill="#efcd22"/>
  <use xlink:href="#e" fill="#3b3b3b"/>
  <use xlink:href="#f" fill="#eaeaea"/>
  <use xlink:href="#g" fill="#eaeaea"/>
</svg>
