<svg xmlns="http://www.w3.org/2000/svg" xmlns:xlink="http://www.w3.org/1999/xlink" width="262" height="262" viewBox="25.676 20.041 262 262">
  <defs>
    <path id="a" d="M25.68 20.04h262v262h-262v-262Z"/>
    <path id="b" d="m26.06 56.48 67.25-1.35v110.35l-67.18 29.4-.07-138.4Z"/>
    <path id="c" d="m26.18 194.59 67.01-29.07-.07 116.09-66.85.06-.09-87.08Z"/>
    <path id="d" d="m93.61 40.42 63.63.12-.47 240.99h-63.5l.34-241.11Z"/>
    <path id="e" d="m199.69 234.08-1.15-2.3 8.82-15.86 11.51-3.07.38 23.28-.18 32.19-15.29-1.89-3.07-5.88-43.6 7.04-.26-34.92 42.84 1.41Z"/>
    <path id="f" d="m259.24 281.98.93-110.25-40.92.13-.24 110.17 40.23-.05Z"/>
    <path id="g" d="m207.26 215.87-6.34 11.57 18.21 8.58 14.57 10.74h8.44l4.35-3.07.77-6.91-18.03-18.15-15.43-4.47-6.54 1.71Z"/>
    <path id="h" d="m231.02 235.51.13 3.58 4.86 5.37 6.52-1.92 2.3-5.24-4.73-5.12h-5.37l-3.71 3.33Z"/>
    <path id="i" d="m259.78 226.39 13.86-10.15-2.57-1.97-11.32 2.22.03 9.9Z"/>
    <path id="j" d="m259.72 226.43-.1 7.91 3.91 2.56 12.91-3.84 2.94-3.96-3.2-12.28-2.55-.64-13.91 10.25Z"/>
    <path id="k" d="m271.45 233.7.9-6.14-2.56-2.42-6.14 2.17-1.28 4.09 2.18 4.6 6.9-2.3Z"/>
    <path id="l" d="m262.23 252.91-2.79 2.85.02 6.91 1.79 2.88 14.12-2.64 1.56-4.02.3-5.98h-15Z"/>
    <path id="m" d="m265.57 237.03-6.06 4.31.05 6.56 3.27 2.87 16.84-1.53 1.76-2.75.51-8.95-16.37-.51Z"/>
    <path id="n" d="m259.31 280.62 6.74-3.01.98-5.19-3.82-4.61-3.78-.79-.12 13.6Z"/>
    <path id="o" d="m259.31 275.45 4.1-3.03-.2-3.93-1.37-.49.09 3.34-2.5 2.36-.12 1.75Z"/>
    <path id="p" d="m262.82 250.75-3.25-2.86-.15 7.85 3-2.83 14.84-.01-3.85-3.13-10.59.98Z"/>
    <path id="q" d="m263.78 236.77-4.16-2.31-.04 6.83 6.12-4.01 16.05.26-5.27-4.52-12.7 3.75Z"/>
    <path id="r" d="m267.52 262.71-4.9.69-1.96-5.69 2.45-2.84 3.63-.1 2.55 2.94-1.77 5Z"/>
    <path id="s" d="m264.39 250.45-.69-8.23 2.25-2.35 5.89-.1 1.08 3.14-1.38 6.37-7.15 1.17Z"/>
    <path id="t" d="m244.23 171.74 4.42-9.64-6.92-11.22-3.43.07-6.86 11.43 5 9.43 7.79-.07Z"/>
  </defs>
  <use xlink:href="#a" fill="#9b7647"/>
  <use xlink:href="#b" fill="#42a294"/>
  <use xlink:href="#c" fill="#33cb98"/>
  <use xlink:href="#d" fill="#cb7733"/>
  <use xlink:href="#e" fill="#d0b485"/>
  <use xlink:href="#f" fill="#333333"/>
  <use xlink:href="#g" fill="#f2dcc5"/>
  <use xlink:href="#h" fill="#d0b485"/>
  <use xlink:href="#i" fill="#d0b485"/>
  <use xlink:href="#j" fill="#f2dcc5"/>
  <use xlink:href="#k" fill="#d0b485"/>
  <use xlink:href="#l" fill="#f2dcc5"/>
  <use xlink:href="#m" fill="#f2dcc5"/>
  <use xlink:href="#n" fill="#f2dcc5"/>
  <use xlink:href="#o" fill="#d0b485"/>
  <use xlink:href="#p" fill="#d0b485"/>
  <use xlink:href="#q" fill="#d0b485"/>
  <use xlink:href="#r" fill="#d0b485"/>
  <use xlink:href="#s" fill="#d0b485"/>
  <use xlink:href="#t" fill="#e43613"/>
</svg>
