<svg xmlns="http://www.w3.org/2000/svg" xmlns:xlink="http://www.w3.org/1999/xlink" width="262.02" height="262.05" viewBox="24.564 28.406 262.018 262.046">
  <defs>
    <path id="a" d="M24.58 28.41h262v262h-262v-262Z"/>
    <path id="b" d="M24.62 28.45H90.2l.29 261.85-65.93.05.06-261.9Z"/>
    <path id="c" d="M24.62 210.78h65.77l.04 15.02H24.67l-.05-15.02Z"/>
    <path id="d" d="m24.68 254.69 65.74.04v9.59l-65.78.04.04-9.67Z"/>
    <path id="e" d="m90.39 78.68 65.3.34.42 35.68-65.89 1 .17-37.02Z"/>
    <path id="f" d="m90.56 115.49 65.5-.92-.05 175.88-65.64-.07.19-174.89Z"/>
    <path id="g" d="m240.3 50.75 46.19.07.07 239.61h-46.33l.07-239.68Z"/>
    <path id="h" d="M240.34 92.9h46.08l.07 11.39-46.01.28-.14-11.67Z"/>
    <path id="i" d="M156.34 166.82 187 153.61l1.06 20.81-16.49 6.44-15.23-14.04Z"/>
    <path id="j" d="M163.79 183.58 194.34 171l42.94 102.24-4.88 17.14-14.31.04-11.81-4.94-42.49-101.9Z"/>
  </defs>
  <use xlink:href="#a" fill="#9b7647"/>
  <use xlink:href="#b" fill="#3d1ced"/>
  <use xlink:href="#c" fill="#c7469b"/>
  <use xlink:href="#d" fill="#c7469b"/>
  <use xlink:href="#e" fill="#484848"/>
  <use xlink:href="#f" fill="#959595"/>
  <use xlink:href="#g" fill="#9f9381"/>
  <use xlink:href="#h" fill="#cbb886"/>
  <use xlink:href="#i" fill="#d1cd7f"/>
  <use xlink:href="#j" fill="#1bc0e1"/>
</svg>
