<svg xmlns="http://www.w3.org/2000/svg" xmlns:xlink="http://www.w3.org/1999/xlink" width="262.2" height="262.03" viewBox="171.556 332.014 262.197 262.033">
  <defs>
    <path id="a" d="M171.57 332.01h262v262h-262v-262Z"/>
    <path id="b" d="M171.61 332.06h65.58l.29 261.85-65.92.14.05-261.99Z"/>
    <path id="c" d="M171.61 514.39h65.77l.04 15.02h-65.76l-.05-15.02Z"/>
    <path id="d" d="m171.67 558.3 65.74.04v9.59l-65.78.04.04-9.67Z"/>
    <path id="e" d="m237.38 382.29 65.3.33.42 35.69-65.89 1 .17-37.02Z"/>
    <path id="f" d="m237.56 419.1 65.5-.92-.06 175.79-65.64.02.2-174.89Z"/>
    <path id="g" d="m387.29 354.36 46.19.07.27 239.61h-46.53l.07-239.68Z"/>
    <path id="h" d="M387.33 396.51h46.08l.07 11.39-46.01.28-.14-11.67Z"/>
    <path id="i" d="m302.85 541.49 5.93 15.83 10.02 14.55 13.73 13.62 18.72 8.48 16.66-.03 16.31-12.06 2.21-23.4-5-19.21-9.4-11.79-19.24-19.41-23.4-8.03-7.1.7-9.2 3.61-8.38 8.26-1.98 5.71.12 23.17Z"/>
    <path id="j" d="m322.23 524.63 4.21 5.85 10.17.83 2.97-3.91.11-9.85-8.73-6.57-9.96 1.54-9.55 11.19 1.13 13.45 8.73 10.37 14.27 5.34h26.69l9.65 8.42-.41 11.08-8.83 5.65-7.18-3.39-.31-5.44 6.26-1.03-3.9-5.95-7.19 3.9.11 8.63 11.19 10.06 7.9-1.34 8.01-11.09-2.77-14.47-13.66-12.63-21.86-.21-17.15-7.7-5.24-9.85.83-7.81 7.08-3.9 8.52 1.75 3.08 7.08-6.06 2.26-3.08-8.21-5.03 5.95Z"/>
  </defs>
  <use xlink:href="#a" fill="#9b7647"/>
  <use xlink:href="#b" fill="#3d1ced"/>
  <use xlink:href="#c" fill="#c7469b"/>
  <use xlink:href="#d" fill="#c7469b"/>
  <use xlink:href="#e" fill="#484848"/>
  <use xlink:href="#f" fill="#959595"/>
  <use xlink:href="#g" fill="#9f9381"/>
  <use xlink:href="#h" fill="#cbb886"/>
  <use xlink:href="#i" fill="#fbf148"/>
  <use xlink:href="#j" fill="#6fbd23"/>
</svg>
