<svg xmlns="http://www.w3.org/2000/svg" xmlns:xlink="http://www.w3.org/1999/xlink" width="262" height="262.06" viewBox="335.223 83.418 262 262.063">
  <defs>
    <path id="a" d="M335.22 83.42h262v262h-262v-262Z"/>
    <path id="b" d="M335.37 107.52h47.51l3.48 237.79h-50.99V107.52Z"/>
    <path id="c" d="m381.82 83.53 73.88-.06-.27 261.89-68.95-.06-4.66-261.77Z"/>
    <path id="d" d="m382.48 116.63 73.11-2.2v18.18l-72.91.8-.2-16.78Z"/>
    <path id="e" d="M455.65 222.94h141.51v21.16H455.65v-21.16Z"/>
    <path id="f" d="M462.72 244.01h128.74l-18.09 101.33-90.21.14-20.44-101.47Z"/>
    <path id="g" d="m551.75 171.4-2.79-32.07-25.33-25.82-38.98 2.79-12.01 26.15 23.85 36.85-28.62-25.99-2.47-30.92 15.14-17.27 47.69-1.15 32.57 31.58-1.81 50.49-35.03 36.84-10.69-.16 38.48-51.32Z"/>
    <path id="h" d="M497.31 149.53 487 164.77l-4.82-7.62 15.13-7.62Z"/>
    <path id="i" d="m501.92 84.06 1.81 20.57-7.73.16 5.92-20.73Z"/>
    <path id="j" d="m583.33 150.83-23.35 7.24.44-11.51 22.91 4.27Z"/>
    <path id="k" d="m541.06 116.46 20.23-9.87.5-22.53-25 12.5.05 15.84 4.22 4.06Z"/>
    <path id="l" d="m546.98 214.29 25.66 8.38-11.51-24.5-12.45-1.32-5.43 5.7 3.73 11.74Z"/>
  </defs>
  <use xlink:href="#a" fill="#9b7647"/>
  <use xlink:href="#b" fill="#a990ff"/>
  <use xlink:href="#c" fill="#90ddff"/>
  <use xlink:href="#d" fill="#5f62e1"/>
  <use xlink:href="#e" fill="#eb7454"/>
  <use xlink:href="#f" fill="#d05b47"/>
  <use xlink:href="#g" fill="#42d137"/>
  <use xlink:href="#h" fill="#9aed2e"/>
  <use xlink:href="#i" fill="#9aed2e"/>
  <use xlink:href="#j" fill="#9aed2e"/>
  <use xlink:href="#k" fill="#769548"/>
  <use xlink:href="#l" fill="#769548"/>
</svg>
