<svg xmlns="http://www.w3.org/2000/svg" xmlns:xlink="http://www.w3.org/1999/xlink" width="262" height="262.25" viewBox="28.001 343.016 262 262.254">
  <defs>
    <path id="a" d="M28 343.02h262v262H28v-262Z"/>
    <path id="b" d="M28.14 367.12h47.52l3.48 237.79h-51V367.12Z"/>
    <path id="c" d="m74.6 343.13 73.88-.07-.27 261.9-68.95-.06-4.66-261.77Z"/>
    <path id="d" d="m75.26 376.23 73.1-2.2v18.18l-72.9.8-.2-16.78Z"/>
    <path id="e" d="m289.56 474.55-12.57 6.76 4.6 4.32 8.41 18.82-94.71 100.82-26.2-9.51-20.61-21.59v-4.67l89.01-106.22 21.81 4.36 3.62 2.66 5.97-8.78 18.49 1.76 2.18 11.27Z"/>
    <path id="f" d="m235.74 472.59 14.66 21.83 19.78 7.65 8.1 6.98-77 85.04-26.11-7.34L159 562.01l76.74-89.42Z"/>
    <path id="g" d="m217.25 520.44 18.79-47.85 14.57 21.82 19.57 7.32 7.82 7.22-3.19 3.71-41.29 20.43-4.48 8.5-68.36 22.12-1.68-1.87 7.97-8.87 50.28-32.53Z"/>
    <path id="h" d="m175.02 586.73 26.12 7.16 2.5-2.76 25.26-49.57-68.54 22.15 14.66 23.02Z"/>
  </defs>
  <use xlink:href="#a" fill="#9b7647"/>
  <use xlink:href="#b" fill="#a990ff"/>
  <use xlink:href="#c" fill="#90ddff"/>
  <use xlink:href="#d" fill="#5f62e1"/>
  <use xlink:href="#e" fill="#f5c647"/>
  <use xlink:href="#f" fill="#9b7647"/>
  <use xlink:href="#g" fill="#cccccc"/>
  <use xlink:href="#h" fill="#c2bd70"/>
</svg>
