<svg xmlns="http://www.w3.org/2000/svg" xmlns:xlink="http://www.w3.org/1999/xlink" width="262.14" height="262" viewBox="618.288 393.842 262.144 262">
  <defs>
    <path id="a" d="M618.43 393.84h262v262h-262v-262Z"/>
    <path id="b" d="m864.55 593.81 15.17 19.72-.03 20.76-19.45 21.42H618.29l.45-5.67 240.14-1.36 17.68-28.12-16.1-20.86H618.29v-5.44l246.26-.45Z"/>
    <path id="c" d="m859.1 648.68 17.69-27.89-16.39-21.32-1.3 49.21Z"/>
    <path id="d" d="m633.71 625.32-13.15 24.72 238.54-1.13 1.21-49.21-239.33-.04 12.73 25.66Z"/>
    <path id="e" d="m844.97 587.57 8.47-20.07-10.66-20.18-205.9 2.04-.68-11.11 208.39 1.36 12.93 12.93-.68 28.79-8.17 12.25-212.01.68.26-5.1 208.05-1.59Z"/>
    <path id="f" d="m837.68 587.78 7.14-.19 8.7-19.88-10.72-20.38-5.5.11.38 40.34Z"/>
    <path id="g" d="m837.31 547.33.58 40.37-200.59 1.41 8.53-18.37-8.72-17.05-.19-4.36 200.39-2Z"/>
    <path id="h" d="m814.96 533.61.75-14.77-4.16-11.36-170.65-.19v-7.77l175.38-.19 8.33 20.84-3.59 19.13-180.12-1.14.19-3.6 173.87-.95Z"/>
    <path id="i" d="m811.47 507.47 4.24 10.8-.82 15.34-14.72.01.11-26.16 11.19.01Z"/>
    <path id="j" d="m800.28 507.46-.09 26.25-159.01.78 7.87-13-8.15-14.21 159.38.18Z"/>
    <path id="k" d="m651.28 472.61 159.38-.23-.24 26.39-159.38.47.24-26.63Z"/>
    <path id="l" d="M650.96 436.78h151.86v35.81H650.96v-35.81Z"/>
    <path id="m" d="M785.14 436.78h9.3v35.81h-9.3v-35.81Z"/>
    <path id="n" d="M650.96 406.54h151.86v30.24H650.96v-30.24Z"/>
    <path id="o" d="M670.72 406.66h78.84v55.35l-39.77 36.74-39.07-36.74v-55.35Z"/>
    <path id="p" d="m670.79 439.45 36.78-32.82-12.66.06-24.15 21.83.03 10.93Z"/>
    <path id="q" d="m742.98 406.53 6.45.13-71.3 62.5-2.73-2.76 67.58-59.87Z"/>
    <path id="r" d="M749.62 420.81v3.46l-61.59 54.02-2.76-2.59 64.35-54.89Z"/>
    <path id="s" d="m749.59 448.29.11 13.63-39.74 36.97-6.65-6.05 46.28-44.55Z"/>
  </defs>
  <use xlink:href="#a" fill="#9b7647"/>
  <use xlink:href="#b" fill="#332e8f"/>
  <use xlink:href="#c" fill="#3363ff"/>
  <use xlink:href="#d" fill="#e0d6a1"/>
  <use xlink:href="#e" fill="#ff33d4"/>
  <use xlink:href="#f" fill="#ec98f2"/>
  <use xlink:href="#g" fill="#eae8ba"/>
  <use xlink:href="#h" fill="#ff8615"/>
  <use xlink:href="#i" fill="#ffe700"/>
  <use xlink:href="#j" fill="#ece8c5"/>
  <use xlink:href="#k" fill="#a5c07d"/>
  <use xlink:href="#l" fill="#90acd7"/>
  <use xlink:href="#m" fill="#929292"/>
  <use xlink:href="#n" fill="#cf9acf"/>
  <use xlink:href="#o" fill="#c00303"/>
  <use xlink:href="#p" fill="#fce124"/>
  <use xlink:href="#q" fill="#fce124"/>
  <use xlink:href="#r" fill="#fce124"/>
  <use xlink:href="#s" fill="#fce124"/>
</svg>
