<svg xmlns="http://www.w3.org/2000/svg" xmlns:xlink="http://www.w3.org/1999/xlink" width="262" height="262.08" viewBox="33.91 220.285 262 262.084">
  <defs>
    <path id="a" d="M33.91 220.37h262v262h-262v-262Z"/>
    <path id="b" d="m280.71 420.43 15.17 19.72-.02 20.76-19.46 21.42H34.45l.46-5.67 240.13-1.36 17.69-28.12-16.1-20.86H34.45v-5.44l246.26-.45Z"/>
    <path id="c" d="m275.27 475.3 17.69-27.89-16.39-21.32-1.3 49.21Z"/>
    <path id="d" d="m49.87 451.94-13.15 24.72 238.55-1.13 1.2-49.21-239.33-.04 12.73 25.66Z"/>
    <path id="e" d="m261.13 414.19 8.47-20.07-10.66-20.18-205.89 2.04-.68-11.11 208.39 1.36 12.92 12.93-.68 28.79-8.16 12.25-212.02.68.26-5.1 208.05-1.59Z"/>
    <path id="f" d="m253.85 414.4 7.13-.19 8.7-19.88-10.72-20.38-5.49.11.38 40.34Z"/>
    <path id="g" d="m253.48 373.95.57 40.37-200.58 1.41 8.52-18.37-8.71-17.05-.19-4.36 200.39-2Z"/>
    <path id="h" d="m231.12 360.23.76-14.77-4.17-11.36-170.64-.19v-7.77l175.38-.19 8.33 20.84-3.6 19.13-180.11-1.14.19-3.6 173.86-.95Z"/>
    <path id="i" d="m227.63 334.09 4.25 10.8-.83 15.34-14.71.01.11-26.16 11.18.01Z"/>
    <path id="j" d="m216.45 334.08-.1 26.25-159 .78 7.86-13-8.14-14.21 159.38.18Z"/>
    <path id="k" d="m140.81 287.24 7.97 6.33 2.59 7.49-3.36 16.89-6.72 5.08-14.88 2.6-13.62-7.01-4.13-13.53 2.88-10.65 5.37-5.38 7.59-4.32 16.31 2.5Z"/>
    <path id="l" d="m150.98 300.9-2.41-7.49-8.14-6.43 60.46-65.45 9.4 41.56-19.96 35.03-39.25 4.89-.1-2.11Z"/>
    <path id="m" d="m124.21 258 32.82-37.71 10.19 37.91-26.89 28.98-15.36-2.4-.76-26.78Z"/>
  </defs>
  <use xlink:href="#a" fill="#9b7647"/>
  <use xlink:href="#b" fill="#332e8f"/>
  <use xlink:href="#c" fill="#3363ff"/>
  <use xlink:href="#d" fill="#e0d6a1"/>
  <use xlink:href="#e" fill="#ff33d4"/>
  <use xlink:href="#f" fill="#ec98f2"/>
  <use xlink:href="#g" fill="#eae8ba"/>
  <use xlink:href="#h" fill="#ff8615"/>
  <use xlink:href="#i" fill="#ffe700"/>
  <use xlink:href="#j" fill="#ece8c5"/>
  <use xlink:href="#k" fill="#ffed19"/>
  <use xlink:href="#l" fill="#e6e6e6"/>
  <use xlink:href="#m" fill="#b4b4b4"/>
</svg>
