<svg xmlns="http://www.w3.org/2000/svg" xmlns:xlink="http://www.w3.org/1999/xlink" width="262" height="262.16" viewBox="329.996 110.624 262 262.161">
  <defs>
    <path id="a" d="M330 110.62h262v262H330v-262Z"/>
    <path id="b" d="m330 148.43 23.07.07-.88 223.83-22.18-.09-.01-223.81Z"/>
    <path id="c" d="m353.22 148.76 7.71-.12v223.95l-8.77.19 1.06-224.02Z"/>
    <path id="d" d="m370.93 148.29 22.78.13 1.34 223.91-23.78-.1-.34-223.94Z"/>
    <path id="e" d="m393.86 148.27 5.95.07.63 223.89-5.56-.09-1.02-223.87Z"/>
    <path id="f" d="m408.26 148.44 21.5-.03.06 223.81-21.39.03-.17-223.81Z"/>
    <path id="g" d="m429.79 148.51 8.09-.12.21 223.7-8.07.1-.23-223.68Z"/>
    <path id="h" d="m443.58 153.41 23.21-2 19.08 215.33-23.46 5.49-18.83-218.82Z"/>
    <path id="i" d="m439.31 153.7 4.35-.15 18.69 218.58-5.23-.03-17.81-218.4Z"/>
    <path id="j" d="m485.44 148.21 26.52.41.02 223.68-25.54-.13-1-223.96Z"/>
    <path id="k" d="m512.07 148.65 5.24.01.85 223.59h-6.19l.1-223.6Z"/>
    <path id="l" d="m526.25 148.29 26.55-.23-1.1 224.13-25.48.04.03-223.94Z"/>
    <path id="m" d="m552.8 148.06 5.23.21-.42 223.91-6.06.04 1.25-224.16Z"/>
    <path id="n" d="m563.52 148.32 20.74.02-.09 224-21.3-.21.65-223.81Z"/>
    <path id="o" d="m584.26 148.46 7.51-.04.2 223.78-7.82.05.11-223.79Z"/>
  </defs>
  <use xlink:href="#a" fill="#9b7647"/>
  <use xlink:href="#b" fill="#29aab7"/>
  <use xlink:href="#c" fill="#e3441c"/>
  <use xlink:href="#d" fill="#29aab7"/>
  <use xlink:href="#e" fill="#e38a1c"/>
  <use xlink:href="#f" fill="#29aab7"/>
  <use xlink:href="#g" fill="#fff000"/>
  <use xlink:href="#h" fill="#29aab7"/>
  <use xlink:href="#i" fill="#42db42"/>
  <use xlink:href="#j" fill="#29aab7"/>
  <use xlink:href="#k" fill="#0072ff"/>
  <use xlink:href="#l" fill="#29aab7"/>
  <use xlink:href="#m" fill="#a500ff"/>
  <use xlink:href="#n" fill="#29aab7"/>
  <use xlink:href="#o" fill="#ff00e4"/>
</svg>
