<svg xmlns="http://www.w3.org/2000/svg" xmlns:xlink="http://www.w3.org/1999/xlink" width="262.04" height="262" viewBox="23.862 332.204 262.037 262">
  <defs>
    <path id="a" d="M23.9 332.2h262v262h-262v-262Z"/>
    <path id="b" d="m24.34 542.11 261.53 1.69-.15 50.32-261.86.02.48-52.03Z"/>
    <path id="c" d="m47.69 542.03 36.26.39.16 51.76-36.25-.17-.17-51.98Z"/>
    <path id="d" d="m143.49 542.51 17.15 15.3-.34 13.11-4.03-10.09-33.45-12.26-19.33 17.64.17 10.76-7.9-10.42 18.49-23.87 29.24-.17Z"/>
    <path id="e" d="m89.13 466.1 35.45-11.81-1.61-45.93-18.86-13.39-36.73-5.4-9.4 6.17-8.38 9.99-1.34 23.63 18.53 25.78 22.34 10.96Z"/>
    <path id="f" d="m57 417.87 10.83 1.43 2.86 9.4-10.01.2L57 417.87Z"/>
    <path id="g" d="m101.54 417.26-4.09 11.64-10.01-.2 5.31-9.81 8.79-1.63Z"/>
    <path id="h" d="m77.84 431.56 7.35 8.99-6.74 11.85-6.94-12.67 6.33-8.17Z"/>
    <path id="i" d="m58.1 382.08 11.85-6.13h31.26l25.13 20.43 23.21 44.43 67.62 38.61 13.07 10.63 21.45 26.76-11.23 5.52 19.41 12.66-38.62 6.74-58.83-16.54-18.59 16.89-30.03.21-6.75-19-41.67-51.08 1.43-16.95 28.8 5.1 23.29-16.75-1.63-36.36-25.54-11.85-12.66 11.64L66.4 395.4l-17.16 10.42 8.86-23.74Z"/>
  </defs>
  <use xlink:href="#a" fill="#9b7647"/>
  <use xlink:href="#b" fill="#b700ff"/>
  <use xlink:href="#c" fill="#ffcc00"/>
  <use xlink:href="#d" fill="#3f3f3f"/>
  <use xlink:href="#e" fill-opacity="0" stroke="#ff0000"/>
  <use xlink:href="#e" fill="#f1f1f1"/>
  <use xlink:href="#f" fill="#535353"/>
  <use xlink:href="#g" fill="#535353"/>
  <use xlink:href="#h" fill="#535353"/>
  <use xlink:href="#i" fill="#d8d8d8"/>
</svg>
