<svg xmlns="http://www.w3.org/2000/svg" xmlns:xlink="http://www.w3.org/1999/xlink" width="262.05" height="262" viewBox="313.848 340.53 262.055 262">
  <defs>
    <path id="a" d="M313.85 340.53h262v262h-262v-262Z"/>
    <path id="b" d="m313.88 561.51 261.93.12v40.71l-261.93.14v-40.97Z"/>
    <path id="c" d="m329.64 508.45 246.26-.93-.23 54.1-245.8-.11-.23-53.06Z"/>
    <path id="d" d="m360.15 461.49 31.8.17-.33 46.53h-31.47v-46.7Z"/>
    <path id="e" d="m391.21 461.88 167.34.17.17 45.56-167.17.67-.34-46.4Z"/>
    <path id="f" d="m403.67 432.35 129.15.17v29.15l-129.65.16.5-29.48Z"/>
    <path id="g" d="m465.99 432.51 3.34 3.72-7.18 10.76 1.49-7.42-5.32-4.09-4.09 3.1.13 8.17-4.71-10.03 5.45-4.21h10.89Z"/>
    <path id="h" d="m493.59 432.51 5.07 7.43-4.33 5.2.37-5.57-4.2-4.95-12.01 8.04 3.59-10.15h11.51Z"/>
    <path id="i" d="m502.85 432.71 4.45-19.8.25-47.65-1.98-4.7-4.33-2.6 2.72-1.73-3.71-11.27-5.32 8.91-9.5-6.72-13.28.29-1.23-5.32-19.33 18.42-.75 13.62-1.11-.87-9.04 27.11 3.1 31.8 59.06.51Z"/>
    <path id="j" d="m497.36 432.67 7.67-21.29-1.11-21.78-15.97 9.53-23.02-1.36-10.52-12.26-7.92 19.93 2.97 26.86 47.9.37Z"/>
    <path id="k" d="m461.73 379.29-4.09.63-4-9.14 1.79-7.25 3.57-3.36 6.83.21-4.1 18.91Z"/>
    <path id="l" d="m496.92 362.69-.84 1.68.84 20.17 5.99-1.68 2.52-6.62-.21-9.56-6.3-3.67-2-.32Z"/>
    <path id="m" d="m470.45 357.96 9.98 13.13 16.39-10.29 2.52 2.42-1.37.42 4.41 4.09.74 7.15-3.89 9.55-19.12 8.72h-2.31l-17.64-12.29-3.47-8.93.11-4.51 3.15-4.73 5.04-3.26 5.46-1.47Z"/>
    <path id="n" d="m469.29 372.96-3.78-3.77.32-2.97 1.21-1.2 4.33-.24 4.34 5.46-6.42 2.72Z"/>
    <path id="o" d="m489.43 376.74 3.21-1.69 2.41-.16-.16-2.33 1.52-3.37-4.41-1.92-5.62 2.72 3.05 6.75Z"/>
    <path id="p" d="m480.2 384.12-1.28 4.9-1.45-5.22 1.45-4.01 1.28 4.33Z"/>
    <path id="q" d="m471.93 369.11-2 1.77-1.29-2.33 1.45-1.77 1.84 2.33Z"/>
    <path id="r" d="m492.32 370.96-1.93 2.65-1.28-2.57 1.76-1.85 1.45 1.77Z"/>
  </defs>
  <use xlink:href="#a" fill="#9b7647"/>
  <use xlink:href="#b" fill="#d7a8cb"/>
  <use xlink:href="#c" fill="#905bb6"/>
  <use xlink:href="#d" fill="#8bcbe3"/>
  <use xlink:href="#e" fill="#4b91ab"/>
  <use xlink:href="#f" fill="#e387d9"/>
  <use xlink:href="#g" fill="#8f8f8f"/>
  <use xlink:href="#h" fill="#8f8f8f"/>
  <use xlink:href="#i" fill="#c5ad8e"/>
  <use xlink:href="#j" fill="#e6e6e6"/>
  <use xlink:href="#k" fill-opacity="0" stroke="#ff0000"/>
  <use xlink:href="#k" fill="#444444"/>
  <use xlink:href="#l" fill="#444444"/>
  <use xlink:href="#m" fill="#e6e6e6"/>
  <use xlink:href="#n" fill="#fbc513"/>
  <use xlink:href="#o" fill="#fbc513"/>
  <use xlink:href="#p" fill="#fffa19"/>
  <use xlink:href="#q" fill="#444444"/>
  <use xlink:href="#r" fill="#444444"/>
</svg>
