<svg xmlns="http://www.w3.org/2000/svg" xmlns:xlink="http://www.w3.org/1999/xlink" width="262.55" height="262" viewBox="25.306 29.727 262.554 262">
  <defs>
    <path id="a" d="M25.86 29.73h262v262h-262v-262Z"/>
    <path id="b" d="m25.31 253.8 261.79-2.77v40.61H25.31V253.8Z"/>
    <path id="c" d="M257.76 251.3h14.91v40.35h-14.91V251.3Z"/>
    <path id="d" d="m229.79 177.33 1.16-47.36-3.16-16.03 3.47-6.43-3.3-29.04-10.23-20.14-28.39-15.18-19.96 3.14-32.08 16.78-11.72 31.85-4.62-3.8-21.95 21.78-26.79 140.63h24.09l18.15-17.82 21.45 31.85 5.45-12.38 6.43 11.55 3.3-9.9 8.09 15.35 5.78-19.14 10.06 16.17 6.93-10.89 4.46 11.22 4.29-8.75 3.46 11.88 10.07-12.7-14.36-20.3 39.92-62.34Z"/>
    <path id="e" d="m209.26 162.15-1.48-27.07 18.48-21.61-14.03-17h-52.47l-12.21 15.84 35.31 28.22.66 28.05-26.07 25.25 20.95 29.04 30.86-60.72Z"/>
    <path id="f" d="m170.99 62.37 13.37 4.79-9.4 11.55-15.52-6.77 11.55-9.57Z"/>
    <path id="g" d="m205.87 65.73 9.24 11.05-15.35 5.28-9.24-11.22 15.35-5.11Z"/>
    <path id="h" d="m173.84 63.3 5.4 10.23-4.23 5.21-8.3-3.66 1.43-10.41 2.55-2.24 3.15.87Z"/>
    <path id="i" d="m205.91 65.73 1.98 2.43-.07 11.1-8.03 2.74-3.11-3.8 4.09-10.76 5.14-1.71Z"/>
    <path id="j" d="m184.91 75.46 8.69 7.27-8.47 13.14-5.86-14.55 5.64-5.86Z"/>
  </defs>
  <use xlink:href="#a" fill="#9b7647"/>
  <use xlink:href="#b" fill="#b700ff"/>
  <use xlink:href="#c" fill="#ffcc00"/>
  <use xlink:href="#d" fill="#ffffff"/>
  <use xlink:href="#e" fill="#ffecfe"/>
  <use xlink:href="#f" fill="#fff900"/>
  <use xlink:href="#g" fill="#fff900"/>
  <use xlink:href="#h" fill="#414141"/>
  <use xlink:href="#i" fill="#414141"/>
  <use xlink:href="#j" fill="#414141"/>
</svg>
