<svg xmlns="http://www.w3.org/2000/svg" xmlns:xlink="http://www.w3.org/1999/xlink" width="262.11" height="262.29" viewBox="320.146 24.512 262.11 262.285">
  <defs>
    <path id="a" d="M320.26 24.51h262v262h-262v-262Z"/>
    <path id="b" d="m320.15 260.47 261.94.16-.15 26.17-261.76-.37-.03-25.96Z"/>
    <path id="c" d="m564.77 260.54 7.84.05v26.1l-8.49.04.65-26.19Z"/>
    <path id="d" d="m416.98 247.24 62.85 15.63 33.33-52.61 23.27-101.91-.7-8.85-47.05 31.25-46-19.27-7.47.17-18.23 135.59Z"/>
    <path id="e" d="m445.14 183.54 28.3-24.48-35.76-47.22H418.4l-43.92 54.34-19.2 93.8 28.63-24.39-1.39 25h37.67l15.45 26.04 3.3-15.97 15.8 15.45-3.12-17.53 10.41 4.86 3.82 12.67 7.12-9.89 8.16 9.55 1.22-14.24 4.34 3.12 3.29 11.29 6.43-16.15-14.93-8.85-56.43-14.76 20.09-62.64Z"/>
    <path id="f" d="m541.63 149.85.7 35.93-19.1 38.2-23.09-29.86 14.41-51.91 21.35-38.02 5.73 45.66Z"/>
    <path id="g" d="m488.11 131.22 47.92-31.95-10.94-56.07 19.44-12.16-23.96-2.08-12.5 9.9-25.17-6.77-15.45 6.59-14.06-8.5-18.23-.18 14.75 15.28-9.02 17.19-2.61 30.03 4.86 18.93 44.97 19.79Z"/>
    <path id="h" d="m461.49 50.14 2.62 15.08 12.58-8.13-15.2-6.95Z"/>
    <path id="i" d="m465.94 52.11 1.45 11.14 1.7-1.18 1.83-7.47-4.98-2.49Z"/>
    <path id="j" d="m513.39 50.14-7.21 17.7-10.75-7.87 17.96-9.83Z"/>
    <path id="k" d="m504.87 54.86 3.15 9.04-8.13-6.42 4.98-2.62Z"/>
    <path id="l" d="m489.01 78.71 7.21-9.69-8.65-4.59-8.78 5.5 10.22 8.78Z"/>
  </defs>
  <use xlink:href="#a" fill="#9b7647"/>
  <use xlink:href="#b" fill="#b700ff"/>
  <use xlink:href="#c" fill="#ffcc00"/>
  <use xlink:href="#d" fill="#d6b083"/>
  <use xlink:href="#e" fill="#cc9866"/>
  <use xlink:href="#f" fill="#cc9866"/>
  <use xlink:href="#g" fill="#e0c2a6"/>
  <use xlink:href="#h" fill="#ffe112"/>
  <use xlink:href="#i" fill="#4a4a4a"/>
  <use xlink:href="#j" fill="#ffe112"/>
  <use xlink:href="#k" fill="#4a4a4a"/>
  <use xlink:href="#l" fill="#4a4a4a"/>
</svg>
