<svg xmlns="http://www.w3.org/2000/svg" xmlns:xlink="http://www.w3.org/1999/xlink" width="262.16" height="262.11" viewBox="32.47 161.372 262.156 262.111">
  <defs>
    <path id="a" d="M32.47 161.37h262v262h-262v-262Z"/>
    <path id="b" d="m32.5 226.79 55.87.66 1.59 195.91-57.49.04.03-196.61Z"/>
    <path id="c" d="m64.33 361.72 24.7 19.88-9.81-28.49 9.16-6.01-12.58-2.96-10.64-29.97-12.58 25.81-19.98-3.8 15.17 12.68-14.8 29.88 31.36-17.02Z"/>
    <path id="d" d="m88.43 256.11 48.74-.06v24.28l-48.4.89-.34-25.11Z"/>
    <path id="e" d="m88.63 281.06 48.68-.61.41 142.9-47.79.13-1.3-142.42Z"/>
    <path id="f" d="m136.64 181.5 60.16-.99-1.57 242.9-57.6-.08-.99-241.83Z"/>
    <path id="g" d="m163.84 221.74 18.18.09-29.01 48.43 20.74-43.27-21.24-.16 12.81-45.04-1.48 39.95Z"/>
    <path id="h" d="m240.95 398.89-6.15-61.51 22.07-57.88-.9-43.92-12.61-27.25-36.1 86.91-4.06 58.34 8.79 41.66 37.38 27.26-8.42-23.61Z"/>
    <path id="i" d="m256.2 209.75 38.23 2.34.07 211.15-37.86.14-.44-213.63Z"/>
    <path id="j" d="m256.63 392.12 38-2.12-.15 10.69-37.78 3.51-.07-12.08Z"/>
    <path id="k" d="m256.23 234.58 38.24-.84.02 18.73-38.23-1.19-.03-16.7Z"/>
  </defs>
  <use xlink:href="#a" fill="#9b7647"/>
  <use xlink:href="#b" fill="#9353b6"/>
  <use xlink:href="#c" fill="#42b657"/>
  <use xlink:href="#d" fill="#f2ce18"/>
  <use xlink:href="#e" fill="#d8bb26"/>
  <use xlink:href="#f" fill="#79d0e0"/>
  <use xlink:href="#g" fill="#44b4c9"/>
  <use xlink:href="#h" fill="#feff96"/>
  <use xlink:href="#i" fill="#fb9fb7"/>
  <use xlink:href="#j" fill="#44b8c9"/>
  <use xlink:href="#k" fill="#44b8c9"/>
</svg>
