<svg xmlns="http://www.w3.org/2000/svg" xmlns:xlink="http://www.w3.org/1999/xlink" width="262.13" height="262.13" viewBox="340.274 39.909 262.126 262.125">
  <defs>
    <path id="a" d="M340.28 39.91h262v262h-262v-262Z"/>
    <path id="b" d="m340.3 105.33 55.88.65 1.59 195.92-57.5.04.03-196.61Z"/>
    <path id="c" d="m372.14 240.25 24.7 19.89-9.81-28.49 9.16-6.01-12.58-2.96-10.64-29.98-12.58 25.81-19.98-3.79 15.17 12.67-14.8 29.88 31.36-17.02Z"/>
    <path id="d" d="m564.1 87.56 38.09 2.47.21 211.81-37.86.14-.44-214.42Z"/>
    <path id="e" d="m564.36 270.06 37.91-2.37.02 10.36-37.94 3.68.01-11.67Z"/>
    <path id="f" d="m564.2 112.36 38.16-.6-.06 18.24-38.06-.94-.04-16.7Z"/>
    <path id="g" d="m488.39 151.56-33.43 11.77-44.38 30.75-.27 94.12 10.98 13.69 70.27.14 13.4-14.64 2.68-128.07-19.25-7.76Z"/>
    <path id="h" d="m506.9 190.72 26.94-8.12 19 21.22-.55 37.45-21.04 26.02-25.87-3.36-.41 21.62 32.56-7.74 26.93-28.6-.55-53.14-26.75-28.6-30.45 10.34.19 12.91Z"/>
    <path id="i" d="m507.4 148.22-13.47-13.1-35.06.18-52.4 14.4-9.96 12.36.55 5.9 8.68 22.14 5.16 4.06 29.34-3.69 18.45-19.19 12.18-.37 13.65-11.44 23.06.19-.18-11.44Z"/>
  </defs>
  <use xlink:href="#a" fill="#9b7647"/>
  <use xlink:href="#b" fill="#9353b6"/>
  <use xlink:href="#c" fill="#42b657"/>
  <use xlink:href="#d" fill="#fb9fb7"/>
  <use xlink:href="#e" fill="#44b8c9"/>
  <use xlink:href="#f" fill="#44b8c9"/>
  <use xlink:href="#g" fill="#f2d046"/>
  <use xlink:href="#h" fill="#ffffff"/>
  <use xlink:href="#i" fill="#ffffff"/>
</svg>
