<svg xmlns="http://www.w3.org/2000/svg" xmlns:xlink="http://www.w3.org/1999/xlink" width="262" height="262" viewBox="31.622 142.727 262 262">
  <defs>
    <path id="a" d="M31.62 142.73h262v262h-262v-262Z"/>
    <path id="b" d="m53.5 308.41 14.49-16.94 67.04-7.76 85.21 2.37 37.96 16.33 13.46 38.77-.4 45.31-47.15 4.28-97.55-.4-73.06-7.96 1.84-21.64-.21-39.38-1.63-12.98Z"/>
    <path id="c" d="M63.31 404.07h213.73l16.02-14.08-.24-6.06-69.9 2.69-11.65-14.81-85.44 3.16-8.49 10.44-60.44-8.01 1-20.97-2.25-.17-23.68 12.12 31.34 35.69Z"/>
    <path id="d" d="m292.72 355.5-21.4 22.75.05-22.75h21.35Z"/>
    <path id="e" d="M293.08 312.92 268.8 205.31 160.7 190.4 60.19 200.63 33.68 272.9l4.2.17L32 325.42l13.43-31.04-3.86 48.82 25.17-40.94 1.51 53.36 26.17-53.86 4.36 43.62 23.16-46.98 14.09 44.97 18.12-51.85 28.78 4.16 23.15 59.9 43.79-.33 4.37-48.16 17.42 42.72.03-32.99 19.29 37.25-10.57-41.94 12.75 14.93-.08-14.14Z"/>
    <path id="f" d="m156.4 232.34-27.52 1.35 11.41-25.17 16.11 23.82Z"/>
    <path id="g" d="m171.33 231.34-15.43.5 9.39-16.61 6.04 16.11Z"/>
    <path id="h" d="m193.31 230-17.11 1 11.07-15.77 6.04 14.77Z"/>
    <path id="i" d="m145.12 316.5 24.63-7.22 22.75 10.58 2.38 7.62-3.76 7.22-1.78-12.76-1.78-1.09-7.42 12.17-2.57-14.94-9.5 15.14-3.56-18.1-9.3 16.22-1.18-13.46-14.84 17.02 5.93-18.4Z"/>
    <path id="j" d="m171.24 312.64 22.55 11.18-10.68-28.19-28.89-4.35-9.69 27.4 26.71-6.04Z"/>
    <path id="k" d="m151.99 374.02.3-18.4-1.29.4-9.2 17.8 10.19.2Z"/>
    <path id="l" d="m188.29 372.73 3.36-16.81-14.54 14.34-4.84-14.54-8.71 13.55-4.15-13.85-5.34 18.4 34.22-1.09Z"/>
  </defs>
  <use xlink:href="#a" fill="#9b7647"/>
  <use xlink:href="#b" fill="#fbf0a4"/>
  <use xlink:href="#c" fill="#e3be80"/>
  <use xlink:href="#d" fill="#e3be80"/>
  <use xlink:href="#e" fill="#e3be80"/>
  <use xlink:href="#f" fill="#ffd609"/>
  <use xlink:href="#g" fill="#ffd609"/>
  <use xlink:href="#h" fill="#ffd609"/>
  <use xlink:href="#i" fill="#ffffff"/>
  <use xlink:href="#j" fill="#e39494"/>
  <use xlink:href="#k" fill="#ffffff"/>
  <use xlink:href="#l" fill="#ffffff"/>
</svg>
