<svg xmlns="http://www.w3.org/2000/svg" xmlns:xlink="http://www.w3.org/1999/xlink" width="262.16" height="262" viewBox="347.093 142.475 262.162 262">
  <defs>
    <path id="a" d="M347.25 142.48h262v262h-262v-262Z"/>
    <path id="b" d="m347.09 366.26 262.15.21.02 38-262.17-.02v-38.19Z"/>
    <path id="c" d="m358 330.33 236.58-1.63-.28 37.85-236.19-.23-.11-35.99Z"/>
    <path id="d" d="m543.63 389.13 31.71 12.42 29.38-11.09-18.52-61.75 22.59-25.17v-31.93l-35.48-47-47.79-13.27-32.98-28.66-15.42-3.06-76.16 12.26-53.21 59.73-.06 36.02 16.41 42.69 162.1-.54 17.43 59.35Z"/>
    <path id="e" d="m497.74 315.42 28.72 14.02-125.3.51 96.58-14.53Z"/>
    <path id="f" d="m530.97 262.84 77.61 19.32.34 21.53-20.34 22.14-55.22-40-170.7 40.82-11.79-31.45 180.1-32.36Z"/>
    <path id="g" d="m524.95 211.37 48.38 12.8 11.79 15.92-147.31 3.19-89.92 22.91.17-15.56 24.96-27.52 151.93-11.74Z"/>
  </defs>
  <use xlink:href="#a" fill="#9b7647"/>
  <use xlink:href="#b" fill="#415be0"/>
  <use xlink:href="#c" fill="#4bbf4f"/>
  <use xlink:href="#d" fill="#cc66cc"/>
  <use xlink:href="#e" fill="#cb99cc"/>
  <use xlink:href="#f" fill="#cb99cc"/>
  <use xlink:href="#g" fill="#cb99cc"/>
</svg>
