<svg xmlns="http://www.w3.org/2000/svg" xmlns:xlink="http://www.w3.org/1999/xlink" width="262.33" height="262.15" viewBox="351.518 343.3 262.328 262.154">
  <defs>
    <path id="a" d="M351.67 343.37h262v262h-262v-262Z"/>
    <path id="b" d="m351.65 360.89 66.17.76-.26 243.8h-66.04l.13-244.56Z"/>
    <path id="c" d="M529.11 343.3h84.74l-.21 248.01-85.58.21 1.05-248.22Z"/>
    <path id="d" d="m527.86 591.49 85.76-.22.07 14.16-86.05-.21.22-13.73Z"/>
    <path id="e" d="m529.04 375.44 84.5.1.28 19.86-84.78.42v-20.38Z"/>
    <path id="f" d="m462.13 532.52 13.47-4.06-14.34 32.9-1.02 11.16-7.78 14.87.7 4.41 2.84 2.92 8.16-2.16-3.77 9.24-19.19 3.54-11.53-8.33-.87-9.42 21.88-28.26 4.05-37.38 7.4 10.57Z"/>
    <path id="g" d="m525.65 349.77 3.48-1.31v7.63l-58.2 173.89-8.75 2.51-3.22-4.62 66.69-178.1Z"/>
  </defs>
  <use xlink:href="#a" fill="#9b7647"/>
  <use xlink:href="#b" fill="#eca16c"/>
  <use xlink:href="#c" fill="#99cccb"/>
  <use xlink:href="#d" fill="#1de1de"/>
  <use xlink:href="#e" fill="#1de1de"/>
  <use xlink:href="#f" fill="#c9c07c"/>
  <use xlink:href="#g" fill="#fff3f3"/>
</svg>
