<svg xmlns="http://www.w3.org/2000/svg" xmlns:xlink="http://www.w3.org/1999/xlink" width="262.33" height="262.15" viewBox="339.659 65.784 262.328 262.154">
  <defs>
    <path id="a" d="M339.81 65.85h262v262h-262v-262Z"/>
    <path id="b" d="m339.79 83.37 66.17.76-.26 243.81h-66.04l.13-244.57Z"/>
    <path id="c" d="M517.25 65.78h84.74l-.21 248.01-85.58.21 1.05-248.22Z"/>
    <path id="d" d="m516 313.97 85.76-.21.07 14.16-86.05-.22.22-13.73Z"/>
    <path id="e" d="m517.18 97.92 84.5.1.28 19.87-84.78.41V97.92Z"/>
    <path id="f" d="m405.85 316.29 3.48-7.36 3.11 1.04 19.79-41.61-2.68-1.07 8.32-16.69 2.58 1.09 72.62-160.58 4.15.2-.21 8.09-67.22 154.77 1.87.63-7.98 18.82-2.27-1.15-18.67 42.91 2.36 2.07-4.04 9.47-15.29-8.32.08-2.31Z"/>
  </defs>
  <use xlink:href="#a" fill="#9b7647"/>
  <use xlink:href="#b" fill="#eca16c"/>
  <use xlink:href="#c" fill="#99cccb"/>
  <use xlink:href="#d" fill="#1de1de"/>
  <use xlink:href="#e" fill="#1de1de"/>
  <use xlink:href="#f" fill="#d2bc9c"/>
</svg>
