<svg xmlns="http://www.w3.org/2000/svg" xmlns:xlink="http://www.w3.org/1999/xlink" width="262.33" height="262.15" viewBox="36.147 357.006 262.328 262.154">
  <defs>
    <path id="a" d="M36.3 357.07h262v262h-262v-262Z"/>
    <path id="b" d="m36.28 374.59 66.17.77-.26 243.8H36.15l.13-244.57Z"/>
    <path id="c" d="M213.73 357.01h84.74l-.2 248.01-85.58.21 1.04-248.22Z"/>
    <path id="d" d="m212.49 605.19 85.76-.21.07 14.16-86.05-.22.22-13.73Z"/>
    <path id="e" d="m213.67 389.14 84.5.11.28 19.86-84.78.42v-20.39Z"/>
    <path id="f" d="m107.13 602.56-.34-6.52 9.67-14.38-.79-12.47 17.64-26.82-.78-8.54 19.43-35.28.68-10.79 18.99-31.02-.16-9.98 18.65-31.12-.45-3.15 2.92-8.54 16.97-33.59 3.48 1.68-14.66 38.73-5.21 6.5-11.45 34.97-6.07 5.85-12.25 37.75-4.87 4.89-12.88 39.04-4.83 4.49-9.89 34.38-6.74 5.73-4.27 20.12-4.5 2.47-1.12 11.91-11.8-.23-.11-11.91 4.74-4.17Z"/>
  </defs>
  <use xlink:href="#a" fill="#9b7647"/>
  <use xlink:href="#b" fill="#eca16c"/>
  <use xlink:href="#c" fill="#99cccb"/>
  <use xlink:href="#d" fill="#1de1de"/>
  <use xlink:href="#e" fill="#1de1de"/>
  <use xlink:href="#f" fill="#d2bc9c"/>
</svg>
