<svg xmlns="http://www.w3.org/2000/svg" xmlns:xlink="http://www.w3.org/1999/xlink" width="262" height="262.08" viewBox="327.307 28.785 262 262.084">
  <defs>
    <path id="a" d="M327.31 28.87h262v262h-262v-262Z"/>
    <path id="b" d="m409.11 236.01.18 24.55L399.18 275l-17.69 14.98-25.27.18-18.59-17.87-4.15-11.37-.73-25.82 76.36.91Z"/>
    <path id="c" d="m409.03 236.08-24.87-31.26-2.25-65.63-29.38.13.63 65.08-20.5 30.63 76.37 1.05Z"/>
    <path id="d" d="m408.59 45.53 16.51 5.18-.02 240.14-16.05-.04-.44-245.28Z"/>
    <path id="e" d="m425.01 28.84.09 21.98-16.52-5.32V28.79l16.43.05Z"/>
    <path id="f" d="M425.25 82.86v17.38l-16.67-13.65v-14.8l16.67 11.07Z"/>
    <path id="g" d="m425.13 120.42.05 14.63-16.46 8.28-.14-15.67 16.55-7.24Z"/>
    <path id="h" d="m503.32 290.58-22.57-12.87 91.49-131.51 16.18 12.32-85.1 132.06Z"/>
    <path id="i" d="m572.39 146.11-10.6-2.71-86.42 129.14 5.38 5.17 91.64-131.6Z"/>
    <path id="j" d="m561.94 143.43-58.39-17.87-72.69 102.94 44.47 44.24 86.61-129.31Z"/>
    <path id="k" d="m542.16 230.98-9.18-6.05 10.75 2.21 2.78-3.92-9.05-11.18 10.97 7.9 2.42-3.77-17.59-13.32-4.56 7.05 11.76 12.46-15.89-6.62-4.27 6.77 18.3 12.89 3.56-4.42Z"/>
    <path id="l" d="m528.4 251.03-15.02-10.11 3.27-4.77-4.2-3.07-8.55 12.97 4.21 2.92 3.34-4.23L526 254.77l2.4-3.74Z"/>
    <path id="m" d="m559.43 203.25-7.76-6.41.78-1.21 10.75 1.78 1.93-3.78-10.47-.71 3.49-4.99-5.49-4.2h-5.77l-7.4 10.47 17.45 12.82 2.49-3.77Z"/>
    <path id="n" d="m552.16 189.15-3.56 6.26-3.13-2.7 4.06-5.63 2.63 2.07Z"/>
  </defs>
  <use xlink:href="#a" fill="#9b7647"/>
  <use xlink:href="#b" fill="#d161d5"/>
  <use xlink:href="#c" fill="#e99aec"/>
  <use xlink:href="#d" fill="#e9ed9b"/>
  <use xlink:href="#e" fill="#dec08d"/>
  <use xlink:href="#f" fill="#dec08d"/>
  <use xlink:href="#g" fill="#dec08d"/>
  <use xlink:href="#h" fill="#6e6e6e"/>
  <use xlink:href="#i" fill="#424242"/>
  <use xlink:href="#j" fill="#6e6e6e"/>
  <use xlink:href="#k" fill="#999999"/>
  <use xlink:href="#l" fill="#999999"/>
  <use xlink:href="#m" fill="#999999"/>
  <use xlink:href="#n" fill="#6e6e6e"/>
</svg>
