<svg xmlns="http://www.w3.org/2000/svg" xmlns:xlink="http://www.w3.org/1999/xlink" width="262" height="262.1" viewBox="336.048 312.641 262 262.096">
  <defs>
    <path id="a" d="M336.05 312.72h262v262h-262v-262Z"/>
    <path id="b" d="m417.85 519.86.18 24.55-10.11 14.44-17.69 14.98-25.27.18-18.59-17.87-4.15-11.37-.73-25.81 76.36.9Z"/>
    <path id="c" d="m417.77 519.94-24.87-31.27-2.25-65.62-29.38.12.63 65.09-20.5 30.62 76.37 1.06Z"/>
    <path id="d" d="m417.33 329.39 16.51 5.18-.02 240.13-16.05-.04-.44-245.27Z"/>
    <path id="e" d="m433.75 312.69.09 21.98-16.52-5.31v-16.72l16.43.05Z"/>
    <path id="f" d="M433.99 366.71v17.39l-16.67-13.65v-14.8l16.67 11.06Z"/>
    <path id="g" d="m433.87 404.28.05 14.63-16.45 8.27-.15-15.66 16.55-7.24Z"/>
    <path id="h" d="M433.84 527.68h164.18v47.06H433.84v-47.06Z"/>
    <path id="i" d="m588.27 506.31-2.38 21.2-39.55-.16-5.54-21.2 47.47.16Z"/>
    <path id="j" d="m538.9 497.2 17.09-11.87-.84-11.7 19.19-4.46.42 17.09 14.99 10.1-1.18 9.93-47.73-.25-1.94-8.84Z"/>
    <path id="k" d="m568.7 357.57 2.2 15.68 26.98.17-.51 40.24-36.09 41.72-74.7 14.84-2.53-3.38 10.96-62.22 26.14-40.98 47.55-6.07Z"/>
    <path id="l" d="m447.1 505.5-10.12 21.24 16.87-22.09 61.38-65.43-4.38-1.68-63.75 67.96Z"/>
    <path id="m" d="m511.3 424.71 9.42-17.16 28.47-6.35.2 17.46-8.13 20.04-21.53 2.48-9.03-3.97.6-12.5Z"/>
    <path id="n" d="m526.73 425.32-.89 8.03 10.61-3.67 1.49-9.32-6.35-4.27-10.51 3.08-1.99 4.86 7.64 1.29Z"/>
  </defs>
  <use xlink:href="#a" fill="#9b7647"/>
  <use xlink:href="#b" fill="#d161d5"/>
  <use xlink:href="#c" fill="#e99aec"/>
  <use xlink:href="#d" fill="#e9ed9b"/>
  <use xlink:href="#e" fill="#dec08d"/>
  <use xlink:href="#f" fill="#dec08d"/>
  <use xlink:href="#g" fill="#dec08d"/>
  <use xlink:href="#h" fill="#aee18e"/>
  <use xlink:href="#i" fill="#e7419b"/>
  <use xlink:href="#j" fill="#edbfd8"/>
  <use xlink:href="#k" fill="#6395ea"/>
  <use xlink:href="#l" fill="#8390a5"/>
  <use xlink:href="#m" fill="#ecdbff"/>
  <use xlink:href="#n" fill="#cb99cc"/>
</svg>
