<svg xmlns="http://www.w3.org/2000/svg" xmlns:xlink="http://www.w3.org/1999/xlink" width="262" height="262.33" viewBox="38.41 27.422 262 262.329">
  <defs>
    <path id="a" d="M38.41 27.51h262v262h-262v-262Z"/>
    <path id="b" d="m120.21 234.64.18 24.55-10.11 14.44-17.69 14.98-25.27.18-18.59-17.87-4.15-11.37-.72-25.81 76.35.9Z"/>
    <path id="c" d="m120.13 234.72-24.87-31.27-2.25-65.62-29.38.12.63 65.09-20.5 30.62 76.37 1.06Z"/>
    <path id="d" d="m119.7 44.17 16.5 5.18-.01 240.14-16.06-.04-.43-245.28Z"/>
    <path id="e" d="m136.12 27.48.09 21.97-16.53-5.31V27.42l16.44.06Z"/>
    <path id="f" d="M136.35 81.49v17.39l-16.67-13.65v-14.8l16.67 11.06Z"/>
    <path id="g" d="m136.23 119.06.05 14.63-16.45 8.27-.15-15.66 16.55-7.24Z"/>
    <path id="h" d="m211.86 289.75-21.9-14.21 91.36-129.08 18.34 12.45-87.8 130.84Z"/>
    <path id="i" d="m281.13 146.78-68.91-21.23-70.26 99.43 47.98 50.71 91.19-128.91Z"/>
    <path id="j" d="m178.88 191.1-5.63-10.63 5.12-6.96.51 17.59Z"/>
    <path id="k" d="m267.23 142.7-37.26 17.67 44.18-4.74 6.91-9.22-13.83-3.71Z"/>
    <path id="l" d="m234.57 212.69-7.7 10.82-15.27-.22 22.44-21.08.53 10.48Z"/>
    <path id="m" d="m185.41 250.87 3.72 12.3 3.58-21.77-7.3 9.47Z"/>
    <path id="n" d="m153.43 217.21 1.66 7.94 5.77-13.06-7.43 5.12Z"/>
    <path id="o" d="m215.27 166.89-11.52 1.28-.64 2.56-23.82 20.36.45 21.51 40.27-42.38-4.74-3.33Z"/>
    <path id="p" d="m219.63 169.74 4.15-.04 10.49 9.67-.05 22.86-22.66 21.13-22.02.26-9.86-11.14 39.95-42.74Z"/>
    <path id="q" d="m201.03 169.59-21.6 21.34 28.01-9.44-2.44-11.65 29.07-.13.08 32.57 11.19-32.57-22.79-11.26-17.42 7.81 31.63-33.17-24.59-7.54-12.59 17.92 1.45 26.12Z"/>
    <path id="r" d="m200.01 234.49-10.43-10.88 21.74-.24-11.31 11.12Z"/>
    <path id="s" d="m179.4 224.24.32-11.73 9.78 11.04-10.1.69Z"/>
  </defs>
  <use xlink:href="#a" fill="#9b7647"/>
  <use xlink:href="#b" fill="#d161d5"/>
  <use xlink:href="#c" fill="#e99aec"/>
  <use xlink:href="#d" fill="#e9ed9b"/>
  <use xlink:href="#e" fill="#dec08d"/>
  <use xlink:href="#f" fill="#dec08d"/>
  <use xlink:href="#g" fill="#dec08d"/>
  <use xlink:href="#h" fill="#414141"/>
  <use xlink:href="#i" fill="#848484"/>
  <use xlink:href="#j" fill="#9acefe"/>
  <use xlink:href="#k" fill="#9acefe"/>
  <use xlink:href="#l" fill="#9acefe"/>
  <use xlink:href="#m" fill="#9acefe"/>
  <use xlink:href="#n" fill="#9acefe"/>
  <use xlink:href="#o" fill="#f0dca5"/>
  <use xlink:href="#p" fill="#d8d3a2"/>
  <use xlink:href="#q" fill="#9acefe"/>
  <use xlink:href="#r" fill="#9acefe"/>
  <use xlink:href="#s" fill="#9acefe"/>
</svg>
