<svg xmlns="http://www.w3.org/2000/svg" xmlns:xlink="http://www.w3.org/1999/xlink" width="262.38" height="262.29" viewBox="325.024 53.918 262.38 262.286">
  <defs>
    <path id="a" d="M325.26 54.06h262v262h-262v-262Z"/>
    <path id="b" d="m325.18 76.33 74.49.16 3.96 239.56-78.61.15.16-239.87Z"/>
    <path id="c" d="m399 54.01 58.45-.09-.03 262.05h-53.94L399 54.01Z"/>
    <path id="d" d="m526.09 177.07.5-104.79-68.93-.17-.16 13.22 68.59 91.74Z"/>
    <path id="e" d="m457.66 137.65 68.76 87.44v-47.52L457.5 85.5l.16 52.15Z"/>
    <path id="f" d="m457.5 182.94 68.76 87.11.33-44.68-68.93-87.72-.16 45.29Z"/>
    <path id="g" d="m457.5 230.22 68.56 85.64.2-46.05-68.93-86.78.17 47.19Z"/>
    <path id="h" d="m457.46 316.01 68.67-.03-68.96-85.77.29 85.8Z"/>
    <path id="i" d="M526.25 105.92h61.03v176.6l-61.13.2.1-176.8Z"/>
    <path id="j" d="m526.35 282.72 60.95-.3.1 33.78-61.25-.2.2-33.28Z"/>
    <path id="k" d="m391.35 172.96-10.7 44.09 7.32 15.57-5.44 23.83 6.76 2.44 5.06-27.95-9.19-23.83 11.07-23.08 4.88-3.19-.19-15.38-9.57 7.5Z"/>
    <path id="l" d="m380.94 269.23 8.69-.22-.55-9.9-6.82-2.53-1.32 12.65Z"/>
    <path id="m" d="m391.72 299.11-8.14 7.7-5.61-14.64 2.86-22.55 8.69-.66 2.2 30.15Z"/>
    <path id="n" d="m564.33 54.52 18.62 10.29 4.04 8.21-.11 17.46-4.05 6.35-15.72 9.14-21.62-.12-15.15-10.86-3.46-8.33V76.03l6.35-10.52 21.39-10.99h9.71Z"/>
    <path id="o" d="M548.03 82.73h4.16l-.46-7.28-2.54.23-1.16 7.05Z"/>
    <path id="p" d="m564.22 82.38 4.51.12-.7-7.63-2.77-.12-1.04 7.63Z"/>
  </defs>
  <use xlink:href="#a" fill="#9b7647"/>
  <use xlink:href="#b" fill="#eabc63"/>
  <use xlink:href="#c" fill="#e9a6cc"/>
  <use xlink:href="#d" fill="#7fbf84"/>
  <use xlink:href="#e" fill="#b192e7"/>
  <use xlink:href="#f" fill="#83c8e6"/>
  <use xlink:href="#g" fill="#fbea4a"/>
  <use xlink:href="#h" fill="#7fbf84"/>
  <use xlink:href="#i" fill="#d1dd51"/>
  <use xlink:href="#j" fill="#a2a2a2"/>
  <use xlink:href="#k" fill="#cea76e"/>
  <use xlink:href="#l" fill="#aaaaaa"/>
  <use xlink:href="#m" fill="#f5e36b"/>
  <use xlink:href="#n" fill="#f684ff"/>
  <use xlink:href="#o" fill="#141414"/>
  <use xlink:href="#p" fill="#141414"/>
</svg>
