<svg xmlns="http://www.w3.org/2000/svg" xmlns:xlink="http://www.w3.org/1999/xlink" width="262.38" height="262.29" viewBox="171.548 341.468 262.38 262.286">
  <defs>
    <path id="a" d="M171.78 341.61h262v262h-262v-262Z"/>
    <path id="b" d="m171.71 363.88 74.48.16 3.96 239.56-78.6.15.16-239.87Z"/>
    <path id="c" d="m245.52 341.56 58.45-.09-.02 262.05h-53.94l-4.49-261.96Z"/>
    <path id="d" d="m372.62 464.62.49-104.79-68.92-.17-.17 13.22 68.6 91.74Z"/>
    <path id="e" d="m303.93 425.21 69.02 87.43v-47.52l-68.93-92.07-.09 52.16Z"/>
    <path id="f" d="m304.02 470.74 68.76 86.86.33-44.68-69.18-87.84.09 45.66Z"/>
    <path id="g" d="m304.02 517.77 68.57 85.64.19-46.05-68.92-86.78.16 47.19Z"/>
    <path id="h" d="m303.98 603.56 68.67-.03-68.96-85.77.29 85.8Z"/>
    <path id="i" d="M372.77 393.47h61.03v176.6l-61.13.2.1-176.8Z"/>
    <path id="j" d="m372.88 570.27 60.95-.3.1 33.78-61.26-.2.21-33.28Z"/>
  </defs>
  <use xlink:href="#a" fill="#9b7647"/>
  <use xlink:href="#b" fill="#eabc63"/>
  <use xlink:href="#c" fill="#e9a6cc"/>
  <use xlink:href="#d" fill="#7fbf84"/>
  <use xlink:href="#e" fill="#b192e7"/>
  <use xlink:href="#f" fill="#83c8e6"/>
  <use xlink:href="#g" fill="#fbea4a"/>
  <use xlink:href="#h" fill="#7fbf84"/>
  <use xlink:href="#i" fill="#d1dd51"/>
  <use xlink:href="#j" fill="#a2a2a2"/>
</svg>
