<svg xmlns="http://www.w3.org/2000/svg" xmlns:xlink="http://www.w3.org/1999/xlink" width="262.04" height="262.07" viewBox="337.573 174.786 262.037 262.073">
  <defs>
    <path id="a" d="M337.61 174.79h262v262h-262v-262Z"/>
    <path id="b" d="m337.57 195.61 37.54-.78 1.22 241.88-38.69.05-.07-241.15Z"/>
    <path id="c" d="m374.88 204.85 27.43.33 1.29 231.68-27.3-.07-1.42-231.94Z"/>
    <path id="d" d="m402.36 205.51 25.71.22-.22 231.01-24.33.01-1.16-231.24Z"/>
    <path id="e" d="M445.36 345.75 427.7 301.6l.66-52.98 12.8-18.55 46.14-25.16 56.07 7.06 29.36 46.14 14.57 115.76L574.94 420l-44.59 16.34h-18.99l-66-90.59Z"/>
    <path id="f" d="m484.72 295.44 8.08 4.11-1.22 17.53-25.61 18.45-15.25-8.23-3.81-21.65 5.95-7.16 31.86-3.05Z"/>
    <path id="g" d="m453.16 309.31 7.17-7.32 21.49-1.07 5.64 2.75.15 11.58-16.46 13.57-14.18-1.98-3.81-17.53Z"/>
    <path id="h" d="M533.35 308.41 521 294.99l4.11-8.23 25.92-17.68 8.99 1.67 11.28 19.06-6.7 16.16-31.25 2.44Z"/>
    <path id="i" d="m534.41 303.38 21.95.91 9.61-10.67-8.23-16.16-9.91-.61-17.38 12.35-2.74 5.94 6.7 8.24Z"/>
    <path id="j" d="m507.74 328.02.76 14.78 4.57 3.05 5.18-1.52-2.28-18.6-8.23 2.29Z"/>
    <path id="k" d="m521.76 343.11 5.34-1.53 1.67-5.18-7.47-12.19-5.18 1.52 5.64 17.38Z"/>
    <path id="l" d="m498.23 397.06 2.63-.21-11.67-24.82-2.63.84 11.67 24.19Z"/>
    <path id="m" d="m505.27 396.22 3.47.1-10.3-27.02-3.68 1.26 10.51 25.66Z"/>
    <path id="n" d="m517.16 395.58 2.41-.1-9.77-29.55-3.68.84 11.04 28.81Z"/>
    <path id="o" d="m527.88 394.22 3.58.1-11.04-31.33-3.16.84 10.62 30.39Z"/>
    <path id="p" d="m539.76 393.27 3.37-1.89-9.99-31.97-2.73.63 9.35 33.23Z"/>
    <path id="q" d="m552.28 387.59 3.47-1.68-8.94-30.7-3.37.94 8.84 31.44Z"/>
    <path id="r" d="m562.37 382.34 3.16-1.06-4.74-30.07-4.2.95 5.78 30.18Z"/>
  </defs>
  <use xlink:href="#a" fill="#9b7647"/>
  <use xlink:href="#b" fill="#78adc5"/>
  <use xlink:href="#c" fill="#7dc578"/>
  <use xlink:href="#d" fill="#fbeb51"/>
  <use xlink:href="#e" fill="#424242"/>
  <use xlink:href="#f" fill="#818181"/>
  <use xlink:href="#g" fill="#c3c3c3"/>
  <use xlink:href="#h" fill="#818181"/>
  <use xlink:href="#i" fill="#c3c3c3"/>
  <use xlink:href="#j" fill="#c3c3c3"/>
  <use xlink:href="#k" fill="#c3c3c3"/>
  <use xlink:href="#l" fill="#c3c3c3"/>
  <use xlink:href="#m" fill="#c3c3c3"/>
  <use xlink:href="#n" fill="#c3c3c3"/>
  <use xlink:href="#o" fill="#c3c3c3"/>
  <use xlink:href="#p" fill="#c3c3c3"/>
  <use xlink:href="#q" fill="#c3c3c3"/>
  <use xlink:href="#r" fill="#c3c3c3"/>
</svg>
