<svg xmlns="http://www.w3.org/2000/svg" xmlns:xlink="http://www.w3.org/1999/xlink" width="262.04" height="262.07" viewBox="41.643 175.339 262.037 262.073">
  <defs>
    <path id="a" d="M41.68 175.34h262v262h-262v-262Z"/>
    <path id="b" d="m41.64 196.16 37.54-.78 1.22 241.88-38.69.05-.07-241.15Z"/>
    <path id="c" d="m78.95 205.4 27.43.33 1.29 231.68-27.3-.07-1.42-231.94Z"/>
    <path id="d" d="m106.43 206.06 25.71.22-.22 231.02h-24.33l-1.16-231.24Z"/>
    <path id="e" d="m285.26 273.66-1.92 163.16-150.96.48V265.29l152.88 8.37Z"/>
    <path id="f" d="m172.82 364.33 1.19-27.03 19.14 16.27-1.91-29.43 14.35 1.2-.24 46.17-10.53 3.35-11-14.12 2.63 16.99-10.29 3.59-35.64-34.21 7.65-7.9 24.65 25.12Z"/>
    <path id="g" d="m214.44 321.27 11.25 1.44 9.8-11.73 1.44 14.36 8.61 1.91 31.82-34.45-10.29-8.13-19.14 25.36-5.74-22.49-16.5 16.51.95-28.23-14.83.95 2.63 44.5Z"/>
    <path id="h" d="m217.31 425.34 9.81 2.39 10.77-16.75-2.4 18.42 10.05 1.44 30.15-29.67-10.29-9.8-18.66 23.68-4.31-21.05-13.87 11.72.71-24.4-13.15 1.91 1.19 42.11Z"/>
    <path id="i" d="m184.3 242.65 11.96-5.74 43.3 3.11 8.14 5.98-.48 17.46-12.44-.95.71-13.88-38.03-.96-.24 13.4-13.88-.72.96-17.7Z"/>
    <path id="j" d="m148.16 258.41 125.27 5.65 11.66 8.83-152.65-7.77 15.72-6.71Z"/>
    <path id="k" d="m283.45 436.53 19.78-16.07-.53-5.83-17.66-138.52-1.59 160.42Z"/>
  </defs>
  <use xlink:href="#a" fill="#9b7647"/>
  <use xlink:href="#b" fill="#78adc5"/>
  <use xlink:href="#c" fill="#7dc578"/>
  <use xlink:href="#d" fill="#fbeb51"/>
  <use xlink:href="#e" fill="#fb87ff"/>
  <use xlink:href="#f" fill="#ffdf60"/>
  <use xlink:href="#g" fill="#ffdf60"/>
  <use xlink:href="#h" fill="#ffdf60"/>
  <use xlink:href="#i" fill="#fb87ff"/>
  <use xlink:href="#j" fill="#c14ec5"/>
  <use xlink:href="#k" fill="#c14ec5"/>
</svg>
