<svg xmlns="http://www.w3.org/2000/svg" xmlns:xlink="http://www.w3.org/1999/xlink" width="262.46" height="262.12" viewBox="350.34 348.496 262.465 262.117">
  <defs>
    <path id="a" d="M350.8 348.54h262v262h-262v-262Z"/>
    <path id="b" d="m350.79 367.04 74.32-.18-1.06 243.54-73.09.17-.17-243.53Z"/>
    <path id="c" d="m437.98 431.03 63.29 1.94-.35 177.29-62.94.35V431.03Z"/>
    <path id="d" d="m527.81 348.5 84.98.17v261.75h-84.8l-.18-261.92Z"/>
    <path id="e" d="m437.98 378.62 63.85.71-.35 53.55-63.33-1.41-.17-52.85Z"/>
    <path id="f" d="m438.1 459.7 63 1.25.21 23.55-63.42-1.25.21-23.55Z"/>
    <path id="g" d="m527.5 365.36 85.25-3.05-.01 18.08-85.74 5.84.5-20.87Z"/>
    <path id="h" d="m527.7 574.42 85.06 1.74-.16 19.46-84.74-5.71-.16-15.49Z"/>
    <path id="i" d="m385.67 368.14 39.31 114.53-39.03 127.92-35.61-130.48 35.33-111.97Z"/>
    <path id="j" d="m579.65 414.08.3 47.9 25.68 58.41-9.46 14.56-49.55.15-12.61-16.81 23.57-55.71.15-48.5h21.92Z"/>
    <path id="k" d="m425.16 378.49 12.94.29v231.71l-13.94-.15 1-231.85Z"/>
    <path id="l" d="M502.02 379.22h26.09v231.17l-27.09-.14 1-231.03Z"/>
  </defs>
  <use xlink:href="#a" fill="#9b7647"/>
  <use xlink:href="#b" fill="#a175a2"/>
  <use xlink:href="#c" fill="#298b9e"/>
  <use xlink:href="#d" fill="#717171"/>
  <use xlink:href="#e" fill="#44c7e1"/>
  <use xlink:href="#f" fill="#44c7e1"/>
  <use xlink:href="#g" fill="#454545"/>
  <use xlink:href="#h" fill="#454545"/>
  <use xlink:href="#i" fill="#6ccb30"/>
  <use xlink:href="#j" fill="#454545"/>
  <use xlink:href="#k" fill="#14745b"/>
  <use xlink:href="#l" fill="#742414"/>
</svg>
