<svg xmlns="http://www.w3.org/2000/svg" xmlns:xlink="http://www.w3.org/1999/xlink" width="262.46" height="262.12" viewBox="67.773 353.398 262.465 262.117">
  <defs>
    <path id="a" d="M68.24 353.45h262v262h-262v-262Z"/>
    <path id="b" d="m68.22 371.94 74.32-.18-1.05 243.54-73.09.18-.18-243.54Z"/>
    <path id="c" d="m155.41 435.93 63.3 1.94-.35 177.29-62.95.36V435.93Z"/>
    <path id="d" d="m245.25 353.4 84.97.17v261.76h-84.8l-.17-261.93Z"/>
    <path id="e" d="m155.41 383.53 63.85.7-.35 53.55-63.32-1.41-.18-52.84Z"/>
    <path id="f" d="m155.53 464.6 63 1.25.21 23.55-63.41-1.24.2-23.56Z"/>
    <path id="g" d="m244.94 370.26 85.25-3.05-.02 18.08-85.74 5.84.51-20.87Z"/>
    <path id="h" d="m245.13 579.32 85.06 1.74-.16 19.46-84.74-5.71-.16-15.49Z"/>
    <path id="i" d="m103.1 373.04 39.32 114.53-39.03 127.92-35.62-130.48 35.33-111.97Z"/>
    <path id="j" d="m297.09 418.98.3 47.9 25.67 58.41-9.46 14.56-49.55.15-12.61-16.81 23.57-55.71.15-48.5h21.93Z"/>
  </defs>
  <use xlink:href="#a" fill="#9b7647"/>
  <use xlink:href="#b" fill="#a175a2"/>
  <use xlink:href="#c" fill="#298b9e"/>
  <use xlink:href="#d" fill="#717171"/>
  <use xlink:href="#e" fill="#44c7e1"/>
  <use xlink:href="#f" fill="#44c7e1"/>
  <use xlink:href="#g" fill="#454545"/>
  <use xlink:href="#h" fill="#454545"/>
  <use xlink:href="#i" fill="#6ccb30"/>
  <use xlink:href="#j" fill="#454545"/>
</svg>
