<svg xmlns="http://www.w3.org/2000/svg" xmlns:xlink="http://www.w3.org/1999/xlink" width="262.57" height="262.27" viewBox="343.252 42.733 262.571 262.269">
  <defs>
    <path id="a" d="M343.71 42.73h262v262h-262v-262Z"/>
    <path id="b" d="m343.56 174.62 227.36-.24-2.86 73.5-224.5.58v-73.84Z"/>
    <path id="c" d="m343.25 248.37 262.35-.38.22 56.76-262.33.25-.24-56.63Z"/>
    <path id="d" d="m570.94 174.22 18.29.11.11 73.69-21.33-.12 2.93-73.68Z"/>
    <path id="e" d="m378.17 248.37 13.63.11 5.87 56.16h-13.85l-5.65-56.27Z"/>
    <path id="f"/>
    <path id="g" d="m565.41 43.22.48 97.7-65.42 33.37-64.73-34.06-1.19-97.01h130.86Z"/>
    <path id="h" d="m492.1 116.31-16.95-16.95 7.06-6.59 19.15 16.48 18.06-16.48 6.9 7.06-16.48 16.48 38.31 33.76-14.13 7.37-33.6-32.65-32.81 32.34-13.97-7.54 38.46-33.28Z"/>
    <path id="i" d="m436.29 93.75 8.95-3.92 3.45-9.58 2.83 9.11 10.2 4.71-8.79 2.67-4.24 9.89-3.45-10.05-8.95-2.83Z"/>
    <path id="j" d="m436.29 55.92 9.27-3.14 2.98-8.48 3.29 8.01 9.27 3.61-10.36 3.77-2.05 10.36-4.39-10.68-8.01-3.45Z"/>
    <path id="k" d="m463.77 73.35 9.1-2.67 2.83-9.42 3.61 10.05 9.26 2.82-8.64 3.61-3.45 9.74-3.92-10.99-8.79-3.14Z"/>
    <path id="l" d="m512.59 73.97 10.2-2.98 2.67-10.67 4.24 10.51 7.38 3.14-8.32 3.14-3.46 10.84-3.76-10.52-8.95-3.46Z"/>
    <path id="m" d="m540.53 55.92 9.42-3.45 3.3-8.64 2.51 8.17 9.1 4.39-8.32 2.51-3.29 12.09-2.51-11.46-10.21-3.61Z"/>
    <path id="n" d="m564.71 93.75-8.48-3.76-3.45-9.27-3.14 8.95-9.89 4.56 9.26 3.29 4.08 9.26 3.14-9.73 8.48-3.3Z"/>
    <path id="o" d="m436 174.34 64.97.18-65.49-34.51.52 34.33Z"/>
    <path id="p" d="m565.44 174.2-64.37.16 64.9-33.79-.53 33.63Z"/>
  </defs>
  <use xlink:href="#a" fill="#9b7647"/>
  <use xlink:href="#b" fill="#ffcb68"/>
  <use xlink:href="#c" fill="#ffff9b"/>
  <use xlink:href="#d" fill="#fc9bf8"/>
  <use xlink:href="#e" fill="#95d268"/>
  <use xlink:href="#f" fill-opacity="0" stroke="#000000"/>
  <use xlink:href="#g" fill="#9764c8"/>
  <use xlink:href="#h" fill="#fdfe59"/>
  <use xlink:href="#i" fill="#fdfe59"/>
  <use xlink:href="#j" fill="#fdfe59"/>
  <use xlink:href="#k" fill="#fdfe59"/>
  <use xlink:href="#l" fill="#fdfe59"/>
  <use xlink:href="#m" fill="#fdfe59"/>
  <use xlink:href="#n" fill="#fdfe59"/>
  <use xlink:href="#o" fill="#c864ba"/>
  <use xlink:href="#p" fill="#c864ba"/>
</svg>
