<svg xmlns="http://www.w3.org/2000/svg" xmlns:xlink="http://www.w3.org/1999/xlink" width="262.57" height="262.27" viewBox="316.656 13.715 262.571 262.269">
  <defs>
    <path id="a" d="M317.11 13.71h262v262h-262v-262Z"/>
    <path id="b" d="m316.97 145.6 227.36-.24-2.87 73.5-224.49.58V145.6Z"/>
    <path id="c" d="m316.66 219.35 262.34-.38.23 56.76-262.34.25-.23-56.63Z"/>
    <path id="d" d="m544.34 145.2 18.29.11.12 73.69-21.34-.11 2.93-73.69Z"/>
    <path id="e" d="m351.58 219.35 13.62.12 5.87 56.15h-13.85l-5.64-56.27Z"/>
    <path id="f"/>
    <path id="g" d="m474.52 80.44-56.33.44 16.05-38.43-13.54 11.32-11.32-12.72 33.05-26.41 31.4 16.3.69 49.5Z"/>
    <path id="h" d="m474.37 78.2-.45 67.12 65.73-45.99-8.44-18.48-56.84-2.65Z"/>
    <path id="i" d="m474.4 80.47 56.94.48-17.81-39.89h26.65L507.4 15.45l-33.61 15.58.61 49.44Z"/>
    <path id="j" d="m474.51 80.4-.59 64.82-64.49-46.28 8.47-18.04 56.61-.5Z"/>
    <path id="k" d="m459.61 40.79.13 30.68 29.87-.69.38-29.75 13.35.14-6.5 5.42.4 59.46 9.34 8.58-17.96.25-.12-34.34-28.38.44-.13 32.83-16.85.25 9.5-8.87-.12-58.81-6.72-4.87 13.81-.72Z"/>
  </defs>
  <use xlink:href="#a" fill="#9b7647"/>
  <use xlink:href="#b" fill="#ffcb68"/>
  <use xlink:href="#c" fill="#ffff9b"/>
  <use xlink:href="#d" fill="#fc9bf8"/>
  <use xlink:href="#e" fill="#95d268"/>
  <use xlink:href="#f" fill-opacity="0" stroke="#000000"/>
  <use xlink:href="#g" fill="#bf1031"/>
  <use xlink:href="#h" fill="#3d4b7a"/>
  <use xlink:href="#i" fill="#11a365"/>
  <use xlink:href="#j" fill="#f7ce11"/>
  <use xlink:href="#k" fill="#dd981d"/>
</svg>
