<svg xmlns="http://www.w3.org/2000/svg" xmlns:xlink="http://www.w3.org/1999/xlink" width="262.57" height="262.27" viewBox="20.487 17.488 262.571 262.269">
  <defs>
    <path id="a" d="M20.94 17.49h262v262h-262v-262Z"/>
    <path id="b" d="m20.8 149.37 227.36-.23-2.87 73.5-224.49.57v-73.84Z"/>
    <path id="c" d="m20.49 223.13 262.34-.38.23 56.75-262.33.26-.24-56.63Z"/>
    <path id="d" d="m248.17 148.97 18.29.11.12 73.69-21.34-.11 2.93-73.69Z"/>
    <path id="e" d="m55.41 223.13 13.62.11 5.87 56.16H61.05l-5.64-56.27Z"/>
    <path id="f"/>
    <path id="g" d="m177.24 79.8-46.4-1.41 10.47-27.02-10.75 7.5L123.8 41l22.46-22.58 17.96 7.92 13.44 8.37-.42 45.09Z"/>
    <path id="h" d="m177.2 79.76 47.1-.71-10.47-27.01 10.75 7.49 6.64-18.37-22.34-22.08L190.92 27l-13.3 7.81-.42 44.95Z"/>
    <path id="i" d="M177.52 79.83V149l-12.59-11.77-46.96-27.02 12.73-31.57 46.82 1.19Z"/>
    <path id="j" d="M177.76 79.93v69.16l12.58-11.76 46.96-27.02-12.11-31.27-47.43.89Z"/>
    <path id="k" d="m164.18 41.92.13 32.44 26.49-.25.38-31.81h13.05l-6.21 6.59.25 59.32 9.64 8.87-17.37.25-.12-33.46h-25.73l-.13 32.83-16.86.25 9.51-8.87-.13-58.81-6.72-7.22 13.82-.13Z"/>
  </defs>
  <use xlink:href="#a" fill="#9b7647"/>
  <use xlink:href="#b" fill="#ffcb68"/>
  <use xlink:href="#c" fill="#ffff9b"/>
  <use xlink:href="#d" fill="#fc9bf8"/>
  <use xlink:href="#e" fill="#95d268"/>
  <use xlink:href="#f" fill-opacity="0" stroke="#000000"/>
  <use xlink:href="#g" fill="#bf1031"/>
  <use xlink:href="#h" fill="#11a365"/>
  <use xlink:href="#i" fill="#f7ce11"/>
  <use xlink:href="#j" fill="#3d4b7a"/>
  <use xlink:href="#k" fill="#dd981d"/>
</svg>
