<svg xmlns="http://www.w3.org/2000/svg" xmlns:xlink="http://www.w3.org/1999/xlink" width="262.57" height="262.27" viewBox="328.667 44.481 262.571 262.269">
  <defs>
    <path id="a" d="M329.12 44.48h262v262h-262v-262Z"/>
    <path id="b" d="m328.98 176.37 227.36-.24-2.87 73.5-224.49.58v-73.84Z"/>
    <path id="c" d="m328.67 250.12 262.34-.38.23 56.76-262.33.25-.24-56.63Z"/>
    <path id="d" d="m556.35 175.96 18.29.12.12 73.69-21.34-.12 2.93-73.69Z"/>
    <path id="e" d="m363.59 250.12 13.62.11 5.87 56.16h-13.85l-5.64-56.27Z"/>
    <path id="f"/>
    <path id="g" d="m550.23 44.97 1.01 81.14-8.12 15.43-57.83 34.5-56.18-33.65-8.79-16.78-.22-80.64h130.13Z"/>
    <path id="h" d="m459.06 129.81-4.99 3.51-5.11-2.73-3.46 2-3.84-2-2 1.46-3.84-2.92 6.39-5.11-16.42-8.76-4.56-16.24 4.74 2.73-4.93-16.05 4.02 3.28-2.56-14.05 5.11 4.01-.54-16.24 4.56 4.57-.37-13.51L459 93.72l.06 36.09Z"/>
    <path id="i" d="m490.39 52.85 22.26 14.6v60.4l-21.9 14.23-31.57-.36-.18-88.69 31.39-.18Z"/>
    <path id="j" d="m499.33 75.48.36 47.08-27.55 6.75V65.99l27.19 9.49Z"/>
    <path id="k" d="m445.48 132.64 13.63-7.97v-5.63l-17.45 11.48 3.82 2.12Z"/>
    <path id="l" d="m431.64 67.15 27.29 36.29.18-9.71-27.89-39.92.42 13.34Z"/>
    <path id="m" d="m425.71 115.21 16.14 8.68 10.71-9.05-31.19-15.57 4.34 15.94Z"/>
    <path id="n" d="m425.07 88.83 32.07 22.99 1.98-1.62.11-5.31-36.59-29.83 2.43 13.77Z"/>
    <path id="o" d="m512.74 129.68 4.98 3.5 5.11-2.73 3.47 2 3.83-2 2.01 1.46 3.83-2.92-6.39-5.11 16.43-8.76 4.56-16.24-4.74 2.74 4.92-16.06-4.01 3.28 2.55-14.05-5.11 4.02.55-16.25-4.56 4.57.36-13.51-27.73 39.97-.06 36.09Z"/>
    <path id="p" d="m526.32 132.5-13.64-7.97v-5.63l17.46 11.48-3.82 2.12Z"/>
    <path id="q" d="m540.15 67.01-27.29 36.29-.17-9.71 27.89-39.92-.43 13.34Z"/>
    <path id="r" d="m546.09 115.08-16.15 8.67-10.71-9.05 31.2-15.57-4.34 15.95Z"/>
    <path id="s" d="m546.73 88.7-32.07 22.98-1.99-1.62-.1-5.31 36.59-29.83-2.43 13.78Z"/>
    <path id="t" d="m429.32 142.31 56.3 33.86-64.49.05-1.18-51.24 9.37 17.33Z"/>
    <path id="u" d="m542.78 141.72-57.14 34.52 64.99.05.86-50.23-8.71 15.66Z"/>
  </defs>
  <use xlink:href="#a" fill="#9b7647"/>
  <use xlink:href="#b" fill="#ffcb68"/>
  <use xlink:href="#c" fill="#ffff9b"/>
  <use xlink:href="#d" fill="#fc9bf8"/>
  <use xlink:href="#e" fill="#95d268"/>
  <use xlink:href="#f" fill-opacity="0" stroke="#000000"/>
  <use xlink:href="#g" fill="#7f0200"/>
  <use xlink:href="#h" fill="#f7c702"/>
  <use xlink:href="#i" fill="#454545"/>
  <use xlink:href="#j" fill="#7f0200"/>
  <use xlink:href="#k" fill="#c9a719"/>
  <use xlink:href="#l" fill="#c9a719"/>
  <use xlink:href="#m" fill="#c9a719"/>
  <use xlink:href="#n" fill="#c9a719"/>
  <use xlink:href="#o" fill="#f7c702"/>
  <use xlink:href="#p" fill="#c9a719"/>
  <use xlink:href="#q" fill="#c9a719"/>
  <use xlink:href="#r" fill="#c9a719"/>
  <use xlink:href="#s" fill="#c9a719"/>
  <use xlink:href="#t" fill="#c5c5c5"/>
  <use xlink:href="#u" fill="#c5c5c5"/>
</svg>
