<svg xmlns="http://www.w3.org/2000/svg" xmlns:xlink="http://www.w3.org/1999/xlink" width="262.57" height="262.27" viewBox="328.45 35.717 262.571 262.269">
  <defs>
    <path id="a" d="M328.91 35.72h262v262h-262v-262Z"/>
    <path id="b" d="m328.76 167.6 227.36-.24-2.86 73.51-224.5.57V167.6Z"/>
    <path id="c" d="m328.45 241.35 262.35-.38.22 56.76-262.33.26-.24-56.64Z"/>
    <path id="d" d="m556.14 167.2 18.29.11.11 73.69-21.34-.11 2.94-73.69Z"/>
    <path id="e" d="m363.37 241.36 13.62.11 5.87 56.16h-13.85l-5.64-56.27Z"/>
    <path id="f"/>
    <path id="g" d="m550.01 36.2.49 87.47-65.43 43.61-65.91-43.86V36.2h130.85Z"/>
    <path id="h" d="m513.24 82.66-6.23 6.23.99 8.85 6.39 2.29 12.95-.49-1.97 12.13-15.52 2.26-13.82-7.83-.17 1.64 29.84 19.34-.16 6.56-20.5-10-3.6 12.95-7.05-11.15-9.18 11.31-13.61-10.32-18.52 9.67-5.41-16.72-6.4 5.57 3.45-25.41-9.84 3.44 7.21-20.49h-5.24l10.16-11.8-5.9.33 11.97-13.61-9.18.98 24.42-15.24 10.82 2.95-2.62-6.56 21.31 5.41 15.9 14.1 21.81 13.44-.33 5.41-6.39 9.18-15.58-4.42Z"/>
    <path id="i" d="m529.19 68.79 6.26 8.89.13-5.26-6.39-3.63Z"/>
    <path id="j" d="m497.23 62.39-.37 6.27 12.15 1.75.88-2.38-12.66-5.64Z"/>
    <path id="k" d="m524.17 92.85 4.77-5.89-4.27-1.01-.5 6.9Z"/>
    <path id="l" d="m524.42 95.23 3.01 4.01-3.76.12.75-4.13Z"/>
    <path id="m" d="m419.74 168.13 65.71-.41-66.33-44.22.62 44.63Z"/>
    <path id="n" d="m550.33 168.13-65.7-.41 66.32-44.22-.62 44.63Z"/>
  </defs>
  <use xlink:href="#a" fill="#9b7647"/>
  <use xlink:href="#b" fill="#ffcb68"/>
  <use xlink:href="#c" fill="#ffff9b"/>
  <use xlink:href="#d" fill="#fc9bf8"/>
  <use xlink:href="#e" fill="#95d268"/>
  <use xlink:href="#f" fill-opacity="0" stroke="#000000"/>
  <use xlink:href="#g" fill="#bc1031"/>
  <use xlink:href="#h" fill="#da9d0f"/>
  <use xlink:href="#i" fill="#000000"/>
  <use xlink:href="#j" fill="#000000"/>
  <use xlink:href="#k" fill="#ffffff"/>
  <use xlink:href="#l" fill="#ffffff"/>
  <use xlink:href="#m" fill="#000000"/>
  <use xlink:href="#n" fill="#000000"/>
</svg>
