<svg xmlns="http://www.w3.org/2000/svg" xmlns:xlink="http://www.w3.org/1999/xlink" width="262.57" height="262.27" viewBox="328.856 34.99 262.571 262.269">
  <defs>
    <path id="a" d="M329.31 34.99h262v262h-262v-262Z"/>
    <path id="b" d="m329.17 166.88 227.36-.24-2.87 73.5-224.49.58v-73.84Z"/>
    <path id="c" d="m328.86 240.63 262.34-.38.23 56.75-262.34.26-.23-56.63Z"/>
    <path id="d" d="m556.54 166.47 18.29.12.12 73.68-21.34-.11 2.93-73.69Z"/>
    <path id="e" d="m363.78 240.63 13.62.11 5.87 56.16h-13.85l-5.64-56.27Z"/>
    <path id="f"/>
    <path id="g" d="m550.42 35.47.72 87.48-65.66 43.6-65.92-43.86V35.47h130.86Z"/>
    <path id="h" d="m450.83 50.24 25.64-8.36 19.03 8.23 18.54 3.72-1.97 3.35-7.68 1.18 7.48 2.76-18.31 2.16-9.05 4.33 20.98 11.95 25.67 22.7-1.97 21.65 8.07-1.97-1.57 6.7-3.35.98-9.84-3.74-10.83 11.62-23.42 7.28 3.93-10.83 6.3-1.38 3.55-7.08-3.35-4.33-33.86 10.23-4.72-7.48 15.35-8.66 6.1-10.63-15.94-5.71-31.69 16.14-6.11-9.05 29.14-17.13-30.12-42.71 3.74-1.58 26.18 24.02-5.92-18.36Z"/>
    <path id="i" d="m514.66 53.62-2.43 3.51-2.5-3.81 4.93.3Z"/>
    <path id="j" d="m473.23 46.87-9.71 8.64 31.31-4.86-21.6-3.78Z"/>
    <path id="k" d="m420.28 167.28 65.7-.41-66.32-44.21.62 44.62Z"/>
    <path id="l" d="m550.87 167.28-65.7-.41 66.32-44.22-.62 44.63Z"/>
  </defs>
  <use xlink:href="#a" fill="#9b7647"/>
  <use xlink:href="#b" fill="#ffcb68"/>
  <use xlink:href="#c" fill="#ffff9b"/>
  <use xlink:href="#d" fill="#fc9bf8"/>
  <use xlink:href="#e" fill="#95d268"/>
  <use xlink:href="#f" fill-opacity="0" stroke="#000000"/>
  <use xlink:href="#g" fill="#f8cf11"/>
  <use xlink:href="#h" fill="#95978a"/>
  <use xlink:href="#i" fill="#090909"/>
  <use xlink:href="#j" fill="#242424"/>
  <use xlink:href="#k" fill="#000000"/>
  <use xlink:href="#l" fill="#000000"/>
</svg>
