<svg xmlns="http://www.w3.org/2000/svg" xmlns:xlink="http://www.w3.org/1999/xlink" width="262.57" height="262.27" viewBox="298.705 26.094 262.571 262.269">
  <defs>
    <path id="a" d="M299.16 26.09h262v262h-262v-262Z"/>
    <path id="b" d="m299.01 157.98 227.37-.24-2.87 73.5-224.5.58v-73.84Z"/>
    <path id="c" d="m298.71 231.73 262.34-.38.23 56.76-262.34.25-.23-56.63Z"/>
    <path id="d" d="m526.39 157.58 18.29.11.12 73.69-21.34-.11 2.93-73.69Z"/>
    <path id="e" d="m333.63 231.73 13.62.11 5.87 56.16h-13.85l-5.64-56.27Z"/>
    <path id="f"/>
    <path id="g" d="m520.97 26.52.47 86.71-65.41 44.36-65.92-43.86V26.52h130.86Z"/>
    <path id="h" d="m422.39 104.56 4.05 3.95-2.67-7.8-1.38 3.85Z"/>
    <path id="i" d="m430.39 123.81.39 5.53 4.05-4.24 11.75 5.43.49-3.66-2.17-4.24-14.51 1.18Z"/>
    <path id="j" d="m430.7 96.62 9.97.37-12.43-29.75 21.42-37.31-1.88 20.72 13.13-18.16-5.13 27.44 19.15-11.45-19.74 20.16 28.72-7.1-29.51 15.87 21.02-1.09-13.13 4.05.1 1.28 18.27.79-18.17 3.65.1 1.78L477 92.61l-5.92 3.65 6.12 1.19-10.76 12.24 44.62 6.12-29.63 17.58-22.12-17.18-6.71 7.31-3.75-6.12-1.68 9.57-2.47-4.34-3.75-12.44-7.3-6.22-8.2 1.78-1.68-5.43 6.93-3.7Z"/>
    <path id="k" d="m391.01 158.15 65.7-.42-66.32-44.21.62 44.63Z"/>
    <path id="l" d="m520.98 157.99-65.71-.41 66.33-44.22-.62 44.63Z"/>
  </defs>
  <use xlink:href="#a" fill="#9b7647"/>
  <use xlink:href="#b" fill="#ffcb68"/>
  <use xlink:href="#c" fill="#ffff9b"/>
  <use xlink:href="#d" fill="#fc9bf8"/>
  <use xlink:href="#e" fill="#95d268"/>
  <use xlink:href="#f" fill-opacity="0" stroke="#000000"/>
  <use xlink:href="#g" fill="#6c67cb"/>
  <use xlink:href="#h" fill="#ffb82d"/>
  <use xlink:href="#i" fill="#ffb82d"/>
  <use xlink:href="#j" fill="#ae7c45"/>
  <use xlink:href="#k" fill="#000000"/>
  <use xlink:href="#l" fill="#000000"/>
</svg>
