<svg xmlns="http://www.w3.org/2000/svg" xmlns:xlink="http://www.w3.org/1999/xlink" width="262.57" height="262.27" viewBox="296.823 14.555 262.571 262.269">
  <defs>
    <path id="a" d="M297.28 14.55h262v262h-262v-262Z"/>
    <path id="b" d="m297.13 146.44 227.36-.24-2.86 73.5-224.5.58v-73.84Z"/>
    <path id="c" d="m296.82 220.19 262.35-.38.22 56.76-262.33.25-.24-56.63Z"/>
    <path id="d" d="m524.51 146.04 18.29.11.11 73.69-21.33-.11 2.93-73.69Z"/>
    <path id="e" d="m331.74 220.19 13.63.12 5.87 56.15h-13.85l-5.65-56.27Z"/>
    <path id="f"/>
    <path id="g" d="m519.09 14.98.47 86.71-65.41 44.37-65.92-43.86V14.98h130.86Z"/>
    <path id="h" d="m492.86 53.01 1.25-7.02-3.75.31 2.5 6.71Z"/>
    <path id="i" d="M501.28 54.88v-9.67l-3.43.31 3.43 9.36Z"/>
    <path id="j" d="m475.16 53.81-1.19-6.34 10.16-.48 8.14 9.81-17.11-2.99Z"/>
    <path id="k" d="m461.05 33.29-10.41-4.07-20.93 2.04-14.6 10.4-.83 11.85 6.1 9.69 46.17 17.94 12.92 14.35-8.26 13.4-22.84 4.55-29.79-8.62-10.64-18.3-1.08 16.03 9.09 10.17 32.78 10.17 26.55-8.5 16.15-23.08-17.46-18.9-46.3-19.38.48-9.33 18.06-5.62 18.42 7.17 2.52 8.97 24.04 6.34.48-3.94-16.51-2.99-.96-6.1 31.34-2.87-44.49-11.37Z"/>
    <path id="l" d="m476.98 41.23 6.44 4.29 4.81-2.56-11.25-1.73Z"/>
    <path id="m" d="m388.59 146.56 65.7-.42-66.32-44.21.62 44.63Z"/>
    <path id="n" d="m519.14 146.21-65.54-.1 66.16-44.53-.62 44.63Z"/>
  </defs>
  <use xlink:href="#a" fill="#9b7647"/>
  <use xlink:href="#b" fill="#ffcb68"/>
  <use xlink:href="#c" fill="#ffff9b"/>
  <use xlink:href="#d" fill="#fc9bf8"/>
  <use xlink:href="#e" fill="#95d268"/>
  <use xlink:href="#f" fill-opacity="0" stroke="#000000"/>
  <use xlink:href="#g" fill="#469f35"/>
  <use xlink:href="#h" fill="#ffffff"/>
  <use xlink:href="#i" fill="#ffffff"/>
  <use xlink:href="#j" fill="#e72651"/>
  <use xlink:href="#k" fill="#d7d7d7"/>
  <use xlink:href="#l" fill="#000000"/>
  <use xlink:href="#m" fill="#000000"/>
  <use xlink:href="#n" fill="#000000"/>
</svg>
