<svg xmlns="http://www.w3.org/2000/svg" xmlns:xlink="http://www.w3.org/1999/xlink" width="262" height="262.13" viewBox="39.182 121.076 262 262.125">
  <defs>
    <path id="a" d="M39.18 121.08h262v262h-262v-262Z"/>
    <path id="b" d="m39.42 132.61 73.35.18-1.76 250.23-71.76.18.17-250.59Z"/>
    <path id="c" d="m112.78 133.07 57.37.53.71 249.58-59.85-.35 1.77-249.76Z"/>
    <path id="d" d="m112.46 166.8 57.92.24v24.04l-58.28-.61.36-23.67Z"/>
    <path id="e" d="m111.42 319.76 59.16.49.12 16.18-59.28.12v-16.79Z"/>
    <path id="f" d="m217.17 194.8-1.62-14.68 6.78-15.81 4.19-3.06 5.32 3.39 7.42 21.93-1.61 11.45-7.26 11.13-4.35-.16-8.87-14.19Z"/>
    <path id="g" d="M209.26 209.15h37.58l-4.67 150.65-30-.16-2.91-150.49Z"/>
    <path id="h" d="m170.63 362.46 38.41 19.81h35.18l33.02-18.33 7.14-14.15 9.3-4.18 7.14 3.91-.13-4.45-6.07-3.5-11.18 3.1-5.93 14.83H170.77l-.14 2.96Z"/>
  </defs>
  <use xlink:href="#a" fill="#9b7647"/>
  <use xlink:href="#b" fill="#75aad4"/>
  <use xlink:href="#c" fill="#84db8d"/>
  <use xlink:href="#d" fill="#a59551"/>
  <use xlink:href="#e" fill="#a59551"/>
  <use xlink:href="#f" fill="#e7a50f"/>
  <use xlink:href="#g" fill="#d1a8d5"/>
  <use xlink:href="#h" fill="#e68e10"/>
</svg>
