<svg xmlns="http://www.w3.org/2000/svg" xmlns:xlink="http://www.w3.org/1999/xlink" width="262" height="262.13" viewBox="329.911 117.534 262 262.125">
  <defs>
    <path id="a" d="M329.91 117.53h262v262h-262v-262Z"/>
    <path id="b" d="m330.15 129.07 73.35.18-1.77 250.23-71.75.18.17-250.59Z"/>
    <path id="c" d="m403.51 129.53 57.37.52.71 249.59-59.85-.35 1.77-249.76Z"/>
    <path id="d" d="m403.19 163.25 57.92.25v24.04l-58.28-.61.36-23.68Z"/>
    <path id="e" d="m402.15 316.22 59.15.49.13 16.18-59.28.12v-16.79Z"/>
    <path id="f" d="m556.48 266.04 18.67 14.49-.28 98.99-94.32.11-.11-98.83 17.83-14.48 58.21-.28Z"/>
    <path id="g" d="m556.36 266.2-.23-18.45h-57.17l-.46 18.11 57.86.34Z"/>
    <path id="h" d="M556.36 257.66v5.35l-57.74-6.61.22-5.46 57.52 6.72Z"/>
    <path id="i" d="m539.44 361.84 16.67-12.01 7.77-15.53-4.52-17.52-11.3-13.84-25.43-15.96-25 37.71-3.95 9.18 5.37 14.27 18.78 12.85 21.61.85Z"/>
    <path id="j" d="m511.33 347.29 4.38-15.54 14.41-21.18 16.24 15.82 1.84 10.45-7.63 20.62-24.57-.56-4.67-9.61Z"/>
  </defs>
  <use xlink:href="#a" fill="#9b7647"/>
  <use xlink:href="#b" fill="#75aad4"/>
  <use xlink:href="#c" fill="#84db8d"/>
  <use xlink:href="#d" fill="#a59551"/>
  <use xlink:href="#e" fill="#a59551"/>
  <use xlink:href="#f" fill="#e4e4e4"/>
  <use xlink:href="#g" fill="#9248da"/>
  <use xlink:href="#h" fill="#b593d7"/>
  <use xlink:href="#i" fill="#66cbff"/>
  <use xlink:href="#j" fill="#b1e0fa"/>
</svg>
