<svg xmlns="http://www.w3.org/2000/svg" xmlns:xlink="http://www.w3.org/1999/xlink" width="524.04" height="262.28" viewBox="61.481 23.235 524.043 262.282">
  <defs>
    <path id="a" d="M61.52 23.5h524v262h-524v-262Z"/>
    <path id="b" d="m61.53 69.02 75.39-.49 1.24 216.99-76.61-.15-.02-216.35Z"/>
    <path id="c" d="m61.62 250.88 76.49.79.1 12.24-76.59-1.08v-11.95Z"/>
    <path id="d" d="m61.71 224.25 76.1-.79.2 11.66-76.5.49.2-11.36Z"/>
    <path id="e" d="m61.76 53.23 74.4.24.37 16.15-75.05-.87.28-15.52Z"/>
    <path id="f" d="m136.56 53.25 55.68.48-.29 231.61-53.85.09-1.54-232.18Z"/>
    <path id="g" d="m522.1 247.72-13.62-11.77-31.89-20.12 15.48-9.13-12.35-30.85-1.86-2.02 1.55-35.29-21.71-51.72 26.01-23.06 56.35-.78-61.77-34.21-33.46-5.54-63.58 62.63-57.87 151.26-34.83-.16-67.02 11.46 65.01 36.53 146.98.03 18.73-8.67 55.42 7.59 77.25-21.37.15-10.68-47.52-11.14-15.45 7.01Z"/>
    <path id="h" d="m477.69 173.99-29.41-23.53 20.43-8.98 9.91 13.93-.93 18.58Z"/>
    <path id="i" d="m367.16 173.52 19.66-50.46 17.03-6.82 43.19 33.29-79.88 23.99Z"/>
    <path id="j" d="m442.55 191.79 39.32 11.46-22.6-20.9-25.85-5.88-64.71 18.88 73.84-3.56Z"/>
  </defs>
  <use xlink:href="#a" fill="#9b7647"/>
  <use xlink:href="#b" fill="#cff0be"/>
  <use xlink:href="#c" fill="#cbcc66"/>
  <use xlink:href="#d" fill="#cbcc66"/>
  <use xlink:href="#e" fill="#cbcc66"/>
  <use xlink:href="#f" fill="#cdfffe"/>
  <use xlink:href="#g" fill="#e2c5a7"/>
  <use xlink:href="#h" fill="#d6af86"/>
  <use xlink:href="#i" fill="#d6af86"/>
  <use xlink:href="#j" fill="#d6af86"/>
</svg>
