<svg xmlns="http://www.w3.org/2000/svg" xmlns:xlink="http://www.w3.org/1999/xlink" width="524.04" height="262.28" viewBox="58.449 296.933 524.043 262.282">
  <defs>
    <path id="a" d="M58.49 297.19h524v262h-524v-262Z"/>
    <path id="b" d="m58.49 342.72 75.39-.49 1.25 216.99-76.61-.15-.03-216.35Z"/>
    <path id="c" d="m58.59 524.58 76.49.79.1 12.24-76.59-1.08v-11.95Z"/>
    <path id="d" d="m58.68 497.95 76.1-.79.19 11.65-76.49.5.2-11.36Z"/>
    <path id="e" d="m58.73 326.93 74.4.23.37 16.15-75.05-.86.28-15.52Z"/>
    <path id="f" d="m133.52 326.95 55.69.48-.29 231.6-53.85.1-1.55-232.18Z"/>
    <path id="g" d="m519.07 521.42-13.62-11.77-31.89-20.12 15.48-9.13-12.36-30.86-1.85-2.01 1.54-35.29-21.7-51.72 26.01-23.07 56.34-.77-61.76-34.21-33.46-5.54-63.58 62.63-57.87 151.25-34.83-.15-67.02 11.45 65.01 36.54 146.98.03 18.73-8.67 55.42 7.58 77.25-21.36.15-10.68-47.52-11.15-15.45 7.02Z"/>
    <path id="h" d="m474.66 447.69-29.42-23.53 20.44-8.98 9.91 13.93-.93 18.58Z"/>
    <path id="i" d="m364.13 447.22 19.66-50.46 17.03-6.83 43.19 33.3-79.88 23.99Z"/>
    <path id="j" d="m439.52 465.49 39.32 11.45-22.6-20.89-25.86-5.89-64.7 18.89 73.84-3.56Z"/>
    <path id="k" d="m512.02 430.67 25.29-52.69 26-1.88 1.17 62.98-20.38 71.43-25.06 11.24-13.83-12.24-31.73-20.03 28.56-16.72 9.98-42.09Z"/>
    <path id="l" d="m320.89 424.16-30.21-6.56-18.73 12.18-23.42 56.44 5.62 13.12 32.6 11.33 33.67.14 26.94-69.79-26.47-16.86Z"/>
    <path id="m" d="m307.63 474.99.9-14-14.36 8.8 13.46 5.2Z"/>
    <path id="n" d="m283.52 459.61 14.8 5.21-14.66 7.26-11.37-6.85 11.23-5.62Z"/>
    <path id="o" d="m307.77 448.38 12.88-9.86v10.54l-13.02 10.55.14-11.23Z"/>
    <path id="p" d="m283.66 459.61 7.67 2.74.28 5.62-7.81 3.83-6.17-3.28v-6.44l6.03-2.47Z"/>
    <path id="q" d="m308.05 447.97 8.63-6.44 3.97 2.88.13 4.52-8.63 7.26-4.24-3.15.14-5.07Z"/>
    <path id="r" d="m320.75 424.12-.51-5.19 27.29-17.72 10.39 11.3-10.59 28.52-26.58-16.91Z"/>
    <path id="s" d="m332.97 415.87 13.34-4.99-1.93 14.16-10.59 4.17-.82-13.34Z"/>
    <path id="t" d="m230.36 438.21 6.83 16.49 18.12 15.69 14.57-35.34-30.25-2.75-9.27 5.91Z"/>
    <path id="u" d="m261.73 454.7-4.18 9.98-18.63-15.27 16.39-1.33 6.42 6.62Z"/>
  </defs>
  <use xlink:href="#a" fill="#9b7647"/>
  <use xlink:href="#b" fill="#cff0be"/>
  <use xlink:href="#c" fill="#cbcc66"/>
  <use xlink:href="#d" fill="#cbcc66"/>
  <use xlink:href="#e" fill="#cbcc66"/>
  <use xlink:href="#f" fill="#cdfffe"/>
  <use xlink:href="#g" fill="#e2c5a7"/>
  <use xlink:href="#h" fill="#d6af86"/>
  <use xlink:href="#i" fill="#d6af86"/>
  <use xlink:href="#j" fill="#d6af86"/>
  <use xlink:href="#k" fill="#ffcc64"/>
  <use xlink:href="#l" fill="#ffcc64"/>
  <use xlink:href="#m" fill="#e7b9e3"/>
  <use xlink:href="#n" fill="#efeb46"/>
  <use xlink:href="#o" fill="#efeb46"/>
  <use xlink:href="#p" fill="#000000"/>
  <use xlink:href="#q" fill="#000000"/>
  <use xlink:href="#r" fill="#fddab7"/>
  <use xlink:href="#s" fill="#fdf4ed"/>
  <use xlink:href="#t" fill="#fddab7"/>
  <use xlink:href="#u" fill="#fdf4ed"/>
</svg>
