<svg xmlns="http://www.w3.org/2000/svg" xmlns:xlink="http://www.w3.org/1999/xlink" width="524.04" height="262" viewBox="55.772 578.452 524.044 262">
  <defs>
    <path id="a" d="M55.77 578.45h524v262h-524v-262Z"/>
    <path id="b" d="m349.08 788.55 230.74-.38v52.27H349.08v-51.89Z"/>
    <path id="c" d="m362.74 746.04 216.73.19.19 41.83-217.11.57.19-42.59Z"/>
    <path id="d" d="m535.84 579.01-38.03 14.64-48.28 113.53-79.85-113.3-25.19-9.87-17.68 5.13-30.97 178.56-55.52-154.95-39.92 11.6-45.51 66.88-58.79 20.25-16.73 96.58 19.59 20.91 66.74-19.12 17.49-55.52 36.66-73.95 59.66 159.48 6.46.19 46.24-33.87 26.69-151.75 56.65 91.63h69.96l42.97-109.69 50.19 24.71-42.83-82.07Z"/>
    <path id="e" d="m102.83 750.13 28.33-24.9-22.62-3.24-5.71 28.14Z"/>
    <path id="f" d="m154.16 768 .95 25.48-29.65-2.67 28.7-22.81Z"/>
    <path id="g" d="m62.26 838.91 16.05-10.08 1.59 10.48 12.6-17.24-8.12-8.75-22.12 25.59Z"/>
  </defs>
  <use xlink:href="#a" fill="#9b7647"/>
  <use xlink:href="#b" fill="#fdf4ed"/>
  <use xlink:href="#c" fill="#a884c6"/>
  <use xlink:href="#d" fill="#67cc64"/>
  <use xlink:href="#e" fill="#000000"/>
  <use xlink:href="#f" fill="#000000"/>
  <use xlink:href="#g" fill="#e35585"/>
</svg>
