<svg xmlns="http://www.w3.org/2000/svg" xmlns:xlink="http://www.w3.org/1999/xlink" width="262" height="262" viewBox="30.339 333.437 262 262">
  <defs>
    <path id="a" d="M30.34 333.44h262v262h-262v-262Z"/>
    <path id="b" d="m30.42 346.76 21.72-.12.47 248.69-22.19-.11V346.76Z"/>
    <path id="c" d="m51.98 346.48 40.94.12-.02 248.8-40.31-.07-.61-248.85Z"/>
    <path id="d" d="m92.71 363.28 53.94.23.1 231.83H92.84l-.13-232.06Z"/>
    <path id="e" d="m92.74 384.48 53.88.24-.11 13.36-53.77.12v-13.72Z"/>
    <path id="f" d="m155.7 593.38-3.83-41.04-3.13.97 6.96 40.07Z"/>
    <path id="g" d="m146.6 466.92 28.63-90.88 31.13-30.51 44.67-9.2 40.22 23.8-39.85-20.62-41.76 7.8L178.07 376l-29.47 92.27 3.22 84.13-3.07.97-2.15-86.45Z"/>
    <path id="h" d="m160.36 460.52 31.1-80.65 24.09-20.07 41.47-6.41 34.19 6.72-39.88-20.68-41.72 7.89-31.55 28.67-29.51 92.37 3.28 84.05 8.53-91.89Z"/>
  </defs>
  <use xlink:href="#a" fill="#9b7647"/>
  <use xlink:href="#b" fill="#e35585"/>
  <use xlink:href="#c" fill="#9355e3"/>
  <use xlink:href="#d" fill="#e355e3"/>
  <use xlink:href="#e" fill="#a237a2"/>
  <use xlink:href="#f" fill="#298553"/>
  <use xlink:href="#g" fill="#0cdc54"/>
  <use xlink:href="#h" fill="#c1fc65"/>
</svg>
