<svg xmlns="http://www.w3.org/2000/svg" xmlns:xlink="http://www.w3.org/1999/xlink" width="262.01" height="262" viewBox="336.129 35.646 262.01 262">
  <defs>
    <path id="a" d="M336.14 35.65h262v262h-262v-262Z"/>
    <path id="b" d="m336.13 48.97 21.72-.12.47 248.69-22.19-.11V48.97Z"/>
    <path id="c" d="m357.69 48.69 40.94.12-.01 248.8-40.32-.07-.61-248.85Z"/>
    <path id="d" d="m398.42 65.49 53.94.23.1 231.83h-53.91l-.13-232.06Z"/>
    <path id="e" d="m398.45 86.69 53.89.24-.12 13.36-53.77.12V86.69Z"/>
    <path id="f" d="m452.18 155.32 27.63-.15.77 142.37h-28.24l-.16-142.22Z"/>
    <path id="g" d="M479.54 35.68h40.75l.41 261.76h-40.22l-.94-261.76Z"/>
    <path id="h" d="m529.93 262.05-3.79 25.06 2.81 6.48-1.59 3.42-4.52-7.58-.49-7.33 5.38-20.3 2.2.25Z"/>
    <path id="i" d="m525.89 261.48 6.48 1.22 11.13-69.19-6.48-.86-11.13 68.83Z"/>
    <path id="j" d="m539.53 193.24 2.91-55.66 7.53-34.65 21.36-59.7 17.25-6.78h3.58l3.58 18.71-54.93 138.31-1.28-.23Z"/>
    <path id="k" d="m540.68 193.36 14.36-67.08 34.42-90.25-4.14 1.62-34.12 93.77-11.37 61.52.85.42Z"/>
  </defs>
  <use xlink:href="#a" fill="#9b7647"/>
  <use xlink:href="#b" fill="#e35585"/>
  <use xlink:href="#c" fill="#9355e3"/>
  <use xlink:href="#d" fill="#e355e3"/>
  <use xlink:href="#e" fill="#a237a2"/>
  <use xlink:href="#f" fill="#ddc754"/>
  <use xlink:href="#g" fill="#7fdd54"/>
  <use xlink:href="#h" fill="#ffce09"/>
  <use xlink:href="#i" fill="#363636"/>
  <use xlink:href="#j" fill="#727f8f"/>
  <use xlink:href="#k" fill="#292929"/>
</svg>
