<svg xmlns="http://www.w3.org/2000/svg" xmlns:xlink="http://www.w3.org/1999/xlink" width="262" height="262" viewBox="30.417 351.25 262 262">
  <defs>
    <path id="a" d="M30.42 351.25h262v262h-262v-262Z"/>
    <path id="b" d="m202.96 406.09 23.39 2.88 24.74 14.24 31.36 37.28 9.49 31.7v22.2l-16.27 30.34-19.83 16.37-23.9 2.38-27.29-7.46-49.15-43.05 5.25-58.98 18.48-35.26 23.73-12.64Z"/>
    <path id="c" d="m162.55 493.31.34-46.27-33.05-17.46-15.42-1.19-48.14 3.05-28.31 21.02-6.94 24.92v27.79l7.45 12.38 124.07-24.24Z"/>
    <path id="d" d="m160.28 607.16-23.73 5.42h-60l-30.17-16.27-15.35-17.46V525.8l20.27-23.22 55.76-21.19 24.58-1.01 30.17 6.94 29.66 14.92 12.54 22.88.68 30.85-3.39 18.3-19.16 22.04-21.86 10.85Z"/>
  </defs>
  <use xlink:href="#a" fill="#9b7647"/>
  <use xlink:href="#b" fill="#878787"/>
  <use xlink:href="#c" fill="#9acc99"/>
  <use xlink:href="#d" fill="#ff9a66"/>
</svg>
