<svg xmlns="http://www.w3.org/2000/svg" xmlns:xlink="http://www.w3.org/1999/xlink" width="262" height="262.27" viewBox="342.917 35.278 262 262.274">
  <defs>
    <path id="a" d="M342.92 35.28h262v262h-262v-262Z"/>
    <path id="b" d="M546.65 93.3h58.27v204.11l-58.04.14-.23-204.25Z"/>
    <path id="c" d="M546.46 128.91h58.46v8.48l-58.28.18-.18-8.66Z"/>
    <path id="d" d="m473.92 104.01 44.83 27.03 19.91 47.07 1.66 50.45-12.2 29.67-39.9 30.09-26.2 8.28h-45.78l-23.5-5.72-29.21-30.58-13.89-23.2-3.16-24.1 14.27-67.2 18.23-21.68 39-22.29 55.94 2.18Z"/>
    <path id="e" d="m348.54 202.55 12.18-56.91 18.17-21.63 2.52-1.3-16.87 61.04-16 18.8Z"/>
    <path id="f" d="m506.45 151.94 24.41 23.7 6.73 38.62-19.29 29.91-41.85 8.58-24.51-18.27-10.8-33.24 5.96-24.89 15.85-24.41h43.5Z"/>
  </defs>
  <use xlink:href="#a" fill="#9b7647"/>
  <use xlink:href="#b" fill="#a5d1ec"/>
  <use xlink:href="#c" fill="#53a0cf"/>
  <use xlink:href="#d" fill="#cd3301"/>
  <use xlink:href="#e" fill="#a13332"/>
  <use xlink:href="#f" fill="#a13332"/>
</svg>
