<svg xmlns="http://www.w3.org/2000/svg" xmlns:xlink="http://www.w3.org/1999/xlink" width="262" height="262" viewBox="340.139 105.417 262 262">
  <defs>
    <path id="a" d="M340.14 105.42h262v262h-262v-262Z"/>
    <path id="b" d="m340.14 325.81 261.8.4v41.21h-261.8v-41.61Z"/>
    <path id="c" d="M361.96 325.81h20.5l-.19 41.61h-20.02l-.29-41.61Z"/>
    <path id="d" d="m340.41 262.24 261.53.92v63.02l-261.53-.37v-63.57Z"/>
    <path id="e" d="m456.08 273.11-.69 8.5 11.84 10.12-3.22-17.36 9.2-8.27 12.87 9.77-2.87 15.86 16.43-13.22-.69-3.56-19.31-12.71h-14.71l-8.85 10.87Z"/>
    <path id="f" d="m528.56 234.42-22.98 28.38 15.84.06 9.08-10.25L559.91 288l-13.11 59.2 11.04-3.33 12.41-57.13-41.69-52.32Z"/>
    <path id="g" d="m458.05 249.47 9.65-10 9.82-4.02 9.38 4.83 9.08 14.14 1.87 8.38-41.07-.13 1.27-13.2Z"/>
    <path id="h" d="m460.46 251.08 7.59-2.64v6.9l-7.59-4.26Z"/>
    <path id="i" d="m489.65 253.96-6.78 2.53v-5.98l6.78 3.45Z"/>
    <path id="j" d="m538.26 189.78 21.73 5.64 41.72 17.24v9.88L555 201.26l-14.37-2.88-42.87 63.86-1.3-5.24 41.8-67.22Z"/>
    <path id="k" d="m449.79 262.57 3.57-43.16-10.91-2.19-1.85 45.35h-6.32l.57-46.73-21.15-3.79-43.17 50.29h-12.76l53.38-59.7 21.49 4.48-39.08-33.57-52.87 15.06v-7.47l56.09-15.75 45.67 43.52 18.96 3.45-4.63 50.31-6.99-.1Z"/>
  </defs>
  <use xlink:href="#a" fill="#9b7647"/>
  <use xlink:href="#b" fill="#eae154"/>
  <use xlink:href="#c" fill="#605d29"/>
  <use xlink:href="#d" fill="#a7a038"/>
  <use xlink:href="#e" fill="#cecece"/>
  <use xlink:href="#f" fill="#2a2a2a"/>
  <use xlink:href="#g" fill="#6f7f8f"/>
  <use xlink:href="#h" fill="#b83f10"/>
  <use xlink:href="#i" fill="#b83f10"/>
  <use xlink:href="#j" fill="#2a2a2a"/>
  <use xlink:href="#k" fill="#2a2a2a"/>
</svg>
