<svg xmlns="http://www.w3.org/2000/svg" xmlns:xlink="http://www.w3.org/1999/xlink" width="262" height="262" viewBox="43.611 54.722 262 262">
  <defs>
    <path id="a" d="M43.61 54.72h262v262h-262v-262Z"/>
    <path id="b" d="m62.95 267.15 233.68-1.13v50.7H62.95v-49.57Z"/>
    <path id="c" d="m54.46 217.15 251.15.11-.26 48.76-250.56 1.13-.33-50Z"/>
    <path id="d" d="m80.28 217.15 11.54.33v49.67H80.28v-50Z"/>
    <path id="e" d="m103.23 217.15 11.87.32v49.68h-11.87v-50Z"/>
    <path id="f" d="m60.66 172.44 218.18-.43-.33 45.61-217.85-.47v-44.71Z"/>
    <path id="g" d="m104.39 167.14 10.53-5.86 48.08-.74 9.34 5.04.37 6.68h-68.32v-5.12Z"/>
    <path id="h" d="m180.37 146.09 13.83-26.91 2.89-26.05-50.69 4.49h-39.12l-29.11-6.88.54 10.79 3.02 15.54 8.4 21.68 14.26 15.21 10.94 7.17 47.71-.59 17.33-14.45Z"/>
    <path id="i" d="m189.06 129.33 3.64 1.17 19.89-6.19 9.09-10.33 1.44-14.93-7.64-6.26-7.84.62-13.21 24.98 2.66-24.98 10.2-6.61 14.18.89 6.95 7.09 2.34 13.42-6.67 13.9-12.25 9.71-31.45 14.45 8.67-16.93Z"/>
    <path id="j" d="M145.6 97.61h-38.45l-28.98-7.02.28-8.81 20.44 7.07 44.34 2.58 54.64-6.81-.96 8.67-51.31 4.32Z"/>
    <path id="k" d="m198.19 82.72-31.38-11.16-40.73-.23-32.76 3.58-14.93 6.67 20.58 7.3 44.49 2.51 54.41-6.95.32-1.72Z"/>
  </defs>
  <use xlink:href="#a" fill="#9b7647"/>
  <use xlink:href="#b" fill="#635b5b"/>
  <use xlink:href="#c" fill="#9769bd"/>
  <use xlink:href="#d" fill="#bd69ae"/>
  <use xlink:href="#e" fill="#bd69ae"/>
  <use xlink:href="#f" fill="#69bdbc"/>
  <use xlink:href="#g" fill="#3b6fe7"/>
  <use xlink:href="#h" fill="#ffffff"/>
  <use xlink:href="#i" fill="#3b6fe7"/>
  <use xlink:href="#j" fill="#3b6fe7"/>
  <use xlink:href="#k" fill="#cecece"/>
</svg>
