<svg xmlns="http://www.w3.org/2000/svg" xmlns:xlink="http://www.w3.org/1999/xlink" width="262" height="262" viewBox="43.611 339.444 262 262">
  <defs>
    <path id="a" d="M43.61 339.44h262v262h-262v-262Z"/>
    <path id="b" d="m62.95 551.87 233.68-1.13v50.7H62.95v-49.57Z"/>
    <path id="c" d="m54.46 501.87 251.15.12-.26 48.75-250.56 1.13-.33-50Z"/>
    <path id="d" d="m80.28 501.87 11.54.33v49.67H80.28v-50Z"/>
    <path id="e" d="m103.23 501.87 11.87.32v49.68h-11.87v-50Z"/>
    <path id="f" d="m60.66 457.17 218.18-.44-.33 45.62-217.85-.48v-44.7Z"/>
    <path id="g" d="m155.35 373.08 55.17-33.02h9.82l50.12 52.96-27.06 63.71h-67.73l-20.32-83.65Z"/>
    <path id="h" d="m158.38 385.64 51.08-33.82 50.93 49.24-22.28 55.67h-62.34l-17.39-71.09Z"/>
    <path id="i" d="m205.35 382.23 33.02 25.73-11.27 29.57-24.4 12.87-21.75-17.77-4.12-34.24 28.52-16.16Z"/>
  </defs>
  <use xlink:href="#a" fill="#9b7647"/>
  <use xlink:href="#b" fill="#635b5b"/>
  <use xlink:href="#c" fill="#9769bd"/>
  <use xlink:href="#d" fill="#bd69ae"/>
  <use xlink:href="#e" fill="#bd69ae"/>
  <use xlink:href="#f" fill="#69bdbc"/>
  <use xlink:href="#g" fill="#fffe65"/>
  <use xlink:href="#h" fill="#ff9a66"/>
  <use xlink:href="#i" fill="#cc33ff"/>
</svg>
