<svg xmlns="http://www.w3.org/2000/svg" xmlns:xlink="http://www.w3.org/1999/xlink" width="262.26" height="262" viewBox="396.757 324.289 262.262 262">
  <defs>
    <path id="a" d="M397.02 324.29h262v262h-262v-262Z"/>
    <path id="b" d="m396.76 555.1 131.26-.72v31.51l-131 .4-.26-31.19Z"/>
    <path id="c" d="M397.02 524.99h118.04v29.39l-118.04.95v-30.34Z"/>
    <path id="d" d="M412.03 524.99h17.76l14.89 30.11-17.62-.21-15.03-29.9Z"/>
    <path id="e" d="M397.02 507.66h118.04v17.33H397.02v-17.33Z"/>
    <path id="f" d="M528.02 324.29h54.36V585.9h-54.36V324.29Z"/>
    <path id="g" d="M582.38 408.05h38.79l.66 177.85h-39.45V408.05Z"/>
    <path id="h" d="M621.17 364.02h37.85V585.9l-37.19-.25-.66-221.63Z"/>
    <path id="i" d="m582.38 552.71 39.26-.19.19 17.45-39.33.61-.12-17.87Z"/>
    <path id="j" d="m461.58 489.31 2.25-1.88-2.62 8.91-11.82 1.78-1.22 9.29 2.7-3.38 1.24 3.63 3.09-6.72 10.89.47 5.37-18.75-6.57-9.32 3.48-3.06 24.2-1.78 12.85 12.1 6.1-4.41 10.03 6.47-3.56-7.22 7.69 2.91-5.06-4.6h4.31l-6.1-4.88-12.79 4.47-7.79-9.29-12.94-11.72-1.61-33.75v-6.57l-3.37-3.84-17.64-.75.28-2.35 20.08-4.22-2.72-8.53-20.64-6.29-1.78-9.38h-2.35l-1.22 6.18 5.35 8.54 13.69 4.88-23.38 6.66-1.57 6.85 24.39 7.24-12.48 6.28-6.47 7.32-7.22-7.6-8.07 3.57-16.32 11.07-8.63 3.37-1.97-13.79-11.26-3.47 2.91 2.82-5.35 1.78 5.35 2.72-5.35 2.16 10.41 2.34-1.87 13.98 19.14-6.94 14.54-7.88 6.47 3.38-3.19 3.47-1.88 37.78 4.32 3.56-6.47 1.97-6.1-6-4.79 8.91-6.28-9.19-4.69 12.85-8.91 2.63-3.47-4.41-.94 5.44-1.22.28-3-4.69-.38 6.1h-1.69l3.57 9.47 48.12-9.47 1.22-9.38 10.71 1.88Z"/>
    <path id="k" d="M404.41 505.58v-6l-3.01.47 3.01 5.53Z"/>
    <path id="l" d="m410.22 504.36.57-6.56-3.94.84 3.37 5.72Z"/>
    <path id="m" d="m422.79 483.16 2.91 5.63-5.63 1.41 2.72-7.04Z"/>
    <path id="n" d="m433.77 481.57 3.47 3.84-5.82 1.69 2.35-5.53Z"/>
    <path id="o" d="m443.34 441.34-1.6 1.5-10.97-55.07-13.79 27.28 7.88 13.41-7.41 2.44 11.16 15.21-4.03 5.91 4.69 5.06-6.38 6.48 18.57 15.66 1.88-37.88Z"/>
    <path id="p" d="m507.71 458.17-15.57-9.56 22.89-12.67-14.92-9.19 19.61-10.88v-30.12l-62.29 55.73-1.39 11.35 18.93 27.11 32.74-21.77Z"/>
  </defs>
  <use xlink:href="#a" fill="#9b7647"/>
  <use xlink:href="#b" fill="#fffe65"/>
  <use xlink:href="#c" fill="#65ffbc"/>
  <use xlink:href="#d" fill="#42ba86"/>
  <use xlink:href="#e" fill="#6594ff"/>
  <use xlink:href="#f" fill="#65e0ff"/>
  <use xlink:href="#g" fill="#f37f99"/>
  <use xlink:href="#h" fill="#65ff91"/>
  <use xlink:href="#i" fill="#ffeb65"/>
  <use xlink:href="#j" fill="#323232"/>
  <use xlink:href="#k" fill="#f8f8f8"/>
  <use xlink:href="#l" fill="#f8f8f8"/>
  <use xlink:href="#m" fill="#b60a0a"/>
  <use xlink:href="#n" fill="#b60a0a"/>
  <use xlink:href="#o" fill="#969696"/>
  <use xlink:href="#p" fill="#969696"/>
</svg>
