<svg xmlns="http://www.w3.org/2000/svg" xmlns:xlink="http://www.w3.org/1999/xlink" width="262.26" height="262" viewBox="72.516 29.412 262.262 262">
  <defs>
    <path id="a" d="M72.78 29.41h262v262h-262v-262Z"/>
    <path id="b" d="m72.52 260.22 131.26-.72v31.51l-131 .4-.26-31.19Z"/>
    <path id="c" d="M72.78 230.11h118.04v29.39l-118.04.95v-30.34Z"/>
    <path id="d" d="M87.79 230.11h17.76l14.89 30.11-17.62-.21-15.03-29.9Z"/>
    <path id="e" d="M72.78 212.78h118.04v17.33H72.78v-17.33Z"/>
    <path id="f" d="M72.78 193.72h131v19.25l-130.82-.19-.18-19.06Z"/>
    <path id="g" d="M203.78 29.41h54.36v261.61h-54.36V29.41Z"/>
    <path id="h" d="M258.14 113.18h38.79l.66 177.84h-39.45V113.18Z"/>
    <path id="i" d="M296.93 69.14h37.85v221.88l-37.19-.24-.66-221.64Z"/>
    <path id="j" d="m258.14 257.83 39.26-.18.19 17.44-39.33.62-.12-17.88Z"/>
    <path id="k" d="m102.68 144.58 10.09 13.11v16.11l25.04 15.65 27.7-19.09-2.04-18.31 13.15-8.29 9.7 18.31-24.73 50.39-8.6.32-13.78-5.64-.93-13.42-7.83 15.61-10.64 2.66-6.05.47-21.34-53.68 9.71-16.43.55 2.23Z"/>
    <path id="l" d="m112.95 157.91 30.81 7.19 33.13-21.32.37-23.63-6.21-15.71-22.54-16.08-13.64 15.47-15.13-11.69-17.27 23.43v29.24l10.48 13.1Z"/>
    <path id="m" d="m143.88 165.1 19.61-12.63 2.08 17.66-27.78 19.25-24.84-15.72v-15.59l30.93 7.03Z"/>
    <path id="n" d="m92.42 158.8 13.95 35.21-26.8-.29v-9.95l10.11-11.08-6.45-33.13 12.47-25.25 6.77 5.88V142l-10.05 16.8Z"/>
    <path id="o" d="m186.32 162.2-9.5-18.15.44-24.11 7.36-6.34 9.74 17.91-9.01 43.85 9.01 10.35v8.3l-23.51-.29 15.47-31.52Z"/>
    <path id="p" d="m102.71 140.43 34.6 14.73 38.83-34.92-39.44 28.56-33.99-9.89v1.52Z"/>
    <path id="q" d="m111.56 117.89 12-2.53 2.92-6.34-5.36-5.86-9.56 14.73Z"/>
    <path id="r" d="m116.93 109.64 7.7 3.57.68-1.37-7.26-4.06-1.12 1.86Z"/>
    <path id="s" d="m141.31 106.28 3.52 4.25 11.02-2.49L146 96.33l-4.69 9.95Z"/>
    <path id="t" d="m143.55 109.02 7.42-6.83-1.78-2.14-6.71 7.68 1.07 1.29Z"/>
  </defs>
  <use xlink:href="#a" fill="#9b7647"/>
  <use xlink:href="#b" fill="#fffe65"/>
  <use xlink:href="#c" fill="#65ffbc"/>
  <use xlink:href="#d" fill="#42ba86"/>
  <use xlink:href="#e" fill="#6594ff"/>
  <use xlink:href="#f" fill="#be65ff"/>
  <use xlink:href="#g" fill="#65e0ff"/>
  <use xlink:href="#h" fill="#f37f99"/>
  <use xlink:href="#i" fill="#65ff91"/>
  <use xlink:href="#j" fill="#ffeb65"/>
  <use xlink:href="#k" fill="#76842a"/>
  <use xlink:href="#l" fill="#2b9c40"/>
  <use xlink:href="#m" fill="#65c019"/>
  <use xlink:href="#n" fill="#65c019"/>
  <use xlink:href="#o" fill="#65c019"/>
  <use xlink:href="#p" fill="#181818"/>
  <use xlink:href="#q" fill="#dae413"/>
  <use xlink:href="#r" fill="#181818"/>
  <use xlink:href="#s" fill="#dae413"/>
  <use xlink:href="#t" fill="#181818"/>
</svg>
