<svg xmlns="http://www.w3.org/2000/svg" xmlns:xlink="http://www.w3.org/1999/xlink" width="262" height="262" viewBox="610.069 182.9 262 262">
  <defs>
    <path id="a" d="M610.07 182.9h262v262h-262v-262Z"/>
    <path id="b" d="m610.56 425.37 150.24 5.4v13.14l-150.24.6v-19.14Z"/>
    <path id="c" d="M761.55 183.5h40.91l-1.08 260.41H760.8l.75-260.41Z"/>
    <path id="d" d="m802.46 293.57 37.71 1.34v149.6l-38.79-.68 1.08-150.26Z"/>
    <path id="e" d="M839.91 218.43h31.9l.26 226.47h-31.9l-.26-226.47Z"/>
    <path id="f" d="m801.38 415.8 38.79.42v12.97l-38.79-.25V415.8Z"/>
    <path id="g" d="m645.07 375.35 13.28 16.99.13 16.91 25.77 13.88 34.34-17.2-.99-16.12 14.39-7.6 11.05 18.11-30.02 43.79h-12.55l-13.78-4.85-1.01-10.92-8.68 12.9-13.76 2.87-6.37-.2-22.37-52.8 10.57-11.45v-4.31Z"/>
    <path id="h" d="m658.35 392.32 36.12 9.16 37.75-19.45v-22.9l-7.98-18.1-25.27-15.04-14.21 14.33-17.77-12.3-20.04 23.21-1.67 24.45 13.07 16.64Z"/>
    <path id="i" d="m695.55 401.48 21.86-11.59 1.03 16-34.1 17.27-25.99-13.87v-16.95l37.2 9.14Z"/>
    <path id="j" d="m634.5 390.93 15.3 35.82-29.08-.91-.42-9.94 11.36-8.8-8.57-32.65 15.11-24.43 8.22 6.66-1.45 23.25-10.47 11Z"/>
    <path id="k" d="m743.04 400.15-10.84-18.14v-23.16l8.24-5.95 12.44 18.95-11.26 41.16 9.61 10.05v7.4l-27.84-1.27 19.65-29.04Z"/>
    <path id="l" d="m645.64 374.01 41.56 15.88 43.71-30.88-44.33 24.52-40.94-9.52Z"/>
    <path id="m" d="m660.07 352.51 18.65-2.49-10.33-9.13-8.32 11.62Z"/>
    <path id="n" d="m664.94 345.77 9.38 4.83 4.4-.57-12.63-6.03-1.15 1.77Z"/>
    <path id="o" d="m689.52 348.27 18.28-3.33-11.1-10.36-7.18 13.69Z"/>
    <path id="p" d="m694.35 347.38 7.87-7.66-2.08-1.95-9.84 10.35 4.05-.74Z"/>
  </defs>
  <use xlink:href="#a" fill="#9b7647"/>
  <use xlink:href="#b" fill="#fffe65"/>
  <use xlink:href="#c" fill="#65e0ff"/>
  <use xlink:href="#d" fill="#f37f99"/>
  <use xlink:href="#e" fill="#65ff91"/>
  <use xlink:href="#f" fill="#ffeb65"/>
  <use xlink:href="#g" fill="#a9ab4c"/>
  <use xlink:href="#h" fill="#569439"/>
  <use xlink:href="#i" fill="#dac073"/>
  <use xlink:href="#j" fill="#293533"/>
  <use xlink:href="#k" fill="#293533"/>
  <use xlink:href="#l" fill="#181818"/>
  <use xlink:href="#m" fill="#dae413"/>
  <use xlink:href="#n" fill="#181818"/>
  <use xlink:href="#o" fill="#dae413"/>
  <use xlink:href="#p" fill="#181818"/>
</svg>
