<svg xmlns="http://www.w3.org/2000/svg" xmlns:xlink="http://www.w3.org/1999/xlink" width="262.26" height="262" viewBox="397.018 621.103 262.262 262">
  <defs>
    <path id="a" d="M397.28 621.1h262v262h-262v-262Z"/>
    <path id="b" d="m397.02 851.91 131.26-.72v31.51l-131 .4-.26-31.19Z"/>
    <path id="c" d="M397.28 821.8h118.05v29.39l-118.05.95V821.8Z"/>
    <path id="d" d="M412.29 821.8h17.76l14.89 30.11-17.62-.2-15.03-29.91Z"/>
    <path id="e" d="M397.28 804.47h118.05v17.33H397.28v-17.33Z"/>
    <path id="f" d="M528.28 621.1h54.36v261.61h-54.36V621.1Z"/>
    <path id="g" d="M582.64 704.87h38.8l.65 177.84h-39.45V704.87Z"/>
    <path id="h" d="M621.44 660.83h37.84v221.88l-37.19-.24-.65-221.64Z"/>
    <path id="i" d="m582.64 849.52 39.26-.18.19 17.44-39.32.62-.13-17.88Z"/>
    <path id="j" d="m521.23 739.73-2.15 12.37 8.68 2.81-6.53-15.18Z"/>
    <path id="k" d="m438.02 712.27-15.84 16.13 1.75 9.63-26.65 11.13 29.88-51.52-20.11-24.42 67.88 23.12-36.91 15.93Z"/>
    <path id="l" d="m412.97 804.47 32.68-32.08-19.21-16.94-13.47 49.02Z"/>
    <path id="m" d="m502.58 765.61-10.49 4.83-12.7 2.57-22.13 1.27 50 29.85 2.93-17.08 14.85 3.84-14.44-31.11-8.02 5.83Z"/>
    <path id="n" d="m505.84 748.73 13.24 3.37 2.24-12.27-12.16-29.68h9.33l-43.73-13.88-36.85 15.97-15.73 16.1 1.72 9.7 8.11-3.44-5.53 20.85 19.17 16.93 3.36-3.25 8.25 5.05 21.63-1.04 13.27-2.69 10.93-5.05 7.54-5.62-4.79-11.05Z"/>
    <path id="o" d="m495.13 761.83 9.86-13.69 1.87-21.85-7.4-15.39-17.68-6.43-23.48-1.05-20.4 8.84-15.72 16.03 1.68 9.82 8.15-3.51-5.59 20.85 19.23 16.94 3.47-3.19 8.34 5.26 21.51-1.36 16.16-11.27Z"/>
    <path id="p" d="m448.02 722.89 7.91-5.87 10.88-.85 8.51 6.04 1.78 5.44.34 13.43-2.55 3.32-9.35 4.08-8.28-.34-8.31-3.91-3.48-5.33.18-10.32 2.37-5.69Z"/>
  </defs>
  <use xlink:href="#a" fill="#9b7647"/>
  <use xlink:href="#b" fill="#fffe65"/>
  <use xlink:href="#c" fill="#65ffbc"/>
  <use xlink:href="#d" fill="#42ba86"/>
  <use xlink:href="#e" fill="#6594ff"/>
  <use xlink:href="#f" fill="#65e0ff"/>
  <use xlink:href="#g" fill="#f37f99"/>
  <use xlink:href="#h" fill="#65ff91"/>
  <use xlink:href="#i" fill="#ffeb65"/>
  <use xlink:href="#j" fill="#f5deb4"/>
  <use xlink:href="#k" fill="#f5deb4"/>
  <use xlink:href="#l" fill="#f5deb4"/>
  <use xlink:href="#m" fill="#f5deb4"/>
  <use xlink:href="#n" fill="#ffffff"/>
  <use xlink:href="#o" fill="#66cbfd"/>
  <use xlink:href="#p" fill="#4f5963"/>
</svg>
