<svg xmlns="http://www.w3.org/2000/svg" xmlns:xlink="http://www.w3.org/1999/xlink" width="262.26" height="262" viewBox="396.757 29.024 262.262 262">
  <defs>
    <path id="a" d="M397.02 29.02h262v262h-262v-262Z"/>
    <path id="b" d="m396.76 259.83 131.26-.72v31.51l-131 .4-.26-31.19Z"/>
    <path id="c" d="M397.02 229.72h118.04v29.39l-118.04.95v-30.34Z"/>
    <path id="d" d="M412.03 229.72h17.76l14.89 30.11-17.62-.2-15.03-29.91Z"/>
    <path id="e" d="M397.02 212.39h118.04v17.33H397.02v-17.33Z"/>
    <path id="f" d="M528.02 29.02h54.36v261.62h-54.36V29.02Z"/>
    <path id="g" d="M582.38 112.79h38.79l.66 177.85h-39.45V112.79Z"/>
    <path id="h" d="M621.17 68.75h37.85v221.89l-37.19-.25-.66-221.64Z"/>
    <path id="i" d="m582.38 257.44 39.26-.18.19 17.44-39.33.62-.12-17.88Z"/>
    <path id="j" d="m411.64 165.26 11.49-7.72-1.52-31.81 13.34-6.25 10.14 5.58 15.54-5.58 1.18-23.14L476 83.84l41.55 9.64 5.92 11.65-5.92 9.97-15.7-9.12.38 36.38-10.69 18.89-20.61 3.38-10.81-7.09-10.64 4.56-3.55 45.1-9.46 5.19h-13.34l-11.49-47.13Z"/>
    <path id="k" d="m507.69 109.44-5.46-3.56v-6.1l5.46-3.64 10.05 6.33v6.97h-10.05Z"/>
    <path id="l" d="m421.96 202.77 12.51 4.99 1.42-13.31-33.33-43.63-5.07 4.84v7.2l25.57 49.53-1.1-9.62Z"/>
    <path id="m" d="m427.97 205.05 5.39-10.85-7.13-4.2-5.46 4.99 1.27 7.68 5.93 2.38Z"/>
  </defs>
  <use xlink:href="#a" fill="#9b7647"/>
  <use xlink:href="#b" fill="#fffe65"/>
  <use xlink:href="#c" fill="#65ffbc"/>
  <use xlink:href="#d" fill="#42ba86"/>
  <use xlink:href="#e" fill="#6594ff"/>
  <use xlink:href="#f" fill="#65e0ff"/>
  <use xlink:href="#g" fill="#f37f99"/>
  <use xlink:href="#h" fill="#65ff91"/>
  <use xlink:href="#i" fill="#ffeb65"/>
  <use xlink:href="#j" fill="#f2d7a8"/>
  <use xlink:href="#k" fill="#efc287"/>
  <use xlink:href="#l" fill="#efc287"/>
  <use xlink:href="#m" fill="#c0805a"/>
</svg>
