<svg xmlns="http://www.w3.org/2000/svg" xmlns:xlink="http://www.w3.org/1999/xlink" width="262.26" height="262" viewBox="72.778 621.103 262.262 262">
  <defs>
    <path id="a" d="M73.04 621.1h262v262h-262v-262Z"/>
    <path id="b" d="m72.78 851.91 131.26-.72v31.51l-131 .4-.26-31.19Z"/>
    <path id="c" d="M73.04 821.8h118.05v29.39l-118.05.95V821.8Z"/>
    <path id="d" d="M88.05 821.8h17.76l14.89 30.11-17.62-.2-15.03-29.91Z"/>
    <path id="e" d="M73.04 804.47h118.05v17.33H73.04v-17.33Z"/>
    <path id="f" d="M204.04 621.1h54.36v261.61h-54.36V621.1Z"/>
    <path id="g" d="M258.4 704.87h38.79l.66 177.84H258.4V704.87Z"/>
    <path id="h" d="M297.19 660.83h37.85v221.88l-37.19-.24-.66-221.64Z"/>
    <path id="i" d="m258.4 849.52 39.26-.18.19 17.44-39.32.62-.13-17.88Z"/>
    <path id="j" d="m80.97 802.71 6.35-6.76 4.01 5.93 4.69-5.38 3.87 5.38 4.49-7.45 11.4 7.45 3.31-13.12 7.87 4.84 1.25-8.01 5.66-.42v-5.25l9.25 2.21-6.07-11.18 2.48-14.78-12.57 7.59-7.46 1.52-11.74-4.97-2.07 12.15-9.67-7.18-5.24 12.57-4.15 1.66-13.26 1.38 7.6 9.67v12.15Z"/>
    <path id="k" d="m180.97 759.73-8.15-13.53-6.49 7.18-8.84-9.53-14.37 11.19-1.1-15.06-25.14 10.36-.97-22.38-12.7 5.81 1.65-17.41H92.02l1.66-10.91-16.58 1.38 14.23-14.91v-18.65h4.69l14.92 14.64 15.33 2.62 17.82-7.45-.55 15.19 9.67 5.52 10.08-10.22 3.04 16.67 7.46 8.29 29.99 8.84-15.91 15.19-6.9 17.17Z"/>
  </defs>
  <use xlink:href="#a" fill="#9b7647"/>
  <use xlink:href="#b" fill="#fffe65"/>
  <use xlink:href="#c" fill="#65ffbc"/>
  <use xlink:href="#d" fill="#42ba86"/>
  <use xlink:href="#e" fill="#6594ff"/>
  <use xlink:href="#f" fill="#65e0ff"/>
  <use xlink:href="#g" fill="#f37f99"/>
  <use xlink:href="#h" fill="#65ff91"/>
  <use xlink:href="#i" fill="#ffeb65"/>
  <use xlink:href="#j" fill="#000000"/>
  <use xlink:href="#k" fill="#000000"/>
</svg>
