<svg xmlns="http://www.w3.org/2000/svg" xmlns:xlink="http://www.w3.org/1999/xlink" width="262" height="262" viewBox="332.115 141.058 262 262">
  <defs>
    <path id="a" d="M332.12 141.06h262v262h-262v-262Z"/>
    <path id="b" d="m353.27 249.9-14.52 61.6 25.3 53.16 58.55 37.47h83.6l75.88-37.47 9.13-67.68-20.94-44.81-42.15-32.96H392.65l-39.38 30.69Z"/>
    <path id="c" d="m461.59 219.21-29.27 83.48 27.56 99.04-37.65.4-30.7-19.91 4.6-110.16 50.35-52.85h15.11Z"/>
    <path id="d" d="m492.02 219.21 47.93 46.6-13.19 125.97-20.7 10.35H476.6l22.51-123.67-32.06-59.25h24.97Z"/>
    <path id="e" d="m480.39 157.45-11.87-12-20.19-2.32-21.77 15.96-4.97 25.37 13.64 25.52-3.14-30.7 12.42-22.1 22.24 5.18 5.45 25.11-32.06 31.74h52.53l-12.28-61.76Z"/>
    <path id="f" d="m505.45 198.79 32.74-20.33 24.15 21.97h18.01l4.91-10.1-3.96-13.1-31.1-5.32 32.88-1.5 9.55 18.01-7.37 14.6-20.6 7.37-24.44-21.97-27.4 14.05-11.19 16.74h-6.96l10.78-20.42Z"/>
  </defs>
  <use xlink:href="#a" fill="#9b7647"/>
  <use xlink:href="#b" fill="#ff9a66"/>
  <use xlink:href="#c" fill="#ff7f50"/>
  <use xlink:href="#d" fill="#ff7f50"/>
  <use xlink:href="#e" fill="#43a751"/>
  <use xlink:href="#f" fill="#43a751"/>
</svg>
