<svg xmlns="http://www.w3.org/2000/svg" xmlns:xlink="http://www.w3.org/1999/xlink" width="262" height="262" viewBox="342.917 130.911 262 262">
  <defs>
    <path id="a" d="M342.92 130.91h262v262h-262v-262Z"/>
    <path id="b" d="M343.2 146.49h42.29l-.66 245.97H343.2V146.49Z"/>
    <path id="c" d="M385.49 146.49h37.5l-.16 246.22-38.22-.33.88-245.89Z"/>
    <path id="d" d="M384.83 254.99h37.66v37.84l-37.66.37v-38.21Z"/>
    <path id="e" d="M422.49 335.27h182.43v31.58H422.74l-.25-31.58Z"/>
    <path id="f" d="m422.49 366.87 169.15-.34.25 25.93-169.12.25-.28-25.84Z"/>
    <path id="g" d="M463.29 195.68v72.35l16.27 44.91-3.53 14.9-9.21 7.43h-28.63l-10-6.65-5.2-17.06 17.55-42.55V194.9l22.75.78Z"/>
    <path id="h" d="M463.29 242.54v-26.47l-22.79 24.9v27.06l22.79-25.49Z"/>
    <path id="i" d="M500.03 214.94h21.38l.98 38.62 19.41 11.52v23.38l-21.96 46.81h-13.53l-26.75-46.81v-22.94l21.46-11.96-.99-38.62Z"/>
    <path id="j" d="m495.72 278.86 15.88-25.1 19.61 24.7-16.47 56.81h-3.14l-15.88-56.41Z"/>
    <path id="k" d="m589.13 152.53 6.47-20.73h-39.41l7.49 20.47 25.45.26Z"/>
    <path id="l" d="M554.03 335.27h42.55l-.98-182.69-39.8-.59-1.77 183.28Z"/>
    <path id="m" d="M554.47 289.21h42.11l-.98-96.27h-40.35l-.78 96.27Z"/>
  </defs>
  <use xlink:href="#a" fill="#9b7647"/>
  <use xlink:href="#b" fill="#ff7f50"/>
  <use xlink:href="#c" fill="#c850ff"/>
  <use xlink:href="#d" fill="#5250ff"/>
  <use xlink:href="#e" fill="#daa6ef"/>
  <use xlink:href="#f" fill="#ff9e50"/>
  <use xlink:href="#g" fill="#66cea1"/>
  <use xlink:href="#h" fill="#f3e94f"/>
  <use xlink:href="#i" fill="#be8cff"/>
  <use xlink:href="#j" fill="#4fc7f3"/>
  <use xlink:href="#k" fill="#debf83"/>
  <use xlink:href="#l" fill="#b2ceb8"/>
  <use xlink:href="#m" fill="#f9f7d6"/>
</svg>
