<svg xmlns="http://www.w3.org/2000/svg" xmlns:xlink="http://www.w3.org/1999/xlink" width="131" height="131" viewBox="251.193 254.5 131 131">
  <defs>
    <path id="a" d="M251.19 254.5h131v131h-131v-131Z"/>
    <path id="b" d="m337.29 350.2-6.28 32.02h-26.34l-7.85-32.18 40.47.16Z"/>
    <path id="c" d="m334.3 340.1 7.49-8.65.63-15.12-14.88-7.5.88-2.77 18.53-16.11-2.16-11-7.87-2.37-6.75 14.85 1.25-12.48-8.13-16.75-10.62-.37-6 7.87-2.38 27.11.5 17.37-5.62-8.12-2.13-7.75-3-.63-.75-6.25-11.5-6.12-3.87 2.62v23.66l6.75 1.5 13.93 27.46 35.7-.45Z"/>
    <path id="d" d="m342.42 339.59-.38 11-49.62.38-1.25-10.88 51.25-.5Z"/>
    <path id="e" d="m277.92 311.62 4.63 1.03-.59-5.05h-4.04v4.02Z"/>
    <path id="f" d="m277.92 287.79 3.9-2.48 1.9 1.24-5.8 3.66v-2.42Z"/>
    <path id="g" d="m297.04 298.17 1.3 4.24-3.59.3-.73-4.97 3.02.43Z"/>
    <path id="h" d="m305.5 318.86-5.19-2.7 3.8-2.2 1.39 4.9Z"/>
    <path id="i" d="m296.51 336.33 2.41-5.7-5.26.22 2.85 5.48Z"/>
    <path id="j" d="m317.22 339.87-2.49-3.94-3.8 3.94h6.29Z"/>
    <path id="k" d="m341.79 331.71.15-3.22-2.19-2.12-.5 8.04 2.54-2.7Z"/>
    <path id="l" d="m324.83 321.91 2.2 1.61 1.75-4.17-2.92-2.05-4.83 4.03 3.8.58Z"/>
    <path id="m" d="m318.18 305.28-3.65-3.44-2.3 2.85 5.95.59Z"/>
    <path id="n" d="m324.32 284.81 3.66 4.39-4.53 1.82-3.29 2.64v-8.85h4.16Z"/>
    <path id="o" d="m329.37 305.43 4.53-4.02-4.53-2.63v6.65Z"/>
    <path id="p" d="m306.56 269.83 6.14-8 2.12.18-8.26 12.5v-4.68Z"/>
    <path id="q" d="m344.94 278.9.58 5.19-4.97-4.39 2.71-1.24 1.68.44Z"/>
  </defs>
  <use xlink:href="#a" fill="#9b7647"/>
  <use xlink:href="#b" fill="#d25106"/>
  <use xlink:href="#c" fill="#bac869"/>
  <use xlink:href="#d" fill="#d27a47"/>
  <use xlink:href="#e" fill="#e2245e"/>
  <use xlink:href="#f" fill="#e2245e"/>
  <use xlink:href="#g" fill="#e2245e"/>
  <use xlink:href="#h" fill="#e2245e"/>
  <use xlink:href="#i" fill="#e2245e"/>
  <use xlink:href="#j" fill="#e2245e"/>
  <use xlink:href="#k" fill="#e2245e"/>
  <use xlink:href="#l" fill="#e2245e"/>
  <use xlink:href="#m" fill="#e2245e"/>
  <use xlink:href="#n" fill="#e2245e"/>
  <use xlink:href="#o" fill="#e2245e"/>
  <use xlink:href="#p" fill="#e2245e"/>
  <use xlink:href="#q" fill="#e2245e"/>
</svg>
