<svg xmlns="http://www.w3.org/2000/svg" xmlns:xlink="http://www.w3.org/1999/xlink" width="131" height="131" viewBox="237.524 186.131 131 131">
  <defs>
    <path id="a" d="M237.52 186.13h131v131h-131v-131Z"/>
    <path id="b" d="m350.97 253.25-1.15 16.76h-8.16l-19.21 46.88h-42.18l-17.6-49.72h-2.83l.47-15.54 90.66 1.62Z"/>
    <path id="c" d="m283.34 225.19 11.02-13.69h20.78l9.58 18.58-1.53 8.05h-1.53v1.53l9.19 13.01-.48 2.11-3.73 4.79-11.02.29.29-7.19-23.75.39-1.34 7.28-9.58.57-2.49-3.64 1.24-5.36 5.56-10.54-2.21-16.18Z"/>
    <path id="d" d="m255.06 216.16 18.68 4.12 6.41-2.2-6.41-7.86-18.39-.38-4.89 3.54 4.6 2.78Z"/>
    <path id="e" d="m249.98 213.38-2.68 1.73 7.47 12.26 11.88 1.05 15.42-8.14-1.82-2.2-30.27-4.7Z"/>
    <path id="f" d="m270.48 190.97 21.74 10.63-9.38 1.25-13.32-4.89-2.58-6.99h3.54Z"/>
    <path id="g" d="m367.12 221.25.96 2.49-11.88 14.18-5.23.38-12.2-3.26-9.58-10.34 37.93-3.45Z"/>
    <path id="h" d="m308.06 210.42.28-10.44-2.94-4.59-19.28-7.38-15.61 2.96 37.55 19.45Z"/>
    <path id="i" d="m360.18 210.96-13.12-2.2-17.34 9.96-1.53-1.53-7.47 4.69 8.47 3.07 37.99-3.7-7-10.29Z"/>
  </defs>
  <use xlink:href="#a" fill="#9b7647"/>
  <use xlink:href="#b" fill="#94433f"/>
  <use xlink:href="#c" fill="#dead4f"/>
  <use xlink:href="#d" fill="#53aa6a"/>
  <use xlink:href="#e" fill="#93cd56"/>
  <use xlink:href="#f" fill="#93cd56"/>
  <use xlink:href="#g" fill="#93cd56"/>
  <use xlink:href="#h" fill="#53aa6a"/>
  <use xlink:href="#i" fill="#53aa6a"/>
</svg>
