<svg xmlns="http://www.w3.org/2000/svg" xmlns:xlink="http://www.w3.org/1999/xlink" width="131" height="131" viewBox="284.707 80.41 131 131">
  <defs>
    <path id="a" d="M284.71 80.41h131v131h-131v-131Z"/>
    <path id="b" d="m353.62 102.33 36.18 14.81-8 78.83-58.92-.68-7.54-76.33-9.59 23.28 7.81 27.66-21.99 41.51h-2.39l22.52-43.13-7.87-25.47 11.19-26.29 38.6-14.19Z"/>
    <path id="c" d="m350.9 101.86-51.52 18.17-.31-1.08-3.47-.23.31 5.94 4.32-1.93-.46-1 54.55-18.31 54.09 22.69-.31 2.01 4.01 1.38-.23-5.47-2.31-.93-.62.93-52.39-21.43 31.94-10.73h-8.33l-27.24 9.42-22.15-8.65 20.12 9.22Z"/>
    <path id="d" d="m343.97 138.46.39 14.5h15.43v-14.81h1.7l.23 33.87h-1.93v-16.05h-15.82v16.05h-1.93l-.31-33.56h2.24Z"/>
  </defs>
  <use xlink:href="#a" fill="#9b7647"/>
  <use xlink:href="#b" fill="#2b467e"/>
  <use xlink:href="#c" fill="#755245"/>
  <use xlink:href="#d" fill="#eddc31"/>
</svg>
