<svg xmlns="http://www.w3.org/2000/svg" xmlns:xlink="http://www.w3.org/1999/xlink" width="262" height="262" viewBox="164.125 98.319 262 262">
  <defs>
    <path id="a" d="M164.13 98.32h262v262h-262v-262Z"/>
    <path id="b" d="m380.64 140.57 18.29-18.63 15.16 9.09 7.63 19.31-4.02 13.15-30.85-3.83-6.21-19.09Z"/>
    <path id="c" d="m283.88 120.11-17.17 25.37.56 3.14-3.13 46.79 9.5 45.77-.9 26.94-7.3 19.86-44.67 17.4 114.67 32.49 26.09-5.43 21.32-16.05 12.35-28.06-.87-51.71-1.79.34v-2.81l-14.14-10.77h12.9l-5.83-63.5h1.57l1.01-13.36 10.96-24.58-115.13-1.83Z"/>
    <path id="d" d="m249.06 217.96-.79-2.36-34.03-23.02-24.58-31.98-19.3-38.95 56.31 32.57 13.63 24.85-3.81-16.61 41.86 48.93 4.94 29.75h-10.1l-24.13-23.18Z"/>
    <path id="e" d="m281.12 241.48-20.65-35.05-16.77-13.36-6.39-4.61-18.07-13.69-45.68-46.69-3.2-6.43 4.88 3.29 55.51 55.91 12.24 7.97 21.52 17.61 18.78 34.71 41.08 58.26-18.41-17.96-29.63-39.96h4.79Z"/>
  </defs>
  <use xlink:href="#a" fill="#9b7647"/>
  <use xlink:href="#b" fill="#9d874a"/>
  <use xlink:href="#c" fill="#d7c27e"/>
  <use xlink:href="#d" fill="#13d22e"/>
  <use xlink:href="#e" fill="#262626"/>
</svg>
