<svg xmlns="http://www.w3.org/2000/svg" xmlns:xlink="http://www.w3.org/1999/xlink" width="131" height="131" viewBox="454.681 240.44 135 135">
  <defs>
    <path id="a" d="M455.68 241.44h131v131h-131v-131Z"/>
    <path id="b" d="m586.68 241.44-.01 87.47-65.28 43.43-65.68-43.68v-87.22h130.97Z"/>
    <path id="c" d="m549.56 287.9-6.23 6.22.99 8.86 6.39 2.29 12.95-.49-1.97 12.13-15.52 2.26-13.82-7.83-.16 1.64 29.83 19.34-.16 6.56-20.49-10-3.61 12.95-7.05-11.15-9.18 11.31-13.61-10.32-18.52 9.67-5.41-16.72-6.39 5.57 3.44-25.41-9.84 3.44 7.22-20.49h-5.25l10.16-11.8-5.9.33 11.97-13.61-9.18.98 24.42-15.24 10.82 2.95-2.62-6.56 21.31 5.41 15.9 14.1 21.81 13.44-.33 5.41-6.39 9.18-15.58-4.42Z"/>
    <path id="d" d="m565.51 274.03 6.26 8.89.13-5.26-6.39-3.63Z"/>
    <path id="e" d="m533.55 267.63-.37 6.27 12.15 1.75.88-2.38-12.66-5.64Z"/>
    <path id="f" d="m560.5 298.09 4.76-5.89-4.26-1.01-.5 6.9Z"/>
    <path id="g" d="m560.75 300.47 3 4.01-3.76.12.76-4.13Z"/>
  </defs>
  <use xlink:href="#a" fill="#795548"/>
  <use xlink:href="#b" fill-opacity="0" stroke="#000000"/>
  <use xlink:href="#b" fill="#bc1031"/>
  <use xlink:href="#c" fill="#da9d0f"/>
  <use xlink:href="#d" fill="#000000"/>
  <use xlink:href="#e" fill="#000000"/>
  <use xlink:href="#f" fill="#ffffff"/>
  <use xlink:href="#g" fill="#ffffff"/>
  <use xlink:href="#a" fill="#795548"/>
  <use xlink:href="#b" fill-opacity="0" stroke="#000000"/>
  <use xlink:href="#b" fill="#bc1031"/>
  <use xlink:href="#c" fill="#da9d0f"/>
  <use xlink:href="#d" fill="#000000"/>
  <use xlink:href="#e" fill="#000000"/>
  <use xlink:href="#f" fill="#ffffff"/>
  <use xlink:href="#g" fill="#ffffff"/>
  <use xlink:href="#b" fill-opacity="0" stroke="#000000"/>
  <use xlink:href="#b" fill="#bc1031"/>
  <use xlink:href="#c" fill="#da9d0f"/>
  <use xlink:href="#d" fill="#000000"/>
  <use xlink:href="#e" fill="#000000"/>
  <use xlink:href="#f" fill="#ffffff"/>
  <use xlink:href="#g" fill="#ffffff"/>
</svg>
