<svg xmlns="http://www.w3.org/2000/svg" xmlns:xlink="http://www.w3.org/1999/xlink" width="131" height="131" viewBox="454.681 63.449 135 135">
  <defs>
    <path id="a" d="M455.68 64.45h131v131h-131v-131Z"/>
    <path id="b" d="m586.21 64.45.47 86.72-65.41 44.25-65.57-43.75V64.45h130.51Z"/>
    <path id="c" d="m487.63 142.5 4.05 3.95-2.67-7.8-1.38 3.85Z"/>
    <path id="d" d="m495.63 161.75.39 5.52 4.05-4.24 11.75 5.43.49-3.65-2.17-4.25-14.51 1.19Z"/>
    <path id="e" d="m495.94 134.55 9.97.37-12.43-29.74 21.42-37.32-1.88 20.72 13.13-18.16-5.13 27.44 19.15-11.45-19.74 20.17 28.72-7.11-29.51 15.87 21.02-1.09-13.13 4.05.1 1.28 18.26.79-18.16 3.66.1 1.77 14.41 4.74-5.92 3.65 6.12 1.19-10.76 12.24 44.62 6.12-29.64 17.58-22.11-17.18-6.71 7.31-3.75-6.12-1.68 9.58-2.47-4.35-3.75-12.44-7.3-6.22-8.2 1.78-1.68-5.43 6.93-3.7Z"/>
  </defs>
  <use xlink:href="#a" fill="#795548"/>
  <use xlink:href="#b" fill-opacity="0" stroke="#000000"/>
  <use xlink:href="#b" fill="#6c67cb"/>
  <use xlink:href="#c" fill="#ffb82d"/>
  <use xlink:href="#d" fill="#ffb82d"/>
  <use xlink:href="#e" fill="#ae7c45"/>
  <use xlink:href="#a" fill="#795548"/>
  <use xlink:href="#b" fill-opacity="0" stroke="#000000"/>
  <use xlink:href="#b" fill="#6c67cb"/>
  <use xlink:href="#c" fill="#ffb82d"/>
  <use xlink:href="#d" fill="#ffb82d"/>
  <use xlink:href="#e" fill="#ae7c45"/>
</svg>
