<svg xmlns="http://www.w3.org/2000/svg" xmlns:xlink="http://www.w3.org/1999/xlink" width="196.5" height="196.5" viewBox="230.111 12.413 196.5 196.5">
  <defs>
    <path id="a" d="M230.11 12.41h196.5v196.5h-196.5V12.41Z"/>
    <path id="b" d="M262.86 12.41h131v131h-131v-131Z"/>
    <path id="c" d="M393.72 12.41v86.72l-64.94 44.2-65.92-43.7V12.41h130.86Z"/>
    <path id="d" d="m367.49 50.45 1.25-7.02-3.75.31 2.5 6.71Z"/>
    <path id="e" d="M375.91 52.32v-9.67l-3.43.31 3.43 9.36Z"/>
    <path id="f" d="m349.79 51.24-1.19-6.34 10.16-.48 8.14 9.81-17.11-2.99Z"/>
    <path id="g" d="m335.68 30.73-10.41-4.07-20.93 2.03-14.6 10.41-.83 11.84 6.1 9.69 46.17 17.94 12.92 14.36-8.26 13.39-22.84 4.55-29.79-8.61-10.64-18.3-1.08 16.02 9.09 10.17 32.78 10.17 26.55-8.49 16.15-23.09-17.46-18.9-46.3-19.38.48-9.33 18.06-5.62 18.42 7.18 2.52 8.97L365.82 58l.48-3.95-16.51-2.99-.96-6.1 31.34-2.87-44.49-11.36Z"/>
    <path id="h" d="m351.61 38.66 6.44 4.3 4.81-2.56-11.25-1.74Z"/>
  </defs>
  <use xlink:href="#a" fill="#795548"/>
  <use xlink:href="#b" fill="#795548"/>
  <use xlink:href="#c" fill-opacity="0" stroke="#000000"/>
  <use xlink:href="#c" fill="#469f35"/>
  <use xlink:href="#d" fill="#ffffff"/>
  <use xlink:href="#e" fill="#ffffff"/>
  <use xlink:href="#f" fill="#e72651"/>
  <use xlink:href="#g" fill="#d7d7d7"/>
  <use xlink:href="#h" fill="#000000"/>
</svg>
