<svg xmlns="http://www.w3.org/2000/svg" xmlns:xlink="http://www.w3.org/1999/xlink" width="196.5" height="196.5" viewBox="14.923 221.75 196.5 196.5">
  <defs>
    <path id="a" d="M14.92 221.75h196.5v196.5H14.92v-196.5Z"/>
    <path id="b" d="m178.67 221.75-.02 87.72-65.06 43.21-65.92-43.71v-87.22h131Z"/>
    <path id="c" d="m78.94 236.52 25.64-8.37 19.03 8.23 18.54 3.73-1.97 3.35-7.68 1.18 7.48 2.75-18.31 2.17-9.05 4.33 20.98 11.95 25.67 22.69-1.97 21.66 8.07-1.97-1.57 6.69-3.35.99-9.84-3.74-10.83 11.61-23.42 7.28 3.94-10.82 6.29-1.38 3.55-7.09-3.35-4.33-33.86 10.24-4.72-7.48 15.35-8.66 6.11-10.63-15.95-5.71-31.69 16.14-6.1-9.05 29.13-17.13-30.12-42.72 3.74-1.57 26.18 24.01-5.92-18.35Z"/>
    <path id="d" d="m142.77 239.89-2.42 3.51-2.51-3.8 4.93.29Z"/>
    <path id="e" d="m101.34 233.14-9.71 8.64 31.31-4.86-21.6-3.78Z"/>
  </defs>
  <use xlink:href="#a" fill="#795548"/>
  <use xlink:href="#b" fill-opacity="0" stroke="#000000"/>
  <use xlink:href="#b" fill="#f8cf11"/>
  <use xlink:href="#c" fill="#95978a"/>
  <use xlink:href="#d" fill="#090909"/>
  <use xlink:href="#e" fill="#242424"/>
</svg>
