<svg xmlns="http://www.w3.org/2000/svg" xmlns:xlink="http://www.w3.org/1999/xlink" width="196.5" height="196.5" viewBox="202.208 438.771 196.5 196.5">
  <defs>
    <path id="a" d="M202.21 438.77h196.5v196.5h-196.5v-196.5Z"/>
    <path id="b" d="M234.96 438.77h131v131h-131v-131Z"/>
    <path id="c" d="M365.96 438.77v86.2l-7.68 5.01-60.9 29.46-58.43-28.08-3.99-3.19v-89.4h131Z"/>
    <path id="d" d="m298.21 500.48-46.39-1.41 10.46-27.02-10.75 7.5-6.76-17.87 22.46-22.58 17.97 7.92 13.43 8.37-.42 45.09Z"/>
    <path id="e" d="m298.17 500.44 47.1-.71-10.46-27.02 10.75 7.5 6.63-18.37-22.33-22.08-17.97 7.92-13.29 7.8-.43 44.96Z"/>
    <path id="f" d="M298.49 500.51v69.17l-12.58-11.77-46.96-27.02 12.73-31.57 46.81 1.19Z"/>
    <path id="g" d="M298.73 500.61v69.16L311.32 558l46.96-27.01-12.11-31.28-47.44.9Z"/>
    <path id="h" d="m285.15 462.6.13 32.44 26.49-.25.38-31.81h13.06l-6.21 6.59.25 59.31 9.63 8.87-17.36.26-.13-33.46h-25.73l-.12 32.82-16.86.26 9.5-8.87-.12-58.81-6.72-7.23 13.81-.12Z"/>
  </defs>
  <use xlink:href="#a" fill="#795548"/>
  <use xlink:href="#b" fill="#795548"/>
  <use xlink:href="#c" fill="#9e9e9e"/>
  <use xlink:href="#d" fill-opacity="0" stroke="#000000"/>
  <use xlink:href="#d" fill="#bf1031"/>
  <use xlink:href="#e" fill="#11a365"/>
  <use xlink:href="#f" fill="#f7ce11"/>
  <use xlink:href="#g" fill="#3d4b7a"/>
  <use xlink:href="#h" fill="#dd981d"/>
</svg>
