<svg xmlns="http://www.w3.org/2000/svg" xmlns:xlink="http://www.w3.org/1999/xlink" width="131" height="131" viewBox="232.615 241.44 131 131">
  <defs>
    <path id="a" d="M232.62 241.44h131v131h-131v-131Z"/>
    <path id="b" d="m363.62 241.44-.03 87.72-65.06 43.21-65.91-43.71v-87.22h131Z"/>
    <path id="c" d="m263.88 256.21 25.65-8.37 19.02 8.23 18.54 3.73-1.97 3.35-7.68 1.18 7.48 2.75-18.3 2.17-9.06 4.33 20.98 11.95 25.67 22.7-1.96 21.65 8.07-1.97-1.58 6.69-3.34.99-9.85-3.74-10.82 11.61-23.43 7.28 3.94-10.82 6.3-1.38 3.54-7.09-3.35-4.33-33.85 10.24-4.73-7.48 15.36-8.66 6.1-10.63-15.95-5.71-31.69 16.14-6.1-9.05L270 294.84l-30.12-42.72 3.74-1.57 26.18 24.01-5.92-18.35Z"/>
    <path id="d" d="m327.72 259.58-2.43 3.51-2.5-3.8 4.93.29Z"/>
    <path id="e" d="m286.29 252.84-9.72 8.63 31.31-4.86-21.59-3.77Z"/>
  </defs>
  <use xlink:href="#a" fill="#795548"/>
  <use xlink:href="#b" fill-opacity="0" stroke="#000000"/>
  <use xlink:href="#b" fill="#f8cf11"/>
  <use xlink:href="#c" fill="#95978a"/>
  <use xlink:href="#d" fill="#090909"/>
  <use xlink:href="#e" fill="#242424"/>
</svg>
