<svg xmlns="http://www.w3.org/2000/svg" xmlns:xlink="http://www.w3.org/1999/xlink" width="131" height="131" viewBox="60.944 57.428 131 131">
  <defs>
    <path id="a" d="M60.94 57.43h131v131h-131v-131Z"/>
    <path id="b" d="m124.2 119.14-46.4-1.42 10.47-27.01-10.75 7.5-6.76-17.87 22.46-22.59 17.96 7.92 13.44 8.38-.42 45.09Z"/>
    <path id="c" d="m124.16 119.09 47.1-.7-10.47-27.02 10.75 7.5 6.64-18.38-22.34-22.08-17.96 7.92-13.3 7.81-.42 44.95Z"/>
    <path id="d" d="M124.48 119.17v69.16l-12.59-11.77-46.96-27.01 12.73-31.57 46.82 1.19Z"/>
    <path id="e" d="M124.72 119.26v69.17l12.58-11.77 46.96-27.02-12.11-31.27-47.43.89Z"/>
    <path id="f" d="m111.14 81.25.13 32.45 26.49-.25.38-31.82h13.05l-6.21 6.59.25 59.32 9.64 8.87-17.37.26-.12-33.46h-25.73l-.13 32.82-16.86.26 9.51-8.88-.13-58.8-6.71-7.23 13.81-.13Z"/>
  </defs>
  <use xlink:href="#a" fill="#795548"/>
  <use xlink:href="#b" fill-opacity="0" stroke="#000000"/>
  <use xlink:href="#b" fill="#bf1031"/>
  <use xlink:href="#c" fill="#11a365"/>
  <use xlink:href="#d" fill="#f7ce11"/>
  <use xlink:href="#e" fill="#3d4b7a"/>
  <use xlink:href="#f" fill="#dd981d"/>
</svg>
