<svg xmlns="http://www.w3.org/2000/svg" xmlns:xlink="http://www.w3.org/1999/xlink" width="196.5" height="196.5" viewBox="230.111 219.356 196.5 196.5">
  <defs>
    <path id="a" d="M230.11 219.36h196.5v196.5h-196.5v-196.5Z"/>
    <path id="b" d="M262.86 219.36h131v131h-131v-131Z"/>
    <path id="c" d="m393.39 219.36.47 86.71-65.41 44.25-65.57-43.75v-87.21h130.51Z"/>
    <path id="d" d="m294.81 297.4 4.05 3.95-2.67-7.8-1.38 3.85Z"/>
    <path id="e" d="m302.81 316.65.39 5.53 4.05-4.24 11.75 5.43.49-3.66-2.17-4.24-14.51 1.18Z"/>
    <path id="f" d="m303.12 289.46 9.97.37-12.43-29.75 21.42-37.31-1.88 20.72 13.13-18.16-5.13 27.44 19.15-11.45-19.74 20.16 28.72-7.1-29.51 15.87 21.02-1.09-13.13 4.05.1 1.28 18.26.79-18.16 3.65.1 1.78 14.41 4.74-5.92 3.65 6.12 1.19-10.76 12.24 44.62 6.12-29.64 17.58-22.11-17.18-6.71 7.31-3.75-6.12-1.68 9.57-2.47-4.34-3.75-12.44-7.3-6.22-8.2 1.78-1.68-5.43 6.93-3.7Z"/>
  </defs>
  <use xlink:href="#a" fill="#795548"/>
  <use xlink:href="#b" fill="#795548"/>
  <use xlink:href="#c" fill-opacity="0" stroke="#000000"/>
  <use xlink:href="#c" fill="#6c67cb"/>
  <use xlink:href="#d" fill="#ffb82d"/>
  <use xlink:href="#e" fill="#ffb82d"/>
  <use xlink:href="#f" fill="#ae7c45"/>
</svg>
