<svg xmlns="http://www.w3.org/2000/svg" xmlns:xlink="http://www.w3.org/1999/xlink" width="196.5" height="196.5" viewBox="30.667 382.333 196.5 196.5">
  <defs>
    <path id="a" d="M30.67 382.33h196.5v196.5H30.67v-196.5Z"/>
    <path id="b" d="M64.18 382.33h131v131h-131v-131Z"/>
    <path id="c" d="m195.18 382.33-.01 87.48-65.27 43.43-65.69-43.69v-87.22h130.97Z"/>
    <path id="d" d="m158.07 428.79-6.23 6.23.98 8.85 6.39 2.3 12.95-.5-1.96 12.13-15.53 2.26-13.82-7.83-.16 1.64 29.83 19.34-.16 6.56-20.49-10-3.61 12.95-7.05-11.14-9.18 11.31-13.6-10.33-18.53 9.67-5.41-16.72-6.39 5.57 3.44-25.41-9.84 3.45 7.22-20.5h-5.25l10.17-11.8-5.91.33 11.97-13.61-9.18.99 24.43-15.25 10.82 2.95-2.63-6.56 21.32 5.41 15.9 14.1 21.8 13.44-.33 5.41-6.39 9.18-15.57-4.42Z"/>
    <path id="e" d="m174.01 414.92 6.27 8.9.12-5.27-6.39-3.63Z"/>
    <path id="f" d="m142.06 408.53-.38 6.26 12.15 1.76.88-2.38-12.65-5.64Z"/>
    <path id="g" d="m169 438.98 4.76-5.89-4.26-1-.5 6.89Z"/>
    <path id="h" d="m169.25 441.36 3.01 4.01-3.76.12.75-4.13Z"/>
  </defs>
  <use xlink:href="#a" fill="#795548"/>
  <use xlink:href="#b" fill="#795548"/>
  <use xlink:href="#c" fill-opacity="0" stroke="#000000"/>
  <use xlink:href="#c" fill="#bc1031"/>
  <use xlink:href="#d" fill="#da9d0f"/>
  <use xlink:href="#e" fill="#000000"/>
  <use xlink:href="#f" fill="#000000"/>
  <use xlink:href="#g" fill="#ffffff"/>
  <use xlink:href="#h" fill="#ffffff"/>
</svg>
