<svg id="Capa_1" enable-background="new 0 0 512 512" height="512" viewBox="0 0 512 512" width="512" xmlns="http://www.w3.org/2000/svg"><g><g clip-rule="evenodd" fill-rule="evenodd"><path d="m35.943 481.059h101.596l320.232-335.966v-45.979c0-14.258-11.678-25.937-25.908-25.937h-261.045c-32.259 0-23.358-42.237-55.617-42.237h-89.292c-14.23.001-25.909 11.68-25.909 25.91v388.266c0 19.786 16.187 35.943 35.943 35.943z" fill="#ffd064"/><path d="m457.772 145.093v-45.979c0-14.258-11.678-25.937-25.908-25.937h-25.002c14.23 0 25.909 11.679 25.909 25.937v45.979zm-286.954-71.915c-32.259 0-23.358-42.237-55.617-42.237h-25.002c32.259 0 23.357 42.237 55.617 42.237z" fill="#ffc250"/><path d="m35.943 481.059h84.162l304.189-335.966v-18.283c0-9.723-7.965-17.66-17.66-17.66h-353.03c-9.694 0-17.661 7.937-17.661 17.66z" fill="#f5858e"/><path d="m97.825 481.059h388.266c14.259 0 25.909-11.65 25.909-25.909v-284.148c0-14.258-11.65-25.909-25.909-25.909h-388.266c-14.259 0-25.909 11.679-25.909 25.909v274.113c0 19.787-16.186 35.944-35.973 35.944z" fill="#ffe17d"/><path d="m461.089 481.059h25.002c14.259 0 25.909-11.65 25.909-25.909v-284.148c0-14.258-11.65-25.909-25.909-25.909h-25.002c14.259 0 25.909 11.651 25.909 25.909v284.148c0 14.259-11.65 25.909-25.909 25.909z" fill="#ffd164"/><path d="m291.943 440.353c70.13 0 127.306-57.175 127.306-127.277 0-70.101-57.176-127.277-127.306-127.277-70.101 0-127.276 57.176-127.276 127.277 0 70.102 57.176 127.277 127.276 127.277z" fill="#fff"/><path d="m291.943 185.799c70.3 0 127.306 56.978 127.306 127.277 0 70.301-57.006 127.277-127.306 127.277-4.195 0-8.362-.199-12.501-.595 64.433-6.293 114.806-60.605 114.806-126.682 0-66.076-50.373-120.388-114.806-126.681 4.139-.398 8.306-.596 12.501-.596z" fill="#eceaec"/><path d="m399.293 145.093h25.002v-18.283c0-9.723-7.965-17.66-17.66-17.66h-25.002c9.695 0 17.66 7.937 17.66 17.66z" fill="#dd636e"/></g><path d="m139.41 233.422c0 4.139-3.373 7.512-7.512 7.512s-7.484-3.373-7.484-7.512v-43.343c0-4.139 3.346-7.483 7.484-7.483h43.342c4.139 0 7.512 3.345 7.512 7.483 0 4.139-3.373 7.512-7.512 7.512h-35.83zm-14.996 159.308c0-4.139 3.346-7.512 7.484-7.512 4.139 0 7.512 3.373 7.512 7.512v35.831h35.83c4.139 0 7.512 3.373 7.512 7.512s-3.373 7.512-7.512 7.512h-43.342c-4.139 0-7.484-3.373-7.484-7.512zm320.092 0c0-4.139 3.373-7.512 7.512-7.512s7.483 3.373 7.483 7.512v43.342c0 4.139-3.345 7.512-7.483 7.512h-43.342c-4.139 0-7.512-3.373-7.512-7.512s3.373-7.512 7.512-7.512h35.83zm14.995-159.308c0 4.139-3.345 7.512-7.483 7.512s-7.512-3.373-7.512-7.512v-35.831h-35.83c-4.139 0-7.512-3.373-7.512-7.512s3.373-7.483 7.512-7.483h43.342c4.139 0 7.483 3.345 7.483 7.483z" fill="#407093"/><path d="m297.557 229.85 26.221 42.633 48.699 11.764c3.515.851 5.641 4.365 4.819 7.852-.256.992-.709 1.927-1.39 2.693l-32.513 38.155 3.883 50.003c.283 3.601-2.409 6.718-6.01 7.002-1.19.085-2.353-.17-3.373-.652l-45.95-18.992-46.347 19.162c-3.316 1.361-7.114-.227-8.476-3.572-.396-.907-.566-1.928-.481-2.948l3.854-50.003-32.485-38.155c-2.354-2.721-2.013-6.832.708-9.184.879-.737 1.899-1.219 2.949-1.418l48.473-11.707 26.249-42.747c1.899-3.061 5.924-4.025 8.985-2.126.937.567 1.675 1.333 2.185 2.24z" fill="#f5858e"/><path clip-rule="evenodd" d="m317.003 380.655 20.891 8.646c1.021.482 2.184.737 3.373.652 3.601-.284 6.293-3.401 6.01-7.002l-3.883-50.003 32.513-38.155c.681-.766 1.134-1.701 1.39-2.693.821-3.487-1.305-7.001-4.819-7.852l-48.699-11.764-26.221-42.633c-.51-.907-1.248-1.673-2.184-2.24-3.061-1.899-7.086-.935-8.985 2.126l-12.048 19.616c9.185 14.91 18.341 29.85 27.525 44.76 2.013 3.316 4.394 5.017 8.221 5.924l13.38 3.232c3.543.851 3.77 2.381 1.332 5.244l-8.306 9.751c-2.607 3.061-3.798 6.605-3.43 11.537z" fill="#dd636e" fill-rule="evenodd"/></g></svg>