<svg id="Layer_1" enable-background="new 0 0 512 512" height="512" viewBox="0 0 512 512" width="512" xmlns="http://www.w3.org/2000/svg"><path d="m10.15 104.563h491.7c5.606 0 10.15 4.544 10.15 10.15v322.418c0 5.606-4.544 10.15-10.15 10.15h-491.7c-5.606 0-10.15-4.544-10.15-10.15v-322.418c0-5.605 4.544-10.15 10.15-10.15z" fill="#ef75a7"/><path d="m46.204 447.28h-36.057c-5.604 0-10.147-4.543-10.147-10.148v-322.415c0-5.604 4.543-10.158 10.147-10.158h36.056c-5.604 0-10.147 4.553-10.147 10.158v322.416c0 5.604 4.543 10.147 10.148 10.147z" fill="#eb5793"/><path d="m256 397.24v83.968c0 1.789 2.068 2.783 3.466 1.667l15.021-12.005c.791-.633 1.918-.621 2.697.027l14.216 11.835c1.39 1.157 3.499.169 3.499-1.64v-102.896z" fill="#9f66d8"/><path d="m256 409.574s-101.227-53.394-218.958-1.741c-1.833.804-3.886-.555-3.886-2.556v-350.564c0-1.097.646-2.1 1.647-2.549 118.684-53.327 221.197.746 221.197.746z" fill="#dfcbf3"/><path d="m256 409.574s101.227-53.394 218.958-1.741c1.833.804 3.886-.555 3.886-2.556v-350.564c0-1.097-.646-2.1-1.647-2.549-118.684-53.327-221.197.746-221.197.746z" fill="#dfcbf3"/><path d="m256 52.906v317.337c0 4.565-4.696 7.625-8.864 5.762-35.719-15.971-105.336-34.364-174.035-4.227-1.834.804-3.894-.556-3.894-2.555v-329.802c-11.26 3.307-22.757 7.51-34.408 12.743-.999.453-1.648 1.452-1.648 2.545v350.571c0 1.998 2.06 3.358 3.894 2.555 117.729-51.654 218.955 1.74 218.955 1.74s13.372-7.057 36.056-13.547v-356.669c-22.684 6.49-36.056 13.547-36.056 13.547z" fill="#cfb2ed"/><path d="m429.946 108.886v103.162c0 3.379-3.204 5.821-6.47 4.945-18.049-4.893-41.918-9.158-69.414-8.705-18.914.319-39.538 2.874-61.162 8.993-3.276.937-6.542-1.504-6.542-4.914v-103.131c0-2.256 1.463-4.255 3.626-4.904 21.624-6.418 42.279-9.23 61.275-9.776 30.112-.845 56.042 4.038 74.966 9.406 2.207.618 3.721 2.637 3.721 4.924z" fill="#fed22b"/><path d="m429.946 108.886v52.055l-1.906-.021c-68.569-3.327-75.893-61.244-75.893-61.244l-.886-5.12c30.112-.845 56.042 4.038 74.966 9.406 2.205.618 3.719 2.637 3.719 4.924z" fill="#9f66d8"/><path d="m354.063 208.288c-18.914.319-39.538 2.874-61.162 8.993-3.276.937-6.542-1.504-6.542-4.914v-72.381c13.589 1.495 61.585 10.839 67.704 68.302z" fill="#9f66d8"/><circle cx="422.46" cy="222.072" fill="#ef75a7" r="26.527"/><g fill="#9f66d8"><path d="m445.848 338.144c-37.665-11.325-96.539-20.439-163.123.472-9.649 3.03-5.222 17.844 4.63 14.742 62.839-19.734 118.452-11.12 154.042-.415 4.089 1.225 8.396-1.089 9.624-5.174 1.229-4.086-1.087-8.395-5.173-9.625z"/><path d="m287.355 296.184c62.839-19.735 118.452-11.119 154.042-.415 4.089 1.223 8.396-1.089 9.624-5.174 1.229-4.087-1.088-8.395-5.174-9.625-37.665-11.325-96.539-20.439-163.123.472-4.071 1.279-6.335 5.615-5.056 9.686 1.285 4.086 5.636 6.331 9.687 5.056z"/><path d="m225.389 321.662c-37.664-11.325-96.539-20.439-163.123.472-4.071 1.279-6.335 5.615-5.056 9.686 1.284 4.087 5.635 6.332 9.686 5.056 62.838-19.734 118.453-11.12 154.042-.415 4.089 1.225 8.396-1.089 9.624-5.174 1.23-4.087-1.087-8.396-5.173-9.625z"/></g><path d="m216.774 259.511c-33.969-9.217-86.504-16.474-145.781.342-3.591 1.019-7.155-1.711-7.155-5.444v-115.07c0-2.511 1.662-4.713 4.07-5.427 62.33-18.494 117.488-10.157 151.885-.4 2.424.688 4.088 2.91 4.088 5.43v115.112c0 3.715-3.522 6.43-7.107 5.457z" fill="#fff5f4"/><path d="m114.39 80.659 7.936 11.457c1.338 1.931 3.54 3.08 5.889 3.073l13.937-.043c5.916-.018 9.285 6.755 5.701 11.462l-8.444 11.088c-1.423 1.869-1.836 4.319-1.103 6.551l4.348 13.242c1.845 5.621-3.555 10.918-9.139 8.964l-13.155-4.604c-2.217-.776-4.675-.411-6.571.975l-11.25 8.227c-4.775 3.492-11.482-.008-11.349-5.922l.313-13.934c.053-2.349-1.053-4.573-2.958-5.948l-11.301-8.157c-4.797-3.463-3.541-10.923 2.125-12.624l13.349-4.008c2.25-.676 4.024-2.415 4.743-4.652l4.266-13.268c1.811-5.632 9.294-6.743 12.663-1.879z" fill="#ef75a7"/><path d="m181.787 213.563 2.229 13.758c.376 2.319 1.869 4.305 3.992 5.31l12.597 5.963c5.347 2.531 5.471 10.095.209 12.8l-12.395 6.372c-2.089 1.074-3.517 3.107-3.816 5.437l-1.778 13.823c-.755 5.868-7.91 8.323-12.109 4.154l-9.89-9.82c-1.667-1.655-4.042-2.384-6.351-1.949l-13.696 2.58c-5.814 1.095-10.36-4.951-7.693-10.232l6.283-12.441c1.059-2.097 1.018-4.581-.109-6.642l-6.686-12.229c-2.838-5.191 1.508-11.383 7.354-10.478l13.773 2.131c2.322.359 4.671-.447 6.283-2.156l9.564-10.138c4.06-4.302 11.292-2.082 12.239 3.757z" fill="#ef75a7"/></svg>