<svg id="Capa_1" enable-background="new 0 0 512 512" height="512" viewBox="0 0 512 512" width="512" xmlns="http://www.w3.org/2000/svg"><g><g><path d="m501.593 394.406h-491.186c-5.748 0-10.407-4.659-10.407-10.406v-20.813c0-5.747 4.659-10.407 10.407-10.407h491.187c5.747 0 10.406 4.659 10.406 10.407v20.813c0 5.747-4.659 10.406-10.407 10.406z" fill="#dc8758"/></g><g><path d="m501.593 352.78h-33.301c5.747 0 10.406 4.659 10.406 10.407v20.813c0 5.747-4.659 10.406-10.406 10.406h33.301c5.747 0 10.406-4.659 10.406-10.406v-20.813c.001-5.747-4.658-10.407-10.406-10.407z" fill="#c86d36"/></g><g><path d="m74.045 461.008h-19.05c-4.102 0-7.592-2.987-8.225-7.04l-9.307-59.562h54.114l-9.307 59.562c-.632 4.053-4.123 7.04-8.225 7.04z" fill="#c86d36"/></g><g><path d="m437.955 461.008h19.05c4.102 0 7.592-2.987 8.225-7.04l9.307-59.562h-54.114l9.307 59.562c.632 4.053 4.123 7.04 8.225 7.04z" fill="#c86d36"/></g><g><path d="m334.641 352.78h-68.235c-5.747 0-10.407-4.659-10.407-10.406v-239.35c0-5.747 4.659-10.407 10.407-10.407h68.235c5.747 0 10.406 4.659 10.406 10.407v239.35c.001 5.747-4.658 10.406-10.406 10.406z" fill="#dff6fd"/></g><g fill="#bbec6c"><path d="m345.048 125.919v-22.894c0-5.747-4.659-10.406-10.407-10.406h-68.235c-5.747 0-10.407 4.659-10.407 10.406v22.894z"/><path d="m256 319.48v22.894c0 5.747 4.659 10.406 10.407 10.406h68.235c5.748 0 10.407-4.659 10.407-10.406v-22.894z"/><path d="m256 159.219h89.048v126.959h-89.048z"/></g><g fill="#a2e62e"><path d="m313.828 103.024v22.894h31.22v-22.894c0-5.748-4.659-10.406-10.407-10.406h-31.219c5.747 0 10.406 4.659 10.406 10.406z"/><path d="m313.828 159.219h31.22v126.959h-31.22z"/><path d="m313.828 319.48v22.894c0 5.747-4.659 10.406-10.406 10.406h31.219c5.748 0 10.407-4.659 10.407-10.406v-22.894z"/></g><g><path d="m256 125.919h89.048v33.301h-89.048z" fill="#ffe177"/></g><g><path d="m313.828 125.919h31.22v33.301h-31.22z" fill="#ffd15b"/></g><g><path d="m256 286.179h89.048v33.301h-89.048z" fill="#ffe177"/></g><g><path d="m313.828 286.179h31.22v33.301h-31.22z" fill="#ffd15b"/></g><g><path d="m480.332 352.78h-58.276c-5.747 0-10.406-4.659-10.406-10.406v-197.724c0-5.747 4.659-10.407 10.406-10.407h58.276c5.747 0 10.406 4.659 10.406 10.407v197.724c.001 5.747-4.658 10.406-10.406 10.406z" fill="#82aee3"/></g><g><path d="m480.332 134.244h-31.22c5.747 0 10.406 4.659 10.406 10.407v197.724c0 5.747-4.659 10.406-10.406 10.406h31.22c5.747 0 10.406-4.659 10.406-10.406v-197.725c.001-5.747-4.658-10.406-10.406-10.406z" fill="#528fd8"/></g><g fill="#cb97e7"><path d="m21.261 342.374c0 5.747 4.659 10.406 10.406 10.406h58.276c5.747 0 10.406-4.659 10.406-10.406v-22.894h-79.088z"/><path d="m89.944 134.244h-58.276c-5.747 0-10.406 4.659-10.406 10.406v141.528h79.089v-141.528c0-5.747-4.66-10.406-10.407-10.406z"/></g><g fill="#bd80e1"><path d="m69.131 342.374c0 5.747-4.659 10.406-10.406 10.406h31.219c5.747 0 10.406-4.659 10.406-10.406v-22.894h-31.219z"/><path d="m89.944 134.244h-31.219c5.747 0 10.406 4.659 10.406 10.406v141.528h31.219v-141.528c.001-5.747-4.659-10.406-10.406-10.406z"/></g><g><path d="m21.261 286.179h79.089v33.301h-79.089z" fill="#ffe177"/></g><g><path d="m69.131 286.179h31.22v33.301h-31.22z" fill="#ffd15b"/></g><g><g><path d="m401.243 352.78h-45.789c-5.747 0-10.406-4.659-10.406-10.406v-280.976c0-5.747 4.659-10.407 10.406-10.407h45.789c5.747 0 10.407 4.659 10.407 10.407v280.976c-.001 5.747-4.66 10.406-10.407 10.406z" fill="#fe7ab6"/></g><g><path d="m401.243 50.992h-27.057c5.747 0 10.406 4.659 10.406 10.407v280.976c0 5.747-4.659 10.406-10.406 10.406h27.057c5.747 0 10.407-4.659 10.407-10.406v-280.977c-.001-5.747-4.66-10.406-10.407-10.406z" fill="#fe5ca7"/></g></g><g><g fill="#99e6fc"><path d="m256 85.118v-23.72c0-5.748-4.659-10.406-10.406-10.406h-45.789c-5.747 0-10.406 4.659-10.406 10.406v23.72z"/><path d="m189.398 100.118h66.602v203.536h-66.602z"/><path d="m189.398 318.654v23.72c0 5.747 4.659 10.406 10.406 10.406h45.789c5.747 0 10.406-4.659 10.406-10.406v-23.72z"/></g><g fill="#62dbfb"><path d="m228.943 100.118h27.057v203.536h-27.057z"/><path d="m228.943 61.398v23.72h27.057v-23.72c0-5.748-4.659-10.406-10.406-10.406h-27.057c5.747 0 10.406 4.659 10.406 10.406z"/><path d="m228.943 318.654v23.72c0 5.747-4.659 10.406-10.406 10.406h27.057c5.747 0 10.406-4.659 10.406-10.406v-23.72z"/></g></g><g><g fill="#fea95c"><g><path d="m100.351 100.118h89.048v203.536h-89.048z"/><path d="m178.992 50.992h-68.235c-5.747 0-10.406 4.659-10.406 10.406v23.72h89.048v-23.72c-.001-5.747-4.66-10.406-10.407-10.406z"/></g><path d="m100.351 318.654v23.72c0 5.747 4.659 10.406 10.406 10.406h68.235c5.747 0 10.406-4.659 10.406-10.406v-23.72z"/></g><g fill="#fe9738"><g><path d="m178.992 50.992h-27.057c5.747 0 10.407 4.659 10.407 10.406v23.72h27.057v-23.72c-.001-5.747-4.66-10.406-10.407-10.406z"/><path d="m162.342 100.118h27.057v203.536h-27.057z"/></g><path d="m162.342 318.654v23.72c0 5.747-4.659 10.406-10.407 10.406h27.057c5.747 0 10.406-4.659 10.406-10.406v-23.72z"/></g></g><g><path d="m378.349 297.842c-4.143 0-7.5-3.357-7.5-7.5v-176.911c0-4.143 3.357-7.5 7.5-7.5s7.5 3.357 7.5 7.5v176.911c0 4.142-3.358 7.5-7.5 7.5z" fill="#dff6fd"/></g><g><path d="m189.398 85.118h66.602v15h-66.602z" fill="#fe7ab6"/></g><g><path d="m189.398 303.654h66.602v15h-66.602z" fill="#fe7ab6"/></g><g><path d="m100.351 85.118h89.048v15h-89.048z" fill="#82aee3"/></g><g><path d="m100.351 303.654h89.048v15h-89.048z" fill="#82aee3"/></g></g></svg>