<?xml version="1.0" encoding="utf-8"?>
<svg xmlns="http://www.w3.org/2000/svg" viewBox="-357.91 -509.31 1501.147 1500.6981" width="1501.15px" height="1500.7px">
  <rect x="-357.91" y="-509.31" width="1500" height="1500" style="pointer-events: none; fill: rgb(155, 118, 71);" transform="matrix(1, 0, 0, 1, 0, 1.1368683772161603e-13)">
    <title>background</title>
  </rect>
  <path d="M -252.756 586.46 L -297.344 839.398 L -221.611 929.384 L 75.543 909.655 L 18.506 858.61 L -145.763 694.777" style="fill: rgb(213, 213, 213);">
    <title>sneakoscope_light</title>
  </path>
  <path d="M -243.164 544.023 L -143.555 693.583 L -185.379 654.277 L -268.617 869.874 L -254.157 888.289 L -93.937 742.522 L -68.635 767.081 L -242.958 898.368 L -233.288 910.562 L -7.913 826.64 L 16.989 854.62 L 107.272 904.425 L 75.63 911.163 L 20.57 855.23 L -228.601 919.35 L -219.506 928.37 L -317.418 933.645 L -296.524 839.272 L -278.776 858.374 L -209.543 630.086 L -252.088 584.607" style="fill: rgb(63, 63, 63);">
    <title>sneakoscope_lines</title>
  </path>
  <path d="M 206.895 848.797 L 272.59 718.955 L 286.845 657.389 L 253.591 530.325 L 146.468 412.151 L 37.055 373.79 L -37.943 380.93 L -155.891 438.255 L -170.36 455.906" style="fill: rgb(249, 249, 249);">
    <title>sneakoscope_dome</title>
  </path>
  <path d="M -168.719 453.716 L -19.522 557.054 L 112.236 698.616 L 190.506 811.642 L 209.74 849.649 L 213.728 902.864 L 163.767 860.923 L 43.722 757.076 L -174.2 543.462 L -188.35 492.663" style="fill: rgb(164, 164, 164);">
    <title>sneakoscope_medium</title>
  </path>
  <path d="M -208.648 427.817 L -262.319 430.833 L -264.312 514.336 L -146.99 691.52 L 20.063 856.58 L 166.579 942.183 L 211.989 931.316 L 213.952 900.888 L 42.658 756.132 L -173.834 544.804 L -187.148 487.613 L -169.455 453.919" style="fill: rgb(109, 109, 109);">
    <title>sneakoscope_dark</title>
  </path>
  <path d="M 106.831 701.487 L 107.262 760.259 L 136.156 800.104 L 190.829 811.434 L 236.31 793.121 L 254.222 758.648 L 251.178 701.223 L 211.926 665.976 L 150.135 668.697" style="fill: rgb(255, 232, 166);">
    <title>sneakoscope_ball</title>
  </path>
  <path d="M 468.291 -195.634 L 227.523 936.063 L 371.588 991.388 L 624.394 -151.865" style="fill: rgb(216, 6, 200);">
    <title>book1</title>
  </path>
  <path d="M 436.037 -41.97 L 590.45 -0.758 L 560.989 141.503 L 403.975 101.809" style="fill: rgb(103, 10, 96);">
    <title>book1_detail</title>
  </path>
  <path d="M 630.638 -205.877 L 796.212 -168.938 L 611.516 988.801 L 456.055 944.967" style="fill: rgb(255, 114, 0);">
    <title>book2</title>
  </path>
  <path d="M 608.902 -56.582 L 773.026 -23.319 L 751.026 114.392 L 585.907 86.858" style="fill: rgb(161, 108, 64);">
    <title>book2_detail</title>
  </path>
  <path d="M 784.714 989.264 L 617.844 944.217 L 800.588 -196.299 L 951.561 -164.342" style="fill: rgb(209, 255, 42);">
    <title>book3</title>
  </path>
  <path d="M 780.358 -67.205 L 935.119 -35.653 L 915.72 111.443 L 754.795 85.061" style="fill: rgb(96, 119, 14);">
    <title>book3_detail</title>
  </path>
  <rect x="952.15" y="-509.22" width="191.087" height="1499.01" style="fill: rgb(115, 190, 228);">
    <title>book4</title>
  </rect>
  <path d="M 949.262 -381.419 L 1139.897 -377.544 L 1143.195 -299.431 L 953.365 -298.451 Z M 948.337 398.957 L 1141.616 400.43 L 1142.91 652.349 L 953.132 653.098 Z" style="fill: rgb(18, 72, 99);">
    <title>book4_details</title>
  </path>
</svg>