<?xml version="1.0" encoding="UTF-8" standalone="no"?>
<!DOCTYPE svg PUBLIC "-//W3C//DTD SVG 1.1//EN" "http://www.w3.org/Graphics/SVG/1.1/DTD/svg11.dtd">
<svg version="1.1" xmlns="http://www.w3.org/2000/svg" xmlns:xlink="http://www.w3.org/1999/xlink" preserveAspectRatio="xMidYMid meet" viewBox="321.9843594169056 29.25595999868233 262.35389209695416 262" width="262.35" height="262"><defs><path d="M321.98 29.26L583.98 29.26L583.98 291.26L321.98 291.26L321.98 29.26Z" id="c44a8va7K5"></path><path d="M341.25 252.82L583.98 253.36L583.98 291.26L340.85 291.26L341.25 252.82Z" id="aoLdYk3kR"></path><path d="M342.4 200.93L583.98 200.52L583.98 253.54L341.46 253.13L342.4 200.93Z" id="b2f3Eq1gwR"></path><path d="M361.06 157.3L583.98 156.49L584.34 200.52L360.53 201.11L361.06 157.3Z" id="k106hRngv"></path><path d="M321.98 129.45L538.6 130.66L539.14 156.49L321.98 158.54L321.98 129.45Z" id="cZJ2jwvcM"></path><path d="M475.33 131.51L541.79 219.24L500.72 238.44L504.52 253.54L382.87 267.24L375.5 123.71L462.42 90L527.34 130.89L475.33 131.51Z" id="bMeKV6keL"></path><path d="M382.64 267.24L380.63 230.41L395.81 227.5L395.14 266.12L382.64 267.24Z" id="a5oAf3urz"></path><path d="M427.73 221.03L422.6 262.55L417.69 263.22L410.1 224.6L427.73 221.03Z" id="a2t47yfIzQ"></path><path d="M478.85 211.21L493.8 254.74L470.14 257.64L467.46 212.99L478.85 211.21Z" id="bWJJQquJb"></path><path d="M517.69 230.63L495.14 197.82L490.23 198.93L500.5 238.44L517.69 230.63Z" id="a2GMgwMFpz"></path><path d="M541.79 219.24L517.69 187.99L509.43 191.79L525.28 227.03L541.79 219.24Z" id="g48LwVw6m"></path><path d="M452.05 216.32L463.24 258.15L441.74 260.65L437.91 219.12L452.05 216.32Z" id="b3o2gueLXD"></path><path d="M377.74 165.66L475.67 144L469.78 117.65L375.5 128.99L375.5 123.83L462.27 90L469.78 116.91L480.24 101.3L507.04 117.65L498.46 131.68L476.12 131.68L495.11 157.6L481.23 162.91L483.73 172.92L378.87 194.86L377.74 165.66Z" id="e6A4pESt2"></path></defs><g><g><g><use xlink:href="#c44a8va7K5" opacity="1" fill="#9b7647" fill-opacity="1"></use></g><g><use xlink:href="#aoLdYk3kR" opacity="1" fill="#d9c5ac" fill-opacity="1"></use></g><g><use xlink:href="#b2f3Eq1gwR" opacity="1" fill="#9e92d0" fill-opacity="1"></use></g><g><use xlink:href="#k106hRngv" opacity="1" fill="#34f2e5" fill-opacity="1"></use></g><g><use xlink:href="#cZJ2jwvcM" opacity="1" fill="#20fa17" fill-opacity="1"></use></g><g><use xlink:href="#bMeKV6keL" opacity="1" fill="#1d4588" fill-opacity="1"></use></g><g><use xlink:href="#a5oAf3urz" opacity="1" fill="#d49c1d" fill-opacity="1"></use></g><g><use xlink:href="#a2t47yfIzQ" opacity="1" fill="#d49c1d" fill-opacity="1"></use></g><g><use xlink:href="#bWJJQquJb" opacity="1" fill="#d49c1d" fill-opacity="1"></use></g><g><use xlink:href="#a2GMgwMFpz" opacity="1" fill="#d49c1d" fill-opacity="1"></use></g><g><use xlink:href="#g48LwVw6m" opacity="1" fill="#d49c1d" fill-opacity="1"></use></g><g><use xlink:href="#b3o2gueLXD" opacity="1" fill="#d49c1d" fill-opacity="1"></use></g><g><use xlink:href="#e6A4pESt2" opacity="1" fill="#d49c1d" fill-opacity="1"></use></g></g></g></svg>