<?xml version="1.0" encoding="UTF-8" standalone="no"?>
<!DOCTYPE svg PUBLIC "-//W3C//DTD SVG 1.1//EN" "http://www.w3.org/Graphics/SVG/1.1/DTD/svg11.dtd">
<svg version="1.1" xmlns="http://www.w3.org/2000/svg" xmlns:xlink="http://www.w3.org/1999/xlink" preserveAspectRatio="xMidYMid meet" viewBox="22.30694006206673 307.9656374180372 262.35389209695416 262" width="262.35" height="262"><defs><path d="M22.31 307.97L284.31 307.97L284.31 569.97L22.31 569.97L22.31 307.97Z" id="hS47wUZOU"></path><path d="M41.58 531.53L284.31 532.07L284.31 569.97L41.17 569.97L41.58 531.53Z" id="a3yH4uADLb"></path><path d="M42.73 479.64L284.31 479.23L284.31 532.25L41.78 531.84L42.73 479.64Z" id="gr7ARIZY3"></path><path d="M61.39 436.01L284.31 435.2L284.66 479.23L60.85 479.82L61.39 436.01Z" id="c1yPIn8BR9"></path><path d="M22.31 408.16L238.93 409.37L239.46 435.2L22.31 437.25L22.31 408.16Z" id="gP7gS42vc"></path><path d="M175.65 410.22L242.12 497.95L201.05 517.15L204.84 532.25L83.19 545.95L75.82 402.42L162.74 368.71L227.66 409.6L175.65 410.22Z" id="a46kmiKpeY"></path><path d="M82.96 545.95L80.96 509.12L96.13 506.21L95.46 544.83L82.96 545.95Z" id="ejcv6Jn9c"></path><path d="M128.05 499.74L122.92 541.26L118.01 541.93L110.42 503.31L128.05 499.74Z" id="dqBOYMmMq"></path><path d="M179.17 489.92L194.13 533.45L170.46 536.35L167.79 491.7L179.17 489.92Z" id="fWK6fRMEE"></path><path d="M218.01 509.34L195.46 476.53L190.55 477.64L200.82 517.15L218.01 509.34Z" id="a2fsgSrYtg"></path><path d="M242.12 497.95L218.01 466.7L209.75 470.5L225.6 505.74L242.12 497.95Z" id="a2wOIHiHj"></path><path d="M152.37 495.03L163.57 536.86L142.06 539.36L138.24 497.83L152.37 495.03Z" id="aw0HFsDwq"></path><path d="M78.06 444.37L176 422.71L170.11 396.36L75.82 407.7L75.82 402.54L162.59 368.71L170.11 395.62L180.56 380.01L207.37 396.36L198.78 410.39L176.44 410.39L195.43 436.31L181.55 441.62L184.05 451.63L79.19 473.57L78.06 444.37Z" id="b7hSsci190"></path></defs><g><g><g><use xlink:href="#hS47wUZOU" opacity="1" fill="#9b7647" fill-opacity="1"></use></g><g><use xlink:href="#a3yH4uADLb" opacity="1" fill="#d9c5ac" fill-opacity="1"></use></g><g><use xlink:href="#gr7ARIZY3" opacity="1" fill="#9e92d0" fill-opacity="1"></use></g><g><use xlink:href="#c1yPIn8BR9" opacity="1" fill="#34f2e5" fill-opacity="1"></use></g><g><use xlink:href="#gP7gS42vc" opacity="1" fill="#20fa17" fill-opacity="1"></use></g><g><use xlink:href="#a46kmiKpeY" opacity="1" fill="#24881d" fill-opacity="1"></use></g><g><use xlink:href="#ejcv6Jn9c" opacity="1" fill="#d7d7d7" fill-opacity="1"></use></g><g><use xlink:href="#dqBOYMmMq" opacity="1" fill="#d7d7d7" fill-opacity="1"></use></g><g><use xlink:href="#fWK6fRMEE" opacity="1" fill="#d7d7d7" fill-opacity="1"></use></g><g><use xlink:href="#a2fsgSrYtg" opacity="1" fill="#d7d7d7" fill-opacity="1"></use></g><g><use xlink:href="#a2wOIHiHj" opacity="1" fill="#d7d7d7" fill-opacity="1"></use></g><g><use xlink:href="#aw0HFsDwq" opacity="1" fill="#d7d7d7" fill-opacity="1"></use></g><g><use xlink:href="#b7hSsci190" opacity="1" fill="#d7d7d7" fill-opacity="1"></use></g></g></g></svg>