<?xml version="1.0" encoding="UTF-8" standalone="no"?>
<!DOCTYPE svg PUBLIC "-//W3C//DTD SVG 1.1//EN" "http://www.w3.org/Graphics/SVG/1.1/DTD/svg11.dtd">
<svg version="1.1" xmlns="http://www.w3.org/2000/svg" xmlns:xlink="http://www.w3.org/1999/xlink" preserveAspectRatio="xMidYMid meet" viewBox="321.9843594169056 307.9656374180372 262.35389209695427 262" width="262.35" height="262"><defs><path d="M321.98 307.97L583.98 307.97L583.98 569.97L321.98 569.97L321.98 307.97Z" id="ai6zoBrb6"></path><path d="M341.25 531.53L583.98 532.07L583.98 569.97L340.85 569.97L341.25 531.53Z" id="cefqayPoq"></path><path d="M342.4 479.64L583.98 479.23L583.98 532.25L341.46 531.84L342.4 479.64Z" id="bpnHKR4xq"></path><path d="M361.06 436.01L583.98 435.2L584.34 479.23L360.53 479.82L361.06 436.01Z" id="arGxPsazK"></path><path d="M321.98 408.16L538.6 409.37L539.14 435.2L321.98 437.25L321.98 408.16Z" id="abmivtIAp"></path><path d="M475.33 410.22L541.79 497.95L500.72 517.15L504.52 532.25L382.87 545.95L375.5 402.42L462.42 368.71L527.34 409.6L475.33 410.22Z" id="f18OGt9EBU"></path><path d="M382.64 545.95L380.63 509.12L395.81 506.21L395.14 544.83L382.64 545.95Z" id="bYx7QoLxz"></path><path d="M427.73 499.74L422.6 541.26L417.69 541.93L410.1 503.31L427.73 499.74Z" id="d32CLaZCb"></path><path d="M478.85 489.92L493.8 533.45L470.14 536.35L467.46 491.7L478.85 489.92Z" id="c38497YFPd"></path><path d="M517.69 509.34L495.14 476.53L490.23 477.64L500.5 517.15L517.69 509.34Z" id="cY3QJq7az"></path><path d="M541.79 497.95L517.69 466.7L509.43 470.5L525.28 505.74L541.79 497.95Z" id="b15ZiNcEQ"></path><path d="M452.05 495.03L463.24 536.86L441.74 539.36L437.91 497.83L452.05 495.03Z" id="b1qGQ1ym12"></path><path d="M377.74 444.37L475.67 422.71L469.78 396.36L375.5 407.7L375.5 402.54L462.27 368.71L469.78 395.62L480.24 380.01L507.04 396.36L498.46 410.39L476.12 410.39L495.11 436.31L481.23 441.62L483.73 451.63L378.87 473.57L377.74 444.37Z" id="b2s9akfHv"></path></defs><g><g><g><use xlink:href="#ai6zoBrb6" opacity="1" fill="#9b7647" fill-opacity="1"></use></g><g><use xlink:href="#cefqayPoq" opacity="1" fill="#d9c5ac" fill-opacity="1"></use></g><g><use xlink:href="#bpnHKR4xq" opacity="1" fill="#9e92d0" fill-opacity="1"></use></g><g><use xlink:href="#arGxPsazK" opacity="1" fill="#34f2e5" fill-opacity="1"></use></g><g><use xlink:href="#abmivtIAp" opacity="1" fill="#20fa17" fill-opacity="1"></use></g><g><use xlink:href="#f18OGt9EBU" opacity="1" fill="#f0eb00" fill-opacity="1"></use></g><g><use xlink:href="#bYx7QoLxz" opacity="1" fill="#353535" fill-opacity="1"></use></g><g><use xlink:href="#d32CLaZCb" opacity="1" fill="#353535" fill-opacity="1"></use></g><g><use xlink:href="#c38497YFPd" opacity="1" fill="#353535" fill-opacity="1"></use></g><g><use xlink:href="#cY3QJq7az" opacity="1" fill="#353535" fill-opacity="1"></use></g><g><use xlink:href="#b15ZiNcEQ" opacity="1" fill="#353535" fill-opacity="1"></use></g><g><use xlink:href="#b1qGQ1ym12" opacity="1" fill="#353535" fill-opacity="1"></use></g><g><use xlink:href="#b2s9akfHv" opacity="1" fill="#353535" fill-opacity="1"></use></g></g></g></svg>