<?xml version="1.0" encoding="UTF-8" standalone="no"?>
<!DOCTYPE svg PUBLIC "-//W3C//DTD SVG 1.1//EN" "http://www.w3.org/Graphics/SVG/1.1/DTD/svg11.dtd">
<svg version="1.1" xmlns="http://www.w3.org/2000/svg" xmlns:xlink="http://www.w3.org/1999/xlink" preserveAspectRatio="xMidYMid meet" viewBox="351.8249530237615 142.85875706214665 261.9999999999999 262.0000000000002" width="262" height="262"><defs><path d="M351.82 142.86L613.82 142.86L613.82 404.86L351.82 404.86L351.82 142.86Z" id="aLvtYiW1O"></path><path d="M514.82 404.53L514.13 388.87L510.64 386.64L510.64 382.88L507.98 382.88L507.98 379.44L506.09 379.21L506.09 371.5L508.33 371.5L508.33 369.34L510.64 369.34L510.64 361.04L512.48 357.6L508.72 344.41L510.28 299.19L529.59 221.95L529.59 211.64L526.95 200.09L520.66 196.24L520.66 167.74L519.3 159.5L513.36 148.39L510.28 146.08L501.33 145.68L497.98 147.83L494.81 152.15L494.81 159.18L500.1 164.7L513.36 167.74L512.88 213.98L509.21 210.23L506.57 212.86L500.1 209.51L499.05 204.31L491.7 204.55L491.94 191.44L493.69 189.92L494.81 177.7L484.67 162.92L480.28 160.61L474.45 163.56L468.06 180.39L471.65 192.05L470.83 204.55L464.52 205.51L463.8 209.82L457.01 212.86L454.77 211.02L450.14 215.89L449.9 217.89L446.31 213.5L449.34 211.34L448.46 202.79L445.35 202.48L443.99 191.05L439.14 191.77L438.88 201.2L435.04 204.31L435.47 210.85L439.14 214.61L437.23 224.59L443.17 243.75L447.64 246.38L450.6 245.34L454.37 338.95L450.86 351.01L451.42 363.23L449.02 362.99L449.02 369.14L452.78 369.14L452.54 379.44L448.46 379.44L448.46 385.35L444.87 389.26L444.87 404.86L514.82 404.53Z" id="e2ZORbUQ7M"></path><path d="M503.6 149.5L499.98 152.58L498.83 157.02L500.75 160.8L505.96 162.28L510.13 160.15L510.13 153.89L506.84 150.05L503.6 149.5Z" id="bcX39eypG"></path><path d="M510.55 386.25C498.67 388.54 477.96 388.27 448.41 385.45" id="aHh2pJKXB"></path><path d="M505.84 379.06C490.71 381.13 473.03 381.21 452.8 379.3" id="bXRK0I9wE"></path><path d="M506.07 371.71C484.11 373.63 467.72 373.71 453.12 370.75" id="a2brv8Z1Mv"></path><path d="M466.1 363.85C464.46 363.92 459.64 363.71 451.64 363.21" id="ek5Jb2lxq"></path><path d="M476.92 363.21C483.42 362.92 494.63 363.64 510.55 365.35" id="dZWeu3xye"></path><path d="M447.91 202.8C446.85 202.35 445.84 202.31 444.87 202.67C443.41 203.21 442.2 203.51 442.1 204.96C442 206.42 443.6 207.48 444.66 207.87C445.37 208.13 445.94 207.68 446.35 206.52L447.91 208.07" id="cTyablh2"></path><path d="M438.18 202.06C439.94 205.17 440.81 207.33 440.81 208.54C440.81 210.37 439.47 210.45 438.72 209.63C438.22 209.07 436.99 207.27 435.04 204.22" id="bledhEDL4"></path><path d="M443.31 207.13C443.58 209.47 442.66 209.78 440.54 208.07" id="a1X8B6wf4M"></path><path d="M441.95 204.29L441.95 191.52" id="g3dGqA6xB"></path><path d="M476.85 162.96C479.38 177.57 477.26 185.18 470.5 185.79" id="bLNV5XR1q"></path><path d="M493.73 185.79C486.97 183.04 483.08 174.96 482.04 161.57" id="b1M1WWjfAN"></path><path d="M491.9 191.13C489.17 187.74 482.47 187.88 471.8 191.54" id="d3foXzH50y"></path><path d="M490.13 192.17L475.43 192.17" id="ailk3U0Zg"></path><path d="M483.19 208.42L483.19 192.17" id="aW1Efe1IJ"></path><path d="M520.06 176.84C519.13 178.11 516.86 178.05 513.26 176.66" id="d3aNse3ktL"></path><path d="M520.7 180.06C518.91 180.85 516.57 180.85 513.67 180.06" id="b2Q6c8hOlk"></path><path d="M520.15 190.45C518.55 191.36 516.25 191.28 513.26 190.22" id="i5GUX1wD4n"></path><path d="M509 301.73C516.62 270.07 522.7 246.66 527.25 231.49C529.47 214.84 529.51 204.56 527.37 200.64L526.78 200.18L526.19 199.59L525.69 199.18L525.19 198.78L524.51 198.23L523.88 197.82L523.29 197.46L522.6 197.1L521.88 196.69L521.15 196.37L520.56 196.14L519.93 195.96L519.29 195.83L518.52 195.74L517.89 195.69L517.25 195.6L516.52 195.6L515.89 195.78L515.3 196.05L514.71 196.32L514.26 196.78L514.03 197.37L514.03 198L514.48 198.5L515.25 198.68L515.98 198.73L516.62 198.73L517.3 198.78L518.02 198.78L518.7 198.82L519.47 198.91" id="b16s5TkcRr"></path><path d="M514.03 198.09L513.85 198.73L513.8 199.41L513.98 200.09L514.3 200.73L514.76 201.18L515.75 201.32L516.57 201.41L517.3 201.45L517.93 201.5L518.57 201.54L519.29 201.59L519.97 201.63L520.61 201.68L521.24 201.77" id="eMesDVqXf"></path><path d="M514.39 201L513.89 201.86L513.76 202.54L513.98 203.22L514.39 203.72L514.98 204.13L515.57 204.36L516.3 204.49L517.11 204.63L517.75 204.72L518.39 204.72L519.07 204.81L519.75 204.81L520.52 204.9L521.29 204.99" id="c1QrzPT8Iw"></path><path d="M514.26 204.08L514.07 204.72L514.03 205.35L514.17 206.03L514.57 206.53L515.12 206.85L515.71 207.08L516.34 207.26L517.02 207.4L517.66 207.53L518.29 207.67L519.02 207.76L519.79 207.99L520.47 208.12L521.11 208.21" id="aaoQpQFjU"></path><path d="M505.71 360.81C508.79 360.93 509.97 359.59 509.25 356.78L504.05 343.86C514.79 255.32 519.77 210.76 518.97 210.16C518.18 209.56 517.71 208.84 517.57 208" id="akbjEwYdp"></path><path d="M498.97 315.17L495.5 344.12C499.19 349.96 501.79 353.74 503.31 355.46C504.83 357.18 505.51 360.35 505.35 364.95" id="b10SDtya6c"></path><path d="M492.76 359.86C496.44 356.22 499.86 355.26 503.03 356.98L504.05 343.38" id="c1IFZ5agkt"></path><path d="M493.54 363.4C497.46 359.2 501.23 357.94 504.83 359.62" id="c1hcNiOxZX"></path><path d="M492.76 355.6C495.48 353.44 498.22 352.44 500.99 352.6" id="d33a8yJVR7"></path><path d="M493.06 348.4C495.46 347.88 497.24 348.08 498.41 349" id="aT8swGS4o"></path><path d="M492.76 345.94C494 345.62 495.37 345.78 496.87 346.42" id="cHydclEjE"></path><path d="M513.8 205.51L513.11 214.63L498.41 348.56" id="a3Hfw97QWU"></path><path d="M528.94 209.29C527.21 210.49 523.89 210.79 518.97 210.19" id="a4aBabNaTR"></path><path d="M528.94 211.81C526.53 212.65 523.21 213.01 518.97 212.89" id="c3hQ0hpi0p"></path><path d="M528.94 214.33C525.25 215.37 521.93 215.51 518.97 214.75" id="c1qs16lYDB"></path><path d="M528.54 219.8C523.05 219.56 519.75 218.8 518.63 217.51" id="aifvP4Zrh"></path><path d="M528.54 221C524.57 222.16 521.17 221.76 518.33 219.8" id="c5kwKR7faP"></path><path d="M528.54 223.88C523.57 224.48 520.05 224.08 517.97 222.68" id="a5NE4SHvfQ"></path><path d="M527.46 230.96C522.53 230.44 519.24 228.76 517.57 225.92" id="b3dHf6zjsc"></path><path d="M525.29 238.47C523.21 241.59 520.09 243.05 515.93 242.85" id="m2tt0R50I2"></path><path d="M516.59 239.07C527.52 237.15 521.79 231.19 517.52 229.52" id="hCaCj2ai"></path><path d="M479.93 212.92C488.03 212.1 490.42 212.2 496.62 212.36C500.75 212.48 503.45 212.88 504.71 213.59C504.71 216.76 504.71 218.74 504.71 219.53C504.71 220.31 504.05 220.92 503.28 220.85C498.22 220.45 492.56 220.32 486.29 220.48C479.83 220.64 472.73 221.11 465 221.88C464.42 221.94 463.92 221.46 463.95 220.88C464 219.83 464.07 218.39 464.11 217.5C464.16 216.39 464.94 215.46 466.02 215.21C470.52 214.16 475.16 213.4 479.93 212.92Z" id="akiAl9om1"></path><path d="M470.68 213.83C469.12 212.66 468.56 209.52 469 204.4C466.99 204.92 465.51 206.19 464.56 208.21C464.25 210.35 464.15 213.21 464.26 216.77" id="a3BR7fhESS"></path><path d="M493.31 212.36C495.51 211.52 496.07 208.86 494.99 204.4C496.51 204.01 497.73 204.2 498.65 204.99C499.61 206.3 500.31 208.72 500.75 212.25" id="i4kFKQPc1Q"></path><path d="M495.17 204.4L491.51 204.99C485.18 209.42 478.86 209.3 472.54 204.64C471.82 204.31 470.7 204.31 469.18 204.64" id="bXgFYuV9X"></path><path d="M489.03 363.21L489.03 220.72" id="e1h9DtPM2G"></path><path d="M492.25 363.54L492.25 220.72" id="b1OOuuLNGS"></path><path d="M478.6 363.21L478.14 220.72" id="brnek5KSV"></path><path d="M466.1 363.87C470.66 366.27 474.15 366.16 476.58 363.54L475.95 220.72" id="bVeZ8BCyi"></path><path d="M463.04 358.52L455.07 363.4" id="fSzob9THV"></path><path d="M466.1 363.87L471.34 359.73L476.01 362.59" id="aajAiveG4"></path><path d="M462.74 363.4L470.71 356.14L476.37 358.9" id="n1IIgMaORO"></path><path d="M464.87 313.84C467.51 335.87 467.51 349.2 464.87 353.83C462.23 358.46 461.62 361.5 463.04 362.96" id="c33nw27Vmk"></path><path d="M464.57 354.74C469.16 351.86 473.1 351.64 476.37 354.09" id="gIDZtejRs"></path><path d="M466.1 351.27C467.98 348.84 471.4 347.79 476.37 348.12" id="c3j7K9pBBv"></path><path d="M465.91 350.36C467.65 346.55 471.21 344.9 476.58 345.43" id="abO6HZUnV"></path><path d="M501.77 315.47L496.59 303.29L500.44 294.47L503.9 296.6L499.76 303.29L502.68 311.69L501.77 315.47Z" id="d3s6OixzY7"></path><path d="M492.25 315.17L495.32 317.96L501.16 312.91" id="b7HdyytD4p"></path><path d="M492.52 311.94L495.19 314.31L499.39 309.81" id="aQZlBkblC"></path><path d="M492.76 308.89L495.25 310.9L498.41 308.04" id="ddAOSEP5h"></path><path d="M462.94 295.99L460.68 297.15L465.92 307.25L460.68 313.34L463.12 315.47L469.39 306.4L462.94 295.99Z" id="c411pgSSz"></path><path d="M462.6 358.15C457.12 355.27 457.17 350.01 462.74 342.38L462.3 314.63" id="b4E88mW1j8"></path><path d="M476.38 317.96L472.24 320.5L465.67 311.73" id="aOK17IDD8"></path><path d="M476.02 313.5L472.06 315.81L466.85 310.21" id="dDi7HZJtX"></path><path d="M476.02 310.51L473.22 312.4L468.35 308.04" id="c34suSRgTB"></path><path d="M468.89 305.4L472.79 301.73L476.38 303.82" id="bFukMvMiV"></path><path d="M476.02 300.41L471.02 298.83L467.74 302.85" id="bcZSUV7Qe"></path><path d="M476.02 296.88L471.02 293.41L465.67 299.8" id="auBcoz8Zl"></path><path d="M492.52 303.56L494.58 302.12L496.34 303.94" id="a6pa8SIf7F"></path><path d="M492.52 300.35L495.19 299.01L497.38 301.26" id="c3x0eFQtMA"></path><path d="M492.52 298.4L495.19 296.21L498.11 299.32" id="b1HxwB42Ih"></path><path d="M462.62 285.42L462.62 295.99" id="b6fb0RaV"></path><path d="M500.12 285.06L499.87 295.65" id="g4tOCgzB7D"></path><path d="M472.79 253.9L472.12 257.91L470.84 263.76L469.81 269.17L469.14 273.07L468.89 279.03L469.14 285.06L463.9 285.06L464.45 275.27L465.36 268.2L467.98 259.44L469.56 253.71L466.7 251.83L461.77 266.37L461.77 270.57L461.23 276.54L461.04 282.62L460.68 285.24L476.02 285.42" id="b8tMtBsQt"></path><path d="M475.71 254.02L472.79 254.02L469.65 253.71" id="c5fkNlz8"></path><path d="M461.29 282.56L476.2 282.81L476.2 278.91L461.29 279.16L461.47 274.9L468.89 276.17L476.02 275.93L476.2 272.76L469.14 272.76L461.77 271.18L461.77 266.98L469.99 269.54L476.38 269.9L476.02 266.44L470.42 265.77L462.62 263.45L463.78 260.47L470.84 263.82L476.2 263.45L476.2 260.84L471.57 261.02L464.88 257.97L465.85 255.24L471.88 257.97L476.02 257.31" id="c6gM1sA44X"></path><path d="M502.31 285.06L502.67 281.84L502.67 272.34L502.67 269.42L501.51 265.18L497.05 251.67L492.25 254.23L492.25 255.91L495.95 255.91L497.85 255.24L498.88 257.51L497.05 258.39L492.25 258.9L492.25 261.68L497.85 261.31L499.87 259.92L500.78 262.7L498.58 264.82L492.25 265.18L492.25 268.47L499.17 267.89L501.65 266.06L502.31 269.02L499.61 271.39L492.25 271.61L492.25 274.82L499.87 274.82L502.67 273L502.67 277.03L499.87 278.92L492.25 278.92L492.25 281.84L502.67 281.84L502.31 285.06L492.25 284.91" id="b14bk7BJW8"></path><path d="M495.31 252.76L497.71 261.53L499.68 271.32L500 285.06L496.34 285.06L496.34 271.32L493.25 254.02" id="a1yH0215ov"></path><path d="M476.02 250.84L470.17 250.62L465.86 248.43L466.81 251.83" id="f2xlS90bt2"></path><path d="M461.7 230.1L461.99 228.27L467.45 227.76L475.71 223.6L475.71 225.92L467.61 229.81L461.99 230.1L462.21 230.96L465.71 231.85L469.44 231.27L475.71 227.98" id="b1s5htYTjs"></path><path d="M497.03 251.36L495.74 249.31L492.25 251.36" id="a19OYY4hsR"></path><path d="M502.38 220.97C503.45 225.4 501.29 234.85 495.88 249.31" id="b2fE6wEr1"></path><path d="M496.62 230.96C496.73 238.5 495.61 245.05 493.25 250.63" id="aAS7eh2LG"></path><path d="M461.92 230.96C463.28 238.99 464.59 244.89 465.86 248.66" id="d20wbvYMip"></path><path d="M465.86 231.85C466.44 237.31 467.44 243.27 468.83 249.75" id="b2hdhm2b8G"></path><path d="M469.95 231.19C470.15 237.77 471.05 244.25 472.68 250.63" id="a1fvBbNBOW"></path><path d="M492.57 228.44C497.45 232.02 500.52 232.52 501.76 229.95" id="jXvCaXi09"></path><path d="M492.4 226.23C496.34 229.76 499.67 230.15 502.38 227.41" id="cCahsXmf"></path><path d="M492.25 224.31C497.22 228.03 500.68 228.03 502.65 224.31" id="aGMUKk8Z"></path><path d="M501.76 230.62L510.44 237.56" id="c1AghihGQ0"></path><path d="M504.71 220.72C509.64 221.72 512.58 216.33 513.2 214.81C511.47 214.55 510.07 213.03 509 210.25C505.97 213.21 504.54 216.71 504.71 220.72Z" id="b2evHdpi5c"></path><path d="M512.18 223.21L510.04 219.66" id="e6En7peAVY"></path><path d="M510.04 220.05C507.79 224.34 505.32 227.04 502.65 228.17" id="f3lQ9ZcCDt"></path><path d="M511.9 225.58C510.17 229.04 507.62 231.46 504.24 232.85" id="ceH2BAjI9"></path><path d="M446.61 214.24C444.52 215.3 441.94 215.55 438.86 214.98" id="c9ukhMftC"></path><path d="M446.93 216.09C445.09 217.79 442.2 218.12 438.27 217.07" id="cdbG3OxCF"></path><path d="M448.68 218.22C446.73 219.88 443.26 220.53 438.27 220.18" id="bps1oRtB"></path><path d="M461.42 225.7C455.31 225.86 453.14 223.47 450.32 222.2C446.89 224.14 442.61 225.06 437.48 224.96" id="bbRhIxueM"></path><path d="M450.53 225.71C447.74 227.27 443.65 228.15 438.27 228.35" id="e1pAvgSWOo"></path><path d="M451.97 230.64C449.21 232.83 445.32 234.26 440.29 234.94" id="a541fKcqDF"></path><path d="M446.13 235.79C445.61 239.31 445.17 245.1 447.77 245.92C449.9 245.37 456.32 241.57 456.53 239.08C456.67 237.41 455.15 234.71 451.97 230.96C449.84 232.36 447.89 233.96 446.13 235.79Z" id="amBZs7H4w"></path><path d="M445.74 236.85C444.87 237.13 443.23 237.33 440.81 237.43" id="i4DnSvT6Hf"></path><path d="M445.74 239.61C444.13 240.35 442.72 240.6 441.51 240.35" id="c21HrS1Ig"></path><path d="M445.74 242.1C445.76 242.92 444.75 243.31 442.73 243.27" id="a3DYly0R3i"></path><path d="M451.97 230.96C450.23 222.64 449.84 217.91 450.8 216.77C452.68 215.77 454.09 213.92 455.05 211.21" id="a6WFd3rCu"></path><path d="M450.96 217.07C456.88 223.83 460.34 223.46 463.38 221.61C462.11 220.56 459.34 217.14 455.05 211.37" id="dlObg36j2"></path><path d="M461.92 230.27C459.42 230.62 455.89 229.7 451.33 227.51" id="a2Ie63doPL"></path><path d="M456.62 238.44C460.72 236.75 462.31 231.52 461.42 222.77" id="b4NTY60wTc"></path></defs><g><g><g><use xlink:href="#aLvtYiW1O" opacity="1" fill="#9b7647" fill-opacity="1"></use></g><g><use xlink:href="#e2ZORbUQ7M" opacity="1" fill="#bababa" fill-opacity="1"></use></g><g><use xlink:href="#bcX39eypG" opacity="1" fill="#9b7647" fill-opacity="1"></use></g><g><g><g><use xlink:href="#aHh2pJKXB" opacity="1" fill-opacity="0" stroke="#6e6e6e" stroke-width="1" stroke-opacity="1"></use></g></g><g><g><use xlink:href="#bXRK0I9wE" opacity="1" fill-opacity="0" stroke="#6e6e6e" stroke-width="1" stroke-opacity="1"></use></g></g><g><g><use xlink:href="#a2brv8Z1Mv" opacity="1" fill-opacity="0" stroke="#6e6e6e" stroke-width="1" stroke-opacity="1"></use></g></g><g><g><use xlink:href="#ek5Jb2lxq" opacity="1" fill-opacity="0" stroke="#6e6e6e" stroke-width="1" stroke-opacity="1"></use></g></g><g><g><use xlink:href="#dZWeu3xye" opacity="1" fill-opacity="0" stroke="#6e6e6e" stroke-width="1" stroke-opacity="1"></use></g></g><g><g><use xlink:href="#cTyablh2" opacity="1" fill-opacity="0" stroke="#6e6e6e" stroke-width="1" stroke-opacity="1"></use></g></g><g><g><use xlink:href="#bledhEDL4" opacity="1" fill-opacity="0" stroke="#6e6e6e" stroke-width="1" stroke-opacity="1"></use></g></g><g><g><use xlink:href="#a1X8B6wf4M" opacity="1" fill-opacity="0" stroke="#6e6e6e" stroke-width="1" stroke-opacity="1"></use></g></g><g><g><use xlink:href="#g3dGqA6xB" opacity="1" fill-opacity="0" stroke="#6e6e6e" stroke-width="1" stroke-opacity="1"></use></g></g><g><g><use xlink:href="#bLNV5XR1q" opacity="1" fill-opacity="0" stroke="#6e6e6e" stroke-width="1" stroke-opacity="1"></use></g></g><g><g><use xlink:href="#b1M1WWjfAN" opacity="1" fill-opacity="0" stroke="#6e6e6e" stroke-width="1" stroke-opacity="1"></use></g></g><g><g><use xlink:href="#d3foXzH50y" opacity="1" fill-opacity="0" stroke="#6e6e6e" stroke-width="1" stroke-opacity="1"></use></g></g><g><g><use xlink:href="#ailk3U0Zg" opacity="1" fill-opacity="0" stroke="#6e6e6e" stroke-width="1" stroke-opacity="1"></use></g></g><g><g><use xlink:href="#aW1Efe1IJ" opacity="1" fill-opacity="0" stroke="#6e6e6e" stroke-width="1" stroke-opacity="1"></use></g></g><g><g><use xlink:href="#d3aNse3ktL" opacity="1" fill-opacity="0" stroke="#6e6e6e" stroke-width="1" stroke-opacity="1"></use></g></g><g><g><use xlink:href="#b2Q6c8hOlk" opacity="1" fill-opacity="0" stroke="#6e6e6e" stroke-width="1" stroke-opacity="1"></use></g></g><g><g><use xlink:href="#i5GUX1wD4n" opacity="1" fill-opacity="0" stroke="#6e6e6e" stroke-width="1" stroke-opacity="1"></use></g></g><g><g><use xlink:href="#b16s5TkcRr" opacity="1" fill-opacity="0" stroke="#6e6e6e" stroke-width="1" stroke-opacity="1"></use></g></g><g><g><use xlink:href="#eMesDVqXf" opacity="1" fill-opacity="0" stroke="#6e6e6e" stroke-width="1" stroke-opacity="1"></use></g></g><g><g><use xlink:href="#c1QrzPT8Iw" opacity="1" fill-opacity="0" stroke="#6e6e6e" stroke-width="1" stroke-opacity="1"></use></g></g><g><g><use xlink:href="#aaoQpQFjU" opacity="1" fill-opacity="0" stroke="#6e6e6e" stroke-width="1" stroke-opacity="1"></use></g></g><g><g><use xlink:href="#akbjEwYdp" opacity="1" fill-opacity="0" stroke="#6e6e6e" stroke-width="1" stroke-opacity="1"></use></g></g><g><g><use xlink:href="#b10SDtya6c" opacity="1" fill-opacity="0" stroke="#6e6e6e" stroke-width="1" stroke-opacity="1"></use></g></g><g><g><use xlink:href="#c1IFZ5agkt" opacity="1" fill-opacity="0" stroke="#6e6e6e" stroke-width="1" stroke-opacity="1"></use></g></g><g><g><use xlink:href="#c1hcNiOxZX" opacity="1" fill-opacity="0" stroke="#6e6e6e" stroke-width="1" stroke-opacity="1"></use></g></g><g><g><use xlink:href="#d33a8yJVR7" opacity="1" fill-opacity="0" stroke="#6e6e6e" stroke-width="1" stroke-opacity="1"></use></g></g><g><g><use xlink:href="#aT8swGS4o" opacity="1" fill-opacity="0" stroke="#6e6e6e" stroke-width="1" stroke-opacity="1"></use></g></g><g><g><use xlink:href="#cHydclEjE" opacity="1" fill-opacity="0" stroke="#6e6e6e" stroke-width="1" stroke-opacity="1"></use></g></g><g><g><use xlink:href="#a3Hfw97QWU" opacity="1" fill-opacity="0" stroke="#6e6e6e" stroke-width="1" stroke-opacity="1"></use></g></g><g><g><use xlink:href="#a4aBabNaTR" opacity="1" fill-opacity="0" stroke="#6e6e6e" stroke-width="1" stroke-opacity="1"></use></g></g><g><g><use xlink:href="#c3hQ0hpi0p" opacity="1" fill-opacity="0" stroke="#6e6e6e" stroke-width="1" stroke-opacity="1"></use></g></g><g><g><use xlink:href="#c1qs16lYDB" opacity="1" fill-opacity="0" stroke="#6e6e6e" stroke-width="1" stroke-opacity="1"></use></g></g><g><g><use xlink:href="#aifvP4Zrh" opacity="1" fill-opacity="0" stroke="#6e6e6e" stroke-width="1" stroke-opacity="1"></use></g></g><g><g><use xlink:href="#c5kwKR7faP" opacity="1" fill-opacity="0" stroke="#6e6e6e" stroke-width="1" stroke-opacity="1"></use></g></g><g><g><use xlink:href="#a5NE4SHvfQ" opacity="1" fill-opacity="0" stroke="#6e6e6e" stroke-width="1" stroke-opacity="1"></use></g></g><g><g><use xlink:href="#b3dHf6zjsc" opacity="1" fill-opacity="0" stroke="#6e6e6e" stroke-width="1" stroke-opacity="1"></use></g></g><g><g><use xlink:href="#m2tt0R50I2" opacity="1" fill-opacity="0" stroke="#6e6e6e" stroke-width="1" stroke-opacity="1"></use></g></g><g><g><use xlink:href="#hCaCj2ai" opacity="1" fill-opacity="0" stroke="#6e6e6e" stroke-width="1" stroke-opacity="1"></use></g></g><g><g><use xlink:href="#akiAl9om1" opacity="1" fill-opacity="0" stroke="#6e6e6e" stroke-width="1" stroke-opacity="1"></use></g></g><g><g><use xlink:href="#a3BR7fhESS" opacity="1" fill-opacity="0" stroke="#6e6e6e" stroke-width="1" stroke-opacity="1"></use></g></g><g><g><use xlink:href="#i4kFKQPc1Q" opacity="1" fill-opacity="0" stroke="#6e6e6e" stroke-width="1" stroke-opacity="1"></use></g></g><g><g><use xlink:href="#bXgFYuV9X" opacity="1" fill-opacity="0" stroke="#6e6e6e" stroke-width="1" stroke-opacity="1"></use></g></g><g><g><use xlink:href="#e1h9DtPM2G" opacity="1" fill-opacity="0" stroke="#6e6e6e" stroke-width="1" stroke-opacity="1"></use></g></g><g><g><use xlink:href="#b1OOuuLNGS" opacity="1" fill-opacity="0" stroke="#6e6e6e" stroke-width="1" stroke-opacity="1"></use></g></g><g><g><use xlink:href="#brnek5KSV" opacity="1" fill-opacity="0" stroke="#6e6e6e" stroke-width="1" stroke-opacity="1"></use></g></g><g><g><use xlink:href="#bVeZ8BCyi" opacity="1" fill-opacity="0" stroke="#6e6e6e" stroke-width="1" stroke-opacity="1"></use></g></g><g><g><use xlink:href="#fSzob9THV" opacity="1" fill-opacity="0" stroke="#6e6e6e" stroke-width="1" stroke-opacity="1"></use></g></g><g><g><use xlink:href="#aajAiveG4" opacity="1" fill-opacity="0" stroke="#6e6e6e" stroke-width="1" stroke-opacity="1"></use></g></g><g><g><use xlink:href="#n1IIgMaORO" opacity="1" fill-opacity="0" stroke="#6e6e6e" stroke-width="1" stroke-opacity="1"></use></g></g><g><g><use xlink:href="#c33nw27Vmk" opacity="1" fill-opacity="0" stroke="#6e6e6e" stroke-width="1" stroke-opacity="1"></use></g></g><g><g><use xlink:href="#gIDZtejRs" opacity="1" fill-opacity="0" stroke="#6e6e6e" stroke-width="1" stroke-opacity="1"></use></g></g><g><g><use xlink:href="#c3j7K9pBBv" opacity="1" fill-opacity="0" stroke="#6e6e6e" stroke-width="1" stroke-opacity="1"></use></g></g><g><g><use xlink:href="#abO6HZUnV" opacity="1" fill-opacity="0" stroke="#6e6e6e" stroke-width="1" stroke-opacity="1"></use></g></g><g><g><use xlink:href="#d3s6OixzY7" opacity="1" fill-opacity="0" stroke="#6e6e6e" stroke-width="1" stroke-opacity="1"></use></g></g><g><g><use xlink:href="#b7HdyytD4p" opacity="1" fill-opacity="0" stroke="#6e6e6e" stroke-width="1" stroke-opacity="1"></use></g></g><g><g><use xlink:href="#aQZlBkblC" opacity="1" fill-opacity="0" stroke="#6e6e6e" stroke-width="1" stroke-opacity="1"></use></g></g><g><g><use xlink:href="#ddAOSEP5h" opacity="1" fill-opacity="0" stroke="#6e6e6e" stroke-width="1" stroke-opacity="1"></use></g></g><g><g><use xlink:href="#c411pgSSz" opacity="1" fill-opacity="0" stroke="#6e6e6e" stroke-width="1" stroke-opacity="1"></use></g></g><g><g><use xlink:href="#b4E88mW1j8" opacity="1" fill-opacity="0" stroke="#6e6e6e" stroke-width="1" stroke-opacity="1"></use></g></g><g><g><use xlink:href="#aOK17IDD8" opacity="1" fill-opacity="0" stroke="#6e6e6e" stroke-width="1" stroke-opacity="1"></use></g></g><g><g><use xlink:href="#dDi7HZJtX" opacity="1" fill-opacity="0" stroke="#6e6e6e" stroke-width="1" stroke-opacity="1"></use></g></g><g><g><use xlink:href="#c34suSRgTB" opacity="1" fill-opacity="0" stroke="#6e6e6e" stroke-width="1" stroke-opacity="1"></use></g></g><g><g><use xlink:href="#bFukMvMiV" opacity="1" fill-opacity="0" stroke="#6e6e6e" stroke-width="1" stroke-opacity="1"></use></g></g><g><g><use xlink:href="#bcZSUV7Qe" opacity="1" fill-opacity="0" stroke="#6e6e6e" stroke-width="1" stroke-opacity="1"></use></g></g><g><g><use xlink:href="#auBcoz8Zl" opacity="1" fill-opacity="0" stroke="#6e6e6e" stroke-width="1" stroke-opacity="1"></use></g></g><g><g><use xlink:href="#a6pa8SIf7F" opacity="1" fill-opacity="0" stroke="#6e6e6e" stroke-width="1" stroke-opacity="1"></use></g></g><g><g><use xlink:href="#c3x0eFQtMA" opacity="1" fill-opacity="0" stroke="#6e6e6e" stroke-width="1" stroke-opacity="1"></use></g></g><g><g><use xlink:href="#b1HxwB42Ih" opacity="1" fill-opacity="0" stroke="#6e6e6e" stroke-width="1" stroke-opacity="1"></use></g></g><g><g><use xlink:href="#b6fb0RaV" opacity="1" fill-opacity="0" stroke="#6e6e6e" stroke-width="1" stroke-opacity="1"></use></g></g><g><g><use xlink:href="#g4tOCgzB7D" opacity="1" fill-opacity="0" stroke="#6e6e6e" stroke-width="1" stroke-opacity="1"></use></g></g><g><g><use xlink:href="#b8tMtBsQt" opacity="1" fill-opacity="0" stroke="#6e6e6e" stroke-width="1" stroke-opacity="1"></use></g></g><g><g><use xlink:href="#c5fkNlz8" opacity="1" fill-opacity="0" stroke="#6e6e6e" stroke-width="1" stroke-opacity="1"></use></g></g><g><g><use xlink:href="#c6gM1sA44X" opacity="1" fill-opacity="0" stroke="#6e6e6e" stroke-width="1" stroke-opacity="1"></use></g></g><g><g><use xlink:href="#b14bk7BJW8" opacity="1" fill-opacity="0" stroke="#6e6e6e" stroke-width="1" stroke-opacity="1"></use></g></g><g><g><use xlink:href="#a1yH0215ov" opacity="1" fill-opacity="0" stroke="#6e6e6e" stroke-width="1" stroke-opacity="1"></use></g></g><g><g><use xlink:href="#f2xlS90bt2" opacity="1" fill-opacity="0" stroke="#6e6e6e" stroke-width="1" stroke-opacity="1"></use></g></g><g><g><use xlink:href="#b1s5htYTjs" opacity="1" fill-opacity="0" stroke="#6e6e6e" stroke-width="1" stroke-opacity="1"></use></g></g><g><g><use xlink:href="#a19OYY4hsR" opacity="1" fill-opacity="0" stroke="#6e6e6e" stroke-width="1" stroke-opacity="1"></use></g></g><g><g><use xlink:href="#b2fE6wEr1" opacity="1" fill-opacity="0" stroke="#6e6e6e" stroke-width="1" stroke-opacity="1"></use></g></g><g><g><use xlink:href="#aAS7eh2LG" opacity="1" fill-opacity="0" stroke="#6e6e6e" stroke-width="1" stroke-opacity="1"></use></g></g><g><g><use xlink:href="#d20wbvYMip" opacity="1" fill-opacity="0" stroke="#6e6e6e" stroke-width="1" stroke-opacity="1"></use></g></g><g><g><use xlink:href="#b2hdhm2b8G" opacity="1" fill-opacity="0" stroke="#6e6e6e" stroke-width="1" stroke-opacity="1"></use></g></g><g><g><use xlink:href="#a1fvBbNBOW" opacity="1" fill-opacity="0" stroke="#6e6e6e" stroke-width="1" stroke-opacity="1"></use></g></g><g><g><use xlink:href="#jXvCaXi09" opacity="1" fill-opacity="0" stroke="#6e6e6e" stroke-width="1" stroke-opacity="1"></use></g></g><g><g><use xlink:href="#cCahsXmf" opacity="1" fill-opacity="0" stroke="#6e6e6e" stroke-width="1" stroke-opacity="1"></use></g></g><g><g><use xlink:href="#aGMUKk8Z" opacity="1" fill-opacity="0" stroke="#6e6e6e" stroke-width="1" stroke-opacity="1"></use></g></g><g><g><use xlink:href="#c1AghihGQ0" opacity="1" fill-opacity="0" stroke="#6e6e6e" stroke-width="1" stroke-opacity="1"></use></g></g><g><g><use xlink:href="#b2evHdpi5c" opacity="1" fill-opacity="0" stroke="#6e6e6e" stroke-width="1" stroke-opacity="1"></use></g></g><g><g><use xlink:href="#e6En7peAVY" opacity="1" fill-opacity="0" stroke="#6e6e6e" stroke-width="1" stroke-opacity="1"></use></g></g><g><g><use xlink:href="#f3lQ9ZcCDt" opacity="1" fill-opacity="0" stroke="#6e6e6e" stroke-width="1" stroke-opacity="1"></use></g></g><g><g><use xlink:href="#ceH2BAjI9" opacity="1" fill-opacity="0" stroke="#6e6e6e" stroke-width="1" stroke-opacity="1"></use></g></g><g><g><use xlink:href="#c9ukhMftC" opacity="1" fill-opacity="0" stroke="#6e6e6e" stroke-width="1" stroke-opacity="1"></use></g></g><g><g><use xlink:href="#cdbG3OxCF" opacity="1" fill-opacity="0" stroke="#6e6e6e" stroke-width="1" stroke-opacity="1"></use></g></g><g><g><use xlink:href="#bps1oRtB" opacity="1" fill-opacity="0" stroke="#6e6e6e" stroke-width="1" stroke-opacity="1"></use></g></g><g><g><use xlink:href="#bbRhIxueM" opacity="1" fill-opacity="0" stroke="#6e6e6e" stroke-width="1" stroke-opacity="1"></use></g></g><g><g><use xlink:href="#e1pAvgSWOo" opacity="1" fill-opacity="0" stroke="#6e6e6e" stroke-width="1" stroke-opacity="1"></use></g></g><g><g><use xlink:href="#a541fKcqDF" opacity="1" fill-opacity="0" stroke="#6e6e6e" stroke-width="1" stroke-opacity="1"></use></g></g><g><g><use xlink:href="#amBZs7H4w" opacity="1" fill-opacity="0" stroke="#6e6e6e" stroke-width="1" stroke-opacity="1"></use></g></g><g><g><use xlink:href="#i4DnSvT6Hf" opacity="1" fill-opacity="0" stroke="#6e6e6e" stroke-width="1" stroke-opacity="1"></use></g></g><g><g><use xlink:href="#c21HrS1Ig" opacity="1" fill-opacity="0" stroke="#6e6e6e" stroke-width="1" stroke-opacity="1"></use></g></g><g><g><use xlink:href="#a3DYly0R3i" opacity="1" fill-opacity="0" stroke="#6e6e6e" stroke-width="1" stroke-opacity="1"></use></g></g><g><g><use xlink:href="#a6WFd3rCu" opacity="1" fill-opacity="0" stroke="#6e6e6e" stroke-width="1" stroke-opacity="1"></use></g></g><g><g><use xlink:href="#dlObg36j2" opacity="1" fill-opacity="0" stroke="#6e6e6e" stroke-width="1" stroke-opacity="1"></use></g></g><g><g><use xlink:href="#a2Ie63doPL" opacity="1" fill-opacity="0" stroke="#6e6e6e" stroke-width="1" stroke-opacity="1"></use></g></g><g><g><use xlink:href="#b4NTY60wTc" opacity="1" fill-opacity="0" stroke="#6e6e6e" stroke-width="1" stroke-opacity="1"></use></g></g></g></g></g></svg>