<?xml version="1.0" encoding="UTF-8" standalone="no"?>
<!DOCTYPE svg PUBLIC "-//W3C//DTD SVG 1.1//EN" "http://www.w3.org/Graphics/SVG/1.1/DTD/svg11.dtd">
<svg version="1.1" xmlns="http://www.w3.org/2000/svg" xmlns:xlink="http://www.w3.org/1999/xlink" preserveAspectRatio="xMidYMid meet" viewBox="327.36670838548184 108.11962248415034 261.9999999999999 262.00000000000006" width="262" height="262"><defs><path d="M327.37 108.12L589.37 108.12L589.37 370.12L327.37 370.12L327.37 108.12Z" id="b5zs65TUxS"></path><path d="M400.9 124.93L426.12 124.93L425.77 370.12L402.76 370.12L400.9 124.93Z" id="a82bsX5yc"></path><path d="M426.12 131.72L447.1 131.72L446.76 370.12L425.73 370.12L426.12 131.72Z" id="deXZzUEzk"></path><path d="M447.1 138.22L466.53 138.73L466.21 370.12L446.72 370.12L447.1 138.22Z" id="cjIv5hYGD"></path><path d="M466.53 145.36L486.04 145.36L487.75 370.12L466.15 370.12L466.53 145.36Z" id="eU2BFW8S5"></path><path d="M493.05 347.17L494.76 346.91L494.76 344.01L496.12 344.01L496.46 334.12L493.05 334.12L493.39 328.15L504.99 328.15L516.72 307.56L504.77 265.92L507.3 191.28L498.09 198.87L486.26 196.14L486.26 184.13L494.45 166.65L490.87 162.31L500.42 153.47L509.01 153.11L509.52 143.22L513.7 149.27L515.57 143.81L514.89 125.4L517.19 125.66L517.54 122.31L521.46 121.55L521.46 118.58L524.53 117.81L524.53 108.44L528.36 108.44L528.36 118.58L532.28 119.35L532.47 121.55L535.8 122.31L535.8 125.13L539.21 126.58L536.34 144.03L538.83 148.63L540.71 145.39L543.52 152.81L550.9 153.47L555.85 157.9L559.85 159.18L556.97 163.18L557.72 169.07L579.8 172.22L570.79 231.08L558.82 258.59L559.25 266.86L551.94 283.83L543.33 292.06L540.43 309.71L548.87 322.33L546.91 329.32L553.39 329.32L553.39 335.55L550.66 337.68L550.66 343.56L551.69 343.56L551.69 347.82L553.39 347.82L553.73 355.24L557.31 355.24L556.97 366.15L536.34 369.9L504.29 369.65L487.75 365.3L487.75 353.19L492.35 350.89L493.05 347.17Z" id="bqYaYEE1D"></path><path d="M553.75 355.18C548.29 351.37 527.95 349.75 492.71 350.32" id="a1yggzlsom"></path><path d="M551.24 343.73C540.33 341.8 521.83 342 495.74 344.33" id="e13SaAwtN3"></path><path d="M550.99 337.34C545.42 333.47 527.09 332.36 496 334.01" id="cdkJZfC0d"></path><path d="M512.17 327.99C510.31 323.47 508 323.47 505.23 327.99" id="b4Wu6iBoQ"></path><path d="M516.4 327.99C516.34 324.09 513.89 321.67 509.04 320.71" id="b3LCtCjK"></path><path d="M523.23 328.66C520.45 321.33 516.12 317.81 510.23 318.09" id="bicPzfxd0"></path><path d="M522.32 326.29C522.72 318.34 519.33 314.56 512.17 314.96" id="aZDpk1Kdy"></path><path d="M522.99 314.93C521.06 311.6 517.96 310.91 513.69 312.84" id="b6hVdUWdq9"></path><path d="M548.55 321.56C545.84 321.78 543.56 324.15 541.7 328.66" id="a1xkMAntzr"></path><path d="M546.35 318.68C542.01 318.96 538.74 322.18 536.54 328.32" id="e4LiQbmG10"></path><path d="M544.57 317.07C538.37 317.24 533.66 320.99 530.45 328.32" id="bbpfcsoaJ"></path><path d="M543.98 314.93C541.05 312.54 536.76 313.48 531.12 317.75" id="b51DlnlC0n"></path><path d="M540.85 310.73C538.2 309.54 534.96 309.99 531.12 312.08" id="aYWvB5sVf"></path><path d="M523.09 210.74L531.12 210.74L531.12 324.6L527.57 329.34L522.75 323.84L523.09 210.74Z" id="a7XYd99Q4M"></path><path d="M526.93 210.74L527.37 329.34" id="b3dHqZ1jDs"></path><path d="M545.52 234.99C544.99 241.49 544.4 247.25 543.74 252.25C544.71 255.53 550.5 257.58 543.98 264.35C543.87 271.01 543.56 280.28 543.07 292.18" id="f1IuEdYV2I"></path><path d="M509.31 279.49C508.72 274.35 508.38 269.31 508.3 264.34C502.59 255.12 507.92 253.13 508.8 249.71C508.89 244.66 508.89 239.44 508.8 234.06" id="a72DpZxbE1"></path><path d="M522.75 210.74C511.41 209.54 507.03 211.55 506.18 233.37C509.23 234.44 514.75 234.67 522.75 234.06" id="leqhi5GZB"></path><path d="M531.39 210.74C546.2 211.07 546.77 225.01 546.28 234.39C543.87 235.12 538.82 235.01 531.12 234.06" id="aJvZifMxj"></path><path d="M540.53 213.9C543.35 210.91 544.85 208.99 545.05 208.15C538.07 202.05 506.23 203.07 506.52 208.15C506.82 208.77 508.09 210.68 510.33 213.9" id="fbIsThsBB"></path><path d="M543.58 210.74C530.77 206.2 518.75 206.01 507.5 210.18" id="aDNWWMyuT"></path><path d="M530.46 177.8C530.46 179.74 528.58 181.41 526.4 181.35C524.22 181.29 522.09 179.74 522.09 177.8C522.09 175.85 524.22 173.84 526.4 173.91C528.58 173.97 530.46 175.85 530.46 177.8Z" id="d4o7YRino8"></path><path d="M522.75 203.95L522.75 201.57L529.45 201.57L529.45 198.1L522.75 198.1L522.75 194.3L529.45 194.3L529.45 190.23L522.75 190.23L522.75 187.19L529.45 187.19L529.45 183.38L522.75 183.38L522.75 180.25" id="b4zdGQJCF"></path><path d="M522.75 204.19L522.75 179.32" id="d2nYNYGswW"></path><path d="M529.45 203.95L529.45 180" id="apExGyMvv"></path><path d="M509.74 205.69C510.12 201.35 509.24 196.44 507.1 190.96" id="bC43Z0Cdd"></path><path d="M542.6 206.73C542.23 201.95 543.23 197.82 545.63 194.36" id="b4AZ96pL6N"></path><path d="M525.23 164.14C533.03 163.19 535.76 167.14 538.17 171.23C539.16 173.42 538.5 177.26 534.48 177.93C526.78 169.91 523.93 174.87 522.09 173.9C517.7 169.73 521.21 164.81 525.23 164.14Z" id="a7TFIlBrop"></path><path d="M538.57 174.26C545.27 176.52 551.02 178.98 555.83 181.62C563.05 185.59 562.73 190.78 562.54 192.77C557.44 202.4 549.62 201.95 548.28 199.75C547.38 198.29 542.79 191.01 534.49 177.93" id="c2eUn3dNa"></path><path d="M555.08 181.62C554.2 184.9 550.85 189.14 545.05 194.36" id="acUA65aZJ"></path><path d="M551.39 179.55C550.26 183.01 547.31 186.66 542.53 190.5" id="a70SUHaowF"></path><path d="" id="a2aqBkTurq"></path><path d="M562.82 191.76C564.14 188.88 562.51 183.05 557.91 174.26L546.39 175.67L545.92 172.56L557.44 172.09L557.06 167.74L545.92 169.82" id="a1uBPgpXKG"></path><path d="M546.39 177.09L545.35 167.36" id="e4zq6PCT1"></path><path d="M558 174.64L557.25 171.99" id="d3eYgfyrM"></path><path d="M535.91 167.36L542.9 152.82" id="bzI8NbUpN"></path><path d="M537.8 170.57L557.25 162.74" id="aJo0v1E8F"></path><path d="M537.8 164L557.63 156.5" id="f2KfOvhMWz"></path><path d="M522.75 174.26C511.71 185.95 504.07 193.62 499.83 197.26C490.16 201.79 483.51 194.19 489.35 186.69C493.86 182.5 504.25 176.3 520.51 168.08" id="b2h60EuYjn"></path><path d="M503.98 193.49C500.08 192.04 496.52 188.66 493.31 183.35" id="a1i4o7Cbin"></path><path d="M507.1 190.5C501.87 187.19 498.66 183.96 497.47 180.83" id="anvZF66Eq"></path><path d="M504.64 176.55C504.14 173.96 505.09 170.9 507.5 167.36" id="c31ikE8wdZ"></path><path d="M502.28 177.63L489.63 177.09" id="d76uuceXI"></path><path d="M504.51 173.52C502.22 172.64 498.02 172.04 491.9 171.73" id="aEAM1qZIU"></path><path d="M505.68 170.12C503.16 167.98 499.39 167.06 494.35 167.36" id="a3YiFXg1m"></path><path d="M516.16 170.57L490.67 162.1" id="a4872Apnf"></path><path d="M519.19 168.72L508.8 153.32" id="jTPt8kCeP"></path><path d="M516.16 164.74L497.09 156.5" id="b4GPF3iIey"></path><path d="M522.4 165.59L509.36 143.4" id="gEbeM5FKt"></path><path d="M530.71 164.36L540.9 146.05" id="bAVhzKufn"></path><path d="M536.56 143.68L526.74 158.23L515.88 143.68" id="avXfnYVV2"></path><path d="M537.03 137.81L526.27 147.82L515.31 138.38" id="b4dHKqaYE"></path><path d="M538.57 131.1L526.27 138.56L515.69 132.9" id="bKmTVfgs4"></path><path d="M538.92 126.95L526.27 134.22L515.03 125.53" id="coFk0Piuq"></path><path d="M527.97 117.88L524.38 117.6" id="b3KwWmwn1"></path><path d="M526.27 134.22L526.27 117.6" id="d4wL6uZOI"></path><path d="M526.27 147.54L526.27 138.56" id="aaD0CETgp"></path><path d="M388.56 227.23L389.61 306.17L397.1 317.62L394.17 324.73L396.87 327.36L393.78 332.7L393.78 337.84L389.86 342.46L389.61 345.74L393.46 348.7L393.01 353.39L397.51 355.83L397.7 369.65L332.95 369.78L332.79 354.75L335.14 354.23L335.27 345.56L337.9 344.41L337.39 337.21L334.56 335.41L335.59 330.78L331.28 326.99L338.3 316.82L332.79 181.99L338.51 170.49L347.83 166.6L346.03 155.03L351.49 155.03L348.67 147.12L351.88 139.15L361.65 131.89L371.93 139.56L373.34 146.44L370.48 154.34L377.92 153.99L376.09 165.55L388.56 167.61L392.45 177.33L400.9 178.25L388.56 227.23Z" id="c3KULR37Ve"></path><path d="" id="a8JNUErIXr"></path><path d="M372.74 145.92L350.85 146.29" id="afacucuz0"></path><path d="M372.53 145.76C365.14 148.53 358.06 148.7 351.27 146.29" id="abtShuPsV"></path><path d="M372.9 145.76C355.75 155.19 360.1 149.35 350.37 146.29" id="f2nkY0vF6d"></path><path d="M372.37 145.92C360.33 158.81 358.21 154.25 350.37 146.66" id="b2gOiOJNhW"></path><path d="M354.74 168.29C358.23 169.54 362.63 169.48 367.95 168.13C366.75 162.7 368.47 155.24 373.12 145.76C362.71 159.29 360.88 160.26 349.35 147.25C353.55 152.99 354.78 163.82 354.74 168.29Z" id="d1RrW57JPn"></path><path d="M352.07 146.29L352.07 139.31" id="g30ODmsddm"></path><path d="M355.11 145.92L355.11 136.38" id="a3ntAmV9rU"></path><path d="M357.67 145.92L357.51 135.47" id="a41LGKrBKR"></path><path d="M359.69 145.92L359.58 132.57" id="afA7rFAMI"></path><path d="M363.21 145.92L363.53 133.8" id="eblzOIZpl"></path><path d="M366.24 145.92L365.87 135.34" id="f4v3ITNBMA"></path><path d="M369.17 145.92L369.01 137.47" id="dOZ1cCQcF"></path><path d="M371.36 145.92L371.36 140.08" id="i1dO37QGwN"></path><path d="M361.37 171.99C353.46 168.85 348.78 160.89 348.98 155.26" id="a33KJBuD66"></path><path d="M363.53 173.06C370.59 170.71 374.59 164.55 375.51 154.57" id="h2ywMrjDvB"></path><path d="M358.47 175.88C351.04 170.8 347.03 163.86 346.42 155.05" id="c5IH6CgK3K"></path><path d="M377.32 154.57C377.11 164.98 372.89 172.08 364.65 175.88" id="a60e9oyrqO"></path><path d="M364.31 183.62C360.16 177.31 358.87 178.28 358.47 175.59C358.06 172.9 360.5 171.33 362.67 172.86C364.84 174.39 364.12 175.82 367.15 181.7C371.44 187.04 373.25 189.76 379.82 194.21C377.1 198.12 374.58 201.34 370.26 202.57C369.94 196.37 367.26 190.36 364.31 183.62Z" id="i508qoiqzP"></path><path d="M343.28 197.89C349.15 195.05 354.57 188.46 359.56 178.12" id="aKjPvxq4k"></path><path d="M363.38 182.35C359.6 195.59 356.02 205.26 352.62 211.35C347.53 220.48 338.74 217.36 338.04 212.77C337.34 208.18 337.97 190.61 338.04 183.59C343.35 182.19 345.79 182.33 348.98 183.59C348.04 185.55 347.98 188.83 348.8 193.42" id="b5C2Py6gLO"></path><path d="M350.38 168.3C343.07 169.75 338.97 174.83 338.1 183.53" id="d8D0913bGQ"></path><path d="M370.25 202.29C371.26 209.32 371.97 213.27 372.38 214.15C372.99 215.46 377.82 221.17 382.54 214.75C387.25 208.33 388.47 185.2 388.38 182.35C387.03 181.3 380.75 180.19 377.57 181.76C378.03 184.12 377.61 187.29 376.31 191.26" id="e3LjbtNSLu"></path><path d="M388.38 182.35C390.03 173.47 385.49 168.21 374.78 166.55" id="moPYgGy8Z"></path><path d="M361.26 207.88L361.69 187.73" id="hhdPERRZV"></path><path d="M368.52 208.26L368.3 193.52" id="bm8qJloKg"></path><path d="M364.48 224.68C368.1 224.73 371.52 220.15 371.52 215.67C371.52 211.19 368.59 206.88 364.48 206.77C360.37 206.66 357.05 210.97 357.05 215.45C357.05 219.93 360.86 224.63 364.48 224.68Z" id="a43UA0gF7"></path><path d="M389.29 226.39C391.09 208.29 395.11 177.83 387.72 167.76" id="cOKpi3jsZ"></path><path d="M378.47 217.74C381.59 225.57 383.01 233.56 382.75 241.72C380.01 239.28 378.38 236.49 372.86 235.97C373.41 231.27 373.64 224.52 373.55 215.72" id="a1tORMdPqt"></path><path d="M357.63 219.18C356.21 226.92 355.65 233.04 355.93 237.53C353.37 238.24 348.88 239.25 344.06 245.03C342.81 241.45 344.27 231.81 348.43 216.09" id="abvKeCw9P"></path><path d="M368.95 222.58L365.76 334.18L359.24 334.18L360.93 223.27" id="ewJsaBrcp"></path><path d="M346.25 332.08C342.04 327.95 341.32 321.51 340.84 319.44C340.37 317.37 344.18 302.99 344.66 299.96C345.14 296.94 341.94 280.28 341.46 276.63C341.15 274.19 342.87 262.82 346.64 242.51" id="a2tqLeLnCU"></path><path d="M381.94 240.61C386.39 279.28 388.43 303.54 388.06 313.4C392.35 320.5 391.59 327.02 385.76 332.95" id="dA2riV3eV"></path><path d="M393.94 332.44C386 333.07 337.15 338.88 331.78 326.4" id="b8LqwpjjX"></path><path d="M390.29 343.28C378.21 342.72 346.53 350.57 337.35 337.32" id="fis85sgxU"></path><path d="M335.44 346.54C345.24 352.42 363.18 352.26 389.25 346.06" id="apA0ho3yM"></path><path d="M335.44 353.45C342.22 359.18 361.22 358.94 392.43 352.74" id="b2CZw5x9x"></path></defs><g><g><g><use xlink:href="#b5zs65TUxS" opacity="1" fill="#9b7647" fill-opacity="1"></use></g><g><use xlink:href="#a82bsX5yc" opacity="1" fill="#04798d" fill-opacity="1"></use></g><g><use xlink:href="#deXZzUEzk" opacity="1" fill="#d2a464" fill-opacity="1"></use></g><g><use xlink:href="#cjIv5hYGD" opacity="1" fill="#175e6f" fill-opacity="1"></use></g><g><use xlink:href="#eU2BFW8S5" opacity="1" fill="#2e8086" fill-opacity="1"></use></g><g><use xlink:href="#bqYaYEE1D" opacity="1" fill="#bababa" fill-opacity="1"></use></g><g><g><g><use xlink:href="#a1yggzlsom" opacity="1" fill-opacity="0" stroke="#6e6e6e" stroke-width="1" stroke-opacity="1"></use></g></g><g><g><use xlink:href="#e13SaAwtN3" opacity="1" fill-opacity="0" stroke="#6e6e6e" stroke-width="1" stroke-opacity="1"></use></g></g><g><g><use xlink:href="#cdkJZfC0d" opacity="1" fill-opacity="0" stroke="#6e6e6e" stroke-width="1" stroke-opacity="1"></use></g></g><g><g><use xlink:href="#b4Wu6iBoQ" opacity="1" fill-opacity="0" stroke="#6e6e6e" stroke-width="1" stroke-opacity="1"></use></g></g><g><g><use xlink:href="#b3LCtCjK" opacity="1" fill-opacity="0" stroke="#6e6e6e" stroke-width="1" stroke-opacity="1"></use></g></g><g><g><use xlink:href="#bicPzfxd0" opacity="1" fill-opacity="0" stroke="#6e6e6e" stroke-width="1" stroke-opacity="1"></use></g></g><g><g><use xlink:href="#aZDpk1Kdy" opacity="1" fill-opacity="0" stroke="#6e6e6e" stroke-width="1" stroke-opacity="1"></use></g></g><g><g><use xlink:href="#b6hVdUWdq9" opacity="1" fill-opacity="0" stroke="#6e6e6e" stroke-width="1" stroke-opacity="1"></use></g></g><g><g><use xlink:href="#a1xkMAntzr" opacity="1" fill-opacity="0" stroke="#6e6e6e" stroke-width="1" stroke-opacity="1"></use></g></g><g><g><use xlink:href="#e4LiQbmG10" opacity="1" fill-opacity="0" stroke="#6e6e6e" stroke-width="1" stroke-opacity="1"></use></g></g><g><g><use xlink:href="#bbpfcsoaJ" opacity="1" fill-opacity="0" stroke="#6e6e6e" stroke-width="1" stroke-opacity="1"></use></g></g><g><g><use xlink:href="#b51DlnlC0n" opacity="1" fill-opacity="0" stroke="#6e6e6e" stroke-width="1" stroke-opacity="1"></use></g></g><g><g><use xlink:href="#aYWvB5sVf" opacity="1" fill-opacity="0" stroke="#6e6e6e" stroke-width="1" stroke-opacity="1"></use></g></g><g><g><use xlink:href="#a7XYd99Q4M" opacity="1" fill-opacity="0" stroke="#6e6e6e" stroke-width="1" stroke-opacity="1"></use></g></g><g><g><use xlink:href="#b3dHqZ1jDs" opacity="1" fill-opacity="0" stroke="#6e6e6e" stroke-width="1" stroke-opacity="1"></use></g></g><g><g><use xlink:href="#f1IuEdYV2I" opacity="1" fill-opacity="0" stroke="#6e6e6e" stroke-width="1" stroke-opacity="1"></use></g></g><g><g><use xlink:href="#a72DpZxbE1" opacity="1" fill-opacity="0" stroke="#6e6e6e" stroke-width="1" stroke-opacity="1"></use></g></g><g><g><use xlink:href="#leqhi5GZB" opacity="1" fill-opacity="0" stroke="#6e6e6e" stroke-width="1" stroke-opacity="1"></use></g></g><g><g><use xlink:href="#aJvZifMxj" opacity="1" fill-opacity="0" stroke="#6e6e6e" stroke-width="1" stroke-opacity="1"></use></g></g><g><g><use xlink:href="#fbIsThsBB" opacity="1" fill-opacity="0" stroke="#6e6e6e" stroke-width="1" stroke-opacity="1"></use></g></g><g><g><use xlink:href="#aDNWWMyuT" opacity="1" fill-opacity="0" stroke="#6e6e6e" stroke-width="1" stroke-opacity="1"></use></g></g><g><g><use xlink:href="#d4o7YRino8" opacity="1" fill-opacity="0" stroke="#6e6e6e" stroke-width="1" stroke-opacity="1"></use></g></g><g><g><use xlink:href="#b4zdGQJCF" opacity="1" fill-opacity="0" stroke="#6e6e6e" stroke-width="1" stroke-opacity="1"></use></g></g><g><g><use xlink:href="#d2nYNYGswW" opacity="1" fill-opacity="0" stroke="#6e6e6e" stroke-width="1" stroke-opacity="1"></use></g></g><g><g><use xlink:href="#apExGyMvv" opacity="1" fill-opacity="0" stroke="#6e6e6e" stroke-width="1" stroke-opacity="1"></use></g></g><g><g><use xlink:href="#bC43Z0Cdd" opacity="1" fill-opacity="0" stroke="#6e6e6e" stroke-width="1" stroke-opacity="1"></use></g></g><g><g><use xlink:href="#b4AZ96pL6N" opacity="1" fill-opacity="0" stroke="#6e6e6e" stroke-width="1" stroke-opacity="1"></use></g></g><g><g><use xlink:href="#a7TFIlBrop" opacity="1" fill-opacity="0" stroke="#6e6e6e" stroke-width="1" stroke-opacity="1"></use></g></g><g><g><use xlink:href="#c2eUn3dNa" opacity="1" fill-opacity="0" stroke="#6e6e6e" stroke-width="1" stroke-opacity="1"></use></g></g><g><g><use xlink:href="#acUA65aZJ" opacity="1" fill-opacity="0" stroke="#6e6e6e" stroke-width="1" stroke-opacity="1"></use></g></g><g><g><use xlink:href="#a70SUHaowF" opacity="1" fill-opacity="0" stroke="#6e6e6e" stroke-width="1" stroke-opacity="1"></use></g></g><g><g><use xlink:href="#a2aqBkTurq" opacity="1" fill-opacity="0" stroke="#6e6e6e" stroke-width="1" stroke-opacity="1"></use></g></g><g><g><use xlink:href="#a1uBPgpXKG" opacity="1" fill-opacity="0" stroke="#6e6e6e" stroke-width="1" stroke-opacity="1"></use></g></g><g><g><use xlink:href="#e4zq6PCT1" opacity="1" fill-opacity="0" stroke="#6e6e6e" stroke-width="1" stroke-opacity="1"></use></g></g><g><g><use xlink:href="#d3eYgfyrM" opacity="1" fill-opacity="0" stroke="#6e6e6e" stroke-width="1" stroke-opacity="1"></use></g></g><g><g><use xlink:href="#bzI8NbUpN" opacity="1" fill-opacity="0" stroke="#6e6e6e" stroke-width="1" stroke-opacity="1"></use></g></g><g><g><use xlink:href="#aJo0v1E8F" opacity="1" fill-opacity="0" stroke="#6e6e6e" stroke-width="1" stroke-opacity="1"></use></g></g><g><g><use xlink:href="#f2KfOvhMWz" opacity="1" fill-opacity="0" stroke="#6e6e6e" stroke-width="1" stroke-opacity="1"></use></g></g><g><g><use xlink:href="#b2h60EuYjn" opacity="1" fill-opacity="0" stroke="#6e6e6e" stroke-width="1" stroke-opacity="1"></use></g></g><g><g><use xlink:href="#a1i4o7Cbin" opacity="1" fill-opacity="0" stroke="#6e6e6e" stroke-width="1" stroke-opacity="1"></use></g></g><g><g><use xlink:href="#anvZF66Eq" opacity="1" fill-opacity="0" stroke="#6e6e6e" stroke-width="1" stroke-opacity="1"></use></g></g><g><g><use xlink:href="#c31ikE8wdZ" opacity="1" fill-opacity="0" stroke="#6e6e6e" stroke-width="1" stroke-opacity="1"></use></g></g><g><g><use xlink:href="#d76uuceXI" opacity="1" fill-opacity="0" stroke="#6e6e6e" stroke-width="1" stroke-opacity="1"></use></g></g><g><g><use xlink:href="#aEAM1qZIU" opacity="1" fill-opacity="0" stroke="#6e6e6e" stroke-width="1" stroke-opacity="1"></use></g></g><g><g><use xlink:href="#a3YiFXg1m" opacity="1" fill-opacity="0" stroke="#6e6e6e" stroke-width="1" stroke-opacity="1"></use></g></g><g><g><use xlink:href="#a4872Apnf" opacity="1" fill-opacity="0" stroke="#6e6e6e" stroke-width="1" stroke-opacity="1"></use></g></g><g><g><use xlink:href="#jTPt8kCeP" opacity="1" fill-opacity="0" stroke="#6e6e6e" stroke-width="1" stroke-opacity="1"></use></g></g><g><g><use xlink:href="#b4GPF3iIey" opacity="1" fill-opacity="0" stroke="#6e6e6e" stroke-width="1" stroke-opacity="1"></use></g></g><g><g><use xlink:href="#gEbeM5FKt" opacity="1" fill-opacity="0" stroke="#6e6e6e" stroke-width="1" stroke-opacity="1"></use></g></g><g><g><use xlink:href="#bAVhzKufn" opacity="1" fill-opacity="0" stroke="#6e6e6e" stroke-width="1" stroke-opacity="1"></use></g></g><g><g><use xlink:href="#avXfnYVV2" opacity="1" fill-opacity="0" stroke="#6e6e6e" stroke-width="1" stroke-opacity="1"></use></g></g><g><g><use xlink:href="#b4dHKqaYE" opacity="1" fill-opacity="0" stroke="#6e6e6e" stroke-width="1" stroke-opacity="1"></use></g></g><g><g><use xlink:href="#bKmTVfgs4" opacity="1" fill-opacity="0" stroke="#6e6e6e" stroke-width="1" stroke-opacity="1"></use></g></g><g><g><use xlink:href="#coFk0Piuq" opacity="1" fill-opacity="0" stroke="#6e6e6e" stroke-width="1" stroke-opacity="1"></use></g></g><g><g><use xlink:href="#b3KwWmwn1" opacity="1" fill-opacity="0" stroke="#6e6e6e" stroke-width="1" stroke-opacity="1"></use></g></g><g><g><use xlink:href="#d4wL6uZOI" opacity="1" fill-opacity="0" stroke="#6e6e6e" stroke-width="1" stroke-opacity="1"></use></g></g><g><g><use xlink:href="#aaD0CETgp" opacity="1" fill-opacity="0" stroke="#6e6e6e" stroke-width="1" stroke-opacity="1"></use></g></g></g><g><use xlink:href="#c3KULR37Ve" opacity="1" fill="#bababa" fill-opacity="1"></use></g><g><g><g><use xlink:href="#a8JNUErIXr" opacity="1" fill-opacity="0" stroke="#6e6e6e" stroke-width="1" stroke-opacity="1"></use></g></g><g><g><use xlink:href="#afacucuz0" opacity="1" fill-opacity="0" stroke="#6e6e6e" stroke-width="1" stroke-opacity="1"></use></g></g><g><g><use xlink:href="#abtShuPsV" opacity="1" fill-opacity="0" stroke="#6e6e6e" stroke-width="1" stroke-opacity="1"></use></g></g><g><g><use xlink:href="#f2nkY0vF6d" opacity="1" fill-opacity="0" stroke="#6e6e6e" stroke-width="1" stroke-opacity="1"></use></g></g><g><g><use xlink:href="#b2gOiOJNhW" opacity="1" fill-opacity="0" stroke="#6e6e6e" stroke-width="1" stroke-opacity="1"></use></g></g><g><g><use xlink:href="#d1RrW57JPn" opacity="1" fill-opacity="0" stroke="#6e6e6e" stroke-width="1" stroke-opacity="1"></use></g></g><g><g><use xlink:href="#g30ODmsddm" opacity="1" fill-opacity="0" stroke="#6e6e6e" stroke-width="1" stroke-opacity="1"></use></g></g><g><g><use xlink:href="#a3ntAmV9rU" opacity="1" fill-opacity="0" stroke="#6e6e6e" stroke-width="1" stroke-opacity="1"></use></g></g><g><g><use xlink:href="#a41LGKrBKR" opacity="1" fill-opacity="0" stroke="#6e6e6e" stroke-width="1" stroke-opacity="1"></use></g></g><g><g><use xlink:href="#afA7rFAMI" opacity="1" fill-opacity="0" stroke="#6e6e6e" stroke-width="1" stroke-opacity="1"></use></g></g><g><g><use xlink:href="#eblzOIZpl" opacity="1" fill-opacity="0" stroke="#6e6e6e" stroke-width="1" stroke-opacity="1"></use></g></g><g><g><use xlink:href="#f4v3ITNBMA" opacity="1" fill-opacity="0" stroke="#6e6e6e" stroke-width="1" stroke-opacity="1"></use></g></g><g><g><use xlink:href="#dOZ1cCQcF" opacity="1" fill-opacity="0" stroke="#6e6e6e" stroke-width="1" stroke-opacity="1"></use></g></g><g><g><use xlink:href="#i1dO37QGwN" opacity="1" fill-opacity="0" stroke="#6e6e6e" stroke-width="1" stroke-opacity="1"></use></g></g><g><g><use xlink:href="#a33KJBuD66" opacity="1" fill-opacity="0" stroke="#6e6e6e" stroke-width="1" stroke-opacity="1"></use></g></g><g><g><use xlink:href="#h2ywMrjDvB" opacity="1" fill-opacity="0" stroke="#6e6e6e" stroke-width="1" stroke-opacity="1"></use></g></g><g><g><use xlink:href="#c5IH6CgK3K" opacity="1" fill-opacity="0" stroke="#6e6e6e" stroke-width="1" stroke-opacity="1"></use></g></g><g><g><use xlink:href="#a60e9oyrqO" opacity="1" fill-opacity="0" stroke="#6e6e6e" stroke-width="1" stroke-opacity="1"></use></g></g><g><g><use xlink:href="#i508qoiqzP" opacity="1" fill-opacity="0" stroke="#6e6e6e" stroke-width="1" stroke-opacity="1"></use></g></g><g><g><use xlink:href="#aKjPvxq4k" opacity="1" fill-opacity="0" stroke="#6e6e6e" stroke-width="1" stroke-opacity="1"></use></g></g><g><g><use xlink:href="#b5C2Py6gLO" opacity="1" fill-opacity="0" stroke="#6e6e6e" stroke-width="1" stroke-opacity="1"></use></g></g><g><g><use xlink:href="#d8D0913bGQ" opacity="1" fill-opacity="0" stroke="#6e6e6e" stroke-width="1" stroke-opacity="1"></use></g></g><g><g><use xlink:href="#e3LjbtNSLu" opacity="1" fill-opacity="0" stroke="#6e6e6e" stroke-width="1" stroke-opacity="1"></use></g></g><g><g><use xlink:href="#moPYgGy8Z" opacity="1" fill-opacity="0" stroke="#6e6e6e" stroke-width="1" stroke-opacity="1"></use></g></g><g><g><use xlink:href="#hhdPERRZV" opacity="1" fill-opacity="0" stroke="#6e6e6e" stroke-width="1" stroke-opacity="1"></use></g></g><g><g><use xlink:href="#bm8qJloKg" opacity="1" fill-opacity="0" stroke="#6e6e6e" stroke-width="1" stroke-opacity="1"></use></g></g><g><g><use xlink:href="#a43UA0gF7" opacity="1" fill-opacity="0" stroke="#6e6e6e" stroke-width="1" stroke-opacity="1"></use></g></g><g><g><use xlink:href="#cOKpi3jsZ" opacity="1" fill-opacity="0" stroke="#6e6e6e" stroke-width="1" stroke-opacity="1"></use></g></g><g><g><use xlink:href="#a1tORMdPqt" opacity="1" fill-opacity="0" stroke="#6e6e6e" stroke-width="1" stroke-opacity="1"></use></g></g><g><g><use xlink:href="#abvKeCw9P" opacity="1" fill-opacity="0" stroke="#6e6e6e" stroke-width="1" stroke-opacity="1"></use></g></g><g><g><use xlink:href="#ewJsaBrcp" opacity="1" fill-opacity="0" stroke="#6e6e6e" stroke-width="1" stroke-opacity="1"></use></g></g><g><g><use xlink:href="#a2tqLeLnCU" opacity="1" fill-opacity="0" stroke="#6e6e6e" stroke-width="1" stroke-opacity="1"></use></g></g><g><g><use xlink:href="#dA2riV3eV" opacity="1" fill-opacity="0" stroke="#6e6e6e" stroke-width="1" stroke-opacity="1"></use></g></g><g><g><use xlink:href="#b8LqwpjjX" opacity="1" fill-opacity="0" stroke="#6e6e6e" stroke-width="1" stroke-opacity="1"></use></g></g><g><g><use xlink:href="#fis85sgxU" opacity="1" fill-opacity="0" stroke="#6e6e6e" stroke-width="1" stroke-opacity="1"></use></g></g><g><g><use xlink:href="#apA0ho3yM" opacity="1" fill-opacity="0" stroke="#6e6e6e" stroke-width="1" stroke-opacity="1"></use></g></g><g><g><use xlink:href="#b2CZw5x9x" opacity="1" fill-opacity="0" stroke="#6e6e6e" stroke-width="1" stroke-opacity="1"></use></g></g></g></g></g></svg>