<?xml version="1.0" encoding="UTF-8" standalone="no"?>
<!DOCTYPE svg PUBLIC "-//W3C//DTD SVG 1.1//EN" "http://www.w3.org/Graphics/SVG/1.1/DTD/svg11.dtd">
<svg version="1.1" xmlns="http://www.w3.org/2000/svg" xmlns:xlink="http://www.w3.org/1999/xlink" preserveAspectRatio="xMidYMid meet" viewBox="327.5749999999999 52.83341748929911 261.99999999999994 262" width="262" height="262"><defs><path d="M327.57 52.83L589.57 52.83L589.57 314.83L327.57 314.83L327.57 52.83Z" id="b39mNLjTL"></path><path d="M389.94 286.92L389.94 271.68L344.74 242.78L351.56 230.14L328.13 208.44L327.57 187.82L334.68 173.83L343.52 167.01L381.9 145.86L400.2 144.12L420.99 148.16L424.05 122.42L416.9 124.86L418.03 90.98L421.69 81.11L433.97 69.59L418.64 56.35L419.25 53.47L435.45 66.77L436.23 60.15L444.07 54.75L453.48 57.71L456.53 65.9L456.79 76.96L463.79 83.05L460.91 86.5L466.66 91.68L465.7 97.16L458.57 90.98L453.68 98.21L454.12 139.06L466.31 153.17L467.1 148.64L471.97 145.07L468.75 142.55L473.98 137.49L471.45 132.79L475.37 130L472.84 126.52L477.46 124.17L474.94 118.68L479.99 117.46L478.07 111.45L480.86 110.32L480.86 105.79L484.52 104.57L483.99 100.47L489.12 99.29L488.11 94.24L493.6 97.39L490.69 85.04L497.08 90.2L506.29 90.76L506.29 81.11L512.35 86.5L514.15 92.49L519.88 95.97L523.43 94.51L526.16 96.76L526.16 102.37L533.23 110.56L540.71 113.93L543.78 121L539.63 128.52L531.1 128.52L531.1 130.32L535.03 135.48L531.66 135.48L530.65 146.48L523.69 143L518.2 148.16L518.82 171.6L528.96 198.15L544.78 196.35L550.06 200.96L548.61 210.27L560.06 220.82L560.73 226.32L554.22 241.92L544.53 250.54L540.71 246.95L542.28 241.34L523.43 252L509.51 252L518.82 233.82L525.78 233.48L529.6 237.07L533.64 235.16L535.66 215.64L510.22 230.14L506.74 230.52L496.52 222.62L486.2 230.52L441.73 230.52L428.49 221.43L413.45 230.52L391.11 251.1L435.45 292.17L442.04 314.35L364.26 314.35L364.26 286.33L389.94 286.92Z" id="cAw9WnHus"></path><path d="M357.14 183.5L351.39 187.16L355.66 196.04L368.81 202.92L362.45 214.16L350.69 210.15L345.29 196.74L348.95 180.1L368.29 163.64L357.14 183.5Z" id="b1xjw0Rw3G"></path><path d="M398.15 132.56L400.16 125.34L404.11 122.44L411.93 123.78L415.65 132.04L411.33 138.52L403.44 138.22L398.15 132.56Z" id="g11EygxWHg"></path><path d="M545.28 230.34L550.5 230.53L550.13 224.43L546.35 222.48L545.28 230.34Z" id="b7SkNTybQA"></path><path d="M512.47 123.4L512.09 130.57L522.91 133.09L512.47 123.4Z" id="bLSjsuIf2"></path><path d="M541.59 123.58C538.31 120.33 538.31 118.34 541.59 117.62" id="bf1kPoTmL"></path><path d="M531.75 122C533.03 123.21 532.68 126.15 531.35 127.41C530.02 128.68 527.51 128.42 526.43 127.07C525.35 125.72 524.96 124.45 526.24 122.59C527.51 120.73 530.47 120.8 531.75 122Z" id="a3D62KkLB"></path><path d="M538.69 128.45C537.18 125.36 535.08 124.35 532.39 125.4" id="g1gXKCdbjL"></path><path d="M524.41 101.98C524.41 102.93 523.47 103.73 522.5 103.85C521.52 103.97 520.67 103.17 520.67 102.23C520.67 101.28 521.52 100.18 522.5 100.06C523.47 99.94 524.41 101.03 524.41 101.98Z" id="cIyJsnJlC"></path><path d="M525.74 100.36C523.97 95.96 521.2 95.75 517.43 99.72" id="a1EsaucCaf"></path><path d="M525.74 102.81C524.74 104.2 524.11 105.08 523.86 105.43C523.33 106.16 522.26 106.24 521.63 105.59C521.03 104.97 519.53 103.42 517.13 100.94" id="bLlLuvzzn"></path><path d="M527.86 121.26C514.57 116.25 509.8 113.39 508.17 105.37C507.25 100.79 509.28 97.79 514.28 96.36C515.25 96.08 515.82 95.1 515.6 94.13C515.58 94.05 515.53 93.84 515.46 93.51" id="c1B3i2X6MO"></path><path d="M508.13 102.17C512.26 104.37 515.31 103.81 517.27 100.49" id="bFUIUs2aD"></path><path d="M508.62 106.5C514.69 106.3 518.23 105.22 519.25 103.25" id="bcAIR1SVL"></path><path d="M539.82 114.57C535.88 116.73 530.63 113.65 524.07 105.32" id="b5ZbBm99tu"></path><path d="M515.41 115.8C516.33 113.08 518.84 109.82 522.94 106.03" id="aILU6nV0u"></path><path d="M519.79 117.91C519.85 114.57 521.94 111.24 526.04 107.92" id="cOffBbRY"></path><path d="M527.37 120.87C527.4 117.82 528.88 115.29 531.8 113.29" id="g1I3kSGFS8"></path><path d="M531.4 121.56C531.6 118.21 533.22 116.06 536.27 115.11" id="a6WVzfzrxP"></path><path d="M525.43 123.86C524.09 126.39 521.37 127.6 517.27 127.51" id="c1HmhgJzQZ"></path><path d="M526.35 126.62C524.68 128.85 522.82 130.16 520.79 130.56" id="f2gvv3Amak"></path><path d="M509.88 94.99C507.08 92.31 506.08 88.08 506.88 82.29C508.58 83.25 512.31 85.34 513.52 94.49" id="ch2G8s93U"></path><path d="M507.42 91.39C503.62 92.25 500.38 91.87 497.73 90.26" id="b76OvFuId5"></path><path d="M523.76 133.42C519.53 128.41 515.52 124.81 511.75 122.64C506.09 119.38 501.21 112 502.3 106.79C503.4 101.59 504.55 102.18 504.52 95.92" id="j1YhrGGK4Q"></path><path d="M493.75 98.08C492.32 91.45 491.42 87.33 491.04 85.73C497.42 92.53 501.83 95.62 504.28 94.99" id="b1WY3ehKJ"></path><path d="M503.07 103.75L487.96 94.84" id="c1Veq9D2Fc"></path><path d="M501.94 109.6L484.17 100.65" id="b1gleAKpqg"></path><path d="M478.61 111.44L502.04 120.87L500.66 114.1L502.92 112.62" id="a46M51ZaXi"></path><path d="M481.52 105.78L500.71 114.05" id="bIvSKw7DK"></path><path d="M475.58 119.39L500.13 128.05L500.13 120.13" id="aWtArwvuT"></path><path d="M512.05 130.8L512.05 122.92" id="f18pMTyBWY"></path><path d="M456.2 135.1C483.6 122.61 511.43 130.21 530.73 135.56C530.61 138.89 529.73 142.07 529.75 145.56C513.93 139.3 492.89 125.33 454.2 137.55" id="b6hCzpXOL"></path><path d="M521.57 179.14C520.35 173.56 519.83 173.12 520.72 170.12C507.65 167.4 493.19 162.77 477.34 156.21C475.5 155.45 473.39 156.02 472.19 157.6C471.36 158.69 470.55 159.57 469.75 160.25C486.78 167.99 502.07 174.73 521.57 179.14Z" id="a1vcYkJ4jL"></path><path d="M517.95 169.25L516.91 139.97" id="a1Z80OGFFP"></path><path d="M517.43 147.56L523.14 142.56" id="a2uw428ds6"></path><path d="M500.13 161.98L501.07 134.84" id="d2cL5CuzE"></path><path d="M501.07 138.67C504.97 142.86 504.82 146.47 500.6 149.51C504.21 155.72 503.41 160.53 498.21 163.93" id="bIc7KLz0f"></path><path d="M501.65 164.84C505.59 160.75 506.13 155.88 503.27 150.23C506.91 147 506.85 141.98 503.08 135.16" id="fRLlPQa0b"></path><path d="M500.6 144.58L471.78 133.67" id="i4kUj9nrsY"></path><path d="M500.13 151.65L469.51 141.52" id="e1tEWlK72Z"></path><path d="M499.77 159.45L468.01 148.41" id="acHXqlgs5"></path><path d="M456.55 93.12C457.05 90.33 459.2 87.16 462.99 83.61C463.12 83.49 463.33 83.57 463.35 83.75C463.51 85.35 463.2 86.89 462.44 88.38" id="c30CEcdrs1"></path><path d="M457.48 85.36C459.82 83.83 461.28 82.87 461.86 82.49C462.29 82.21 462.87 82.52 462.87 83.03C462.87 83.13 462.87 83.37 462.87 83.76" id="a2TPjJDwO"></path><path d="M456.68 83.65C458.74 82.06 460.02 81.07 460.54 80.67C460.81 80.46 461.2 80.63 461.24 80.97C461.26 81.2 461.32 81.76 461.41 82.67" id="ds4QgQgzu"></path><path d="M454.6 82.38C456.83 80.79 458.22 79.79 458.77 79.4C459.18 79.11 459.75 79.37 459.79 79.87C459.8 80.03 459.83 80.44 459.88 81.1" id="bQ7B6PSmk"></path><path d="M454.13 94.21C452.9 91.89 450.81 90.62 447.86 90.39C448.17 88.29 446.92 85.91 448.81 82.92C451.26 82.87 452.38 82.28 452.16 81.14C454.52 79.27 456 78.1 456.59 77.63C457.09 77.23 457.84 77.56 457.89 78.2C457.9 78.44 457.95 79.04 458.02 80.01" id="c8wpzmRZa"></path><path d="M457.48 89.77C454.83 86.49 452.23 84.8 449.69 84.71" id="b4tJpOJlqK"></path><path d="M447.86 87.8C450.22 87.12 453.12 88.63 456.55 92.32" id="aiOovqj5F"></path><path d="M452.77 80.41C444.91 73.78 439.17 69.13 435.55 66.46C437.21 63.45 437.25 58.1 443.63 55.21C451.47 56.47 453.71 58.25 455.1 62.89C456.03 65.99 456.51 70.84 456.55 77.46L452.77 80.41Z" id="a4COJEfedP"></path><path d="M447.64 68.15C450.55 68.15 453.46 70.07 456.38 73.91" id="a2jC6ak82Z"></path><path d="M443.3 72.89C445.06 68.83 444.9 66.21 442.83 65.02C442.78 63.85 442.76 63.11 442.77 62.8C442.81 61.92 443.3 61.11 444.07 60.68C444.34 60.53 444.39 60.5 444.78 60.28C445.17 60.06 445.65 60.06 446.05 60.28C447.33 61 450.53 62.81 455.65 65.71" id="ggtRESHkV"></path><path d="M456.81 92.67C444.8 110.47 438.3 118.64 417.12 124.41C416.72 118.07 416.08 106.85 417.63 95.82C418.66 88.47 420.55 83.29 423.31 80.29C428.71 74.67 432.08 71.16 433.43 69.76C433.51 69.67 433.65 69.66 433.75 69.74C435.8 71.46 440.92 75.76 449.13 82.64" id="b9eNOuLtw"></path><path d="M425.49 111.35C428.95 106.74 436.41 99.66 447.86 90.11" id="arx0fOoyT"></path><path d="M443.35 109.89C437.44 108.27 436.16 104.86 435.98 100.6" id="eSrz5Cxn"></path><path d="M421 117.76C420.08 117.48 418.68 116.93 416.81 116.09L416.64 111C418.6 107.82 420.24 105.77 421.55 104.84C423.52 103.45 431.02 103.88 432.4 103.83C435.99 114.38 423.38 115.55 421 117.76Z" id="bz1Ecvo7W"></path><path d="M431.64 103.81L438.91 86.43" id="aICO7W46H"></path><path d="M445.49 91.78C442.82 77.1 440.18 73.52 428.08 75.23" id="a7hpaNXxV6"></path><path d="M435.98 89.77C433.1 85.81 428.08 83.84 420.92 83.87" id="a30FPPLtIT"></path><path d="M434.64 93.12C432.36 88.87 427.41 86.67 419.81 86.53" id="bKqLl0HOG"></path><path d="M434.19 96.61C429.78 92.1 424.55 90.35 418.5 91.36" id="a45WuUIRAV"></path><path d="M431.06 210.26C435.54 200.94 440.09 195.25 444.7 193.19C460.74 185.65 465.18 181.23 469.98 176.26C474.77 171.29 472 167.78 470.46 162.89C468.5 156.57 461.62 147.89 453.12 138.91C454.76 134.02 454.68 120.41 452.88 98.08" id="a9RcwK2S7"></path><path d="M421.98 151.65L423.83 122.44" id="j2ZRMj1N4X"></path><path d="M423.83 194.33C424.89 188.68 426.97 181.69 430.07 173.36C438.89 153.74 427.39 138.66 424.04 122.44" id="kcwpMQ1Iu"></path><path d="M467.82 157.04C463.87 154.39 460.62 153.91 458.09 155.6C450.86 148.13 432.32 136.46 426.01 129.35" id="a1mqT5GldH"></path><path d="M434.03 136.62C440.61 135.47 447.03 136.11 453.29 138.52" id="a42ZUeL0P"></path><path d="M425.19 127.09C441.64 126.88 447.07 130.19 452.54 138.26" id="b1NmnMimu"></path><path d="M462.44 149.77C458.8 146.94 454.4 146.39 449.25 148.12" id="b2pjR76P"></path><path d="M461.73 183.49C462.17 176.96 458.39 175.92 456.38 175.47C454.38 175.03 451.65 180 449.87 175.95C449.23 174.51 449.95 172.37 450.93 170.23C451.91 168.09 447.34 166.01 451.17 162.04C455 158.07 455.81 159.24 459.12 161.49C462.43 163.73 465.07 167.06 470.43 163.34" id="bcFxQ9kdm"></path><path d="M433.55 205.22C425.63 203.93 422.56 200.69 418.13 197.34C426.24 193.91 442.09 174.39 450.09 172.39" id="a2zI7Mxtye"></path><path d="M423.41 214.84C420.13 212.18 417.35 209.83 415.05 207.78C412.75 205.74 414.24 202.54 419.51 198.19" id="a4W4yXvO3S"></path><path d="M461.87 183.83C449.33 199.45 441.31 208.97 437.81 212.41C434.32 215.85 432.7 219.82 432.95 224.34C426.95 220.18 422.91 217.28 420.81 215.63C430.7 212.02 440.52 203.59 450.29 190.34" id="a67tqIK8i"></path><path d="M437.44 213.2C441.83 221.15 444.55 226.04 445.59 227.87C447.15 230.61 444.07 231.24 441.48 229.72C439.75 228.7 436.85 226.6 432.78 223.41" id="g9zv98BgS"></path><path d="M472.49 200.53C466.59 205.6 456.08 208.37 440.96 208.82" id="e1hwMG0IH1"></path><path d="M495.45 221.86C486.68 235.17 465.28 229.99 447.55 229.87" id="dq5MJ3P5S"></path><path d="M538.5 212.91C528.07 219.38 520.12 224.2 514.65 227.37C506.44 232.14 503.29 227.66 501.28 226.07C499.28 224.48 486.01 213.99 482.84 209.69" id="bqodsvrfi"></path><path d="M510.12 251.09C513.92 249.49 516.86 243.73 518.96 233.81" id="b1LjkzwAIF"></path><path d="M522.88 251.29C526.76 247.95 527.79 242.01 525.96 233.46" id="a5YHDxgzrs"></path><path d="M528.09 242.72C532.47 242.26 535.26 239.7 536.45 235.04" id="b1B4PO6js9"></path><path d="M542.63 241.72C544.23 242.91 544.85 245.65 544.48 249.95" id="beN8JNht1"></path><path d="M549.01 231.24C552.75 235.26 554.15 238.91 553.19 242.2" id="bbOy13985"></path><path d="M551.95 234.6C555.2 232.17 555.61 228.59 553.19 223.83" id="lmzsE57TK"></path><path d="M547.02 221.8L548.46 210.49" id="bK93zMgb0"></path><path d="M518.96 214.83C530.23 200.78 537.18 204 542.8 203.59" id="aLXNcwMMr"></path><path d="M526.32 187.1C526.87 188.33 526.2 189.47 524.33 190.52L522.14 184.77C524.38 185.08 525.77 185.86 526.32 187.1Z" id="b2kla88o5K"></path><path d="M496.28 192.8C498.61 192.73 500.96 189.65 500.87 186.9C500.78 184.16 498.27 181.76 495.93 181.83C493.6 181.9 491.46 184.44 491.55 187.18C491.63 189.92 493.95 192.87 496.28 192.8Z" id="aVHT6oiZy"></path><path d="M468.15 178.13C474.15 186.39 476.76 193.86 475.99 200.54C492.38 200.15 497.79 204.78 502.45 206.99C508.98 200.33 517.34 196.28 527.53 194.85" id="bwnloJdFP"></path><path d="M528.12 198.62C517.07 200.33 509.1 205.06 504.2 212.81C499.32 211.01 487.25 201.49 473.22 204.31C473.37 193.13 470.92 185.02 465.89 179.98" id="c1GmLekiaG"></path><path d="M475.96 195.4L492.96 170.18" id="g1fkpSMrdP"></path><path d="M497.84 172.17L481.79 200.82" id="c3lUcZakM"></path><path d="M503.8 173.95L499.61 205.61" id="a1Kj2yXavN"></path><path d="M506.6 203.15L508.72 175.59" id="brl0mPOHz"></path><path d="M406.67 122.44C411.1 109.35 412.21 99.28 410.01 92.23C407.81 85.18 410.27 72.62 417.41 54.54" id="a8sn4vRzNA"></path><path d="M407.41 131.54L406.67 125.59" id="aboiEtpSx"></path><path d="M403.7 127.08L401.69 120.13" id="bmDRrsjMs"></path><path d="M401.12 127.76L398.39 125.03" id="a9yoUeznQ"></path><path d="M402.09 131.06L395.98 129.05" id="b1QCA0ryCZ"></path><path d="M404.58 134.35L398.71 138.26" id="g65Gxfz0BW"></path><path d="M410.53 127.08L413.74 120.77" id="i6hfD9MqC"></path><path d="M419.61 134.18L412.78 130.48" id="b6dcTC4ld0"></path><path d="M414.55 137.49L412.14 134.35" id="bjKhenQjR"></path><path d="M410.05 142.01L408.28 135.66" id="c4yIprpTO"></path><path d="M414.84 131.35C414.62 135.77 410.95 139.02 406.88 139.42C402.81 139.81 398.34 135.37 398.55 130.95C398.77 126.53 402.12 122.51 406.19 122.12C410.26 121.73 415.05 126.93 414.84 131.35Z" id="a3A7mdJVjO"></path><path d="M390.16 176.27C392.67 176.27 395.11 173.76 395.11 171.04C395.11 168.33 392.67 165.61 390.16 165.61C387.66 165.61 385.08 168.33 385.08 171.04C385.08 173.76 387.66 176.27 390.16 176.27Z" id="bNVepB42O"></path><path d="M327.57 188.35C329.53 177.77 342.59 166.73 356.82 159.66C365.71 155.24 374.61 146.55 389.84 144.5C398.97 143.26 414.61 146.72 421.98 149.1" id="b16Lgf60Va"></path><path d="M352.1 209.08C350.72 207.27 348.74 203.3 346.15 197.17C342.97 174.31 355.37 177.37 373.35 158.63C391.34 139.89 412.33 152.15 429.31 151.45C430.48 159.64 427.79 174.32 421.25 195.5" id="c2wfpTNTLE"></path><path d="M389.01 149.11C388.06 148.37 388.23 146.84 389.53 144.5" id="a1FC7n9nVE"></path><path d="M382.66 151.38C380.88 150.38 380.34 148.78 381.04 146.58" id="egCNtePal"></path><path d="M376.69 155.4C373.19 155.05 372 153.26 373.12 150.02" id="a269SvUsKH"></path><path d="M370.72 161.04C366.83 161.04 364.91 158.99 364.95 154.88" id="f1eV0D9xZN"></path><path d="M364.61 166.54C361.15 165.29 358.97 162.8 358.06 159.08" id="abQHa3GC"></path><path d="M344.51 170.11C350.69 165.31 355.14 163.23 357.86 163.88" id="baNaDlLlX"></path><path d="M336.28 179.59C334.03 181.01 331.79 185.62 329.54 193.4" id="c4MQC0EXnH"></path><path d="M341.99 209.35C338.7 205.33 339.16 196.6 343.35 183.15" id="ciOmNAerj"></path><path d="M358.06 167.78C337.91 172.79 337.04 187.61 333.75 203.13" id="bhYQtWj4F"></path><path d="M327.84 208.04C343.21 224.27 349.19 235.08 368.31 230.15C366.34 215.04 361.9 211.62 348.53 208.3" id="e1aByqIBta"></path><path d="M346.32 211.99C349.52 210.18 352.65 211.84 355.72 216.99" id="aoPlurfzo"></path><path d="M350.15 224.45C351.19 226.26 353.65 227.23 357.54 227.36" id="b6q3Q1am"></path><path d="M361.37 221.66C347.1 223.21 337 212.97 327.84 200.64" id="e9JVbUX0R"></path><path d="M414.19 204.43C403.67 201.37 394.5 202.75 389.49 204.11C379.35 201.19 362.62 196.49 354.47 185.76C352.6 186.37 352.29 186.45 351.16 187.64C355.41 203.28 380.77 204.05 390.65 212.01C397.37 207.16 407 207.03 419.55 211.62" id="k3yG1YSyIM"></path><path d="M354.37 185.76C356.19 185.45 360.83 178.02 368.31 163.47" id="b4QcaGbT1"></path><path d="M396.59 148.29C377.46 153.66 372.07 173.35 360.79 192" id="fb49zjcOX"></path><path d="M401.29 148.09C382.68 154.01 377.82 170.88 367.84 196.2" id="ciEdg385x"></path><path d="M406.4 148.72L390.83 203.84" id="amlGuwFL6"></path><path d="M410.61 149.37L400.43 202.55" id="doqQEu51f"></path><path d="M362.06 214.16L368.8 202.55" id="cdw0cjt9j"></path><path d="M359.5 252.36C345.38 245.83 343.96 240.08 351.48 229.79" id="c7k9BeERq"></path><path d="M427.7 220.82C411.1 230.35 398.66 240.37 390.37 250.87C409.28 267.8 437.94 289.35 439.14 304.35C433.72 305.02 424.06 305.35 414.44 303.17C415.93 299.78 415.92 295.04 414.41 288.95C413.76 286.37 412.12 284.15 409.85 282.78C399.86 276.76 372.6 260.32 362.39 254.17C361.04 253.35 360.61 251.58 361.45 250.23C373.51 230.96 382.69 217.84 389.02 210.86" id="fDZ8SoTZw"></path><path d="M431.44 289.06C427.45 291.62 421.92 292.55 414.87 291.84" id="b128JdBEsw"></path><path d="M414.44 287.88C405.33 289.63 397.02 290.12 389.52 289.38C392 281.5 392 275.51 389.52 271.41" id="b9rDWT10ae"></path><path d="M398.29 275.69C397.15 276.47 394.9 276.86 391.55 276.86" id="b1dDbIK6ls"></path></defs><g><g><g><use xlink:href="#b39mNLjTL" opacity="1" fill="#9b7647" fill-opacity="1"></use></g><g><use xlink:href="#cAw9WnHus" opacity="1" fill="#bababa" fill-opacity="1"></use></g><g><use xlink:href="#b1xjw0Rw3G" opacity="1" fill="#9b7647" fill-opacity="1"></use></g><g><use xlink:href="#g11EygxWHg" opacity="1" fill="#bababa" fill-opacity="1"></use></g><g><use xlink:href="#b7SkNTybQA" opacity="1" fill="#9b7647" fill-opacity="1"></use></g><g><use xlink:href="#bLSjsuIf2" opacity="1" fill="#9b7647" fill-opacity="1"></use></g><g><g><g><use xlink:href="#bf1kPoTmL" opacity="1" fill-opacity="0" stroke="#6e6e6e" stroke-width="1" stroke-opacity="1"></use></g></g><g><g><use xlink:href="#a3D62KkLB" opacity="1" fill-opacity="0" stroke="#6e6e6e" stroke-width="1" stroke-opacity="1"></use></g></g><g><g><use xlink:href="#g1gXKCdbjL" opacity="1" fill-opacity="0" stroke="#6e6e6e" stroke-width="1" stroke-opacity="1"></use></g></g><g><g><use xlink:href="#cIyJsnJlC" opacity="1" fill-opacity="0" stroke="#6e6e6e" stroke-width="1" stroke-opacity="1"></use></g></g><g><g><use xlink:href="#a1EsaucCaf" opacity="1" fill-opacity="0" stroke="#6e6e6e" stroke-width="1" stroke-opacity="1"></use></g></g><g><g><use xlink:href="#bLlLuvzzn" opacity="1" fill-opacity="0" stroke="#6e6e6e" stroke-width="1" stroke-opacity="1"></use></g></g><g><g><use xlink:href="#c1B3i2X6MO" opacity="1" fill-opacity="0" stroke="#6e6e6e" stroke-width="1" stroke-opacity="1"></use></g></g><g><g><use xlink:href="#bFUIUs2aD" opacity="1" fill-opacity="0" stroke="#6e6e6e" stroke-width="1" stroke-opacity="1"></use></g></g><g><g><use xlink:href="#bcAIR1SVL" opacity="1" fill-opacity="0" stroke="#6e6e6e" stroke-width="1" stroke-opacity="1"></use></g></g><g><g><use xlink:href="#b5ZbBm99tu" opacity="1" fill-opacity="0" stroke="#6e6e6e" stroke-width="1" stroke-opacity="1"></use></g></g><g><g><use xlink:href="#aILU6nV0u" opacity="1" fill-opacity="0" stroke="#6e6e6e" stroke-width="1" stroke-opacity="1"></use></g></g><g><g><use xlink:href="#cOffBbRY" opacity="1" fill-opacity="0" stroke="#6e6e6e" stroke-width="1" stroke-opacity="1"></use></g></g><g><g><use xlink:href="#g1I3kSGFS8" opacity="1" fill-opacity="0" stroke="#6e6e6e" stroke-width="1" stroke-opacity="1"></use></g></g><g><g><use xlink:href="#a6WVzfzrxP" opacity="1" fill-opacity="0" stroke="#6e6e6e" stroke-width="1" stroke-opacity="1"></use></g></g><g><g><use xlink:href="#c1HmhgJzQZ" opacity="1" fill-opacity="0" stroke="#6e6e6e" stroke-width="1" stroke-opacity="1"></use></g></g><g><g><use xlink:href="#f2gvv3Amak" opacity="1" fill-opacity="0" stroke="#6e6e6e" stroke-width="1" stroke-opacity="1"></use></g></g><g><g><use xlink:href="#ch2G8s93U" opacity="1" fill-opacity="0" stroke="#6e6e6e" stroke-width="1" stroke-opacity="1"></use></g></g><g><g><use xlink:href="#b76OvFuId5" opacity="1" fill-opacity="0" stroke="#6e6e6e" stroke-width="1" stroke-opacity="1"></use></g></g><g><g><use xlink:href="#j1YhrGGK4Q" opacity="1" fill-opacity="0" stroke="#6e6e6e" stroke-width="1" stroke-opacity="1"></use></g></g><g><g><use xlink:href="#b1WY3ehKJ" opacity="1" fill-opacity="0" stroke="#6e6e6e" stroke-width="1" stroke-opacity="1"></use></g></g><g><g><use xlink:href="#c1Veq9D2Fc" opacity="1" fill-opacity="0" stroke="#6e6e6e" stroke-width="1" stroke-opacity="1"></use></g></g><g><g><use xlink:href="#b1gleAKpqg" opacity="1" fill-opacity="0" stroke="#6e6e6e" stroke-width="1" stroke-opacity="1"></use></g></g><g><g><use xlink:href="#a46M51ZaXi" opacity="1" fill-opacity="0" stroke="#6e6e6e" stroke-width="1" stroke-opacity="1"></use></g></g><g><g><use xlink:href="#bIvSKw7DK" opacity="1" fill-opacity="0" stroke="#6e6e6e" stroke-width="1" stroke-opacity="1"></use></g></g><g><g><use xlink:href="#aWtArwvuT" opacity="1" fill-opacity="0" stroke="#6e6e6e" stroke-width="1" stroke-opacity="1"></use></g></g><g><g><use xlink:href="#f18pMTyBWY" opacity="1" fill-opacity="0" stroke="#6e6e6e" stroke-width="1" stroke-opacity="1"></use></g></g><g><g><use xlink:href="#b6hCzpXOL" opacity="1" fill-opacity="0" stroke="#6e6e6e" stroke-width="1" stroke-opacity="1"></use></g></g><g><g><use xlink:href="#a1vcYkJ4jL" opacity="1" fill-opacity="0" stroke="#6e6e6e" stroke-width="1" stroke-opacity="1"></use></g></g><g><g><use xlink:href="#a1Z80OGFFP" opacity="1" fill-opacity="0" stroke="#6e6e6e" stroke-width="1" stroke-opacity="1"></use></g></g><g><g><use xlink:href="#a2uw428ds6" opacity="1" fill-opacity="0" stroke="#6e6e6e" stroke-width="1" stroke-opacity="1"></use></g></g><g><g><use xlink:href="#d2cL5CuzE" opacity="1" fill-opacity="0" stroke="#6e6e6e" stroke-width="1" stroke-opacity="1"></use></g></g><g><g><use xlink:href="#bIc7KLz0f" opacity="1" fill-opacity="0" stroke="#6e6e6e" stroke-width="1" stroke-opacity="1"></use></g></g><g><g><use xlink:href="#fRLlPQa0b" opacity="1" fill-opacity="0" stroke="#6e6e6e" stroke-width="1" stroke-opacity="1"></use></g></g><g><g><use xlink:href="#i4kUj9nrsY" opacity="1" fill-opacity="0" stroke="#6e6e6e" stroke-width="1" stroke-opacity="1"></use></g></g><g><g><use xlink:href="#e1tEWlK72Z" opacity="1" fill-opacity="0" stroke="#6e6e6e" stroke-width="1" stroke-opacity="1"></use></g></g><g><g><use xlink:href="#acHXqlgs5" opacity="1" fill-opacity="0" stroke="#6e6e6e" stroke-width="1" stroke-opacity="1"></use></g></g><g><g><use xlink:href="#c30CEcdrs1" opacity="1" fill-opacity="0" stroke="#6e6e6e" stroke-width="1" stroke-opacity="1"></use></g></g><g><g><use xlink:href="#a2TPjJDwO" opacity="1" fill-opacity="0" stroke="#6e6e6e" stroke-width="1" stroke-opacity="1"></use></g></g><g><g><use xlink:href="#ds4QgQgzu" opacity="1" fill-opacity="0" stroke="#6e6e6e" stroke-width="1" stroke-opacity="1"></use></g></g><g><g><use xlink:href="#bQ7B6PSmk" opacity="1" fill-opacity="0" stroke="#6e6e6e" stroke-width="1" stroke-opacity="1"></use></g></g><g><g><use xlink:href="#c8wpzmRZa" opacity="1" fill-opacity="0" stroke="#6e6e6e" stroke-width="1" stroke-opacity="1"></use></g></g><g><g><use xlink:href="#b4tJpOJlqK" opacity="1" fill-opacity="0" stroke="#6e6e6e" stroke-width="1" stroke-opacity="1"></use></g></g><g><g><use xlink:href="#aiOovqj5F" opacity="1" fill-opacity="0" stroke="#6e6e6e" stroke-width="1" stroke-opacity="1"></use></g></g><g><g><use xlink:href="#a4COJEfedP" opacity="1" fill-opacity="0" stroke="#6e6e6e" stroke-width="1" stroke-opacity="1"></use></g></g><g><g><use xlink:href="#a2jC6ak82Z" opacity="1" fill-opacity="0" stroke="#6e6e6e" stroke-width="1" stroke-opacity="1"></use></g></g><g><g><use xlink:href="#ggtRESHkV" opacity="1" fill-opacity="0" stroke="#6e6e6e" stroke-width="1" stroke-opacity="1"></use></g></g><g><g><use xlink:href="#b9eNOuLtw" opacity="1" fill-opacity="0" stroke="#6e6e6e" stroke-width="1" stroke-opacity="1"></use></g></g><g><g><use xlink:href="#arx0fOoyT" opacity="1" fill-opacity="0" stroke="#6e6e6e" stroke-width="1" stroke-opacity="1"></use></g></g><g><g><use xlink:href="#eSrz5Cxn" opacity="1" fill-opacity="0" stroke="#6e6e6e" stroke-width="1" stroke-opacity="1"></use></g></g><g><g><use xlink:href="#bz1Ecvo7W" opacity="1" fill-opacity="0" stroke="#6e6e6e" stroke-width="1" stroke-opacity="1"></use></g></g><g><g><use xlink:href="#aICO7W46H" opacity="1" fill-opacity="0" stroke="#6e6e6e" stroke-width="1" stroke-opacity="1"></use></g></g><g><g><use xlink:href="#a7hpaNXxV6" opacity="1" fill-opacity="0" stroke="#6e6e6e" stroke-width="1" stroke-opacity="1"></use></g></g><g><g><use xlink:href="#a30FPPLtIT" opacity="1" fill-opacity="0" stroke="#6e6e6e" stroke-width="1" stroke-opacity="1"></use></g></g><g><g><use xlink:href="#bKqLl0HOG" opacity="1" fill-opacity="0" stroke="#6e6e6e" stroke-width="1" stroke-opacity="1"></use></g></g><g><g><use xlink:href="#a45WuUIRAV" opacity="1" fill-opacity="0" stroke="#6e6e6e" stroke-width="1" stroke-opacity="1"></use></g></g><g><g><use xlink:href="#a9RcwK2S7" opacity="1" fill-opacity="0" stroke="#6e6e6e" stroke-width="1" stroke-opacity="1"></use></g></g><g><g><use xlink:href="#j2ZRMj1N4X" opacity="1" fill-opacity="0" stroke="#6e6e6e" stroke-width="1" stroke-opacity="1"></use></g></g><g><g><use xlink:href="#kcwpMQ1Iu" opacity="1" fill-opacity="0" stroke="#6e6e6e" stroke-width="1" stroke-opacity="1"></use></g></g><g><g><use xlink:href="#a1mqT5GldH" opacity="1" fill-opacity="0" stroke="#6e6e6e" stroke-width="1" stroke-opacity="1"></use></g></g><g><g><use xlink:href="#a42ZUeL0P" opacity="1" fill-opacity="0" stroke="#6e6e6e" stroke-width="1" stroke-opacity="1"></use></g></g><g><g><use xlink:href="#b1NmnMimu" opacity="1" fill-opacity="0" stroke="#6e6e6e" stroke-width="1" stroke-opacity="1"></use></g></g><g><g><use xlink:href="#b2pjR76P" opacity="1" fill-opacity="0" stroke="#6e6e6e" stroke-width="1" stroke-opacity="1"></use></g></g><g><g><use xlink:href="#bcFxQ9kdm" opacity="1" fill-opacity="0" stroke="#6e6e6e" stroke-width="1" stroke-opacity="1"></use></g></g><g><g><use xlink:href="#a2zI7Mxtye" opacity="1" fill-opacity="0" stroke="#6e6e6e" stroke-width="1" stroke-opacity="1"></use></g></g><g><g><use xlink:href="#a4W4yXvO3S" opacity="1" fill-opacity="0" stroke="#6e6e6e" stroke-width="1" stroke-opacity="1"></use></g></g><g><g><use xlink:href="#a67tqIK8i" opacity="1" fill-opacity="0" stroke="#6e6e6e" stroke-width="1" stroke-opacity="1"></use></g></g><g><g><use xlink:href="#g9zv98BgS" opacity="1" fill-opacity="0" stroke="#6e6e6e" stroke-width="1" stroke-opacity="1"></use></g></g><g><g><use xlink:href="#e1hwMG0IH1" opacity="1" fill-opacity="0" stroke="#6e6e6e" stroke-width="1" stroke-opacity="1"></use></g></g><g><g><use xlink:href="#dq5MJ3P5S" opacity="1" fill-opacity="0" stroke="#6e6e6e" stroke-width="1" stroke-opacity="1"></use></g></g><g><g><use xlink:href="#bqodsvrfi" opacity="1" fill-opacity="0" stroke="#6e6e6e" stroke-width="1" stroke-opacity="1"></use></g></g><g><g><use xlink:href="#b1LjkzwAIF" opacity="1" fill-opacity="0" stroke="#6e6e6e" stroke-width="1" stroke-opacity="1"></use></g></g><g><g><use xlink:href="#a5YHDxgzrs" opacity="1" fill-opacity="0" stroke="#6e6e6e" stroke-width="1" stroke-opacity="1"></use></g></g><g><g><use xlink:href="#b1B4PO6js9" opacity="1" fill-opacity="0" stroke="#6e6e6e" stroke-width="1" stroke-opacity="1"></use></g></g><g><g><use xlink:href="#beN8JNht1" opacity="1" fill-opacity="0" stroke="#6e6e6e" stroke-width="1" stroke-opacity="1"></use></g></g><g><g><use xlink:href="#bbOy13985" opacity="1" fill-opacity="0" stroke="#6e6e6e" stroke-width="1" stroke-opacity="1"></use></g></g><g><g><use xlink:href="#lmzsE57TK" opacity="1" fill-opacity="0" stroke="#6e6e6e" stroke-width="1" stroke-opacity="1"></use></g></g><g><g><use xlink:href="#bK93zMgb0" opacity="1" fill-opacity="0" stroke="#6e6e6e" stroke-width="1" stroke-opacity="1"></use></g></g><g><g><use xlink:href="#aLXNcwMMr" opacity="1" fill-opacity="0" stroke="#6e6e6e" stroke-width="1" stroke-opacity="1"></use></g></g><g><g><use xlink:href="#b2kla88o5K" opacity="1" fill-opacity="0" stroke="#6e6e6e" stroke-width="1" stroke-opacity="1"></use></g></g><g><g><use xlink:href="#aVHT6oiZy" opacity="1" fill-opacity="0" stroke="#6e6e6e" stroke-width="1" stroke-opacity="1"></use></g></g><g><g><use xlink:href="#bwnloJdFP" opacity="1" fill-opacity="0" stroke="#6e6e6e" stroke-width="1" stroke-opacity="1"></use></g></g><g><g><use xlink:href="#c1GmLekiaG" opacity="1" fill-opacity="0" stroke="#6e6e6e" stroke-width="1" stroke-opacity="1"></use></g></g><g><g><use xlink:href="#g1fkpSMrdP" opacity="1" fill-opacity="0" stroke="#6e6e6e" stroke-width="1" stroke-opacity="1"></use></g></g><g><g><use xlink:href="#c3lUcZakM" opacity="1" fill-opacity="0" stroke="#6e6e6e" stroke-width="1" stroke-opacity="1"></use></g></g><g><g><use xlink:href="#a1Kj2yXavN" opacity="1" fill-opacity="0" stroke="#6e6e6e" stroke-width="1" stroke-opacity="1"></use></g></g><g><g><use xlink:href="#brl0mPOHz" opacity="1" fill-opacity="0" stroke="#6e6e6e" stroke-width="1" stroke-opacity="1"></use></g></g><g><g><use xlink:href="#a8sn4vRzNA" opacity="1" fill-opacity="0" stroke="#2d2d2d" stroke-width="1" stroke-opacity="1"></use></g></g><g><g><use xlink:href="#aboiEtpSx" opacity="1" fill-opacity="0" stroke="#2d2d2d" stroke-width="1" stroke-opacity="1"></use></g></g><g><g><use xlink:href="#bmDRrsjMs" opacity="1" fill-opacity="0" stroke="#2d2d2d" stroke-width="1" stroke-opacity="1"></use></g></g><g><g><use xlink:href="#a9yoUeznQ" opacity="1" fill-opacity="0" stroke="#2d2d2d" stroke-width="1" stroke-opacity="1"></use></g></g><g><g><use xlink:href="#b1QCA0ryCZ" opacity="1" fill-opacity="0" stroke="#2d2d2d" stroke-width="1" stroke-opacity="1"></use></g></g><g><g><use xlink:href="#g65Gxfz0BW" opacity="1" fill-opacity="0" stroke="#2d2d2d" stroke-width="1" stroke-opacity="1"></use></g></g><g><g><use xlink:href="#i6hfD9MqC" opacity="1" fill-opacity="0" stroke="#2d2d2d" stroke-width="1" stroke-opacity="1"></use></g></g><g><g><use xlink:href="#b6dcTC4ld0" opacity="1" fill-opacity="0" stroke="#2d2d2d" stroke-width="1" stroke-opacity="1"></use></g></g><g><g><use xlink:href="#bjKhenQjR" opacity="1" fill-opacity="0" stroke="#2d2d2d" stroke-width="1" stroke-opacity="1"></use></g></g><g><g><use xlink:href="#c4yIprpTO" opacity="1" fill-opacity="0" stroke="#2d2d2d" stroke-width="1" stroke-opacity="1"></use></g></g><g><g><use xlink:href="#a3A7mdJVjO" opacity="1" fill-opacity="0" stroke="#2d2d2d" stroke-width="1" stroke-opacity="1"></use></g></g><g><g><use xlink:href="#bNVepB42O" opacity="1" fill-opacity="0" stroke="#6e6e6e" stroke-width="1" stroke-opacity="1"></use></g></g><g><g><use xlink:href="#b16Lgf60Va" opacity="1" fill-opacity="0" stroke="#6e6e6e" stroke-width="1" stroke-opacity="1"></use></g></g><g><g><use xlink:href="#c2wfpTNTLE" opacity="1" fill-opacity="0" stroke="#6e6e6e" stroke-width="1" stroke-opacity="1"></use></g></g><g><g><use xlink:href="#a1FC7n9nVE" opacity="1" fill-opacity="0" stroke="#6e6e6e" stroke-width="1" stroke-opacity="1"></use></g></g><g><g><use xlink:href="#egCNtePal" opacity="1" fill-opacity="0" stroke="#6e6e6e" stroke-width="1" stroke-opacity="1"></use></g></g><g><g><use xlink:href="#a269SvUsKH" opacity="1" fill-opacity="0" stroke="#6e6e6e" stroke-width="1" stroke-opacity="1"></use></g></g><g><g><use xlink:href="#f1eV0D9xZN" opacity="1" fill-opacity="0" stroke="#6e6e6e" stroke-width="1" stroke-opacity="1"></use></g></g><g><g><use xlink:href="#abQHa3GC" opacity="1" fill-opacity="0" stroke="#6e6e6e" stroke-width="1" stroke-opacity="1"></use></g></g><g><g><use xlink:href="#baNaDlLlX" opacity="1" fill-opacity="0" stroke="#6e6e6e" stroke-width="1" stroke-opacity="1"></use></g></g><g><g><use xlink:href="#c4MQC0EXnH" opacity="1" fill-opacity="0" stroke="#6e6e6e" stroke-width="1" stroke-opacity="1"></use></g></g><g><g><use xlink:href="#ciOmNAerj" opacity="1" fill-opacity="0" stroke="#6e6e6e" stroke-width="1" stroke-opacity="1"></use></g></g><g><g><use xlink:href="#bhYQtWj4F" opacity="1" fill-opacity="0" stroke="#6e6e6e" stroke-width="1" stroke-opacity="1"></use></g></g><g><g><use xlink:href="#e1aByqIBta" opacity="1" fill-opacity="0" stroke="#6e6e6e" stroke-width="1" stroke-opacity="1"></use></g></g><g><g><use xlink:href="#aoPlurfzo" opacity="1" fill-opacity="0" stroke="#6e6e6e" stroke-width="1" stroke-opacity="1"></use></g></g><g><g><use xlink:href="#b6q3Q1am" opacity="1" fill-opacity="0" stroke="#6e6e6e" stroke-width="1" stroke-opacity="1"></use></g></g><g><g><use xlink:href="#e9JVbUX0R" opacity="1" fill-opacity="0" stroke="#6e6e6e" stroke-width="1" stroke-opacity="1"></use></g></g><g><g><use xlink:href="#k3yG1YSyIM" opacity="1" fill-opacity="0" stroke="#6e6e6e" stroke-width="1" stroke-opacity="1"></use></g></g><g><g><use xlink:href="#b4QcaGbT1" opacity="1" fill-opacity="0" stroke="#6e6e6e" stroke-width="1" stroke-opacity="1"></use></g></g><g><g><use xlink:href="#fb49zjcOX" opacity="1" fill-opacity="0" stroke="#6e6e6e" stroke-width="1" stroke-opacity="1"></use></g></g><g><g><use xlink:href="#ciEdg385x" opacity="1" fill-opacity="0" stroke="#6e6e6e" stroke-width="1" stroke-opacity="1"></use></g></g><g><g><use xlink:href="#amlGuwFL6" opacity="1" fill-opacity="0" stroke="#6e6e6e" stroke-width="1" stroke-opacity="1"></use></g></g><g><g><use xlink:href="#doqQEu51f" opacity="1" fill-opacity="0" stroke="#6e6e6e" stroke-width="1" stroke-opacity="1"></use></g></g><g><g><use xlink:href="#cdw0cjt9j" opacity="1" fill-opacity="0" stroke="#6e6e6e" stroke-width="1" stroke-opacity="1"></use></g></g><g><g><use xlink:href="#c7k9BeERq" opacity="1" fill-opacity="0" stroke="#6e6e6e" stroke-width="1" stroke-opacity="1"></use></g></g><g><g><use xlink:href="#fDZ8SoTZw" opacity="1" fill-opacity="0" stroke="#6e6e6e" stroke-width="1" stroke-opacity="1"></use></g></g><g><g><use xlink:href="#b128JdBEsw" opacity="1" fill-opacity="0" stroke="#6e6e6e" stroke-width="1" stroke-opacity="1"></use></g></g><g><g><use xlink:href="#b9rDWT10ae" opacity="1" fill-opacity="0" stroke="#6e6e6e" stroke-width="1" stroke-opacity="1"></use></g></g><g><g><use xlink:href="#b1dDbIK6ls" opacity="1" fill-opacity="0" stroke="#6e6e6e" stroke-width="1" stroke-opacity="1"></use></g></g></g></g></g></svg>