<svg xmlns="http://www.w3.org/2000/svg" xmlns:xlink="http://www.w3.org/1999/xlink" width="524" height="262" viewBox="52.138 320 524 262">
  <defs>
    <path id="a" d="M52.14 320h524v262h-524V320Z"/>
    <path id="b" d="M105.41 560v21.62H52.8V560h52.61Z"/>
    <path id="c" d="m358.88 490.43 19.33-15.86 14.17-.41 21.06 13.35-.35 88.81-7.27 5.05h-40.99l-6.23-4.3.28-86.64Z"/>
    <path id="d" d="m52.46 398.56 52.15-.92.8 162.36H52.8l-.34-161.44Z"/>
    <path id="e" d="m79.27 355.41 7.06-.46 9.05 6.75v12.58l-6.74 7.5 15.83-.46v16.32l-52.01 1.01v-15.8l12.2-.36-6.09-9.13-1.08-10.43 9.97-7.52h5.22l-2.92-12.73 7.21-13.65 5.98 13.65-3.68 12.73Z"/>
    <path id="f" d="M128.25 371.61v-16.33l5.34-6.49 4.93 8.28v14.54l27.96 22.15 1.36 146.2-25.05-.49v34.72h25.05v7.43l-62.43.38v-7.81h22.84v-34.72h-22.84l-.94-143.85 23.78-24.01Z"/>
    <path id="g" d="M192.07 500.5v-31.32h18.12v30.64l17.68 14.99 1.65 3.76-4.17 43.94-8.22 19.49h-32.22l-8.52-19.04-3.93-43.65 1.49-3.38 18.12-15.43Z"/>
    <path id="h" d="m229.52 518.98 4.04 8.21.58 15.25-8.8 19.94-48.97.59-8.53-18.62V529.1l4.62-9.53 57.06-.59Z"/>
    <path id="i" d="m195.26 462.38-7.13-19.96.3 17.13 6.83 2.83Z"/>
    <path id="j" d="m206.65 463.33 7.03-20.61 1.78 16.37-8.81 4.24Z"/>
    <path id="k" d="m194.77 462.12 3.96 1.69-5.65-33.17-2 20.36 3.69 11.12Z"/>
    <path id="l" d="m207.34 462.38-4.26 1.82 2.77-33.86 4.76 21.38-3.27 10.66Z"/>
    <path id="m" d="m203.25 465.15-1.75-.15-2.77-.8-3.64-21.78 4.43-12.08 5.44 10.79-1.71 24.02Z"/>
    <path id="n" d="m201.7 464.8 20.49-8.91-15.05 13.29h-11.48l-16.93-13.59 22.97 9.21Z"/>
    <path id="o" d="m280.04 433.98 6.54-18.23-27.44 2.14 4.42 15.8 16.48.29Z"/>
    <path id="p" d="m255.5 432.86 33.39-.54-5.13 8.53v28.81l23.78 31.86 1.37 73.17-8.07 7.31h-53.51l-4.88-5.18-.61-75.3 19.21-30.19.3-30.48-5.85-7.99Z"/>
    <path id="q" d="m307.76 509.29.94 48.32h-66.47l-.39-47.86 65.92-.46Z"/>
    <path id="r" d="m283.76 440.6.25 17.14-22.87-.22.21-16.92h22.41Z"/>
    <path id="s" d="m313.83 538.81-5.85-5.36-1.74-163.05 52.45-.76.19 164.99-7.09 5-12.37-.47 4.54 6.42-6.9 17.85 21.63 13.88v4.06h-49.78v-4.53l18.9-13.41-6.61-18.51 5.48-5.76-12.85-.35Z"/>
    <path id="t" d="m358.67 369.64-.47-4.39-20.68-4.53 7.27-20.59h-25.31l8.5 20.59-21.74 4.25v5.29l52.43-.62Z"/>
    <path id="u" d="m387.9 479.93-1.13 36.12h-4.47l.5-36.12h5.1Z"/>
    <path id="v" d="m358.6 568.4 54.57 1.04.27-54.29-54.84-.48v53.73Z"/>
    <path id="w" d="m391.98 474.16-.04 6.28-13.89.29.29-6.33 13.64-.24Z"/>
    <path id="x" d="m374.1 464.34 3.68-3.68h2.74l-.57-16.9.85-2.27 3.31-3.21 4.25 2.17 1.82 5.03.47 15.39h1.7l3.59 3.87v9.42l-21.44.24-.4-10.06Z"/>
    <path id="y" d="m413.44 474.4 10.46-6.46 71.81-.86 9.15 9.02-.26 95.4-11.99 9.87h-67.86l-11.74-8.63.43-98.34Z"/>
    <path id="z" d="m495.24 467.08 5.32-4.04-.87-4.7-33.12-15.82 2.59-14.59-10.51-9.15-9.86 8.45 2.1 14.95-32.51 18.17.37 3.96 4.82 3.83 71.67-1.06Z"/>
    <path id="A" d="m518.05 430.4-12.57-9.27h26.82l-4.2-8.16.74-5.68 3.83-4.95h10.88l5.81 5.81.86 5.57-3.58 7.41 28.89.5-14.47 8.77v130.42l14.47 8.29v12.26h-71.08l.41-11.77 13.19-8.78V430.4Z"/>
    <path id="B" d="M560.97 430.43v21.51l-42.93-.94v-20.57h42.93Z"/>
  </defs>
  <use xlink:href="#a" fill="#9b7647"/>
  <use xlink:href="#b" fill="#6587fc"/>
  <use xlink:href="#c" fill="#09887e"/>
  <use xlink:href="#d" fill="#2d6783"/>
  <use xlink:href="#e" fill="#6587fc"/>
  <use xlink:href="#f" fill="#c02a71"/>
  <use xlink:href="#g" fill="#8305ff"/>
  <use xlink:href="#h" fill="#dbd34f"/>
  <use xlink:href="#i" fill="#ec6412"/>
  <use xlink:href="#j" fill="#ec6412"/>
  <use xlink:href="#k" fill="#f36e10"/>
  <use xlink:href="#l" fill="#f36e10"/>
  <use xlink:href="#m" fill="#ff9600"/>
  <use xlink:href="#n" fill="#ff0000"/>
  <use xlink:href="#o" fill="#aa9a70"/>
  <use xlink:href="#p" fill="#38748a"/>
  <use xlink:href="#q" fill="#c271cf"/>
  <use xlink:href="#r" fill="#c271cf"/>
  <use xlink:href="#s" fill="#acdce6"/>
  <use xlink:href="#t" fill="#09887e"/>
  <use xlink:href="#u" fill="#48716e"/>
  <use xlink:href="#v" fill="#9bfff7"/>
  <use xlink:href="#w" fill="#2f2f2f"/>
  <use xlink:href="#x" fill="#1a1a1a"/>
  <use xlink:href="#y" fill="#0a6187"/>
  <use xlink:href="#z" fill="#b1b1b1"/>
  <use xlink:href="#A" fill="#ad3a9d"/>
  <use xlink:href="#B" fill="#cfa0c9"/>
</svg>
