<svg xmlns="http://www.w3.org/2000/svg" xmlns:xlink="http://www.w3.org/1999/xlink" width="170.3" height="602.6" viewBox="145.739 72.952 170.3 602.6">
  <defs>
    <path id="a" d="M145.74 72.95h170.3v602.6h-170.3V72.95Z"/>
    <path id="b" d="m302.85 537.85-14.46 69.49-33.34-2.83 13.21-56.29 34.59-10.37Z"/>
    <path id="c" d="M316.04 239.86v300.55l-59.41 11.32-26.42-33.33 22.01-173.78 7.87-85.53 55.95-19.23Z"/>
    <path id="d" d="m316.04 244.07-39.08 19.69-31.28-8.37-30.53-33.91-17.78-9.46L187 231.48l-6.67-9.26 5.19-49.63 11.85-18.15L217 111.85l27.4-21.11 71.64-11.48v164.81Z"/>
    <path id="e" d="m245.68 161.37-9.06 2.72-13.77 15.58-17.93-4.89-2.24-8.27 12.57 55.33-13.41-2.71-15.04 11.59-1.99-15.04 16.49-55.25.76 3.34 1.05-9.46 1.81-5.26 7.06-5.61 20.29-3.08 11.6 10.14 1.81 10.87Z"/>
    <path id="f" d="m245.68 161.73-36.05 9.24-2.54-12.86 9.79-3.98 6.16-6.34 21.01 8.51 1.63 5.43Z"/>
    <path id="g" d="m236.62 153.4 2.36 9.78-17.03 4.89-3.62-12.5 4.52-7.78 13.77 5.61Z"/>
    <path id="h" d="m314.16 123.51 1.88 1.81v22.47l-6.41 9.6-18.12 4.16-20.83-6.16-5.8 1.27 1.63 36.23-30.61 19.75-6.52-4.17 25.18-16.48 1.81-26.45 2.72-7.61 4.16-1.27v-17.03l17.58-20.29 33.33 4.17Z"/>
    <path id="i" d="m298.94 128.04 15.22 9.42 1.45 7.06-40.76 7.79 1.45-16.12 5.43-5.25 17.21-2.9Z"/>
    <path id="j" d="m285.35 150.5 20.66-3.98 1.45-7.61-8.88-10.87-9.6 1.81-4.71 11.59 1.08 9.06Z"/>
    <path id="k" d="m262.26 223.3 48.94-12.68-17.43 18.14-41.37 12.67-17.43-2.99 27.29-15.14Z"/>
    <path id="l" d="m254.43 319.06 61.61 22.64v20.12l-88.66-24.21-4.71-13.52 37.73-63.52-5.97 58.49Z"/>
    <path id="m" d="m278.95 664.41-10.85 11.14h-54.67l-2.21-14.2 3.06-12.05 33.78-.51 7.48-47.31 33.44 4.18-10.03 58.75Z"/>
    <path id="n" d="M206.64 659.31v5.95l6.62 10.29 1.19-26.93-7.81 10.69Z"/>
    <path id="o" d="m268.44 675.55 11.03-11.14v-1.87l-11.88-1.7-1.19 14.71h2.04Z"/>
    <path id="p" d="m251.59 621.22 34.09 5.66-.97 6.62-34.08-5.65.96-6.63Z"/>
    <path id="q" d="m253.05 612.82 34.09 5.17.97-6.94-33.77-3.71-1.29 5.48Z"/>
  </defs>
  <use xlink:href="#a" fill="#7e7e7e"/>
  <use xlink:href="#b" fill="#edba81"/>
  <use xlink:href="#c" fill="#a18668"/>
  <use xlink:href="#d" fill="#edba81"/>
  <use xlink:href="#e" fill="#ba925e"/>
  <use xlink:href="#f" fill="#efd4a8"/>
  <use xlink:href="#g" fill="#455030"/>
  <use xlink:href="#h" fill="#ba925e"/>
  <use xlink:href="#i" fill="#efd4a8"/>
  <use xlink:href="#j" fill="#455030"/>
  <use xlink:href="#k" fill="#e9c1ca"/>
  <use xlink:href="#l" fill="#edba81"/>
  <use xlink:href="#m" fill="#876b57"/>
  <use xlink:href="#n" fill="#2b202e"/>
  <use xlink:href="#o" fill="#2b202e"/>
  <use xlink:href="#p" fill="#2b202e"/>
  <use xlink:href="#q" fill="#2b202e"/>
</svg>
