<svg xmlns="http://www.w3.org/2000/svg" xmlns:xlink="http://www.w3.org/1999/xlink" width="432.3" height="144.1" viewBox="163.023 269.952 432.3 144.1">
  <defs>
    <path id="a" d="M163.02 269.95h432.3v144.1h-432.3v-144.1Z"/>
    <path id="b" d="M397.84 361.33v52.72H163.02v-52.2l234.82-.52Z"/>
    <path id="c" d="m163.02 334.44.31 23.94 214.71-2.13-1.98-28.47-213.04 6.66Z"/>
    <path id="d" d="m393.47 321.79 4.86 4.01 12.71-6.83-3.77-41.4 20.99-.71-2.9 42.11 13.56 8.49 5.42-5.26 3.9 5.26 49.09-4.55 46.22 2.36 3.78-3.07 3.33 4.01 8.81-9.43h12.98l8.25 11 4.48-3.34.47 27.72-4.95-2.48-7.87 12.38h-14.26l-7.91-9.9-3.89 2.94-4.12-3.3-42.69 5.36-51.98-1.28-5.07 3.16-3.66-2.71L426.4 366l4.01 41.51-22.88-.35 4.01-41.16-13.21-8.84-2.71 4.17h-4.13l-3.54-5.45-12.5.45-14.78-12.34v-4.12l15.39-12.09h11.43l5.98-5.99Z"/>
    <path id="e" d="m411.75 270.38 12.97.35 4.13 6.48H406.8l4.95-6.83Z"/>
    <path id="f" d="m430.45 407.51-4.71 6.06h-13.45l-5.07-6.06h23.23Z"/>
    <path id="g" d="m557.83 329.16 4.13-4.13 7.9-.35 4.01 8.84v15.45l-5.66 6.25h-4.95l-5.43-5.54v-20.52Z"/>
    <path id="h" d="m588.97 328.92 4.83 9.08-4.13 9.56-4.02 1.88-.34-21.34 3.66.82Z"/>
  </defs>
  <use xlink:href="#a" fill="#7e7e7e"/>
  <use xlink:href="#b" fill="#795548"/>
  <use xlink:href="#c" fill="#cecece"/>
  <use xlink:href="#d" fill="#9c9c9c"/>
  <use xlink:href="#e" fill="#d64759"/>
  <use xlink:href="#f" fill="#d64759"/>
  <use xlink:href="#g" fill="#d64759"/>
  <use xlink:href="#h" fill="#d64759"/>
</svg>
