<svg xmlns="http://www.w3.org/2000/svg" xmlns:xlink="http://www.w3.org/1999/xlink" width="524" height="262" viewBox="58 8.267 524 262">
  <defs>
    <path id="a" d="M58 8.27h524v262H58v-262Z"/>
    <path id="b" d="M58 8.27h71.29v38.06H58V8.27Z"/>
    <path id="c" d="M58 46.33h71.29v22.98L58 76.19V46.33Z"/>
    <path id="d" d="m58 76.19 71.29-7.11v15.75L58 103.49v-27.3Z"/>
    <path id="e" d="m58 103.49 71.29-18.79v17.64L58 142.94v-39.45Z"/>
    <path id="f" d="m58 142.94 71.29-40.59-.48 167.92H58V142.94Z"/>
    <path id="g" d="M129.29 8.27h47.54v262h-47.54v-262Z"/>
    <path id="h" d="m176.83 202.92 366.4-2.09v69.44h-366.4v-67.35Z"/>
    <path id="i" d="m468.06 201.28-8.64 24.27-16.45 1.14-17.59-9.77-10.74-15.64h53.42Z"/>
    <path id="j" d="m383.29 88.62 6.15-16.24-18.45-38.13h9.22l38.08 17.7 19.19 19.68 11.92-4.31 23.37 7.14 45.91-17.75L580 47.85l-21.23 13.9-37.87 14.32-15.37 52.44-29.04 25.21-31.8-42.71-47.21 36.54-14.19-58.93Z"/>
    <path id="k" d="m516.43 200.83 13.03 19.08-1.31 17.75-9.12 4.89-28.01-9.93-15.31-31.79h40.72Z"/>
    <path id="l" d="m424.74 117.36 28.71 2.19 24.3 32.67v8.53l-77.38-1.2-6.77-14.32 32.02-22.73-.88-5.14Z"/>
    <path id="m" d="m231.23 202.65-32.25-9.94-15.14-25.24 11.4-103.62h5.93l-5.93 104.52 17.26 18.56 27.04 1.96 22.9-18.15 5.21-17.42 54.54-45.26 34.03-10.67 29.8 2.44 12.88 55.25 5.98-4.21 8.96 18.24 37.29 4.89 16.93-16.77 1.8 1.95 26.39-22.64 5.54 17.26-4.42 14.97 9.94 11.08 1.46 20.98-277.54 1.82Z"/>
    <path id="n" d="m353.27 201.85-2.93-11.24-16.78-6.51-15.15 3.09-3.42 14.66h38.28Z"/>
    <path id="o" d="m211.44 57.71 9.12-31.92-15.96-7h-4.72l-21.01 1.46v16.13l2.12 17.1 14.33 10.37h6.35l9.77-6.14Z"/>
    <path id="p" d="m413.55 145.93 47.75 5.17 6.76 6.18-16.44 16.86-37.57-4.74-9.28-18.3 8.78-5.17Z"/>
    <path id="q" d="m412.54 98.87 9.89-3.53 13.42 1.18 9.01 12.14 12.44-9.01 12.93 1.18L481 113.75l-21.06 15.19-8.91-12.44-16.08-.9-9.21 6.95-17.36-19.19 4.16-4.49Z"/>
    <path id="r" d="m434.87 104.25 3.82 4.22-8.42 6.85-6.86-.78-7.05-10.68 18.51.39Z"/>
    <path id="s" d="m430.66 104.18-1.18 11.14-4.41-.68 1.18-10.46h4.41Z"/>
    <path id="t" d="m450.81 110.69 5.78-.33 4.96.33 8.26 3.47v2.32l-8.51 4.54-7.52-1.24-5.29-6.69 2.32-2.4Z"/>
    <path id="u" d="m461.47 110.69-.83 10.33-4.96-.99 1.08-9.67 4.71.33Z"/>
    <path id="v" d="m430.48 118.96 8.67 9.09-6.86 5.2h11.57l-3.71-5.2 13.3-8.35-1.98-3.3-16.74-.71-4.25 3.27Z"/>
    <path id="w" d="m383.39 88.54 14.97 13.06.8-46.97-15.77-11.47v45.38Z"/>
    <path id="x" d="m374.62 53.95-16.71-12.34-25.71 13.5 17.86-20.86 20.43-.35 12.9 8.99v28.92l-8.77-17.86Z"/>
    <path id="y" d="M545.02 61.87h13.62l-33.42 38.81-6.17 24.94-16.84 5.53-3.34-29.69 46.15-39.59Z"/>
    <path id="z" d="m514.53 70.67 23.26-8.8 7.59.32-32.14 52.18-14.37-13.11v-4.75l15.66-25.84Z"/>
  </defs>
  <use xlink:href="#a" fill="#9b7647"/>
  <use xlink:href="#b" fill="#ad6800"/>
  <use xlink:href="#c" fill="#fd9902"/>
  <use xlink:href="#d" fill="#fecb00"/>
  <use xlink:href="#e" fill="#ffff02"/>
  <use xlink:href="#f" fill="#feff99"/>
  <use xlink:href="#g" fill="#7383b7"/>
  <use xlink:href="#h" fill="#aaefec"/>
  <use xlink:href="#i" fill="#d5b69a"/>
  <use xlink:href="#j" fill="#ffcb77"/>
  <use xlink:href="#k" fill="#d5b69a"/>
  <use xlink:href="#l" fill="#bdbdbd"/>
  <use xlink:href="#m" fill="#ce923c"/>
  <use xlink:href="#n" fill="#d5b69a"/>
  <use xlink:href="#o" fill="#d5b69a"/>
  <use xlink:href="#p" fill="#d5b69a"/>
  <use xlink:href="#q" fill="#d5b69a"/>
  <use xlink:href="#r" fill="#b5ad49"/>
  <use xlink:href="#s" fill="#000000"/>
  <use xlink:href="#t" fill="#b5ad49"/>
  <use xlink:href="#u" fill="#000000"/>
  <use xlink:href="#v" fill="#a1573c"/>
  <use xlink:href="#w" fill="#a1573c"/>
  <use xlink:href="#x" fill="#d5b69a"/>
  <use xlink:href="#y" fill="#d5b69a"/>
  <use xlink:href="#z" fill="#a1573c"/>
</svg>
