<svg xmlns="http://www.w3.org/2000/svg" xmlns:xlink="http://www.w3.org/1999/xlink" width="524.33" height="263.57" viewBox="57.836 265.766 524.328 263.574">
  <defs>
    <path id="a" d="M57.84 265.77h524v262h-524v-262Z"/>
    <path id="b" d="m161.41 399.85 114.75-87.93 143.18 97.38 131.3 35.8-1.94-18.32-20.95 7.95-5.57-19.63-20.69 7.17-4.25-19.63-25.46 8.99-9.36-22.49-19.63 20.16-7.96-42.45-22.55 18.52-7.69-36.02-17.72 13.34-6.1-31.56-18.56 15.11-5.84-32.89-19.68 13.74-6.37-33.68-25.73 12.25-25.2-20.48-21.48 20.48-24.14-7.74 2.65 28.3-20.42-7.96v26.53l-19.1-6.1.8 23.34-25.2-7.69.79 31.03-26.52-8.75-5.31 23.87-19.89-5.84-5.04 16.98 44.88-11.78Z"/>
    <path id="c" d="M582.16 452.36v76.98h-524l-.32-73.22 524.32-3.76Z"/>
    <path id="d" d="m134.67 454.02 60.8-.96 5.57 13.26h-13l-2.69 13.53 50.97 2.39 6.36-29.18 267.16-2.27 13.53 9.59L301.78 518l3.45 5.3 223.71-23.98 52.9-41.11v-7.42l-143.69-51.71-59.95-42.97-73.53-50.45h-46.68l-85.04 79.92-57.56 27.06 19.28 41.38Z"/>
    <path id="e" d="m303.69 328.08-17.51 49.6 13.27 37.4-16.71 37.66 12.2 53.58-62.6-91.24 48.8-87h22.55Z"/>
    <path id="f" d="m354.19 373.34 33.52 22.8-17.31 90.11-63.46-1.65 3.02-15.93h16.49l-15.11-26.1 1.92-38.19 40.93-31.04Z"/>
    <path id="g" d="m136.45 419.35 4.39 19.78 39.29 28.03 5.22 12.91-3.18 19-90.12-9.79-19.37-34.87v-24.9l31.23-20.55 32.54 10.39Z"/>
  </defs>
  <use xlink:href="#a" fill="#7e7e7e"/>
  <use xlink:href="#b" fill="#60b3ed"/>
  <use xlink:href="#c" fill="#795548"/>
  <use xlink:href="#d" fill="#98cb01"/>
  <use xlink:href="#e" fill="#ede270"/>
  <use xlink:href="#f" fill="#b3ce62"/>
  <use xlink:href="#g" fill="#b3ce62"/>
</svg>
