<svg xmlns="http://www.w3.org/2000/svg" xmlns:xlink="http://www.w3.org/1999/xlink" width="262" height="262" viewBox="322.371 43.081 262 262">
  <defs>
    <path id="a" d="M322.37 43.08h262v262h-262v-262Z"/>
    <path id="b" d="M378.84 246.82h205.53v58.26H378.84v-58.26Z"/>
    <path id="c" d="m378.49 250.8-15.99 9.31-6.06 11.18 8.39 6.21 2.63-13.97 11.81 5.59-.43-9.01 12.23 5.75-1.4-10.25-11.18-4.81Z"/>
    <path id="d" d="m433.61 257.32-6.36 8.07-5.9-10.71 4.5-3.88 7.76 6.52Z"/>
    <path id="e" d="m450.38 253.12-7.14 8.39-2.95-11.96 10.09 3.57Z"/>
    <path id="f" d="m460.48 254.68-4.82 5.74-.77-11.64 5.59 5.9Z"/>
    <path id="g" d="m499.13 257.23-9.11 6.8v-9.84l5.93-3.04 3.18 6.08Z"/>
    <path id="h" d="m514.5 256.13-9.68 6.32 1.53-13.15 8.15 6.83Z"/>
    <path id="i" d="m528.87 255.42-.61 2.55-9.89 3.97 6.32-14.27 4.18 7.75Z"/>
    <path id="j" d="m360.52 247.64-11.11-10.09-2.91-21.54 5.98-15.72 27.69-18.69 68.11-44.63 36.37-7.83 11.32 16.21 12.03 7.69v22.85l-7.52 14.53-6.49 3.76-2.91 52.64-130.56.82Z"/>
    <path id="k" d="m378.84 255.6-22.4 15.91-2.41-11.93 5.1-11.93 29.25-.83 1.63 8.78-11.17-2.44v2.44Z"/>
    <path id="l" d="m415.71 208.97-51.35-39.34 5.88-16.79L415 132.67l31.86 2.94 12.75 23.41-18.31 18.48-24.51-3.42 32.49 46.2 1.59 13.97 3.43-.86 8.7 6.38v13.11l-2.52 2.33-4.71.32-15.48-5.98-6.68 7.99-12.26-2.94-4.18-7.78h-7.35l5.89-37.85Z"/>
    <path id="m" d="m516.89 214.53 4.45 17.43h5.13l5.81 8.89-3.41 15.03-9.24 4.12-4.28-3.77-8.88-4.61-7.34 5.92-9.11-2.94 1.06-7.78-7.69-8.7-3.08-35.9 13.85-8.04 22.73 20.35Z"/>
    <path id="n" d="m485.09 129.14 59.24-31.75 35.24-15.71-2.97-12.1-31.21-12.95-21.77.64-35.49 14.14v2.76l-51.59 36.73 2.97 9.97 7.85 16.14 37.73-7.87Z"/>
    <path id="o" d="m478.74 98.9-1.82 5.06v10.27l8.29 4.78-.56 10.13 11.39 16.73 12.01 7.46 15.98 19.12 12.94 2.39 5.06-12.79-10.97-.99-10.97-15.61 14.2.42 9.99 11.53v4.65l16.17-.99 3.8-12.66-11.11-13.78.7-13.92-9.56-3.38V97.49l-5.63-3.66-10.26-2.67-11.68 8.44.57 8.86-1.83.7-5.77-9.84-8.44-6.61-10.97-1.98-11.53 8.17Z"/>
    <path id="p" d="m462.27 51.47-45.44-7.86H402.4l-55.9 16.54-18.29 16.35 15.93 20.81-.85 27.6 21.87 13.8v8.7l14.86 1.28 36.09-16.02 31.59 4.34-8.06-15.48-3.1-10.61 15.83-9.13 14.65-4.97 18.69 3.27 5.09-2.12-2.76-24-25.77-22.5Z"/>
    <path id="q" d="m574.24 95.52 3.37-2.53V82.44l-9.98 4.64 6.61 8.44Z"/>
    <path id="r" d="m525.03 127.56 4.11 6.33-6.17.63-3.64-3.8 1.25-3.16h4.45Z"/>
    <path id="s" d="m547.97 127.56 3.01 3-1.27 4.43h-5.54v-5.06l3.8-2.37Z"/>
    <path id="t" d="m489.73 98.35 1.28-.51-.85-6.63-7.09-8.11-6.15 3.83 12.81 11.42Z"/>
  </defs>
  <use xlink:href="#a" fill="#7e7e7e"/>
  <use xlink:href="#b" fill="#795548"/>
  <use xlink:href="#c" fill="#fefea2"/>
  <use xlink:href="#d" fill="#fefea2"/>
  <use xlink:href="#e" fill="#fefea2"/>
  <use xlink:href="#f" fill="#fefea2"/>
  <use xlink:href="#g" fill-opacity="0" stroke="#000000"/>
  <use xlink:href="#g" fill="#fefea2"/>
  <use xlink:href="#h" fill="#fefea2"/>
  <use xlink:href="#i" fill="#fefea2"/>
  <use xlink:href="#j" fill="#65b418"/>
  <use xlink:href="#k" fill="#6da59f"/>
  <use xlink:href="#l" fill="#6da59f"/>
  <use xlink:href="#m" fill="#6da59f"/>
  <use xlink:href="#n" fill="#555555"/>
  <use xlink:href="#o" fill="#a1d56f"/>
  <use xlink:href="#p" fill="#bfbfbf"/>
  <use xlink:href="#q" fill="#fefea2"/>
  <use xlink:href="#r" fill="#b44818"/>
  <use xlink:href="#s" fill="#b44818"/>
  <use xlink:href="#t" fill="#fefea2"/>
</svg>
