<svg xmlns="http://www.w3.org/2000/svg" xmlns:xlink="http://www.w3.org/1999/xlink" width="524" height="262.07" viewBox="34.221 308.22 524 262.071">
  <defs>
    <path id="a" d="M34.22 308.22h524v262h-524v-262Z"/>
    <path id="b" d="m100.42 570.22 256.76.07 2.52-39.61-258.81-.93-.47 40.47Z"/>
    <path id="c" d="m143.73 529.75-.57 40.54h-21.35v-40.54h21.92Z"/>
    <path id="d" d="m193.58 348.99 2.42-2.8.3 2.04 2.64-1.36.38 2.5 4.31-.68-.68 2.64 4.99-1.59-5.24 9.6-14.06 9.9-11.11 7.18 2.12-4.53-5.82 2.19 4.31-7.41h-3.1l5.74-8.24 12.8-9.44Z"/>
    <path id="e" d="m319.89 535.22 16.5 3.45-.39-4.73 10.82.77 3.51-3.07 3.96-2.17-5.5-6.91-47.44 6.19 9.85-18.85v-15.86l-13.76-30.2-1.67-18.94 16.36-15.97 34.69-29.99 15.22-.77 10.49 9.03 4.46 20.91-1.54 10.1 1.92 4.4.64-5.42 4.99-9.72 12.15-5.88 9.59 5.24-.41 35.09-2.18 13.03 1.8 1.41 2.81-9.85 27.36-24.29 4.74 5.88-1.92 50.13 2.81 10.61.77-16.88 12.4-47.06 23.92-2.68 17.77 86.53 3.32-7.25-14.7-81.84-14.35-59.71-36.99-31.83-64.01-33.87-11.63 8.57-4.22 9.33 12.78-8.69v12.78l-11.76 24.81-17.78 11.38-14.06 5.99-7.55 1.53h-4.73l-17.98-6.26-17.45 9.86-8.44 7.28-2.3 6.27-17.65 2.43 3.45 3.07-8.95 4.09-8.06.51-21.1-35.67h-2.04l-6.65-6.4.64-5.75-9.08-10.87-18.13 1.68 13.01 19.55 8.83.63 14.09 22.56 4.32 15.3-17.45.96-21.62 8.31-2.68 5.62-1.02 9.21-18.16 6.89-35.36-8.83-29.92-40.54-1.79-14.58v18.16l14.32 40.54-3.08 20.02L65.3 405.4l-9.21-22.51 5.12 20.08 7.03 15.09 23.24 31.71 6.01 12.15-9.34 2.82-17.26-11.26-16.63-16.75.39 5.88 21.74 21.23 25.37 28.44 57.8 25.56 32.66 10.91 21.64 1.51L216.8 513l21.1-20.72 13.04-4.6 13.04 3.19 20.59 1.92 8.39 7.69-7.03 8.82 4.34 15.35-3.32 5.88 31.07 7.16 1.87-2.47Z"/>
    <path id="f" d="m316.96 537.34 3.84 5.37v-7.8l-3.84-.51v2.94Z"/>
    <path id="g" d="m339.98 533.64-1.66 12.66-3.07-12.66h4.73Z"/>
    <path id="h" d="m354.3 541.69-8.18-6.78 5.24-3.32 2.94 10.1Z"/>
    <path id="i" d="M358.01 530.82h-5.5l-2.81-8.05 8.31 8.05Z"/>
    <path id="j" d="M115.56 503.55 76.3 485.59l-15.48-28 16.88 7.16 33.64 29.32 52.81 25.19-48.59-15.71Z"/>
    <path id="k" d="m88.36 462.27 6.77-1.14-2.3-8.95 8.95 11.89 35.04 29.28 59.72 32.1-2.81 2.3-89.55-43.26-34.66-33.25 18.84 11.03Z"/>
    <path id="l" d="m74.33 413.78 24.55 19.94-9.08-24.04-1.4-14.96 13.81 36.58 27.64 34.18 70.85 54.98-2.3 2.31-62.03-34.66-36.24-32.08-34.91-49.62-3.58-15.34 12.69 22.71Z"/>
    <path id="m" d="m95.13 396.5 27.72 26.66 21.21 10.76 14.45-.77 11.13-4.35 4.34-6.39 33.64 91.17-4.86 4.1-79.53-65.27-18.42-24.3-15.85-39.64-.39-19.95 6.56 27.98Z"/>
    <path id="n" d="m195.68 456 15.35 40.92 30.56-36.95-22.12-15.22-22.93-.51-.86 11.76Z"/>
    <path id="o" d="m196.54 444.24 23.06-1.14 28.87 8.83 11.75 10.36-.76 18.16 4.47 10.62 9.72 6.64 11.13-3.96 27.35-64.45-1.52-23.91-11.51 30.56-10.36.38-25.82-21.83-5.5 8.96-5.11 4.22-15.22-6.4-24.68-2.81-27.88 7.03 11.15 30.57.86-11.83Z"/>
    <path id="p" d="m197.32 436.63 7.42-8.7 19.31-8.18 3.32.38 13.94 11 7.16 20.72-7.16 8.31-21.74-15.22-23.03-.7.78-7.61Z"/>
    <path id="q" d="m272.72 421.54 8.57-.51-4.22-2.69-4.35 3.2Z"/>
    <path id="r" d="m265.68 415.27 8.06-.38-3.58-3.33-4.48 3.71Z"/>
    <path id="s" d="m247.91 398.78 15.98 2.43.52 6.52-16.5-8.95Z"/>
    <path id="t" d="m244.58 384.07 19.44 8.31-1.53 4.48-4.73.64-13.18-13.43Z"/>
    <path id="u" d="m269.01 384.07-15.47-32.64 19.69 27.62-25.32-50.64 17.77 23.02-.76-9.34-6.65-15.6 9.72 12.66 6.26 20.21-3.71-30.95 10.75 20.08-1.8-23.53 9.98 36.95 3.96-27.87 4.86 22.74 1.79-3.45v10.48l9.47-20.58-3.97 31.33 5.5-5.63-2.94 16.37-9.21-7.93.39 6.7-7.68.72 1.41-3.97h-7.8l3.2 4.48-7.55.51-.77-2.05-6.39 1.03-1.53 2.43 2.81 2.55-6.01 5.37-43.48-45.39 43.48 34.32Z"/>
    <path id="v" d="M275.39 399.88v4.49l-2.67 1.86-.5-9.2 3.17 2.85Z"/>
    <path id="w" d="m278.68 402.4-3.29 2.08v-5.04l3.29 2.96Z"/>
    <path id="x" d="M304.49 396.48v4.49l2.68 1.86.5-9.2-3.18 2.85Z"/>
    <path id="y" d="m301.2 399 3.29 2.08v-5.04L301.2 399Z"/>
    <path id="z" d="m292.81 433.59-2.52-7.13-9.31-4.92 11.83 12.05Z"/>
    <path id="A" d="m309.57 388.9 1.09 15.58 13.12-7.45-10.34 1.2 11.74-11.49-14.52 7.29 4.24-6.07 16.24-24.69-25.06 26.07 3.49-.44Z"/>
    <path id="B" d="m360.96 379.44 6.13-6.46 3.83-30.45 10.89 48.7-6.46 45.68-2.96-21.64-9.09-10.45-7.45-3.74-43.72 28.27 18.64-45.48 30.19-4.43Z"/>
    <path id="C" d="m371.87 333.68.54-5.04 40.21 80.91-10.51 63.09-.22-39.9-4.16-6.28-9.86-.3-9.2 10.3 8.65-52.59-15.45-50.19Z"/>
    <path id="D" d="m417.13 408.79-12.59 66.92 10.62-14.68 15.23-13.69 4.71-.44 3.72 6.24 1.74-54.27-62.78-70.23 39.35 80.15Z"/>
    <path id="E" d="m445.69 396.28-5.13 98.53 7.94-32.42 9.97-15.55 10.84-1.54 6.58 4.71 18.4 78.52.76-1.86-16.49-90.83-16.34-55.74-30.91-24.04-37.02-20.26 51.4 60.48Z"/>
  </defs>
  <use xlink:href="#a" fill="#7e7e7e"/>
  <use xlink:href="#b" fill="#d8bb78"/>
  <use xlink:href="#c" fill="#5f450b"/>
  <use xlink:href="#d" fill="#ffffff"/>
  <use xlink:href="#e" fill="#586777"/>
  <use xlink:href="#f" fill="#ffffff"/>
  <use xlink:href="#g" fill="#ffffff"/>
  <use xlink:href="#h" fill="#ffffff"/>
  <use xlink:href="#i" fill="#ffffff"/>
  <use xlink:href="#j" fill="#8f8f75"/>
  <use xlink:href="#k" fill="#8f8f75"/>
  <use xlink:href="#l" fill="#8f8f75"/>
  <use xlink:href="#m" fill="#8f8f75"/>
  <use xlink:href="#n" fill="#7e7e7e"/>
  <use xlink:href="#o" fill="#7898af"/>
  <use xlink:href="#p" fill="#8f8f75"/>
  <use xlink:href="#q" fill="#ffffff"/>
  <use xlink:href="#r" fill="#ffffff"/>
  <use xlink:href="#s" fill="#ffffff"/>
  <use xlink:href="#t" fill="#ffffff"/>
  <use xlink:href="#u" fill="#ffffff"/>
  <use xlink:href="#v" fill="#97706b"/>
  <use xlink:href="#w" fill="#1b1b1b"/>
  <use xlink:href="#x" fill="#97706b"/>
  <use xlink:href="#y" fill="#1b1b1b"/>
  <use xlink:href="#z" fill="#6a444e"/>
  <use xlink:href="#A" fill="#ffffff"/>
  <use xlink:href="#B" fill="#8f8f75"/>
  <use xlink:href="#C" fill="#8f8f75"/>
  <use xlink:href="#D" fill="#8f8f75"/>
  <use xlink:href="#E" fill="#8f8f75"/>
</svg>
