<svg xmlns="http://www.w3.org/2000/svg" xmlns:xlink="http://www.w3.org/1999/xlink" width="262" height="786" viewBox="329.094 7 262 786">
  <defs>
    <path id="a" d="M329.09 7h262v786h-262V7Z"/>
    <path id="b" d="m468.81 457.78 66.03-321.83-3.48-24.13 3.48-24.91 11.19-20.46 12.94 4.44.58 45.98-15.42 21.25-62.39 322.62 9.67 2.28-1.37 16.37-36.36-10.46 2.27-15.2 12.86 4.05Z"/>
    <path id="c" d="m445.05 502.26-40.35 70.27 3.67 3.86 22.01-37.84 9.84-1.35 11.49-33.4 26.25 6.57-1.73 33.78 7.33 11.58 2.7 49.81 5.02.97-5.96-93.83 4.44-33.29-36.68-10.33-8.03 33.2Z"/>
    <path id="d" d="m443.19 529.77-7.52-1.35 5.02-9.85 4.82-3.47 1.55 1.93-3.87 12.74Z"/>
    <path id="e" d="m476.4 533.63 6.76 8.11v-13.13l-5.6-5.4-1.16 10.42Z"/>
    <path id="f" d="m404.7 573.01-21.35-6.18 4.83-15.25 24.71 6.76-8.19 14.67Z"/>
    <path id="g" d="m491.28 606.51 25.85 6.85v-21.24l-27.41-7.72 1.56 22.11Z"/>
    <path id="h" d="m403.23 642.33-7.91 73.42 13.7 76.84h1.94l37.03-57.06 25.32-82.79 4.74-142.65-26.55-6.44-48.27 138.68Z"/>
    <path id="i" d="m451.24 495.7 7.95 2.6 2.59-18.91-6.05-2.68-4.49 18.99Z"/>
    <path id="j" d="m475.77 503.13 7.39 1.9 2.8-18.13-6.18-2.42-4.01 18.65Z"/>
  </defs>
  <use xlink:href="#a" fill="#7e7e7e"/>
  <use xlink:href="#b" fill="#000000"/>
  <use xlink:href="#c" fill="#b9b9b9"/>
  <use xlink:href="#d" fill="#9b7647"/>
  <use xlink:href="#e" fill="#9b7647"/>
  <use xlink:href="#f" fill="#000000"/>
  <use xlink:href="#g" fill="#000000"/>
  <use xlink:href="#h" fill="#c8ab6c"/>
  <use xlink:href="#i" fill="#000000"/>
  <use xlink:href="#j" fill="#000000"/>
</svg>
