<svg xmlns="http://www.w3.org/2000/svg" xmlns:xlink="http://www.w3.org/1999/xlink" width="1519.6" height="314.4" viewBox="12.166 305.32 1519.6 314.4">
  <defs>
    <path id="a" d="M12.17 305.32h1519.6v314.4H12.17v-314.4Z"/>
    <path id="b" d="m1483.94 551.09 42.3 34.9-48.67 26.9-985.4-100.71 17.46-57.09 974.31 96Z"/>
    <path id="c" d="m1503.53 566.9 23.41 18.89-23.41 12.73-989.31-94.35 17.25-31.21 972.06 93.94Z"/>
    <path id="d" d="m48.38 395.76 23.72-25.54 28.84 6.93 17.15 25.55 11.2-8.85 8.51 10.67 104.74 1.1L354.58 427l14.6-12.4 6.57 9.48 37.96-13.13 7.3-39.42-11.32-10.58 13.25-5.48 4.38-20.46-6.31-12.02 48.61 7.83-7.64 4.19-3.02 25.94 11.32 7.3-15.33 6.2-6.57 47.44 23.72 19.35 10.59-8.4 68.98 56.14-87.23 34.01 1.46-13.14-31.75 9.85-6.83 40.44 13.51 12.41-16.06 7.3-1.83 20.44 13.51 8.76-65.7-11.68 12.78-5.84 3.28-16.79-12.04-11.31 14.96-5.84 7.3-45.26-30.66-23.35-9.49 6.2-10.94-11.31 1.05-5.62-110.95-5.11-105.1-21.54-9.13 10.92-8.76-10.92-22.99 17.52H64.15L44.8 437l-11.68 5.48 4.38-56.21 10.88 9.49Z"/>
    <path id="e" d="m461.53 329.56-7.18-9.86h-19.92l-3.7 5.14 30.8 4.72Z"/>
    <path id="f" d="m458.45 361.18-2.87 13.14-34.29-3.08 2.05-16.01 35.11 5.95Z"/>
    <path id="g" d="m476.52 488.19 8.01-.61 5.96-7.19-5.96-9.24h-6.77l-7.6 6.16 6.36 10.88Z"/>
    <path id="h" d="m386.79 574.97 12.94 1.84 2.26-17.86-12.32-1.03-2.88 17.05Z"/>
    <path id="i" d="m424.98 579.69-11.91-.82 3.29-18.07h11.09l-2.47 18.89Z"/>
    <path id="j" d="m418.41 605.67-12.93 11.49h-9.24l-11.91-17.65 34.08 6.16Z"/>
    <path id="k" d="m361.7 460.41 8.21-4.31-8.21-6.78-6.57 4.31 6.57 6.78Z"/>
    <path id="l" d="m128.31 421.03 4.11 7.8-8.63 6.77-5.75-8.21 10.27-6.36Z"/>
    <path id="m" d="m34.47 433.55-13.55-6.57 2.26-25.05 13.69-2.88-2.4 34.5Z"/>
    <path id="n" d="m90.32 391.87 8.63 7.8 3.9 27.1-7.19 20.13-12.93 5.34-19.72-8.42-1.43-28.75 8.62-22.18 20.12-1.02Z"/>
  </defs>
  <use xlink:href="#a" fill="#7e7e7e"/>
  <use xlink:href="#b" fill="#656565"/>
  <use xlink:href="#c" fill="#aeaeae"/>
  <use xlink:href="#d" fill-opacity="0" stroke="#000000"/>
  <use xlink:href="#d" fill="#926432"/>
  <use xlink:href="#e" fill="#7b2218"/>
  <use xlink:href="#f" fill="#7b2218"/>
  <use xlink:href="#g" fill="#7b2218"/>
  <use xlink:href="#h" fill="#7b2218"/>
  <use xlink:href="#i" fill="#7b2218"/>
  <use xlink:href="#j" fill="#7b2218"/>
  <use xlink:href="#k" fill="#7b2218"/>
  <use xlink:href="#l" fill="#7b2218"/>
  <use xlink:href="#m" fill="#7b2218"/>
  <use xlink:href="#n" fill="#7b2218"/>
</svg>
