<svg xmlns="http://www.w3.org/2000/svg" xmlns:xlink="http://www.w3.org/1999/xlink" width="524.51" height="1048" viewBox="213.005 12 524.511 1048">
  <defs>
    <path id="a" d="M213 12h524v1048H213V12Z"/>
    <path id="b" d="M640.92 123.6v82.43L615.3 217.6l-6.81-1.82-.9 12.7-9.04 13.61 2.23 27.05 12.25 6.58 9.52 6.12 19.66 27.09 4.56 247.9-85.93 117.14 12.41 40.87.96 20.04-12.41 87.42 25.06 132.06 11.69 19.09 6.92 68.74-5.96 4.06-42.96-1.91-20.53-22.44-4.53-27.21 6.2-84.22-5.01-15.18 4.3-66.35-11.22-68.21 3.82-17.18-3.82-5.25-.95-39.19 5.48-12.88-5.48-41.29-.96-100.24-8.83-22.06-50.6-3.82-7.63-10.26V453.5l9.07-38.91-.72-19.09-8.35-32.37.68-13.13 8.39-28.88 17.18-26.25 8.72-1.1 7.75-16.73 9.8-11.84-4.49-6.53-22.86-14.29h-24.49l-4.9-9.79h-22.04l-18.77 18.37-6.13-16.74v-23.67l9.8-24.08 24.9-28.58 14.69-3.67 24.49-28.16 29.8-19.59 55.51-5.31 22.86 9.39 32.24 17.55 21-6.5Z"/>
    <path id="c" d="m507.15 152.21-1.12 8.13 8.96 12.88-48.74 8.41 1.4-15.69 2.8-7.56 36.7-6.17Z"/>
    <path id="d" d="m502.92 175.27 1.62-9.56-7.5-7.94-14.41 2.94-10.59 8.38-1.77 11.77 32.65-5.59Z"/>
    <path id="e" d="m480.13 165.12 3.08-4.56 6.33-1.17 4.56 1.17 4.26 4.86.59 5.44-1.18 5.59-13.08 2.2-4.56-2.5-2.65-4.85 2.65-6.18Z"/>
    <path id="f" d="m547.99 144.93 9.56-8.82 21.91 6.47h9.86l2.5 21.62-54.27 5.73 10.44-25Z"/>
    <path id="g" d="m543.14 166.26 12.35-22.95 14.27-.44 12.5 8.39.73 4.55-10.58 10.45-30 3.05.73-3.05Z"/>
    <path id="h" d="m550.49 155.52 2.21-6.47 4.12-3.82 7.87-1.03 4.92 3.53 3.38 5-.58 5.44-2.36 5.59-6.76 2.5-6.47-1.33-5.3-4.56-1.03-4.85Z"/>
    <path id="i" d="m527.11 247.57-7.2-2.8-8.83-5.59.88-5.14 3.03-5.3 7.12-3.23 22.94-4.41 20.3 10.44-12.8 11.47-25.44 4.56Z"/>
    <path id="j" d="m523.88 230.65 16.76-3.53 12.65 6.77-13.38 3.68-23.09.58 7.06-7.5Z"/>
    <path id="k" d="M447.49 189.6v11.61l3.83 10.15 3.23-1.32-1.32 6.17 3.23 4.12 10.59-1.76.44-5-6.17-8.09-4.12.73 4.12-9.85-6.77-8.09-7.06 1.33Z"/>
    <path id="l" d="m524.75 285.98 36.19 42.17 32.65 18.66 19.59-11.2 1.49-30.97-14.74-36.01 10.82 5.79 25.75 47.8 4.48 1.49 15.67 136.5 28.47 37.43 18.85 62.69-50.16 135.93-14.95-2.5-17.52.73-60.4-19.92-17.01-9.97-19.18-17.4 3.17 22.57-5.3.3v-14.98l-3.03-3.05v-5.54l-3.69-.93v-5.13l-17.49 2.6-7.69-3.47-.88-6.82 31.24-2.23-5.7-43.28-.95-64.52 66.41 5.86 58.02 26.37 8.81 2.58-9.54-59.89-18.01.9 17.53-16.41 5.23-12.75-6.38.75-41.04 17.27-9.74 14.16-88.31-22.16 15.58-117.78-4.54-61.06-17.02-6.36 7.54-16.89 25.78 8.67Z"/>
    <path id="m" d="M737.52 1060h-94L635.86 12h100.65l1.01 1048Z"/>
    <path id="n" d="m638.13 556.39 49.89 1.14 10.66-4.77-3.63-4.3-56.01-10.89v-4.53l38.77-1.59 23.59-4.54 6.35-6.12-5.45-2.49-64.17 1.81v-5.21l23.13-2.73 33.11-15.64v-8.62h-16.56l-21.31 8.62-18.37.68v59.18Z"/>
  </defs>
  <use xlink:href="#a" fill="#7e7e7e"/>
  <use xlink:href="#b" fill="#a5897e"/>
  <use xlink:href="#c" fill="#5b483f"/>
  <use xlink:href="#d" fill="#ececec"/>
  <use xlink:href="#e" fill="#3f6d91"/>
  <use xlink:href="#f" fill="#5b483f"/>
  <use xlink:href="#g" fill="#ececec"/>
  <use xlink:href="#h" fill="#3f6d91"/>
  <use xlink:href="#i" fill="#7c556b"/>
  <use xlink:href="#j" fill="#000000"/>
  <use xlink:href="#k" fill="#090909"/>
  <use xlink:href="#l" fill="#5b8090"/>
  <use xlink:href="#m" fill="#795548"/>
  <use xlink:href="#n" fill="#a5897e"/>
</svg>
