<svg xmlns="http://www.w3.org/2000/svg" xmlns:xlink="http://www.w3.org/1999/xlink" width="262" height="943.2" viewBox="212.051 3.4 262 943.2">
  <defs>
    <path id="a" d="M212.05 3.4h262v943.2h-262V3.4Z"/>
    <path id="b" d="M212.05 48.23v12.85l23.69-.94 10.03-23.51-8.78-9.72-24.94 21.32Z"/>
    <path id="c" d="m245.77 36.6-26.4 61.13.4 22.93 14.64 54.3 10.22 11.69 98.42 75.97 91.37 103.64 35.09 49.6-3.5-29.44-53.63-123.47-34.26-79.3-55.01-62.67-41.53-23.25h-2.83L267.33 82.4l7.26-14.65-1.48-1.75 32.26-26.74-18.42-22.31-34.54 1.21-13.44 11.02 6.8 7.42Z"/>
    <path id="d" d="m273.27 190.98 69.5 70.84 14.79 45.84-14.51-14.65-24.53 44h4.44l3.36 23.52-7.8 18.82h-5.37l-33.13-11.95-4.57 7.93-4.84-37.5 30.78-.4 20.51-58.37-16-15.33-60.84-76.48 2.67-56.92 25.54 60.65Z"/>
    <path id="e" d="m435.02 355.2-.68 15.94 39.25 94.22v4.03l-49.46-85.89 10.89 73.79 1 318.16-13.89 143.61-5.41-341.82-28.37-180.76-25.73-59.53-19.57-75.14 91.97 93.39Z"/>
    <path id="f" d="m281.76 378.68-28.36 56.16-41.35-.61v16.67l50.35-.47 35.44-71.75 15.05.67-3.49-29.03-17.88-3.36-11.29 20.29 1.53 11.43Z"/>
  </defs>
  <use xlink:href="#a" fill="#7e7e7e"/>
  <use xlink:href="#b" fill="#ffdc2b"/>
  <use xlink:href="#c" fill="#ff3030"/>
  <use xlink:href="#d" fill="#ffcc00"/>
  <use xlink:href="#e" fill="#a40000"/>
  <use xlink:href="#f" fill="#2a36ab"/>
</svg>
