<svg xmlns="http://www.w3.org/2000/svg" xmlns:xlink="http://www.w3.org/1999/xlink" width="314.4" height="419.2" viewBox="171.368 206.007 314.4 419.2">
  <defs>
    <path id="a" d="M171.37 206.01h314.4v419.2h-314.4v-419.2Z"/>
    <path id="b" d="M243.4 361.61v142.93l-10.35 2.27-1.26-143.18 11.61-2.02Z"/>
    <path id="c" d="M274.97 353.53v148.23l-10.1.76V355.8l10.1-2.27Z"/>
    <path id="d" d="m335.58 354.79 2.27 142.93-10.35-7.32-2.78-136.87 10.86 1.26Z"/>
    <path id="e" d="m357.29 359.34 2.28 143.18 11.86 2.02V361.61l-14.14-2.27Z"/>
    <path id="f" d="m204.26 519.48 198.49-2.78 1.01-9.89-98.49-14.1-10.35.76-90.66 13.34v12.67Z"/>
    <path id="g" d="m299.47 501.99 98.73 13.64 2.02 48.99-102.27 31.06-92.42-27.46v-53.79l93.94-12.44Z"/>
    <path id="h" d="m268.15 419.66-22.47-2.26-41.42-11.89v-4.54l41.42-8.33 22.47 16.91v10.11Z"/>
    <path id="i" d="m313.61 418.9 12.12-10.61 43.43-7.57v-2.28l-34.59-15.4-8.84 1.26-14.65 20.2 2.53 14.4Z"/>
    <path id="j" d="m295.55 397.41 3.32-17.24-4.38-4.51-7.56 4.9 3.98 2.92-6.76 13.53-13.4-15.39 3.19-3.71-8.23-1.72-5.83 8.62 2.78 1.59 1.86-1.19 10.87 18.83 20.16-6.63Z"/>
    <path id="k" d="m287.99 396.51 16.71 1.06 8.57 5.7 2.59 14.13-11.54 9.73 50.13 24.27-.53 13.26-41.38-23.6 46.01 87.09 35.15 18.3-34.75-1.19-54.25-59.92-6.36-4.51-19.36 32.1 13.66 34.08-21.62 11.01-16.58-1.86-3.71-2.39 20.29-13.13-8.49-30.23 24.27-44.7-11.83-15.65-24.24 7.69v-11.4l37.26-15.52-6.49-2.81-15.79-9.12-.53-12.21 9.02-5.04 13.79-5.14Z"/>
    <path id="l" d="m280.77 412.67-4.47 1.42-2.3-2.08 3.58-3.18 3.19 3.84Z"/>
    <path id="m" d="m295.22 413.2-3.84-.53-1.2-2.65.8-2.25h2.78l1.46 5.43Z"/>
    <path id="n" d="M296.15 425.62h-13.13l-2.78-3.8 15.91-.53v4.33Z"/>
    <path id="o" d="M207.6 368.67v200.51l-9.98-2.81-3.58-194.12 13.56-3.58Z"/>
    <path id="p" d="m250.73 357.93.62 224.04-8.42-3.32-3.62-217.04 11.42-3.68Z"/>
    <path id="q" d="m304.53 348.42.77 246.61h-11V349.75l10.23-1.33Z"/>
    <path id="r" d="m360.54 360.35 2.25 216.69-9.41 3.33-1.79-221.03 8.95 1.01Z"/>
    <path id="s" d="m405.81 369.81 1.53 194.63-9.72 2.56-.76-199.23 8.95 2.04Z"/>
    <path id="t" d="m248.43 459.76 2.3 3.18-1.77 1.86 2.39 1.85-1.72 1.73-8.63.66-2.52-2.78-3.97-3.32 6.49-8.09 7.96 2.65-.53 2.26Z"/>
    <path id="u" d="m355.3 465 5.84 2.38 9.15-9.01-1.13-5.18-8.02-5.97-5.84 4.25V465Z"/>
    <path id="v" d="m299.8 591.61 107.54-30.54v9.34L296.7 601.83l-98.74-29.27-.47-9.97 102.31 29.02Z"/>
    <path id="w" d="m292.03 344.98-26.76-55.3h-2.21l-8.07 8.54-14.24-.47-4.75-8.7V275.8l6.33-7.64 12.66-.32 5.46 7.96 225.32-2.34v96.5l-81.86-81.63h-44.3l-50.38 57.24 96.52 19.93.47 6.96-101.71-19.9-8.36-.48-102.11 23.9v-12.19l97.99-18.81Z"/>
    <path id="x" d="m292.19 327.69 12.02-23.74-5.34-15.35-23.9.32 17.22 38.77Z"/>
    <path id="y" d="m306.43 312.81 5.38 17.57-12.01 13.6-4.92-9.49 11.55-21.68Z"/>
    <path id="z" d="m308.96 295.88 3.8-7.28h-7.12l3.32 7.28Z"/>
    <path id="A" d="m347.09 288.6-30.38 36.55-4.9-20.41 8.38-16.14h26.9Z"/>
  </defs>
  <use xlink:href="#a" fill="#7e7e7e"/>
  <use xlink:href="#b" fill="#c3ac4f"/>
  <use xlink:href="#c" fill="#c3ac4f"/>
  <use xlink:href="#d" fill="#c3ac4f"/>
  <use xlink:href="#e" fill="#c3ac4f"/>
  <use xlink:href="#f" fill="#fccf19"/>
  <use xlink:href="#g" fill="#c9ae78"/>
  <use xlink:href="#h" fill="#ec7d58"/>
  <use xlink:href="#i" fill="#ec7d58"/>
  <use xlink:href="#j" fill="#fff3a1"/>
  <use xlink:href="#k" fill="#44b3ef"/>
  <use xlink:href="#l" fill="#0d166b"/>
  <use xlink:href="#m" fill="#0d166b"/>
  <use xlink:href="#n" fill="#ed4d4d"/>
  <use xlink:href="#o" fill="#fccf19"/>
  <use xlink:href="#p" fill="#fccf19"/>
  <use xlink:href="#q" fill="#fccf19"/>
  <use xlink:href="#r" fill="#fccf19"/>
  <use xlink:href="#s" fill="#fccf19"/>
  <use xlink:href="#t" fill="#44b3ef"/>
  <use xlink:href="#u" fill="#44b3ef"/>
  <use xlink:href="#v" fill="#fccf19"/>
  <use xlink:href="#w" fill="#fccf19"/>
  <use xlink:href="#x" fill="#7e7e7e"/>
  <use xlink:href="#y" fill="#7e7e7e"/>
  <use xlink:href="#z" fill="#7e7e7e"/>
  <use xlink:href="#A" fill="#7e7e7e"/>
</svg>
