<svg xmlns="http://www.w3.org/2000/svg" xmlns:xlink="http://www.w3.org/1999/xlink" width="524" height="917" viewBox="221.053 48.539 524 917">
  <defs>
    <path id="a" d="M221.05 48.54h524v917h-524v-917Z"/>
    <path id="b" d="M221.05 842.55v122.99h524V850.43l-524-7.88Z"/>
    <path id="c" d="m617.68 239.17 31.73 14.1 53.43 62.11-1.86 91.23-37.5-66.03v20.41l-12.82 5.87L662 668.3l-6.73 215.39 33.66 43.27-1.61 9.29-35.57 15.71-28.85-45.2-11.86-231.09-47.56-.89-34.94 226.6-33.97 36.86-9.94 1.6-38.14-17.63 48.08-23.07 12.5-229.86 13.14-186.08-13.14-122.21-.64-48.72-86.22 53.52-91.03-42.62-1.92-5.77-4.17 2.24-19.55-7.37-5.77-27.57 9.94-6.09 2.88 3.53 7.45-8.15 15.86 26.45 79.33 29.8 111.54-87.98 92.91-3.09Z"/>
    <path id="d" d="m531.01 242.03 24.04 33.33 78.2-17.63 6.41-8.97 10.58 5.13 12.6 104.35 1.71 221.35-1.71 90.16-52.25 14.1h-47.43l-77.89-25.64 21.51-239v-57.95l15.7-78.85 2.89-40.38h5.64Z"/>
    <path id="e" d="m745.05 850.41-49.83-.59 4.01-801.28h44.82l1 801.87Z"/>
    <path id="f" d="m509.21 636.12 67.48 23.72 46.94-2.45 39.21-20.54v8.85l-35.05 17.07-52.88 3.47-66.78-20.54-21.02-11.49.97-10.27 21.13 12.18Z"/>
    <path id="g" d="m444.2 208.5 13.44-16.14 40.35-16.38 149.97-49.41 72.86-11.98 11.49-6.6-22-22.74-30.81-4.16-36.94 8.83-151.84 40.59-55.01 38.87-3.91 24.21 7.09 18.33 5.31-3.42Z"/>
    <path id="h" d="m653.24 178.77 31.54-20.05.74-24.2 40.09-22.01-15.64-19.56-26.65-5.13-22.5 6.84-14.42 26.9-150.61 49.53-15.9-16.62-20.54 2.93-19.07 28.85 3.18 23.47 16.87-14.42 44.01 25.67h12.47l136.43-42.2Z"/>
    <path id="i" d="m496.4 171.51-4.4-41.32 27.38-31.79 33.01-15.16L592 79.09l51.1 10.02 9.34 89.39-48.66 86.07-28.87 6.11-39.59-21.76-27.87-42.3-11.05-35.11Z"/>
    <path id="j" d="m512.04 147.29 16.82-3.4 12.1 2.62 9.83 13.82-2.65 20.23-17.39 13.23-17.77 1.14-10.2-14.94v-24.76l9.26-7.94Z"/>
    <path id="k" d="m508.45 173.19 14.74 6.42 11.91-2.07 8.32-19.29-30.44-.94-4.53 15.88Z"/>
    <path id="l" d="M512.98 157.31h20.8l6.05 9.64-4.73 10.4-11.72 2.26-8.88-3.96-4.16-8.13 2.64-10.21Z"/>
    <path id="m" d="m529.24 161.66 1.32 8.88-6.8 3.78-6.24-3.78 1.32-8.88h10.4Z"/>
    <path id="n" d="m542.85 131.41-9.26-6.62-18.72 3.03-18.33 25.9 20.98-16.45 16.82-2.27 13.99 4.16-5.48-7.75Z"/>
    <path id="o" d="m578.01 134.62 10.02-8.69 16.64-4.54 11.9 4.05 12.48 9.18-1.32 23.26-5.67 6.23-26.28 7.19-23.56-15.5 5.79-21.18Z"/>
    <path id="p" d="m611.47 131.79 9.26 7.47-12.28 15.13-13.8 2.92-17.77-8.13 16.25-16.26 18.34-1.13Z"/>
    <path id="q" d="m592.95 132.92 14.93-1.13 4.91 5.1.57 11.16-4.72 6.34-13.43 2.92-8.31-4.16-1.89-12.48 7.94-7.75Z"/>
    <path id="r" d="m603.53 138.22 3.59 1.04v9.54l-7.37 2.84-6.43-5.3.76-4.34 3.59-6.24 5.86 2.46Z"/>
    <path id="s" d="m572.22 116.85 11.27-10.39 3.97.57 18.72-4.35 21.36 15.88-22.87-6.05-21.18 4.91-15.31 12.67 4.04-13.24Z"/>
    <path id="t" d="m585.01 188.5 15.62 9.45-.41 7.75-10.68 5.11-1.51 9.26-13.99 14.18-14.74-5.11-4.35-9.07h-6.05l-5.48-9.26 11.53-11.54-1.7-15.12v-59.36l31.76 63.71Z"/>
    <path id="u" d="m576.88 243.62 31.32-15.5-5.48 14.56-23.25 17.01-17.02-3.4-14.12-13.61 28.55.94Z"/>
    <path id="v" d="m311 254.26-6.88-18.65 15.49 16.78 19.66-13.77-13.92 21.23 22.52-9.18-18.07 12.63 16.5-1.87-28.84 12.91-26.83-23.24 20.37 3.16Z"/>
  </defs>
  <use xlink:href="#a" fill="#7e7e7e"/>
  <use xlink:href="#b" fill-opacity="0" stroke="#000000"/>
  <use xlink:href="#b" fill="#000000"/>
  <use xlink:href="#c" fill="#e4caad"/>
  <use xlink:href="#d" fill="#9ec6e3"/>
  <use xlink:href="#e" fill="#795548"/>
  <use xlink:href="#f" fill="#6b85c1"/>
  <use xlink:href="#g" fill="#e4caad"/>
  <use xlink:href="#h" fill="#bfa588"/>
  <use xlink:href="#i" fill="#f3e2ce"/>
  <use xlink:href="#j" fill="#e4caad"/>
  <use xlink:href="#k" fill="#ffffff"/>
  <use xlink:href="#l" fill="#486c4d"/>
  <use xlink:href="#m" fill="#8ebf94"/>
  <use xlink:href="#n" fill="#c8c8c8"/>
  <use xlink:href="#o" fill="#e4caad"/>
  <use xlink:href="#p" fill="#ffffff"/>
  <use xlink:href="#q" fill="#486c4d"/>
  <use xlink:href="#r" fill="#8ebf94"/>
  <use xlink:href="#s" fill="#c8c8c8"/>
  <use xlink:href="#t" fill="#e4caad"/>
  <use xlink:href="#u" fill="#e7ced9"/>
  <use xlink:href="#v" fill="#e4943e"/>
</svg>
