<svg xmlns="http://www.w3.org/2000/svg" xmlns:xlink="http://www.w3.org/1999/xlink" width="262" height="655" viewBox="215 60 262 655">
  <defs>
    <path id="a" d="M215 60h262v655H215V60Z"/>
    <path id="b" d="m367.66 97.18 9.92-18.98 12.46-13.32L403.92 60h39.1l24.93 18.2L477 98.59v40.23l-38.63 85.35-7.79-2.68-1.73 4.18-5.16-5.24 36.61-92.66-1.14-20.4-14.44-20.96-24.65-8.21-20.96 5.38-10.48 10.76-7.37 31.45-8.22 2.83-11.33-7.65 5.95-23.79Z"/>
    <path id="c" d="m376.96 211.28 89.13 26.74 8.48-16.31-5.22-1.3-4.92 14.56-25.52-6.52 5.44-18.26-4.35-.65-5.22 16.09-22.47-6.31 5.73-17.39-3.26-1.52-4.04 16.74-7.26-1.74 5.87-16.52-3.7-1.31-5.22 16.74-10.43-3.04 6.3-17.39-4.78-1.74-6.3 16.3-3.7-1.08 5.44-17.18-3.24-.88-6.11 17.19-.65 4.78Z"/>
    <path id="d" d="m235.23 654.85 26.45 13.46L477 337.96v-92.91l-8.82-11.15-92.11-32.48-34.34 3.48-106.5 449.95Z"/>
    <path id="e" d="m239.53 658.81 2.78 2.09 153.92-435.13-14.85-16.94-10.21 4.83-131.64 445.15Z"/>
    <path id="f" d="m398.16 220.9 3.48-9.98-12.76-4.41 9.28 14.39Z"/>
    <path id="g" d="m412.31 214.38 14.85 14.38 1.86-2.78 29.23 19.95-209.47 416.81-3.48-1.84 180.46-428.4-22.03-20.19 8.58 2.07Z"/>
    <path id="h" d="m454.59 236.88 6.34-5.03-20.3-7.26 13.96 12.29Z"/>
    <path id="i" d="m467.94 234.46 8.56 10.81.5 7.5-14.17-16.51 1.08-3.47 4.03 1.67Z"/>
    <path id="j" d="m251.9 663.64 5.26 3.31L476.5 308.8l.5-46.69-225.1 401.53Z"/>
    <path id="k" d="M254.35 667.61 229.99 715h-6.5l-3.94-7.25 20.42-45.01 14.38 4.87Z"/>
    <path id="l" d="m262.71 667.61-4.18 7.65-25.76-13.22 3.02-8.35 26.92 13.92Z"/>
  </defs>
  <use xlink:href="#a" fill="#7e7e7e"/>
  <use xlink:href="#b" fill="#64422c"/>
  <use xlink:href="#c" fill="#9d5c21"/>
  <use xlink:href="#d" fill="#bc3195"/>
  <use xlink:href="#e" fill="#f996dd"/>
  <use xlink:href="#f" fill="#f996dd"/>
  <use xlink:href="#g" fill="#f996dd"/>
  <use xlink:href="#h" fill="#f996dd"/>
  <use xlink:href="#i" fill="#f996dd"/>
  <use xlink:href="#j" fill="#f996dd"/>
  <use xlink:href="#k" fill="#9d5c21"/>
  <use xlink:href="#l" fill="#64422c"/>
</svg>
