<svg xmlns="http://www.w3.org/2000/svg" xmlns:xlink="http://www.w3.org/1999/xlink" width="262" height="524" viewBox="52.248 23.987 262 524">
  <defs>
    <path id="a" d="M314.25 23.99v524h-262v-524h262Z"/>
    <path id="b" d="m185.6 523.38-46.36 24.05-2.05-11.19-33.97-7.64-1.93-14.66-22.13 18.28-26.91-19.24V43.73l26.91-2.29L185.6 523.38Z"/>
    <path id="c" d="m88.15 494.22-7.91 9.42-5.87-4.37 1.09-94.54 12.69 89.49Z"/>
    <path id="d" d="m129.73 492.67.68 4.64 45.3-18.56 1.77 8.33-45.43 19.23-.96-4.36-31.1-4.92-1.36-9.95 31.1 5.59Z"/>
    <path id="e" d="m134.1 516.13.68 5.87 46.38-19.51 2.09 8.05-46.56 21.69-1.5-7.91-33.29-7.09-.55-7.64 32.75 6.54Z"/>
  </defs>
  <use xlink:href="#a" fill="#7e7e7e"/>
  <use xlink:href="#b" fill="#882c1d"/>
  <use xlink:href="#c" fill="#7e7e7e"/>
  <use xlink:href="#d" fill="#e5c04d"/>
  <use xlink:href="#e" fill="#e5c04d"/>
</svg>
