<?xml version="1.0" encoding="UTF-8" standalone="no"?>
<!DOCTYPE svg PUBLIC "-//W3C//DTD SVG 1.1//EN" "http://www.w3.org/Graphics/SVG/1.1/DTD/svg11.dtd">
<svg version="1.1" xmlns="http://www.w3.org/2000/svg" xmlns:xlink="http://www.w3.org/1999/xlink" preserveAspectRatio="xMidYMid meet" viewBox="326.2589364518976 552.0131978155341 262.0000000000002 524" width="262" height="524"><defs><path d="M588.26 552.01L588.26 1076.01L326.26 1076.01L326.26 552.01L588.26 552.01Z" id="c5Vv3nVs0"></path><path d="M459.61 1051.4L413.25 1075.46L411.2 1064.27L377.23 1056.63L375.3 1041.96L353.17 1060.25L326.26 1041.01L326.26 571.76L353.17 569.47L459.61 1051.4Z" id="b5RkzpxItA"></path><path d="M362.16 1022.25L354.25 1031.66L348.38 1027.3L349.47 932.76L362.16 1022.25Z" id="g3aeLM8Bi0"></path><path d="M403.74 1020.7L404.42 1025.33L449.72 1006.78L451.49 1015.1L406.06 1034.34L405.11 1029.97L374 1025.06L372.64 1015.1L403.74 1020.7Z" id="g3M7jCBxKw"></path><path d="M408.11 1044.16L408.79 1050.03L455.17 1030.52L457.26 1038.57L410.7 1060.26L409.2 1052.35L375.91 1045.25L375.36 1037.61L408.11 1044.16Z" id="gbYF3T6cG"></path></defs><g><g><g><use xlink:href="#c5Vv3nVs0" opacity="1" fill="#7e7e7e" fill-opacity="1"></use></g><g><use xlink:href="#b5RkzpxItA" opacity="1" fill="#353535" fill-opacity="1"></use></g><g><use xlink:href="#g3aeLM8Bi0" opacity="1" fill="#7e7e7e" fill-opacity="1"></use></g><g><use xlink:href="#g3M7jCBxKw" opacity="1" fill="#f0eb00" fill-opacity="1"></use></g><g><use xlink:href="#gbYF3T6cG" opacity="1" fill="#f0eb00" fill-opacity="1"></use></g></g></g></svg>