<?xml version="1.0" encoding="UTF-8" standalone="no"?>
<!DOCTYPE svg PUBLIC "-//W3C//DTD SVG 1.1//EN" "http://www.w3.org/Graphics/SVG/1.1/DTD/svg11.dtd">
<svg version="1.1" xmlns="http://www.w3.org/2000/svg" xmlns:xlink="http://www.w3.org/1999/xlink" preserveAspectRatio="xMidYMid meet" viewBox="51.27714033539266 551.7325546116504 262.0000000000002 524" width="262" height="524"><defs><path d="M313.28 551.73L313.28 1075.73L51.28 1075.73L51.28 551.73L313.28 551.73Z" id="bwDhI0RRj"></path><path d="M184.63 1051.12L138.27 1075.18L136.22 1063.99L102.25 1056.35L100.31 1041.68L78.19 1059.96L51.28 1040.73L51.28 571.48L78.19 569.18L184.63 1051.12Z" id="b1nb5qtbaF"></path><path d="M87.18 1021.97L79.26 1031.38L73.4 1027.02L74.49 932.47L87.18 1021.97Z" id="l1oIcmmVZv"></path><path d="M128.76 1020.41L129.44 1025.05L174.73 1006.5L176.51 1014.82L131.08 1034.06L130.12 1029.69L99.02 1024.78L97.65 1014.82L128.76 1020.41Z" id="g1DvVqrTiW"></path><path d="M133.13 1043.88L133.81 1049.75L180.19 1030.24L182.28 1038.29L135.72 1059.98L134.22 1052.07L100.93 1044.97L100.38 1037.33L133.13 1043.88Z" id="ekH4kZKqg"></path></defs><g><g><g><use xlink:href="#bwDhI0RRj" opacity="1" fill="#7e7e7e" fill-opacity="1"></use></g><g><use xlink:href="#b1nb5qtbaF" opacity="1" fill="#24881d" fill-opacity="1"></use></g><g><use xlink:href="#l1oIcmmVZv" opacity="1" fill="#7e7e7e" fill-opacity="1"></use></g><g><use xlink:href="#g1DvVqrTiW" opacity="1" fill="#d7d7d7" fill-opacity="1"></use></g><g><use xlink:href="#ekH4kZKqg" opacity="1" fill="#d7d7d7" fill-opacity="1"></use></g></g></g></svg>