<?xml version="1.0" encoding="UTF-8" standalone="no"?>
<!DOCTYPE svg PUBLIC "-//W3C//DTD SVG 1.1//EN" "http://www.w3.org/Graphics/SVG/1.1/DTD/svg11.dtd">
<svg version="1.1" xmlns="http://www.w3.org/2000/svg" xmlns:xlink="http://www.w3.org/1999/xlink" preserveAspectRatio="xMidYMid meet" viewBox="326.2589364518975 23.986802184465887 262.00000000000034 524" width="262" height="524"><defs><path d="M588.26 23.99L588.26 547.99L326.26 547.99L326.26 23.99L588.26 23.99Z" id="b2Q34gnz5w"></path><path d="M459.61 523.38L413.25 547.43L411.2 536.24L377.23 528.6L375.3 513.94L353.17 532.22L326.26 512.98L326.26 43.73L353.17 41.44L459.61 523.38Z" id="c1vZO8UlHD"></path><path d="M362.16 494.22L354.25 503.64L348.38 499.27L349.47 404.73L362.16 494.22Z" id="gSi4PmR35"></path><path d="M403.74 492.67L404.42 497.31L449.72 478.75L451.49 487.08L406.06 506.31L405.11 501.95L374 497.03L372.64 487.08L403.74 492.67Z" id="a4ye9PbMlT"></path><path d="M408.11 516.13L408.79 522L455.17 502.49L457.26 510.54L410.7 532.23L409.2 524.32L375.91 517.23L375.36 509.59L408.11 516.13Z" id="e2nWWmDpTG"></path></defs><g><g><g><use xlink:href="#b2Q34gnz5w" opacity="1" fill="#7e7e7e" fill-opacity="1"></use></g><g><use xlink:href="#c1vZO8UlHD" opacity="1" fill="#1d4588" fill-opacity="1"></use></g><g><use xlink:href="#gSi4PmR35" opacity="1" fill="#7e7e7e" fill-opacity="1"></use></g><g><use xlink:href="#a4ye9PbMlT" opacity="1" fill="#d49c1d" fill-opacity="1"></use></g><g><use xlink:href="#e2nWWmDpTG" opacity="1" fill="#d49c1d" fill-opacity="1"></use></g></g></g></svg>